<?xml version="1.0" encoding="utf-8"?>
<!-- Generator: Adobe Illustrator 24.2.1, SVG Export Plug-In . SVG Version: 6.00 Build 0)  -->
<svg version="1.1" xmlns="http://www.w3.org/2000/svg" xmlns:xlink="http://www.w3.org/1999/xlink" x="0px" y="0px"
	 viewBox="0 0 188.5 317.7" style="enable-background:new 0 0 188.5 317.7;" xml:space="preserve">
<style type="text/css">
	.st0{display:none;}
	.st1{display:inline;}
	.st2{fill:#F0825D;}
	.st3{display:inline;fill:#FFFFFF;}
	.st4{fill:url(#SVGID_1_);}
	.st5{fill:none;stroke:#FFFFFF;stroke-miterlimit:10;}
	.st6{fill:url(#SVGID_2_);}
	.st7{fill:url(#SVGID_3_);}
	.st8{fill:url(#SVGID_4_);}
	.st9{fill:#FFFFFF;}
	.st10{fill:url(#SVGID_5_);}
	.st11{fill:url(#SVGID_6_);}
	.st12{fill:url(#SVGID_7_);}
	.st13{fill:url(#SVGID_8_);}
	.st14{fill:url(#SVGID_9_);}
	.st15{fill:url(#SVGID_10_);}
	.st16{fill:url(#SVGID_11_);}
	.st17{fill:url(#SVGID_12_);}
	.st18{fill:url(#SVGID_13_);}
	.st19{fill:url(#SVGID_14_);}
	.st20{fill:url(#SVGID_15_);}
	.st21{fill:url(#SVGID_16_);}
	.st22{fill:url(#SVGID_17_);}
	.st23{fill:url(#SVGID_18_);}
	.st24{fill:url(#SVGID_19_);}
	.st25{fill:url(#SVGID_20_);}
	.st26{fill:url(#SVGID_21_);}
	.st27{fill:url(#SVGID_22_);}
	.st28{fill:url(#SVGID_23_);}
	.st29{fill:url(#SVGID_24_);}
	.st30{fill-rule:evenodd;clip-rule:evenodd;fill:#FFFFFF;}
	.st31{fill:url(#SVGID_25_);}
	.st32{fill:url(#SVGID_26_);}
	.st33{fill:url(#SVGID_27_);}
	.st34{fill:url(#SVGID_28_);}
	.st35{fill:url(#SVGID_29_);}
	.st36{fill:url(#SVGID_30_);}
	.st37{fill:url(#SVGID_31_);}
	.st38{fill:url(#SVGID_32_);}
	.st39{fill:url(#SVGID_33_);}
	.st40{fill:url(#SVGID_34_);}
	.st41{fill:none;}
	.st42{font-family:'Roboto-Regular';}
	.st43{font-size:5.5115px;}
	.st44{letter-spacing:1;}
	.st45{letter-spacing:2;}
	.st46{font-family:'Roboto-Bold';}
	.st47{font-size:8.8184px;}
	.st48{fill:url(#SVGID_35_);}
	.st49{fill:url(#SVGID_36_);}
	.st50{fill:url(#SVGID_37_);}
	.st51{fill:url(#SVGID_38_);}
	.st52{fill:url(#SVGID_39_);}
	.st53{fill:url(#SVGID_40_);}
	.st54{fill:url(#SVGID_41_);}
	.st55{fill:url(#SVGID_42_);}
	.st56{fill:url(#SVGID_43_);}
	.st57{fill:url(#SVGID_44_);}
	.st58{fill:url(#SVGID_45_);}
	.st59{fill:url(#SVGID_46_);}
	.st60{fill:url(#SVGID_47_);}
	.st61{fill:url(#SVGID_48_);}
	.st62{font-family:'Roboto-Thin';}
	.st63{font-size:10px;}
	.st64{fill:url(#SVGID_49_);}
	.st65{fill:url(#SVGID_50_);}
	.st66{fill:url(#SVGID_51_);}
	.st67{fill:url(#SVGID_52_);}
	.st68{fill:url(#SVGID_53_);}
	.st69{fill:url(#SVGID_54_);}
	.st70{fill:url(#SVGID_55_);}
	.st71{fill:url(#SVGID_56_);}
</style>
<g id="Logo" class="st0">
	<g class="st1">
		<text transform="matrix(1 0 0 1 -1098.0138 -610.3769)" class="st9" style="font-family:'Monoid-Bold'; font-size:24.5422px;">The Space of</text>
		<text transform="matrix(1 0 0 1 -1107.9357 -549.7695)" class="st9" style="font-family:'Gamer'; font-size:107.939px;">Developers</text>
		<g>
			<g>
				<path class="st2" d="M-734.8-498.5c-16.8,0-32.3-6-44.4-16.1l-6.3,9.7c13.9,11.2,31.5,17.9,50.6,17.9c19.2,0,36.8-6.7,50.6-17.9
					l-8-8.3C-703.9-504-718.7-498.5-734.8-498.5z"/>
				<path class="st2" d="M-670.1-542.9l10.9,3.7c0.9-2.3,1.7-4.7,2.3-7.2l-10.8-4C-668.3-547.8-669.1-545.3-670.1-542.9z"/>
				<path class="st2" d="M-734.8-648.8c-23.4,0-44.6,10-59.4,26l6.7,9.7c12.7-14.8,31.6-24.3,52.7-24.3c38.3,0,69.4,31.2,69.4,69.4
					c0,4.6-0.5,9.2-1.3,13.5l11.2,2.4c1-5.2,1.6-10.5,1.6-16C-653.9-612.5-690.2-648.8-734.8-648.8z"/>
			</g>
		</g>
		<g>
			<g>
				<path class="st2" d="M-735.5-443.5c-50.7,0-94.8-28.2-116.1-69.2c-3.2,1.2-6.9,2.8-10.7,4.3c23.1,45.2,71.2,76.4,126.8,76.4
					c14.6,0,28.6-2.1,41.9-6.1c-1.2-3.7-2.4-7.8-3.4-11C-709.2-445.5-722.1-443.5-735.5-443.5z"/>
				<path class="st2" d="M-673.1-691.3c-0.6,3.4-1.6,8-2.4,11.6c41.5,20.9,69.9,62.8,69.9,111c0,50.7-31.5,94.5-76.6,114.1l4.5,10.5
					c49.2-21.4,83.6-69.2,83.6-124.7C-594.2-622.4-626.4-669-673.1-691.3z"/>
				<path class="st2" d="M-735.5-693.9c7,0,13.9,0.6,20.6,1.6l-4.8-12.2c-5.2-0.6-10.4-0.9-15.7-0.9c-56.2,0-104.9,31.9-127.6,78
					l8.2,9.6C-835.1-662.5-789-693.9-735.5-693.9z"/>
				<path class="st2" d="M-701.2-689.5c0.4-3.6,0.9-8.1,1.3-11.5c-4.5-1.1-9.1-2.1-13.8-2.8l5.5,12.7
					C-705.8-690.6-703.5-690.1-701.2-689.5z"/>
			</g>
		</g>
		<g>
			<g>
				<path class="st2" d="M-878.2-503.9c-2.4,1.9-5.2,4.1-7.9,6.2c1.8,3.5,3.7,7,5.7,10.4c2.8-2.3,5.8-4.6,7.7-6.3
					C-874.7-497-876.5-500.4-878.2-503.9z"/>
				<path class="st2" d="M-736.5-416c-54.5,0-102.6-27.4-130.7-68.9l-7,7.2c30,43.2,80.6,71.6,137.7,71.6
					c37.6,0,72.2-12.2,100.1-32.9c-1.9-2.7-4-5.5-5.8-8C-668.4-427.6-701.1-416-736.5-416z"/>
				<path class="st2" d="M-735.7-733v9.8c86.1,0.4,156,69.1,156,153.6c0,18.2-3.3,35.7-9.2,51.9l9.1,3.7c6.4-17.4,9.9-36.1,9.9-55.6
					C-569.8-659.5-644.2-732.6-735.7-733z"/>
				<path class="st2" d="M-854.1-671l-6.5-7.4c-9.1,10-17,21-23.4,33l7.6,6.7C-870.4-650.4-862.9-661.2-854.1-671z"/>
			</g>
		</g>
		<g>
			<g>
				<path class="st2" d="M-589.4-603.3c-15.7-64.9-75.6-113.4-147-113.4c-59.1,0-110.3,33.2-135.1,81.5l5.3,4.1
					c23.5-46.7,72.8-79,129.8-79c68.4,0,125.8,46.5,140.7,108.8C-593.8-602-591.4-602.7-589.4-603.3z"/>
				<path class="st2" d="M-587.2-592.3c-2.2,0.5-4.5,1-6.4,1.4c1.1,6.9,1.7,14,1.7,21.3c0,16.2-2.8,31.7-8,46.1l5.9,3.1
					c5.6-15.4,8.7-32,8.7-49.2C-585.4-577.4-586.1-584.9-587.2-592.3z"/>
				<path class="st2" d="M-865.8-507.4l-6.4,1.8c10.6,21.2,26.2,39.5,45.3,53.5l4.6-4.8C-840.7-470.1-855.6-487.4-865.8-507.4z"/>
			</g>
		</g>
		<g>
			<g>
				<path class="st2" d="M-624.9-575.5c2.1,0.3,4.5,0.7,6.7,1c-3.3-60.9-55.1-109.5-118.2-109.5c-37.6,0-71.2,17.3-92.9,44.1
					l7.3,1.5c20.5-23.8,51.3-39,85.6-39C-677.3-677.4-628.8-632.3-624.9-575.5z"/>
				<path class="st2" d="M-624.7-565.3c-1.6,58.8-51.1,106.1-111.7,106.1c-20.1,0-39-5.2-55.3-14.3l-1.5,6.7
					c16.9,9,36.2,14.2,56.7,14.2c64,0,116.2-49.8,118.3-111.8L-624.7-565.3z"/>
			</g>
		</g>
		<g>
			<g>
				<path class="st2" d="M-706.8-659l3.2-4.1c-10.4-3.6-21.5-5.6-33.1-5.6c-29.3,0-55.6,12.6-74,32.6l5.4,1.5
					c17.4-18,41.7-29.2,68.6-29.2C-726.3-663.8-716.2-662.1-706.8-659z"/>
				<path class="st2" d="M-671.7-644.7c-0.9,1.2-1.9,2.6-2.9,3.9c18.1,15.5,30.3,37.7,32.8,62.7c1.7,0.4,3.5,0.9,5,1.3
					C-639.1-603.9-652.1-628-671.7-644.7z"/>
				<path class="st2" d="M-736.7-473.1c-18.7,0-36.2-5.4-50.9-14.8l-1.3,5c15.2,9.3,33.1,14.7,52.2,14.7c35.7,0,67-18.8,84.8-46.9
					c-1.3-0.7-2.9-1.6-4.3-2.3C-673.2-490.8-702.9-473.1-736.7-473.1z"/>
			</g>
		</g>
		<g>
			<g>
				<path class="st2" d="M-736.7-659.2c-14.9,0-28.9,3.6-41.3,10c0.9,1.2,2.1,2.8,3,4c11.6-5.8,24.6-9,38.3-9
					c43.8,0,80,32.9,85.3,75.2l4.9-0.4C-652-624.3-690.3-659.2-736.7-659.2z"/>
				<path class="st2" d="M-736.7-482.2c-18.5,0-35.6-5.9-49.6-15.8l-0.9,5.4c14.5,9.7,31.8,15.4,50.5,15.4
					c22.7,0,43.5-8.4,59.5-22.2c-1.5-1.1-2.9-2.2-4-3C-696.2-489.9-715.5-482.2-736.7-482.2z"/>
			</g>
		</g>
		<g>
			<g>
				<path class="st2" d="M-736.4-508.1c-11.3,0-21.9-3-30.9-8.3c-0.7,1.5-1.4,3-2,4.5c9.7,5.5,21,8.7,33,8.7
					c15.3,0,29.3-5.1,40.4-13.7c-1-1.1-2.1-2.5-3.2-3.7C-709.4-512.8-722.3-508.1-736.4-508.1z"/>
				<path class="st2" d="M-736.4-630.1c-17.7,0-33.8,6.9-45.6,18.1l4.2,2.8c10.8-9.9,25.4-15.9,41.3-15.9
					c33.3,0,60.4,26.3,60.4,58.6c0,10.9-3.1,21.1-8.4,29.8l3.8,3.2c6-9.6,9.5-20.9,9.5-33C-671.1-601.7-700.4-630.1-736.4-630.1z"/>
			</g>
		</g>
	</g>
</g>
<g id="Loading_Bar" class="st0">
	<path class="st3" d="M-583.2-317.7h-498.2c-12.9,0-23.4,10.5-23.4,23.4v0c0,12.9,10.5,23.4,23.4,23.4h498.2
		c12.9,0,23.4-10.5,23.4-23.4v0C-559.9-307.2-570.3-317.7-583.2-317.7z M-563.4-294.3L-563.4-294.3c0,10.9-8.9,19.8-19.8,19.8
		l-227.3,0v-39.6h227.3C-572.3-314.1-563.4-305.3-563.4-294.3z"/>
</g>
<g id="input" class="st0">
	<g class="st1">
		<g>
			<linearGradient id="SVGID_1_" gradientUnits="userSpaceOnUse" x1="-744.7028" y1="-200.0178" x2="-564.0031" y2="-200.0178">
				<stop  offset="0" style="stop-color:#0D0E0E"/>
				<stop  offset="1" style="stop-color:#222222"/>
			</linearGradient>
			<path class="st4" d="M-581.2-217.3h-146.2c-9.5,0-17.2,7.7-17.2,17.2v0c0,9.5,7.7,17.2,17.2,17.2h146.2c9.5,0,17.2-7.7,17.2-17.2
				v0C-564-209.5-571.7-217.3-581.2-217.3z"/>
			<path class="st5" d="M-727.5-185.8h146.2c7.9,0,14.2-6.4,14.2-14.2v0c0-7.9-6.4-14.2-14.2-14.2h-146.2c-7.9,0-14.2,6.4-14.2,14.2
				v0C-741.7-192.2-735.3-185.8-727.5-185.8z"/>
		</g>
		<text transform="matrix(1 0 0 1 -670.0501 -197.9719)" class="st9 st62" style="font-size:7px;">Username</text>
	</g>
</g>
<g id="Boton" class="st0">
	<g class="st1">
		<linearGradient id="SVGID_2_" gradientUnits="userSpaceOnUse" x1="-757.5594" y1="-130.3839" x2="-577.0287" y2="-130.3839">
			<stop  offset="0" style="stop-color:#F9B654"/>
			<stop  offset="1" style="stop-color:#EF7C2C"/>
		</linearGradient>
		<path class="st6" d="M-589.8-117.6h-155c-7,0-12.8-5.7-12.8-12.8v0c0-7,5.7-12.8,12.8-12.8h155c7,0,12.8,5.7,12.8,12.8v0
			C-577-123.3-582.7-117.6-589.8-117.6z"/>
		<g>
			<text transform="matrix(1 0 0 1 -688.1691 -124.7588)" class="st9 st46" style="font-size:15px;">Login</text>
		</g>
	</g>
</g>
<g id="Login_Google_Apple" class="st0">
	<g class="st1">
		<g>
			<linearGradient id="SVGID_3_" gradientUnits="userSpaceOnUse" x1="-610.8214" y1="-60.9722" x2="-575.8265" y2="-60.9722">
				<stop  offset="0" style="stop-color:#F9B654"/>
				<stop  offset="1" style="stop-color:#EF7C2C"/>
			</linearGradient>
			<path class="st7" d="M-582.1-78.7h-22.4c-3.5,0-6.3,2.8-6.3,6.3v22.8c0,3.5,2.8,6.3,6.3,6.3h22.4c3.5,0,6.3-2.8,6.3-6.3v-22.8
				C-575.8-75.8-578.6-78.7-582.1-78.7z"/>
			<linearGradient id="SVGID_4_" gradientUnits="userSpaceOnUse" x1="-608.5291" y1="-60.9722" x2="-578.1187" y2="-60.9722">
				<stop  offset="0" style="stop-color:#EF7C2C"/>
				<stop  offset="1" style="stop-color:#F9B654"/>
			</linearGradient>
			<path class="st8" d="M-582.1-76.4h-22.4c-2.2,0-4,1.8-4,4v22.8c0,2.2,1.8,4,4,4h22.4c2.2,0,4-1.8,4-4v-22.8
				C-578.1-74.6-579.9-76.4-582.1-76.4z"/>
			<path class="st5" d="M-582.1-47.1c1.4,0,2.5-1.1,2.5-2.5v-22.8c0-1.4-1.1-2.5-2.5-2.5h-22.4c-1.4,0-2.5,1.1-2.5,2.5v22.8
				c0,1.4,1.1,2.5,2.5,2.5H-582.1z"/>
			<g>
				<path class="st9" d="M-588.6-72.1C-588.6-72.1-588.6-72.1-588.6-72.1c0,1.4-0.1,2.4-1.1,3.4c-0.7,0.7-2.1,1.4-3.1,1.4
					c-0.1,0-0.1,0-0.1,0C-593-69.5-591.2-72.1-588.6-72.1z"/>
				<path class="st9" d="M-586.2-57.7c0.6,0.9,2.4,1.9,2.2,2.5c-0.1,0.5-1.6,2.7-2,3.2c-3.2,4-4.4,0.8-7.1,0.9
					c-1.4,0.1-1.9,1.2-3.4,1.2c-0.2,0-0.4,0-0.6,0c-1.1-0.2-2.3-1.3-3-2.1c-1.4-1.7-2.6-5.3-2.8-7.5c-0.2-2.7,1-5.5,3.4-6.9
					c2.8-1.6,4.8,0.4,6.6,0.8c0.5,0.1,0.9,0.1,1.4-0.1c1.5-0.8,2-1.4,4-0.9c1.1,0.3,2.3,1.2,2.9,2.1
					C-586.8-62.7-588.1-60.3-586.2-57.7z"/>
			</g>
		</g>
		<g>
			<linearGradient id="SVGID_5_" gradientUnits="userSpaceOnUse" x1="-692.2912" y1="-60.9722" x2="-657.2963" y2="-60.9722">
				<stop  offset="0" style="stop-color:#F9B654"/>
				<stop  offset="1" style="stop-color:#EF7C2C"/>
			</linearGradient>
			<path class="st10" d="M-663.6-78.7H-686c-3.5,0-6.3,2.8-6.3,6.3v22.8c0,3.5,2.8,6.3,6.3,6.3h22.4c3.5,0,6.3-2.8,6.3-6.3v-22.8
				C-657.3-75.8-660.1-78.7-663.6-78.7z"/>
			<linearGradient id="SVGID_6_" gradientUnits="userSpaceOnUse" x1="-689.999" y1="-60.9722" x2="-659.5885" y2="-60.9722">
				<stop  offset="0" style="stop-color:#EF7C2C"/>
				<stop  offset="1" style="stop-color:#F9B654"/>
			</linearGradient>
			<path class="st11" d="M-663.6-76.4H-686c-2.2,0-4,1.8-4,4v22.8c0,2.2,1.8,4,4,4h22.4c2.2,0,4-1.8,4-4v-22.8
				C-659.6-74.6-661.4-76.4-663.6-76.4z"/>
			<path class="st5" d="M-663.6-47.1c1.4,0,2.5-1.1,2.5-2.5v-22.8c0-1.4-1.1-2.5-2.5-2.5H-686c-1.4,0-2.5,1.1-2.5,2.5v22.8
				c0,1.4,1.1,2.5,2.5,2.5H-663.6z"/>
			<g>
				<path class="st9" d="M-664.2-61.7c0,0.3,0,0.7,0,1l0,0.3c0,0.3-0.1,0.7-0.1,1l0,0.2c-0.1,0.4-0.1,0.8-0.2,1.1l-0.1,0.3
					c-0.1,0.3-0.2,0.5-0.3,0.8l-0.2,0.4c-0.1,0.3-0.3,0.5-0.4,0.8l-0.1,0.2l-0.1,0.1c-0.5,0.8-1,1.5-1.7,2.1l-0.1,0.1l0,0
					c-0.3,0.3-0.6,0.5-0.9,0.8l0,0c-0.3,0.2-0.7,0.5-1.1,0.7c-0.4,0.2-0.9,0.4-1.3,0.6l-0.1,0l0,0c-1.3,0.5-3.1,0.7-4.4,0.7l3.7-6.5
					c1.2-1,2-2.5,2-4.2c0-1.6-0.7-3-1.8-3.9h6.3c0.3,0.9,0.7,2.1,0.7,3L-664.2-61.7z"/>
				<path class="st9" d="M-683.7-66.6l3.7,6.4c0.4,2.6,2.6,4.6,5.3,4.6c0.4,0,0.7,0,1.1-0.1l-3,5.3c-0.8-0.1-1.5-0.4-2.2-0.7
					l-0.3-0.1l-0.1,0c-0.2-0.1-0.4-0.2-0.6-0.3l-0.3-0.1l-0.1-0.1c-0.2-0.1-0.4-0.2-0.6-0.4l-0.3-0.2c-0.2-0.1-0.3-0.3-0.5-0.4
					l-0.3-0.3c-0.1-0.1-0.3-0.2-0.4-0.4c-0.1-0.1-0.3-0.3-0.4-0.4l-0.3-0.3c-0.1-0.2-0.3-0.3-0.4-0.5l-0.2-0.3
					c-0.1-0.2-0.3-0.4-0.4-0.6l-0.1-0.1l-0.1-0.3c-0.1-0.2-0.2-0.4-0.3-0.6c-0.1-0.2-0.1-0.3-0.2-0.5c-0.1-0.2-0.1-0.3-0.2-0.5
					c-0.1-0.2-0.1-0.4-0.2-0.6l-0.1-0.4c0-0.2-0.1-0.4-0.1-0.6l-0.1-0.4c0-0.2-0.1-0.4-0.1-0.6l0-0.5c0-0.2,0-0.4,0-0.5
					c0-0.2,0-0.4,0-0.5l0-0.5c0-0.2,0-0.4,0.1-0.6l0.1-0.4c0-0.2,0.1-0.4,0.1-0.6l0.1-0.4c0.1-0.2,0.1-0.4,0.2-0.6
					c0.1-0.2,0.1-0.3,0.2-0.5l0.2-0.5c0.1-0.2,0.2-0.4,0.3-0.6L-683.7-66.6L-683.7-66.6z"/>
				<path class="st9" d="M-665.6-66.3h-9.2c-2.4,0-4.4,1.5-5.1,3.7l-3-5.3l0.1-0.1c0.1-0.2,0.3-0.3,0.5-0.5l0.3-0.3
					c0.1-0.1,0.3-0.3,0.4-0.4l0.4-0.3c0.1-0.1,0.3-0.2,0.4-0.3c0.1-0.1,0.3-0.2,0.4-0.3l0.3-0.2l0.2-0.1c0.2-0.1,0.3-0.2,0.5-0.2
					c0.2-0.1,0.3-0.2,0.5-0.2l0.4-0.1c0.2-0.1,0.4-0.2,0.6-0.2l0.2,0c0.8-0.2,1.6-0.4,2.4-0.4l0.4,0l0.5,0c0.2,0,0.4,0,0.6,0l0.4,0
					c0.2,0,0.4,0,0.7,0.1l0.3,0.1c0.2,0,0.4,0.1,0.7,0.1l0.3,0.1c0.2,0.1,0.4,0.1,0.6,0.2l0.4,0.2c0.2,0.1,0.3,0.1,0.5,0.2
					c0.2,0.1,0.3,0.2,0.5,0.3l0.3,0.2l0.1,0.1c0.4,0.2,0.7,0.5,1.1,0.7l0.1,0.1c0.3,0.2,0.6,0.5,0.9,0.8l0.2,0.2
					c0.3,0.3,0.5,0.6,0.7,0.9l0.1,0.1C-666-67.1-665.8-66.7-665.6-66.3z"/>
				<path class="st9" d="M-674.8-65c2.2,0,4,1.8,4,4c0,2.2-1.8,4-4,4c-2.2,0-4-1.8-4-4S-677-65-674.8-65z"/>
			</g>
		</g>
	</g>
</g>
<g id="Boton_Studing_add" class="st0">
	<g class="st1">
		<g>
			<path class="st9" d="M-592-11.2h-151.5c-7.1,0-12.8,6.4-12.8,14.3v0c0,7.9,5.7,14.3,12.8,14.3H-592c7.1,0,12.8-6.4,12.8-14.3v0
				C-579.2-4.7-585-11.2-592-11.2z"/>
			<linearGradient id="SVGID_7_" gradientUnits="userSpaceOnUse" x1="-750.2031" y1="3.5496" x2="-496.2108" y2="2.3951">
				<stop  offset="0" style="stop-color:#222222"/>
				<stop  offset="0.261" style="stop-color:#202021"/>
				<stop  offset="0.4177" style="stop-color:#1B1B1C"/>
				<stop  offset="0.5465" style="stop-color:#121213"/>
				<stop  offset="0.5899" style="stop-color:#0D0E0E"/>
			</linearGradient>
			<path class="st12" d="M-592.1-10.3h-151.3c-6.6,0-12,6-12,13.5v0c0,7.4,5.4,13.5,12,13.5h151.3c6.6,0,12-6,12-13.5v0
				C-580.1-4.3-585.5-10.3-592.1-10.3z"/>
			<linearGradient id="SVGID_8_" gradientUnits="userSpaceOnUse" x1="-753.5555" y1="3.1751" x2="-559.2604" y2="3.1751">
				<stop  offset="0" style="stop-color:#0D0E0E"/>
				<stop  offset="5.068219e-02" style="stop-color:#111212"/>
				<stop  offset="0.2146" style="stop-color:#1B1B1C"/>
				<stop  offset="0.4115" style="stop-color:#202020"/>
				<stop  offset="0.727" style="stop-color:#222222"/>
			</linearGradient>
			<path class="st13" d="M-582,3.2c0-6.4-4.6-11.6-10.2-11.6h-151.1c-5.6,0-10.2,5.2-10.2,11.6c0,6.4,4.6,11.6,10.2,11.6h151.1
				C-586.6,14.8-582,9.6-582,3.2z"/>
		</g>
		<g>
			<circle class="st9" cx="-592.6" cy="3.2" r="14.3"/>
			
				<linearGradient id="SVGID_9_" gradientUnits="userSpaceOnUse" x1="-605.9396" y1="-504.1855" x2="-579.2843" y2="-504.1855" gradientTransform="matrix(1 0 0 -1 0 -501.0106)">
				<stop  offset="0" style="stop-color:#EF7852"/>
				<stop  offset="1" style="stop-color:#EB5C2C"/>
			</linearGradient>
			<circle class="st14" cx="-592.6" cy="3.2" r="13.3"/>
			
				<linearGradient id="SVGID_10_" gradientUnits="userSpaceOnUse" x1="-603.7183" y1="-504.1855" x2="-581.5056" y2="-504.1855" gradientTransform="matrix(1 0 0 -1 0 -501.0106)">
				<stop  offset="0" style="stop-color:#EB5C2C"/>
				<stop  offset="1" style="stop-color:#EF7852"/>
			</linearGradient>
			<path class="st15" d="M-592.6,14.3c-6.1,0-11.1-5-11.1-11.1c0-6.1,5-11.1,11.1-11.1c6.1,0,11.1,5,11.1,11.1
				C-581.5,9.3-586.5,14.3-592.6,14.3z"/>
			<polygon class="st9" points="-594.1,4.4 -597.9,4.4 -597.9,1.7 -594.1,1.7 -594.1,-2.4 -591.1,-2.4 -591.1,1.7 -587.3,1.7 
				-587.3,4.4 -591.1,4.4 -591.1,8.8 -594.1,8.8 			"/>
		</g>
		<text transform="matrix(1.11 0 0 1 -739.6636 6.0974)"><tspan x="0" y="0" class="st9 st63" style="font-family:'Roboto-Light';">Studing</tspan><tspan x="33.8" y="0" class="st9 st63" style="font-family:'Roboto-Light';">	</tspan></text>
	</g>
</g>
<g id="Menu_Rodape" class="st0">
	<g class="st1">
		<g>
			<path class="st9" d="M-591.3,43.9h-151.5c-7.1,0-12.8,6.4-12.8,14.3v0c0,7.9,5.7,14.3,12.8,14.3h151.5c7.1,0,12.8-6.4,12.8-14.3
				v0C-578.5,50.3-584.3,43.9-591.3,43.9z"/>
			<linearGradient id="SVGID_11_" gradientUnits="userSpaceOnUse" x1="-749.5101" y1="58.579" x2="-495.5178" y2="57.4245">
				<stop  offset="0" style="stop-color:#222222"/>
				<stop  offset="0.261" style="stop-color:#202021"/>
				<stop  offset="0.4177" style="stop-color:#1B1B1C"/>
				<stop  offset="0.5465" style="stop-color:#121213"/>
				<stop  offset="0.5899" style="stop-color:#0D0E0E"/>
			</linearGradient>
			<path class="st16" d="M-591.4,44.8h-151.3c-6.6,0-12,6-12,13.5v0c0,7.4,5.4,13.5,12,13.5h151.3c6.6,0,12-6,12-13.5v0
				C-579.4,50.8-584.8,44.8-591.4,44.8z"/>
			<linearGradient id="SVGID_12_" gradientUnits="userSpaceOnUse" x1="-752.8625" y1="58.2046" x2="-558.5674" y2="58.2046">
				<stop  offset="0" style="stop-color:#0D0E0E"/>
				<stop  offset="5.068219e-02" style="stop-color:#111212"/>
				<stop  offset="0.2146" style="stop-color:#1B1B1C"/>
				<stop  offset="0.4115" style="stop-color:#202020"/>
				<stop  offset="0.727" style="stop-color:#222222"/>
			</linearGradient>
			<path class="st17" d="M-581.3,58.2c0-6.4-4.6-11.6-10.2-11.6h-151.1c-5.6,0-10.2,5.2-10.2,11.6c0,6.4,4.6,11.6,10.2,11.6h151.1
				C-585.9,69.8-581.3,64.6-581.3,58.2z"/>
		</g>
		<g>
			<circle class="st9" cx="-741.7" cy="58.2" r="14.3"/>
			
				<linearGradient id="SVGID_13_" gradientUnits="userSpaceOnUse" x1="-755.0505" y1="-559.2149" x2="-728.3953" y2="-559.2149" gradientTransform="matrix(1 0 0 -1 0 -501.0106)">
				<stop  offset="0" style="stop-color:#EF7852"/>
				<stop  offset="1" style="stop-color:#EB5C2C"/>
			</linearGradient>
			<circle class="st18" cx="-741.7" cy="58.2" r="13.3"/>
			
				<linearGradient id="SVGID_14_" gradientUnits="userSpaceOnUse" x1="-752.8292" y1="-559.2149" x2="-730.6165" y2="-559.2149" gradientTransform="matrix(1 0 0 -1 0 -501.0106)">
				<stop  offset="0" style="stop-color:#EB5C2C"/>
				<stop  offset="1" style="stop-color:#EF7852"/>
			</linearGradient>
			<path class="st19" d="M-741.7,69.3c-6.1,0-11.1-5-11.1-11.1c0-6.1,5-11.1,11.1-11.1c6.1,0,11.1,5,11.1,11.1
				C-730.6,64.3-735.6,69.3-741.7,69.3z"/>
			<g>
				<path class="st9" d="M-742.9,51.6c-3,0-5.4,2.4-5.4,5.4c0,3,2.4,5.4,5.4,5.4s5.4-2.4,5.4-5.4C-737.5,54-739.9,51.6-742.9,51.6z
					 M-742.9,60.6c-2,0-3.5-1.6-3.5-3.5c0-2,1.6-3.5,3.5-3.5s3.5,1.6,3.5,3.5C-739.4,59-740.9,60.6-742.9,60.6z"/>
				<path class="st9" d="M-735.4,63.2l-1.9-1.9c-0.4-0.4-1-0.4-1.3,0c-0.4,0.4-0.4,1,0,1.3l1.9,1.9c0.4,0.4,1,0.4,1.3,0
					C-735,64.2-735,63.6-735.4,63.2z"/>
			</g>
		</g>
		<g>
			<circle class="st9" cx="-593.1" cy="58.2" r="14.3"/>
			
				<linearGradient id="SVGID_15_" gradientUnits="userSpaceOnUse" x1="-606.3825" y1="-559.2149" x2="-579.7272" y2="-559.2149" gradientTransform="matrix(1 0 0 -1 0 -501.0106)">
				<stop  offset="0" style="stop-color:#EF7852"/>
				<stop  offset="1" style="stop-color:#EB5C2C"/>
			</linearGradient>
			<circle class="st20" cx="-593.1" cy="58.2" r="13.3"/>
			
				<linearGradient id="SVGID_16_" gradientUnits="userSpaceOnUse" x1="-604.1612" y1="-559.2149" x2="-581.9485" y2="-559.2149" gradientTransform="matrix(1 0 0 -1 0 -501.0106)">
				<stop  offset="0" style="stop-color:#EB5C2C"/>
				<stop  offset="1" style="stop-color:#EF7852"/>
			</linearGradient>
			<path class="st21" d="M-593.1,69.3c-6.1,0-11.1-5-11.1-11.1c0-6.1,5-11.1,11.1-11.1c6.1,0,11.1,5,11.1,11.1
				C-581.9,64.3-586.9,69.3-593.1,69.3z"/>
			<path class="st9" d="M-588,58.9c0-0.2,0-0.4,0-0.7c0-0.2,0-0.4,0-0.7l1.4-1.1c0.1-0.1,0.2-0.3,0.1-0.4l-1.4-2.3
				c-0.1-0.1-0.3-0.2-0.4-0.1l-1.7,0.7c-0.4-0.3-0.7-0.5-1.1-0.7l-0.3-1.8c0-0.2-0.2-0.3-0.3-0.3h-2.7c-0.2,0-0.3,0.1-0.3,0.3
				l-0.3,1.8c-0.4,0.2-0.8,0.4-1.1,0.7l-1.7-0.7c-0.2-0.1-0.3,0-0.4,0.1l-1.3,2.3c-0.1,0.1,0,0.3,0.1,0.4l1.4,1.1c0,0.2,0,0.4,0,0.7
				c0,0.2,0,0.4,0,0.7l-1.4,1.1c-0.1,0.1-0.2,0.3-0.1,0.4l1.3,2.3c0.1,0.1,0.3,0.2,0.4,0.1l1.7-0.7c0.4,0.3,0.7,0.5,1.1,0.7l0.3,1.8
				c0,0.2,0.2,0.3,0.3,0.3h2.7c0.2,0,0.3-0.1,0.3-0.3l0.3-1.8c0.4-0.2,0.8-0.4,1.1-0.7l1.7,0.7c0.2,0.1,0.3,0,0.4-0.1l1.4-2.3
				c0.1-0.1,0-0.3-0.1-0.4L-588,58.9z M-593.1,60.6c-1.3,0-2.4-1.1-2.4-2.4c0-1.3,1.1-2.4,2.4-2.4c1.3,0,2.4,1.1,2.4,2.4
				C-590.7,59.5-591.8,60.6-593.1,60.6z"/>
		</g>
		<g>
			<circle class="st9" cx="-667.4" cy="58.2" r="14.3"/>
			
				<linearGradient id="SVGID_17_" gradientUnits="userSpaceOnUse" x1="-680.7165" y1="-559.2149" x2="-654.0612" y2="-559.2149" gradientTransform="matrix(1 0 0 -1 0 -501.0106)">
				<stop  offset="0" style="stop-color:#EF7852"/>
				<stop  offset="1" style="stop-color:#EB5C2C"/>
			</linearGradient>
			<circle class="st22" cx="-667.4" cy="58.2" r="13.3"/>
			
				<linearGradient id="SVGID_18_" gradientUnits="userSpaceOnUse" x1="-678.4952" y1="-559.2149" x2="-656.2825" y2="-559.2149" gradientTransform="matrix(1 0 0 -1 0 -501.0106)">
				<stop  offset="0" style="stop-color:#EB5C2C"/>
				<stop  offset="1" style="stop-color:#EF7852"/>
			</linearGradient>
			<path class="st23" d="M-667.4,69.3c-6.1,0-11.1-5-11.1-11.1c0-6.1,5-11.1,11.1-11.1c6.1,0,11.1,5,11.1,11.1
				C-656.3,64.3-661.3,69.3-667.4,69.3z"/>
			<path id="home_1_" class="st9" d="M-659.7,57.1l-6.9-5.2c-0.5-0.3-1.1-0.3-1.7,0l-6.8,5.2c-0.5,0.4-0.3,1.1,0.4,1.1h0.7v4
				c0,1.4,1.2,2.6,2.6,2.6h1.3c0.4,0,0.7-0.3,0.7-0.7v-3.2c0-0.7,0.6-1.4,1.3-1.4h1.3c0.7,0,1.3,0.7,1.3,1.4v3.2
				c0,0.3,0.3,0.7,0.7,0.7h1.3c1.5,0,2.6-1.2,2.6-2.6v-4h0.7C-659.5,58.2-659.2,57.5-659.7,57.1z"/>
		</g>
	</g>
</g>
<g id="Botons_Linguagens">
	<g>
		<g>
			<path class="st9" d="M165.3,5.4H119c-8.6,0-15.6,7-15.6,15.6v56.5c0,8.6,7,15.6,15.6,15.6h46.3c8.6,0,15.6-7,15.6-15.6V21
				C180.9,12.4,173.9,5.4,165.3,5.4z"/>
			<linearGradient id="SVGID_19_" gradientUnits="userSpaceOnUse" x1="106.06" y1="49.2519" x2="178.283" y2="49.2519">
				<stop  offset="0" style="stop-color:#F9B654"/>
				<stop  offset="1" style="stop-color:#EF7C2C"/>
			</linearGradient>
			<path class="st24" d="M165.3,8H119c-7.2,0-13,5.8-13,13v56.5c0,7.2,5.8,13,13,13h46.3c7.2,0,13-5.8,13-13V21
				C178.3,13.8,172.5,8,165.3,8z"/>
			<linearGradient id="SVGID_20_" gradientUnits="userSpaceOnUse" x1="110.7908" y1="49.2519" x2="173.5522" y2="49.2519">
				<stop  offset="0" style="stop-color:#EF7C2C"/>
				<stop  offset="1" style="stop-color:#F9B654"/>
			</linearGradient>
			<path class="st25" d="M165.3,12.7H119c-4.5,0-8.3,3.7-8.3,8.3v56.5c0,4.5,3.7,8.3,8.3,8.3h46.3c4.5,0,8.3-3.7,8.3-8.3V21
				C173.6,16.4,169.9,12.7,165.3,12.7z"/>
			<polygon class="st9" points="158,36.8 158.7,29.6 142.1,29.4 125.7,29.2 126.7,50.9 141.8,51.1 149.7,51.2 149.1,59.3 
				141.7,61.7 134.3,59.1 134,54.6 126.8,54.5 127.4,64.4 141.6,69.3 155.9,64.8 157.4,44 141.9,43.9 133.6,43.7 133.2,36.5 
				142,36.6 			"/>
			<path class="st5" d="M165.3,82.6c2.8,0,5.1-2.3,5.1-5.1V21c0-2.8-2.3-5.1-5.1-5.1H119c-2.8,0-5.1,2.3-5.1,5.1v56.5
				c0,2.8,2.3,5.1,5.1,5.1H165.3z"/>
		</g>
		<g>
			<g>
				<path class="st9" d="M69.4,5.4H23.2c-8.6,0-15.6,7-15.6,15.6v56.5c0,8.6,7,15.6,15.6,15.6h46.3c8.6,0,15.6-7,15.6-15.6V21
					C85,12.4,78,5.4,69.4,5.4z"/>
				<linearGradient id="SVGID_21_" gradientUnits="userSpaceOnUse" x1="10.1876" y1="49.2519" x2="82.4106" y2="49.2519">
					<stop  offset="0" style="stop-color:#FFDFA1"/>
					<stop  offset="1" style="stop-color:#FBBE43"/>
				</linearGradient>
				<path class="st26" d="M69.4,8H23.2c-7.2,0-13,5.8-13,13v56.5c0,7.2,5.8,13,13,13h46.3c7.2,0,13-5.8,13-13V21
					C82.4,13.8,76.6,8,69.4,8z"/>
				<linearGradient id="SVGID_22_" gradientUnits="userSpaceOnUse" x1="14.9184" y1="49.2519" x2="77.6798" y2="49.2519">
					<stop  offset="0" style="stop-color:#FBBE43"/>
					<stop  offset="1" style="stop-color:#FFDFA1"/>
				</linearGradient>
				<path class="st27" d="M69.4,12.7H23.2c-4.5,0-8.3,3.7-8.3,8.3v56.5c0,4.5,3.7,8.3,8.3,8.3h46.3c4.5,0,8.3-3.7,8.3-8.3V21
					C77.7,16.4,74,12.7,69.4,12.7z"/>
				<path class="st5" d="M69.4,82.6c2.8,0,5.1-2.3,5.1-5.1V21c0-2.8-2.3-5.1-5.1-5.1H23.2c-2.8,0-5.1,2.3-5.1,5.1v56.5
					c0,2.8,2.3,5.1,5.1,5.1H69.4z"/>
			</g>
			<g>
				<polygon class="st9" points="68.7,27.7 68.1,34.3 55.4,34.3 55.4,47.6 67.1,45.9 65.4,66.2 48.8,70.8 48.8,63.2 60,60.1 
					60.4,53.9 48.8,55.9 48.8,27.7 				"/>
				<polygon class="st9" points="42.2,27.7 42.2,70.8 23.9,65.8 23.9,57.6 35.5,60.8 35.5,27.7 				"/>
			</g>
		</g>
		<g>
			<g>
				<path class="st9" d="M165.3,115.5H119c-8.6,0-15.6,7-15.6,15.6v56.5c0,8.6,7,15.6,15.6,15.6h46.3c8.6,0,15.6-7,15.6-15.6v-56.5
					C180.9,122.5,173.9,115.5,165.3,115.5z"/>
				<linearGradient id="SVGID_23_" gradientUnits="userSpaceOnUse" x1="106.06" y1="159.3873" x2="178.283" y2="159.3873">
					<stop  offset="0" style="stop-color:#BDA4CF;stop-opacity:0.9"/>
					<stop  offset="1" style="stop-color:#564B9A"/>
				</linearGradient>
				<path class="st28" d="M165.3,118.1H119c-7.2,0-13,5.8-13,13v56.5c0,7.2,5.8,13,13,13h46.3c7.2,0,13-5.8,13-13v-56.5
					C178.3,124,172.5,118.1,165.3,118.1z"/>
				<linearGradient id="SVGID_24_" gradientUnits="userSpaceOnUse" x1="110.7908" y1="159.3873" x2="173.5522" y2="159.3873">
					<stop  offset="0" style="stop-color:#564B9A"/>
					<stop  offset="1" style="stop-color:#BDA4CF;stop-opacity:0.9"/>
				</linearGradient>
				<path class="st29" d="M165.3,122.9H119c-4.5,0-8.3,3.7-8.3,8.3v56.5c0,4.5,3.7,8.3,8.3,8.3h46.3c4.5,0,8.3-3.7,8.3-8.3v-56.5
					C173.6,126.6,169.9,122.9,165.3,122.9z"/>
				<path class="st5" d="M165.3,192.8c2.8,0,5.1-2.3,5.1-5.1v-56.5c0-2.8-2.3-5.1-5.1-5.1H119c-2.8,0-5.1,2.3-5.1,5.1v56.5
					c0,2.8,2.3,5.1,5.1,5.1H165.3z"/>
			</g>
			<g>
				<polygon class="st30" points="152.4,155 149.5,155 149.5,157.9 146.6,157.9 146.6,160.8 149.5,160.8 149.5,163.8 152.4,163.8 
					152.4,160.8 155.3,160.8 155.3,157.9 152.4,157.9 				"/>
				<polygon class="st30" points="165.5,157.9 162.6,157.9 162.6,155 159.7,155 159.7,157.9 156.8,157.9 156.8,160.8 159.7,160.8 
					159.7,163.8 162.6,163.8 162.6,160.8 165.5,160.8 				"/>
				<path class="st9" d="M148.1,164.6l9,4.9c-3.5,6.2-10.2,10.4-17.8,10.4c-11.3,0-20.4-9.2-20.4-20.5c0-11.3,9.2-20.4,20.4-20.4
					c7.5,0,14,4,17.6,10.1l-8.9,5.1c-1.8-2.9-5-4.9-8.7-4.9c-5.6,0-10.2,4.6-10.2,10.2c0,5.6,4.6,10.2,10.2,10.2
					C143,169.6,146.3,167.6,148.1,164.6z"/>
			</g>
		</g>
		<g>
			<g>
				<path class="st9" d="M69.4,115.5H23.2c-8.6,0-15.6,7-15.6,15.6v56.5c0,8.6,7,15.6,15.6,15.6h46.3c8.6,0,15.6-7,15.6-15.6v-56.5
					C85,122.5,78,115.5,69.4,115.5z"/>
				<linearGradient id="SVGID_25_" gradientUnits="userSpaceOnUse" x1="10.1876" y1="159.3873" x2="82.4106" y2="159.3873">
					<stop  offset="0" style="stop-color:#B3DEE9;stop-opacity:0.9"/>
					<stop  offset="1" style="stop-color:#3490CF"/>
				</linearGradient>
				<path class="st31" d="M69.4,118.1H23.2c-7.2,0-13,5.8-13,13v56.5c0,7.2,5.8,13,13,13h46.3c7.2,0,13-5.8,13-13v-56.5
					C82.4,124,76.6,118.1,69.4,118.1z"/>
				<linearGradient id="SVGID_26_" gradientUnits="userSpaceOnUse" x1="14.9184" y1="159.3873" x2="77.6798" y2="159.3873">
					<stop  offset="0" style="stop-color:#3490CF"/>
					<stop  offset="1" style="stop-color:#B3DEE9;stop-opacity:0.9"/>
				</linearGradient>
				<path class="st32" d="M69.4,122.9H23.2c-4.5,0-8.3,3.7-8.3,8.3v56.5c0,4.5,3.7,8.3,8.3,8.3h46.3c4.5,0,8.3-3.7,8.3-8.3v-56.5
					C77.7,126.6,74,122.9,69.4,122.9z"/>
				<path class="st5" d="M69.4,192.8c2.8,0,5.1-2.3,5.1-5.1v-56.5c0-2.8-2.3-5.1-5.1-5.1H23.2c-2.8,0-5.1,2.3-5.1,5.1v56.5
					c0,2.8,2.3,5.1,5.1,5.1H69.4z"/>
			</g>
			<path class="st30" d="M30.3,165.2h7.8l0.2,4.9l8,2.7l8-2.7l0.6-8.8H37.8l-0.4-7.8h18.1l0.6-7.8H28.9l-0.6-7.8h35.9l-1,15.7
				L61.9,176l-15.5,5.1L30.9,176L30.3,165.2z"/>
		</g>
		<g>
			<g>
				<path class="st9" d="M165.3,224.6H119c-8.6,0-15.6,7-15.6,15.6v56.5c0,8.6,7,15.6,15.6,15.6h46.3c8.6,0,15.6-7,15.6-15.6v-56.5
					C180.9,231.6,173.9,224.6,165.3,224.6z"/>
				<linearGradient id="SVGID_27_" gradientUnits="userSpaceOnUse" x1="106.06" y1="268.4818" x2="178.283" y2="268.4818">
					<stop  offset="0" style="stop-color:#7DAFDF;stop-opacity:0.9"/>
					<stop  offset="1" style="stop-color:#264798"/>
				</linearGradient>
				<path class="st33" d="M165.3,227.2H119c-7.2,0-13,5.8-13,13v56.5c0,7.2,5.8,13,13,13h46.3c7.2,0,13-5.8,13-13v-56.5
					C178.3,233.1,172.5,227.2,165.3,227.2z"/>
				<linearGradient id="SVGID_28_" gradientUnits="userSpaceOnUse" x1="110.7908" y1="268.4818" x2="173.5522" y2="268.4818">
					<stop  offset="0" style="stop-color:#264798"/>
					<stop  offset="1" style="stop-color:#7DAFDF;stop-opacity:0.9"/>
				</linearGradient>
				<path class="st34" d="M165.3,232H119c-4.5,0-8.3,3.7-8.3,8.3v56.5c0,4.5,3.7,8.3,8.3,8.3h46.3c4.5,0,8.3-3.7,8.3-8.3v-56.5
					C173.6,235.7,169.9,232,165.3,232z"/>
				<path class="st5" d="M165.3,301.9c2.8,0,5.1-2.3,5.1-5.1v-56.5c0-2.8-2.3-5.1-5.1-5.1H119c-2.8,0-5.1,2.3-5.1,5.1v56.5
					c0,2.8,2.3,5.1,5.1,5.1H165.3z"/>
			</g>
			<g>
				<path class="st9" d="M142.7,246.4c-1.8,0-3.1,0.2-4.6,0.4c-4.5,0.8-5.3,2.4-5.3,5.4v4.6h10.5v2.3h-10.9h-5.1
					c-3.1,0-5.8,1.4-6.6,4.9c-1,4-1,6.5,0,10.6c0.8,3.1,2.4,5.4,5.5,5.4h4.2v-5.9c0-3.5,3.1-6.9,6.7-6.9h8.4c2.9,0,5.8-2.2,5.8-5.1
					v-10c0-2.8-2-5-4.9-5.4C146.6,246.8,144.5,246.4,142.7,246.4z M136.9,251c1,0,1.7,0.8,1.7,1.7c0,1-0.8,1.7-1.7,1.7
					c-1,0-1.7-0.8-1.7-1.7C135.2,251.8,136,251,136.9,251z"/>
				<path class="st9" d="M141.6,290.6c1.8,0,3.1-0.2,4.6-0.4c4.5-0.8,5.3-2.4,5.3-5.4v-4.6H141v-2.3h10.9h5.1c3.1,0,5.8-1.4,6.6-4.9
					c1-4,1-6.5,0-10.6c-0.8-3.1-2.4-5.4-5.5-5.4h-4.2v5.9c0,3.5-3.1,6.9-6.7,6.9h-8.4c-2.9,0-5.8,2.2-5.8,5.1v10c0,2.8,2,5,4.9,5.4
					C137.7,290.2,139.8,290.6,141.6,290.6z M147.4,285.9c-1,0-1.7-0.8-1.7-1.7c0-1,0.8-1.7,1.7-1.7c1,0,1.7,0.8,1.7,1.7
					C149.2,285.1,148.4,285.9,147.4,285.9z"/>
			</g>
		</g>
		<g>
			<g>
				<path class="st9" d="M69.4,224.6H23.2c-8.6,0-15.6,7-15.6,15.6v56.5c0,8.6,7,15.6,15.6,15.6h46.3c8.6,0,15.6-7,15.6-15.6v-56.5
					C85,231.6,78,224.6,69.4,224.6z"/>
				<linearGradient id="SVGID_29_" gradientUnits="userSpaceOnUse" x1="10.1876" y1="268.4818" x2="82.4106" y2="268.4818">
					<stop  offset="0" style="stop-color:#E62C2C;stop-opacity:0.9"/>
					<stop  offset="1" style="stop-color:#7B170F"/>
				</linearGradient>
				<path class="st35" d="M69.4,227.2H23.2c-7.2,0-13,5.8-13,13v56.5c0,7.2,5.8,13,13,13h46.3c7.2,0,13-5.8,13-13v-56.5
					C82.4,233.1,76.6,227.2,69.4,227.2z"/>
				<linearGradient id="SVGID_30_" gradientUnits="userSpaceOnUse" x1="14.9184" y1="268.4818" x2="77.6798" y2="268.4818">
					<stop  offset="0" style="stop-color:#7B170F"/>
					<stop  offset="1" style="stop-color:#E62C2C;stop-opacity:0.9"/>
				</linearGradient>
				<path class="st36" d="M69.4,232H23.2c-4.5,0-8.3,3.7-8.3,8.3v56.5c0,4.5,3.7,8.3,8.3,8.3h46.3c4.5,0,8.3-3.7,8.3-8.3v-56.5
					C77.7,235.7,74,232,69.4,232z"/>
				<path class="st5" d="M69.4,301.9c2.8,0,5.1-2.3,5.1-5.1v-56.5c0-2.8-2.3-5.1-5.1-5.1H23.2c-2.8,0-5.1,2.3-5.1,5.1v56.5
					c0,2.8,2.3,5.1,5.1,5.1H69.4z"/>
			</g>
			<g>
				<path class="st9" d="M45.9,269.6c-1.3-2.1-2.2-3.8-3.5-7c-2.2-5.4,13.2-10.3,7-19.8c2.7,6.5-9.7,10.5-10.9,16
					C37.4,263.8,45.8,269.6,45.9,269.6z"/>
				<path class="st9" d="M46.1,259.9c-0.2,3.2,2.9,4.9,2.9,7.3c0.1,1.9-1.9,3.5-1.9,3.5s3.5-0.7,4.6-3.6c1.2-3.2-2.3-5.5-2-8.1
					c0.3-2.5,7.7-7.1,7.7-7.1S46.7,252.6,46.1,259.9z"/>
				<g>
					<path class="st9" d="M56.7,269.8c2.2-0.5,4.1,0.9,4.1,2.6c0,3.7-5.1,7.2-5.1,7.2s8-1,8-7.1C63.6,268.6,59.7,267.5,56.7,269.8z
						 M52.9,272.8c0,0,2.5-1.8,3.1-2.4c-6.1,1.3-20,1.5-20,0.3c0-1,4.5-2.1,4.5-2.1s-10-0.1-10,2.8
						C30.5,274.5,43.6,274.7,52.9,272.8z"/>
					<path class="st9" d="M51.3,275.6c-5.8,1.9-16.4,1.3-13.3-1.3c-1.5,0-3.8,1.2-3.8,2.4c0,2.4,11.5,4.2,20,0.7L51.3,275.6z"/>
					<path class="st9" d="M39.5,279.7c-2.1,0-3.5,1.3-3.5,2.3c0,3.1,12.5,3.4,17.5,0.3l-3.1-2.1C46.6,281.8,37.4,282,39.5,279.7z"/>
					<path class="st9" d="M62,284.7c0-1.2-1.4-1.8-1.8-2c2.9,6.9-28.6,6.3-28.6,2.3c0-0.9,2.3-1.8,4.5-1.4l-1.8-1.1
						c-4.3-0.7-7.2,1.2-7.2,2.7C27.1,292.2,62,291.9,62,284.7z"/>
					<path class="st9" d="M65.5,287.2c-5.3,5.2-18.8,7.2-32.3,3.9C46.7,296.9,65.4,293.6,65.5,287.2z"/>
				</g>
			</g>
		</g>
	</g>
</g>
<g id="Card_Conteudo" class="st0">
	<g class="st1">
		<g>
			<path class="st9" d="M271.2,82.4h-165c-8.2,0-14.8,6.7-14.8,14.8V151c0,8.2,6.7,14.8,14.8,14.8h165c8.2,0,14.8-6.7,14.8-14.8
				V97.2C286,89,279.3,82.4,271.2,82.4z"/>
			<linearGradient id="SVGID_31_" gradientUnits="userSpaceOnUse" x1="93.803" y1="124.1288" x2="283.5027" y2="124.1288">
				<stop  offset="0" style="stop-color:#222222"/>
				<stop  offset="1" style="stop-color:#0D0E0E"/>
			</linearGradient>
			<path class="st37" d="M271.2,84.9h-165c-6.8,0-12.3,5.5-12.3,12.3V151c0,6.8,5.5,12.3,12.3,12.3h165c6.8,0,12.3-5.5,12.3-12.3
				V97.2C283.5,90.4,278,84.9,271.2,84.9z"/>
			<linearGradient id="SVGID_32_" gradientUnits="userSpaceOnUse" x1="98.303" y1="124.1288" x2="279.0027" y2="124.1288">
				<stop  offset="0" style="stop-color:#0D0E0E"/>
				<stop  offset="1" style="stop-color:#222222"/>
			</linearGradient>
			<path class="st38" d="M271.2,89.4h-165c-4.3,0-7.8,3.5-7.8,7.8V151c0,4.3,3.5,7.8,7.8,7.8h165c4.3,0,7.8-3.5,7.8-7.8V97.2
				C279,92.9,275.5,89.4,271.2,89.4z"/>
			<path class="st5" d="M271.2,155.9c2.7,0,4.8-2.2,4.8-4.8V97.2c0-2.7-2.2-4.8-4.8-4.8h-165c-2.7,0-4.8,2.2-4.8,4.8V151
				c0,2.7,2.2,4.8,4.8,4.8H271.2z"/>
		</g>
		<g>
			<path class="st9" d="M149.8,82h-44c-8.2,0-14.8,6.7-14.8,14.8v53.8c0,8.2,6.7,14.8,14.8,14.8h44c8.2,0,14.8-6.7,14.8-14.8V96.9
				C164.6,88.7,158,82,149.8,82z"/>
			<linearGradient id="SVGID_33_" gradientUnits="userSpaceOnUse" x1="93.4385" y1="123.7576" x2="162.1382" y2="123.7576">
				<stop  offset="0" style="stop-color:#F9B654"/>
				<stop  offset="1" style="stop-color:#EF7C2C"/>
			</linearGradient>
			<path class="st39" d="M149.8,84.5h-44c-6.8,0-12.3,5.5-12.3,12.3v53.8c0,6.8,5.5,12.3,12.3,12.3h44c6.8,0,12.3-5.5,12.3-12.3
				V96.9C162.1,90.1,156.6,84.5,149.8,84.5z"/>
			<linearGradient id="SVGID_34_" gradientUnits="userSpaceOnUse" x1="97.9385" y1="123.7576" x2="157.6382" y2="123.7576">
				<stop  offset="0" style="stop-color:#EF7C2C"/>
				<stop  offset="1" style="stop-color:#F9B654"/>
			</linearGradient>
			<path class="st40" d="M149.8,89h-44c-4.3,0-7.8,3.5-7.8,7.8v53.8c0,4.3,3.5,7.8,7.8,7.8h44c4.3,0,7.8-3.5,7.8-7.8V96.9
				C157.6,92.5,154.1,89,149.8,89z"/>
			<polygon class="st9" points="142.9,112 143.5,105.1 127.7,104.9 112.1,104.7 113,125.3 127.4,125.5 135,125.6 134.4,133.3 
				127.3,135.6 120.3,133.1 120,128.8 113.2,128.7 113.7,138.2 127.2,142.8 140.8,138.5 142.3,118.8 127.5,118.6 119.6,118.5 
				119.2,111.7 127.6,111.8 			"/>
			<path class="st5" d="M149.8,155.5c2.7,0,4.8-2.2,4.8-4.8V96.9c0-2.7-2.2-4.8-4.8-4.8h-44c-2.7,0-4.8,2.2-4.8,4.8v53.8
				c0,2.7,2.2,4.8,4.8,4.8H149.8z"/>
		</g>
		<rect x="169.1" y="120.6" class="st41" width="102.9" height="31.7"/>
		<text transform="matrix(1 0 0 1 169.0779 124.791)"><tspan x="0" y="0" class="st9 st42 st43">Lorem</tspan><tspan x="15.8" y="0" class="st9 st42 st43"> </tspan><tspan x="17.7" y="0" class="st9 st42 st43">ipsum</tspan><tspan x="33.1" y="0" class="st9 st42 st43"> </tspan><tspan x="35" y="0" class="st9 st42 st43">dolor</tspan><tspan x="47.8" y="0" class="st9 st42 st43"> </tspan><tspan x="49.7" y="0" class="st9 st42 st43">sit</tspan><tspan x="55.8" y="0" class="st9 st42 st43"> </tspan><tspan x="57.8" y="0" class="st9 st42 st43">amet,</tspan><tspan x="71.5" y="0" class="st9 st42 st43"> </tspan><tspan x="73.4" y="0" class="st9 st42 st43">consectetur </tspan><tspan x="0" y="6.6" class="st9 st42 st43">adipiscing</tspan><tspan x="25.5" y="6.6" class="st9 st42 st43 st44"> </tspan><tspan x="28.4" y="6.6" class="st9 st42 st43">elit,</tspan><tspan x="37" y="6.6" class="st9 st42 st43 st44"> </tspan><tspan x="39.9" y="6.6" class="st9 st42 st43">sed</tspan><tspan x="48.8" y="6.6" class="st9 st42 st43 st44"> </tspan><tspan x="51.7" y="6.6" class="st9 st42 st43">do</tspan><tspan x="58" y="6.6" class="st9 st42 st43 st44"> </tspan><tspan x="60.9" y="6.6" class="st9 st42 st43">eiusmod</tspan><tspan x="82.2" y="6.6" class="st9 st42 st43 st44"> </tspan><tspan x="85.1" y="6.6" class="st9 st42 st43">tempor </tspan><tspan x="0" y="13.2" class="st9 st42 st43">incididunt</tspan><tspan x="24.6" y="13.2" class="st9 st42 st43 st45"> </tspan><tspan x="28.6" y="13.2" class="st9 st42 st43">ut</tspan><tspan x="33.6" y="13.2" class="st9 st42 st43 st45"> </tspan><tspan x="37.7" y="13.2" class="st9 st42 st43">labore</tspan><tspan x="53.2" y="13.2" class="st9 st42 st43 st45"> </tspan><tspan x="57.3" y="13.2" class="st9 st42 st43">et</tspan><tspan x="62" y="13.2" class="st9 st42 st43 st45"> </tspan><tspan x="66.1" y="13.2" class="st9 st42 st43">dolore</tspan><tspan x="81.7" y="13.2" class="st9 st42 st43 st45"> </tspan><tspan x="85.7" y="13.2" class="st9 st42 st43">magna </tspan><tspan x="0" y="19.8" class="st9 st42 st43">aliqua.</tspan><tspan x="16.6" y="19.8" class="st9 st42 st43 st44"> </tspan><tspan x="19.4" y="19.8" class="st9 st42 st43">Ut</tspan><tspan x="25" y="19.8" class="st9 st42 st43 st44"> </tspan><tspan x="27.9" y="19.8" class="st9 st42 st43">enim</tspan><tspan x="40.1" y="19.8" class="st9 st42 st43 st44"> </tspan><tspan x="43" y="19.8" class="st9 st42 st43">ad</tspan><tspan x="49.1" y="19.8" class="st9 st42 st43 st44"> </tspan><tspan x="52" y="19.8" class="st9 st42 st43">minim</tspan><tspan x="67.5" y="19.8" class="st9 st42 st43 st44"> </tspan><tspan x="70.4" y="19.8" class="st9 st42 st43">veniam,</tspan><tspan x="89.5" y="19.8" class="st9 st42 st43 st44"> </tspan><tspan x="92.3" y="19.8" class="st9 st42 st43">quis </tspan><tspan x="0" y="26.5" class="st9 st42 st43">nostrud</tspan><tspan x="19.2" y="26.5" class="st9 st42 st43"> </tspan><tspan x="21.5" y="26.5" class="st9 st42 st43">exercitation</tspan><tspan x="50.6" y="26.5" class="st9 st42 st43"> </tspan><tspan x="52.9" y="26.5" class="st9 st42 st43">ullamco</tspan><tspan x="72.7" y="26.5" class="st9 st42 st43"> </tspan><tspan x="74.9" y="26.5" class="st9 st42 st43">laboris</tspan><tspan x="91.8" y="26.5" class="st9 st42 st43"> </tspan><tspan x="94.1" y="26.5" class="st9 st42 st43">nisi </tspan></text>
		<rect x="169.1" y="95.5" class="st41" width="102.9" height="21.2"/>
		<text transform="matrix(1 0 0 1 169.0779 102.2281)"><tspan x="0" y="0" class="st9 st46 st47">Lorem ipsum dolor sit </tspan><tspan x="0" y="10.6" class="st9 st46 st47">amet, consectetur </tspan></text>
	</g>
	<g class="st1">
		<g>
			<path class="st9" d="M271,187H106c-8.2,0-14.8,6.7-14.8,14.8v53.8c0,8.2,6.7,14.8,14.8,14.8h165c8.2,0,14.8-6.7,14.8-14.8v-53.8
				C285.8,193.6,279.2,187,271,187z"/>
			<linearGradient id="SVGID_35_" gradientUnits="userSpaceOnUse" x1="93.6207" y1="228.7089" x2="283.3204" y2="228.7089">
				<stop  offset="0" style="stop-color:#222222"/>
				<stop  offset="1" style="stop-color:#0D0E0E"/>
			</linearGradient>
			<path class="st48" d="M271,189.5H106c-6.8,0-12.3,5.5-12.3,12.3v53.8c0,6.8,5.5,12.3,12.3,12.3h165c6.8,0,12.3-5.5,12.3-12.3
				v-53.8C283.3,195,277.8,189.5,271,189.5z"/>
			<linearGradient id="SVGID_36_" gradientUnits="userSpaceOnUse" x1="98.1207" y1="228.7089" x2="278.8204" y2="228.7089">
				<stop  offset="0" style="stop-color:#0D0E0E"/>
				<stop  offset="1" style="stop-color:#222222"/>
			</linearGradient>
			<path class="st49" d="M271,194H106c-4.3,0-7.8,3.5-7.8,7.8v53.8c0,4.3,3.5,7.8,7.8,7.8h165c4.3,0,7.8-3.5,7.8-7.8v-53.8
				C278.8,197.5,275.3,194,271,194z"/>
			<path class="st5" d="M271,260.5c2.7,0,4.8-2.2,4.8-4.8v-53.8c0-2.7-2.2-4.8-4.8-4.8H106c-2.7,0-4.8,2.2-4.8,4.8v53.8
				c0,2.7,2.2,4.8,4.8,4.8H271z"/>
		</g>
		<rect x="168.9" y="225.2" class="st41" width="102.9" height="31.7"/>
		<text transform="matrix(1 0 0 1 168.8957 229.3711)"><tspan x="0" y="0" class="st9 st42 st43">Lorem</tspan><tspan x="15.8" y="0" class="st9 st42 st43"> </tspan><tspan x="17.7" y="0" class="st9 st42 st43">ipsum</tspan><tspan x="33.1" y="0" class="st9 st42 st43"> </tspan><tspan x="35" y="0" class="st9 st42 st43">dolor</tspan><tspan x="47.8" y="0" class="st9 st42 st43"> </tspan><tspan x="49.7" y="0" class="st9 st42 st43">sit</tspan><tspan x="55.8" y="0" class="st9 st42 st43"> </tspan><tspan x="57.8" y="0" class="st9 st42 st43">amet,</tspan><tspan x="71.5" y="0" class="st9 st42 st43"> </tspan><tspan x="73.4" y="0" class="st9 st42 st43">consectetur </tspan><tspan x="0" y="6.6" class="st9 st42 st43">adipiscing</tspan><tspan x="25.5" y="6.6" class="st9 st42 st43 st44"> </tspan><tspan x="28.4" y="6.6" class="st9 st42 st43">elit,</tspan><tspan x="37" y="6.6" class="st9 st42 st43 st44"> </tspan><tspan x="39.9" y="6.6" class="st9 st42 st43">sed</tspan><tspan x="48.8" y="6.6" class="st9 st42 st43 st44"> </tspan><tspan x="51.7" y="6.6" class="st9 st42 st43">do</tspan><tspan x="58" y="6.6" class="st9 st42 st43 st44"> </tspan><tspan x="60.9" y="6.6" class="st9 st42 st43">eiusmod</tspan><tspan x="82.2" y="6.6" class="st9 st42 st43 st44"> </tspan><tspan x="85.1" y="6.6" class="st9 st42 st43">tempor </tspan><tspan x="0" y="13.2" class="st9 st42 st43">incididunt</tspan><tspan x="24.6" y="13.2" class="st9 st42 st43 st45"> </tspan><tspan x="28.6" y="13.2" class="st9 st42 st43">ut</tspan><tspan x="33.6" y="13.2" class="st9 st42 st43 st45"> </tspan><tspan x="37.7" y="13.2" class="st9 st42 st43">labore</tspan><tspan x="53.2" y="13.2" class="st9 st42 st43 st45"> </tspan><tspan x="57.3" y="13.2" class="st9 st42 st43">et</tspan><tspan x="62" y="13.2" class="st9 st42 st43 st45"> </tspan><tspan x="66.1" y="13.2" class="st9 st42 st43">dolore</tspan><tspan x="81.7" y="13.2" class="st9 st42 st43 st45"> </tspan><tspan x="85.7" y="13.2" class="st9 st42 st43">magna </tspan><tspan x="0" y="19.8" class="st9 st42 st43">aliqua.</tspan><tspan x="16.6" y="19.8" class="st9 st42 st43 st44"> </tspan><tspan x="19.4" y="19.8" class="st9 st42 st43">Ut</tspan><tspan x="25" y="19.8" class="st9 st42 st43 st44"> </tspan><tspan x="27.9" y="19.8" class="st9 st42 st43">enim</tspan><tspan x="40.1" y="19.8" class="st9 st42 st43 st44"> </tspan><tspan x="43" y="19.8" class="st9 st42 st43">ad</tspan><tspan x="49.1" y="19.8" class="st9 st42 st43 st44"> </tspan><tspan x="52" y="19.8" class="st9 st42 st43">minim</tspan><tspan x="67.5" y="19.8" class="st9 st42 st43 st44"> </tspan><tspan x="70.4" y="19.8" class="st9 st42 st43">veniam,</tspan><tspan x="89.5" y="19.8" class="st9 st42 st43 st44"> </tspan><tspan x="92.3" y="19.8" class="st9 st42 st43">quis </tspan><tspan x="0" y="26.5" class="st9 st42 st43">nostrud</tspan><tspan x="19.2" y="26.5" class="st9 st42 st43"> </tspan><tspan x="21.5" y="26.5" class="st9 st42 st43">exercitation</tspan><tspan x="50.6" y="26.5" class="st9 st42 st43"> </tspan><tspan x="52.9" y="26.5" class="st9 st42 st43">ullamco</tspan><tspan x="72.7" y="26.5" class="st9 st42 st43"> </tspan><tspan x="74.9" y="26.5" class="st9 st42 st43">laboris</tspan><tspan x="91.8" y="26.5" class="st9 st42 st43"> </tspan><tspan x="94.1" y="26.5" class="st9 st42 st43">nisi </tspan></text>
		<rect x="168.9" y="200.1" class="st41" width="102.9" height="21.2"/>
		<text transform="matrix(1 0 0 1 168.8957 206.8081)"><tspan x="0" y="0" class="st9 st46 st47">Lorem ipsum dolor sit </tspan><tspan x="0" y="10.6" class="st9 st46 st47">amet, consectetur </tspan></text>
		<g>
			<g>
				<path class="st9" d="M150,187h-44c-8.2,0-14.8,6.7-14.8,14.8v53.8c0,8.2,6.7,14.8,14.8,14.8h44c8.2,0,14.8-6.7,14.8-14.8v-53.8
					C164.9,193.6,158.2,187,150,187z"/>
				<linearGradient id="SVGID_37_" gradientUnits="userSpaceOnUse" x1="93.6901" y1="228.7089" x2="162.3898" y2="228.7089">
					<stop  offset="0" style="stop-color:#B3DEE9;stop-opacity:0.9"/>
					<stop  offset="1" style="stop-color:#3490CF"/>
				</linearGradient>
				<path class="st50" d="M150,189.5h-44c-6.8,0-12.3,5.5-12.3,12.3v53.8c0,6.8,5.5,12.3,12.3,12.3h44c6.8,0,12.3-5.5,12.3-12.3
					v-53.8C162.4,195,156.9,189.5,150,189.5z"/>
				<linearGradient id="SVGID_38_" gradientUnits="userSpaceOnUse" x1="98.1901" y1="228.7089" x2="157.8898" y2="228.7089">
					<stop  offset="0" style="stop-color:#3490CF"/>
					<stop  offset="1" style="stop-color:#B3DEE9;stop-opacity:0.9"/>
				</linearGradient>
				<path class="st51" d="M150,194h-44c-4.3,0-7.8,3.5-7.8,7.8v53.8c0,4.3,3.5,7.8,7.8,7.8h44c4.3,0,7.8-3.5,7.8-7.8v-53.8
					C157.9,197.5,154.4,194,150,194z"/>
				<path class="st5" d="M150,260.5c2.7,0,4.8-2.2,4.8-4.8v-53.8c0-2.7-2.2-4.8-4.8-4.8h-44c-2.7,0-4.8,2.2-4.8,4.8v53.8
					c0,2.7,2.2,4.8,4.8,4.8H150z"/>
			</g>
			<path class="st30" d="M112.8,234.2h7.5l0.2,4.7l7.7,2.6l7.7-2.6l0.6-8.4h-16.4l-0.4-7.5h17.2l0.6-7.5h-25.7l-0.6-7.5h34.1
				l-0.9,14.9l-1.3,21.5l-14.7,4.9l-14.7-4.9L112.8,234.2z"/>
		</g>
	</g>
	<g class="st1">
		<g>
			<path class="st9" d="M271,291.7H106c-8.2,0-14.8,6.7-14.8,14.8v53.8c0,8.2,6.7,14.8,14.8,14.8h165c8.2,0,14.8-6.7,14.8-14.8
				v-53.8C285.8,298.4,279.2,291.7,271,291.7z"/>
			<linearGradient id="SVGID_39_" gradientUnits="userSpaceOnUse" x1="93.6207" y1="333.4745" x2="283.3204" y2="333.4745">
				<stop  offset="0" style="stop-color:#222222"/>
				<stop  offset="1" style="stop-color:#0D0E0E"/>
			</linearGradient>
			<path class="st52" d="M271,294.2H106c-6.8,0-12.3,5.5-12.3,12.3v53.8c0,6.8,5.5,12.3,12.3,12.3h165c6.8,0,12.3-5.5,12.3-12.3
				v-53.8C283.3,299.8,277.8,294.2,271,294.2z"/>
			<linearGradient id="SVGID_40_" gradientUnits="userSpaceOnUse" x1="98.1207" y1="333.4745" x2="278.8204" y2="333.4745">
				<stop  offset="0" style="stop-color:#0D0E0E"/>
				<stop  offset="1" style="stop-color:#222222"/>
			</linearGradient>
			<path class="st53" d="M271,298.7H106c-4.3,0-7.8,3.5-7.8,7.8v53.8c0,4.3,3.5,7.8,7.8,7.8h165c4.3,0,7.8-3.5,7.8-7.8v-53.8
				C278.8,302.3,275.3,298.7,271,298.7z"/>
			<path class="st5" d="M271,365.2c2.7,0,4.8-2.2,4.8-4.8v-53.8c0-2.7-2.2-4.8-4.8-4.8H106c-2.7,0-4.8,2.2-4.8,4.8v53.8
				c0,2.7,2.2,4.8,4.8,4.8H271z"/>
		</g>
		<rect x="168.9" y="329.9" class="st41" width="102.9" height="31.7"/>
		<text transform="matrix(1 0 0 1 168.8957 334.1368)"><tspan x="0" y="0" class="st9 st42 st43">Lorem</tspan><tspan x="15.8" y="0" class="st9 st42 st43"> </tspan><tspan x="17.7" y="0" class="st9 st42 st43">ipsum</tspan><tspan x="33.1" y="0" class="st9 st42 st43"> </tspan><tspan x="35" y="0" class="st9 st42 st43">dolor</tspan><tspan x="47.8" y="0" class="st9 st42 st43"> </tspan><tspan x="49.7" y="0" class="st9 st42 st43">sit</tspan><tspan x="55.8" y="0" class="st9 st42 st43"> </tspan><tspan x="57.8" y="0" class="st9 st42 st43">amet,</tspan><tspan x="71.5" y="0" class="st9 st42 st43"> </tspan><tspan x="73.4" y="0" class="st9 st42 st43">consectetur </tspan><tspan x="0" y="6.6" class="st9 st42 st43">adipiscing</tspan><tspan x="25.5" y="6.6" class="st9 st42 st43 st44"> </tspan><tspan x="28.4" y="6.6" class="st9 st42 st43">elit,</tspan><tspan x="37" y="6.6" class="st9 st42 st43 st44"> </tspan><tspan x="39.9" y="6.6" class="st9 st42 st43">sed</tspan><tspan x="48.8" y="6.6" class="st9 st42 st43 st44"> </tspan><tspan x="51.7" y="6.6" class="st9 st42 st43">do</tspan><tspan x="58" y="6.6" class="st9 st42 st43 st44"> </tspan><tspan x="60.9" y="6.6" class="st9 st42 st43">eiusmod</tspan><tspan x="82.2" y="6.6" class="st9 st42 st43 st44"> </tspan><tspan x="85.1" y="6.6" class="st9 st42 st43">tempor </tspan><tspan x="0" y="13.2" class="st9 st42 st43">incididunt</tspan><tspan x="24.6" y="13.2" class="st9 st42 st43 st45"> </tspan><tspan x="28.6" y="13.2" class="st9 st42 st43">ut</tspan><tspan x="33.6" y="13.2" class="st9 st42 st43 st45"> </tspan><tspan x="37.7" y="13.2" class="st9 st42 st43">labore</tspan><tspan x="53.2" y="13.2" class="st9 st42 st43 st45"> </tspan><tspan x="57.3" y="13.2" class="st9 st42 st43">et</tspan><tspan x="62" y="13.2" class="st9 st42 st43 st45"> </tspan><tspan x="66.1" y="13.2" class="st9 st42 st43">dolore</tspan><tspan x="81.7" y="13.2" class="st9 st42 st43 st45"> </tspan><tspan x="85.7" y="13.2" class="st9 st42 st43">magna </tspan><tspan x="0" y="19.8" class="st9 st42 st43">aliqua.</tspan><tspan x="16.6" y="19.8" class="st9 st42 st43 st44"> </tspan><tspan x="19.4" y="19.8" class="st9 st42 st43">Ut</tspan><tspan x="25" y="19.8" class="st9 st42 st43 st44"> </tspan><tspan x="27.9" y="19.8" class="st9 st42 st43">enim</tspan><tspan x="40.1" y="19.8" class="st9 st42 st43 st44"> </tspan><tspan x="43" y="19.8" class="st9 st42 st43">ad</tspan><tspan x="49.1" y="19.8" class="st9 st42 st43 st44"> </tspan><tspan x="52" y="19.8" class="st9 st42 st43">minim</tspan><tspan x="67.5" y="19.8" class="st9 st42 st43 st44"> </tspan><tspan x="70.4" y="19.8" class="st9 st42 st43">veniam,</tspan><tspan x="89.5" y="19.8" class="st9 st42 st43 st44"> </tspan><tspan x="92.3" y="19.8" class="st9 st42 st43">quis </tspan><tspan x="0" y="26.5" class="st9 st42 st43">nostrud</tspan><tspan x="19.2" y="26.5" class="st9 st42 st43"> </tspan><tspan x="21.5" y="26.5" class="st9 st42 st43">exercitation</tspan><tspan x="50.6" y="26.5" class="st9 st42 st43"> </tspan><tspan x="52.9" y="26.5" class="st9 st42 st43">ullamco</tspan><tspan x="72.7" y="26.5" class="st9 st42 st43"> </tspan><tspan x="74.9" y="26.5" class="st9 st42 st43">laboris</tspan><tspan x="91.8" y="26.5" class="st9 st42 st43"> </tspan><tspan x="94.1" y="26.5" class="st9 st42 st43">nisi </tspan></text>
		<rect x="168.9" y="304.9" class="st41" width="102.9" height="21.2"/>
		<text transform="matrix(1 0 0 1 168.8957 311.5738)"><tspan x="0" y="0" class="st9 st46 st47">Lorem ipsum dolor sit </tspan><tspan x="0" y="10.6" class="st9 st46 st47">amet, consectetur </tspan></text>
		<g>
			<g>
				<path class="st9" d="M150,291.7h-44c-8.2,0-14.8,6.7-14.8,14.8v53.8c0,8.2,6.7,14.8,14.8,14.8h44c8.2,0,14.8-6.7,14.8-14.8
					v-53.8C164.8,298.4,158.2,291.7,150,291.7z"/>
				<linearGradient id="SVGID_41_" gradientUnits="userSpaceOnUse" x1="93.6207" y1="333.4745" x2="162.3204" y2="333.4745">
					<stop  offset="0" style="stop-color:#FFDFA1"/>
					<stop  offset="1" style="stop-color:#FBBE43"/>
				</linearGradient>
				<path class="st54" d="M150,294.2h-44c-6.8,0-12.3,5.5-12.3,12.3v53.8c0,6.8,5.5,12.3,12.3,12.3h44c6.8,0,12.3-5.5,12.3-12.3
					v-53.8C162.3,299.8,156.8,294.2,150,294.2z"/>
				<linearGradient id="SVGID_42_" gradientUnits="userSpaceOnUse" x1="98.1207" y1="333.4745" x2="157.8204" y2="333.4745">
					<stop  offset="0" style="stop-color:#FBBE43"/>
					<stop  offset="1" style="stop-color:#FFDFA1"/>
				</linearGradient>
				<path class="st55" d="M150,298.7h-44c-4.3,0-7.8,3.5-7.8,7.8v53.8c0,4.3,3.5,7.8,7.8,7.8h44c4.3,0,7.8-3.5,7.8-7.8v-53.8
					C157.8,302.3,154.3,298.7,150,298.7z"/>
				<path class="st5" d="M150,365.2c2.7,0,4.8-2.2,4.8-4.8v-53.8c0-2.7-2.2-4.8-4.8-4.8h-44c-2.7,0-4.8,2.2-4.8,4.8v53.8
					c0,2.7,2.2,4.8,4.8,4.8H150z"/>
			</g>
			<g>
				<polygon class="st9" points="149.3,313 148.7,319.3 136.6,319.3 136.6,331.9 147.8,330.3 146.1,349.6 130.3,354 130.3,346.7 
					141,343.8 141.4,337.9 130.3,339.8 130.3,313 				"/>
				<polygon class="st9" points="124,313 124,354 106.7,349.2 106.7,341.4 117.7,344.4 117.7,313 				"/>
			</g>
		</g>
	</g>
</g>
<g id="Boton_Search_e_Voltar" class="st0">
	<g class="st1">
		<circle class="st9" cx="122" cy="201.1" r="14.3"/>
		
			<linearGradient id="SVGID_43_" gradientUnits="userSpaceOnUse" x1="108.6581" y1="-702.1344" x2="135.3134" y2="-702.1344" gradientTransform="matrix(1 0 0 -1 0 -501.0106)">
			<stop  offset="0" style="stop-color:#EF7852"/>
			<stop  offset="1" style="stop-color:#EB5C2C"/>
		</linearGradient>
		<circle class="st56" cx="122" cy="201.1" r="13.3"/>
		
			<linearGradient id="SVGID_44_" gradientUnits="userSpaceOnUse" x1="110.8794" y1="-702.1344" x2="133.0921" y2="-702.1344" gradientTransform="matrix(1 0 0 -1 0 -501.0106)">
			<stop  offset="0" style="stop-color:#EB5C2C"/>
			<stop  offset="1" style="stop-color:#EF7852"/>
		</linearGradient>
		<path class="st57" d="M122,212.2c-6.1,0-11.1-5-11.1-11.1c0-6.1,5-11.1,11.1-11.1c6.1,0,11.1,5,11.1,11.1
			C133.1,207.2,128.1,212.2,122,212.2z"/>
		<path class="st9" d="M120,195.9c0.1-0.1,0.2-0.3,0.3-0.2c0.1,0.1,0.1,0.2,0.1,0.4c0,0.9,0,1.9,0,2.8c0,0.3,0.1,0.4,0.4,0.5
			c2.6,0.2,5,1.1,7.1,2.7c0.4,0.4,0.8,0.8,1.1,1.3c0.1,0.2,0.2,0.4,0.1,0.5c-0.2,0.2-0.4,0.1-0.5,0c-0.9-0.4-1.7-0.8-2.6-0.9
			c-1.7-0.3-3.4-0.2-5.1-0.1c-0.3,0-0.3,0.2-0.3,0.4c-0.1,1.1-0.1,2.2-0.2,3.3c-0.2,0-0.3-0.2-0.3-0.2c-1.6-1.6-3.2-3.3-4.8-4.9
			c-0.3-0.3-0.3-0.4,0-0.7C116.7,199.1,118.3,197.5,120,195.9z"/>
	</g>
	<g class="st1">
		<g>
			<g>
				<path class="st9" d="M272.1,186.8H161.6c-7.1,0-12.8,6.4-12.8,14.3v0c0,7.9,5.7,14.3,12.8,14.3h110.5c7.1,0,12.8-6.4,12.8-14.3
					v0C284.9,193.2,279.1,186.8,272.1,186.8z"/>
				<linearGradient id="SVGID_45_" gradientUnits="userSpaceOnUse" x1="153.6578" y1="201.4109" x2="348.2536" y2="200.5263">
					<stop  offset="0" style="stop-color:#222222"/>
					<stop  offset="0.261" style="stop-color:#202021"/>
					<stop  offset="0.4177" style="stop-color:#1B1B1C"/>
					<stop  offset="0.5465" style="stop-color:#121213"/>
					<stop  offset="0.5899" style="stop-color:#0D0E0E"/>
				</linearGradient>
				<path class="st58" d="M272,187.7H161.7c-6.6,0-12,6-12,13.5v0c0,7.4,5.4,13.5,12,13.5H272c6.6,0,12-6,12-13.5v0
					C284,193.7,278.6,187.7,272,187.7z"/>
				<linearGradient id="SVGID_46_" gradientUnits="userSpaceOnUse" x1="151.5277" y1="201.124" x2="299.3938" y2="201.124">
					<stop  offset="0" style="stop-color:#0D0E0E"/>
					<stop  offset="5.068219e-02" style="stop-color:#111212"/>
					<stop  offset="0.2146" style="stop-color:#1B1B1C"/>
					<stop  offset="0.4115" style="stop-color:#202020"/>
					<stop  offset="0.727" style="stop-color:#222222"/>
				</linearGradient>
				<path class="st59" d="M282.1,201.1c0-6.4-4.6-11.6-10.2-11.6H161.8c-5.6,0-10.2,5.2-10.2,11.6c0,6.4,4.6,11.6,10.2,11.6h110.1
					C277.5,212.7,282.1,207.5,282.1,201.1z"/>
			</g>
			<g>
				<circle class="st9" cx="270.5" cy="201.1" r="14.3"/>
				
					<linearGradient id="SVGID_47_" gradientUnits="userSpaceOnUse" x1="257.1972" y1="-702.1344" x2="283.8524" y2="-702.1344" gradientTransform="matrix(1 0 0 -1 0 -501.0106)">
					<stop  offset="0" style="stop-color:#EF7852"/>
					<stop  offset="1" style="stop-color:#EB5C2C"/>
				</linearGradient>
				<circle class="st60" cx="270.5" cy="201.1" r="13.3"/>
				
					<linearGradient id="SVGID_48_" gradientUnits="userSpaceOnUse" x1="259.4184" y1="-702.1344" x2="281.6312" y2="-702.1344" gradientTransform="matrix(1 0 0 -1 0 -501.0106)">
					<stop  offset="0" style="stop-color:#EB5C2C"/>
					<stop  offset="1" style="stop-color:#EF7852"/>
				</linearGradient>
				<path class="st61" d="M270.5,212.2c-6.1,0-11.1-5-11.1-11.1c0-6.1,5-11.1,11.1-11.1c6.1,0,11.1,5,11.1,11.1
					C281.6,207.2,276.6,212.2,270.5,212.2z"/>
				<g>
					<path class="st9" d="M269.3,194.5c-3,0-5.4,2.4-5.4,5.4c0,3,2.4,5.4,5.4,5.4c3,0,5.4-2.4,5.4-5.4
						C274.8,196.9,272.3,194.5,269.3,194.5z M269.3,203.5c-2,0-3.5-1.6-3.5-3.5c0-2,1.6-3.5,3.5-3.5c2,0,3.5,1.6,3.5,3.5
						C272.9,201.9,271.3,203.5,269.3,203.5z"/>
					<path class="st9" d="M276.9,206.1l-1.9-1.9c-0.4-0.4-1-0.4-1.3,0c-0.4,0.4-0.4,1,0,1.3l1.9,1.9c0.4,0.4,1,0.4,1.3,0
						C277.2,207.1,277.2,206.5,276.9,206.1z"/>
				</g>
			</g>
		</g>
		<text transform="matrix(1.11 0 0 1 160.8106 204.0464)" class="st9 st62 st63">Search</text>
	</g>
</g>
<g id="Botons_Like_e_Coments" class="st0">
	<g class="st1">
		<g>
			<circle class="st9" cx="263.5" cy="199.6" r="14.3"/>
			
				<linearGradient id="SVGID_49_" gradientUnits="userSpaceOnUse" x1="250.1353" y1="-700.6267" x2="276.7906" y2="-700.6267" gradientTransform="matrix(1 0 0 -1 0 -501.0106)">
				<stop  offset="0" style="stop-color:#EF7852"/>
				<stop  offset="1" style="stop-color:#EB5C2C"/>
			</linearGradient>
			<circle class="st64" cx="263.5" cy="199.6" r="13.3"/>
			
				<linearGradient id="SVGID_50_" gradientUnits="userSpaceOnUse" x1="252.3566" y1="-700.6267" x2="274.5693" y2="-700.6267" gradientTransform="matrix(1 0 0 -1 0 -501.0106)">
				<stop  offset="0" style="stop-color:#EB5C2C"/>
				<stop  offset="1" style="stop-color:#EF7852"/>
			</linearGradient>
			<path class="st65" d="M263.5,210.7c-6.1,0-11.1-5-11.1-11.1c0-6.1,5-11.1,11.1-11.1c6.1,0,11.1,5,11.1,11.1
				C274.6,205.7,269.6,210.7,263.5,210.7z"/>
			<path class="st9" d="M257.2,194v9.1h4l2.2,2.2l2.2-2.2h4V194H257.2z M260,199.5c-0.5,0-1-0.4-1-1c0-0.5,0.4-1,1-1
				c0.5,0,1,0.4,1,1C260.9,199.1,260.5,199.5,260,199.5z M263.5,199.5c-0.5,0-1-0.4-1-1c0-0.5,0.4-1,1-1s1,0.4,1,1
				C264.4,199.1,264,199.5,263.5,199.5z M266.9,199.5c-0.5,0-1-0.4-1-1c0-0.5,0.4-1,1-1s1,0.4,1,1
				C267.9,199.1,267.5,199.5,266.9,199.5z"/>
		</g>
		<g>
			<circle class="st9" cx="173.5" cy="199.6" r="14.3"/>
			
				<linearGradient id="SVGID_51_" gradientUnits="userSpaceOnUse" x1="160.1847" y1="-700.6267" x2="186.84" y2="-700.6267" gradientTransform="matrix(1 0 0 -1 0 -501.0106)">
				<stop  offset="0" style="stop-color:#EF7852"/>
				<stop  offset="1" style="stop-color:#EB5C2C"/>
			</linearGradient>
			<circle class="st66" cx="173.5" cy="199.6" r="13.3"/>
			
				<linearGradient id="SVGID_52_" gradientUnits="userSpaceOnUse" x1="162.406" y1="-700.6267" x2="184.6187" y2="-700.6267" gradientTransform="matrix(1 0 0 -1 0 -501.0106)">
				<stop  offset="0" style="stop-color:#EB5C2C"/>
				<stop  offset="1" style="stop-color:#EF7852"/>
			</linearGradient>
			<path class="st67" d="M173.5,210.7c-6.1,0-11.1-5-11.1-11.1c0-6.1,5-11.1,11.1-11.1c6.1,0,11.1,5,11.1,11.1
				C184.6,205.7,179.6,210.7,173.5,210.7z"/>
			<polygon class="st9" points="172.1,200.8 168.2,200.8 168.2,198.2 172.1,198.2 172.1,194 175,194 175,198.2 178.8,198.2 
				178.8,200.8 175,200.8 175,205.2 172.1,205.2 			"/>
		</g>
		<g>
			<circle class="st9" cx="128.5" cy="199.6" r="14.3"/>
			
				<linearGradient id="SVGID_53_" gradientUnits="userSpaceOnUse" x1="115.2094" y1="-700.6267" x2="141.8647" y2="-700.6267" gradientTransform="matrix(1 0 0 -1 0 -501.0106)">
				<stop  offset="0" style="stop-color:#EF7852"/>
				<stop  offset="1" style="stop-color:#EB5C2C"/>
			</linearGradient>
			<circle class="st68" cx="128.5" cy="199.6" r="13.3"/>
			
				<linearGradient id="SVGID_54_" gradientUnits="userSpaceOnUse" x1="117.4307" y1="-700.6267" x2="139.6434" y2="-700.6267" gradientTransform="matrix(1 0 0 -1 0 -501.0106)">
				<stop  offset="0" style="stop-color:#EB5C2C"/>
				<stop  offset="1" style="stop-color:#EF7852"/>
			</linearGradient>
			<path class="st69" d="M128.5,210.7c-6.1,0-11.1-5-11.1-11.1c0-6.1,5-11.1,11.1-11.1c6.1,0,11.1,5,11.1,11.1
				C139.6,205.7,134.7,210.7,128.5,210.7z"/>
			<path class="st9" d="M126.5,194.4c0.1-0.1,0.2-0.3,0.3-0.2c0.1,0.1,0.1,0.2,0.1,0.4c0,0.9,0,1.9,0,2.8c0,0.3,0.1,0.4,0.4,0.5
				c2.6,0.2,5,1.1,7.1,2.7c0.4,0.4,0.8,0.8,1.1,1.3c0.1,0.2,0.2,0.4,0.1,0.5c-0.2,0.2-0.4,0.1-0.5,0c-0.9-0.4-1.7-0.8-2.6-0.9
				c-1.7-0.3-3.4-0.2-5.1-0.1c-0.3,0-0.3,0.2-0.3,0.4c-0.1,1.1-0.1,2.2-0.2,3.3c-0.2,0-0.3-0.2-0.3-0.2c-1.6-1.6-3.2-3.3-4.8-4.9
				c-0.3-0.3-0.3-0.4,0-0.7C123.3,197.6,124.9,196,126.5,194.4z"/>
		</g>
		<g>
			<circle class="st9" cx="218.5" cy="199.6" r="14.3"/>
			
				<linearGradient id="SVGID_55_" gradientUnits="userSpaceOnUse" x1="205.16" y1="-700.6267" x2="231.8153" y2="-700.6267" gradientTransform="matrix(1 0 0 -1 0 -501.0106)">
				<stop  offset="0" style="stop-color:#EF7852"/>
				<stop  offset="1" style="stop-color:#EB5C2C"/>
			</linearGradient>
			<circle class="st70" cx="218.5" cy="199.6" r="13.3"/>
			
				<linearGradient id="SVGID_56_" gradientUnits="userSpaceOnUse" x1="207.3813" y1="-700.6267" x2="229.594" y2="-700.6267" gradientTransform="matrix(1 0 0 -1 0 -501.0106)">
				<stop  offset="0" style="stop-color:#EB5C2C"/>
				<stop  offset="1" style="stop-color:#EF7852"/>
			</linearGradient>
			<path class="st71" d="M218.5,210.7c-6.1,0-11.1-5-11.1-11.1c0-6.1,5-11.1,11.1-11.1c6.1,0,11.1,5,11.1,11.1
				C229.6,205.7,224.6,210.7,218.5,210.7z"/>
			<path class="st9" d="M220.5,193.3c-0.6-0.7-1.6-0.3-1.9,0.5c-0.2,0.6-0.5,1.4-0.8,1.9c-0.8,1.7-1.3,2.6-2.6,3.8
				c-0.2,0.2-0.4,0.3-0.7,0.4c-0.9,0.3-1.7,1.3-1.5,2.3l0.3,1.4c0.1,0.7,0.7,1.3,1.4,1.5l4.4,1.2c2,0.5,4-0.7,4.4-2.8l0.5-2.9
				c0.3-1.4-0.8-2.8-2.3-2.8H221l0,0c0.1-0.3,0.1-0.8,0.2-1.2c0-0.5,0.1-1,0-1.5c0-0.5-0.1-1-0.4-1.3
				C220.7,193.5,220.6,193.4,220.5,193.3z"/>
		</g>
	</g>
</g>
<g id="Img_Html" class="st0">
	<g class="st1">
		
			<image style="overflow:visible;" width="1193" height="624" xlink:href="8D8FB85E.jpg"  transform="matrix(0.1296 0 0 0.1296 108.4795 227.3684)">
		</image>
		
			<image style="overflow:visible;" width="1193" height="624" xlink:href="8D8FB862.jpg"  transform="matrix(0.1296 0 0 0.1296 143.5383 227.3684)">
		</image>
		
			<image style="overflow:visible;" width="1193" height="624" xlink:href="8D8FB865.jpg"  transform="matrix(0.1296 0 0 0.1296 123.3284 227.3684)">
		</image>
	</g>
</g>
</svg>
