<?xml version="1.0" encoding="utf-8"?>
<!-- Generator: Adobe Illustrator 24.2.1, SVG Export Plug-In . SVG Version: 6.00 Build 0)  -->
<svg version="1.1" xmlns="http://www.w3.org/2000/svg" xmlns:xlink="http://www.w3.org/1999/xlink" x="0px" y="0px"
	 viewBox="0 0 172.6 33.3" style="enable-background:new 0 0 172.6 33.3;" xml:space="preserve">
<style type="text/css">
	.st0{display:none;}
	.st1{display:inline;}
	.st2{fill:#F0825D;}
	.st3{display:inline;fill:#FFFFFF;}
	.st4{fill:url(#SVGID_1_);}
	.st5{fill:none;stroke:#FFFFFF;stroke-miterlimit:10;}
	.st6{fill:url(#SVGID_2_);}
	.st7{fill:url(#SVGID_3_);}
	.st8{fill:url(#SVGID_4_);}
	.st9{fill:#FFFFFF;}
	.st10{fill:url(#SVGID_5_);}
	.st11{fill:url(#SVGID_6_);}
	.st12{fill:url(#SVGID_7_);}
	.st13{fill:url(#SVGID_8_);}
	.st14{fill:url(#SVGID_9_);}
	.st15{fill:url(#SVGID_10_);}
	.st16{fill:url(#SVGID_11_);}
	.st17{fill:url(#SVGID_12_);}
	.st18{fill:url(#SVGID_13_);}
	.st19{fill:url(#SVGID_14_);}
	.st20{fill:url(#SVGID_15_);}
	.st21{fill:url(#SVGID_16_);}
	.st22{fill:url(#SVGID_17_);}
	.st23{fill:url(#SVGID_18_);}
	.st24{fill:url(#SVGID_19_);}
	.st25{fill:url(#SVGID_20_);}
	.st26{fill:url(#SVGID_21_);}
	.st27{fill:url(#SVGID_22_);}
	.st28{fill:url(#SVGID_23_);}
	.st29{fill:url(#SVGID_24_);}
	.st30{fill-rule:evenodd;clip-rule:evenodd;fill:#FFFFFF;}
	.st31{fill:url(#SVGID_25_);}
	.st32{fill:url(#SVGID_26_);}
	.st33{fill:url(#SVGID_27_);}
	.st34{fill:url(#SVGID_28_);}
	.st35{fill:url(#SVGID_29_);}
	.st36{fill:url(#SVGID_30_);}
	.st37{fill:url(#SVGID_31_);}
	.st38{fill:url(#SVGID_32_);}
	.st39{fill:url(#SVGID_33_);}
	.st40{fill:url(#SVGID_34_);}
	.st41{fill:url(#SVGID_35_);}
	.st42{fill:url(#SVGID_36_);}
	.st43{fill:url(#SVGID_37_);}
	.st44{fill:url(#SVGID_38_);}
	.st45{fill:url(#SVGID_39_);}
	.st46{fill:url(#SVGID_40_);}
	.st47{fill:url(#SVGID_41_);}
	.st48{fill:url(#SVGID_42_);}
	.st49{fill:url(#SVGID_43_);}
	.st50{fill:url(#SVGID_44_);}
	.st51{fill:url(#SVGID_45_);}
	.st52{fill:url(#SVGID_46_);}
	.st53{fill:url(#SVGID_47_);}
	.st54{fill:url(#SVGID_48_);}
	.st55{fill:url(#SVGID_49_);}
	.st56{fill:url(#SVGID_50_);}
	.st57{fill:url(#SVGID_51_);}
	.st58{fill:url(#SVGID_52_);}
	.st59{fill:url(#SVGID_53_);}
	.st60{fill:url(#SVGID_54_);}
	.st61{fill:url(#SVGID_55_);}
	.st62{fill:url(#SVGID_56_);}
</style>
<g id="Logo" class="st0">
	<g class="st1">
		<text transform="matrix(1 0 0 1 -1206.7197 -795.6653)" class="st9" style="font-family:'Monoid-Bold'; font-size:24.5422px;">The Space of</text>
		<text transform="matrix(1 0 0 1 -1216.6416 -735.0579)" class="st9" style="font-family:'Gamer'; font-size:107.939px;">Developers</text>
		<g>
			<g>
				<path class="st2" d="M-843.5-683.8c-16.8,0-32.3-6-44.4-16.1l-6.3,9.7c13.9,11.2,31.5,17.9,50.6,17.9c19.2,0,36.8-6.7,50.6-17.9
					l-8-8.3C-812.6-689.3-827.5-683.8-843.5-683.8z"/>
				<path class="st2" d="M-778.8-728.2l10.9,3.7c0.9-2.3,1.7-4.7,2.3-7.2l-10.8-4C-777-733.1-777.8-730.6-778.8-728.2z"/>
				<path class="st2" d="M-843.5-834.1c-23.4,0-44.6,10-59.4,26l6.7,9.7c12.7-14.8,31.6-24.3,52.7-24.3c38.3,0,69.4,31.2,69.4,69.4
					c0,4.6-0.5,9.2-1.3,13.5l11.2,2.4c1-5.2,1.6-10.5,1.6-16C-762.6-797.8-798.9-834.1-843.5-834.1z"/>
			</g>
		</g>
		<g>
			<g>
				<path class="st2" d="M-844.2-628.8c-50.7,0-94.8-28.2-116.1-69.2c-3.2,1.2-6.9,2.8-10.7,4.3c23.1,45.2,71.2,76.4,126.8,76.4
					c14.6,0,28.6-2.1,41.9-6.1c-1.2-3.7-2.4-7.8-3.4-11C-817.9-630.8-830.8-628.8-844.2-628.8z"/>
				<path class="st2" d="M-781.8-876.6c-0.6,3.4-1.6,8-2.4,11.6c41.5,20.9,69.9,62.8,69.9,111c0,50.7-31.5,94.5-76.6,114.1l4.5,10.5
					c49.2-21.4,83.6-69.2,83.6-124.7C-702.9-807.7-735.1-854.3-781.8-876.6z"/>
				<path class="st2" d="M-844.2-879.2c7,0,13.9,0.6,20.6,1.6l-4.8-12.2c-5.2-0.6-10.4-0.9-15.7-0.9c-56.2,0-104.9,31.9-127.6,78
					l8.2,9.6C-943.8-847.8-897.8-879.2-844.2-879.2z"/>
				<path class="st2" d="M-809.9-874.7c0.4-3.6,0.9-8.1,1.3-11.5c-4.5-1.1-9.1-2.1-13.8-2.8l5.5,12.7
					C-814.5-875.9-812.2-875.4-809.9-874.7z"/>
			</g>
		</g>
		<g>
			<g>
				<path class="st2" d="M-986.9-689.2c-2.4,1.9-5.2,4.1-7.9,6.2c1.8,3.5,3.7,7,5.7,10.4c2.8-2.3,5.8-4.6,7.7-6.3
					C-983.4-682.3-985.2-685.7-986.9-689.2z"/>
				<path class="st2" d="M-845.2-601.3c-54.5,0-102.6-27.4-130.7-68.9l-7,7.2c30,43.2,80.6,71.6,137.7,71.6
					c37.6,0,72.2-12.2,100.1-32.9c-1.9-2.7-4-5.5-5.8-8C-777.1-612.9-809.8-601.3-845.2-601.3z"/>
				<path class="st2" d="M-844.4-918.3v9.8c86.1,0.4,156,69.1,156,153.6c0,18.2-3.3,35.7-9.2,51.9l9.1,3.7
					c6.4-17.4,9.9-36.1,9.9-55.6C-678.5-844.7-752.9-917.9-844.4-918.3z"/>
				<path class="st2" d="M-962.8-856.3l-6.5-7.4c-9.1,10-17,21-23.4,33l7.6,6.7C-979.1-835.7-971.6-846.5-962.8-856.3z"/>
			</g>
		</g>
		<g>
			<g>
				<path class="st2" d="M-698.1-788.6c-15.7-64.9-75.6-113.4-147-113.4c-59.1,0-110.3,33.2-135.1,81.5l5.3,4.1
					c23.5-46.7,72.8-79,129.8-79c68.4,0,125.8,46.5,140.7,108.8C-702.5-787.3-700.1-788-698.1-788.6z"/>
				<path class="st2" d="M-695.9-777.6c-2.2,0.5-4.5,1-6.4,1.4c1.1,6.9,1.7,14,1.7,21.3c0,16.2-2.8,31.7-8,46.1l5.9,3.1
					c5.6-15.4,8.7-32,8.7-49.2C-694.1-762.6-694.8-770.2-695.9-777.6z"/>
				<path class="st2" d="M-974.5-692.7l-6.4,1.8c10.6,21.2,26.2,39.5,45.3,53.5l4.6-4.8C-949.4-655.4-964.3-672.7-974.5-692.7z"/>
			</g>
		</g>
		<g>
			<g>
				<path class="st2" d="M-733.6-760.8c2.1,0.3,4.5,0.7,6.7,1c-3.3-60.9-55.1-109.5-118.2-109.5c-37.6,0-71.2,17.3-92.9,44.1
					l7.3,1.5c20.5-23.8,51.3-39,85.6-39C-786-862.7-737.5-817.6-733.6-760.8z"/>
				<path class="st2" d="M-733.5-750.6c-1.6,58.8-51.1,106.1-111.7,106.1c-20.1,0-39-5.2-55.3-14.3l-1.5,6.7
					c16.9,9,36.2,14.2,56.7,14.2c64,0,116.2-49.8,118.3-111.8L-733.5-750.6z"/>
			</g>
		</g>
		<g>
			<g>
				<path class="st2" d="M-815.5-844.3l3.2-4.1c-10.4-3.6-21.5-5.6-33.1-5.6c-29.3,0-55.6,12.6-74,32.6l5.4,1.5
					c17.4-18,41.7-29.2,68.6-29.2C-835-849.1-824.9-847.4-815.5-844.3z"/>
				<path class="st2" d="M-780.4-830c-0.9,1.2-1.9,2.6-2.9,3.9c18.1,15.5,30.3,37.7,32.8,62.7c1.7,0.4,3.5,0.9,5,1.3
					C-747.8-789.2-760.8-813.3-780.4-830z"/>
				<path class="st2" d="M-845.4-658.4c-18.7,0-36.2-5.4-50.9-14.8l-1.3,5c15.2,9.3,33.1,14.7,52.2,14.7c35.7,0,67-18.8,84.8-46.9
					c-1.3-0.7-2.9-1.6-4.3-2.3C-781.9-676.1-811.6-658.4-845.4-658.4z"/>
			</g>
		</g>
		<g>
			<g>
				<path class="st2" d="M-845.4-844.4c-14.9,0-28.9,3.6-41.3,10c0.9,1.2,2.1,2.8,3,4c11.6-5.8,24.6-9,38.3-9
					c43.8,0,80,32.9,85.3,75.2l4.9-0.4C-760.7-809.6-799-844.4-845.4-844.4z"/>
				<path class="st2" d="M-845.4-667.5c-18.5,0-35.6-5.9-49.6-15.8l-0.9,5.4c14.5,9.7,31.8,15.4,50.5,15.4
					c22.7,0,43.5-8.4,59.5-22.2c-1.5-1.1-2.9-2.2-4-3C-804.9-675.2-824.2-667.5-845.4-667.5z"/>
			</g>
		</g>
		<g>
			<g>
				<path class="st2" d="M-845.1-693.4c-11.3,0-21.9-3-30.9-8.3c-0.7,1.5-1.4,3-2,4.5c9.7,5.5,21,8.7,33,8.7
					c15.3,0,29.3-5.1,40.4-13.7c-1-1.1-2.1-2.5-3.2-3.7C-818.1-698.1-831-693.4-845.1-693.4z"/>
				<path class="st2" d="M-845.1-815.4c-17.7,0-33.8,6.9-45.6,18.1l4.2,2.8c10.8-9.9,25.4-15.9,41.3-15.9
					c33.3,0,60.4,26.3,60.4,58.6c0,10.9-3.1,21.1-8.4,29.8l3.8,3.2c6-9.6,9.5-20.9,9.5-33C-779.8-786.9-809.1-815.4-845.1-815.4z"/>
			</g>
		</g>
	</g>
</g>
<g id="Loading_Bar" class="st0">
	<path class="st3" d="M-691.9-503h-498.2c-12.9,0-23.4,10.5-23.4,23.4v0c0,12.9,10.5,23.4,23.4,23.4h498.2
		c12.9,0,23.4-10.5,23.4-23.4v0C-668.6-492.5-679-503-691.9-503z M-672.1-479.6L-672.1-479.6c0,10.9-8.9,19.8-19.8,19.8l-227.3,0
		v-39.6h227.3C-681-499.4-672.1-490.6-672.1-479.6z"/>
</g>
<g id="input" class="st0">
	<g class="st1">
		<g>
			<linearGradient id="SVGID_1_" gradientUnits="userSpaceOnUse" x1="-853.4087" y1="-385.3063" x2="-672.709" y2="-385.3063">
				<stop  offset="0" style="stop-color:#0D0E0E"/>
				<stop  offset="1" style="stop-color:#222222"/>
			</linearGradient>
			<path class="st4" d="M-690-402.5h-146.2c-9.5,0-17.2,7.7-17.2,17.2v0c0,9.5,7.7,17.2,17.2,17.2H-690c9.5,0,17.2-7.7,17.2-17.2v0
				C-672.7-394.8-680.4-402.5-690-402.5z"/>
			<path class="st5" d="M-836.2-371.1H-690c7.9,0,14.2-6.4,14.2-14.2v0c0-7.9-6.4-14.2-14.2-14.2h-146.2c-7.9,0-14.2,6.4-14.2,14.2
				v0C-850.4-377.4-844-371.1-836.2-371.1z"/>
		</g>
		<text transform="matrix(1 0 0 1 -778.756 -383.2604)" class="st9" style="font-family:'Roboto-Thin'; font-size:7px;">Username</text>
	</g>
</g>
<g id="Boton" class="st0">
	<g class="st1">
		<linearGradient id="SVGID_2_" gradientUnits="userSpaceOnUse" x1="-866.2654" y1="-315.6724" x2="-685.7346" y2="-315.6724">
			<stop  offset="0" style="stop-color:#F9B654"/>
			<stop  offset="1" style="stop-color:#EF7C2C"/>
		</linearGradient>
		<path class="st6" d="M-698.5-302.9h-155c-7,0-12.8-5.7-12.8-12.8l0,0c0-7,5.7-12.8,12.8-12.8h155c7,0,12.8,5.7,12.8,12.8l0,0
			C-685.7-308.6-691.4-302.9-698.5-302.9z"/>
		<g>
			<text transform="matrix(1 0 0 1 -796.875 -310.0472)" class="st9" style="font-family:'Roboto-Bold'; font-size:15px;">Login</text>
		</g>
	</g>
</g>
<g id="Login_Google_Apple" class="st0">
	<g class="st1">
		<g>
			<linearGradient id="SVGID_3_" gradientUnits="userSpaceOnUse" x1="-719.5273" y1="-246.2606" x2="-684.5323" y2="-246.2606">
				<stop  offset="0" style="stop-color:#F9B654"/>
				<stop  offset="1" style="stop-color:#EF7C2C"/>
			</linearGradient>
			<path class="st7" d="M-690.8-264h-22.4c-3.5,0-6.3,2.8-6.3,6.3v22.8c0,3.5,2.8,6.3,6.3,6.3h22.4c3.5,0,6.3-2.8,6.3-6.3v-22.8
				C-684.5-261.1-687.4-264-690.8-264z"/>
			<linearGradient id="SVGID_4_" gradientUnits="userSpaceOnUse" x1="-717.235" y1="-246.2606" x2="-686.8246" y2="-246.2606">
				<stop  offset="0" style="stop-color:#EF7C2C"/>
				<stop  offset="1" style="stop-color:#F9B654"/>
			</linearGradient>
			<path class="st8" d="M-690.8-261.7h-22.4c-2.2,0-4,1.8-4,4v22.8c0,2.2,1.8,4,4,4h22.4c2.2,0,4-1.8,4-4v-22.8
				C-686.8-259.9-688.6-261.7-690.8-261.7z"/>
			<path class="st5" d="M-690.8-232.4c1.4,0,2.5-1.1,2.5-2.5v-22.8c0-1.4-1.1-2.5-2.5-2.5h-22.4c-1.4,0-2.5,1.1-2.5,2.5v22.8
				c0,1.4,1.1,2.5,2.5,2.5H-690.8z"/>
			<g>
				<path class="st9" d="M-697.3-257.4C-697.3-257.4-697.3-257.4-697.3-257.4c0,1.4-0.1,2.4-1.1,3.4c-0.7,0.7-2.1,1.4-3.1,1.4
					c-0.1,0-0.1,0-0.1,0C-701.7-254.8-699.9-257.4-697.3-257.4z"/>
				<path class="st9" d="M-694.9-243c0.6,0.9,2.4,1.9,2.2,2.5c-0.1,0.5-1.6,2.7-2,3.2c-3.2,4-4.4,0.8-7.1,0.9
					c-1.4,0.1-1.9,1.2-3.4,1.2c-0.2,0-0.4,0-0.6,0c-1.1-0.2-2.3-1.3-3-2.1c-1.4-1.7-2.6-5.3-2.8-7.5c-0.2-2.7,1-5.5,3.4-6.9
					c2.8-1.6,4.8,0.4,6.6,0.8c0.5,0.1,0.9,0.1,1.4-0.1c1.5-0.8,2-1.4,4-0.9c1.1,0.3,2.3,1.2,2.9,2.1
					C-695.6-248-696.8-245.6-694.9-243z"/>
			</g>
		</g>
		<g>
			<linearGradient id="SVGID_5_" gradientUnits="userSpaceOnUse" x1="-800.9971" y1="-246.2606" x2="-766.0021" y2="-246.2606">
				<stop  offset="0" style="stop-color:#F9B654"/>
				<stop  offset="1" style="stop-color:#EF7C2C"/>
			</linearGradient>
			<path class="st10" d="M-772.3-264h-22.4c-3.5,0-6.3,2.8-6.3,6.3v22.8c0,3.5,2.8,6.3,6.3,6.3h22.4c3.5,0,6.3-2.8,6.3-6.3v-22.8
				C-766-261.1-768.8-264-772.3-264z"/>
			<linearGradient id="SVGID_6_" gradientUnits="userSpaceOnUse" x1="-798.7048" y1="-246.2606" x2="-768.2944" y2="-246.2606">
				<stop  offset="0" style="stop-color:#EF7C2C"/>
				<stop  offset="1" style="stop-color:#F9B654"/>
			</linearGradient>
			<path class="st11" d="M-772.3-261.7h-22.4c-2.2,0-4,1.8-4,4v22.8c0,2.2,1.8,4,4,4h22.4c2.2,0,4-1.8,4-4v-22.8
				C-768.3-259.9-770.1-261.7-772.3-261.7z"/>
			<path class="st5" d="M-772.3-232.4c1.4,0,2.5-1.1,2.5-2.5v-22.8c0-1.4-1.1-2.5-2.5-2.5h-22.4c-1.4,0-2.5,1.1-2.5,2.5v22.8
				c0,1.4,1.1,2.5,2.5,2.5H-772.3z"/>
			<g>
				<path class="st9" d="M-772.9-247c0,0.3,0,0.7,0,1l0,0.3c0,0.3-0.1,0.7-0.1,1l0,0.2c-0.1,0.4-0.1,0.8-0.2,1.1l-0.1,0.3
					c-0.1,0.3-0.2,0.5-0.3,0.8l-0.2,0.4c-0.1,0.3-0.3,0.5-0.4,0.8l-0.1,0.2l-0.1,0.1c-0.5,0.8-1,1.5-1.7,2.1l-0.1,0.1l0,0
					c-0.3,0.3-0.6,0.5-0.9,0.8l0,0c-0.3,0.2-0.7,0.5-1.1,0.7c-0.4,0.2-0.9,0.4-1.3,0.6l-0.1,0l0,0c-1.3,0.5-3.1,0.7-4.4,0.7l3.7-6.5
					c1.2-1,2-2.5,2-4.2c0-1.6-0.7-3-1.8-3.9h6.3c0.3,0.9,0.7,2.1,0.7,3L-772.9-247z"/>
				<path class="st9" d="M-792.4-251.9l3.7,6.4c0.4,2.6,2.6,4.6,5.3,4.6c0.4,0,0.7,0,1.1-0.1l-3,5.3c-0.8-0.1-1.5-0.4-2.2-0.7
					l-0.3-0.1l-0.1,0c-0.2-0.1-0.4-0.2-0.6-0.3l-0.3-0.1l-0.1-0.1c-0.2-0.1-0.4-0.2-0.6-0.4l-0.3-0.2c-0.2-0.1-0.3-0.3-0.5-0.4
					l-0.3-0.3c-0.1-0.1-0.3-0.2-0.4-0.4c-0.1-0.1-0.3-0.3-0.4-0.4l-0.3-0.3c-0.1-0.2-0.3-0.3-0.4-0.5l-0.2-0.3
					c-0.1-0.2-0.3-0.4-0.4-0.6l-0.1-0.1l-0.1-0.3c-0.1-0.2-0.2-0.4-0.3-0.6c-0.1-0.2-0.1-0.3-0.2-0.5c-0.1-0.2-0.1-0.3-0.2-0.5
					c-0.1-0.2-0.1-0.4-0.2-0.6l-0.1-0.4c0-0.2-0.1-0.4-0.1-0.6l-0.1-0.4c0-0.2-0.1-0.4-0.1-0.6l0-0.5c0-0.2,0-0.4,0-0.5
					c0-0.2,0-0.4,0-0.5l0-0.5c0-0.2,0-0.4,0.1-0.6l0.1-0.4c0-0.2,0.1-0.4,0.1-0.6l0.1-0.4c0.1-0.2,0.1-0.4,0.2-0.6
					c0.1-0.2,0.1-0.3,0.2-0.5l0.2-0.5c0.1-0.2,0.2-0.4,0.3-0.6L-792.4-251.9L-792.4-251.9z"/>
				<path class="st9" d="M-774.3-251.6h-9.2c-2.4,0-4.4,1.5-5.1,3.7l-3-5.3l0.1-0.1c0.1-0.2,0.3-0.3,0.5-0.5l0.3-0.3
					c0.1-0.1,0.3-0.3,0.4-0.4l0.4-0.3c0.1-0.1,0.3-0.2,0.4-0.3c0.1-0.1,0.3-0.2,0.4-0.3l0.3-0.2l0.2-0.1c0.2-0.1,0.3-0.2,0.5-0.2
					c0.2-0.1,0.3-0.2,0.5-0.2l0.4-0.1c0.2-0.1,0.4-0.2,0.6-0.2l0.2,0c0.8-0.2,1.6-0.4,2.4-0.4l0.4,0l0.5,0c0.2,0,0.4,0,0.6,0l0.4,0
					c0.2,0,0.4,0,0.7,0.1l0.3,0.1c0.2,0,0.4,0.1,0.7,0.1l0.3,0.1c0.2,0.1,0.4,0.1,0.6,0.2l0.4,0.2c0.2,0.1,0.3,0.1,0.5,0.2
					c0.2,0.1,0.3,0.2,0.5,0.3l0.3,0.2l0.1,0.1c0.4,0.2,0.7,0.5,1.1,0.7l0.1,0.1c0.3,0.2,0.6,0.5,0.9,0.8l0.2,0.2
					c0.3,0.3,0.5,0.6,0.7,0.9l0.1,0.1C-774.7-252.3-774.5-252-774.3-251.6z"/>
				<path class="st9" d="M-783.5-250.3c2.2,0,4,1.8,4,4c0,2.2-1.8,4-4,4c-2.2,0-4-1.8-4-4S-785.7-250.3-783.5-250.3z"/>
			</g>
		</g>
	</g>
</g>
<g id="Boton_Studing_add" class="st0">
	<g class="st1">
		<g>
			<path class="st9" d="M-700.7-196.4h-151.5c-7.1,0-12.8,6.4-12.8,14.3v0c0,7.9,5.7,14.3,12.8,14.3h151.5c7.1,0,12.8-6.4,12.8-14.3
				v0C-687.9-190-693.7-196.4-700.7-196.4z"/>
			<linearGradient id="SVGID_7_" gradientUnits="userSpaceOnUse" x1="-858.909" y1="-181.7388" x2="-604.9167" y2="-182.8934">
				<stop  offset="0" style="stop-color:#222222"/>
				<stop  offset="0.261" style="stop-color:#202021"/>
				<stop  offset="0.4177" style="stop-color:#1B1B1C"/>
				<stop  offset="0.5465" style="stop-color:#121213"/>
				<stop  offset="0.5899" style="stop-color:#0D0E0E"/>
			</linearGradient>
			<path class="st12" d="M-700.8-195.6h-151.3c-6.6,0-12,6-12,13.5v0c0,7.4,5.4,13.5,12,13.5h151.3c6.6,0,12-6,12-13.5v0
				C-688.8-189.5-694.2-195.6-700.8-195.6z"/>
			<linearGradient id="SVGID_8_" gradientUnits="userSpaceOnUse" x1="-862.2614" y1="-182.1133" x2="-667.9663" y2="-182.1133">
				<stop  offset="0" style="stop-color:#0D0E0E"/>
				<stop  offset="5.068219e-02" style="stop-color:#111212"/>
				<stop  offset="0.2146" style="stop-color:#1B1B1C"/>
				<stop  offset="0.4115" style="stop-color:#202020"/>
				<stop  offset="0.727" style="stop-color:#222222"/>
			</linearGradient>
			<path class="st13" d="M-690.7-182.1c0-6.4-4.6-11.6-10.2-11.6H-852c-5.6,0-10.2,5.2-10.2,11.6c0,6.4,4.6,11.6,10.2,11.6h151.1
				C-695.3-170.5-690.7-175.7-690.7-182.1z"/>
		</g>
		<g>
			<circle class="st9" cx="-701.3" cy="-182.1" r="14.3"/>
			
				<linearGradient id="SVGID_9_" gradientUnits="userSpaceOnUse" x1="-714.6454" y1="-689.4739" x2="-687.9902" y2="-689.4739" gradientTransform="matrix(1 0 0 -1 0 -871.5875)">
				<stop  offset="0" style="stop-color:#EF7852"/>
				<stop  offset="1" style="stop-color:#EB5C2C"/>
			</linearGradient>
			<circle class="st14" cx="-701.3" cy="-182.1" r="13.3"/>
			
				<linearGradient id="SVGID_10_" gradientUnits="userSpaceOnUse" x1="-712.4242" y1="-689.4739" x2="-690.2114" y2="-689.4739" gradientTransform="matrix(1 0 0 -1 0 -871.5875)">
				<stop  offset="0" style="stop-color:#EB5C2C"/>
				<stop  offset="1" style="stop-color:#EF7852"/>
			</linearGradient>
			<path class="st15" d="M-701.3-171c-6.1,0-11.1-5-11.1-11.1c0-6.1,5-11.1,11.1-11.1c6.1,0,11.1,5,11.1,11.1
				C-690.2-176-695.2-171-701.3-171z"/>
			<polygon class="st9" points="-702.8,-180.9 -706.6,-180.9 -706.6,-183.5 -702.8,-183.5 -702.8,-187.7 -699.9,-187.7 
				-699.9,-183.5 -696,-183.5 -696,-180.9 -699.9,-180.9 -699.9,-176.5 -702.8,-176.5 			"/>
		</g>
		<text transform="matrix(1.11 0 0 1 -848.3694 -179.191)"><tspan x="0" y="0" class="st9" style="font-family:'Roboto-Light'; font-size:10px;">Studing</tspan><tspan x="33.8" y="0" class="st9" style="font-family:'Roboto-Light'; font-size:10px;">	</tspan></text>
	</g>
</g>
<g id="Menu_Rodape" class="st0">
	<g class="st1">
		<g>
			<path class="st9" d="M-700-141.4h-151.5c-7.1,0-12.8,6.4-12.8,14.3v0c0,7.9,5.7,14.3,12.8,14.3H-700c7.1,0,12.8-6.4,12.8-14.3v0
				C-687.2-135-693-141.4-700-141.4z"/>
			<linearGradient id="SVGID_11_" gradientUnits="userSpaceOnUse" x1="-858.216" y1="-126.7094" x2="-604.2237" y2="-127.864">
				<stop  offset="0" style="stop-color:#222222"/>
				<stop  offset="0.261" style="stop-color:#202021"/>
				<stop  offset="0.4177" style="stop-color:#1B1B1C"/>
				<stop  offset="0.5465" style="stop-color:#121213"/>
				<stop  offset="0.5899" style="stop-color:#0D0E0E"/>
			</linearGradient>
			<path class="st16" d="M-700.1-140.5h-151.3c-6.6,0-12,6-12,13.5v0c0,7.4,5.4,13.5,12,13.5h151.3c6.6,0,12-6,12-13.5v0
				C-688.1-134.5-693.5-140.5-700.1-140.5z"/>
			<linearGradient id="SVGID_12_" gradientUnits="userSpaceOnUse" x1="-861.5684" y1="-127.0839" x2="-667.2733" y2="-127.0839">
				<stop  offset="0" style="stop-color:#0D0E0E"/>
				<stop  offset="5.068219e-02" style="stop-color:#111212"/>
				<stop  offset="0.2146" style="stop-color:#1B1B1C"/>
				<stop  offset="0.4115" style="stop-color:#202020"/>
				<stop  offset="0.727" style="stop-color:#222222"/>
			</linearGradient>
			<path class="st17" d="M-690-127.1c0-6.4-4.6-11.6-10.2-11.6h-151.1c-5.6,0-10.2,5.2-10.2,11.6c0,6.4,4.6,11.6,10.2,11.6h151.1
				C-694.6-115.5-690-120.7-690-127.1z"/>
		</g>
		<g>
			<circle class="st9" cx="-850.4" cy="-127.1" r="14.3"/>
			
				<linearGradient id="SVGID_13_" gradientUnits="userSpaceOnUse" x1="-863.7564" y1="-744.5034" x2="-837.1011" y2="-744.5034" gradientTransform="matrix(1 0 0 -1 0 -871.5875)">
				<stop  offset="0" style="stop-color:#EF7852"/>
				<stop  offset="1" style="stop-color:#EB5C2C"/>
			</linearGradient>
			<circle class="st18" cx="-850.4" cy="-127.1" r="13.3"/>
			
				<linearGradient id="SVGID_14_" gradientUnits="userSpaceOnUse" x1="-861.5352" y1="-744.5034" x2="-839.3224" y2="-744.5034" gradientTransform="matrix(1 0 0 -1 0 -871.5875)">
				<stop  offset="0" style="stop-color:#EB5C2C"/>
				<stop  offset="1" style="stop-color:#EF7852"/>
			</linearGradient>
			<path class="st19" d="M-850.4-116c-6.1,0-11.1-5-11.1-11.1c0-6.1,5-11.1,11.1-11.1c6.1,0,11.1,5,11.1,11.1
				C-839.3-121-844.3-116-850.4-116z"/>
			<g>
				<path class="st9" d="M-851.6-133.7c-3,0-5.4,2.4-5.4,5.4c0,3,2.4,5.4,5.4,5.4c3,0,5.4-2.4,5.4-5.4
					C-846.2-131.3-848.6-133.7-851.6-133.7z M-851.6-124.7c-2,0-3.5-1.6-3.5-3.5c0-2,1.6-3.5,3.5-3.5c2,0,3.5,1.6,3.5,3.5
					C-848.1-126.3-849.7-124.7-851.6-124.7z"/>
				<path class="st9" d="M-844.1-122.1l-1.9-1.9c-0.4-0.4-1-0.4-1.3,0c-0.4,0.4-0.4,1,0,1.3l1.9,1.9c0.4,0.4,1,0.4,1.3,0
					C-843.7-121.1-843.7-121.7-844.1-122.1z"/>
			</g>
		</g>
		<g>
			<circle class="st9" cx="-701.8" cy="-127.1" r="14.3"/>
			
				<linearGradient id="SVGID_15_" gradientUnits="userSpaceOnUse" x1="-715.0884" y1="-744.5034" x2="-688.4331" y2="-744.5034" gradientTransform="matrix(1 0 0 -1 0 -871.5875)">
				<stop  offset="0" style="stop-color:#EF7852"/>
				<stop  offset="1" style="stop-color:#EB5C2C"/>
			</linearGradient>
			<circle class="st20" cx="-701.8" cy="-127.1" r="13.3"/>
			
				<linearGradient id="SVGID_16_" gradientUnits="userSpaceOnUse" x1="-712.8671" y1="-744.5034" x2="-690.6544" y2="-744.5034" gradientTransform="matrix(1 0 0 -1 0 -871.5875)">
				<stop  offset="0" style="stop-color:#EB5C2C"/>
				<stop  offset="1" style="stop-color:#EF7852"/>
			</linearGradient>
			<path class="st21" d="M-701.8-116c-6.1,0-11.1-5-11.1-11.1c0-6.1,5-11.1,11.1-11.1c6.1,0,11.1,5,11.1,11.1
				C-690.7-121-695.6-116-701.8-116z"/>
			<path class="st9" d="M-696.7-126.4c0-0.2,0-0.4,0-0.7s0-0.4,0-0.7l1.4-1.1c0.1-0.1,0.2-0.3,0.1-0.4l-1.3-2.3
				c-0.1-0.1-0.3-0.2-0.4-0.1l-1.7,0.7c-0.4-0.3-0.7-0.5-1.1-0.7l-0.3-1.8c0-0.2-0.2-0.3-0.3-0.3h-2.7c-0.2,0-0.3,0.1-0.3,0.3
				l-0.3,1.8c-0.4,0.2-0.8,0.4-1.1,0.7l-1.7-0.7c-0.2-0.1-0.3,0-0.4,0.1l-1.3,2.3c-0.1,0.1,0,0.3,0.1,0.4l1.4,1.1c0,0.2,0,0.4,0,0.7
				c0,0.2,0,0.4,0,0.7l-1.4,1.1c-0.1,0.1-0.2,0.3-0.1,0.4l1.3,2.3c0.1,0.1,0.3,0.2,0.4,0.1l1.7-0.7c0.4,0.3,0.7,0.5,1.1,0.7l0.3,1.8
				c0,0.2,0.2,0.3,0.3,0.3h2.7c0.2,0,0.3-0.1,0.3-0.3l0.3-1.8c0.4-0.2,0.8-0.4,1.1-0.7l1.7,0.7c0.2,0.1,0.3,0,0.4-0.1l1.3-2.3
				c0.1-0.1,0-0.3-0.1-0.4L-696.7-126.4z M-701.8-124.7c-1.3,0-2.4-1.1-2.4-2.4c0-1.3,1.1-2.4,2.4-2.4c1.3,0,2.4,1.1,2.4,2.4
				C-699.4-125.8-700.5-124.7-701.8-124.7z"/>
		</g>
		<g>
			<circle class="st9" cx="-776.1" cy="-127.1" r="14.3"/>
			
				<linearGradient id="SVGID_17_" gradientUnits="userSpaceOnUse" x1="-789.4224" y1="-744.5034" x2="-762.7671" y2="-744.5034" gradientTransform="matrix(1 0 0 -1 0 -871.5875)">
				<stop  offset="0" style="stop-color:#EF7852"/>
				<stop  offset="1" style="stop-color:#EB5C2C"/>
			</linearGradient>
			<circle class="st22" cx="-776.1" cy="-127.1" r="13.3"/>
			
				<linearGradient id="SVGID_18_" gradientUnits="userSpaceOnUse" x1="-787.2011" y1="-744.5034" x2="-764.9884" y2="-744.5034" gradientTransform="matrix(1 0 0 -1 0 -871.5875)">
				<stop  offset="0" style="stop-color:#EB5C2C"/>
				<stop  offset="1" style="stop-color:#EF7852"/>
			</linearGradient>
			<path class="st23" d="M-776.1-116c-6.1,0-11.1-5-11.1-11.1c0-6.1,5-11.1,11.1-11.1c6.1,0,11.1,5,11.1,11.1
				C-765-121-770-116-776.1-116z"/>
			<path id="home_1_" class="st9" d="M-768.4-128.2l-6.9-5.2c-0.5-0.3-1.1-0.3-1.7,0l-6.8,5.2c-0.5,0.4-0.3,1.1,0.4,1.1h0.7v4
				c0,1.4,1.2,2.6,2.6,2.6h1.3c0.4,0,0.7-0.3,0.7-0.7v-3.2c0-0.7,0.6-1.4,1.3-1.4h1.3c0.7,0,1.3,0.7,1.3,1.4v3.2
				c0,0.3,0.3,0.7,0.7,0.7h1.3c1.5,0,2.6-1.2,2.6-2.6v-4h0.7C-768.2-127.1-767.9-127.8-768.4-128.2z"/>
		</g>
	</g>
</g>
<g id="Botons_Linguagens" class="st0">
	<g class="st1">
		<g>
			<path class="st9" d="M-1056.3-399.8h-46.3c-8.6,0-15.6,7-15.6,15.6v56.5c0,8.6,7,15.6,15.6,15.6h46.3c8.6,0,15.6-7,15.6-15.6
				v-56.5C-1040.7-392.8-1047.7-399.8-1056.3-399.8z"/>
			<linearGradient id="SVGID_19_" gradientUnits="userSpaceOnUse" x1="-1115.5826" y1="-355.8755" x2="-1043.3596" y2="-355.8755">
				<stop  offset="0" style="stop-color:#F9B654"/>
				<stop  offset="1" style="stop-color:#EF7C2C"/>
			</linearGradient>
			<path class="st24" d="M-1056.3-397.1h-46.3c-7.2,0-13,5.8-13,13v56.5c0,7.2,5.8,13,13,13h46.3c7.2,0,13-5.8,13-13v-56.5
				C-1043.4-391.3-1049.2-397.1-1056.3-397.1z"/>
			<linearGradient id="SVGID_20_" gradientUnits="userSpaceOnUse" x1="-1110.8518" y1="-355.8755" x2="-1048.0903" y2="-355.8755">
				<stop  offset="0" style="stop-color:#EF7C2C"/>
				<stop  offset="1" style="stop-color:#F9B654"/>
			</linearGradient>
			<path class="st25" d="M-1056.3-392.4h-46.3c-4.5,0-8.3,3.7-8.3,8.3v56.5c0,4.5,3.7,8.3,8.3,8.3h46.3c4.5,0,8.3-3.7,8.3-8.3v-56.5
				C-1048.1-388.7-1051.8-392.4-1056.3-392.4z"/>
			<polygon class="st9" points="-1063.6,-368.3 -1063,-375.5 -1079.6,-375.7 -1096,-375.9 -1095,-354.2 -1079.8,-354.1 
				-1071.9,-354 -1072.5,-345.8 -1080,-343.4 -1087.3,-346 -1087.6,-350.5 -1094.9,-350.6 -1094.3,-340.7 -1080.1,-335.8 
				-1065.8,-340.4 -1064.2,-361.1 -1079.7,-361.3 -1088,-361.4 -1088.5,-368.6 -1079.7,-368.5 			"/>
			<path class="st5" d="M-1056.3-322.5c2.8,0,5.1-2.3,5.1-5.1v-56.5c0-2.8-2.3-5.1-5.1-5.1h-46.3c-2.8,0-5.1,2.3-5.1,5.1v56.5
				c0,2.8,2.3,5.1,5.1,5.1H-1056.3z"/>
		</g>
		<g>
			<g>
				<path class="st9" d="M-1152.2-399.8h-46.3c-8.6,0-15.6,7-15.6,15.6v56.5c0,8.6,7,15.6,15.6,15.6h46.3c8.6,0,15.6-7,15.6-15.6
					v-56.5C-1136.6-392.8-1143.6-399.8-1152.2-399.8z"/>
				<linearGradient id="SVGID_21_" gradientUnits="userSpaceOnUse" x1="-1211.4551" y1="-355.8755" x2="-1139.2321" y2="-355.8755">
					<stop  offset="0" style="stop-color:#FFDFA1"/>
					<stop  offset="1" style="stop-color:#FBBE43"/>
				</linearGradient>
				<path class="st26" d="M-1152.2-397.1h-46.3c-7.2,0-13,5.8-13,13v56.5c0,7.2,5.8,13,13,13h46.3c7.2,0,13-5.8,13-13v-56.5
					C-1139.2-391.3-1145.1-397.1-1152.2-397.1z"/>
				<linearGradient id="SVGID_22_" gradientUnits="userSpaceOnUse" x1="-1206.7242" y1="-355.8755" x2="-1143.9628" y2="-355.8755">
					<stop  offset="0" style="stop-color:#FBBE43"/>
					<stop  offset="1" style="stop-color:#FFDFA1"/>
				</linearGradient>
				<path class="st27" d="M-1152.2-392.4h-46.3c-4.5,0-8.3,3.7-8.3,8.3v56.5c0,4.5,3.7,8.3,8.3,8.3h46.3c4.5,0,8.3-3.7,8.3-8.3
					v-56.5C-1144-388.7-1147.7-392.4-1152.2-392.4z"/>
				<path class="st5" d="M-1152.2-322.5c2.8,0,5.1-2.3,5.1-5.1v-56.5c0-2.8-2.3-5.1-5.1-5.1h-46.3c-2.8,0-5.1,2.3-5.1,5.1v56.5
					c0,2.8,2.3,5.1,5.1,5.1H-1152.2z"/>
			</g>
			<g>
				<polygon class="st9" points="-1153,-377.4 -1153.5,-370.8 -1166.2,-370.8 -1166.2,-357.5 -1154.5,-359.2 -1156.3,-338.9 
					-1172.9,-334.3 -1172.9,-341.9 -1161.7,-345 -1161.2,-351.2 -1172.9,-349.2 -1172.9,-377.4 				"/>
				<polygon class="st9" points="-1179.5,-377.4 -1179.5,-334.3 -1197.7,-339.4 -1197.7,-347.6 -1186.1,-344.4 -1186.1,-377.4 				
					"/>
			</g>
		</g>
		<g>
			<g>
				<path class="st9" d="M-1056.3-289.6h-46.3c-8.6,0-15.6,7-15.6,15.6v56.5c0,8.6,7,15.6,15.6,15.6h46.3c8.6,0,15.6-7,15.6-15.6
					V-274C-1040.7-282.6-1047.7-289.6-1056.3-289.6z"/>
				<linearGradient id="SVGID_23_" gradientUnits="userSpaceOnUse" x1="-1115.5826" y1="-245.7402" x2="-1043.3596" y2="-245.7402">
					<stop  offset="0" style="stop-color:#BDA4CF;stop-opacity:0.9"/>
					<stop  offset="1" style="stop-color:#564B9A"/>
				</linearGradient>
				<path class="st28" d="M-1056.3-287h-46.3c-7.2,0-13,5.8-13,13v56.5c0,7.2,5.8,13,13,13h46.3c7.2,0,13-5.8,13-13V-274
					C-1043.4-281.2-1049.2-287-1056.3-287z"/>
				<linearGradient id="SVGID_24_" gradientUnits="userSpaceOnUse" x1="-1110.8518" y1="-245.7402" x2="-1048.0903" y2="-245.7402">
					<stop  offset="0" style="stop-color:#564B9A"/>
					<stop  offset="1" style="stop-color:#BDA4CF;stop-opacity:0.9"/>
				</linearGradient>
				<path class="st29" d="M-1056.3-282.3h-46.3c-4.5,0-8.3,3.7-8.3,8.3v56.5c0,4.5,3.7,8.3,8.3,8.3h46.3c4.5,0,8.3-3.7,8.3-8.3V-274
					C-1048.1-278.6-1051.8-282.3-1056.3-282.3z"/>
				<path class="st5" d="M-1056.3-212.4c2.8,0,5.1-2.3,5.1-5.1V-274c0-2.8-2.3-5.1-5.1-5.1h-46.3c-2.8,0-5.1,2.3-5.1,5.1v56.5
					c0,2.8,2.3,5.1,5.1,5.1H-1056.3z"/>
			</g>
			<g>
				<polygon class="st30" points="-1069.2,-250.1 -1072.2,-250.1 -1072.2,-247.2 -1075.1,-247.2 -1075.1,-244.3 -1072.2,-244.3 
					-1072.2,-241.4 -1069.2,-241.4 -1069.2,-244.3 -1066.3,-244.3 -1066.3,-247.2 -1069.2,-247.2 				"/>
				<polygon class="st30" points="-1056.1,-247.2 -1059,-247.2 -1059,-250.1 -1061.9,-250.1 -1061.9,-247.2 -1064.9,-247.2 
					-1064.9,-244.3 -1061.9,-244.3 -1061.9,-241.4 -1059,-241.4 -1059,-244.3 -1056.1,-244.3 				"/>
				<path class="st9" d="M-1073.6-240.6l9,4.9c-3.5,6.2-10.2,10.4-17.8,10.4c-11.3,0-20.4-9.2-20.4-20.5c0-11.3,9.2-20.4,20.4-20.4
					c7.5,0,14,4,17.6,10.1l-8.9,5.1c-1.8-2.9-5-4.9-8.7-4.9c-5.6,0-10.2,4.6-10.2,10.2c0,5.6,4.6,10.2,10.2,10.2
					C-1078.6-235.5-1075.4-237.5-1073.6-240.6z"/>
			</g>
		</g>
		<g>
			<g>
				<path class="st9" d="M-1152.2-289.6h-46.3c-8.6,0-15.6,7-15.6,15.6v56.5c0,8.6,7,15.6,15.6,15.6h46.3c8.6,0,15.6-7,15.6-15.6
					V-274C-1136.6-282.6-1143.6-289.6-1152.2-289.6z"/>
				<linearGradient id="SVGID_25_" gradientUnits="userSpaceOnUse" x1="-1211.4551" y1="-245.7402" x2="-1139.2321" y2="-245.7402">
					<stop  offset="0" style="stop-color:#B3DEE9;stop-opacity:0.9"/>
					<stop  offset="1" style="stop-color:#3490CF"/>
				</linearGradient>
				<path class="st31" d="M-1152.2-287h-46.3c-7.2,0-13,5.8-13,13v56.5c0,7.2,5.8,13,13,13h46.3c7.2,0,13-5.8,13-13V-274
					C-1139.2-281.2-1145.1-287-1152.2-287z"/>
				<linearGradient id="SVGID_26_" gradientUnits="userSpaceOnUse" x1="-1206.7242" y1="-245.7402" x2="-1143.9628" y2="-245.7402">
					<stop  offset="0" style="stop-color:#3490CF"/>
					<stop  offset="1" style="stop-color:#B3DEE9;stop-opacity:0.9"/>
				</linearGradient>
				<path class="st32" d="M-1152.2-282.3h-46.3c-4.5,0-8.3,3.7-8.3,8.3v56.5c0,4.5,3.7,8.3,8.3,8.3h46.3c4.5,0,8.3-3.7,8.3-8.3V-274
					C-1144-278.6-1147.7-282.3-1152.2-282.3z"/>
				<path class="st5" d="M-1152.2-212.4c2.8,0,5.1-2.3,5.1-5.1V-274c0-2.8-2.3-5.1-5.1-5.1h-46.3c-2.8,0-5.1,2.3-5.1,5.1v56.5
					c0,2.8,2.3,5.1,5.1,5.1H-1152.2z"/>
			</g>
			<path class="st30" d="M-1191.3-240h7.8l0.2,4.9l8,2.7l8-2.7l0.6-8.8h-17.3l-0.4-7.8h18.1l0.6-7.8h-27.1l-0.6-7.8h35.9l-1,15.7
				l-1.4,22.6l-15.5,5.1l-15.5-5.1L-1191.3-240z"/>
		</g>
		<g>
			<g>
				<path class="st9" d="M-1056.3-180.5h-46.3c-8.6,0-15.6,7-15.6,15.6v56.5c0,8.6,7,15.6,15.6,15.6h46.3c8.6,0,15.6-7,15.6-15.6
					v-56.5C-1040.7-173.5-1047.7-180.5-1056.3-180.5z"/>
				<linearGradient id="SVGID_27_" gradientUnits="userSpaceOnUse" x1="-1115.5826" y1="-136.6456" x2="-1043.3596" y2="-136.6456">
					<stop  offset="0" style="stop-color:#7DAFDF;stop-opacity:0.9"/>
					<stop  offset="1" style="stop-color:#264798"/>
				</linearGradient>
				<path class="st33" d="M-1056.3-177.9h-46.3c-7.2,0-13,5.8-13,13v56.5c0,7.2,5.8,13,13,13h46.3c7.2,0,13-5.8,13-13v-56.5
					C-1043.4-172.1-1049.2-177.9-1056.3-177.9z"/>
				<linearGradient id="SVGID_28_" gradientUnits="userSpaceOnUse" x1="-1110.8518" y1="-136.6456" x2="-1048.0903" y2="-136.6456">
					<stop  offset="0" style="stop-color:#264798"/>
					<stop  offset="1" style="stop-color:#7DAFDF;stop-opacity:0.9"/>
				</linearGradient>
				<path class="st34" d="M-1056.3-173.2h-46.3c-4.5,0-8.3,3.7-8.3,8.3v56.5c0,4.5,3.7,8.3,8.3,8.3h46.3c4.5,0,8.3-3.7,8.3-8.3
					v-56.5C-1048.1-169.5-1051.8-173.2-1056.3-173.2z"/>
				<path class="st5" d="M-1056.3-103.3c2.8,0,5.1-2.3,5.1-5.1v-56.5c0-2.8-2.3-5.1-5.1-5.1h-46.3c-2.8,0-5.1,2.3-5.1,5.1v56.5
					c0,2.8,2.3,5.1,5.1,5.1H-1056.3z"/>
			</g>
			<g>
				<path class="st9" d="M-1078.9-158.8c-1.8,0-3.1,0.2-4.6,0.4c-4.5,0.8-5.3,2.4-5.3,5.4v4.6h10.5v2.3h-10.9h-5.1
					c-3.1,0-5.8,1.4-6.6,4.9c-1,4-1,6.5,0,10.6c0.8,3.1,2.4,5.4,5.5,5.4h4.2v-5.9c0-3.5,3.1-6.9,6.7-6.9h8.4c2.9,0,5.8-2.2,5.8-5.1
					v-10c0-2.8-2-5-4.9-5.4C-1075-158.3-1077.1-158.8-1078.9-158.8z M-1084.7-154.1c1,0,1.7,0.8,1.7,1.7c0,1-0.8,1.7-1.7,1.7
					c-1,0-1.7-0.8-1.7-1.7C-1086.5-153.3-1085.7-154.1-1084.7-154.1z"/>
				<path class="st9" d="M-1080-114.5c1.8,0,3.1-0.2,4.6-0.4c4.5-0.8,5.3-2.4,5.3-5.4v-4.6h-10.5v-2.3h10.9h5.1
					c3.1,0,5.8-1.4,6.6-4.9c1-4,1-6.5,0-10.6c-0.8-3.1-2.4-5.4-5.5-5.4h-4.2v5.9c0,3.5-3.1,6.9-6.7,6.9h-8.4c-2.9,0-5.8,2.2-5.8,5.1
					v10c0,2.8,2,5,4.9,5.4C-1083.9-115-1081.8-114.5-1080-114.5z M-1074.2-119.2c-1,0-1.7-0.8-1.7-1.7c0-1,0.8-1.7,1.7-1.7
					c1,0,1.7,0.8,1.7,1.7C-1072.5-120-1073.3-119.2-1074.2-119.2z"/>
			</g>
		</g>
		<g>
			<g>
				<path class="st9" d="M-1152.2-180.5h-46.3c-8.6,0-15.6,7-15.6,15.6v56.5c0,8.6,7,15.6,15.6,15.6h46.3c8.6,0,15.6-7,15.6-15.6
					v-56.5C-1136.6-173.5-1143.6-180.5-1152.2-180.5z"/>
				<linearGradient id="SVGID_29_" gradientUnits="userSpaceOnUse" x1="-1211.4551" y1="-136.6456" x2="-1139.2321" y2="-136.6456">
					<stop  offset="0" style="stop-color:#E62C2C;stop-opacity:0.9"/>
					<stop  offset="1" style="stop-color:#7B170F"/>
				</linearGradient>
				<path class="st35" d="M-1152.2-177.9h-46.3c-7.2,0-13,5.8-13,13v56.5c0,7.2,5.8,13,13,13h46.3c7.2,0,13-5.8,13-13v-56.5
					C-1139.2-172.1-1145.1-177.9-1152.2-177.9z"/>
				<linearGradient id="SVGID_30_" gradientUnits="userSpaceOnUse" x1="-1206.7242" y1="-136.6456" x2="-1143.9628" y2="-136.6456">
					<stop  offset="0" style="stop-color:#7B170F"/>
					<stop  offset="1" style="stop-color:#E62C2C;stop-opacity:0.9"/>
				</linearGradient>
				<path class="st36" d="M-1152.2-173.2h-46.3c-4.5,0-8.3,3.7-8.3,8.3v56.5c0,4.5,3.7,8.3,8.3,8.3h46.3c4.5,0,8.3-3.7,8.3-8.3
					v-56.5C-1144-169.5-1147.7-173.2-1152.2-173.2z"/>
				<path class="st5" d="M-1152.2-103.3c2.8,0,5.1-2.3,5.1-5.1v-56.5c0-2.8-2.3-5.1-5.1-5.1h-46.3c-2.8,0-5.1,2.3-5.1,5.1v56.5
					c0,2.8,2.3,5.1,5.1,5.1H-1152.2z"/>
			</g>
			<g>
				<path class="st9" d="M-1175.8-135.5c-1.3-2.1-2.2-3.8-3.5-7c-2.2-5.4,13.2-10.3,7-19.8c2.7,6.5-9.7,10.5-10.9,16
					C-1184.2-141.3-1175.8-135.5-1175.8-135.5z"/>
				<path class="st9" d="M-1175.5-145.3c-0.2,3.2,2.9,4.9,2.9,7.3c0.1,1.9-1.9,3.5-1.9,3.5s3.5-0.7,4.6-3.6c1.2-3.2-2.3-5.5-2-8.1
					c0.3-2.5,7.7-7.1,7.7-7.1S-1174.9-152.5-1175.5-145.3z"/>
				<g>
					<path class="st9" d="M-1165-135.3c2.2-0.5,4.1,0.9,4.1,2.6c0,3.7-5.1,7.2-5.1,7.2s8-1,8-7.1
						C-1158-136.6-1161.9-137.6-1165-135.3z M-1168.8-132.3c0,0,2.5-1.8,3.1-2.4c-6.1,1.3-20,1.5-20,0.3c0-1,4.5-2.1,4.5-2.1
						s-10-0.1-10,2.8C-1191.1-130.6-1178.1-130.4-1168.8-132.3z"/>
					<path class="st9" d="M-1170.3-129.5c-5.8,1.9-16.4,1.3-13.3-1.3c-1.5,0-3.8,1.2-3.8,2.4c0,2.4,11.5,4.2,20,0.7L-1170.3-129.5z"
						/>
					<path class="st9" d="M-1182.1-125.5c-2.1,0-3.5,1.3-3.5,2.3c0,3.1,12.5,3.4,17.5,0.3l-3.1-2.1
						C-1175-123.3-1184.3-123.1-1182.1-125.5z"/>
					<path class="st9" d="M-1159.6-120.5c0-1.2-1.4-1.8-1.8-2c2.9,6.9-28.6,6.3-28.6,2.3c0-0.9,2.3-1.8,4.5-1.4l-1.8-1.1
						c-4.3-0.7-7.2,1.2-7.2,2.7C-1194.6-112.9-1159.6-113.3-1159.6-120.5z"/>
					<path class="st9" d="M-1156.1-117.9c-5.3,5.2-18.8,7.2-32.3,3.9C-1174.9-108.3-1156.2-111.5-1156.1-117.9z"/>
				</g>
			</g>
		</g>
	</g>
</g>
<g id="Card_Conteudo" class="st0">
	<g class="st1">
		<g>
			<g>
				<path class="st9" d="M-1044.7-61.4h-165c-8.2,0-14.8,6.7-14.8,14.8V7.2c0,8.2,6.7,14.8,14.8,14.8h165c8.2,0,14.8-6.7,14.8-14.8
					v-53.8C-1029.9-54.8-1036.5-61.4-1044.7-61.4z"/>
				<linearGradient id="SVGID_31_" gradientUnits="userSpaceOnUse" x1="-1222.075" y1="-19.689" x2="-1032.3752" y2="-19.689">
					<stop  offset="0" style="stop-color:#222222"/>
					<stop  offset="1" style="stop-color:#0D0E0E"/>
				</linearGradient>
				<path class="st37" d="M-1044.7-58.9h-165c-6.8,0-12.3,5.5-12.3,12.3V7.2c0,6.8,5.5,12.3,12.3,12.3h165c6.8,0,12.3-5.5,12.3-12.3
					v-53.8C-1032.4-53.4-1037.9-58.9-1044.7-58.9z"/>
				<linearGradient id="SVGID_32_" gradientUnits="userSpaceOnUse" x1="-1217.575" y1="-19.689" x2="-1036.8752" y2="-19.689">
					<stop  offset="0" style="stop-color:#0D0E0E"/>
					<stop  offset="1" style="stop-color:#222222"/>
				</linearGradient>
				<path class="st38" d="M-1044.7-54.4h-165c-4.3,0-7.8,3.5-7.8,7.8V7.2c0,4.3,3.5,7.8,7.8,7.8h165c4.3,0,7.8-3.5,7.8-7.8v-53.8
					C-1036.9-50.9-1040.4-54.4-1044.7-54.4z"/>
				<path class="st5" d="M-1044.7,12.1c2.7,0,4.8-2.2,4.8-4.8v-53.8c0-2.7-2.2-4.8-4.8-4.8h-165c-2.7,0-4.8,2.2-4.8,4.8V7.2
					c0,2.7,2.2,4.8,4.8,4.8H-1044.7z"/>
			</g>
			<g>
				<path class="st9" d="M-1166.1-61.8h-44c-8.2,0-14.8,6.7-14.8,14.8V6.8c0,8.2,6.7,14.8,14.8,14.8h44c8.2,0,14.8-6.7,14.8-14.8
					V-47C-1151.2-55.1-1157.9-61.8-1166.1-61.8z"/>
				<linearGradient id="SVGID_33_" gradientUnits="userSpaceOnUse" x1="-1222.4393" y1="-20.0602" x2="-1153.7396" y2="-20.0602">
					<stop  offset="0" style="stop-color:#F9B654"/>
					<stop  offset="1" style="stop-color:#EF7C2C"/>
				</linearGradient>
				<path class="st39" d="M-1166.1-59.3h-44c-6.8,0-12.3,5.5-12.3,12.3V6.8c0,6.8,5.5,12.3,12.3,12.3h44c6.8,0,12.3-5.5,12.3-12.3
					V-47C-1153.7-53.8-1159.3-59.3-1166.1-59.3z"/>
				<linearGradient id="SVGID_34_" gradientUnits="userSpaceOnUse" x1="-1217.9393" y1="-20.0602" x2="-1158.2396" y2="-20.0602">
					<stop  offset="0" style="stop-color:#EF7C2C"/>
					<stop  offset="1" style="stop-color:#F9B654"/>
				</linearGradient>
				<path class="st40" d="M-1166.1-54.8h-44c-4.3,0-7.8,3.5-7.8,7.8V6.8c0,4.3,3.5,7.8,7.8,7.8h44c4.3,0,7.8-3.5,7.8-7.8V-47
					C-1158.2-51.3-1161.8-54.8-1166.1-54.8z"/>
				<polygon class="st9" points="-1173,-31.9 -1172.4,-38.7 -1188.2,-38.9 -1203.8,-39.1 -1202.8,-18.5 -1188.4,-18.3 
					-1180.9,-18.2 -1181.5,-10.5 -1188.6,-8.2 -1195.6,-10.7 -1195.9,-15 -1202.7,-15.1 -1202.2,-5.6 -1188.7,-1 -1175,-5.3 
					-1173.6,-25 -1188.3,-25.2 -1196.2,-25.3 -1196.7,-32.2 -1188.3,-32.1 				"/>
				<path class="st5" d="M-1166.1,11.7c2.7,0,4.8-2.2,4.8-4.8V-47c0-2.7-2.2-4.8-4.8-4.8h-44c-2.7,0-4.8,2.2-4.8,4.8V6.8
					c0,2.7,2.2,4.8,4.8,4.8H-1166.1z"/>
			</g>
			<rect x="-1146.8" y="-23.2" style="fill:none;" width="102.9" height="31.7"/>
			<text transform="matrix(1 0 0 1 -1146.8 -19.0268)"><tspan x="0" y="0" class="st9" style="font-family:'Roboto-Regular'; font-size:5.5115px;">Lorem</tspan><tspan x="15.8" y="0" class="st9" style="font-family:'Roboto-Regular'; font-size:5.5115px;"> </tspan><tspan x="17.7" y="0" class="st9" style="font-family:'Roboto-Regular'; font-size:5.5115px;">ipsum</tspan><tspan x="33.1" y="0" class="st9" style="font-family:'Roboto-Regular'; font-size:5.5115px;"> </tspan><tspan x="35" y="0" class="st9" style="font-family:'Roboto-Regular'; font-size:5.5115px;">dolor</tspan><tspan x="47.8" y="0" class="st9" style="font-family:'Roboto-Regular'; font-size:5.5115px;"> </tspan><tspan x="49.7" y="0" class="st9" style="font-family:'Roboto-Regular'; font-size:5.5115px;">sit</tspan><tspan x="55.8" y="0" class="st9" style="font-family:'Roboto-Regular'; font-size:5.5115px;"> </tspan><tspan x="57.8" y="0" class="st9" style="font-family:'Roboto-Regular'; font-size:5.5115px;">amet,</tspan><tspan x="71.5" y="0" class="st9" style="font-family:'Roboto-Regular'; font-size:5.5115px;"> </tspan><tspan x="73.4" y="0" class="st9" style="font-family:'Roboto-Regular'; font-size:5.5115px;">consectetur </tspan><tspan x="0" y="6.6" class="st9" style="font-family:'Roboto-Regular'; font-size:5.5115px;">adipiscing</tspan><tspan x="25.5" y="6.6" class="st9" style="font-family:'Roboto-Regular'; font-size:5.5115px; letter-spacing:1;"> </tspan><tspan x="28.4" y="6.6" class="st9" style="font-family:'Roboto-Regular'; font-size:5.5115px;">elit,</tspan><tspan x="37" y="6.6" class="st9" style="font-family:'Roboto-Regular'; font-size:5.5115px; letter-spacing:1;"> </tspan><tspan x="39.9" y="6.6" class="st9" style="font-family:'Roboto-Regular'; font-size:5.5115px;">sed</tspan><tspan x="48.8" y="6.6" class="st9" style="font-family:'Roboto-Regular'; font-size:5.5115px; letter-spacing:1;"> </tspan><tspan x="51.7" y="6.6" class="st9" style="font-family:'Roboto-Regular'; font-size:5.5115px;">do</tspan><tspan x="58" y="6.6" class="st9" style="font-family:'Roboto-Regular'; font-size:5.5115px; letter-spacing:1;"> </tspan><tspan x="60.9" y="6.6" class="st9" style="font-family:'Roboto-Regular'; font-size:5.5115px;">eiusmod</tspan><tspan x="82.2" y="6.6" class="st9" style="font-family:'Roboto-Regular'; font-size:5.5115px; letter-spacing:1;"> </tspan><tspan x="85.1" y="6.6" class="st9" style="font-family:'Roboto-Regular'; font-size:5.5115px;">tempor </tspan><tspan x="0" y="13.2" class="st9" style="font-family:'Roboto-Regular'; font-size:5.5115px;">incididunt</tspan><tspan x="24.6" y="13.2" class="st9" style="font-family:'Roboto-Regular'; font-size:5.5115px; letter-spacing:2;"> </tspan><tspan x="28.6" y="13.2" class="st9" style="font-family:'Roboto-Regular'; font-size:5.5115px;">ut</tspan><tspan x="33.6" y="13.2" class="st9" style="font-family:'Roboto-Regular'; font-size:5.5115px; letter-spacing:2;"> </tspan><tspan x="37.7" y="13.2" class="st9" style="font-family:'Roboto-Regular'; font-size:5.5115px;">labore</tspan><tspan x="53.2" y="13.2" class="st9" style="font-family:'Roboto-Regular'; font-size:5.5115px; letter-spacing:2;"> </tspan><tspan x="57.3" y="13.2" class="st9" style="font-family:'Roboto-Regular'; font-size:5.5115px;">et</tspan><tspan x="62" y="13.2" class="st9" style="font-family:'Roboto-Regular'; font-size:5.5115px; letter-spacing:2;"> </tspan><tspan x="66.1" y="13.2" class="st9" style="font-family:'Roboto-Regular'; font-size:5.5115px;">dolore</tspan><tspan x="81.7" y="13.2" class="st9" style="font-family:'Roboto-Regular'; font-size:5.5115px; letter-spacing:2;"> </tspan><tspan x="85.7" y="13.2" class="st9" style="font-family:'Roboto-Regular'; font-size:5.5115px;">magna </tspan><tspan x="0" y="19.8" class="st9" style="font-family:'Roboto-Regular'; font-size:5.5115px;">aliqua.</tspan><tspan x="16.6" y="19.8" class="st9" style="font-family:'Roboto-Regular'; font-size:5.5115px; letter-spacing:1;"> </tspan><tspan x="19.4" y="19.8" class="st9" style="font-family:'Roboto-Regular'; font-size:5.5115px;">Ut</tspan><tspan x="25" y="19.8" class="st9" style="font-family:'Roboto-Regular'; font-size:5.5115px; letter-spacing:1;"> </tspan><tspan x="27.9" y="19.8" class="st9" style="font-family:'Roboto-Regular'; font-size:5.5115px;">enim</tspan><tspan x="40.1" y="19.8" class="st9" style="font-family:'Roboto-Regular'; font-size:5.5115px; letter-spacing:1;"> </tspan><tspan x="43" y="19.8" class="st9" style="font-family:'Roboto-Regular'; font-size:5.5115px;">ad</tspan><tspan x="49.1" y="19.8" class="st9" style="font-family:'Roboto-Regular'; font-size:5.5115px; letter-spacing:1;"> </tspan><tspan x="52" y="19.8" class="st9" style="font-family:'Roboto-Regular'; font-size:5.5115px;">minim</tspan><tspan x="67.5" y="19.8" class="st9" style="font-family:'Roboto-Regular'; font-size:5.5115px; letter-spacing:1;"> </tspan><tspan x="70.4" y="19.8" class="st9" style="font-family:'Roboto-Regular'; font-size:5.5115px;">veniam,</tspan><tspan x="89.5" y="19.8" class="st9" style="font-family:'Roboto-Regular'; font-size:5.5115px; letter-spacing:1;"> </tspan><tspan x="92.3" y="19.8" class="st9" style="font-family:'Roboto-Regular'; font-size:5.5115px;">quis </tspan><tspan x="0" y="26.5" class="st9" style="font-family:'Roboto-Regular'; font-size:5.5115px;">nostrud</tspan><tspan x="19.2" y="26.5" class="st9" style="font-family:'Roboto-Regular'; font-size:5.5115px;"> </tspan><tspan x="21.5" y="26.5" class="st9" style="font-family:'Roboto-Regular'; font-size:5.5115px;">exercitation</tspan><tspan x="50.6" y="26.5" class="st9" style="font-family:'Roboto-Regular'; font-size:5.5115px;"> </tspan><tspan x="52.9" y="26.5" class="st9" style="font-family:'Roboto-Regular'; font-size:5.5115px;">ullamco</tspan><tspan x="72.7" y="26.5" class="st9" style="font-family:'Roboto-Regular'; font-size:5.5115px;"> </tspan><tspan x="74.9" y="26.5" class="st9" style="font-family:'Roboto-Regular'; font-size:5.5115px;">laboris</tspan><tspan x="91.8" y="26.5" class="st9" style="font-family:'Roboto-Regular'; font-size:5.5115px;"> </tspan><tspan x="94.1" y="26.5" class="st9" style="font-family:'Roboto-Regular'; font-size:5.5115px;">nisi </tspan></text>
			<rect x="-1146.8" y="-48.3" style="fill:none;" width="102.9" height="21.2"/>
			<text transform="matrix(1 0 0 1 -1146.8 -41.5898)"><tspan x="0" y="0" class="st9" style="font-family:'Roboto-Bold'; font-size:8.8184px;">Lorem ipsum dolor sit </tspan><tspan x="0" y="10.6" class="st9" style="font-family:'Roboto-Bold'; font-size:8.8184px;">amet, consectetur </tspan></text>
		</g>
		<g>
			<g>
				<path class="st9" d="M-1044.9,43.1h-165c-8.2,0-14.8,6.7-14.8,14.8v53.8c0,8.2,6.7,14.8,14.8,14.8h165c8.2,0,14.8-6.7,14.8-14.8
					V58C-1030.1,49.8-1036.7,43.1-1044.9,43.1z"/>
				<linearGradient id="SVGID_35_" gradientUnits="userSpaceOnUse" x1="-1222.2572" y1="84.891" x2="-1032.5575" y2="84.891">
					<stop  offset="0" style="stop-color:#222222"/>
					<stop  offset="1" style="stop-color:#0D0E0E"/>
				</linearGradient>
				<path class="st41" d="M-1044.9,45.6h-165c-6.8,0-12.3,5.5-12.3,12.3v53.8c0,6.8,5.5,12.3,12.3,12.3h165
					c6.8,0,12.3-5.5,12.3-12.3V58C-1032.6,51.2-1038.1,45.6-1044.9,45.6z"/>
				<linearGradient id="SVGID_36_" gradientUnits="userSpaceOnUse" x1="-1217.7572" y1="84.891" x2="-1037.0575" y2="84.891">
					<stop  offset="0" style="stop-color:#0D0E0E"/>
					<stop  offset="1" style="stop-color:#222222"/>
				</linearGradient>
				<path class="st42" d="M-1044.9,50.1h-165c-4.3,0-7.8,3.5-7.8,7.8v53.8c0,4.3,3.5,7.8,7.8,7.8h165c4.3,0,7.8-3.5,7.8-7.8V58
					C-1037.1,53.7-1040.6,50.1-1044.9,50.1z"/>
				<path class="st5" d="M-1044.9,116.6c2.7,0,4.8-2.2,4.8-4.8V58c0-2.7-2.2-4.8-4.8-4.8h-165c-2.7,0-4.8,2.2-4.8,4.8v53.8
					c0,2.7,2.2,4.8,4.8,4.8H-1044.9z"/>
			</g>
			<rect x="-1147" y="81.4" style="fill:none;" width="102.9" height="31.7"/>
			<text transform="matrix(1 0 0 1 -1146.9823 85.5532)"><tspan x="0" y="0" class="st9" style="font-family:'Roboto-Regular'; font-size:5.5115px;">Lorem</tspan><tspan x="15.8" y="0" class="st9" style="font-family:'Roboto-Regular'; font-size:5.5115px;"> </tspan><tspan x="17.7" y="0" class="st9" style="font-family:'Roboto-Regular'; font-size:5.5115px;">ipsum</tspan><tspan x="33.1" y="0" class="st9" style="font-family:'Roboto-Regular'; font-size:5.5115px;"> </tspan><tspan x="35" y="0" class="st9" style="font-family:'Roboto-Regular'; font-size:5.5115px;">dolor</tspan><tspan x="47.8" y="0" class="st9" style="font-family:'Roboto-Regular'; font-size:5.5115px;"> </tspan><tspan x="49.7" y="0" class="st9" style="font-family:'Roboto-Regular'; font-size:5.5115px;">sit</tspan><tspan x="55.8" y="0" class="st9" style="font-family:'Roboto-Regular'; font-size:5.5115px;"> </tspan><tspan x="57.8" y="0" class="st9" style="font-family:'Roboto-Regular'; font-size:5.5115px;">amet,</tspan><tspan x="71.5" y="0" class="st9" style="font-family:'Roboto-Regular'; font-size:5.5115px;"> </tspan><tspan x="73.4" y="0" class="st9" style="font-family:'Roboto-Regular'; font-size:5.5115px;">consectetur </tspan><tspan x="0" y="6.6" class="st9" style="font-family:'Roboto-Regular'; font-size:5.5115px;">adipiscing</tspan><tspan x="25.5" y="6.6" class="st9" style="font-family:'Roboto-Regular'; font-size:5.5115px; letter-spacing:1;"> </tspan><tspan x="28.4" y="6.6" class="st9" style="font-family:'Roboto-Regular'; font-size:5.5115px;">elit,</tspan><tspan x="37" y="6.6" class="st9" style="font-family:'Roboto-Regular'; font-size:5.5115px; letter-spacing:1;"> </tspan><tspan x="39.9" y="6.6" class="st9" style="font-family:'Roboto-Regular'; font-size:5.5115px;">sed</tspan><tspan x="48.8" y="6.6" class="st9" style="font-family:'Roboto-Regular'; font-size:5.5115px; letter-spacing:1;"> </tspan><tspan x="51.7" y="6.6" class="st9" style="font-family:'Roboto-Regular'; font-size:5.5115px;">do</tspan><tspan x="58" y="6.6" class="st9" style="font-family:'Roboto-Regular'; font-size:5.5115px; letter-spacing:1;"> </tspan><tspan x="60.9" y="6.6" class="st9" style="font-family:'Roboto-Regular'; font-size:5.5115px;">eiusmod</tspan><tspan x="82.2" y="6.6" class="st9" style="font-family:'Roboto-Regular'; font-size:5.5115px; letter-spacing:1;"> </tspan><tspan x="85.1" y="6.6" class="st9" style="font-family:'Roboto-Regular'; font-size:5.5115px;">tempor </tspan><tspan x="0" y="13.2" class="st9" style="font-family:'Roboto-Regular'; font-size:5.5115px;">incididunt</tspan><tspan x="24.6" y="13.2" class="st9" style="font-family:'Roboto-Regular'; font-size:5.5115px; letter-spacing:2;"> </tspan><tspan x="28.6" y="13.2" class="st9" style="font-family:'Roboto-Regular'; font-size:5.5115px;">ut</tspan><tspan x="33.6" y="13.2" class="st9" style="font-family:'Roboto-Regular'; font-size:5.5115px; letter-spacing:2;"> </tspan><tspan x="37.7" y="13.2" class="st9" style="font-family:'Roboto-Regular'; font-size:5.5115px;">labore</tspan><tspan x="53.2" y="13.2" class="st9" style="font-family:'Roboto-Regular'; font-size:5.5115px; letter-spacing:2;"> </tspan><tspan x="57.3" y="13.2" class="st9" style="font-family:'Roboto-Regular'; font-size:5.5115px;">et</tspan><tspan x="62" y="13.2" class="st9" style="font-family:'Roboto-Regular'; font-size:5.5115px; letter-spacing:2;"> </tspan><tspan x="66.1" y="13.2" class="st9" style="font-family:'Roboto-Regular'; font-size:5.5115px;">dolore</tspan><tspan x="81.7" y="13.2" class="st9" style="font-family:'Roboto-Regular'; font-size:5.5115px; letter-spacing:2;"> </tspan><tspan x="85.7" y="13.2" class="st9" style="font-family:'Roboto-Regular'; font-size:5.5115px;">magna </tspan><tspan x="0" y="19.8" class="st9" style="font-family:'Roboto-Regular'; font-size:5.5115px;">aliqua.</tspan><tspan x="16.6" y="19.8" class="st9" style="font-family:'Roboto-Regular'; font-size:5.5115px; letter-spacing:1;"> </tspan><tspan x="19.4" y="19.8" class="st9" style="font-family:'Roboto-Regular'; font-size:5.5115px;">Ut</tspan><tspan x="25" y="19.8" class="st9" style="font-family:'Roboto-Regular'; font-size:5.5115px; letter-spacing:1;"> </tspan><tspan x="27.9" y="19.8" class="st9" style="font-family:'Roboto-Regular'; font-size:5.5115px;">enim</tspan><tspan x="40.1" y="19.8" class="st9" style="font-family:'Roboto-Regular'; font-size:5.5115px; letter-spacing:1;"> </tspan><tspan x="43" y="19.8" class="st9" style="font-family:'Roboto-Regular'; font-size:5.5115px;">ad</tspan><tspan x="49.1" y="19.8" class="st9" style="font-family:'Roboto-Regular'; font-size:5.5115px; letter-spacing:1;"> </tspan><tspan x="52" y="19.8" class="st9" style="font-family:'Roboto-Regular'; font-size:5.5115px;">minim</tspan><tspan x="67.5" y="19.8" class="st9" style="font-family:'Roboto-Regular'; font-size:5.5115px; letter-spacing:1;"> </tspan><tspan x="70.4" y="19.8" class="st9" style="font-family:'Roboto-Regular'; font-size:5.5115px;">veniam,</tspan><tspan x="89.5" y="19.8" class="st9" style="font-family:'Roboto-Regular'; font-size:5.5115px; letter-spacing:1;"> </tspan><tspan x="92.3" y="19.8" class="st9" style="font-family:'Roboto-Regular'; font-size:5.5115px;">quis </tspan><tspan x="0" y="26.5" class="st9" style="font-family:'Roboto-Regular'; font-size:5.5115px;">nostrud</tspan><tspan x="19.2" y="26.5" class="st9" style="font-family:'Roboto-Regular'; font-size:5.5115px;"> </tspan><tspan x="21.5" y="26.5" class="st9" style="font-family:'Roboto-Regular'; font-size:5.5115px;">exercitation</tspan><tspan x="50.6" y="26.5" class="st9" style="font-family:'Roboto-Regular'; font-size:5.5115px;"> </tspan><tspan x="52.9" y="26.5" class="st9" style="font-family:'Roboto-Regular'; font-size:5.5115px;">ullamco</tspan><tspan x="72.7" y="26.5" class="st9" style="font-family:'Roboto-Regular'; font-size:5.5115px;"> </tspan><tspan x="74.9" y="26.5" class="st9" style="font-family:'Roboto-Regular'; font-size:5.5115px;">laboris</tspan><tspan x="91.8" y="26.5" class="st9" style="font-family:'Roboto-Regular'; font-size:5.5115px;"> </tspan><tspan x="94.1" y="26.5" class="st9" style="font-family:'Roboto-Regular'; font-size:5.5115px;">nisi </tspan></text>
			<rect x="-1147" y="56.3" style="fill:none;" width="102.9" height="21.2"/>
			<text transform="matrix(1 0 0 1 -1146.9823 62.9902)"><tspan x="0" y="0" class="st9" style="font-family:'Roboto-Bold'; font-size:8.8184px;">Lorem ipsum dolor sit </tspan><tspan x="0" y="10.6" class="st9" style="font-family:'Roboto-Bold'; font-size:8.8184px;">amet, consectetur </tspan></text>
			<g>
				<g>
					<path class="st9" d="M-1165.8,43.1h-44c-8.2,0-14.8,6.7-14.8,14.8v53.8c0,8.2,6.7,14.8,14.8,14.8h44c8.2,0,14.8-6.7,14.8-14.8
						V58C-1151,49.8-1157.6,43.1-1165.8,43.1z"/>
					<linearGradient id="SVGID_37_" gradientUnits="userSpaceOnUse" x1="-1222.1877" y1="84.891" x2="-1153.488" y2="84.891">
						<stop  offset="0" style="stop-color:#B3DEE9;stop-opacity:0.9"/>
						<stop  offset="1" style="stop-color:#3490CF"/>
					</linearGradient>
					<path class="st43" d="M-1165.8,45.6h-44c-6.8,0-12.3,5.5-12.3,12.3v53.8c0,6.8,5.5,12.3,12.3,12.3h44c6.8,0,12.3-5.5,12.3-12.3
						V58C-1153.5,51.2-1159,45.6-1165.8,45.6z"/>
					<linearGradient id="SVGID_38_" gradientUnits="userSpaceOnUse" x1="-1217.6877" y1="84.891" x2="-1157.988" y2="84.891">
						<stop  offset="0" style="stop-color:#3490CF"/>
						<stop  offset="1" style="stop-color:#B3DEE9;stop-opacity:0.9"/>
					</linearGradient>
					<path class="st44" d="M-1165.8,50.1h-44c-4.3,0-7.8,3.5-7.8,7.8v53.8c0,4.3,3.5,7.8,7.8,7.8h44c4.3,0,7.8-3.5,7.8-7.8V58
						C-1158,53.7-1161.5,50.1-1165.8,50.1z"/>
					<path class="st5" d="M-1165.8,116.6c2.7,0,4.8-2.2,4.8-4.8V58c0-2.7-2.2-4.8-4.8-4.8h-44c-2.7,0-4.8,2.2-4.8,4.8v53.8
						c0,2.7,2.2,4.8,4.8,4.8H-1165.8z"/>
				</g>
				<path class="st30" d="M-1203,90.4h7.5l0.2,4.7l7.7,2.6l7.7-2.6l0.6-8.4h-16.4l-0.4-7.5h17.2l0.6-7.5h-25.7l-0.6-7.5h34.1
					l-0.9,14.9l-1.3,21.5l-14.7,4.9l-14.7-4.9L-1203,90.4z"/>
			</g>
		</g>
		<g>
			<g>
				<path class="st9" d="M-1044.9,147.9h-165c-8.2,0-14.8,6.7-14.8,14.8v53.8c0,8.2,6.7,14.8,14.8,14.8h165
					c8.2,0,14.8-6.7,14.8-14.8v-53.8C-1030.1,154.6-1036.7,147.9-1044.9,147.9z"/>
				<linearGradient id="SVGID_39_" gradientUnits="userSpaceOnUse" x1="-1222.2572" y1="189.6567" x2="-1032.5575" y2="189.6567">
					<stop  offset="0" style="stop-color:#222222"/>
					<stop  offset="1" style="stop-color:#0D0E0E"/>
				</linearGradient>
				<path class="st45" d="M-1044.9,150.4h-165c-6.8,0-12.3,5.5-12.3,12.3v53.8c0,6.8,5.5,12.3,12.3,12.3h165
					c6.8,0,12.3-5.5,12.3-12.3v-53.8C-1032.6,156-1038.1,150.4-1044.9,150.4z"/>
				<linearGradient id="SVGID_40_" gradientUnits="userSpaceOnUse" x1="-1217.7572" y1="189.6567" x2="-1037.0575" y2="189.6567">
					<stop  offset="0" style="stop-color:#0D0E0E"/>
					<stop  offset="1" style="stop-color:#222222"/>
				</linearGradient>
				<path class="st46" d="M-1044.9,154.9h-165c-4.3,0-7.8,3.5-7.8,7.8v53.8c0,4.3,3.5,7.8,7.8,7.8h165c4.3,0,7.8-3.5,7.8-7.8v-53.8
					C-1037.1,158.4-1040.6,154.9-1044.9,154.9z"/>
				<path class="st5" d="M-1044.9,221.4c2.7,0,4.8-2.2,4.8-4.8v-53.8c0-2.7-2.2-4.8-4.8-4.8h-165c-2.7,0-4.8,2.2-4.8,4.8v53.8
					c0,2.7,2.2,4.8,4.8,4.8H-1044.9z"/>
			</g>
			<rect x="-1147" y="186.1" style="fill:none;" width="102.9" height="31.7"/>
			<text transform="matrix(1 0 0 1 -1146.9823 190.3189)"><tspan x="0" y="0" class="st9" style="font-family:'Roboto-Regular'; font-size:5.5115px;">Lorem</tspan><tspan x="15.8" y="0" class="st9" style="font-family:'Roboto-Regular'; font-size:5.5115px;"> </tspan><tspan x="17.7" y="0" class="st9" style="font-family:'Roboto-Regular'; font-size:5.5115px;">ipsum</tspan><tspan x="33.1" y="0" class="st9" style="font-family:'Roboto-Regular'; font-size:5.5115px;"> </tspan><tspan x="35" y="0" class="st9" style="font-family:'Roboto-Regular'; font-size:5.5115px;">dolor</tspan><tspan x="47.8" y="0" class="st9" style="font-family:'Roboto-Regular'; font-size:5.5115px;"> </tspan><tspan x="49.7" y="0" class="st9" style="font-family:'Roboto-Regular'; font-size:5.5115px;">sit</tspan><tspan x="55.8" y="0" class="st9" style="font-family:'Roboto-Regular'; font-size:5.5115px;"> </tspan><tspan x="57.8" y="0" class="st9" style="font-family:'Roboto-Regular'; font-size:5.5115px;">amet,</tspan><tspan x="71.5" y="0" class="st9" style="font-family:'Roboto-Regular'; font-size:5.5115px;"> </tspan><tspan x="73.4" y="0" class="st9" style="font-family:'Roboto-Regular'; font-size:5.5115px;">consectetur </tspan><tspan x="0" y="6.6" class="st9" style="font-family:'Roboto-Regular'; font-size:5.5115px;">adipiscing</tspan><tspan x="25.5" y="6.6" class="st9" style="font-family:'Roboto-Regular'; font-size:5.5115px; letter-spacing:1;"> </tspan><tspan x="28.4" y="6.6" class="st9" style="font-family:'Roboto-Regular'; font-size:5.5115px;">elit,</tspan><tspan x="37" y="6.6" class="st9" style="font-family:'Roboto-Regular'; font-size:5.5115px; letter-spacing:1;"> </tspan><tspan x="39.9" y="6.6" class="st9" style="font-family:'Roboto-Regular'; font-size:5.5115px;">sed</tspan><tspan x="48.8" y="6.6" class="st9" style="font-family:'Roboto-Regular'; font-size:5.5115px; letter-spacing:1;"> </tspan><tspan x="51.7" y="6.6" class="st9" style="font-family:'Roboto-Regular'; font-size:5.5115px;">do</tspan><tspan x="58" y="6.6" class="st9" style="font-family:'Roboto-Regular'; font-size:5.5115px; letter-spacing:1;"> </tspan><tspan x="60.9" y="6.6" class="st9" style="font-family:'Roboto-Regular'; font-size:5.5115px;">eiusmod</tspan><tspan x="82.2" y="6.6" class="st9" style="font-family:'Roboto-Regular'; font-size:5.5115px; letter-spacing:1;"> </tspan><tspan x="85.1" y="6.6" class="st9" style="font-family:'Roboto-Regular'; font-size:5.5115px;">tempor </tspan><tspan x="0" y="13.2" class="st9" style="font-family:'Roboto-Regular'; font-size:5.5115px;">incididunt</tspan><tspan x="24.6" y="13.2" class="st9" style="font-family:'Roboto-Regular'; font-size:5.5115px; letter-spacing:2;"> </tspan><tspan x="28.6" y="13.2" class="st9" style="font-family:'Roboto-Regular'; font-size:5.5115px;">ut</tspan><tspan x="33.6" y="13.2" class="st9" style="font-family:'Roboto-Regular'; font-size:5.5115px; letter-spacing:2;"> </tspan><tspan x="37.7" y="13.2" class="st9" style="font-family:'Roboto-Regular'; font-size:5.5115px;">labore</tspan><tspan x="53.2" y="13.2" class="st9" style="font-family:'Roboto-Regular'; font-size:5.5115px; letter-spacing:2;"> </tspan><tspan x="57.3" y="13.2" class="st9" style="font-family:'Roboto-Regular'; font-size:5.5115px;">et</tspan><tspan x="62" y="13.2" class="st9" style="font-family:'Roboto-Regular'; font-size:5.5115px; letter-spacing:2;"> </tspan><tspan x="66.1" y="13.2" class="st9" style="font-family:'Roboto-Regular'; font-size:5.5115px;">dolore</tspan><tspan x="81.7" y="13.2" class="st9" style="font-family:'Roboto-Regular'; font-size:5.5115px; letter-spacing:2;"> </tspan><tspan x="85.7" y="13.2" class="st9" style="font-family:'Roboto-Regular'; font-size:5.5115px;">magna </tspan><tspan x="0" y="19.8" class="st9" style="font-family:'Roboto-Regular'; font-size:5.5115px;">aliqua.</tspan><tspan x="16.6" y="19.8" class="st9" style="font-family:'Roboto-Regular'; font-size:5.5115px; letter-spacing:1;"> </tspan><tspan x="19.4" y="19.8" class="st9" style="font-family:'Roboto-Regular'; font-size:5.5115px;">Ut</tspan><tspan x="25" y="19.8" class="st9" style="font-family:'Roboto-Regular'; font-size:5.5115px; letter-spacing:1;"> </tspan><tspan x="27.9" y="19.8" class="st9" style="font-family:'Roboto-Regular'; font-size:5.5115px;">enim</tspan><tspan x="40.1" y="19.8" class="st9" style="font-family:'Roboto-Regular'; font-size:5.5115px; letter-spacing:1;"> </tspan><tspan x="43" y="19.8" class="st9" style="font-family:'Roboto-Regular'; font-size:5.5115px;">ad</tspan><tspan x="49.1" y="19.8" class="st9" style="font-family:'Roboto-Regular'; font-size:5.5115px; letter-spacing:1;"> </tspan><tspan x="52" y="19.8" class="st9" style="font-family:'Roboto-Regular'; font-size:5.5115px;">minim</tspan><tspan x="67.5" y="19.8" class="st9" style="font-family:'Roboto-Regular'; font-size:5.5115px; letter-spacing:1;"> </tspan><tspan x="70.4" y="19.8" class="st9" style="font-family:'Roboto-Regular'; font-size:5.5115px;">veniam,</tspan><tspan x="89.5" y="19.8" class="st9" style="font-family:'Roboto-Regular'; font-size:5.5115px; letter-spacing:1;"> </tspan><tspan x="92.3" y="19.8" class="st9" style="font-family:'Roboto-Regular'; font-size:5.5115px;">quis </tspan><tspan x="0" y="26.5" class="st9" style="font-family:'Roboto-Regular'; font-size:5.5115px;">nostrud</tspan><tspan x="19.2" y="26.5" class="st9" style="font-family:'Roboto-Regular'; font-size:5.5115px;"> </tspan><tspan x="21.5" y="26.5" class="st9" style="font-family:'Roboto-Regular'; font-size:5.5115px;">exercitation</tspan><tspan x="50.6" y="26.5" class="st9" style="font-family:'Roboto-Regular'; font-size:5.5115px;"> </tspan><tspan x="52.9" y="26.5" class="st9" style="font-family:'Roboto-Regular'; font-size:5.5115px;">ullamco</tspan><tspan x="72.7" y="26.5" class="st9" style="font-family:'Roboto-Regular'; font-size:5.5115px;"> </tspan><tspan x="74.9" y="26.5" class="st9" style="font-family:'Roboto-Regular'; font-size:5.5115px;">laboris</tspan><tspan x="91.8" y="26.5" class="st9" style="font-family:'Roboto-Regular'; font-size:5.5115px;"> </tspan><tspan x="94.1" y="26.5" class="st9" style="font-family:'Roboto-Regular'; font-size:5.5115px;">nisi </tspan></text>
			<rect x="-1147" y="161" style="fill:none;" width="102.9" height="21.2"/>
			<text transform="matrix(1 0 0 1 -1146.9823 167.7559)"><tspan x="0" y="0" class="st9" style="font-family:'Roboto-Bold'; font-size:8.8184px;">Lorem ipsum dolor sit </tspan><tspan x="0" y="10.6" class="st9" style="font-family:'Roboto-Bold'; font-size:8.8184px;">amet, consectetur </tspan></text>
			<g>
				<g>
					<path class="st9" d="M-1165.9,147.9h-44c-8.2,0-14.8,6.7-14.8,14.8v53.8c0,8.2,6.7,14.8,14.8,14.8h44c8.2,0,14.8-6.7,14.8-14.8
						v-53.8C-1151.1,154.6-1157.7,147.9-1165.9,147.9z"/>
					<linearGradient id="SVGID_41_" gradientUnits="userSpaceOnUse" x1="-1222.2572" y1="189.6567" x2="-1153.5575" y2="189.6567">
						<stop  offset="0" style="stop-color:#FFDFA1"/>
						<stop  offset="1" style="stop-color:#FBBE43"/>
					</linearGradient>
					<path class="st47" d="M-1165.9,150.4h-44c-6.8,0-12.3,5.5-12.3,12.3v53.8c0,6.8,5.5,12.3,12.3,12.3h44
						c6.8,0,12.3-5.5,12.3-12.3v-53.8C-1153.6,156-1159.1,150.4-1165.9,150.4z"/>
					<linearGradient id="SVGID_42_" gradientUnits="userSpaceOnUse" x1="-1217.7572" y1="189.6567" x2="-1158.0575" y2="189.6567">
						<stop  offset="0" style="stop-color:#FBBE43"/>
						<stop  offset="1" style="stop-color:#FFDFA1"/>
					</linearGradient>
					<path class="st48" d="M-1165.9,154.9h-44c-4.3,0-7.8,3.5-7.8,7.8v53.8c0,4.3,3.5,7.8,7.8,7.8h44c4.3,0,7.8-3.5,7.8-7.8v-53.8
						C-1158.1,158.4-1161.6,154.9-1165.9,154.9z"/>
					<path class="st5" d="M-1165.9,221.4c2.7,0,4.8-2.2,4.8-4.8v-53.8c0-2.7-2.2-4.8-4.8-4.8h-44c-2.7,0-4.8,2.2-4.8,4.8v53.8
						c0,2.7,2.2,4.8,4.8,4.8H-1165.9z"/>
				</g>
				<g>
					<polygon class="st9" points="-1166.6,169.2 -1167.1,175.5 -1179.2,175.5 -1179.2,188.1 -1168.1,186.5 -1169.8,205.8 
						-1185.5,210.2 -1185.5,202.9 -1174.9,200 -1174.5,194.1 -1185.5,196 -1185.5,169.2 					"/>
					<polygon class="st9" points="-1191.9,169.2 -1191.9,210.2 -1209.2,205.4 -1209.2,197.6 -1198.2,200.6 -1198.2,169.2 					"/>
				</g>
			</g>
		</g>
	</g>
</g>
<g id="Boton_Search_e_Voltar" class="st0">
	<g class="st1">
		<g>
			<circle class="st9" cx="-852.6" cy="-54.8" r="14.3"/>
			
				<linearGradient id="SVGID_43_" gradientUnits="userSpaceOnUse" x1="-865.9501" y1="-816.7386" x2="-839.2948" y2="-816.7386" gradientTransform="matrix(1 0 0 -1 0 -871.5875)">
				<stop  offset="0" style="stop-color:#EF7852"/>
				<stop  offset="1" style="stop-color:#EB5C2C"/>
			</linearGradient>
			<circle class="st49" cx="-852.6" cy="-54.8" r="13.3"/>
			
				<linearGradient id="SVGID_44_" gradientUnits="userSpaceOnUse" x1="-863.7288" y1="-816.7386" x2="-841.5161" y2="-816.7386" gradientTransform="matrix(1 0 0 -1 0 -871.5875)">
				<stop  offset="0" style="stop-color:#EB5C2C"/>
				<stop  offset="1" style="stop-color:#EF7852"/>
			</linearGradient>
			<path class="st50" d="M-852.6-43.7c-6.1,0-11.1-5-11.1-11.1c0-6.1,5-11.1,11.1-11.1c6.1,0,11.1,5,11.1,11.1
				C-841.5-48.7-846.5-43.7-852.6-43.7z"/>
			<path class="st9" d="M-854.7-60.1c0.1-0.1,0.2-0.3,0.3-0.2c0.1,0.1,0.1,0.2,0.1,0.4c0,0.9,0,1.9,0,2.8c0,0.3,0.1,0.4,0.4,0.5
				c2.6,0.2,5,1.1,7.1,2.7c0.4,0.4,0.8,0.8,1.1,1.3c0.1,0.2,0.2,0.4,0.1,0.5c-0.2,0.2-0.4,0.1-0.5,0c-0.9-0.4-1.7-0.8-2.6-0.9
				c-1.7-0.3-3.4-0.2-5.1-0.1c-0.3,0-0.3,0.2-0.3,0.4c-0.1,1.1-0.1,2.2-0.2,3.3c-0.2,0-0.3-0.2-0.3-0.2c-1.6-1.6-3.2-3.3-4.8-4.9
				c-0.3-0.3-0.3-0.4,0-0.7C-857.9-56.9-856.3-58.5-854.7-60.1z"/>
		</g>
		<g>
			<g>
				<g>
					<path class="st9" d="M-702.6-69.2H-813c-7.1,0-12.8,6.4-12.8,14.3v0c0,7.9,5.7,14.3,12.8,14.3h110.5c7.1,0,12.8-6.4,12.8-14.3
						v0C-689.8-62.8-695.5-69.2-702.6-69.2z"/>
					<linearGradient id="SVGID_45_" gradientUnits="userSpaceOnUse" x1="-820.9504" y1="-54.5617" x2="-626.3546" y2="-55.4463">
						<stop  offset="0" style="stop-color:#222222"/>
						<stop  offset="0.261" style="stop-color:#202021"/>
						<stop  offset="0.4177" style="stop-color:#1B1B1C"/>
						<stop  offset="0.5465" style="stop-color:#121213"/>
						<stop  offset="0.5899" style="stop-color:#0D0E0E"/>
					</linearGradient>
					<path class="st51" d="M-702.6-68.3h-110.3c-6.6,0-12,6-12,13.5v0c0,7.4,5.4,13.5,12,13.5h110.3c6.6,0,12-6,12-13.5v0
						C-690.6-62.3-696-68.3-702.6-68.3z"/>
					<linearGradient id="SVGID_46_" gradientUnits="userSpaceOnUse" x1="-823.0806" y1="-54.8486" x2="-675.2144" y2="-54.8486">
						<stop  offset="0" style="stop-color:#0D0E0E"/>
						<stop  offset="5.068219e-02" style="stop-color:#111212"/>
						<stop  offset="0.2146" style="stop-color:#1B1B1C"/>
						<stop  offset="0.4115" style="stop-color:#202020"/>
						<stop  offset="0.727" style="stop-color:#222222"/>
					</linearGradient>
					<path class="st52" d="M-692.5-54.8c0-6.4-4.6-11.6-10.2-11.6h-110.1c-5.6,0-10.2,5.2-10.2,11.6c0,6.4,4.6,11.6,10.2,11.6h110.1
						C-697.1-43.3-692.5-48.5-692.5-54.8z"/>
				</g>
				<g>
					<circle class="st9" cx="-704.1" cy="-54.8" r="14.3"/>
					
						<linearGradient id="SVGID_47_" gradientUnits="userSpaceOnUse" x1="-717.4111" y1="-816.7386" x2="-690.7558" y2="-816.7386" gradientTransform="matrix(1 0 0 -1 0 -871.5875)">
						<stop  offset="0" style="stop-color:#EF7852"/>
						<stop  offset="1" style="stop-color:#EB5C2C"/>
					</linearGradient>
					<circle class="st53" cx="-704.1" cy="-54.8" r="13.3"/>
					
						<linearGradient id="SVGID_48_" gradientUnits="userSpaceOnUse" x1="-715.1898" y1="-816.7386" x2="-692.9771" y2="-816.7386" gradientTransform="matrix(1 0 0 -1 0 -871.5875)">
						<stop  offset="0" style="stop-color:#EB5C2C"/>
						<stop  offset="1" style="stop-color:#EF7852"/>
					</linearGradient>
					<path class="st54" d="M-704.1-43.7c-6.1,0-11.1-5-11.1-11.1c0-6.1,5-11.1,11.1-11.1c6.1,0,11.1,5,11.1,11.1
						C-693-48.7-698-43.7-704.1-43.7z"/>
					<g>
						<path class="st9" d="M-705.3-61.5c-3,0-5.4,2.4-5.4,5.4c0,3,2.4,5.4,5.4,5.4c3,0,5.4-2.4,5.4-5.4
							C-699.8-59-702.3-61.5-705.3-61.5z M-705.3-52.5c-2,0-3.5-1.6-3.5-3.5c0-2,1.6-3.5,3.5-3.5c2,0,3.5,1.6,3.5,3.5
							C-701.7-54.1-703.3-52.5-705.3-52.5z"/>
						<path class="st9" d="M-697.7-49.8l-1.9-1.9c-0.4-0.4-1-0.4-1.3,0c-0.4,0.4-0.4,1,0,1.3l1.9,1.9c0.4,0.4,1,0.4,1.3,0
							S-697.4-49.5-697.7-49.8z"/>
					</g>
				</g>
			</g>
			<text transform="matrix(1.11 0 0 1 -813.7977 -51.9263)" class="st9" style="font-family:'Roboto-Thin'; font-size:10px;">Search</text>
		</g>
	</g>
</g>
<g id="Botons_Like_e_Coments">
	<g>
		<g>
			<circle class="st9" cx="153.8" cy="16.6" r="14.3"/>
			
				<linearGradient id="SVGID_49_" gradientUnits="userSpaceOnUse" x1="140.4294" y1="-888.2219" x2="167.0847" y2="-888.2219" gradientTransform="matrix(1 0 0 -1 0 -871.5875)">
				<stop  offset="0" style="stop-color:#EF7852"/>
				<stop  offset="1" style="stop-color:#EB5C2C"/>
			</linearGradient>
			<circle class="st55" cx="153.8" cy="16.6" r="13.3"/>
			
				<linearGradient id="SVGID_50_" gradientUnits="userSpaceOnUse" x1="142.6507" y1="-888.2219" x2="164.8634" y2="-888.2219" gradientTransform="matrix(1 0 0 -1 0 -871.5875)">
				<stop  offset="0" style="stop-color:#EB5C2C"/>
				<stop  offset="1" style="stop-color:#EF7852"/>
			</linearGradient>
			<path class="st56" d="M153.8,27.7c-6.1,0-11.1-5-11.1-11.1c0-6.1,5-11.1,11.1-11.1c6.1,0,11.1,5,11.1,11.1
				C164.9,22.8,159.9,27.7,153.8,27.7z"/>
			<path class="st9" d="M147.5,11v9.1h4l2.2,2.2l2.2-2.2h4V11H147.5z M150.3,16.5c-0.5,0-1-0.4-1-1c0-0.5,0.4-1,1-1c0.5,0,1,0.4,1,1
				C151.2,16.1,150.8,16.5,150.3,16.5z M153.8,16.5c-0.5,0-1-0.4-1-1c0-0.5,0.4-1,1-1c0.5,0,1,0.4,1,1
				C154.7,16.1,154.3,16.5,153.8,16.5z M157.2,16.5c-0.5,0-1-0.4-1-1c0-0.5,0.4-1,1-1c0.5,0,1,0.4,1,1
				C158.2,16.1,157.8,16.5,157.2,16.5z"/>
		</g>
		<g>
			<circle class="st9" cx="63.8" cy="16.6" r="14.3"/>
			
				<linearGradient id="SVGID_51_" gradientUnits="userSpaceOnUse" x1="50.4788" y1="-888.2219" x2="77.1341" y2="-888.2219" gradientTransform="matrix(1 0 0 -1 0 -871.5875)">
				<stop  offset="0" style="stop-color:#EF7852"/>
				<stop  offset="1" style="stop-color:#EB5C2C"/>
			</linearGradient>
			<circle class="st57" cx="63.8" cy="16.6" r="13.3"/>
			
				<linearGradient id="SVGID_52_" gradientUnits="userSpaceOnUse" x1="52.7001" y1="-888.2219" x2="74.9128" y2="-888.2219" gradientTransform="matrix(1 0 0 -1 0 -871.5875)">
				<stop  offset="0" style="stop-color:#EB5C2C"/>
				<stop  offset="1" style="stop-color:#EF7852"/>
			</linearGradient>
			<path class="st58" d="M63.8,27.7c-6.1,0-11.1-5-11.1-11.1c0-6.1,5-11.1,11.1-11.1c6.1,0,11.1,5,11.1,11.1
				C74.9,22.8,69.9,27.7,63.8,27.7z"/>
			<polygon class="st9" points="62.4,17.9 58.5,17.9 58.5,15.2 62.4,15.2 62.4,11 65.3,11 65.3,15.2 69.1,15.2 69.1,17.9 65.3,17.9 
				65.3,22.2 62.4,22.2 			"/>
		</g>
		<g>
			<circle class="st9" cx="18.8" cy="16.6" r="14.3"/>
			
				<linearGradient id="SVGID_53_" gradientUnits="userSpaceOnUse" x1="5.5035" y1="-888.2219" x2="32.1588" y2="-888.2219" gradientTransform="matrix(1 0 0 -1 0 -871.5875)">
				<stop  offset="0" style="stop-color:#EF7852"/>
				<stop  offset="1" style="stop-color:#EB5C2C"/>
			</linearGradient>
			<circle class="st59" cx="18.8" cy="16.6" r="13.3"/>
			
				<linearGradient id="SVGID_54_" gradientUnits="userSpaceOnUse" x1="7.7248" y1="-888.2219" x2="29.9375" y2="-888.2219" gradientTransform="matrix(1 0 0 -1 0 -871.5875)">
				<stop  offset="0" style="stop-color:#EB5C2C"/>
				<stop  offset="1" style="stop-color:#EF7852"/>
			</linearGradient>
			<path class="st60" d="M18.8,27.7c-6.1,0-11.1-5-11.1-11.1c0-6.1,5-11.1,11.1-11.1c6.1,0,11.1,5,11.1,11.1
				C29.9,22.8,25,27.7,18.8,27.7z"/>
			<path class="st9" d="M16.8,11.4c0.1-0.1,0.2-0.3,0.3-0.2c0.1,0.1,0.1,0.2,0.1,0.4c0,0.9,0,1.9,0,2.8c0,0.3,0.1,0.4,0.4,0.5
				c2.6,0.2,5,1.1,7.1,2.7c0.4,0.4,0.8,0.8,1.1,1.3c0.1,0.2,0.2,0.4,0.1,0.5c-0.2,0.2-0.4,0.1-0.5,0c-0.9-0.4-1.7-0.8-2.6-0.9
				c-1.7-0.3-3.4-0.2-5.1-0.1c-0.3,0-0.3,0.2-0.3,0.4c-0.1,1.1-0.1,2.2-0.2,3.3c-0.2,0-0.3-0.2-0.3-0.2c-1.6-1.6-3.2-3.3-4.8-4.9
				c-0.3-0.3-0.3-0.4,0-0.7C13.5,14.6,15.2,13,16.8,11.4z"/>
		</g>
		<g>
			<circle class="st9" cx="108.8" cy="16.6" r="14.3"/>
			
				<linearGradient id="SVGID_55_" gradientUnits="userSpaceOnUse" x1="95.4541" y1="-888.2219" x2="122.1094" y2="-888.2219" gradientTransform="matrix(1 0 0 -1 0 -871.5875)">
				<stop  offset="0" style="stop-color:#EF7852"/>
				<stop  offset="1" style="stop-color:#EB5C2C"/>
			</linearGradient>
			<circle class="st61" cx="108.8" cy="16.6" r="13.3"/>
			
				<linearGradient id="SVGID_56_" gradientUnits="userSpaceOnUse" x1="97.6754" y1="-888.2219" x2="119.8881" y2="-888.2219" gradientTransform="matrix(1 0 0 -1 0 -871.5875)">
				<stop  offset="0" style="stop-color:#EB5C2C"/>
				<stop  offset="1" style="stop-color:#EF7852"/>
			</linearGradient>
			<path class="st62" d="M108.8,27.7c-6.1,0-11.1-5-11.1-11.1c0-6.1,5-11.1,11.1-11.1c6.1,0,11.1,5,11.1,11.1
				C119.9,22.8,114.9,27.7,108.8,27.7z"/>
			<path class="st9" d="M110.8,10.3c-0.6-0.7-1.6-0.3-1.9,0.5c-0.2,0.6-0.5,1.4-0.8,1.9c-0.8,1.7-1.3,2.6-2.6,3.8
				c-0.2,0.2-0.4,0.3-0.7,0.4c-0.9,0.3-1.7,1.3-1.5,2.3l0.3,1.4c0.1,0.7,0.7,1.3,1.4,1.5l4.4,1.2c2,0.5,4-0.7,4.4-2.8l0.5-2.9
				c0.3-1.4-0.8-2.8-2.3-2.8h-0.7l0,0c0.1-0.3,0.1-0.8,0.2-1.2c0-0.5,0.1-1,0-1.5c0-0.5-0.1-1-0.4-1.3
				C111,10.5,110.9,10.4,110.8,10.3z"/>
		</g>
	</g>
</g>
<g id="Img_Html" class="st0">
	<g class="st1">
		
			<image style="overflow:visible;" width="1193" height="624" xlink:href="CCD5C1BD.jpg"  transform="matrix(0.1296 0 0 0.1296 -0.2264 42.08)">
		</image>
		
			<image style="overflow:visible;" width="1193" height="624" xlink:href="CCD5C1BF.jpg"  transform="matrix(0.1296 0 0 0.1296 34.8324 42.08)">
		</image>
		
			<image style="overflow:visible;" width="1193" height="624" xlink:href="CCD5C1BA.jpg"  transform="matrix(0.1296 0 0 0.1296 14.6225 42.08)">
		</image>
	</g>
</g>
</svg>
