<?xml version="1.0" encoding="utf-8"?>
<!-- Generator: Adobe Illustrator 24.2.1, SVG Export Plug-In . SVG Version: 6.00 Build 0)  -->
<svg version="1.1" xmlns="http://www.w3.org/2000/svg" xmlns:xlink="http://www.w3.org/1999/xlink" x="0px" y="0px"
	 viewBox="0 0 185.4 41.9" style="enable-background:new 0 0 185.4 41.9;" xml:space="preserve">
<style type="text/css">
	.st0{display:none;}
	.st1{display:inline;}
	.st2{fill:#F0825D;}
	.st3{display:inline;fill:#FFFFFF;}
	.st4{fill:url(#SVGID_1_);}
	.st5{fill:none;stroke:#FFFFFF;stroke-miterlimit:10;}
	.st6{fill:url(#SVGID_2_);}
	.st7{fill:url(#SVGID_3_);}
	.st8{fill:url(#SVGID_4_);}
	.st9{fill:#FFFFFF;}
	.st10{fill:url(#SVGID_5_);}
	.st11{fill:url(#SVGID_6_);}
	.st12{fill:url(#SVGID_7_);}
	.st13{fill:url(#SVGID_8_);}
	.st14{fill:url(#SVGID_9_);}
	.st15{fill:url(#SVGID_10_);}
	.st16{fill:url(#SVGID_11_);}
	.st17{fill:url(#SVGID_12_);}
	.st18{fill:url(#SVGID_13_);}
	.st19{fill:url(#SVGID_14_);}
	.st20{fill:url(#SVGID_15_);}
	.st21{fill:url(#SVGID_16_);}
	.st22{fill:url(#SVGID_17_);}
	.st23{fill:url(#SVGID_18_);}
	.st24{fill:url(#SVGID_19_);}
	.st25{fill:url(#SVGID_20_);}
	.st26{fill:url(#SVGID_21_);}
	.st27{fill:url(#SVGID_22_);}
	.st28{fill:url(#SVGID_23_);}
	.st29{fill:url(#SVGID_24_);}
	.st30{fill-rule:evenodd;clip-rule:evenodd;fill:#FFFFFF;}
	.st31{fill:url(#SVGID_25_);}
	.st32{fill:url(#SVGID_26_);}
	.st33{fill:url(#SVGID_27_);}
	.st34{fill:url(#SVGID_28_);}
	.st35{fill:url(#SVGID_29_);}
	.st36{fill:url(#SVGID_30_);}
	.st37{fill:url(#SVGID_31_);}
	.st38{fill:url(#SVGID_32_);}
	.st39{fill:url(#SVGID_33_);}
	.st40{fill:url(#SVGID_34_);}
	.st41{fill:url(#SVGID_35_);}
	.st42{fill:url(#SVGID_36_);}
	.st43{fill:url(#SVGID_37_);}
	.st44{fill:url(#SVGID_38_);}
	.st45{fill:url(#SVGID_39_);}
	.st46{fill:url(#SVGID_40_);}
	.st47{fill:url(#SVGID_41_);}
	.st48{fill:url(#SVGID_42_);}
	.st49{fill:url(#SVGID_43_);}
	.st50{fill:url(#SVGID_44_);}
	.st51{fill:url(#SVGID_45_);}
	.st52{fill:url(#SVGID_46_);}
	.st53{fill:url(#SVGID_47_);}
	.st54{fill:url(#SVGID_48_);}
	.st55{font-family:'Roboto-Thin';}
	.st56{font-size:10px;}
	.st57{fill:url(#SVGID_49_);}
	.st58{fill:url(#SVGID_50_);}
	.st59{fill:url(#SVGID_51_);}
	.st60{fill:url(#SVGID_52_);}
	.st61{fill:url(#SVGID_53_);}
	.st62{fill:url(#SVGID_54_);}
	.st63{fill:url(#SVGID_55_);}
	.st64{fill:url(#SVGID_56_);}
</style>
<g id="Logo" class="st0">
	<g class="st1">
		<text transform="matrix(1 0 0 1 -1201.308 -790.4636)" class="st9" style="font-family:'Monoid-Bold'; font-size:24.5422px;">The Space of</text>
		<text transform="matrix(1 0 0 1 -1211.2299 -729.8561)" class="st9" style="font-family:'Gamer'; font-size:107.939px;">Developers</text>
		<g>
			<g>
				<path class="st2" d="M-838.1-678.5c-16.8,0-32.3-6-44.4-16.1l-6.3,9.7c13.9,11.2,31.5,17.9,50.6,17.9c19.2,0,36.8-6.7,50.6-17.9
					l-8-8.3C-807.2-684.1-822-678.5-838.1-678.5z"/>
				<path class="st2" d="M-773.4-723l10.9,3.7c0.9-2.3,1.7-4.7,2.3-7.2l-10.8-4C-771.6-727.9-772.4-725.4-773.4-723z"/>
				<path class="st2" d="M-838.1-828.9c-23.4,0-44.6,10-59.4,26l6.7,9.7c12.7-14.8,31.6-24.3,52.7-24.3c38.3,0,69.4,31.2,69.4,69.4
					c0,4.6-0.5,9.2-1.3,13.5l11.2,2.4c1-5.2,1.6-10.5,1.6-16C-757.2-792.6-793.5-828.9-838.1-828.9z"/>
			</g>
		</g>
		<g>
			<g>
				<path class="st2" d="M-838.8-623.6c-50.7,0-94.8-28.2-116.1-69.2c-3.2,1.2-6.9,2.8-10.7,4.3c23.1,45.2,71.2,76.4,126.8,76.4
					c14.6,0,28.6-2.1,41.9-6.1c-1.2-3.7-2.4-7.8-3.4-11C-812.5-625.6-825.4-623.6-838.8-623.6z"/>
				<path class="st2" d="M-776.4-871.4c-0.6,3.4-1.6,8-2.4,11.6c41.5,20.9,69.9,62.8,69.9,111c0,50.7-31.5,94.5-76.6,114.1l4.5,10.5
					c49.2-21.4,83.6-69.2,83.6-124.7C-697.5-802.5-729.7-849.1-776.4-871.4z"/>
				<path class="st2" d="M-838.8-874c7,0,13.9,0.6,20.6,1.6l-4.8-12.2c-5.2-0.6-10.4-0.9-15.7-0.9c-56.2,0-104.9,31.9-127.6,78
					l8.2,9.6C-938.4-842.6-892.3-874-838.8-874z"/>
				<path class="st2" d="M-804.5-869.5c0.4-3.6,0.9-8.1,1.3-11.5c-4.5-1.1-9.1-2.1-13.8-2.8l5.5,12.7
					C-809.1-870.7-806.8-870.2-804.5-869.5z"/>
			</g>
		</g>
		<g>
			<g>
				<path class="st2" d="M-981.5-684c-2.4,1.9-5.2,4.1-7.9,6.2c1.8,3.5,3.7,7,5.7,10.4c2.8-2.3,5.8-4.6,7.7-6.3
					C-978-677.1-979.8-680.5-981.5-684z"/>
				<path class="st2" d="M-839.8-596.1c-54.5,0-102.6-27.4-130.7-68.9l-7,7.2c30,43.2,80.6,71.6,137.7,71.6
					c37.6,0,72.2-12.2,100.1-32.9c-1.9-2.7-4-5.5-5.8-8C-771.7-607.7-804.4-596.1-839.8-596.1z"/>
				<path class="st2" d="M-839-913.1v9.8c86.1,0.4,156,69.1,156,153.6c0,18.2-3.3,35.7-9.2,51.9l9.1,3.7c6.4-17.4,9.9-36.1,9.9-55.6
					C-673.1-839.5-747.5-912.7-839-913.1z"/>
				<path class="st2" d="M-957.4-851.1l-6.5-7.4c-9.1,10-17,21-23.4,33l7.6,6.7C-973.7-830.5-966.2-841.3-957.4-851.1z"/>
			</g>
		</g>
		<g>
			<g>
				<path class="st2" d="M-692.7-783.4c-15.7-64.9-75.6-113.4-147-113.4c-59.1,0-110.3,33.2-135.1,81.5l5.3,4.1
					c23.5-46.7,72.8-79,129.8-79c68.4,0,125.8,46.5,140.7,108.8C-697.1-782.1-694.7-782.8-692.7-783.4z"/>
				<path class="st2" d="M-690.5-772.4c-2.2,0.5-4.5,1-6.4,1.4c1.1,6.9,1.7,14,1.7,21.3c0,16.2-2.8,31.7-8,46.1l5.9,3.1
					c5.6-15.4,8.7-32,8.7-49.2C-688.7-757.4-689.4-765-690.5-772.4z"/>
				<path class="st2" d="M-969.1-687.5l-6.4,1.8c10.6,21.2,26.2,39.5,45.3,53.5l4.6-4.8C-944-650.2-958.9-667.5-969.1-687.5z"/>
			</g>
		</g>
		<g>
			<g>
				<path class="st2" d="M-728.2-755.6c2.1,0.3,4.5,0.7,6.7,1c-3.3-60.9-55.1-109.5-118.2-109.5c-37.6,0-71.2,17.3-92.9,44.1
					l7.3,1.5c20.5-23.8,51.3-39,85.6-39C-780.6-857.5-732.1-812.4-728.2-755.6z"/>
				<path class="st2" d="M-728-745.4c-1.6,58.8-51.1,106.1-111.7,106.1c-20.1,0-39-5.2-55.3-14.3l-1.5,6.7
					c16.9,9,36.2,14.2,56.7,14.2c64,0,116.2-49.8,118.3-111.8L-728-745.4z"/>
			</g>
		</g>
		<g>
			<g>
				<path class="st2" d="M-810.1-839.1l3.2-4.1c-10.4-3.6-21.5-5.6-33.1-5.6c-29.3,0-55.6,12.6-74,32.6l5.4,1.5
					c17.4-18,41.7-29.2,68.6-29.2C-829.6-843.9-819.5-842.2-810.1-839.1z"/>
				<path class="st2" d="M-775-824.8c-0.9,1.2-1.9,2.6-2.9,3.9c18.1,15.5,30.3,37.7,32.8,62.7c1.7,0.4,3.5,0.9,5,1.3
					C-742.4-784-755.4-808.1-775-824.8z"/>
				<path class="st2" d="M-840-653.2c-18.7,0-36.2-5.4-50.9-14.8l-1.3,5c15.2,9.3,33.1,14.7,52.2,14.7c35.7,0,67-18.8,84.8-46.9
					c-1.3-0.7-2.9-1.6-4.3-2.3C-776.5-670.9-806.2-653.2-840-653.2z"/>
			</g>
		</g>
		<g>
			<g>
				<path class="st2" d="M-840-839.2c-14.9,0-28.9,3.6-41.3,10c0.9,1.2,2.1,2.8,3,4c11.6-5.8,24.6-9,38.3-9
					c43.8,0,80,32.9,85.3,75.2l4.9-0.4C-755.3-804.4-793.6-839.2-840-839.2z"/>
				<path class="st2" d="M-840-662.3c-18.5,0-35.6-5.9-49.6-15.8l-0.9,5.4c14.5,9.7,31.8,15.4,50.5,15.4c22.7,0,43.5-8.4,59.5-22.2
					c-1.5-1.1-2.9-2.2-4-3C-799.5-670-818.8-662.3-840-662.3z"/>
			</g>
		</g>
		<g>
			<g>
				<path class="st2" d="M-839.7-688.2c-11.3,0-21.9-3-30.9-8.3c-0.7,1.5-1.4,3-2,4.5c9.7,5.5,21,8.7,33,8.7
					c15.3,0,29.3-5.1,40.4-13.7c-1-1.1-2.1-2.5-3.2-3.7C-812.7-692.9-825.6-688.2-839.7-688.2z"/>
				<path class="st2" d="M-839.7-810.2c-17.7,0-33.8,6.9-45.6,18.1l4.2,2.8c10.8-9.9,25.4-15.9,41.3-15.9
					c33.3,0,60.4,26.3,60.4,58.6c0,10.9-3.1,21.1-8.4,29.8l3.8,3.2c6-9.6,9.5-20.9,9.5-33C-774.4-781.7-803.7-810.2-839.7-810.2z"/>
			</g>
		</g>
	</g>
</g>
<g id="Loading_Bar" class="st0">
	<path class="st3" d="M-686.5-497.8h-498.2c-12.9,0-23.4,10.5-23.4,23.4v0c0,12.9,10.5,23.4,23.4,23.4h498.2
		c12.9,0,23.4-10.5,23.4-23.4v0C-663.1-487.3-673.6-497.8-686.5-497.8z M-666.7-474.4L-666.7-474.4c0,10.9-8.9,19.8-19.8,19.8
		l-227.3,0v-39.6h227.3C-675.6-494.2-666.7-485.4-666.7-474.4z"/>
</g>
<g id="input" class="st0">
	<g class="st1">
		<g>
			<linearGradient id="SVGID_1_" gradientUnits="userSpaceOnUse" x1="-847.9969" y1="-380.1045" x2="-667.2972" y2="-380.1045">
				<stop  offset="0" style="stop-color:#0D0E0E"/>
				<stop  offset="1" style="stop-color:#222222"/>
			</linearGradient>
			<path class="st4" d="M-684.5-397.3h-146.2c-9.5,0-17.2,7.7-17.2,17.2v0c0,9.5,7.7,17.2,17.2,17.2h146.2c9.5,0,17.2-7.7,17.2-17.2
				v0C-667.3-389.6-675-397.3-684.5-397.3z"/>
			<path class="st5" d="M-830.8-365.9h146.2c7.9,0,14.2-6.4,14.2-14.2v0c0-7.9-6.4-14.2-14.2-14.2h-146.2c-7.9,0-14.2,6.4-14.2,14.2
				v0C-845-372.2-838.6-365.9-830.8-365.9z"/>
		</g>
		<text transform="matrix(1 0 0 1 -773.3442 -378.0586)" class="st9 st55" style="font-size:7px;">Username</text>
	</g>
</g>
<g id="Boton" class="st0">
	<g class="st1">
		<linearGradient id="SVGID_2_" gradientUnits="userSpaceOnUse" x1="-860.8536" y1="-310.4706" x2="-680.3229" y2="-310.4706">
			<stop  offset="0" style="stop-color:#F9B654"/>
			<stop  offset="1" style="stop-color:#EF7C2C"/>
		</linearGradient>
		<path class="st6" d="M-693.1-297.7h-155c-7,0-12.8-5.7-12.8-12.8v0c0-7,5.7-12.8,12.8-12.8h155c7,0,12.8,5.7,12.8,12.8v0
			C-680.3-303.4-686-297.7-693.1-297.7z"/>
		<g>
			<text transform="matrix(1 0 0 1 -791.4633 -304.8454)" class="st9" style="font-family:'Roboto-Bold'; font-size:15px;">Login</text>
		</g>
	</g>
</g>
<g id="Login_Google_Apple" class="st0">
	<g class="st1">
		<g>
			<linearGradient id="SVGID_3_" gradientUnits="userSpaceOnUse" x1="-714.1155" y1="-241.0588" x2="-679.1205" y2="-241.0588">
				<stop  offset="0" style="stop-color:#F9B654"/>
				<stop  offset="1" style="stop-color:#EF7C2C"/>
			</linearGradient>
			<path class="st7" d="M-685.4-258.8h-22.4c-3.5,0-6.3,2.8-6.3,6.3v22.8c0,3.5,2.8,6.3,6.3,6.3h22.4c3.5,0,6.3-2.8,6.3-6.3v-22.8
				C-679.1-255.9-681.9-258.8-685.4-258.8z"/>
			<linearGradient id="SVGID_4_" gradientUnits="userSpaceOnUse" x1="-711.8232" y1="-241.0588" x2="-681.4128" y2="-241.0588">
				<stop  offset="0" style="stop-color:#EF7C2C"/>
				<stop  offset="1" style="stop-color:#F9B654"/>
			</linearGradient>
			<path class="st8" d="M-685.4-256.5h-22.4c-2.2,0-4,1.8-4,4v22.8c0,2.2,1.8,4,4,4h22.4c2.2,0,4-1.8,4-4v-22.8
				C-681.4-254.7-683.2-256.5-685.4-256.5z"/>
			<path class="st5" d="M-685.4-227.2c1.4,0,2.5-1.1,2.5-2.5v-22.8c0-1.4-1.1-2.5-2.5-2.5h-22.4c-1.4,0-2.5,1.1-2.5,2.5v22.8
				c0,1.4,1.1,2.5,2.5,2.5H-685.4z"/>
			<g>
				<path class="st9" d="M-691.9-252.2C-691.9-252.2-691.9-252.2-691.9-252.2c0,1.4-0.1,2.4-1.1,3.4c-0.7,0.7-2.1,1.4-3.1,1.4
					c-0.1,0-0.1,0-0.1,0C-696.3-249.6-694.5-252.2-691.9-252.2z"/>
				<path class="st9" d="M-689.5-237.8c0.6,0.9,2.4,1.9,2.2,2.5c-0.1,0.5-1.6,2.7-2,3.2c-3.2,4-4.4,0.8-7.1,0.9
					c-1.4,0.1-1.9,1.2-3.4,1.2c-0.2,0-0.4,0-0.6,0c-1.1-0.2-2.3-1.3-3-2.1c-1.4-1.7-2.6-5.3-2.8-7.5c-0.2-2.7,1-5.5,3.4-6.9
					c2.8-1.6,4.8,0.4,6.6,0.8c0.5,0.1,0.9,0.1,1.4-0.1c1.5-0.8,2-1.4,4-0.9c1.1,0.3,2.3,1.2,2.9,2.1
					C-690.1-242.8-691.4-240.4-689.5-237.8z"/>
			</g>
		</g>
		<g>
			<linearGradient id="SVGID_5_" gradientUnits="userSpaceOnUse" x1="-795.5853" y1="-241.0588" x2="-760.5904" y2="-241.0588">
				<stop  offset="0" style="stop-color:#F9B654"/>
				<stop  offset="1" style="stop-color:#EF7C2C"/>
			</linearGradient>
			<path class="st10" d="M-766.9-258.8h-22.4c-3.5,0-6.3,2.8-6.3,6.3v22.8c0,3.5,2.8,6.3,6.3,6.3h22.4c3.5,0,6.3-2.8,6.3-6.3v-22.8
				C-760.6-255.9-763.4-258.8-766.9-258.8z"/>
			<linearGradient id="SVGID_6_" gradientUnits="userSpaceOnUse" x1="-793.293" y1="-241.0588" x2="-762.8826" y2="-241.0588">
				<stop  offset="0" style="stop-color:#EF7C2C"/>
				<stop  offset="1" style="stop-color:#F9B654"/>
			</linearGradient>
			<path class="st11" d="M-766.9-256.5h-22.4c-2.2,0-4,1.8-4,4v22.8c0,2.2,1.8,4,4,4h22.4c2.2,0,4-1.8,4-4v-22.8
				C-762.9-254.7-764.7-256.5-766.9-256.5z"/>
			<path class="st5" d="M-766.9-227.2c1.4,0,2.5-1.1,2.5-2.5v-22.8c0-1.4-1.1-2.5-2.5-2.5h-22.4c-1.4,0-2.5,1.1-2.5,2.5v22.8
				c0,1.4,1.1,2.5,2.5,2.5H-766.9z"/>
			<g>
				<path class="st9" d="M-767.5-241.8c0,0.3,0,0.7,0,1l0,0.3c0,0.3-0.1,0.7-0.1,1l0,0.2c-0.1,0.4-0.1,0.8-0.2,1.1l-0.1,0.3
					c-0.1,0.3-0.2,0.5-0.3,0.8l-0.2,0.4c-0.1,0.3-0.3,0.5-0.4,0.8l-0.1,0.2l-0.1,0.1c-0.5,0.8-1,1.5-1.7,2.1l-0.1,0.1l0,0
					c-0.3,0.3-0.6,0.5-0.9,0.8l0,0c-0.3,0.2-0.7,0.5-1.1,0.7c-0.4,0.2-0.9,0.4-1.3,0.6l-0.1,0l0,0c-1.3,0.5-3.1,0.7-4.4,0.7l3.7-6.5
					c1.2-1,2-2.5,2-4.2c0-1.6-0.7-3-1.8-3.9h6.3c0.3,0.9,0.7,2.1,0.7,3L-767.5-241.8z"/>
				<path class="st9" d="M-787-246.7l3.7,6.4c0.4,2.6,2.6,4.6,5.3,4.6c0.4,0,0.7,0,1.1-0.1l-3,5.3c-0.8-0.1-1.5-0.4-2.2-0.7
					l-0.3-0.1l-0.1,0c-0.2-0.1-0.4-0.2-0.6-0.3l-0.3-0.1l-0.1-0.1c-0.2-0.1-0.4-0.2-0.6-0.4l-0.3-0.2c-0.2-0.1-0.3-0.3-0.5-0.4
					l-0.3-0.3c-0.1-0.1-0.3-0.2-0.4-0.4c-0.1-0.1-0.3-0.3-0.4-0.4l-0.3-0.3c-0.1-0.2-0.3-0.3-0.4-0.5l-0.2-0.3
					c-0.1-0.2-0.3-0.4-0.4-0.6l-0.1-0.1l-0.1-0.3c-0.1-0.2-0.2-0.4-0.3-0.6c-0.1-0.2-0.1-0.3-0.2-0.5c-0.1-0.2-0.1-0.3-0.2-0.5
					c-0.1-0.2-0.1-0.4-0.2-0.6l-0.1-0.4c0-0.2-0.1-0.4-0.1-0.6l-0.1-0.4c0-0.2-0.1-0.4-0.1-0.6l0-0.5c0-0.2,0-0.4,0-0.5
					c0-0.2,0-0.4,0-0.5l0-0.5c0-0.2,0-0.4,0.1-0.6l0.1-0.4c0-0.2,0.1-0.4,0.1-0.6l0.1-0.4c0.1-0.2,0.1-0.4,0.2-0.6
					c0.1-0.2,0.1-0.3,0.2-0.5l0.2-0.5c0.1-0.2,0.2-0.4,0.3-0.6L-787-246.7L-787-246.7z"/>
				<path class="st9" d="M-768.9-246.4h-9.2c-2.4,0-4.4,1.5-5.1,3.7l-3-5.3l0.1-0.1c0.1-0.2,0.3-0.3,0.5-0.5l0.3-0.3
					c0.1-0.1,0.3-0.3,0.4-0.4l0.4-0.3c0.1-0.1,0.3-0.2,0.4-0.3c0.1-0.1,0.3-0.2,0.4-0.3l0.3-0.2l0.2-0.1c0.2-0.1,0.3-0.2,0.5-0.2
					c0.2-0.1,0.3-0.2,0.5-0.2l0.4-0.1c0.2-0.1,0.4-0.2,0.6-0.2l0.2,0c0.8-0.2,1.6-0.4,2.4-0.4l0.4,0l0.5,0c0.2,0,0.4,0,0.6,0l0.4,0
					c0.2,0,0.4,0,0.7,0.1l0.3,0.1c0.2,0,0.4,0.1,0.7,0.1l0.3,0.1c0.2,0.1,0.4,0.1,0.6,0.2l0.4,0.2c0.2,0.1,0.3,0.1,0.5,0.2
					c0.2,0.1,0.3,0.2,0.5,0.3l0.3,0.2l0.1,0.1c0.4,0.2,0.7,0.5,1.1,0.7l0.1,0.1c0.3,0.2,0.6,0.5,0.9,0.8l0.2,0.2
					c0.3,0.3,0.5,0.6,0.7,0.9l0.1,0.1C-769.3-247.1-769.1-246.8-768.9-246.4z"/>
				<path class="st9" d="M-778.1-245.1c2.2,0,4,1.8,4,4c0,2.2-1.8,4-4,4c-2.2,0-4-1.8-4-4S-780.3-245.1-778.1-245.1z"/>
			</g>
		</g>
	</g>
</g>
<g id="Boton_Studing_add" class="st0">
	<g class="st1">
		<g>
			<path class="st9" d="M-695.3-191.2h-151.5c-7.1,0-12.8,6.4-12.8,14.3v0c0,7.9,5.7,14.3,12.8,14.3h151.5c7.1,0,12.8-6.4,12.8-14.3
				v0C-682.5-184.8-688.3-191.2-695.3-191.2z"/>
			<linearGradient id="SVGID_7_" gradientUnits="userSpaceOnUse" x1="-853.4973" y1="-176.537" x2="-599.5049" y2="-177.6916">
				<stop  offset="0" style="stop-color:#222222"/>
				<stop  offset="0.261" style="stop-color:#202021"/>
				<stop  offset="0.4177" style="stop-color:#1B1B1C"/>
				<stop  offset="0.5465" style="stop-color:#121213"/>
				<stop  offset="0.5899" style="stop-color:#0D0E0E"/>
			</linearGradient>
			<path class="st12" d="M-695.4-190.4h-151.3c-6.6,0-12,6-12,13.5v0c0,7.4,5.4,13.5,12,13.5h151.3c6.6,0,12-6,12-13.5v0
				C-683.4-184.3-688.8-190.4-695.4-190.4z"/>
			<linearGradient id="SVGID_8_" gradientUnits="userSpaceOnUse" x1="-856.8496" y1="-176.9115" x2="-662.5545" y2="-176.9115">
				<stop  offset="0" style="stop-color:#0D0E0E"/>
				<stop  offset="5.068219e-02" style="stop-color:#111212"/>
				<stop  offset="0.2146" style="stop-color:#1B1B1C"/>
				<stop  offset="0.4115" style="stop-color:#202020"/>
				<stop  offset="0.727" style="stop-color:#222222"/>
			</linearGradient>
			<path class="st13" d="M-685.3-176.9c0-6.4-4.6-11.6-10.2-11.6h-151.1c-5.6,0-10.2,5.2-10.2,11.6c0,6.4,4.6,11.6,10.2,11.6h151.1
				C-689.9-165.3-685.3-170.5-685.3-176.9z"/>
		</g>
		<g>
			<circle class="st9" cx="-695.9" cy="-176.9" r="14.3"/>
			
				<linearGradient id="SVGID_9_" gradientUnits="userSpaceOnUse" x1="-709.2337" y1="-684.2722" x2="-682.5784" y2="-684.2722" gradientTransform="matrix(1 0 0 -1 0 -861.184)">
				<stop  offset="0" style="stop-color:#EF7852"/>
				<stop  offset="1" style="stop-color:#EB5C2C"/>
			</linearGradient>
			<circle class="st14" cx="-695.9" cy="-176.9" r="13.3"/>
			
				<linearGradient id="SVGID_10_" gradientUnits="userSpaceOnUse" x1="-707.0124" y1="-684.2722" x2="-684.7997" y2="-684.2722" gradientTransform="matrix(1 0 0 -1 0 -861.184)">
				<stop  offset="0" style="stop-color:#EB5C2C"/>
				<stop  offset="1" style="stop-color:#EF7852"/>
			</linearGradient>
			<path class="st15" d="M-695.9-165.8c-6.1,0-11.1-5-11.1-11.1c0-6.1,5-11.1,11.1-11.1c6.1,0,11.1,5,11.1,11.1
				C-684.8-170.8-689.8-165.8-695.9-165.8z"/>
			<polygon class="st9" points="-697.4,-175.7 -701.2,-175.7 -701.2,-178.3 -697.4,-178.3 -697.4,-182.5 -694.4,-182.5 
				-694.4,-178.3 -690.6,-178.3 -690.6,-175.7 -694.4,-175.7 -694.4,-171.3 -697.4,-171.3 			"/>
		</g>
		<text transform="matrix(1.11 0 0 1 -842.9577 -173.9892)"><tspan x="0" y="0" class="st9 st56" style="font-family:'Roboto-Light';">Studing</tspan><tspan x="33.8" y="0" class="st9 st56" style="font-family:'Roboto-Light';">	</tspan></text>
	</g>
</g>
<g id="Menu_Rodape" class="st0">
	<g class="st1">
		<g>
			<path class="st9" d="M-694.6-136.2h-151.5c-7.1,0-12.8,6.4-12.8,14.3v0c0,7.9,5.7,14.3,12.8,14.3h151.5c7.1,0,12.8-6.4,12.8-14.3
				v0C-681.8-129.8-687.6-136.2-694.6-136.2z"/>
			<linearGradient id="SVGID_11_" gradientUnits="userSpaceOnUse" x1="-852.8043" y1="-121.5076" x2="-598.8119" y2="-122.6622">
				<stop  offset="0" style="stop-color:#222222"/>
				<stop  offset="0.261" style="stop-color:#202021"/>
				<stop  offset="0.4177" style="stop-color:#1B1B1C"/>
				<stop  offset="0.5465" style="stop-color:#121213"/>
				<stop  offset="0.5899" style="stop-color:#0D0E0E"/>
			</linearGradient>
			<path class="st16" d="M-694.7-135.3H-846c-6.6,0-12,6-12,13.5v0c0,7.4,5.4,13.5,12,13.5h151.3c6.6,0,12-6,12-13.5v0
				C-682.7-129.3-688.1-135.3-694.7-135.3z"/>
			<linearGradient id="SVGID_12_" gradientUnits="userSpaceOnUse" x1="-856.1566" y1="-121.8821" x2="-661.8615" y2="-121.8821">
				<stop  offset="0" style="stop-color:#0D0E0E"/>
				<stop  offset="5.068219e-02" style="stop-color:#111212"/>
				<stop  offset="0.2146" style="stop-color:#1B1B1C"/>
				<stop  offset="0.4115" style="stop-color:#202020"/>
				<stop  offset="0.727" style="stop-color:#222222"/>
			</linearGradient>
			<path class="st17" d="M-684.6-121.9c0-6.4-4.6-11.6-10.2-11.6h-151.1c-5.6,0-10.2,5.2-10.2,11.6c0,6.4,4.6,11.6,10.2,11.6h151.1
				C-689.2-110.3-684.6-115.5-684.6-121.9z"/>
		</g>
		<g>
			<circle class="st9" cx="-845" cy="-121.9" r="14.3"/>
			
				<linearGradient id="SVGID_13_" gradientUnits="userSpaceOnUse" x1="-858.3447" y1="-739.3016" x2="-831.6893" y2="-739.3016" gradientTransform="matrix(1 0 0 -1 0 -861.184)">
				<stop  offset="0" style="stop-color:#EF7852"/>
				<stop  offset="1" style="stop-color:#EB5C2C"/>
			</linearGradient>
			<circle class="st18" cx="-845" cy="-121.9" r="13.3"/>
			
				<linearGradient id="SVGID_14_" gradientUnits="userSpaceOnUse" x1="-856.1234" y1="-739.3016" x2="-833.9106" y2="-739.3016" gradientTransform="matrix(1 0 0 -1 0 -861.184)">
				<stop  offset="0" style="stop-color:#EB5C2C"/>
				<stop  offset="1" style="stop-color:#EF7852"/>
			</linearGradient>
			<path class="st19" d="M-845-110.8c-6.1,0-11.1-5-11.1-11.1c0-6.1,5-11.1,11.1-11.1c6.1,0,11.1,5,11.1,11.1
				C-833.9-115.8-838.9-110.8-845-110.8z"/>
			<g>
				<path class="st9" d="M-846.2-128.5c-3,0-5.4,2.4-5.4,5.4c0,3,2.4,5.4,5.4,5.4s5.4-2.4,5.4-5.4
					C-840.8-126.1-843.2-128.5-846.2-128.5z M-846.2-119.5c-2,0-3.5-1.6-3.5-3.5c0-2,1.6-3.5,3.5-3.5s3.5,1.6,3.5,3.5
					C-842.7-121.1-844.2-119.5-846.2-119.5z"/>
				<path class="st9" d="M-838.7-116.9l-1.9-1.9c-0.4-0.4-1-0.4-1.3,0s-0.4,1,0,1.3l1.9,1.9c0.4,0.4,1,0.4,1.3,0
					C-838.3-115.9-838.3-116.5-838.7-116.9z"/>
			</g>
		</g>
		<g>
			<circle class="st9" cx="-696.3" cy="-121.9" r="14.3"/>
			
				<linearGradient id="SVGID_15_" gradientUnits="userSpaceOnUse" x1="-709.6766" y1="-739.3016" x2="-683.0214" y2="-739.3016" gradientTransform="matrix(1 0 0 -1 0 -861.184)">
				<stop  offset="0" style="stop-color:#EF7852"/>
				<stop  offset="1" style="stop-color:#EB5C2C"/>
			</linearGradient>
			<circle class="st20" cx="-696.3" cy="-121.9" r="13.3"/>
			
				<linearGradient id="SVGID_16_" gradientUnits="userSpaceOnUse" x1="-707.4553" y1="-739.3016" x2="-685.2426" y2="-739.3016" gradientTransform="matrix(1 0 0 -1 0 -861.184)">
				<stop  offset="0" style="stop-color:#EB5C2C"/>
				<stop  offset="1" style="stop-color:#EF7852"/>
			</linearGradient>
			<path class="st21" d="M-696.3-110.8c-6.1,0-11.1-5-11.1-11.1c0-6.1,5-11.1,11.1-11.1c6.1,0,11.1,5,11.1,11.1
				C-685.2-115.8-690.2-110.8-696.3-110.8z"/>
			<path class="st9" d="M-691.3-121.2c0-0.2,0-0.4,0-0.7s0-0.4,0-0.7l1.4-1.1c0.1-0.1,0.2-0.3,0.1-0.4l-1.4-2.3
				c-0.1-0.1-0.3-0.2-0.4-0.1l-1.7,0.7c-0.4-0.3-0.7-0.5-1.1-0.7l-0.3-1.8c0-0.2-0.2-0.3-0.3-0.3h-2.7c-0.2,0-0.3,0.1-0.3,0.3
				l-0.3,1.8c-0.4,0.2-0.8,0.4-1.1,0.7l-1.7-0.7c-0.2-0.1-0.3,0-0.4,0.1l-1.3,2.3c-0.1,0.1,0,0.3,0.1,0.4l1.4,1.1c0,0.2,0,0.4,0,0.7
				c0,0.2,0,0.4,0,0.7l-1.4,1.1c-0.1,0.1-0.2,0.3-0.1,0.4l1.3,2.3c0.1,0.1,0.3,0.2,0.4,0.1l1.7-0.7c0.4,0.3,0.7,0.5,1.1,0.7l0.3,1.8
				c0,0.2,0.2,0.3,0.3,0.3h2.7c0.2,0,0.3-0.1,0.3-0.3l0.3-1.8c0.4-0.2,0.8-0.4,1.1-0.7l1.7,0.7c0.2,0.1,0.3,0,0.4-0.1l1.4-2.3
				c0.1-0.1,0-0.3-0.1-0.4L-691.3-121.2z M-696.3-119.5c-1.3,0-2.4-1.1-2.4-2.4s1.1-2.4,2.4-2.4s2.4,1.1,2.4,2.4
				S-695-119.5-696.3-119.5z"/>
		</g>
		<g>
			<circle class="st9" cx="-770.7" cy="-121.9" r="14.3"/>
			
				<linearGradient id="SVGID_17_" gradientUnits="userSpaceOnUse" x1="-784.0106" y1="-739.3016" x2="-757.3553" y2="-739.3016" gradientTransform="matrix(1 0 0 -1 0 -861.184)">
				<stop  offset="0" style="stop-color:#EF7852"/>
				<stop  offset="1" style="stop-color:#EB5C2C"/>
			</linearGradient>
			<circle class="st22" cx="-770.7" cy="-121.9" r="13.3"/>
			
				<linearGradient id="SVGID_18_" gradientUnits="userSpaceOnUse" x1="-781.7894" y1="-739.3016" x2="-759.5766" y2="-739.3016" gradientTransform="matrix(1 0 0 -1 0 -861.184)">
				<stop  offset="0" style="stop-color:#EB5C2C"/>
				<stop  offset="1" style="stop-color:#EF7852"/>
			</linearGradient>
			<path class="st23" d="M-770.7-110.8c-6.1,0-11.1-5-11.1-11.1c0-6.1,5-11.1,11.1-11.1c6.1,0,11.1,5,11.1,11.1
				C-759.6-115.8-764.6-110.8-770.7-110.8z"/>
			<path id="home_1_" class="st9" d="M-763-123l-6.9-5.2c-0.5-0.3-1.1-0.3-1.7,0l-6.8,5.2c-0.5,0.4-0.3,1.1,0.4,1.1h0.7v4
				c0,1.4,1.2,2.6,2.6,2.6h1.3c0.4,0,0.7-0.3,0.7-0.7v-3.2c0-0.7,0.6-1.4,1.3-1.4h1.3c0.7,0,1.3,0.7,1.3,1.4v3.2
				c0,0.3,0.3,0.7,0.7,0.7h1.3c1.5,0,2.6-1.2,2.6-2.6v-4h0.7C-762.8-121.9-762.5-122.6-763-123z"/>
		</g>
	</g>
</g>
<g id="Botons_Linguagens" class="st0">
	<g class="st1">
		<g>
			<path class="st9" d="M-1050.9-394.6h-46.3c-8.6,0-15.6,7-15.6,15.6v56.5c0,8.6,7,15.6,15.6,15.6h46.3c8.6,0,15.6-7,15.6-15.6
				v-56.5C-1035.3-387.6-1042.3-394.6-1050.9-394.6z"/>
			<linearGradient id="SVGID_19_" gradientUnits="userSpaceOnUse" x1="-1110.1708" y1="-350.6738" x2="-1037.9479" y2="-350.6738">
				<stop  offset="0" style="stop-color:#F9B654"/>
				<stop  offset="1" style="stop-color:#EF7C2C"/>
			</linearGradient>
			<path class="st24" d="M-1050.9-391.9h-46.3c-7.2,0-13,5.8-13,13v56.5c0,7.2,5.8,13,13,13h46.3c7.2,0,13-5.8,13-13v-56.5
				C-1037.9-386.1-1043.8-391.9-1050.9-391.9z"/>
			<linearGradient id="SVGID_20_" gradientUnits="userSpaceOnUse" x1="-1105.4401" y1="-350.6738" x2="-1042.6786" y2="-350.6738">
				<stop  offset="0" style="stop-color:#EF7C2C"/>
				<stop  offset="1" style="stop-color:#F9B654"/>
			</linearGradient>
			<path class="st25" d="M-1050.9-387.2h-46.3c-4.5,0-8.3,3.7-8.3,8.3v56.5c0,4.5,3.7,8.3,8.3,8.3h46.3c4.5,0,8.3-3.7,8.3-8.3v-56.5
				C-1042.7-383.5-1046.4-387.2-1050.9-387.2z"/>
			<polygon class="st9" points="-1058.2,-363.1 -1057.6,-370.3 -1074.1,-370.5 -1090.6,-370.7 -1089.6,-349 -1074.4,-348.9 
				-1066.5,-348.8 -1067.1,-340.6 -1074.6,-338.2 -1081.9,-340.8 -1082.2,-345.3 -1089.4,-345.4 -1088.8,-335.5 -1074.6,-330.6 
				-1060.3,-335.1 -1058.8,-355.9 -1074.3,-356.1 -1082.6,-356.2 -1083.1,-363.4 -1074.2,-363.3 			"/>
			<path class="st5" d="M-1050.9-317.3c2.8,0,5.1-2.3,5.1-5.1v-56.5c0-2.8-2.3-5.1-5.1-5.1h-46.3c-2.8,0-5.1,2.3-5.1,5.1v56.5
				c0,2.8,2.3,5.1,5.1,5.1H-1050.9z"/>
		</g>
		<g>
			<g>
				<path class="st9" d="M-1146.8-394.6h-46.3c-8.6,0-15.6,7-15.6,15.6v56.5c0,8.6,7,15.6,15.6,15.6h46.3c8.6,0,15.6-7,15.6-15.6
					v-56.5C-1131.2-387.6-1138.2-394.6-1146.8-394.6z"/>
				<linearGradient id="SVGID_21_" gradientUnits="userSpaceOnUse" x1="-1206.0432" y1="-350.6738" x2="-1133.8203" y2="-350.6738">
					<stop  offset="0" style="stop-color:#FFDFA1"/>
					<stop  offset="1" style="stop-color:#FBBE43"/>
				</linearGradient>
				<path class="st26" d="M-1146.8-391.9h-46.3c-7.2,0-13,5.8-13,13v56.5c0,7.2,5.8,13,13,13h46.3c7.2,0,13-5.8,13-13v-56.5
					C-1133.8-386.1-1139.6-391.9-1146.8-391.9z"/>
				<linearGradient id="SVGID_22_" gradientUnits="userSpaceOnUse" x1="-1201.3125" y1="-350.6738" x2="-1138.551" y2="-350.6738">
					<stop  offset="0" style="stop-color:#FBBE43"/>
					<stop  offset="1" style="stop-color:#FFDFA1"/>
				</linearGradient>
				<path class="st27" d="M-1146.8-387.2h-46.3c-4.5,0-8.3,3.7-8.3,8.3v56.5c0,4.5,3.7,8.3,8.3,8.3h46.3c4.5,0,8.3-3.7,8.3-8.3
					v-56.5C-1138.6-383.5-1142.3-387.2-1146.8-387.2z"/>
				<path class="st5" d="M-1146.8-317.3c2.8,0,5.1-2.3,5.1-5.1v-56.5c0-2.8-2.3-5.1-5.1-5.1h-46.3c-2.8,0-5.1,2.3-5.1,5.1v56.5
					c0,2.8,2.3,5.1,5.1,5.1H-1146.8z"/>
			</g>
			<g>
				<polygon class="st9" points="-1147.5,-372.2 -1148.1,-365.6 -1160.8,-365.6 -1160.8,-352.3 -1149.1,-354 -1150.9,-333.7 
					-1167.4,-329.1 -1167.4,-336.7 -1156.3,-339.8 -1155.8,-346 -1167.4,-344 -1167.4,-372.2 				"/>
				<polygon class="st9" points="-1174.1,-372.2 -1174.1,-329.1 -1192.3,-334.2 -1192.3,-342.4 -1180.7,-339.1 -1180.7,-372.2 				
					"/>
			</g>
		</g>
		<g>
			<g>
				<path class="st9" d="M-1050.9-284.4h-46.3c-8.6,0-15.6,7-15.6,15.6v56.5c0,8.6,7,15.6,15.6,15.6h46.3c8.6,0,15.6-7,15.6-15.6
					v-56.5C-1035.3-277.4-1042.3-284.4-1050.9-284.4z"/>
				<linearGradient id="SVGID_23_" gradientUnits="userSpaceOnUse" x1="-1110.1708" y1="-240.5384" x2="-1037.9479" y2="-240.5384">
					<stop  offset="0" style="stop-color:#BDA4CF;stop-opacity:0.9"/>
					<stop  offset="1" style="stop-color:#564B9A"/>
				</linearGradient>
				<path class="st28" d="M-1050.9-281.8h-46.3c-7.2,0-13,5.8-13,13v56.5c0,7.2,5.8,13,13,13h46.3c7.2,0,13-5.8,13-13v-56.5
					C-1037.9-276-1043.8-281.8-1050.9-281.8z"/>
				<linearGradient id="SVGID_24_" gradientUnits="userSpaceOnUse" x1="-1105.4401" y1="-240.5384" x2="-1042.6786" y2="-240.5384">
					<stop  offset="0" style="stop-color:#564B9A"/>
					<stop  offset="1" style="stop-color:#BDA4CF;stop-opacity:0.9"/>
				</linearGradient>
				<path class="st29" d="M-1050.9-277.1h-46.3c-4.5,0-8.3,3.7-8.3,8.3v56.5c0,4.5,3.7,8.3,8.3,8.3h46.3c4.5,0,8.3-3.7,8.3-8.3
					v-56.5C-1042.7-273.4-1046.4-277.1-1050.9-277.1z"/>
				<path class="st5" d="M-1050.9-207.2c2.8,0,5.1-2.3,5.1-5.1v-56.5c0-2.8-2.3-5.1-5.1-5.1h-46.3c-2.8,0-5.1,2.3-5.1,5.1v56.5
					c0,2.8,2.3,5.1,5.1,5.1H-1050.9z"/>
			</g>
			<g>
				<polygon class="st30" points="-1063.8,-244.9 -1066.8,-244.9 -1066.8,-242 -1069.7,-242 -1069.7,-239.1 -1066.8,-239.1 
					-1066.8,-236.2 -1063.8,-236.2 -1063.8,-239.1 -1060.9,-239.1 -1060.9,-242 -1063.8,-242 				"/>
				<polygon class="st30" points="-1050.7,-242 -1053.6,-242 -1053.6,-244.9 -1056.5,-244.9 -1056.5,-242 -1059.5,-242 
					-1059.5,-239.1 -1056.5,-239.1 -1056.5,-236.2 -1053.6,-236.2 -1053.6,-239.1 -1050.7,-239.1 				"/>
				<path class="st9" d="M-1068.2-235.4l9,4.9c-3.5,6.2-10.2,10.4-17.8,10.4c-11.3,0-20.4-9.2-20.4-20.5c0-11.3,9.2-20.4,20.4-20.4
					c7.5,0,14,4,17.6,10.1l-8.9,5.1c-1.8-2.9-5-4.9-8.7-4.9c-5.6,0-10.2,4.6-10.2,10.2c0,5.6,4.6,10.2,10.2,10.2
					C-1073.2-230.3-1069.9-232.3-1068.2-235.4z"/>
			</g>
		</g>
		<g>
			<g>
				<path class="st9" d="M-1146.8-284.4h-46.3c-8.6,0-15.6,7-15.6,15.6v56.5c0,8.6,7,15.6,15.6,15.6h46.3c8.6,0,15.6-7,15.6-15.6
					v-56.5C-1131.2-277.4-1138.2-284.4-1146.8-284.4z"/>
				<linearGradient id="SVGID_25_" gradientUnits="userSpaceOnUse" x1="-1206.0432" y1="-240.5384" x2="-1133.8203" y2="-240.5384">
					<stop  offset="0" style="stop-color:#B3DEE9;stop-opacity:0.9"/>
					<stop  offset="1" style="stop-color:#3490CF"/>
				</linearGradient>
				<path class="st31" d="M-1146.8-281.8h-46.3c-7.2,0-13,5.8-13,13v56.5c0,7.2,5.8,13,13,13h46.3c7.2,0,13-5.8,13-13v-56.5
					C-1133.8-276-1139.6-281.8-1146.8-281.8z"/>
				<linearGradient id="SVGID_26_" gradientUnits="userSpaceOnUse" x1="-1201.3125" y1="-240.5384" x2="-1138.551" y2="-240.5384">
					<stop  offset="0" style="stop-color:#3490CF"/>
					<stop  offset="1" style="stop-color:#B3DEE9;stop-opacity:0.9"/>
				</linearGradient>
				<path class="st32" d="M-1146.8-277.1h-46.3c-4.5,0-8.3,3.7-8.3,8.3v56.5c0,4.5,3.7,8.3,8.3,8.3h46.3c4.5,0,8.3-3.7,8.3-8.3
					v-56.5C-1138.6-273.4-1142.3-277.1-1146.8-277.1z"/>
				<path class="st5" d="M-1146.8-207.2c2.8,0,5.1-2.3,5.1-5.1v-56.5c0-2.8-2.3-5.1-5.1-5.1h-46.3c-2.8,0-5.1,2.3-5.1,5.1v56.5
					c0,2.8,2.3,5.1,5.1,5.1H-1146.8z"/>
			</g>
			<path class="st30" d="M-1185.9-234.8h7.8l0.2,4.9l8,2.7l8-2.7l0.6-8.8h-17.3l-0.4-7.8h18.1l0.6-7.8h-27.1l-0.6-7.8h35.9l-1,15.7
				l-1.4,22.6l-15.5,5.1l-15.5-5.1L-1185.9-234.8z"/>
		</g>
		<g>
			<g>
				<path class="st9" d="M-1050.9-175.3h-46.3c-8.6,0-15.6,7-15.6,15.6v56.5c0,8.6,7,15.6,15.6,15.6h46.3c8.6,0,15.6-7,15.6-15.6
					v-56.5C-1035.3-168.3-1042.3-175.3-1050.9-175.3z"/>
				<linearGradient id="SVGID_27_" gradientUnits="userSpaceOnUse" x1="-1110.1708" y1="-131.4439" x2="-1037.9479" y2="-131.4439">
					<stop  offset="0" style="stop-color:#7DAFDF;stop-opacity:0.9"/>
					<stop  offset="1" style="stop-color:#264798"/>
				</linearGradient>
				<path class="st33" d="M-1050.9-172.7h-46.3c-7.2,0-13,5.8-13,13v56.5c0,7.2,5.8,13,13,13h46.3c7.2,0,13-5.8,13-13v-56.5
					C-1037.9-166.9-1043.8-172.7-1050.9-172.7z"/>
				<linearGradient id="SVGID_28_" gradientUnits="userSpaceOnUse" x1="-1105.4401" y1="-131.4439" x2="-1042.6786" y2="-131.4439">
					<stop  offset="0" style="stop-color:#264798"/>
					<stop  offset="1" style="stop-color:#7DAFDF;stop-opacity:0.9"/>
				</linearGradient>
				<path class="st34" d="M-1050.9-168h-46.3c-4.5,0-8.3,3.7-8.3,8.3v56.5c0,4.5,3.7,8.3,8.3,8.3h46.3c4.5,0,8.3-3.7,8.3-8.3v-56.5
					C-1042.7-164.3-1046.4-168-1050.9-168z"/>
				<path class="st5" d="M-1050.9-98.1c2.8,0,5.1-2.3,5.1-5.1v-56.5c0-2.8-2.3-5.1-5.1-5.1h-46.3c-2.8,0-5.1,2.3-5.1,5.1v56.5
					c0,2.8,2.3,5.1,5.1,5.1H-1050.9z"/>
			</g>
			<g>
				<path class="st9" d="M-1073.5-153.6c-1.8,0-3.1,0.2-4.6,0.4c-4.5,0.8-5.3,2.4-5.3,5.4v4.6h10.5v2.3h-10.9h-5.1
					c-3.1,0-5.8,1.4-6.6,4.9c-1,4-1,6.5,0,10.6c0.8,3.1,2.4,5.4,5.5,5.4h4.2v-5.9c0-3.5,3.1-6.9,6.7-6.9h8.4c2.9,0,5.8-2.2,5.8-5.1
					v-10c0-2.8-2-5-4.9-5.4C-1069.6-153.1-1071.7-153.6-1073.5-153.6z M-1079.3-148.9c1,0,1.7,0.8,1.7,1.7c0,1-0.8,1.7-1.7,1.7
					c-1,0-1.7-0.8-1.7-1.7C-1081-148.1-1080.3-148.9-1079.3-148.9z"/>
				<path class="st9" d="M-1074.6-109.3c1.8,0,3.1-0.2,4.6-0.4c4.5-0.8,5.3-2.4,5.3-5.4v-4.6h-10.5v-2.3h10.9h5.1
					c3.1,0,5.8-1.4,6.6-4.9c1-4,1-6.5,0-10.6c-0.8-3.1-2.4-5.4-5.5-5.4h-4.2v5.9c0,3.5-3.1,6.9-6.7,6.9h-8.4c-2.9,0-5.8,2.2-5.8,5.1
					v10c0,2.8,2,5,4.9,5.4C-1078.5-109.8-1076.4-109.3-1074.6-109.3z M-1068.8-114c-1,0-1.7-0.8-1.7-1.7c0-1,0.8-1.7,1.7-1.7
					c1,0,1.7,0.8,1.7,1.7C-1067.1-114.8-1067.9-114-1068.8-114z"/>
			</g>
		</g>
		<g>
			<g>
				<path class="st9" d="M-1146.8-175.3h-46.3c-8.6,0-15.6,7-15.6,15.6v56.5c0,8.6,7,15.6,15.6,15.6h46.3c8.6,0,15.6-7,15.6-15.6
					v-56.5C-1131.2-168.3-1138.2-175.3-1146.8-175.3z"/>
				<linearGradient id="SVGID_29_" gradientUnits="userSpaceOnUse" x1="-1206.0432" y1="-131.4439" x2="-1133.8203" y2="-131.4439">
					<stop  offset="0" style="stop-color:#E62C2C;stop-opacity:0.9"/>
					<stop  offset="1" style="stop-color:#7B170F"/>
				</linearGradient>
				<path class="st35" d="M-1146.8-172.7h-46.3c-7.2,0-13,5.8-13,13v56.5c0,7.2,5.8,13,13,13h46.3c7.2,0,13-5.8,13-13v-56.5
					C-1133.8-166.9-1139.6-172.7-1146.8-172.7z"/>
				<linearGradient id="SVGID_30_" gradientUnits="userSpaceOnUse" x1="-1201.3125" y1="-131.4439" x2="-1138.551" y2="-131.4439">
					<stop  offset="0" style="stop-color:#7B170F"/>
					<stop  offset="1" style="stop-color:#E62C2C;stop-opacity:0.9"/>
				</linearGradient>
				<path class="st36" d="M-1146.8-168h-46.3c-4.5,0-8.3,3.7-8.3,8.3v56.5c0,4.5,3.7,8.3,8.3,8.3h46.3c4.5,0,8.3-3.7,8.3-8.3v-56.5
					C-1138.6-164.3-1142.3-168-1146.8-168z"/>
				<path class="st5" d="M-1146.8-98.1c2.8,0,5.1-2.3,5.1-5.1v-56.5c0-2.8-2.3-5.1-5.1-5.1h-46.3c-2.8,0-5.1,2.3-5.1,5.1v56.5
					c0,2.8,2.3,5.1,5.1,5.1H-1146.8z"/>
			</g>
			<g>
				<path class="st9" d="M-1170.4-130.3c-1.3-2.1-2.2-3.8-3.5-7c-2.2-5.4,13.2-10.3,7-19.8c2.7,6.5-9.7,10.5-10.9,16
					C-1178.8-136.1-1170.4-130.3-1170.4-130.3z"/>
				<path class="st9" d="M-1170.1-140.1c-0.2,3.2,2.9,4.9,2.9,7.3c0.1,1.9-1.9,3.5-1.9,3.5s3.5-0.7,4.6-3.6c1.2-3.2-2.3-5.5-2-8.1
					c0.3-2.5,7.7-7.1,7.7-7.1S-1169.5-147.3-1170.1-140.1z"/>
				<g>
					<path class="st9" d="M-1159.6-130.1c2.2-0.5,4.1,0.9,4.1,2.6c0,3.7-5.1,7.2-5.1,7.2s8-1,8-7.1
						C-1152.6-131.4-1156.5-132.4-1159.6-130.1z M-1163.4-127.1c0,0,2.5-1.8,3.1-2.4c-6.1,1.3-20,1.5-20,0.3c0-1,4.5-2.1,4.5-2.1
						s-10-0.1-10,2.8C-1185.7-125.4-1172.7-125.2-1163.4-127.1z"/>
					<path class="st9" d="M-1164.9-124.3c-5.8,1.9-16.4,1.3-13.3-1.3c-1.5,0-3.8,1.2-3.8,2.4c0,2.4,11.5,4.2,20,0.7L-1164.9-124.3z"
						/>
					<path class="st9" d="M-1176.7-120.3c-2.1,0-3.5,1.3-3.5,2.3c0,3.1,12.5,3.4,17.5,0.3l-3.1-2.1
						C-1169.6-118.1-1178.9-117.9-1176.7-120.3z"/>
					<path class="st9" d="M-1154.2-115.3c0-1.2-1.4-1.8-1.8-2c2.9,6.9-28.6,6.3-28.6,2.3c0-0.9,2.3-1.8,4.5-1.4l-1.8-1.1
						c-4.3-0.7-7.2,1.2-7.2,2.7C-1189.1-107.7-1154.2-108.1-1154.2-115.3z"/>
					<path class="st9" d="M-1150.7-112.7c-5.3,5.2-18.8,7.2-32.3,3.9C-1169.5-103.1-1150.8-106.3-1150.7-112.7z"/>
				</g>
			</g>
		</g>
	</g>
</g>
<g id="Card_Conteudo" class="st0">
	<g class="st1">
		<g>
			<g>
				<path class="st9" d="M-1039.3-56.2h-165c-8.2,0-14.8,6.7-14.8,14.8v53.8c0,8.2,6.7,14.8,14.8,14.8h165c8.2,0,14.8-6.7,14.8-14.8
					v-53.8C-1024.5-49.6-1031.1-56.2-1039.3-56.2z"/>
				<linearGradient id="SVGID_31_" gradientUnits="userSpaceOnUse" x1="-1216.6632" y1="-14.4873" x2="-1026.9635" y2="-14.4873">
					<stop  offset="0" style="stop-color:#222222"/>
					<stop  offset="1" style="stop-color:#0D0E0E"/>
				</linearGradient>
				<path class="st37" d="M-1039.3-53.7h-165c-6.8,0-12.3,5.5-12.3,12.3v53.8c0,6.8,5.5,12.3,12.3,12.3h165
					c6.8,0,12.3-5.5,12.3-12.3v-53.8C-1027-48.2-1032.5-53.7-1039.3-53.7z"/>
				<linearGradient id="SVGID_32_" gradientUnits="userSpaceOnUse" x1="-1212.1632" y1="-14.4873" x2="-1031.4635" y2="-14.4873">
					<stop  offset="0" style="stop-color:#0D0E0E"/>
					<stop  offset="1" style="stop-color:#222222"/>
				</linearGradient>
				<path class="st38" d="M-1039.3-49.2h-165c-4.3,0-7.8,3.5-7.8,7.8v53.8c0,4.3,3.5,7.8,7.8,7.8h165c4.3,0,7.8-3.5,7.8-7.8v-53.8
					C-1031.5-45.7-1035-49.2-1039.3-49.2z"/>
				<path class="st5" d="M-1039.3,17.3c2.7,0,4.8-2.2,4.8-4.8v-53.8c0-2.7-2.2-4.8-4.8-4.8h-165c-2.7,0-4.8,2.2-4.8,4.8v53.8
					c0,2.7,2.2,4.8,4.8,4.8H-1039.3z"/>
			</g>
			<g>
				<path class="st9" d="M-1160.7-56.6h-44c-8.2,0-14.8,6.7-14.8,14.8V12c0,8.2,6.7,14.8,14.8,14.8h44c8.2,0,14.8-6.7,14.8-14.8
					v-53.8C-1145.8-49.9-1152.5-56.6-1160.7-56.6z"/>
				<linearGradient id="SVGID_33_" gradientUnits="userSpaceOnUse" x1="-1217.0276" y1="-14.8585" x2="-1148.3279" y2="-14.8585">
					<stop  offset="0" style="stop-color:#F9B654"/>
					<stop  offset="1" style="stop-color:#EF7C2C"/>
				</linearGradient>
				<path class="st39" d="M-1160.7-54.1h-44c-6.8,0-12.3,5.5-12.3,12.3V12c0,6.8,5.5,12.3,12.3,12.3h44c6.8,0,12.3-5.5,12.3-12.3
					v-53.8C-1148.3-48.6-1153.9-54.1-1160.7-54.1z"/>
				<linearGradient id="SVGID_34_" gradientUnits="userSpaceOnUse" x1="-1212.5276" y1="-14.8585" x2="-1152.8279" y2="-14.8585">
					<stop  offset="0" style="stop-color:#EF7C2C"/>
					<stop  offset="1" style="stop-color:#F9B654"/>
				</linearGradient>
				<path class="st40" d="M-1160.7-49.6h-44c-4.3,0-7.8,3.5-7.8,7.8V12c0,4.3,3.5,7.8,7.8,7.8h44c4.3,0,7.8-3.5,7.8-7.8v-53.8
					C-1152.8-46.1-1156.3-49.6-1160.7-49.6z"/>
				<polygon class="st9" points="-1167.6,-26.7 -1167,-33.5 -1182.8,-33.7 -1198.4,-33.9 -1197.4,-13.3 -1183,-13.1 -1175.5,-13 
					-1176.1,-5.3 -1183.1,-3 -1190.2,-5.5 -1190.4,-9.8 -1197.3,-9.9 -1196.7,-0.4 -1183.2,4.2 -1169.6,-0.1 -1168.2,-19.8 
					-1182.9,-20 -1190.8,-20.1 -1191.3,-27 -1182.8,-26.9 				"/>
				<path class="st5" d="M-1160.7,16.9c2.7,0,4.8-2.2,4.8-4.8v-53.8c0-2.7-2.2-4.8-4.8-4.8h-44c-2.7,0-4.8,2.2-4.8,4.8V12
					c0,2.7,2.2,4.8,4.8,4.8H-1160.7z"/>
			</g>
			<rect x="-1141.4" y="-18" style="fill:none;" width="102.9" height="31.7"/>
			<text transform="matrix(1 0 0 1 -1141.3883 -13.825)"><tspan x="0" y="0" class="st9" style="font-family:'Roboto-Regular'; font-size:5.5115px;">Lorem</tspan><tspan x="15.8" y="0" class="st9" style="font-family:'Roboto-Regular'; font-size:5.5115px;"> </tspan><tspan x="17.7" y="0" class="st9" style="font-family:'Roboto-Regular'; font-size:5.5115px;">ipsum</tspan><tspan x="33.1" y="0" class="st9" style="font-family:'Roboto-Regular'; font-size:5.5115px;"> </tspan><tspan x="35" y="0" class="st9" style="font-family:'Roboto-Regular'; font-size:5.5115px;">dolor</tspan><tspan x="47.8" y="0" class="st9" style="font-family:'Roboto-Regular'; font-size:5.5115px;"> </tspan><tspan x="49.7" y="0" class="st9" style="font-family:'Roboto-Regular'; font-size:5.5115px;">sit</tspan><tspan x="55.8" y="0" class="st9" style="font-family:'Roboto-Regular'; font-size:5.5115px;"> </tspan><tspan x="57.8" y="0" class="st9" style="font-family:'Roboto-Regular'; font-size:5.5115px;">amet,</tspan><tspan x="71.5" y="0" class="st9" style="font-family:'Roboto-Regular'; font-size:5.5115px;"> </tspan><tspan x="73.4" y="0" class="st9" style="font-family:'Roboto-Regular'; font-size:5.5115px;">consectetur </tspan><tspan x="0" y="6.6" class="st9" style="font-family:'Roboto-Regular'; font-size:5.5115px;">adipiscing</tspan><tspan x="25.5" y="6.6" class="st9" style="font-family:'Roboto-Regular'; font-size:5.5115px; letter-spacing:1;"> </tspan><tspan x="28.4" y="6.6" class="st9" style="font-family:'Roboto-Regular'; font-size:5.5115px;">elit,</tspan><tspan x="37" y="6.6" class="st9" style="font-family:'Roboto-Regular'; font-size:5.5115px; letter-spacing:1;"> </tspan><tspan x="39.9" y="6.6" class="st9" style="font-family:'Roboto-Regular'; font-size:5.5115px;">sed</tspan><tspan x="48.8" y="6.6" class="st9" style="font-family:'Roboto-Regular'; font-size:5.5115px; letter-spacing:1;"> </tspan><tspan x="51.7" y="6.6" class="st9" style="font-family:'Roboto-Regular'; font-size:5.5115px;">do</tspan><tspan x="58" y="6.6" class="st9" style="font-family:'Roboto-Regular'; font-size:5.5115px; letter-spacing:1;"> </tspan><tspan x="60.9" y="6.6" class="st9" style="font-family:'Roboto-Regular'; font-size:5.5115px;">eiusmod</tspan><tspan x="82.2" y="6.6" class="st9" style="font-family:'Roboto-Regular'; font-size:5.5115px; letter-spacing:1;"> </tspan><tspan x="85.1" y="6.6" class="st9" style="font-family:'Roboto-Regular'; font-size:5.5115px;">tempor </tspan><tspan x="0" y="13.2" class="st9" style="font-family:'Roboto-Regular'; font-size:5.5115px;">incididunt</tspan><tspan x="24.6" y="13.2" class="st9" style="font-family:'Roboto-Regular'; font-size:5.5115px; letter-spacing:2;"> </tspan><tspan x="28.6" y="13.2" class="st9" style="font-family:'Roboto-Regular'; font-size:5.5115px;">ut</tspan><tspan x="33.6" y="13.2" class="st9" style="font-family:'Roboto-Regular'; font-size:5.5115px; letter-spacing:2;"> </tspan><tspan x="37.7" y="13.2" class="st9" style="font-family:'Roboto-Regular'; font-size:5.5115px;">labore</tspan><tspan x="53.2" y="13.2" class="st9" style="font-family:'Roboto-Regular'; font-size:5.5115px; letter-spacing:2;"> </tspan><tspan x="57.3" y="13.2" class="st9" style="font-family:'Roboto-Regular'; font-size:5.5115px;">et</tspan><tspan x="62" y="13.2" class="st9" style="font-family:'Roboto-Regular'; font-size:5.5115px; letter-spacing:2;"> </tspan><tspan x="66.1" y="13.2" class="st9" style="font-family:'Roboto-Regular'; font-size:5.5115px;">dolore</tspan><tspan x="81.7" y="13.2" class="st9" style="font-family:'Roboto-Regular'; font-size:5.5115px; letter-spacing:2;"> </tspan><tspan x="85.7" y="13.2" class="st9" style="font-family:'Roboto-Regular'; font-size:5.5115px;">magna </tspan><tspan x="0" y="19.8" class="st9" style="font-family:'Roboto-Regular'; font-size:5.5115px;">aliqua.</tspan><tspan x="16.6" y="19.8" class="st9" style="font-family:'Roboto-Regular'; font-size:5.5115px; letter-spacing:1;"> </tspan><tspan x="19.4" y="19.8" class="st9" style="font-family:'Roboto-Regular'; font-size:5.5115px;">Ut</tspan><tspan x="25" y="19.8" class="st9" style="font-family:'Roboto-Regular'; font-size:5.5115px; letter-spacing:1;"> </tspan><tspan x="27.9" y="19.8" class="st9" style="font-family:'Roboto-Regular'; font-size:5.5115px;">enim</tspan><tspan x="40.1" y="19.8" class="st9" style="font-family:'Roboto-Regular'; font-size:5.5115px; letter-spacing:1;"> </tspan><tspan x="43" y="19.8" class="st9" style="font-family:'Roboto-Regular'; font-size:5.5115px;">ad</tspan><tspan x="49.1" y="19.8" class="st9" style="font-family:'Roboto-Regular'; font-size:5.5115px; letter-spacing:1;"> </tspan><tspan x="52" y="19.8" class="st9" style="font-family:'Roboto-Regular'; font-size:5.5115px;">minim</tspan><tspan x="67.5" y="19.8" class="st9" style="font-family:'Roboto-Regular'; font-size:5.5115px; letter-spacing:1;"> </tspan><tspan x="70.4" y="19.8" class="st9" style="font-family:'Roboto-Regular'; font-size:5.5115px;">veniam,</tspan><tspan x="89.5" y="19.8" class="st9" style="font-family:'Roboto-Regular'; font-size:5.5115px; letter-spacing:1;"> </tspan><tspan x="92.3" y="19.8" class="st9" style="font-family:'Roboto-Regular'; font-size:5.5115px;">quis </tspan><tspan x="0" y="26.5" class="st9" style="font-family:'Roboto-Regular'; font-size:5.5115px;">nostrud</tspan><tspan x="19.2" y="26.5" class="st9" style="font-family:'Roboto-Regular'; font-size:5.5115px;"> </tspan><tspan x="21.5" y="26.5" class="st9" style="font-family:'Roboto-Regular'; font-size:5.5115px;">exercitation</tspan><tspan x="50.6" y="26.5" class="st9" style="font-family:'Roboto-Regular'; font-size:5.5115px;"> </tspan><tspan x="52.9" y="26.5" class="st9" style="font-family:'Roboto-Regular'; font-size:5.5115px;">ullamco</tspan><tspan x="72.7" y="26.5" class="st9" style="font-family:'Roboto-Regular'; font-size:5.5115px;"> </tspan><tspan x="74.9" y="26.5" class="st9" style="font-family:'Roboto-Regular'; font-size:5.5115px;">laboris</tspan><tspan x="91.8" y="26.5" class="st9" style="font-family:'Roboto-Regular'; font-size:5.5115px;"> </tspan><tspan x="94.1" y="26.5" class="st9" style="font-family:'Roboto-Regular'; font-size:5.5115px;">nisi </tspan></text>
			<rect x="-1141.4" y="-43.1" style="fill:none;" width="102.9" height="21.2"/>
			<text transform="matrix(1 0 0 1 -1141.3883 -36.388)"><tspan x="0" y="0" class="st9" style="font-family:'Roboto-Bold'; font-size:8.8184px;">Lorem ipsum dolor sit </tspan><tspan x="0" y="10.6" class="st9" style="font-family:'Roboto-Bold'; font-size:8.8184px;">amet, consectetur </tspan></text>
		</g>
		<g>
			<g>
				<path class="st9" d="M-1039.5,48.4h-165c-8.2,0-14.8,6.7-14.8,14.8V117c0,8.2,6.7,14.8,14.8,14.8h165c8.2,0,14.8-6.7,14.8-14.8
					V63.2C-1024.6,55-1031.3,48.4-1039.5,48.4z"/>
				<linearGradient id="SVGID_35_" gradientUnits="userSpaceOnUse" x1="-1216.8455" y1="90.0928" x2="-1027.1458" y2="90.0928">
					<stop  offset="0" style="stop-color:#222222"/>
					<stop  offset="1" style="stop-color:#0D0E0E"/>
				</linearGradient>
				<path class="st41" d="M-1039.5,50.9h-165c-6.8,0-12.3,5.5-12.3,12.3V117c0,6.8,5.5,12.3,12.3,12.3h165c6.8,0,12.3-5.5,12.3-12.3
					V63.2C-1027.1,56.4-1032.7,50.9-1039.5,50.9z"/>
				<linearGradient id="SVGID_36_" gradientUnits="userSpaceOnUse" x1="-1212.3455" y1="90.0928" x2="-1031.6458" y2="90.0928">
					<stop  offset="0" style="stop-color:#0D0E0E"/>
					<stop  offset="1" style="stop-color:#222222"/>
				</linearGradient>
				<path class="st42" d="M-1039.5,55.4h-165c-4.3,0-7.8,3.5-7.8,7.8V117c0,4.3,3.5,7.8,7.8,7.8h165c4.3,0,7.8-3.5,7.8-7.8V63.2
					C-1031.6,58.9-1035.2,55.4-1039.5,55.4z"/>
				<path class="st5" d="M-1039.5,121.8c2.7,0,4.8-2.2,4.8-4.8V63.2c0-2.7-2.2-4.8-4.8-4.8h-165c-2.7,0-4.8,2.2-4.8,4.8V117
					c0,2.7,2.2,4.8,4.8,4.8H-1039.5z"/>
			</g>
			<rect x="-1141.6" y="86.6" style="fill:none;" width="102.9" height="31.7"/>
			<text transform="matrix(1 0 0 1 -1141.5704 90.755)"><tspan x="0" y="0" class="st9" style="font-family:'Roboto-Regular'; font-size:5.5115px;">Lorem</tspan><tspan x="15.8" y="0" class="st9" style="font-family:'Roboto-Regular'; font-size:5.5115px;"> </tspan><tspan x="17.7" y="0" class="st9" style="font-family:'Roboto-Regular'; font-size:5.5115px;">ipsum</tspan><tspan x="33.1" y="0" class="st9" style="font-family:'Roboto-Regular'; font-size:5.5115px;"> </tspan><tspan x="35" y="0" class="st9" style="font-family:'Roboto-Regular'; font-size:5.5115px;">dolor</tspan><tspan x="47.8" y="0" class="st9" style="font-family:'Roboto-Regular'; font-size:5.5115px;"> </tspan><tspan x="49.7" y="0" class="st9" style="font-family:'Roboto-Regular'; font-size:5.5115px;">sit</tspan><tspan x="55.8" y="0" class="st9" style="font-family:'Roboto-Regular'; font-size:5.5115px;"> </tspan><tspan x="57.8" y="0" class="st9" style="font-family:'Roboto-Regular'; font-size:5.5115px;">amet,</tspan><tspan x="71.5" y="0" class="st9" style="font-family:'Roboto-Regular'; font-size:5.5115px;"> </tspan><tspan x="73.4" y="0" class="st9" style="font-family:'Roboto-Regular'; font-size:5.5115px;">consectetur </tspan><tspan x="0" y="6.6" class="st9" style="font-family:'Roboto-Regular'; font-size:5.5115px;">adipiscing</tspan><tspan x="25.5" y="6.6" class="st9" style="font-family:'Roboto-Regular'; font-size:5.5115px; letter-spacing:1;"> </tspan><tspan x="28.4" y="6.6" class="st9" style="font-family:'Roboto-Regular'; font-size:5.5115px;">elit,</tspan><tspan x="37" y="6.6" class="st9" style="font-family:'Roboto-Regular'; font-size:5.5115px; letter-spacing:1;"> </tspan><tspan x="39.9" y="6.6" class="st9" style="font-family:'Roboto-Regular'; font-size:5.5115px;">sed</tspan><tspan x="48.8" y="6.6" class="st9" style="font-family:'Roboto-Regular'; font-size:5.5115px; letter-spacing:1;"> </tspan><tspan x="51.7" y="6.6" class="st9" style="font-family:'Roboto-Regular'; font-size:5.5115px;">do</tspan><tspan x="58" y="6.6" class="st9" style="font-family:'Roboto-Regular'; font-size:5.5115px; letter-spacing:1;"> </tspan><tspan x="60.9" y="6.6" class="st9" style="font-family:'Roboto-Regular'; font-size:5.5115px;">eiusmod</tspan><tspan x="82.2" y="6.6" class="st9" style="font-family:'Roboto-Regular'; font-size:5.5115px; letter-spacing:1;"> </tspan><tspan x="85.1" y="6.6" class="st9" style="font-family:'Roboto-Regular'; font-size:5.5115px;">tempor </tspan><tspan x="0" y="13.2" class="st9" style="font-family:'Roboto-Regular'; font-size:5.5115px;">incididunt</tspan><tspan x="24.6" y="13.2" class="st9" style="font-family:'Roboto-Regular'; font-size:5.5115px; letter-spacing:2;"> </tspan><tspan x="28.6" y="13.2" class="st9" style="font-family:'Roboto-Regular'; font-size:5.5115px;">ut</tspan><tspan x="33.6" y="13.2" class="st9" style="font-family:'Roboto-Regular'; font-size:5.5115px; letter-spacing:2;"> </tspan><tspan x="37.7" y="13.2" class="st9" style="font-family:'Roboto-Regular'; font-size:5.5115px;">labore</tspan><tspan x="53.2" y="13.2" class="st9" style="font-family:'Roboto-Regular'; font-size:5.5115px; letter-spacing:2;"> </tspan><tspan x="57.3" y="13.2" class="st9" style="font-family:'Roboto-Regular'; font-size:5.5115px;">et</tspan><tspan x="62" y="13.2" class="st9" style="font-family:'Roboto-Regular'; font-size:5.5115px; letter-spacing:2;"> </tspan><tspan x="66.1" y="13.2" class="st9" style="font-family:'Roboto-Regular'; font-size:5.5115px;">dolore</tspan><tspan x="81.7" y="13.2" class="st9" style="font-family:'Roboto-Regular'; font-size:5.5115px; letter-spacing:2;"> </tspan><tspan x="85.7" y="13.2" class="st9" style="font-family:'Roboto-Regular'; font-size:5.5115px;">magna </tspan><tspan x="0" y="19.8" class="st9" style="font-family:'Roboto-Regular'; font-size:5.5115px;">aliqua.</tspan><tspan x="16.6" y="19.8" class="st9" style="font-family:'Roboto-Regular'; font-size:5.5115px; letter-spacing:1;"> </tspan><tspan x="19.4" y="19.8" class="st9" style="font-family:'Roboto-Regular'; font-size:5.5115px;">Ut</tspan><tspan x="25" y="19.8" class="st9" style="font-family:'Roboto-Regular'; font-size:5.5115px; letter-spacing:1;"> </tspan><tspan x="27.9" y="19.8" class="st9" style="font-family:'Roboto-Regular'; font-size:5.5115px;">enim</tspan><tspan x="40.1" y="19.8" class="st9" style="font-family:'Roboto-Regular'; font-size:5.5115px; letter-spacing:1;"> </tspan><tspan x="43" y="19.8" class="st9" style="font-family:'Roboto-Regular'; font-size:5.5115px;">ad</tspan><tspan x="49.1" y="19.8" class="st9" style="font-family:'Roboto-Regular'; font-size:5.5115px; letter-spacing:1;"> </tspan><tspan x="52" y="19.8" class="st9" style="font-family:'Roboto-Regular'; font-size:5.5115px;">minim</tspan><tspan x="67.5" y="19.8" class="st9" style="font-family:'Roboto-Regular'; font-size:5.5115px; letter-spacing:1;"> </tspan><tspan x="70.4" y="19.8" class="st9" style="font-family:'Roboto-Regular'; font-size:5.5115px;">veniam,</tspan><tspan x="89.5" y="19.8" class="st9" style="font-family:'Roboto-Regular'; font-size:5.5115px; letter-spacing:1;"> </tspan><tspan x="92.3" y="19.8" class="st9" style="font-family:'Roboto-Regular'; font-size:5.5115px;">quis </tspan><tspan x="0" y="26.5" class="st9" style="font-family:'Roboto-Regular'; font-size:5.5115px;">nostrud</tspan><tspan x="19.2" y="26.5" class="st9" style="font-family:'Roboto-Regular'; font-size:5.5115px;"> </tspan><tspan x="21.5" y="26.5" class="st9" style="font-family:'Roboto-Regular'; font-size:5.5115px;">exercitation</tspan><tspan x="50.6" y="26.5" class="st9" style="font-family:'Roboto-Regular'; font-size:5.5115px;"> </tspan><tspan x="52.9" y="26.5" class="st9" style="font-family:'Roboto-Regular'; font-size:5.5115px;">ullamco</tspan><tspan x="72.7" y="26.5" class="st9" style="font-family:'Roboto-Regular'; font-size:5.5115px;"> </tspan><tspan x="74.9" y="26.5" class="st9" style="font-family:'Roboto-Regular'; font-size:5.5115px;">laboris</tspan><tspan x="91.8" y="26.5" class="st9" style="font-family:'Roboto-Regular'; font-size:5.5115px;"> </tspan><tspan x="94.1" y="26.5" class="st9" style="font-family:'Roboto-Regular'; font-size:5.5115px;">nisi </tspan></text>
			<rect x="-1141.6" y="61.5" style="fill:none;" width="102.9" height="21.2"/>
			<text transform="matrix(1 0 0 1 -1141.5704 68.192)"><tspan x="0" y="0" class="st9" style="font-family:'Roboto-Bold'; font-size:8.8184px;">Lorem ipsum dolor sit </tspan><tspan x="0" y="10.6" class="st9" style="font-family:'Roboto-Bold'; font-size:8.8184px;">amet, consectetur </tspan></text>
			<g>
				<g>
					<path class="st9" d="M-1160.4,48.4h-44c-8.2,0-14.8,6.7-14.8,14.8V117c0,8.2,6.7,14.8,14.8,14.8h44c8.2,0,14.8-6.7,14.8-14.8
						V63.2C-1145.6,55-1152.2,48.4-1160.4,48.4z"/>
					<linearGradient id="SVGID_37_" gradientUnits="userSpaceOnUse" x1="-1216.776" y1="90.0928" x2="-1148.0763" y2="90.0928">
						<stop  offset="0" style="stop-color:#B3DEE9;stop-opacity:0.9"/>
						<stop  offset="1" style="stop-color:#3490CF"/>
					</linearGradient>
					<path class="st43" d="M-1160.4,50.9h-44c-6.8,0-12.3,5.5-12.3,12.3V117c0,6.8,5.5,12.3,12.3,12.3h44c6.8,0,12.3-5.5,12.3-12.3
						V63.2C-1148.1,56.4-1153.6,50.9-1160.4,50.9z"/>
					<linearGradient id="SVGID_38_" gradientUnits="userSpaceOnUse" x1="-1212.276" y1="90.0928" x2="-1152.5763" y2="90.0928">
						<stop  offset="0" style="stop-color:#3490CF"/>
						<stop  offset="1" style="stop-color:#B3DEE9;stop-opacity:0.9"/>
					</linearGradient>
					<path class="st44" d="M-1160.4,55.4h-44c-4.3,0-7.8,3.5-7.8,7.8V117c0,4.3,3.5,7.8,7.8,7.8h44c4.3,0,7.8-3.5,7.8-7.8V63.2
						C-1152.6,58.9-1156.1,55.4-1160.4,55.4z"/>
					<path class="st5" d="M-1160.4,121.8c2.7,0,4.8-2.2,4.8-4.8V63.2c0-2.7-2.2-4.8-4.8-4.8h-44c-2.7,0-4.8,2.2-4.8,4.8V117
						c0,2.7,2.2,4.8,4.8,4.8H-1160.4z"/>
				</g>
				<path class="st30" d="M-1197.6,95.6h7.5l0.2,4.7l7.7,2.6l7.7-2.6l0.6-8.4h-16.4l-0.4-7.5h17.2l0.6-7.5h-25.7l-0.6-7.5h34.1
					l-0.9,14.9l-1.3,21.5l-14.7,4.9l-14.7-4.9L-1197.6,95.6z"/>
			</g>
		</g>
		<g>
			<g>
				<path class="st9" d="M-1039.5,153.1h-165c-8.2,0-14.8,6.7-14.8,14.8v53.8c0,8.2,6.7,14.8,14.8,14.8h165
					c8.2,0,14.8-6.7,14.8-14.8V168C-1024.6,159.8-1031.3,153.1-1039.5,153.1z"/>
				<linearGradient id="SVGID_39_" gradientUnits="userSpaceOnUse" x1="-1216.8455" y1="194.8585" x2="-1027.1458" y2="194.8585">
					<stop  offset="0" style="stop-color:#222222"/>
					<stop  offset="1" style="stop-color:#0D0E0E"/>
				</linearGradient>
				<path class="st45" d="M-1039.5,155.6h-165c-6.8,0-12.3,5.5-12.3,12.3v53.8c0,6.8,5.5,12.3,12.3,12.3h165
					c6.8,0,12.3-5.5,12.3-12.3V168C-1027.1,161.2-1032.7,155.6-1039.5,155.6z"/>
				<linearGradient id="SVGID_40_" gradientUnits="userSpaceOnUse" x1="-1212.3455" y1="194.8585" x2="-1031.6458" y2="194.8585">
					<stop  offset="0" style="stop-color:#0D0E0E"/>
					<stop  offset="1" style="stop-color:#222222"/>
				</linearGradient>
				<path class="st46" d="M-1039.5,160.1h-165c-4.3,0-7.8,3.5-7.8,7.8v53.8c0,4.3,3.5,7.8,7.8,7.8h165c4.3,0,7.8-3.5,7.8-7.8V168
					C-1031.6,163.6-1035.2,160.1-1039.5,160.1z"/>
				<path class="st5" d="M-1039.5,226.6c2.7,0,4.8-2.2,4.8-4.8V168c0-2.7-2.2-4.8-4.8-4.8h-165c-2.7,0-4.8,2.2-4.8,4.8v53.8
					c0,2.7,2.2,4.8,4.8,4.8H-1039.5z"/>
			</g>
			<rect x="-1141.6" y="191.3" style="fill:none;" width="102.9" height="31.7"/>
			<text transform="matrix(1 0 0 1 -1141.5704 195.5207)"><tspan x="0" y="0" class="st9" style="font-family:'Roboto-Regular'; font-size:5.5115px;">Lorem</tspan><tspan x="15.8" y="0" class="st9" style="font-family:'Roboto-Regular'; font-size:5.5115px;"> </tspan><tspan x="17.7" y="0" class="st9" style="font-family:'Roboto-Regular'; font-size:5.5115px;">ipsum</tspan><tspan x="33.1" y="0" class="st9" style="font-family:'Roboto-Regular'; font-size:5.5115px;"> </tspan><tspan x="35" y="0" class="st9" style="font-family:'Roboto-Regular'; font-size:5.5115px;">dolor</tspan><tspan x="47.8" y="0" class="st9" style="font-family:'Roboto-Regular'; font-size:5.5115px;"> </tspan><tspan x="49.7" y="0" class="st9" style="font-family:'Roboto-Regular'; font-size:5.5115px;">sit</tspan><tspan x="55.8" y="0" class="st9" style="font-family:'Roboto-Regular'; font-size:5.5115px;"> </tspan><tspan x="57.8" y="0" class="st9" style="font-family:'Roboto-Regular'; font-size:5.5115px;">amet,</tspan><tspan x="71.5" y="0" class="st9" style="font-family:'Roboto-Regular'; font-size:5.5115px;"> </tspan><tspan x="73.4" y="0" class="st9" style="font-family:'Roboto-Regular'; font-size:5.5115px;">consectetur </tspan><tspan x="0" y="6.6" class="st9" style="font-family:'Roboto-Regular'; font-size:5.5115px;">adipiscing</tspan><tspan x="25.5" y="6.6" class="st9" style="font-family:'Roboto-Regular'; font-size:5.5115px; letter-spacing:1;"> </tspan><tspan x="28.4" y="6.6" class="st9" style="font-family:'Roboto-Regular'; font-size:5.5115px;">elit,</tspan><tspan x="37" y="6.6" class="st9" style="font-family:'Roboto-Regular'; font-size:5.5115px; letter-spacing:1;"> </tspan><tspan x="39.9" y="6.6" class="st9" style="font-family:'Roboto-Regular'; font-size:5.5115px;">sed</tspan><tspan x="48.8" y="6.6" class="st9" style="font-family:'Roboto-Regular'; font-size:5.5115px; letter-spacing:1;"> </tspan><tspan x="51.7" y="6.6" class="st9" style="font-family:'Roboto-Regular'; font-size:5.5115px;">do</tspan><tspan x="58" y="6.6" class="st9" style="font-family:'Roboto-Regular'; font-size:5.5115px; letter-spacing:1;"> </tspan><tspan x="60.9" y="6.6" class="st9" style="font-family:'Roboto-Regular'; font-size:5.5115px;">eiusmod</tspan><tspan x="82.2" y="6.6" class="st9" style="font-family:'Roboto-Regular'; font-size:5.5115px; letter-spacing:1;"> </tspan><tspan x="85.1" y="6.6" class="st9" style="font-family:'Roboto-Regular'; font-size:5.5115px;">tempor </tspan><tspan x="0" y="13.2" class="st9" style="font-family:'Roboto-Regular'; font-size:5.5115px;">incididunt</tspan><tspan x="24.6" y="13.2" class="st9" style="font-family:'Roboto-Regular'; font-size:5.5115px; letter-spacing:2;"> </tspan><tspan x="28.6" y="13.2" class="st9" style="font-family:'Roboto-Regular'; font-size:5.5115px;">ut</tspan><tspan x="33.6" y="13.2" class="st9" style="font-family:'Roboto-Regular'; font-size:5.5115px; letter-spacing:2;"> </tspan><tspan x="37.7" y="13.2" class="st9" style="font-family:'Roboto-Regular'; font-size:5.5115px;">labore</tspan><tspan x="53.2" y="13.2" class="st9" style="font-family:'Roboto-Regular'; font-size:5.5115px; letter-spacing:2;"> </tspan><tspan x="57.3" y="13.2" class="st9" style="font-family:'Roboto-Regular'; font-size:5.5115px;">et</tspan><tspan x="62" y="13.2" class="st9" style="font-family:'Roboto-Regular'; font-size:5.5115px; letter-spacing:2;"> </tspan><tspan x="66.1" y="13.2" class="st9" style="font-family:'Roboto-Regular'; font-size:5.5115px;">dolore</tspan><tspan x="81.7" y="13.2" class="st9" style="font-family:'Roboto-Regular'; font-size:5.5115px; letter-spacing:2;"> </tspan><tspan x="85.7" y="13.2" class="st9" style="font-family:'Roboto-Regular'; font-size:5.5115px;">magna </tspan><tspan x="0" y="19.8" class="st9" style="font-family:'Roboto-Regular'; font-size:5.5115px;">aliqua.</tspan><tspan x="16.6" y="19.8" class="st9" style="font-family:'Roboto-Regular'; font-size:5.5115px; letter-spacing:1;"> </tspan><tspan x="19.4" y="19.8" class="st9" style="font-family:'Roboto-Regular'; font-size:5.5115px;">Ut</tspan><tspan x="25" y="19.8" class="st9" style="font-family:'Roboto-Regular'; font-size:5.5115px; letter-spacing:1;"> </tspan><tspan x="27.9" y="19.8" class="st9" style="font-family:'Roboto-Regular'; font-size:5.5115px;">enim</tspan><tspan x="40.1" y="19.8" class="st9" style="font-family:'Roboto-Regular'; font-size:5.5115px; letter-spacing:1;"> </tspan><tspan x="43" y="19.8" class="st9" style="font-family:'Roboto-Regular'; font-size:5.5115px;">ad</tspan><tspan x="49.1" y="19.8" class="st9" style="font-family:'Roboto-Regular'; font-size:5.5115px; letter-spacing:1;"> </tspan><tspan x="52" y="19.8" class="st9" style="font-family:'Roboto-Regular'; font-size:5.5115px;">minim</tspan><tspan x="67.5" y="19.8" class="st9" style="font-family:'Roboto-Regular'; font-size:5.5115px; letter-spacing:1;"> </tspan><tspan x="70.4" y="19.8" class="st9" style="font-family:'Roboto-Regular'; font-size:5.5115px;">veniam,</tspan><tspan x="89.5" y="19.8" class="st9" style="font-family:'Roboto-Regular'; font-size:5.5115px; letter-spacing:1;"> </tspan><tspan x="92.3" y="19.8" class="st9" style="font-family:'Roboto-Regular'; font-size:5.5115px;">quis </tspan><tspan x="0" y="26.5" class="st9" style="font-family:'Roboto-Regular'; font-size:5.5115px;">nostrud</tspan><tspan x="19.2" y="26.5" class="st9" style="font-family:'Roboto-Regular'; font-size:5.5115px;"> </tspan><tspan x="21.5" y="26.5" class="st9" style="font-family:'Roboto-Regular'; font-size:5.5115px;">exercitation</tspan><tspan x="50.6" y="26.5" class="st9" style="font-family:'Roboto-Regular'; font-size:5.5115px;"> </tspan><tspan x="52.9" y="26.5" class="st9" style="font-family:'Roboto-Regular'; font-size:5.5115px;">ullamco</tspan><tspan x="72.7" y="26.5" class="st9" style="font-family:'Roboto-Regular'; font-size:5.5115px;"> </tspan><tspan x="74.9" y="26.5" class="st9" style="font-family:'Roboto-Regular'; font-size:5.5115px;">laboris</tspan><tspan x="91.8" y="26.5" class="st9" style="font-family:'Roboto-Regular'; font-size:5.5115px;"> </tspan><tspan x="94.1" y="26.5" class="st9" style="font-family:'Roboto-Regular'; font-size:5.5115px;">nisi </tspan></text>
			<rect x="-1141.6" y="166.2" style="fill:none;" width="102.9" height="21.2"/>
			<text transform="matrix(1 0 0 1 -1141.5704 172.9577)"><tspan x="0" y="0" class="st9" style="font-family:'Roboto-Bold'; font-size:8.8184px;">Lorem ipsum dolor sit </tspan><tspan x="0" y="10.6" class="st9" style="font-family:'Roboto-Bold'; font-size:8.8184px;">amet, consectetur </tspan></text>
			<g>
				<g>
					<path class="st9" d="M-1160.5,153.1h-44c-8.2,0-14.8,6.7-14.8,14.8v53.8c0,8.2,6.7,14.8,14.8,14.8h44c8.2,0,14.8-6.7,14.8-14.8
						V168C-1145.6,159.8-1152.3,153.1-1160.5,153.1z"/>
					<linearGradient id="SVGID_41_" gradientUnits="userSpaceOnUse" x1="-1216.8455" y1="194.8585" x2="-1148.1458" y2="194.8585">
						<stop  offset="0" style="stop-color:#FFDFA1"/>
						<stop  offset="1" style="stop-color:#FBBE43"/>
					</linearGradient>
					<path class="st47" d="M-1160.5,155.6h-44c-6.8,0-12.3,5.5-12.3,12.3v53.8c0,6.8,5.5,12.3,12.3,12.3h44
						c6.8,0,12.3-5.5,12.3-12.3V168C-1148.1,161.2-1153.7,155.6-1160.5,155.6z"/>
					<linearGradient id="SVGID_42_" gradientUnits="userSpaceOnUse" x1="-1212.3455" y1="194.8585" x2="-1152.6458" y2="194.8585">
						<stop  offset="0" style="stop-color:#FBBE43"/>
						<stop  offset="1" style="stop-color:#FFDFA1"/>
					</linearGradient>
					<path class="st48" d="M-1160.5,160.1h-44c-4.3,0-7.8,3.5-7.8,7.8v53.8c0,4.3,3.5,7.8,7.8,7.8h44c4.3,0,7.8-3.5,7.8-7.8V168
						C-1152.6,163.6-1156.2,160.1-1160.5,160.1z"/>
					<path class="st5" d="M-1160.5,226.6c2.7,0,4.8-2.2,4.8-4.8V168c0-2.7-2.2-4.8-4.8-4.8h-44c-2.7,0-4.8,2.2-4.8,4.8v53.8
						c0,2.7,2.2,4.8,4.8,4.8H-1160.5z"/>
				</g>
				<g>
					<polygon class="st9" points="-1161.2,174.4 -1161.7,180.7 -1173.8,180.7 -1173.8,193.3 -1162.7,191.7 -1164.4,211 
						-1180.1,215.4 -1180.1,208.1 -1169.5,205.2 -1169.1,199.3 -1180.1,201.2 -1180.1,174.4 					"/>
					<polygon class="st9" points="-1186.4,174.4 -1186.4,215.4 -1203.8,210.6 -1203.8,202.8 -1192.7,205.8 -1192.7,174.4 					"/>
				</g>
			</g>
		</g>
	</g>
</g>
<g id="Boton_Search_e_Voltar">
	<g>
		<g>
			<circle class="st9" cx="18.4" cy="20.9" r="14.3"/>
			
				<linearGradient id="SVGID_43_" gradientUnits="userSpaceOnUse" x1="5.1087" y1="-882.1251" x2="31.764" y2="-882.1251" gradientTransform="matrix(1 0 0 -1 0 -861.184)">
				<stop  offset="0" style="stop-color:#EF7852"/>
				<stop  offset="1" style="stop-color:#EB5C2C"/>
			</linearGradient>
			<circle class="st49" cx="18.4" cy="20.9" r="13.3"/>
			
				<linearGradient id="SVGID_44_" gradientUnits="userSpaceOnUse" x1="7.33" y1="-882.1251" x2="29.5427" y2="-882.1251" gradientTransform="matrix(1 0 0 -1 0 -861.184)">
				<stop  offset="0" style="stop-color:#EB5C2C"/>
				<stop  offset="1" style="stop-color:#EF7852"/>
			</linearGradient>
			<path class="st50" d="M18.4,32c-6.1,0-11.1-5-11.1-11.1c0-6.1,5-11.1,11.1-11.1c6.1,0,11.1,5,11.1,11.1
				C29.5,27.1,24.6,32,18.4,32z"/>
			<path class="st9" d="M16.4,15.7c0.1-0.1,0.2-0.3,0.3-0.2c0.1,0.1,0.1,0.2,0.1,0.4c0,0.9,0,1.9,0,2.8c0,0.3,0.1,0.4,0.4,0.5
				c2.6,0.2,5,1.1,7.1,2.7c0.4,0.4,0.8,0.8,1.1,1.3c0.1,0.2,0.2,0.4,0.1,0.5c-0.2,0.2-0.4,0.1-0.5,0c-0.9-0.4-1.7-0.8-2.6-0.9
				c-1.7-0.3-3.4-0.2-5.1-0.1c-0.3,0-0.3,0.2-0.3,0.4c-0.1,1.1-0.1,2.2-0.2,3.3c-0.2,0-0.3-0.2-0.3-0.2c-1.6-1.6-3.2-3.3-4.8-4.9
				c-0.3-0.3-0.3-0.4,0-0.7C13.1,18.9,14.8,17.3,16.4,15.7z"/>
		</g>
		<g>
			<g>
				<g>
					<path class="st9" d="M168.5,6.6H58C51,6.6,45.2,13,45.2,20.9v0c0,7.9,5.7,14.3,12.8,14.3h110.5c7.1,0,12.8-6.4,12.8-14.3v0
						C181.3,13,175.6,6.6,168.5,6.6z"/>
					<linearGradient id="SVGID_45_" gradientUnits="userSpaceOnUse" x1="50.1084" y1="21.2283" x2="244.7042" y2="20.3437">
						<stop  offset="0" style="stop-color:#222222"/>
						<stop  offset="0.261" style="stop-color:#202021"/>
						<stop  offset="0.4177" style="stop-color:#1B1B1C"/>
						<stop  offset="0.5465" style="stop-color:#121213"/>
						<stop  offset="0.5899" style="stop-color:#0D0E0E"/>
					</linearGradient>
					<path class="st51" d="M168.4,7.5H58.1c-6.6,0-12,6-12,13.5v0c0,7.4,5.4,13.5,12,13.5h110.3c6.6,0,12-6,12-13.5v0
						C180.4,13.5,175,7.5,168.4,7.5z"/>
					<linearGradient id="SVGID_46_" gradientUnits="userSpaceOnUse" x1="47.9783" y1="20.9414" x2="195.8444" y2="20.9414">
						<stop  offset="0" style="stop-color:#0D0E0E"/>
						<stop  offset="5.068219e-02" style="stop-color:#111212"/>
						<stop  offset="0.2146" style="stop-color:#1B1B1C"/>
						<stop  offset="0.4115" style="stop-color:#202020"/>
						<stop  offset="0.727" style="stop-color:#222222"/>
					</linearGradient>
					<path class="st52" d="M178.6,20.9c0-6.4-4.6-11.6-10.2-11.6H58.2C52.6,9.4,48,14.6,48,20.9c0,6.4,4.6,11.6,10.2,11.6h110.1
						C174,32.5,178.6,27.3,178.6,20.9z"/>
				</g>
				<g>
					<circle class="st9" cx="167" cy="20.9" r="14.3"/>
					
						<linearGradient id="SVGID_47_" gradientUnits="userSpaceOnUse" x1="153.6478" y1="-882.1251" x2="180.303" y2="-882.1251" gradientTransform="matrix(1 0 0 -1 0 -861.184)">
						<stop  offset="0" style="stop-color:#EF7852"/>
						<stop  offset="1" style="stop-color:#EB5C2C"/>
					</linearGradient>
					<circle class="st53" cx="167" cy="20.9" r="13.3"/>
					
						<linearGradient id="SVGID_48_" gradientUnits="userSpaceOnUse" x1="155.869" y1="-882.1251" x2="178.0818" y2="-882.1251" gradientTransform="matrix(1 0 0 -1 0 -861.184)">
						<stop  offset="0" style="stop-color:#EB5C2C"/>
						<stop  offset="1" style="stop-color:#EF7852"/>
					</linearGradient>
					<path class="st54" d="M167,32c-6.1,0-11.1-5-11.1-11.1c0-6.1,5-11.1,11.1-11.1c6.1,0,11.1,5,11.1,11.1
						C178.1,27.1,173.1,32,167,32z"/>
					<g>
						<path class="st9" d="M165.8,14.3c-3,0-5.4,2.4-5.4,5.4s2.4,5.4,5.4,5.4s5.4-2.4,5.4-5.4C171.2,16.8,168.8,14.3,165.8,14.3z
							 M165.8,23.3c-2,0-3.5-1.6-3.5-3.5s1.6-3.5,3.5-3.5c2,0,3.5,1.6,3.5,3.5C169.3,21.7,167.8,23.3,165.8,23.3z"/>
						<path class="st9" d="M173.3,25.9l-1.9-1.9c-0.4-0.4-1-0.4-1.3,0c-0.4,0.4-0.4,1,0,1.3l1.9,1.9c0.4,0.4,1,0.4,1.3,0
							S173.7,26.3,173.3,25.9z"/>
					</g>
				</g>
			</g>
			<text transform="matrix(1.11 0 0 1 57.2612 23.8637)" class="st9 st55 st56">Search</text>
		</g>
	</g>
</g>
<g id="Botons_Like_e_Coments" class="st0">
	<g class="st1">
		<g>
			<circle class="st9" cx="160.2" cy="19.5" r="14.3"/>
			
				<linearGradient id="SVGID_49_" gradientUnits="userSpaceOnUse" x1="146.8412" y1="-880.7134" x2="173.4965" y2="-880.7134" gradientTransform="matrix(1 0 0 -1 0 -861.184)">
				<stop  offset="0" style="stop-color:#EF7852"/>
				<stop  offset="1" style="stop-color:#EB5C2C"/>
			</linearGradient>
			<circle class="st57" cx="160.2" cy="19.5" r="13.3"/>
			
				<linearGradient id="SVGID_50_" gradientUnits="userSpaceOnUse" x1="149.0625" y1="-880.7134" x2="171.2752" y2="-880.7134" gradientTransform="matrix(1 0 0 -1 0 -861.184)">
				<stop  offset="0" style="stop-color:#EB5C2C"/>
				<stop  offset="1" style="stop-color:#EF7852"/>
			</linearGradient>
			<path class="st58" d="M160.2,30.6c-6.1,0-11.1-5-11.1-11.1c0-6.1,5-11.1,11.1-11.1c6.1,0,11.1,5,11.1,11.1
				C171.3,25.7,166.3,30.6,160.2,30.6z"/>
			<path class="st9" d="M153.9,13.9V23h4l2.2,2.2l2.2-2.2h4v-9.1H153.9z M156.7,19.4c-0.5,0-1-0.4-1-1c0-0.5,0.4-1,1-1
				c0.5,0,1,0.4,1,1C157.6,19,157.2,19.4,156.7,19.4z M160.2,19.4c-0.5,0-1-0.4-1-1c0-0.5,0.4-1,1-1c0.5,0,1,0.4,1,1
				C161.1,19,160.7,19.4,160.2,19.4z M163.6,19.4c-0.5,0-1-0.4-1-1c0-0.5,0.4-1,1-1c0.5,0,1,0.4,1,1C164.6,19,164.2,19.4,163.6,19.4
				z"/>
		</g>
		<g>
			<circle class="st9" cx="70.2" cy="19.5" r="14.3"/>
			
				<linearGradient id="SVGID_51_" gradientUnits="userSpaceOnUse" x1="56.8906" y1="-880.7134" x2="83.5459" y2="-880.7134" gradientTransform="matrix(1 0 0 -1 0 -861.184)">
				<stop  offset="0" style="stop-color:#EF7852"/>
				<stop  offset="1" style="stop-color:#EB5C2C"/>
			</linearGradient>
			<circle class="st59" cx="70.2" cy="19.5" r="13.3"/>
			
				<linearGradient id="SVGID_52_" gradientUnits="userSpaceOnUse" x1="59.1119" y1="-880.7134" x2="81.3246" y2="-880.7134" gradientTransform="matrix(1 0 0 -1 0 -861.184)">
				<stop  offset="0" style="stop-color:#EB5C2C"/>
				<stop  offset="1" style="stop-color:#EF7852"/>
			</linearGradient>
			<path class="st60" d="M70.2,30.6c-6.1,0-11.1-5-11.1-11.1c0-6.1,5-11.1,11.1-11.1c6.1,0,11.1,5,11.1,11.1
				C81.3,25.7,76.3,30.6,70.2,30.6z"/>
			<polygon class="st9" points="68.8,20.8 64.9,20.8 64.9,18.1 68.8,18.1 68.8,13.9 71.7,13.9 71.7,18.1 75.5,18.1 75.5,20.8 
				71.7,20.8 71.7,25.1 68.8,25.1 			"/>
		</g>
		<g>
			<circle class="st9" cx="25.2" cy="19.5" r="14.3"/>
			
				<linearGradient id="SVGID_53_" gradientUnits="userSpaceOnUse" x1="11.9153" y1="-880.7134" x2="38.5706" y2="-880.7134" gradientTransform="matrix(1 0 0 -1 0 -861.184)">
				<stop  offset="0" style="stop-color:#EF7852"/>
				<stop  offset="1" style="stop-color:#EB5C2C"/>
			</linearGradient>
			<circle class="st61" cx="25.2" cy="19.5" r="13.3"/>
			
				<linearGradient id="SVGID_54_" gradientUnits="userSpaceOnUse" x1="14.1365" y1="-880.7134" x2="36.3493" y2="-880.7134" gradientTransform="matrix(1 0 0 -1 0 -861.184)">
				<stop  offset="0" style="stop-color:#EB5C2C"/>
				<stop  offset="1" style="stop-color:#EF7852"/>
			</linearGradient>
			<path class="st62" d="M25.2,30.6c-6.1,0-11.1-5-11.1-11.1c0-6.1,5-11.1,11.1-11.1c6.1,0,11.1,5,11.1,11.1
				C36.3,25.7,31.4,30.6,25.2,30.6z"/>
			<path class="st9" d="M23.2,14.3c0.1-0.1,0.2-0.3,0.3-0.2c0.1,0.1,0.1,0.2,0.1,0.4c0,0.9,0,1.9,0,2.8c0,0.3,0.1,0.4,0.4,0.5
				c2.6,0.2,5,1.1,7.1,2.7c0.4,0.4,0.8,0.8,1.1,1.3c0.1,0.2,0.2,0.4,0.1,0.5c-0.2,0.2-0.4,0.1-0.5,0c-0.9-0.4-1.7-0.8-2.6-0.9
				c-1.7-0.3-3.4-0.2-5.1-0.1c-0.3,0-0.3,0.2-0.3,0.4c-0.1,1.1-0.1,2.2-0.2,3.3c-0.2,0-0.3-0.2-0.3-0.2c-1.6-1.6-3.2-3.3-4.8-4.9
				c-0.3-0.3-0.3-0.4,0-0.7C20,17.5,21.6,15.9,23.2,14.3z"/>
		</g>
		<g>
			<circle class="st9" cx="115.2" cy="19.5" r="14.3"/>
			
				<linearGradient id="SVGID_55_" gradientUnits="userSpaceOnUse" x1="101.8659" y1="-880.7134" x2="128.5212" y2="-880.7134" gradientTransform="matrix(1 0 0 -1 0 -861.184)">
				<stop  offset="0" style="stop-color:#EF7852"/>
				<stop  offset="1" style="stop-color:#EB5C2C"/>
			</linearGradient>
			<circle class="st63" cx="115.2" cy="19.5" r="13.3"/>
			
				<linearGradient id="SVGID_56_" gradientUnits="userSpaceOnUse" x1="104.0872" y1="-880.7134" x2="126.2999" y2="-880.7134" gradientTransform="matrix(1 0 0 -1 0 -861.184)">
				<stop  offset="0" style="stop-color:#EB5C2C"/>
				<stop  offset="1" style="stop-color:#EF7852"/>
			</linearGradient>
			<path class="st64" d="M115.2,30.6c-6.1,0-11.1-5-11.1-11.1c0-6.1,5-11.1,11.1-11.1c6.1,0,11.1,5,11.1,11.1
				C126.3,25.7,121.3,30.6,115.2,30.6z"/>
			<path class="st9" d="M117.2,13.2c-0.6-0.7-1.6-0.3-1.9,0.5c-0.2,0.6-0.5,1.4-0.8,1.9c-0.8,1.7-1.3,2.6-2.6,3.8
				c-0.2,0.2-0.4,0.3-0.7,0.4c-0.9,0.3-1.7,1.3-1.5,2.3l0.3,1.4c0.1,0.7,0.7,1.3,1.4,1.5l4.4,1.2c2,0.5,4-0.7,4.4-2.8l0.5-2.9
				c0.3-1.4-0.8-2.8-2.3-2.8h-0.7l0,0c0.1-0.3,0.1-0.8,0.2-1.2c0-0.5,0.1-1,0-1.5c0-0.5-0.1-1-0.4-1.3
				C117.4,13.4,117.3,13.3,117.2,13.2z"/>
		</g>
	</g>
</g>
<g id="Img_Html" class="st0">
	<g class="st1">
		
			<image style="overflow:visible;" width="1193" height="624" xlink:href="F672C48B.jpg"  transform="matrix(0.1296 0 0 0.1296 5.1854 47.2818)">
		</image>
		
			<image style="overflow:visible;" width="1193" height="624" xlink:href="F672C489.jpg"  transform="matrix(0.1296 0 0 0.1296 40.2442 47.2818)">
		</image>
		
			<image style="overflow:visible;" width="1193" height="624" xlink:href="F672C48F.jpg"  transform="matrix(0.1296 0 0 0.1296 20.0343 47.2818)">
		</image>
	</g>
</g>
</svg>
