<?xml version="1.0" encoding="utf-8"?>
<!-- Generator: Adobe Illustrator 24.2.1, SVG Export Plug-In . SVG Version: 6.00 Build 0)  -->
<svg version="1.1" xmlns="http://www.w3.org/2000/svg" xmlns:xlink="http://www.w3.org/1999/xlink" x="0px" y="0px"
	 viewBox="0 0 189.6 80.8" style="enable-background:new 0 0 189.6 80.8;" xml:space="preserve">
<style type="text/css">
	.st0{display:none;}
	.st1{display:inline;}
	.st2{fill:#F0825D;}
	.st3{display:inline;fill:#FFFFFF;}
	.st4{fill:url(#SVGID_1_);}
	.st5{fill:none;stroke:#FFFFFF;stroke-miterlimit:10;}
	.st6{fill:url(#SVGID_2_);}
	.st7{fill:url(#SVGID_3_);}
	.st8{fill:url(#SVGID_4_);}
	.st9{fill:#FFFFFF;}
	.st10{fill:url(#SVGID_5_);}
	.st11{fill:url(#SVGID_6_);}
	.st12{fill:url(#SVGID_7_);}
	.st13{fill:url(#SVGID_8_);}
	.st14{fill:url(#SVGID_9_);}
	.st15{fill:url(#SVGID_10_);}
	.st16{fill:url(#SVGID_11_);}
	.st17{fill:url(#SVGID_12_);}
	.st18{fill:url(#SVGID_13_);}
	.st19{fill:url(#SVGID_14_);}
	.st20{fill:url(#SVGID_15_);}
	.st21{fill:url(#SVGID_16_);}
	.st22{fill:url(#SVGID_17_);}
	.st23{fill:url(#SVGID_18_);}
	.st24{fill:url(#SVGID_19_);}
	.st25{fill:url(#SVGID_20_);}
	.st26{fill:url(#SVGID_21_);}
	.st27{fill:url(#SVGID_22_);}
	.st28{fill:url(#SVGID_23_);}
	.st29{fill:url(#SVGID_24_);}
	.st30{fill-rule:evenodd;clip-rule:evenodd;fill:#FFFFFF;}
	.st31{fill:url(#SVGID_25_);}
	.st32{fill:url(#SVGID_26_);}
	.st33{fill:url(#SVGID_27_);}
	.st34{fill:url(#SVGID_28_);}
	.st35{fill:url(#SVGID_29_);}
	.st36{fill:url(#SVGID_30_);}
	.st37{fill:url(#SVGID_31_);}
	.st38{fill:url(#SVGID_32_);}
	.st39{fill:url(#SVGID_33_);}
	.st40{fill:url(#SVGID_34_);}
	.st41{fill:url(#SVGID_35_);}
	.st42{fill:url(#SVGID_36_);}
	.st43{fill:url(#SVGID_37_);}
	.st44{fill:url(#SVGID_38_);}
	.st45{fill:url(#SVGID_39_);}
	.st46{fill:url(#SVGID_40_);}
	.st47{fill:url(#SVGID_41_);}
	.st48{fill:url(#SVGID_42_);}
	.st49{fill:url(#SVGID_43_);}
	.st50{fill:url(#SVGID_44_);}
	.st51{fill:url(#SVGID_45_);}
	.st52{fill:url(#SVGID_46_);}
	.st53{fill:url(#SVGID_47_);}
	.st54{fill:url(#SVGID_48_);}
	.st55{fill:url(#SVGID_49_);}
	.st56{fill:url(#SVGID_50_);}
	.st57{fill:url(#SVGID_51_);}
	.st58{fill:url(#SVGID_52_);}
	.st59{fill:url(#SVGID_53_);}
	.st60{fill:url(#SVGID_54_);}
	.st61{fill:url(#SVGID_55_);}
	.st62{fill:url(#SVGID_56_);}
</style>
<g id="Logo" class="st0">
	<g class="st1">
		<text transform="matrix(1 0 0 1 -1206.4934 -837.7453)" class="st9" style="font-family:'Monoid-Bold'; font-size:24.5422px;">The Space of</text>
		<text transform="matrix(1 0 0 1 -1216.4153 -777.1379)" class="st9" style="font-family:'Gamer'; font-size:107.939px;">Developers</text>
		<g>
			<g>
				<path class="st2" d="M-843.3-725.8c-16.8,0-32.3-6-44.4-16.1l-6.3,9.7c13.9,11.2,31.5,17.9,50.6,17.9c19.2,0,36.8-6.7,50.6-17.9
					l-8-8.3C-812.4-731.3-827.2-725.8-843.3-725.8z"/>
				<path class="st2" d="M-778.5-770.3l10.9,3.7c0.9-2.3,1.7-4.7,2.3-7.2l-10.8-4C-776.8-775.2-777.6-772.7-778.5-770.3z"/>
				<path class="st2" d="M-843.3-876.2c-23.4,0-44.6,10-59.4,26l6.7,9.7c12.7-14.8,31.6-24.3,52.7-24.3c38.3,0,69.4,31.2,69.4,69.4
					c0,4.6-0.5,9.2-1.3,13.5l11.2,2.4c1-5.2,1.6-10.5,1.6-16C-762.4-839.9-798.7-876.2-843.3-876.2z"/>
			</g>
		</g>
		<g>
			<g>
				<path class="st2" d="M-844-670.9c-50.7,0-94.8-28.2-116.1-69.2c-3.2,1.2-6.9,2.8-10.7,4.3c23.1,45.2,71.2,76.4,126.8,76.4
					c14.6,0,28.6-2.1,41.9-6.1c-1.2-3.7-2.4-7.8-3.4-11C-817.7-672.9-830.6-670.9-844-670.9z"/>
				<path class="st2" d="M-781.6-918.7c-0.6,3.4-1.6,8-2.4,11.6c41.5,20.9,69.9,62.8,69.9,111c0,50.7-31.5,94.5-76.6,114.1l4.5,10.5
					c49.2-21.4,83.6-69.2,83.6-124.7C-702.6-849.8-734.9-896.4-781.6-918.7z"/>
				<path class="st2" d="M-844-921.3c7,0,13.9,0.6,20.6,1.6l-4.8-12.2c-5.2-0.6-10.4-0.9-15.7-0.9c-56.2,0-104.9,31.9-127.6,78
					l8.2,9.6C-943.6-889.9-897.5-921.3-844-921.3z"/>
				<path class="st2" d="M-809.7-916.8c0.4-3.6,0.9-8.1,1.3-11.5c-4.5-1.1-9.1-2.1-13.8-2.8l5.5,12.7
					C-814.3-918-812-917.4-809.7-916.8z"/>
			</g>
		</g>
		<g>
			<g>
				<path class="st2" d="M-986.7-731.3c-2.4,1.9-5.2,4.1-7.9,6.2c1.8,3.5,3.7,7,5.7,10.4c2.8-2.3,5.8-4.6,7.7-6.3
					C-983.1-724.3-985-727.8-986.7-731.3z"/>
				<path class="st2" d="M-845-643.4c-54.5,0-102.6-27.4-130.7-68.9l-7,7.2c30,43.2,80.6,71.6,137.7,71.6
					c37.6,0,72.2-12.2,100.1-32.9c-1.9-2.7-4-5.5-5.8-8C-776.8-654.9-809.5-643.4-845-643.4z"/>
				<path class="st2" d="M-844.2-960.4v9.8c86.1,0.4,156,69.1,156,153.6c0,18.2-3.3,35.7-9.2,51.9l9.1,3.7
					c6.4-17.4,9.9-36.1,9.9-55.6C-678.3-886.8-752.6-960-844.2-960.4z"/>
				<path class="st2" d="M-962.6-898.4l-6.5-7.4c-9.1,10-17,21-23.4,33l7.6,6.7C-978.9-877.8-971.4-888.6-962.6-898.4z"/>
			</g>
		</g>
		<g>
			<g>
				<path class="st2" d="M-697.9-830.7c-15.7-64.9-75.6-113.4-147-113.4c-59.1,0-110.3,33.2-135.1,81.5l5.3,4.1
					c23.5-46.7,72.8-79,129.8-79c68.4,0,125.8,46.5,140.7,108.8C-702.3-829.3-699.9-830.1-697.9-830.7z"/>
				<path class="st2" d="M-695.7-819.7c-2.2,0.5-4.5,1-6.4,1.4c1.1,6.9,1.7,14,1.7,21.3c0,16.2-2.8,31.7-8,46.1l5.9,3.1
					c5.6-15.4,8.7-32,8.7-49.2C-693.9-804.7-694.5-812.3-695.7-819.7z"/>
				<path class="st2" d="M-974.3-734.8l-6.4,1.8c10.6,21.2,26.2,39.5,45.3,53.5l4.6-4.8C-949.1-697.4-964.1-714.8-974.3-734.8z"/>
			</g>
		</g>
		<g>
			<g>
				<path class="st2" d="M-733.4-802.9c2.1,0.3,4.5,0.7,6.7,1c-3.3-60.9-55.1-109.5-118.2-109.5c-37.6,0-71.2,17.3-92.9,44.1
					l7.3,1.5c20.5-23.8,51.3-39,85.6-39C-785.8-904.8-737.3-859.7-733.4-802.9z"/>
				<path class="st2" d="M-733.2-792.7c-1.6,58.8-51.1,106.1-111.7,106.1c-20.1,0-39-5.2-55.3-14.3l-1.5,6.7
					c16.9,9,36.2,14.2,56.7,14.2c64,0,116.2-49.8,118.3-111.8L-733.2-792.7z"/>
			</g>
		</g>
		<g>
			<g>
				<path class="st2" d="M-815.3-886.3l3.2-4.1c-10.4-3.6-21.5-5.6-33.1-5.6c-29.3,0-55.6,12.6-74,32.6l5.4,1.5
					c17.4-18,41.7-29.2,68.6-29.2C-834.7-891.2-824.7-889.5-815.3-886.3z"/>
				<path class="st2" d="M-780.2-872.1c-0.9,1.2-1.9,2.6-2.9,3.9c18.1,15.5,30.3,37.7,32.8,62.7c1.7,0.4,3.5,0.9,5,1.3
					C-747.6-831.3-760.6-855.4-780.2-872.1z"/>
				<path class="st2" d="M-845.2-700.5c-18.7,0-36.2-5.4-50.9-14.8l-1.3,5c15.2,9.3,33.1,14.7,52.2,14.7c35.7,0,67-18.8,84.8-46.9
					c-1.3-0.7-2.9-1.6-4.3-2.3C-781.6-718.2-811.4-700.5-845.2-700.5z"/>
			</g>
		</g>
		<g>
			<g>
				<path class="st2" d="M-845.1-886.5c-14.9,0-28.9,3.6-41.3,10c0.9,1.2,2.1,2.8,3,4c11.6-5.8,24.6-9,38.3-9
					c43.8,0,80,32.9,85.3,75.2l4.9-0.4C-760.5-851.6-798.8-886.5-845.1-886.5z"/>
				<path class="st2" d="M-845.1-709.6c-18.5,0-35.6-5.9-49.6-15.8l-0.9,5.4c14.5,9.7,31.8,15.4,50.5,15.4
					c22.7,0,43.5-8.4,59.5-22.2c-1.5-1.1-2.9-2.2-4-3C-804.7-717.2-824-709.6-845.1-709.6z"/>
			</g>
		</g>
		<g>
			<g>
				<path class="st2" d="M-844.9-735.5c-11.3,0-21.9-3-30.9-8.3c-0.7,1.5-1.4,3-2,4.5c9.7,5.5,21,8.7,33,8.7
					c15.3,0,29.3-5.1,40.4-13.7c-1-1.1-2.1-2.5-3.2-3.7C-817.9-740.2-830.8-735.5-844.9-735.5z"/>
				<path class="st2" d="M-844.9-857.5c-17.7,0-33.8,6.9-45.6,18.1l4.2,2.8c10.8-9.9,25.4-15.9,41.3-15.9
					c33.3,0,60.4,26.3,60.4,58.6c0,10.9-3.1,21.1-8.4,29.8l3.8,3.2c6-9.6,9.5-20.9,9.5-33C-779.6-829-808.9-857.5-844.9-857.5z"/>
			</g>
		</g>
	</g>
</g>
<g id="Loading_Bar" class="st0">
	<path class="st3" d="M-691.7-545.1h-498.2c-12.9,0-23.4,10.5-23.4,23.4v0c0,12.9,10.5,23.4,23.4,23.4h498.2
		c12.9,0,23.4-10.5,23.4-23.4v0C-668.3-534.6-678.8-545.1-691.7-545.1z M-671.9-521.7L-671.9-521.7c0,10.9-8.9,19.8-19.8,19.8
		l-227.3,0v-39.6h227.3C-680.8-541.5-671.9-532.6-671.9-521.7z"/>
</g>
<g id="input" class="st0">
	<g class="st1">
		<g>
			<linearGradient id="SVGID_1_" gradientUnits="userSpaceOnUse" x1="-853.1823" y1="-427.3863" x2="-672.4826" y2="-427.3863">
				<stop  offset="0" style="stop-color:#0D0E0E"/>
				<stop  offset="1" style="stop-color:#222222"/>
			</linearGradient>
			<path class="st4" d="M-689.7-444.6h-146.2c-9.5,0-17.2,7.7-17.2,17.2v0c0,9.5,7.7,17.2,17.2,17.2h146.2c9.5,0,17.2-7.7,17.2-17.2
				v0C-672.5-436.9-680.2-444.6-689.7-444.6z"/>
			<path class="st5" d="M-835.9-413.1h146.2c7.9,0,14.2-6.4,14.2-14.2v0c0-7.9-6.4-14.2-14.2-14.2h-146.2c-7.9,0-14.2,6.4-14.2,14.2
				v0C-850.2-419.5-843.8-413.1-835.9-413.1z"/>
		</g>
		<text transform="matrix(1 0 0 1 -778.5296 -425.3404)" class="st9" style="font-family:'Roboto-Thin'; font-size:7px;">Username</text>
	</g>
</g>
<g id="Boton" class="st0">
	<g class="st1">
		<linearGradient id="SVGID_2_" gradientUnits="userSpaceOnUse" x1="-866.0389" y1="-357.7523" x2="-685.5082" y2="-357.7523">
			<stop  offset="0" style="stop-color:#F9B654"/>
			<stop  offset="1" style="stop-color:#EF7C2C"/>
		</linearGradient>
		<path class="st6" d="M-698.3-345h-155c-7,0-12.8-5.7-12.8-12.8v0c0-7,5.7-12.8,12.8-12.8h155c7,0,12.8,5.7,12.8,12.8v0
			C-685.5-350.7-691.2-345-698.3-345z"/>
		<g>
			<text transform="matrix(1 0 0 1 -796.6486 -352.1272)" class="st9" style="font-family:'Roboto-Bold'; font-size:15px;">Login</text>
		</g>
	</g>
</g>
<g id="Login_Google_Apple" class="st0">
	<g class="st1">
		<g>
			<linearGradient id="SVGID_3_" gradientUnits="userSpaceOnUse" x1="-719.3008" y1="-288.3406" x2="-684.306" y2="-288.3406">
				<stop  offset="0" style="stop-color:#F9B654"/>
				<stop  offset="1" style="stop-color:#EF7C2C"/>
			</linearGradient>
			<path class="st7" d="M-690.6-306H-713c-3.5,0-6.3,2.8-6.3,6.3v22.8c0,3.5,2.8,6.3,6.3,6.3h22.4c3.5,0,6.3-2.8,6.3-6.3v-22.8
				C-684.3-303.2-687.1-306-690.6-306z"/>
			<linearGradient id="SVGID_4_" gradientUnits="userSpaceOnUse" x1="-717.0086" y1="-288.3406" x2="-686.5982" y2="-288.3406">
				<stop  offset="0" style="stop-color:#EF7C2C"/>
				<stop  offset="1" style="stop-color:#F9B654"/>
			</linearGradient>
			<path class="st8" d="M-690.6-303.7H-713c-2.2,0-4,1.8-4,4v22.8c0,2.2,1.8,4,4,4h22.4c2.2,0,4-1.8,4-4v-22.8
				C-686.6-302-688.4-303.7-690.6-303.7z"/>
			<path class="st5" d="M-690.6-274.5c1.4,0,2.5-1.1,2.5-2.5v-22.8c0-1.4-1.1-2.5-2.5-2.5H-713c-1.4,0-2.5,1.1-2.5,2.5v22.8
				c0,1.4,1.1,2.5,2.5,2.5H-690.6z"/>
			<g>
				<path class="st9" d="M-697.1-299.4C-697.1-299.4-697.1-299.4-697.1-299.4c0,1.4-0.1,2.4-1.1,3.4c-0.7,0.7-2.1,1.4-3.1,1.4
					c-0.1,0-0.1,0-0.1,0C-701.5-296.8-699.6-299.4-697.1-299.4z"/>
				<path class="st9" d="M-694.6-285.1c0.6,0.9,2.4,1.9,2.2,2.5c-0.1,0.5-1.6,2.7-2,3.2c-3.2,4-4.4,0.8-7.1,0.9
					c-1.4,0.1-1.9,1.2-3.4,1.2c-0.2,0-0.4,0-0.6,0c-1.1-0.2-2.3-1.3-3-2.1c-1.4-1.7-2.6-5.3-2.8-7.5c-0.2-2.7,1-5.5,3.4-6.9
					c2.8-1.6,4.8,0.4,6.6,0.8c0.5,0.1,0.9,0.1,1.4-0.1c1.5-0.8,2-1.4,4-0.9c1.1,0.3,2.3,1.2,2.9,2.1
					C-695.3-290.1-696.5-287.7-694.6-285.1z"/>
			</g>
		</g>
		<g>
			<linearGradient id="SVGID_5_" gradientUnits="userSpaceOnUse" x1="-800.7707" y1="-288.3406" x2="-765.7758" y2="-288.3406">
				<stop  offset="0" style="stop-color:#F9B654"/>
				<stop  offset="1" style="stop-color:#EF7C2C"/>
			</linearGradient>
			<path class="st10" d="M-772.1-306h-22.4c-3.5,0-6.3,2.8-6.3,6.3v22.8c0,3.5,2.8,6.3,6.3,6.3h22.4c3.5,0,6.3-2.8,6.3-6.3v-22.8
				C-765.8-303.2-768.6-306-772.1-306z"/>
			<linearGradient id="SVGID_6_" gradientUnits="userSpaceOnUse" x1="-798.4785" y1="-288.3406" x2="-768.0681" y2="-288.3406">
				<stop  offset="0" style="stop-color:#EF7C2C"/>
				<stop  offset="1" style="stop-color:#F9B654"/>
			</linearGradient>
			<path class="st11" d="M-772.1-303.7h-22.4c-2.2,0-4,1.8-4,4v22.8c0,2.2,1.8,4,4,4h22.4c2.2,0,4-1.8,4-4v-22.8
				C-768.1-302-769.9-303.7-772.1-303.7z"/>
			<path class="st5" d="M-772.1-274.5c1.4,0,2.5-1.1,2.5-2.5v-22.8c0-1.4-1.1-2.5-2.5-2.5h-22.4c-1.4,0-2.5,1.1-2.5,2.5v22.8
				c0,1.4,1.1,2.5,2.5,2.5H-772.1z"/>
			<g>
				<path class="st9" d="M-772.7-289.1c0,0.3,0,0.7,0,1l0,0.3c0,0.3-0.1,0.7-0.1,1l0,0.2c-0.1,0.4-0.1,0.8-0.2,1.1l-0.1,0.3
					c-0.1,0.3-0.2,0.5-0.3,0.8l-0.2,0.4c-0.1,0.3-0.3,0.5-0.4,0.8l-0.1,0.2l-0.1,0.1c-0.5,0.8-1,1.5-1.7,2.1l-0.1,0.1l0,0
					c-0.3,0.3-0.6,0.5-0.9,0.8l0,0c-0.3,0.2-0.7,0.5-1.1,0.7c-0.4,0.2-0.9,0.4-1.3,0.6l-0.1,0l0,0c-1.3,0.5-3.1,0.7-4.4,0.7l3.7-6.5
					c1.2-1,2-2.5,2-4.2c0-1.6-0.7-3-1.8-3.9h6.3c0.3,0.9,0.7,2.1,0.7,3L-772.7-289.1z"/>
				<path class="st9" d="M-792.2-294l3.7,6.4c0.4,2.6,2.6,4.6,5.3,4.6c0.4,0,0.7,0,1.1-0.1l-3,5.3c-0.8-0.1-1.5-0.4-2.2-0.7
					l-0.3-0.1l-0.1,0c-0.2-0.1-0.4-0.2-0.6-0.3l-0.3-0.1l-0.1-0.1c-0.2-0.1-0.4-0.2-0.6-0.4l-0.3-0.2c-0.2-0.1-0.3-0.3-0.5-0.4
					l-0.3-0.3c-0.1-0.1-0.3-0.2-0.4-0.4c-0.1-0.1-0.3-0.3-0.4-0.4l-0.3-0.3c-0.1-0.2-0.3-0.3-0.4-0.5l-0.2-0.3
					c-0.1-0.2-0.3-0.4-0.4-0.6l-0.1-0.1l-0.1-0.3c-0.1-0.2-0.2-0.4-0.3-0.6c-0.1-0.2-0.1-0.3-0.2-0.5c-0.1-0.2-0.1-0.3-0.2-0.5
					c-0.1-0.2-0.1-0.4-0.2-0.6l-0.1-0.4c0-0.2-0.1-0.4-0.1-0.6l-0.1-0.4c0-0.2-0.1-0.4-0.1-0.6l0-0.5c0-0.2,0-0.4,0-0.5
					c0-0.2,0-0.4,0-0.5l0-0.5c0-0.2,0-0.4,0.1-0.6l0.1-0.4c0-0.2,0.1-0.4,0.1-0.6l0.1-0.4c0.1-0.2,0.1-0.4,0.2-0.6
					c0.1-0.2,0.1-0.3,0.2-0.5l0.2-0.5c0.1-0.2,0.2-0.4,0.3-0.6L-792.2-294L-792.2-294z"/>
				<path class="st9" d="M-774-293.7h-9.2c-2.4,0-4.4,1.5-5.1,3.7l-3-5.3l0.1-0.1c0.1-0.2,0.3-0.3,0.5-0.5l0.3-0.3
					c0.1-0.1,0.3-0.3,0.4-0.4l0.4-0.3c0.1-0.1,0.3-0.2,0.4-0.3c0.1-0.1,0.3-0.2,0.4-0.3l0.3-0.2l0.2-0.1c0.2-0.1,0.3-0.2,0.5-0.2
					c0.2-0.1,0.3-0.2,0.5-0.2l0.4-0.1c0.2-0.1,0.4-0.2,0.6-0.2l0.2,0c0.8-0.2,1.6-0.4,2.4-0.4l0.4,0l0.5,0c0.2,0,0.4,0,0.6,0l0.4,0
					c0.2,0,0.4,0,0.7,0.1l0.3,0.1c0.2,0,0.4,0.1,0.7,0.1l0.3,0.1c0.2,0.1,0.4,0.1,0.6,0.2l0.4,0.2c0.2,0.1,0.3,0.1,0.5,0.2
					c0.2,0.1,0.3,0.2,0.5,0.3l0.3,0.2l0.1,0.1c0.4,0.2,0.7,0.5,1.1,0.7l0.1,0.1c0.3,0.2,0.6,0.5,0.9,0.8l0.2,0.2
					c0.3,0.3,0.5,0.6,0.7,0.9l0.1,0.1C-774.5-294.4-774.3-294.1-774-293.7z"/>
				<path class="st9" d="M-783.3-292.3c2.2,0,4,1.8,4,4c0,2.2-1.8,4-4,4c-2.2,0-4-1.8-4-4S-785.5-292.3-783.3-292.3z"/>
			</g>
		</g>
	</g>
</g>
<g id="Boton_Studing_add" class="st0">
	<g class="st1">
		<g>
			<path class="st9" d="M-700.5-238.5H-852c-7.1,0-12.8,6.4-12.8,14.3v0c0,7.9,5.7,14.3,12.8,14.3h151.5c7.1,0,12.8-6.4,12.8-14.3v0
				C-687.7-232.1-693.4-238.5-700.5-238.5z"/>
			<linearGradient id="SVGID_7_" gradientUnits="userSpaceOnUse" x1="-858.6826" y1="-223.8188" x2="-604.6903" y2="-224.9734">
				<stop  offset="0" style="stop-color:#222222"/>
				<stop  offset="0.261" style="stop-color:#202021"/>
				<stop  offset="0.4177" style="stop-color:#1B1B1C"/>
				<stop  offset="0.5465" style="stop-color:#121213"/>
				<stop  offset="0.5899" style="stop-color:#0D0E0E"/>
			</linearGradient>
			<path class="st12" d="M-700.6-237.6h-151.3c-6.6,0-12,6-12,13.5v0c0,7.4,5.4,13.5,12,13.5h151.3c6.6,0,12-6,12-13.5v0
				C-688.6-231.6-694-237.6-700.6-237.6z"/>
			<linearGradient id="SVGID_8_" gradientUnits="userSpaceOnUse" x1="-862.035" y1="-224.1933" x2="-667.7399" y2="-224.1933">
				<stop  offset="0" style="stop-color:#0D0E0E"/>
				<stop  offset="5.068219e-02" style="stop-color:#111212"/>
				<stop  offset="0.2146" style="stop-color:#1B1B1C"/>
				<stop  offset="0.4115" style="stop-color:#202020"/>
				<stop  offset="0.727" style="stop-color:#222222"/>
			</linearGradient>
			<path class="st13" d="M-690.5-224.2c0-6.4-4.6-11.6-10.2-11.6h-151.1c-5.6,0-10.2,5.2-10.2,11.6c0,6.4,4.6,11.6,10.2,11.6h151.1
				C-695.1-212.6-690.5-217.8-690.5-224.2z"/>
		</g>
		<g>
			<circle class="st9" cx="-701.1" cy="-224.2" r="14.3"/>
			
				<linearGradient id="SVGID_9_" gradientUnits="userSpaceOnUse" x1="-714.4191" y1="-731.554" x2="-687.7638" y2="-731.554" gradientTransform="matrix(1 0 0 -1 0 -955.7475)">
				<stop  offset="0" style="stop-color:#EF7852"/>
				<stop  offset="1" style="stop-color:#EB5C2C"/>
			</linearGradient>
			<circle class="st14" cx="-701.1" cy="-224.2" r="13.3"/>
			
				<linearGradient id="SVGID_10_" gradientUnits="userSpaceOnUse" x1="-712.1978" y1="-731.554" x2="-689.985" y2="-731.554" gradientTransform="matrix(1 0 0 -1 0 -955.7475)">
				<stop  offset="0" style="stop-color:#EB5C2C"/>
				<stop  offset="1" style="stop-color:#EF7852"/>
			</linearGradient>
			<path class="st15" d="M-701.1-213.1c-6.1,0-11.1-5-11.1-11.1c0-6.1,5-11.1,11.1-11.1c6.1,0,11.1,5,11.1,11.1
				C-690-218.1-695-213.1-701.1-213.1z"/>
			<polygon class="st9" points="-702.5,-223 -706.4,-223 -706.4,-225.6 -702.5,-225.6 -702.5,-229.8 -699.6,-229.8 -699.6,-225.6 
				-695.8,-225.6 -695.8,-223 -699.6,-223 -699.6,-218.6 -702.5,-218.6 			"/>
		</g>
		<text transform="matrix(1.11 0 0 1 -848.1431 -221.271)"><tspan x="0" y="0" class="st9" style="font-family:'Roboto-Light'; font-size:10px;">Studing</tspan><tspan x="33.8" y="0" class="st9" style="font-family:'Roboto-Light'; font-size:10px;">	</tspan></text>
	</g>
</g>
<g id="Menu_Rodape" class="st0">
	<g class="st1">
		<g>
			<path class="st9" d="M-699.8-183.5h-151.5c-7.1,0-12.8,6.4-12.8,14.3v0c0,7.9,5.7,14.3,12.8,14.3h151.5c7.1,0,12.8-6.4,12.8-14.3
				v0C-687-177.1-692.7-183.5-699.8-183.5z"/>
			<linearGradient id="SVGID_11_" gradientUnits="userSpaceOnUse" x1="-857.9896" y1="-168.7894" x2="-603.9973" y2="-169.9439">
				<stop  offset="0" style="stop-color:#222222"/>
				<stop  offset="0.261" style="stop-color:#202021"/>
				<stop  offset="0.4177" style="stop-color:#1B1B1C"/>
				<stop  offset="0.5465" style="stop-color:#121213"/>
				<stop  offset="0.5899" style="stop-color:#0D0E0E"/>
			</linearGradient>
			<path class="st16" d="M-699.9-182.6h-151.3c-6.6,0-12,6-12,13.5v0c0,7.4,5.4,13.5,12,13.5h151.3c6.6,0,12-6,12-13.5v0
				C-687.9-176.6-693.3-182.6-699.9-182.6z"/>
			<linearGradient id="SVGID_12_" gradientUnits="userSpaceOnUse" x1="-861.342" y1="-169.1639" x2="-667.0469" y2="-169.1639">
				<stop  offset="0" style="stop-color:#0D0E0E"/>
				<stop  offset="5.068219e-02" style="stop-color:#111212"/>
				<stop  offset="0.2146" style="stop-color:#1B1B1C"/>
				<stop  offset="0.4115" style="stop-color:#202020"/>
				<stop  offset="0.727" style="stop-color:#222222"/>
			</linearGradient>
			<path class="st17" d="M-689.8-169.2c0-6.4-4.6-11.6-10.2-11.6h-151.1c-5.6,0-10.2,5.2-10.2,11.6c0,6.4,4.6,11.6,10.2,11.6H-700
				C-694.4-157.6-689.8-162.8-689.8-169.2z"/>
		</g>
		<g>
			<circle class="st9" cx="-850.2" cy="-169.2" r="14.3"/>
			
				<linearGradient id="SVGID_13_" gradientUnits="userSpaceOnUse" x1="-863.53" y1="-786.5834" x2="-836.8748" y2="-786.5834" gradientTransform="matrix(1 0 0 -1 0 -955.7475)">
				<stop  offset="0" style="stop-color:#EF7852"/>
				<stop  offset="1" style="stop-color:#EB5C2C"/>
			</linearGradient>
			<circle class="st18" cx="-850.2" cy="-169.2" r="13.3"/>
			
				<linearGradient id="SVGID_14_" gradientUnits="userSpaceOnUse" x1="-861.3088" y1="-786.5834" x2="-839.096" y2="-786.5834" gradientTransform="matrix(1 0 0 -1 0 -955.7475)">
				<stop  offset="0" style="stop-color:#EB5C2C"/>
				<stop  offset="1" style="stop-color:#EF7852"/>
			</linearGradient>
			<path class="st19" d="M-850.2-158.1c-6.1,0-11.1-5-11.1-11.1c0-6.1,5-11.1,11.1-11.1c6.1,0,11.1,5,11.1,11.1
				C-839.1-163-844.1-158.1-850.2-158.1z"/>
			<g>
				<path class="st9" d="M-851.4-175.8c-3,0-5.4,2.4-5.4,5.4c0,3,2.4,5.4,5.4,5.4c3,0,5.4-2.4,5.4-5.4
					C-845.9-173.4-848.4-175.8-851.4-175.8z M-851.4-166.8c-2,0-3.5-1.6-3.5-3.5c0-2,1.6-3.5,3.5-3.5c2,0,3.5,1.6,3.5,3.5
					C-847.8-168.4-849.4-166.8-851.4-166.8z"/>
				<path class="st9" d="M-843.9-164.2l-1.9-1.9c-0.4-0.4-1-0.4-1.3,0s-0.4,1,0,1.3l1.9,1.9c0.4,0.4,1,0.4,1.3,0
					S-843.5-163.8-843.9-164.2z"/>
			</g>
		</g>
		<g>
			<circle class="st9" cx="-701.5" cy="-169.2" r="14.3"/>
			
				<linearGradient id="SVGID_15_" gradientUnits="userSpaceOnUse" x1="-714.862" y1="-786.5834" x2="-688.2067" y2="-786.5834" gradientTransform="matrix(1 0 0 -1 0 -955.7475)">
				<stop  offset="0" style="stop-color:#EF7852"/>
				<stop  offset="1" style="stop-color:#EB5C2C"/>
			</linearGradient>
			<circle class="st20" cx="-701.5" cy="-169.2" r="13.3"/>
			
				<linearGradient id="SVGID_16_" gradientUnits="userSpaceOnUse" x1="-712.6407" y1="-786.5834" x2="-690.428" y2="-786.5834" gradientTransform="matrix(1 0 0 -1 0 -955.7475)">
				<stop  offset="0" style="stop-color:#EB5C2C"/>
				<stop  offset="1" style="stop-color:#EF7852"/>
			</linearGradient>
			<path class="st21" d="M-701.5-158.1c-6.1,0-11.1-5-11.1-11.1c0-6.1,5-11.1,11.1-11.1c6.1,0,11.1,5,11.1,11.1
				C-690.4-163-695.4-158.1-701.5-158.1z"/>
			<path class="st9" d="M-696.5-168.5c0-0.2,0-0.4,0-0.7c0-0.2,0-0.4,0-0.7l1.4-1.1c0.1-0.1,0.2-0.3,0.1-0.4l-1.3-2.3
				c-0.1-0.1-0.3-0.2-0.4-0.1l-1.7,0.7c-0.4-0.3-0.7-0.5-1.1-0.7l-0.3-1.8c0-0.2-0.2-0.3-0.3-0.3h-2.7c-0.2,0-0.3,0.1-0.3,0.3
				l-0.3,1.8c-0.4,0.2-0.8,0.4-1.1,0.7l-1.7-0.7c-0.2-0.1-0.3,0-0.4,0.1l-1.3,2.3c-0.1,0.1,0,0.3,0.1,0.4l1.4,1.1c0,0.2,0,0.4,0,0.7
				s0,0.4,0,0.7l-1.4,1.1c-0.1,0.1-0.2,0.3-0.1,0.4l1.3,2.3c0.1,0.1,0.3,0.2,0.4,0.1l1.7-0.7c0.4,0.3,0.7,0.5,1.1,0.7l0.3,1.8
				c0,0.2,0.2,0.3,0.3,0.3h2.7c0.2,0,0.3-0.1,0.3-0.3l0.3-1.8c0.4-0.2,0.8-0.4,1.1-0.7l1.7,0.7c0.2,0.1,0.3,0,0.4-0.1l1.3-2.3
				c0.1-0.1,0-0.3-0.1-0.4L-696.5-168.5z M-701.5-166.8c-1.3,0-2.4-1.1-2.4-2.4s1.1-2.4,2.4-2.4c1.3,0,2.4,1.1,2.4,2.4
				S-700.2-166.8-701.5-166.8z"/>
		</g>
		<g>
			<circle class="st9" cx="-775.9" cy="-169.2" r="14.3"/>
			
				<linearGradient id="SVGID_17_" gradientUnits="userSpaceOnUse" x1="-789.196" y1="-786.5834" x2="-762.5407" y2="-786.5834" gradientTransform="matrix(1 0 0 -1 0 -955.7475)">
				<stop  offset="0" style="stop-color:#EF7852"/>
				<stop  offset="1" style="stop-color:#EB5C2C"/>
			</linearGradient>
			<circle class="st22" cx="-775.9" cy="-169.2" r="13.3"/>
			
				<linearGradient id="SVGID_18_" gradientUnits="userSpaceOnUse" x1="-786.9747" y1="-786.5834" x2="-764.762" y2="-786.5834" gradientTransform="matrix(1 0 0 -1 0 -955.7475)">
				<stop  offset="0" style="stop-color:#EB5C2C"/>
				<stop  offset="1" style="stop-color:#EF7852"/>
			</linearGradient>
			<path class="st23" d="M-775.9-158.1c-6.1,0-11.1-5-11.1-11.1c0-6.1,5-11.1,11.1-11.1c6.1,0,11.1,5,11.1,11.1
				C-764.8-163-769.7-158.1-775.9-158.1z"/>
			<path id="home_1_" class="st9" d="M-768.2-170.3l-6.9-5.2c-0.5-0.3-1.1-0.3-1.7,0l-6.8,5.2c-0.5,0.4-0.3,1.1,0.4,1.1h0.7v4
				c0,1.4,1.2,2.6,2.6,2.6h1.3c0.4,0,0.7-0.3,0.7-0.7v-3.2c0-0.7,0.6-1.4,1.3-1.4h1.3c0.7,0,1.3,0.7,1.3,1.4v3.2
				c0,0.3,0.3,0.7,0.7,0.7h1.3c1.5,0,2.6-1.2,2.6-2.6v-4h0.7C-768-169.2-767.7-169.9-768.2-170.3z"/>
		</g>
	</g>
</g>
<g id="Botons_Linguagens" class="st0">
	<g class="st1">
		<g>
			<path class="st9" d="M-1056.1-441.8h-46.3c-8.6,0-15.6,7-15.6,15.6v56.5c0,8.6,7,15.6,15.6,15.6h46.3c8.6,0,15.6-7,15.6-15.6
				v-56.5C-1040.5-434.8-1047.5-441.8-1056.1-441.8z"/>
			<linearGradient id="SVGID_19_" gradientUnits="userSpaceOnUse" x1="-1115.3562" y1="-397.9555" x2="-1043.1332" y2="-397.9555">
				<stop  offset="0" style="stop-color:#F9B654"/>
				<stop  offset="1" style="stop-color:#EF7C2C"/>
			</linearGradient>
			<path class="st24" d="M-1056.1-439.2h-46.3c-7.2,0-13,5.8-13,13v56.5c0,7.2,5.8,13,13,13h46.3c7.2,0,13-5.8,13-13v-56.5
				C-1043.1-433.4-1049-439.2-1056.1-439.2z"/>
			<linearGradient id="SVGID_20_" gradientUnits="userSpaceOnUse" x1="-1110.6254" y1="-397.9555" x2="-1047.864" y2="-397.9555">
				<stop  offset="0" style="stop-color:#EF7C2C"/>
				<stop  offset="1" style="stop-color:#F9B654"/>
			</linearGradient>
			<path class="st25" d="M-1056.1-434.5h-46.3c-4.5,0-8.3,3.7-8.3,8.3v56.5c0,4.5,3.7,8.3,8.3,8.3h46.3c4.5,0,8.3-3.7,8.3-8.3v-56.5
				C-1047.9-430.8-1051.6-434.5-1056.1-434.5z"/>
			<polygon class="st9" points="-1063.4,-410.4 -1062.7,-417.6 -1079.3,-417.8 -1095.8,-418 -1094.8,-396.3 -1079.6,-396.1 
				-1071.7,-396 -1072.3,-387.9 -1079.7,-385.5 -1087.1,-388.1 -1087.4,-392.6 -1094.6,-392.7 -1094,-382.8 -1079.8,-377.9 
				-1065.5,-382.4 -1064,-403.2 -1079.5,-403.4 -1087.8,-403.5 -1088.3,-410.7 -1079.4,-410.6 			"/>
			<path class="st5" d="M-1056.1-364.6c2.8,0,5.1-2.3,5.1-5.1v-56.5c0-2.8-2.3-5.1-5.1-5.1h-46.3c-2.8,0-5.1,2.3-5.1,5.1v56.5
				c0,2.8,2.3,5.1,5.1,5.1H-1056.1z"/>
		</g>
		<g>
			<g>
				<path class="st9" d="M-1152-441.8h-46.3c-8.6,0-15.6,7-15.6,15.6v56.5c0,8.6,7,15.6,15.6,15.6h46.3c8.6,0,15.6-7,15.6-15.6
					v-56.5C-1136.4-434.8-1143.4-441.8-1152-441.8z"/>
				<linearGradient id="SVGID_21_" gradientUnits="userSpaceOnUse" x1="-1211.2286" y1="-397.9555" x2="-1139.0056" y2="-397.9555">
					<stop  offset="0" style="stop-color:#FFDFA1"/>
					<stop  offset="1" style="stop-color:#FBBE43"/>
				</linearGradient>
				<path class="st26" d="M-1152-439.2h-46.3c-7.2,0-13,5.8-13,13v56.5c0,7.2,5.8,13,13,13h46.3c7.2,0,13-5.8,13-13v-56.5
					C-1139-433.4-1144.8-439.2-1152-439.2z"/>
				<linearGradient id="SVGID_22_" gradientUnits="userSpaceOnUse" x1="-1206.4978" y1="-397.9555" x2="-1143.7365" y2="-397.9555">
					<stop  offset="0" style="stop-color:#FBBE43"/>
					<stop  offset="1" style="stop-color:#FFDFA1"/>
				</linearGradient>
				<path class="st27" d="M-1152-434.5h-46.3c-4.5,0-8.3,3.7-8.3,8.3v56.5c0,4.5,3.7,8.3,8.3,8.3h46.3c4.5,0,8.3-3.7,8.3-8.3v-56.5
					C-1143.7-430.8-1147.4-434.5-1152-434.5z"/>
				<path class="st5" d="M-1152-364.6c2.8,0,5.1-2.3,5.1-5.1v-56.5c0-2.8-2.3-5.1-5.1-5.1h-46.3c-2.8,0-5.1,2.3-5.1,5.1v56.5
					c0,2.8,2.3,5.1,5.1,5.1H-1152z"/>
			</g>
			<g>
				<polygon class="st9" points="-1152.7,-419.5 -1153.3,-412.9 -1166,-412.9 -1166,-399.6 -1154.3,-401.3 -1156,-381 
					-1172.6,-376.4 -1172.6,-384 -1161.4,-387.1 -1161,-393.3 -1172.6,-391.3 -1172.6,-419.5 				"/>
				<polygon class="st9" points="-1179.3,-419.5 -1179.3,-376.4 -1197.5,-381.5 -1197.5,-389.6 -1185.9,-386.4 -1185.9,-419.5 				
					"/>
			</g>
		</g>
		<g>
			<g>
				<path class="st9" d="M-1056.1-331.7h-46.3c-8.6,0-15.6,7-15.6,15.6v56.5c0,8.6,7,15.6,15.6,15.6h46.3c8.6,0,15.6-7,15.6-15.6
					v-56.5C-1040.5-324.7-1047.5-331.7-1056.1-331.7z"/>
				<linearGradient id="SVGID_23_" gradientUnits="userSpaceOnUse" x1="-1115.3562" y1="-287.8202" x2="-1043.1332" y2="-287.8202">
					<stop  offset="0" style="stop-color:#BDA4CF;stop-opacity:0.9"/>
					<stop  offset="1" style="stop-color:#564B9A"/>
				</linearGradient>
				<path class="st28" d="M-1056.1-329.1h-46.3c-7.2,0-13,5.8-13,13v56.5c0,7.2,5.8,13,13,13h46.3c7.2,0,13-5.8,13-13v-56.5
					C-1043.1-323.3-1049-329.1-1056.1-329.1z"/>
				<linearGradient id="SVGID_24_" gradientUnits="userSpaceOnUse" x1="-1110.6254" y1="-287.8202" x2="-1047.864" y2="-287.8202">
					<stop  offset="0" style="stop-color:#564B9A"/>
					<stop  offset="1" style="stop-color:#BDA4CF;stop-opacity:0.9"/>
				</linearGradient>
				<path class="st29" d="M-1056.1-324.3h-46.3c-4.5,0-8.3,3.7-8.3,8.3v56.5c0,4.5,3.7,8.3,8.3,8.3h46.3c4.5,0,8.3-3.7,8.3-8.3
					v-56.5C-1047.9-320.6-1051.6-324.3-1056.1-324.3z"/>
				<path class="st5" d="M-1056.1-254.4c2.8,0,5.1-2.3,5.1-5.1v-56.5c0-2.8-2.3-5.1-5.1-5.1h-46.3c-2.8,0-5.1,2.3-5.1,5.1v56.5
					c0,2.8,2.3,5.1,5.1,5.1H-1056.1z"/>
			</g>
			<g>
				<polygon class="st30" points="-1069,-292.2 -1071.9,-292.2 -1071.9,-289.3 -1074.9,-289.3 -1074.9,-286.4 -1071.9,-286.4 
					-1071.9,-283.4 -1069,-283.4 -1069,-286.4 -1066.1,-286.4 -1066.1,-289.3 -1069,-289.3 				"/>
				<polygon class="st30" points="-1055.9,-289.3 -1058.8,-289.3 -1058.8,-292.2 -1061.7,-292.2 -1061.7,-289.3 -1064.6,-289.3 
					-1064.6,-286.4 -1061.7,-286.4 -1061.7,-283.4 -1058.8,-283.4 -1058.8,-286.4 -1055.9,-286.4 				"/>
				<path class="st9" d="M-1073.4-282.7l9,4.9c-3.5,6.2-10.2,10.4-17.8,10.4c-11.3,0-20.4-9.2-20.4-20.5c0-11.3,9.2-20.4,20.4-20.4
					c7.5,0,14,4,17.6,10.1l-8.9,5.1c-1.8-2.9-5-4.9-8.7-4.9c-5.6,0-10.2,4.6-10.2,10.2c0,5.6,4.6,10.2,10.2,10.2
					C-1078.4-277.6-1075.1-279.6-1073.4-282.7z"/>
			</g>
		</g>
		<g>
			<g>
				<path class="st9" d="M-1152-331.7h-46.3c-8.6,0-15.6,7-15.6,15.6v56.5c0,8.6,7,15.6,15.6,15.6h46.3c8.6,0,15.6-7,15.6-15.6
					v-56.5C-1136.4-324.7-1143.4-331.7-1152-331.7z"/>
				<linearGradient id="SVGID_25_" gradientUnits="userSpaceOnUse" x1="-1211.2286" y1="-287.8202" x2="-1139.0056" y2="-287.8202">
					<stop  offset="0" style="stop-color:#B3DEE9;stop-opacity:0.9"/>
					<stop  offset="1" style="stop-color:#3490CF"/>
				</linearGradient>
				<path class="st31" d="M-1152-329.1h-46.3c-7.2,0-13,5.8-13,13v56.5c0,7.2,5.8,13,13,13h46.3c7.2,0,13-5.8,13-13v-56.5
					C-1139-323.3-1144.8-329.1-1152-329.1z"/>
				<linearGradient id="SVGID_26_" gradientUnits="userSpaceOnUse" x1="-1206.4978" y1="-287.8202" x2="-1143.7365" y2="-287.8202">
					<stop  offset="0" style="stop-color:#3490CF"/>
					<stop  offset="1" style="stop-color:#B3DEE9;stop-opacity:0.9"/>
				</linearGradient>
				<path class="st32" d="M-1152-324.3h-46.3c-4.5,0-8.3,3.7-8.3,8.3v56.5c0,4.5,3.7,8.3,8.3,8.3h46.3c4.5,0,8.3-3.7,8.3-8.3v-56.5
					C-1143.7-320.6-1147.4-324.3-1152-324.3z"/>
				<path class="st5" d="M-1152-254.4c2.8,0,5.1-2.3,5.1-5.1v-56.5c0-2.8-2.3-5.1-5.1-5.1h-46.3c-2.8,0-5.1,2.3-5.1,5.1v56.5
					c0,2.8,2.3,5.1,5.1,5.1H-1152z"/>
			</g>
			<path class="st30" d="M-1191.1-282h7.8l0.2,4.9l8,2.7l8-2.7l0.6-8.8h-17.3l-0.4-7.8h18.1l0.6-7.8h-27.1l-0.6-7.8h35.9l-1,15.7
				l-1.4,22.6l-15.5,5.1l-15.5-5.1L-1191.1-282z"/>
		</g>
		<g>
			<g>
				<path class="st9" d="M-1056.1-222.6h-46.3c-8.6,0-15.6,7-15.6,15.6v56.5c0,8.6,7,15.6,15.6,15.6h46.3c8.6,0,15.6-7,15.6-15.6
					V-207C-1040.5-215.6-1047.5-222.6-1056.1-222.6z"/>
				<linearGradient id="SVGID_27_" gradientUnits="userSpaceOnUse" x1="-1115.3562" y1="-178.7256" x2="-1043.1332" y2="-178.7256">
					<stop  offset="0" style="stop-color:#7DAFDF;stop-opacity:0.9"/>
					<stop  offset="1" style="stop-color:#264798"/>
				</linearGradient>
				<path class="st33" d="M-1056.1-220h-46.3c-7.2,0-13,5.8-13,13v56.5c0,7.2,5.8,13,13,13h46.3c7.2,0,13-5.8,13-13V-207
					C-1043.1-214.2-1049-220-1056.1-220z"/>
				<linearGradient id="SVGID_28_" gradientUnits="userSpaceOnUse" x1="-1110.6254" y1="-178.7256" x2="-1047.864" y2="-178.7256">
					<stop  offset="0" style="stop-color:#264798"/>
					<stop  offset="1" style="stop-color:#7DAFDF;stop-opacity:0.9"/>
				</linearGradient>
				<path class="st34" d="M-1056.1-215.3h-46.3c-4.5,0-8.3,3.7-8.3,8.3v56.5c0,4.5,3.7,8.3,8.3,8.3h46.3c4.5,0,8.3-3.7,8.3-8.3V-207
					C-1047.9-211.5-1051.6-215.3-1056.1-215.3z"/>
				<path class="st5" d="M-1056.1-145.4c2.8,0,5.1-2.3,5.1-5.1V-207c0-2.8-2.3-5.1-5.1-5.1h-46.3c-2.8,0-5.1,2.3-5.1,5.1v56.5
					c0,2.8,2.3,5.1,5.1,5.1H-1056.1z"/>
			</g>
			<g>
				<path class="st9" d="M-1078.7-200.8c-1.8,0-3.1,0.2-4.6,0.4c-4.5,0.8-5.3,2.4-5.3,5.4v4.6h10.5v2.3h-10.9h-5.1
					c-3.1,0-5.8,1.4-6.6,4.9c-1,4-1,6.5,0,10.6c0.8,3.1,2.4,5.4,5.5,5.4h4.2v-5.9c0-3.5,3.1-6.9,6.7-6.9h8.4c2.9,0,5.8-2.2,5.8-5.1
					v-10c0-2.8-2-5-4.9-5.4C-1074.8-200.4-1076.9-200.8-1078.7-200.8z M-1084.5-196.2c1,0,1.7,0.8,1.7,1.7c0,1-0.8,1.7-1.7,1.7
					c-1,0-1.7-0.8-1.7-1.7C-1086.2-195.4-1085.5-196.2-1084.5-196.2z"/>
				<path class="st9" d="M-1079.8-156.6c1.8,0,3.1-0.2,4.6-0.4c4.5-0.8,5.3-2.4,5.3-5.4v-4.6h-10.5v-2.3h10.9h5.1
					c3.1,0,5.8-1.4,6.6-4.9c1-4,1-6.5,0-10.6c-0.8-3.1-2.4-5.4-5.5-5.4h-4.2v5.9c0,3.5-3.1,6.9-6.7,6.9h-8.4c-2.9,0-5.8,2.2-5.8,5.1
					v10c0,2.8,2,5,4.9,5.4C-1083.7-157-1081.6-156.6-1079.8-156.6z M-1074-161.3c-1,0-1.7-0.8-1.7-1.7c0-1,0.8-1.7,1.7-1.7
					c1,0,1.7,0.8,1.7,1.7C-1072.3-162.1-1073-161.3-1074-161.3z"/>
			</g>
		</g>
		<g>
			<g>
				<path class="st9" d="M-1152-222.6h-46.3c-8.6,0-15.6,7-15.6,15.6v56.5c0,8.6,7,15.6,15.6,15.6h46.3c8.6,0,15.6-7,15.6-15.6V-207
					C-1136.4-215.6-1143.4-222.6-1152-222.6z"/>
				<linearGradient id="SVGID_29_" gradientUnits="userSpaceOnUse" x1="-1211.2286" y1="-178.7256" x2="-1139.0056" y2="-178.7256">
					<stop  offset="0" style="stop-color:#E62C2C;stop-opacity:0.9"/>
					<stop  offset="1" style="stop-color:#7B170F"/>
				</linearGradient>
				<path class="st35" d="M-1152-220h-46.3c-7.2,0-13,5.8-13,13v56.5c0,7.2,5.8,13,13,13h46.3c7.2,0,13-5.8,13-13V-207
					C-1139-214.2-1144.8-220-1152-220z"/>
				<linearGradient id="SVGID_30_" gradientUnits="userSpaceOnUse" x1="-1206.4978" y1="-178.7256" x2="-1143.7365" y2="-178.7256">
					<stop  offset="0" style="stop-color:#7B170F"/>
					<stop  offset="1" style="stop-color:#E62C2C;stop-opacity:0.9"/>
				</linearGradient>
				<path class="st36" d="M-1152-215.3h-46.3c-4.5,0-8.3,3.7-8.3,8.3v56.5c0,4.5,3.7,8.3,8.3,8.3h46.3c4.5,0,8.3-3.7,8.3-8.3V-207
					C-1143.7-211.5-1147.4-215.3-1152-215.3z"/>
				<path class="st5" d="M-1152-145.4c2.8,0,5.1-2.3,5.1-5.1V-207c0-2.8-2.3-5.1-5.1-5.1h-46.3c-2.8,0-5.1,2.3-5.1,5.1v56.5
					c0,2.8,2.3,5.1,5.1,5.1H-1152z"/>
			</g>
			<g>
				<path class="st9" d="M-1175.6-177.6c-1.3-2.1-2.2-3.8-3.5-7c-2.2-5.4,13.2-10.3,7-19.8c2.7,6.5-9.7,10.5-10.9,16
					C-1184-183.4-1175.6-177.6-1175.6-177.6z"/>
				<path class="st9" d="M-1175.3-187.3c-0.2,3.2,2.9,4.9,2.9,7.3c0.1,1.9-1.9,3.5-1.9,3.5s3.5-0.7,4.6-3.6c1.2-3.2-2.3-5.5-2-8.1
					c0.3-2.5,7.7-7.1,7.7-7.1S-1174.7-194.6-1175.3-187.3z"/>
				<g>
					<path class="st9" d="M-1164.8-177.4c2.2-0.5,4.1,0.9,4.1,2.6c0,3.7-5.1,7.2-5.1,7.2s8-1,8-7.1
						C-1157.8-178.7-1161.7-179.7-1164.8-177.4z M-1168.5-174.4c0,0,2.5-1.8,3.1-2.4c-6.1,1.3-20,1.5-20,0.3c0-1,4.5-2.1,4.5-2.1
						s-10-0.1-10,2.8C-1190.9-172.7-1177.9-172.5-1168.5-174.4z"/>
					<path class="st9" d="M-1170.1-171.6c-5.8,1.9-16.4,1.3-13.3-1.3c-1.5,0-3.8,1.2-3.8,2.4c0,2.4,11.5,4.2,20,0.7L-1170.1-171.6z"
						/>
					<path class="st9" d="M-1181.9-167.5c-2.1,0-3.5,1.3-3.5,2.3c0,3.1,12.5,3.4,17.5,0.3l-3.1-2.1
						C-1174.8-165.4-1184.1-165.2-1181.9-167.5z"/>
					<path class="st9" d="M-1159.4-162.5c0-1.2-1.4-1.8-1.8-2c2.9,6.9-28.6,6.3-28.6,2.3c0-0.9,2.3-1.8,4.5-1.4l-1.8-1.1
						c-4.3-0.7-7.2,1.2-7.2,2.7C-1194.3-155-1159.4-155.3-1159.4-162.5z"/>
					<path class="st9" d="M-1155.9-160c-5.3,5.2-18.8,7.2-32.3,3.9C-1174.7-150.3-1156-153.6-1155.9-160z"/>
				</g>
			</g>
		</g>
	</g>
</g>
<g id="Card_Conteudo" class="st0">
	<g class="st1">
		<g>
			<g>
				<path class="st9" d="M-1044.5-103.5h-165c-8.2,0-14.8,6.7-14.8,14.8v53.8c0,8.2,6.7,14.8,14.8,14.8h165
					c8.2,0,14.8-6.7,14.8-14.8v-53.8C-1029.6-96.9-1036.3-103.5-1044.5-103.5z"/>
				<linearGradient id="SVGID_31_" gradientUnits="userSpaceOnUse" x1="-1221.8485" y1="-61.769" x2="-1032.1488" y2="-61.769">
					<stop  offset="0" style="stop-color:#222222"/>
					<stop  offset="1" style="stop-color:#0D0E0E"/>
				</linearGradient>
				<path class="st37" d="M-1044.5-101h-165c-6.8,0-12.3,5.5-12.3,12.3v53.8c0,6.8,5.5,12.3,12.3,12.3h165c6.8,0,12.3-5.5,12.3-12.3
					v-53.8C-1032.1-95.5-1037.7-101-1044.5-101z"/>
				<linearGradient id="SVGID_32_" gradientUnits="userSpaceOnUse" x1="-1217.3485" y1="-61.769" x2="-1036.6488" y2="-61.769">
					<stop  offset="0" style="stop-color:#0D0E0E"/>
					<stop  offset="1" style="stop-color:#222222"/>
				</linearGradient>
				<path class="st38" d="M-1044.5-96.5h-165c-4.3,0-7.8,3.5-7.8,7.8v53.8c0,4.3,3.5,7.8,7.8,7.8h165c4.3,0,7.8-3.5,7.8-7.8v-53.8
					C-1036.6-93-1040.2-96.5-1044.5-96.5z"/>
				<path class="st5" d="M-1044.5-30c2.7,0,4.8-2.2,4.8-4.8v-53.8c0-2.7-2.2-4.8-4.8-4.8h-165c-2.7,0-4.8,2.2-4.8,4.8v53.8
					c0,2.7,2.2,4.8,4.8,4.8H-1044.5z"/>
			</g>
			<g>
				<path class="st9" d="M-1165.9-103.9h-44c-8.2,0-14.8,6.7-14.8,14.8v53.8c0,8.2,6.7,14.8,14.8,14.8h44c8.2,0,14.8-6.7,14.8-14.8
					V-89C-1151-97.2-1157.7-103.9-1165.9-103.9z"/>
				<linearGradient id="SVGID_33_" gradientUnits="userSpaceOnUse" x1="-1222.213" y1="-62.1402" x2="-1153.5133" y2="-62.1402">
					<stop  offset="0" style="stop-color:#F9B654"/>
					<stop  offset="1" style="stop-color:#EF7C2C"/>
				</linearGradient>
				<path class="st39" d="M-1165.9-101.4h-44c-6.8,0-12.3,5.5-12.3,12.3v53.8c0,6.8,5.5,12.3,12.3,12.3h44c6.8,0,12.3-5.5,12.3-12.3
					V-89C-1153.5-95.8-1159.1-101.4-1165.9-101.4z"/>
				<linearGradient id="SVGID_34_" gradientUnits="userSpaceOnUse" x1="-1217.713" y1="-62.1402" x2="-1158.0133" y2="-62.1402">
					<stop  offset="0" style="stop-color:#EF7C2C"/>
					<stop  offset="1" style="stop-color:#F9B654"/>
				</linearGradient>
				<path class="st40" d="M-1165.9-96.9h-44c-4.3,0-7.8,3.5-7.8,7.8v53.8c0,4.3,3.5,7.8,7.8,7.8h44c4.3,0,7.8-3.5,7.8-7.8V-89
					C-1158-93.4-1161.5-96.9-1165.9-96.9z"/>
				<polygon class="st9" points="-1172.8,-73.9 -1172.2,-80.8 -1187.9,-81 -1203.6,-81.2 -1202.6,-60.6 -1188.2,-60.4 
					-1180.7,-60.3 -1181.3,-52.6 -1188.3,-50.3 -1195.3,-52.8 -1195.6,-57.1 -1202.5,-57.2 -1201.9,-47.7 -1188.4,-43.1 
					-1174.8,-47.4 -1173.4,-67.1 -1188.1,-67.3 -1196,-67.4 -1196.4,-74.2 -1188,-74.1 				"/>
				<path class="st5" d="M-1165.9-30.4c2.7,0,4.8-2.2,4.8-4.8V-89c0-2.7-2.2-4.8-4.8-4.8h-44c-2.7,0-4.8,2.2-4.8,4.8v53.8
					c0,2.7,2.2,4.8,4.8,4.8H-1165.9z"/>
			</g>
			<rect x="-1146.6" y="-65.3" style="fill:none;" width="102.9" height="31.7"/>
			<text transform="matrix(1 0 0 1 -1146.5737 -61.1068)"><tspan x="0" y="0" class="st9" style="font-family:'Roboto-Regular'; font-size:5.5115px;">Lorem</tspan><tspan x="15.8" y="0" class="st9" style="font-family:'Roboto-Regular'; font-size:5.5115px;"> </tspan><tspan x="17.7" y="0" class="st9" style="font-family:'Roboto-Regular'; font-size:5.5115px;">ipsum</tspan><tspan x="33.1" y="0" class="st9" style="font-family:'Roboto-Regular'; font-size:5.5115px;"> </tspan><tspan x="35" y="0" class="st9" style="font-family:'Roboto-Regular'; font-size:5.5115px;">dolor</tspan><tspan x="47.8" y="0" class="st9" style="font-family:'Roboto-Regular'; font-size:5.5115px;"> </tspan><tspan x="49.7" y="0" class="st9" style="font-family:'Roboto-Regular'; font-size:5.5115px;">sit</tspan><tspan x="55.8" y="0" class="st9" style="font-family:'Roboto-Regular'; font-size:5.5115px;"> </tspan><tspan x="57.8" y="0" class="st9" style="font-family:'Roboto-Regular'; font-size:5.5115px;">amet,</tspan><tspan x="71.5" y="0" class="st9" style="font-family:'Roboto-Regular'; font-size:5.5115px;"> </tspan><tspan x="73.4" y="0" class="st9" style="font-family:'Roboto-Regular'; font-size:5.5115px;">consectetur </tspan><tspan x="0" y="6.6" class="st9" style="font-family:'Roboto-Regular'; font-size:5.5115px;">adipiscing</tspan><tspan x="25.5" y="6.6" class="st9" style="font-family:'Roboto-Regular'; font-size:5.5115px; letter-spacing:1;"> </tspan><tspan x="28.4" y="6.6" class="st9" style="font-family:'Roboto-Regular'; font-size:5.5115px;">elit,</tspan><tspan x="37" y="6.6" class="st9" style="font-family:'Roboto-Regular'; font-size:5.5115px; letter-spacing:1;"> </tspan><tspan x="39.9" y="6.6" class="st9" style="font-family:'Roboto-Regular'; font-size:5.5115px;">sed</tspan><tspan x="48.8" y="6.6" class="st9" style="font-family:'Roboto-Regular'; font-size:5.5115px; letter-spacing:1;"> </tspan><tspan x="51.7" y="6.6" class="st9" style="font-family:'Roboto-Regular'; font-size:5.5115px;">do</tspan><tspan x="58" y="6.6" class="st9" style="font-family:'Roboto-Regular'; font-size:5.5115px; letter-spacing:1;"> </tspan><tspan x="60.9" y="6.6" class="st9" style="font-family:'Roboto-Regular'; font-size:5.5115px;">eiusmod</tspan><tspan x="82.2" y="6.6" class="st9" style="font-family:'Roboto-Regular'; font-size:5.5115px; letter-spacing:1;"> </tspan><tspan x="85.1" y="6.6" class="st9" style="font-family:'Roboto-Regular'; font-size:5.5115px;">tempor </tspan><tspan x="0" y="13.2" class="st9" style="font-family:'Roboto-Regular'; font-size:5.5115px;">incididunt</tspan><tspan x="24.6" y="13.2" class="st9" style="font-family:'Roboto-Regular'; font-size:5.5115px; letter-spacing:2;"> </tspan><tspan x="28.6" y="13.2" class="st9" style="font-family:'Roboto-Regular'; font-size:5.5115px;">ut</tspan><tspan x="33.6" y="13.2" class="st9" style="font-family:'Roboto-Regular'; font-size:5.5115px; letter-spacing:2;"> </tspan><tspan x="37.7" y="13.2" class="st9" style="font-family:'Roboto-Regular'; font-size:5.5115px;">labore</tspan><tspan x="53.2" y="13.2" class="st9" style="font-family:'Roboto-Regular'; font-size:5.5115px; letter-spacing:2;"> </tspan><tspan x="57.3" y="13.2" class="st9" style="font-family:'Roboto-Regular'; font-size:5.5115px;">et</tspan><tspan x="62" y="13.2" class="st9" style="font-family:'Roboto-Regular'; font-size:5.5115px; letter-spacing:2;"> </tspan><tspan x="66.1" y="13.2" class="st9" style="font-family:'Roboto-Regular'; font-size:5.5115px;">dolore</tspan><tspan x="81.7" y="13.2" class="st9" style="font-family:'Roboto-Regular'; font-size:5.5115px; letter-spacing:2;"> </tspan><tspan x="85.7" y="13.2" class="st9" style="font-family:'Roboto-Regular'; font-size:5.5115px;">magna </tspan><tspan x="0" y="19.8" class="st9" style="font-family:'Roboto-Regular'; font-size:5.5115px;">aliqua.</tspan><tspan x="16.6" y="19.8" class="st9" style="font-family:'Roboto-Regular'; font-size:5.5115px; letter-spacing:1;"> </tspan><tspan x="19.4" y="19.8" class="st9" style="font-family:'Roboto-Regular'; font-size:5.5115px;">Ut</tspan><tspan x="25" y="19.8" class="st9" style="font-family:'Roboto-Regular'; font-size:5.5115px; letter-spacing:1;"> </tspan><tspan x="27.9" y="19.8" class="st9" style="font-family:'Roboto-Regular'; font-size:5.5115px;">enim</tspan><tspan x="40.1" y="19.8" class="st9" style="font-family:'Roboto-Regular'; font-size:5.5115px; letter-spacing:1;"> </tspan><tspan x="43" y="19.8" class="st9" style="font-family:'Roboto-Regular'; font-size:5.5115px;">ad</tspan><tspan x="49.1" y="19.8" class="st9" style="font-family:'Roboto-Regular'; font-size:5.5115px; letter-spacing:1;"> </tspan><tspan x="52" y="19.8" class="st9" style="font-family:'Roboto-Regular'; font-size:5.5115px;">minim</tspan><tspan x="67.5" y="19.8" class="st9" style="font-family:'Roboto-Regular'; font-size:5.5115px; letter-spacing:1;"> </tspan><tspan x="70.4" y="19.8" class="st9" style="font-family:'Roboto-Regular'; font-size:5.5115px;">veniam,</tspan><tspan x="89.5" y="19.8" class="st9" style="font-family:'Roboto-Regular'; font-size:5.5115px; letter-spacing:1;"> </tspan><tspan x="92.3" y="19.8" class="st9" style="font-family:'Roboto-Regular'; font-size:5.5115px;">quis </tspan><tspan x="0" y="26.5" class="st9" style="font-family:'Roboto-Regular'; font-size:5.5115px;">nostrud</tspan><tspan x="19.2" y="26.5" class="st9" style="font-family:'Roboto-Regular'; font-size:5.5115px;"> </tspan><tspan x="21.5" y="26.5" class="st9" style="font-family:'Roboto-Regular'; font-size:5.5115px;">exercitation</tspan><tspan x="50.6" y="26.5" class="st9" style="font-family:'Roboto-Regular'; font-size:5.5115px;"> </tspan><tspan x="52.9" y="26.5" class="st9" style="font-family:'Roboto-Regular'; font-size:5.5115px;">ullamco</tspan><tspan x="72.7" y="26.5" class="st9" style="font-family:'Roboto-Regular'; font-size:5.5115px;"> </tspan><tspan x="74.9" y="26.5" class="st9" style="font-family:'Roboto-Regular'; font-size:5.5115px;">laboris</tspan><tspan x="91.8" y="26.5" class="st9" style="font-family:'Roboto-Regular'; font-size:5.5115px;"> </tspan><tspan x="94.1" y="26.5" class="st9" style="font-family:'Roboto-Regular'; font-size:5.5115px;">nisi </tspan></text>
			<rect x="-1146.6" y="-90.4" style="fill:none;" width="102.9" height="21.2"/>
			<text transform="matrix(1 0 0 1 -1146.5737 -83.6698)"><tspan x="0" y="0" class="st9" style="font-family:'Roboto-Bold'; font-size:8.8184px;">Lorem ipsum dolor sit </tspan><tspan x="0" y="10.6" class="st9" style="font-family:'Roboto-Bold'; font-size:8.8184px;">amet, consectetur </tspan></text>
		</g>
		<g>
			<g>
				<path class="st9" d="M-1044.7,1.1h-165c-8.2,0-14.8,6.7-14.8,14.8v53.8c0,8.2,6.7,14.8,14.8,14.8h165c8.2,0,14.8-6.7,14.8-14.8
					V15.9C-1029.8,7.7-1036.5,1.1-1044.7,1.1z"/>
				<linearGradient id="SVGID_35_" gradientUnits="userSpaceOnUse" x1="-1222.0308" y1="42.811" x2="-1032.3311" y2="42.811">
					<stop  offset="0" style="stop-color:#222222"/>
					<stop  offset="1" style="stop-color:#0D0E0E"/>
				</linearGradient>
				<path class="st41" d="M-1044.7,3.6h-165c-6.8,0-12.3,5.5-12.3,12.3v53.8c0,6.8,5.5,12.3,12.3,12.3h165c6.8,0,12.3-5.5,12.3-12.3
					V15.9C-1032.3,9.1-1037.9,3.6-1044.7,3.6z"/>
				<linearGradient id="SVGID_36_" gradientUnits="userSpaceOnUse" x1="-1217.5308" y1="42.811" x2="-1036.8311" y2="42.811">
					<stop  offset="0" style="stop-color:#0D0E0E"/>
					<stop  offset="1" style="stop-color:#222222"/>
				</linearGradient>
				<path class="st42" d="M-1044.7,8.1h-165c-4.3,0-7.8,3.5-7.8,7.8v53.8c0,4.3,3.5,7.8,7.8,7.8h165c4.3,0,7.8-3.5,7.8-7.8V15.9
					C-1036.8,11.6-1040.4,8.1-1044.7,8.1z"/>
				<path class="st5" d="M-1044.7,74.6c2.7,0,4.8-2.2,4.8-4.8V15.9c0-2.7-2.2-4.8-4.8-4.8h-165c-2.7,0-4.8,2.2-4.8,4.8v53.8
					c0,2.7,2.2,4.8,4.8,4.8H-1044.7z"/>
			</g>
			<rect x="-1146.8" y="39.3" style="fill:none;" width="102.9" height="31.7"/>
			<text transform="matrix(1 0 0 1 -1146.7559 43.4732)"><tspan x="0" y="0" class="st9" style="font-family:'Roboto-Regular'; font-size:5.5115px;">Lorem</tspan><tspan x="15.8" y="0" class="st9" style="font-family:'Roboto-Regular'; font-size:5.5115px;"> </tspan><tspan x="17.7" y="0" class="st9" style="font-family:'Roboto-Regular'; font-size:5.5115px;">ipsum</tspan><tspan x="33.1" y="0" class="st9" style="font-family:'Roboto-Regular'; font-size:5.5115px;"> </tspan><tspan x="35" y="0" class="st9" style="font-family:'Roboto-Regular'; font-size:5.5115px;">dolor</tspan><tspan x="47.8" y="0" class="st9" style="font-family:'Roboto-Regular'; font-size:5.5115px;"> </tspan><tspan x="49.7" y="0" class="st9" style="font-family:'Roboto-Regular'; font-size:5.5115px;">sit</tspan><tspan x="55.8" y="0" class="st9" style="font-family:'Roboto-Regular'; font-size:5.5115px;"> </tspan><tspan x="57.8" y="0" class="st9" style="font-family:'Roboto-Regular'; font-size:5.5115px;">amet,</tspan><tspan x="71.5" y="0" class="st9" style="font-family:'Roboto-Regular'; font-size:5.5115px;"> </tspan><tspan x="73.4" y="0" class="st9" style="font-family:'Roboto-Regular'; font-size:5.5115px;">consectetur </tspan><tspan x="0" y="6.6" class="st9" style="font-family:'Roboto-Regular'; font-size:5.5115px;">adipiscing</tspan><tspan x="25.5" y="6.6" class="st9" style="font-family:'Roboto-Regular'; font-size:5.5115px; letter-spacing:1;"> </tspan><tspan x="28.4" y="6.6" class="st9" style="font-family:'Roboto-Regular'; font-size:5.5115px;">elit,</tspan><tspan x="37" y="6.6" class="st9" style="font-family:'Roboto-Regular'; font-size:5.5115px; letter-spacing:1;"> </tspan><tspan x="39.9" y="6.6" class="st9" style="font-family:'Roboto-Regular'; font-size:5.5115px;">sed</tspan><tspan x="48.8" y="6.6" class="st9" style="font-family:'Roboto-Regular'; font-size:5.5115px; letter-spacing:1;"> </tspan><tspan x="51.7" y="6.6" class="st9" style="font-family:'Roboto-Regular'; font-size:5.5115px;">do</tspan><tspan x="58" y="6.6" class="st9" style="font-family:'Roboto-Regular'; font-size:5.5115px; letter-spacing:1;"> </tspan><tspan x="60.9" y="6.6" class="st9" style="font-family:'Roboto-Regular'; font-size:5.5115px;">eiusmod</tspan><tspan x="82.2" y="6.6" class="st9" style="font-family:'Roboto-Regular'; font-size:5.5115px; letter-spacing:1;"> </tspan><tspan x="85.1" y="6.6" class="st9" style="font-family:'Roboto-Regular'; font-size:5.5115px;">tempor </tspan><tspan x="0" y="13.2" class="st9" style="font-family:'Roboto-Regular'; font-size:5.5115px;">incididunt</tspan><tspan x="24.6" y="13.2" class="st9" style="font-family:'Roboto-Regular'; font-size:5.5115px; letter-spacing:2;"> </tspan><tspan x="28.6" y="13.2" class="st9" style="font-family:'Roboto-Regular'; font-size:5.5115px;">ut</tspan><tspan x="33.6" y="13.2" class="st9" style="font-family:'Roboto-Regular'; font-size:5.5115px; letter-spacing:2;"> </tspan><tspan x="37.7" y="13.2" class="st9" style="font-family:'Roboto-Regular'; font-size:5.5115px;">labore</tspan><tspan x="53.2" y="13.2" class="st9" style="font-family:'Roboto-Regular'; font-size:5.5115px; letter-spacing:2;"> </tspan><tspan x="57.3" y="13.2" class="st9" style="font-family:'Roboto-Regular'; font-size:5.5115px;">et</tspan><tspan x="62" y="13.2" class="st9" style="font-family:'Roboto-Regular'; font-size:5.5115px; letter-spacing:2;"> </tspan><tspan x="66.1" y="13.2" class="st9" style="font-family:'Roboto-Regular'; font-size:5.5115px;">dolore</tspan><tspan x="81.7" y="13.2" class="st9" style="font-family:'Roboto-Regular'; font-size:5.5115px; letter-spacing:2;"> </tspan><tspan x="85.7" y="13.2" class="st9" style="font-family:'Roboto-Regular'; font-size:5.5115px;">magna </tspan><tspan x="0" y="19.8" class="st9" style="font-family:'Roboto-Regular'; font-size:5.5115px;">aliqua.</tspan><tspan x="16.6" y="19.8" class="st9" style="font-family:'Roboto-Regular'; font-size:5.5115px; letter-spacing:1;"> </tspan><tspan x="19.4" y="19.8" class="st9" style="font-family:'Roboto-Regular'; font-size:5.5115px;">Ut</tspan><tspan x="25" y="19.8" class="st9" style="font-family:'Roboto-Regular'; font-size:5.5115px; letter-spacing:1;"> </tspan><tspan x="27.9" y="19.8" class="st9" style="font-family:'Roboto-Regular'; font-size:5.5115px;">enim</tspan><tspan x="40.1" y="19.8" class="st9" style="font-family:'Roboto-Regular'; font-size:5.5115px; letter-spacing:1;"> </tspan><tspan x="43" y="19.8" class="st9" style="font-family:'Roboto-Regular'; font-size:5.5115px;">ad</tspan><tspan x="49.1" y="19.8" class="st9" style="font-family:'Roboto-Regular'; font-size:5.5115px; letter-spacing:1;"> </tspan><tspan x="52" y="19.8" class="st9" style="font-family:'Roboto-Regular'; font-size:5.5115px;">minim</tspan><tspan x="67.5" y="19.8" class="st9" style="font-family:'Roboto-Regular'; font-size:5.5115px; letter-spacing:1;"> </tspan><tspan x="70.4" y="19.8" class="st9" style="font-family:'Roboto-Regular'; font-size:5.5115px;">veniam,</tspan><tspan x="89.5" y="19.8" class="st9" style="font-family:'Roboto-Regular'; font-size:5.5115px; letter-spacing:1;"> </tspan><tspan x="92.3" y="19.8" class="st9" style="font-family:'Roboto-Regular'; font-size:5.5115px;">quis </tspan><tspan x="0" y="26.5" class="st9" style="font-family:'Roboto-Regular'; font-size:5.5115px;">nostrud</tspan><tspan x="19.2" y="26.5" class="st9" style="font-family:'Roboto-Regular'; font-size:5.5115px;"> </tspan><tspan x="21.5" y="26.5" class="st9" style="font-family:'Roboto-Regular'; font-size:5.5115px;">exercitation</tspan><tspan x="50.6" y="26.5" class="st9" style="font-family:'Roboto-Regular'; font-size:5.5115px;"> </tspan><tspan x="52.9" y="26.5" class="st9" style="font-family:'Roboto-Regular'; font-size:5.5115px;">ullamco</tspan><tspan x="72.7" y="26.5" class="st9" style="font-family:'Roboto-Regular'; font-size:5.5115px;"> </tspan><tspan x="74.9" y="26.5" class="st9" style="font-family:'Roboto-Regular'; font-size:5.5115px;">laboris</tspan><tspan x="91.8" y="26.5" class="st9" style="font-family:'Roboto-Regular'; font-size:5.5115px;"> </tspan><tspan x="94.1" y="26.5" class="st9" style="font-family:'Roboto-Regular'; font-size:5.5115px;">nisi </tspan></text>
			<rect x="-1146.8" y="14.2" style="fill:none;" width="102.9" height="21.2"/>
			<text transform="matrix(1 0 0 1 -1146.7559 20.9102)"><tspan x="0" y="0" class="st9" style="font-family:'Roboto-Bold'; font-size:8.8184px;">Lorem ipsum dolor sit </tspan><tspan x="0" y="10.6" class="st9" style="font-family:'Roboto-Bold'; font-size:8.8184px;">amet, consectetur </tspan></text>
			<g>
				<g>
					<path class="st9" d="M-1165.6,1.1h-44c-8.2,0-14.8,6.7-14.8,14.8v53.8c0,8.2,6.7,14.8,14.8,14.8h44c8.2,0,14.8-6.7,14.8-14.8
						V15.9C-1150.8,7.7-1157.4,1.1-1165.6,1.1z"/>
					<linearGradient id="SVGID_37_" gradientUnits="userSpaceOnUse" x1="-1221.9614" y1="42.811" x2="-1153.2617" y2="42.811">
						<stop  offset="0" style="stop-color:#B3DEE9;stop-opacity:0.9"/>
						<stop  offset="1" style="stop-color:#3490CF"/>
					</linearGradient>
					<path class="st43" d="M-1165.6,3.6h-44c-6.8,0-12.3,5.5-12.3,12.3v53.8c0,6.8,5.5,12.3,12.3,12.3h44c6.8,0,12.3-5.5,12.3-12.3
						V15.9C-1153.3,9.1-1158.8,3.6-1165.6,3.6z"/>
					<linearGradient id="SVGID_38_" gradientUnits="userSpaceOnUse" x1="-1217.4614" y1="42.811" x2="-1157.7617" y2="42.811">
						<stop  offset="0" style="stop-color:#3490CF"/>
						<stop  offset="1" style="stop-color:#B3DEE9;stop-opacity:0.9"/>
					</linearGradient>
					<path class="st44" d="M-1165.6,8.1h-44c-4.3,0-7.8,3.5-7.8,7.8v53.8c0,4.3,3.5,7.8,7.8,7.8h44c4.3,0,7.8-3.5,7.8-7.8V15.9
						C-1157.8,11.6-1161.3,8.1-1165.6,8.1z"/>
					<path class="st5" d="M-1165.6,74.6c2.7,0,4.8-2.2,4.8-4.8V15.9c0-2.7-2.2-4.8-4.8-4.8h-44c-2.7,0-4.8,2.2-4.8,4.8v53.8
						c0,2.7,2.2,4.8,4.8,4.8H-1165.6z"/>
				</g>
				<path class="st30" d="M-1202.8,48.3h7.5l0.2,4.7l7.7,2.6l7.7-2.6l0.6-8.4h-16.4l-0.4-7.5h17.2l0.6-7.5h-25.7l-0.6-7.5h34.1
					l-0.9,14.9l-1.3,21.5l-14.7,4.9l-14.7-4.9L-1202.8,48.3z"/>
			</g>
		</g>
		<g>
			<g>
				<path class="st9" d="M-1044.7,105.8h-165c-8.2,0-14.8,6.7-14.8,14.8v53.8c0,8.2,6.7,14.8,14.8,14.8h165
					c8.2,0,14.8-6.7,14.8-14.8v-53.8C-1029.8,112.5-1036.5,105.8-1044.7,105.8z"/>
				<linearGradient id="SVGID_39_" gradientUnits="userSpaceOnUse" x1="-1222.0308" y1="147.5767" x2="-1032.3311" y2="147.5767">
					<stop  offset="0" style="stop-color:#222222"/>
					<stop  offset="1" style="stop-color:#0D0E0E"/>
				</linearGradient>
				<path class="st45" d="M-1044.7,108.3h-165c-6.8,0-12.3,5.5-12.3,12.3v53.8c0,6.8,5.5,12.3,12.3,12.3h165
					c6.8,0,12.3-5.5,12.3-12.3v-53.8C-1032.3,113.9-1037.9,108.3-1044.7,108.3z"/>
				<linearGradient id="SVGID_40_" gradientUnits="userSpaceOnUse" x1="-1217.5308" y1="147.5767" x2="-1036.8311" y2="147.5767">
					<stop  offset="0" style="stop-color:#0D0E0E"/>
					<stop  offset="1" style="stop-color:#222222"/>
				</linearGradient>
				<path class="st46" d="M-1044.7,112.8h-165c-4.3,0-7.8,3.5-7.8,7.8v53.8c0,4.3,3.5,7.8,7.8,7.8h165c4.3,0,7.8-3.5,7.8-7.8v-53.8
					C-1036.8,116.4-1040.4,112.8-1044.7,112.8z"/>
				<path class="st5" d="M-1044.7,179.3c2.7,0,4.8-2.2,4.8-4.8v-53.8c0-2.7-2.2-4.8-4.8-4.8h-165c-2.7,0-4.8,2.2-4.8,4.8v53.8
					c0,2.7,2.2,4.8,4.8,4.8H-1044.7z"/>
			</g>
			<rect x="-1146.8" y="144" style="fill:none;" width="102.9" height="31.7"/>
			<text transform="matrix(1 0 0 1 -1146.7559 148.2389)"><tspan x="0" y="0" class="st9" style="font-family:'Roboto-Regular'; font-size:5.5115px;">Lorem</tspan><tspan x="15.8" y="0" class="st9" style="font-family:'Roboto-Regular'; font-size:5.5115px;"> </tspan><tspan x="17.7" y="0" class="st9" style="font-family:'Roboto-Regular'; font-size:5.5115px;">ipsum</tspan><tspan x="33.1" y="0" class="st9" style="font-family:'Roboto-Regular'; font-size:5.5115px;"> </tspan><tspan x="35" y="0" class="st9" style="font-family:'Roboto-Regular'; font-size:5.5115px;">dolor</tspan><tspan x="47.8" y="0" class="st9" style="font-family:'Roboto-Regular'; font-size:5.5115px;"> </tspan><tspan x="49.7" y="0" class="st9" style="font-family:'Roboto-Regular'; font-size:5.5115px;">sit</tspan><tspan x="55.8" y="0" class="st9" style="font-family:'Roboto-Regular'; font-size:5.5115px;"> </tspan><tspan x="57.8" y="0" class="st9" style="font-family:'Roboto-Regular'; font-size:5.5115px;">amet,</tspan><tspan x="71.5" y="0" class="st9" style="font-family:'Roboto-Regular'; font-size:5.5115px;"> </tspan><tspan x="73.4" y="0" class="st9" style="font-family:'Roboto-Regular'; font-size:5.5115px;">consectetur </tspan><tspan x="0" y="6.6" class="st9" style="font-family:'Roboto-Regular'; font-size:5.5115px;">adipiscing</tspan><tspan x="25.5" y="6.6" class="st9" style="font-family:'Roboto-Regular'; font-size:5.5115px; letter-spacing:1;"> </tspan><tspan x="28.4" y="6.6" class="st9" style="font-family:'Roboto-Regular'; font-size:5.5115px;">elit,</tspan><tspan x="37" y="6.6" class="st9" style="font-family:'Roboto-Regular'; font-size:5.5115px; letter-spacing:1;"> </tspan><tspan x="39.9" y="6.6" class="st9" style="font-family:'Roboto-Regular'; font-size:5.5115px;">sed</tspan><tspan x="48.8" y="6.6" class="st9" style="font-family:'Roboto-Regular'; font-size:5.5115px; letter-spacing:1;"> </tspan><tspan x="51.7" y="6.6" class="st9" style="font-family:'Roboto-Regular'; font-size:5.5115px;">do</tspan><tspan x="58" y="6.6" class="st9" style="font-family:'Roboto-Regular'; font-size:5.5115px; letter-spacing:1;"> </tspan><tspan x="60.9" y="6.6" class="st9" style="font-family:'Roboto-Regular'; font-size:5.5115px;">eiusmod</tspan><tspan x="82.2" y="6.6" class="st9" style="font-family:'Roboto-Regular'; font-size:5.5115px; letter-spacing:1;"> </tspan><tspan x="85.1" y="6.6" class="st9" style="font-family:'Roboto-Regular'; font-size:5.5115px;">tempor </tspan><tspan x="0" y="13.2" class="st9" style="font-family:'Roboto-Regular'; font-size:5.5115px;">incididunt</tspan><tspan x="24.6" y="13.2" class="st9" style="font-family:'Roboto-Regular'; font-size:5.5115px; letter-spacing:2;"> </tspan><tspan x="28.6" y="13.2" class="st9" style="font-family:'Roboto-Regular'; font-size:5.5115px;">ut</tspan><tspan x="33.6" y="13.2" class="st9" style="font-family:'Roboto-Regular'; font-size:5.5115px; letter-spacing:2;"> </tspan><tspan x="37.7" y="13.2" class="st9" style="font-family:'Roboto-Regular'; font-size:5.5115px;">labore</tspan><tspan x="53.2" y="13.2" class="st9" style="font-family:'Roboto-Regular'; font-size:5.5115px; letter-spacing:2;"> </tspan><tspan x="57.3" y="13.2" class="st9" style="font-family:'Roboto-Regular'; font-size:5.5115px;">et</tspan><tspan x="62" y="13.2" class="st9" style="font-family:'Roboto-Regular'; font-size:5.5115px; letter-spacing:2;"> </tspan><tspan x="66.1" y="13.2" class="st9" style="font-family:'Roboto-Regular'; font-size:5.5115px;">dolore</tspan><tspan x="81.7" y="13.2" class="st9" style="font-family:'Roboto-Regular'; font-size:5.5115px; letter-spacing:2;"> </tspan><tspan x="85.7" y="13.2" class="st9" style="font-family:'Roboto-Regular'; font-size:5.5115px;">magna </tspan><tspan x="0" y="19.8" class="st9" style="font-family:'Roboto-Regular'; font-size:5.5115px;">aliqua.</tspan><tspan x="16.6" y="19.8" class="st9" style="font-family:'Roboto-Regular'; font-size:5.5115px; letter-spacing:1;"> </tspan><tspan x="19.4" y="19.8" class="st9" style="font-family:'Roboto-Regular'; font-size:5.5115px;">Ut</tspan><tspan x="25" y="19.8" class="st9" style="font-family:'Roboto-Regular'; font-size:5.5115px; letter-spacing:1;"> </tspan><tspan x="27.9" y="19.8" class="st9" style="font-family:'Roboto-Regular'; font-size:5.5115px;">enim</tspan><tspan x="40.1" y="19.8" class="st9" style="font-family:'Roboto-Regular'; font-size:5.5115px; letter-spacing:1;"> </tspan><tspan x="43" y="19.8" class="st9" style="font-family:'Roboto-Regular'; font-size:5.5115px;">ad</tspan><tspan x="49.1" y="19.8" class="st9" style="font-family:'Roboto-Regular'; font-size:5.5115px; letter-spacing:1;"> </tspan><tspan x="52" y="19.8" class="st9" style="font-family:'Roboto-Regular'; font-size:5.5115px;">minim</tspan><tspan x="67.5" y="19.8" class="st9" style="font-family:'Roboto-Regular'; font-size:5.5115px; letter-spacing:1;"> </tspan><tspan x="70.4" y="19.8" class="st9" style="font-family:'Roboto-Regular'; font-size:5.5115px;">veniam,</tspan><tspan x="89.5" y="19.8" class="st9" style="font-family:'Roboto-Regular'; font-size:5.5115px; letter-spacing:1;"> </tspan><tspan x="92.3" y="19.8" class="st9" style="font-family:'Roboto-Regular'; font-size:5.5115px;">quis </tspan><tspan x="0" y="26.5" class="st9" style="font-family:'Roboto-Regular'; font-size:5.5115px;">nostrud</tspan><tspan x="19.2" y="26.5" class="st9" style="font-family:'Roboto-Regular'; font-size:5.5115px;"> </tspan><tspan x="21.5" y="26.5" class="st9" style="font-family:'Roboto-Regular'; font-size:5.5115px;">exercitation</tspan><tspan x="50.6" y="26.5" class="st9" style="font-family:'Roboto-Regular'; font-size:5.5115px;"> </tspan><tspan x="52.9" y="26.5" class="st9" style="font-family:'Roboto-Regular'; font-size:5.5115px;">ullamco</tspan><tspan x="72.7" y="26.5" class="st9" style="font-family:'Roboto-Regular'; font-size:5.5115px;"> </tspan><tspan x="74.9" y="26.5" class="st9" style="font-family:'Roboto-Regular'; font-size:5.5115px;">laboris</tspan><tspan x="91.8" y="26.5" class="st9" style="font-family:'Roboto-Regular'; font-size:5.5115px;"> </tspan><tspan x="94.1" y="26.5" class="st9" style="font-family:'Roboto-Regular'; font-size:5.5115px;">nisi </tspan></text>
			<rect x="-1146.8" y="119" style="fill:none;" width="102.9" height="21.2"/>
			<text transform="matrix(1 0 0 1 -1146.7559 125.6759)"><tspan x="0" y="0" class="st9" style="font-family:'Roboto-Bold'; font-size:8.8184px;">Lorem ipsum dolor sit </tspan><tspan x="0" y="10.6" class="st9" style="font-family:'Roboto-Bold'; font-size:8.8184px;">amet, consectetur </tspan></text>
			<g>
				<g>
					<path class="st9" d="M-1165.7,105.8h-44c-8.2,0-14.8,6.7-14.8,14.8v53.8c0,8.2,6.7,14.8,14.8,14.8h44c8.2,0,14.8-6.7,14.8-14.8
						v-53.8C-1150.8,112.5-1157.5,105.8-1165.7,105.8z"/>
					<linearGradient id="SVGID_41_" gradientUnits="userSpaceOnUse" x1="-1222.0308" y1="147.5767" x2="-1153.3311" y2="147.5767">
						<stop  offset="0" style="stop-color:#FFDFA1"/>
						<stop  offset="1" style="stop-color:#FBBE43"/>
					</linearGradient>
					<path class="st47" d="M-1165.7,108.3h-44c-6.8,0-12.3,5.5-12.3,12.3v53.8c0,6.8,5.5,12.3,12.3,12.3h44
						c6.8,0,12.3-5.5,12.3-12.3v-53.8C-1153.3,113.9-1158.9,108.3-1165.7,108.3z"/>
					<linearGradient id="SVGID_42_" gradientUnits="userSpaceOnUse" x1="-1217.5308" y1="147.5767" x2="-1157.8311" y2="147.5767">
						<stop  offset="0" style="stop-color:#FBBE43"/>
						<stop  offset="1" style="stop-color:#FFDFA1"/>
					</linearGradient>
					<path class="st48" d="M-1165.7,112.8h-44c-4.3,0-7.8,3.5-7.8,7.8v53.8c0,4.3,3.5,7.8,7.8,7.8h44c4.3,0,7.8-3.5,7.8-7.8v-53.8
						C-1157.8,116.4-1161.4,112.8-1165.7,112.8z"/>
					<path class="st5" d="M-1165.7,179.3c2.7,0,4.8-2.2,4.8-4.8v-53.8c0-2.7-2.2-4.8-4.8-4.8h-44c-2.7,0-4.8,2.2-4.8,4.8v53.8
						c0,2.7,2.2,4.8,4.8,4.8H-1165.7z"/>
				</g>
				<g>
					<polygon class="st9" points="-1166.4,127.1 -1166.9,133.4 -1179,133.4 -1179,146 -1167.9,144.4 -1169.5,163.7 -1185.3,168.1 
						-1185.3,160.8 -1174.7,157.9 -1174.3,152 -1185.3,153.9 -1185.3,127.1 					"/>
					<polygon class="st9" points="-1191.6,127.1 -1191.6,168.1 -1209,163.3 -1209,155.5 -1197.9,158.5 -1197.9,127.1 					"/>
				</g>
			</g>
		</g>
	</g>
</g>
<g id="Boton_Search_e_Voltar" class="st0">
	<g class="st1">
		<g>
			<circle class="st9" cx="-852.4" cy="-96.9" r="14.3"/>
			
				<linearGradient id="SVGID_43_" gradientUnits="userSpaceOnUse" x1="-865.7237" y1="-858.8187" x2="-839.0684" y2="-858.8187" gradientTransform="matrix(1 0 0 -1 0 -955.7475)">
				<stop  offset="0" style="stop-color:#EF7852"/>
				<stop  offset="1" style="stop-color:#EB5C2C"/>
			</linearGradient>
			<circle class="st49" cx="-852.4" cy="-96.9" r="13.3"/>
			
				<linearGradient id="SVGID_44_" gradientUnits="userSpaceOnUse" x1="-863.5024" y1="-858.8187" x2="-841.2897" y2="-858.8187" gradientTransform="matrix(1 0 0 -1 0 -955.7475)">
				<stop  offset="0" style="stop-color:#EB5C2C"/>
				<stop  offset="1" style="stop-color:#EF7852"/>
			</linearGradient>
			<path class="st50" d="M-852.4-85.8c-6.1,0-11.1-5-11.1-11.1c0-6.1,5-11.1,11.1-11.1c6.1,0,11.1,5,11.1,11.1
				C-841.3-90.8-846.3-85.8-852.4-85.8z"/>
			<path class="st9" d="M-854.4-102.1c0.1-0.1,0.2-0.3,0.3-0.2c0.1,0.1,0.1,0.2,0.1,0.4c0,0.9,0,1.9,0,2.8c0,0.3,0.1,0.4,0.4,0.5
				c2.6,0.2,5,1.1,7.1,2.7c0.4,0.4,0.8,0.8,1.1,1.3c0.1,0.2,0.2,0.4,0.1,0.5c-0.2,0.2-0.4,0.1-0.5,0c-0.9-0.4-1.7-0.8-2.6-0.9
				c-1.7-0.3-3.4-0.2-5.1-0.1c-0.3,0-0.3,0.2-0.3,0.4c-0.1,1.1-0.1,2.2-0.2,3.3c-0.2,0-0.3-0.2-0.3-0.2c-1.6-1.6-3.2-3.3-4.8-4.9
				c-0.3-0.3-0.3-0.4,0-0.7C-857.7-98.9-856.1-100.5-854.4-102.1z"/>
		</g>
		<g>
			<g>
				<g>
					<path class="st9" d="M-702.3-111.3h-110.5c-7.1,0-12.8,6.4-12.8,14.3v0c0,7.9,5.7,14.3,12.8,14.3h110.5
						c7.1,0,12.8-6.4,12.8-14.3v0C-689.5-104.8-695.3-111.3-702.3-111.3z"/>
					<linearGradient id="SVGID_45_" gradientUnits="userSpaceOnUse" x1="-820.7241" y1="-96.6417" x2="-626.1282" y2="-97.5263">
						<stop  offset="0" style="stop-color:#222222"/>
						<stop  offset="0.261" style="stop-color:#202021"/>
						<stop  offset="0.4177" style="stop-color:#1B1B1C"/>
						<stop  offset="0.5465" style="stop-color:#121213"/>
						<stop  offset="0.5899" style="stop-color:#0D0E0E"/>
					</linearGradient>
					<path class="st51" d="M-702.4-110.4h-110.3c-6.6,0-12,6-12,13.5v0c0,7.4,5.4,13.5,12,13.5h110.3c6.6,0,12-6,12-13.5v0
						C-690.4-104.4-695.8-110.4-702.4-110.4z"/>
					<linearGradient id="SVGID_46_" gradientUnits="userSpaceOnUse" x1="-822.8542" y1="-96.9286" x2="-674.988" y2="-96.9286">
						<stop  offset="0" style="stop-color:#0D0E0E"/>
						<stop  offset="5.068219e-02" style="stop-color:#111212"/>
						<stop  offset="0.2146" style="stop-color:#1B1B1C"/>
						<stop  offset="0.4115" style="stop-color:#202020"/>
						<stop  offset="0.727" style="stop-color:#222222"/>
					</linearGradient>
					<path class="st52" d="M-692.3-96.9c0-6.4-4.6-11.6-10.2-11.6h-110.1c-5.6,0-10.2,5.2-10.2,11.6c0,6.4,4.6,11.6,10.2,11.6h110.1
						C-696.9-85.4-692.3-90.5-692.3-96.9z"/>
				</g>
				<g>
					<circle class="st9" cx="-703.9" cy="-96.9" r="14.3"/>
					
						<linearGradient id="SVGID_47_" gradientUnits="userSpaceOnUse" x1="-717.1847" y1="-858.8187" x2="-690.5294" y2="-858.8187" gradientTransform="matrix(1 0 0 -1 0 -955.7475)">
						<stop  offset="0" style="stop-color:#EF7852"/>
						<stop  offset="1" style="stop-color:#EB5C2C"/>
					</linearGradient>
					<circle class="st53" cx="-703.9" cy="-96.9" r="13.3"/>
					
						<linearGradient id="SVGID_48_" gradientUnits="userSpaceOnUse" x1="-714.9634" y1="-858.8187" x2="-692.7507" y2="-858.8187" gradientTransform="matrix(1 0 0 -1 0 -955.7475)">
						<stop  offset="0" style="stop-color:#EB5C2C"/>
						<stop  offset="1" style="stop-color:#EF7852"/>
					</linearGradient>
					<path class="st54" d="M-703.9-85.8c-6.1,0-11.1-5-11.1-11.1c0-6.1,5-11.1,11.1-11.1c6.1,0,11.1,5,11.1,11.1
						C-692.8-90.8-697.7-85.8-703.9-85.8z"/>
					<g>
						<path class="st9" d="M-705-103.6c-3,0-5.4,2.4-5.4,5.4c0,3,2.4,5.4,5.4,5.4s5.4-2.4,5.4-5.4C-699.6-101.1-702-103.6-705-103.6
							z M-705-94.6c-2,0-3.5-1.6-3.5-3.5c0-2,1.6-3.5,3.5-3.5s3.5,1.6,3.5,3.5C-701.5-96.2-703.1-94.6-705-94.6z"/>
						<path class="st9" d="M-697.5-91.9l-1.9-1.9c-0.4-0.4-1-0.4-1.3,0s-0.4,1,0,1.3l1.9,1.9c0.4,0.4,1,0.4,1.3,0
							S-697.1-91.6-697.5-91.9z"/>
					</g>
				</g>
			</g>
			<text transform="matrix(1.11 0 0 1 -813.5712 -94.0063)" class="st9" style="font-family:'Roboto-Thin'; font-size:10px;">Search</text>
		</g>
	</g>
</g>
<g id="Botons_Like_e_Coments" class="st0">
	<g class="st1">
		<g>
			<circle class="st9" cx="-717.1" cy="-32.9" r="14.3"/>
			
				<linearGradient id="SVGID_49_" gradientUnits="userSpaceOnUse" x1="-730.403" y1="-922.8901" x2="-703.7477" y2="-922.8901" gradientTransform="matrix(1 0 0 -1 0 -955.7475)">
				<stop  offset="0" style="stop-color:#EF7852"/>
				<stop  offset="1" style="stop-color:#EB5C2C"/>
			</linearGradient>
			<circle class="st55" cx="-717.1" cy="-32.9" r="13.3"/>
			
				<linearGradient id="SVGID_50_" gradientUnits="userSpaceOnUse" x1="-728.1817" y1="-922.8901" x2="-705.969" y2="-922.8901" gradientTransform="matrix(1 0 0 -1 0 -955.7475)">
				<stop  offset="0" style="stop-color:#EB5C2C"/>
				<stop  offset="1" style="stop-color:#EF7852"/>
			</linearGradient>
			<path class="st56" d="M-717.1-21.8c-6.1,0-11.1-5-11.1-11.1c0-6.1,5-11.1,11.1-11.1c6.1,0,11.1,5,11.1,11.1
				C-706-26.7-711-21.8-717.1-21.8z"/>
			<path class="st9" d="M-723.3-38.5v9.1h4l2.2,2.2l2.2-2.2h4v-9.1H-723.3z M-720.6-33c-0.5,0-1-0.4-1-1c0-0.5,0.4-1,1-1
				c0.5,0,1,0.4,1,1C-719.6-33.4-720-33-720.6-33z M-717.1-33c-0.5,0-1-0.4-1-1c0-0.5,0.4-1,1-1c0.5,0,1,0.4,1,1
				C-716.1-33.4-716.5-33-717.1-33z M-713.6-33c-0.5,0-1-0.4-1-1c0-0.5,0.4-1,1-1s1,0.4,1,1C-712.6-33.4-713.1-33-713.6-33z"/>
		</g>
		<g>
			<circle class="st9" cx="-807" cy="-32.9" r="14.3"/>
			
				<linearGradient id="SVGID_51_" gradientUnits="userSpaceOnUse" x1="-820.3536" y1="-922.8901" x2="-793.6984" y2="-922.8901" gradientTransform="matrix(1 0 0 -1 0 -955.7475)">
				<stop  offset="0" style="stop-color:#EF7852"/>
				<stop  offset="1" style="stop-color:#EB5C2C"/>
			</linearGradient>
			<circle class="st57" cx="-807" cy="-32.9" r="13.3"/>
			
				<linearGradient id="SVGID_52_" gradientUnits="userSpaceOnUse" x1="-818.1323" y1="-922.8901" x2="-795.9196" y2="-922.8901" gradientTransform="matrix(1 0 0 -1 0 -955.7475)">
				<stop  offset="0" style="stop-color:#EB5C2C"/>
				<stop  offset="1" style="stop-color:#EF7852"/>
			</linearGradient>
			<path class="st58" d="M-807-21.8c-6.1,0-11.1-5-11.1-11.1c0-6.1,5-11.1,11.1-11.1c6.1,0,11.1,5,11.1,11.1
				C-795.9-26.7-800.9-21.8-807-21.8z"/>
			<polygon class="st9" points="-808.5,-31.6 -812.3,-31.6 -812.3,-34.3 -808.5,-34.3 -808.5,-38.5 -805.6,-38.5 -805.6,-34.3 
				-801.8,-34.3 -801.8,-31.6 -805.6,-31.6 -805.6,-27.3 -808.5,-27.3 			"/>
		</g>
		<g>
			<circle class="st9" cx="-852" cy="-32.9" r="14.3"/>
			
				<linearGradient id="SVGID_53_" gradientUnits="userSpaceOnUse" x1="-865.3289" y1="-922.8901" x2="-838.6736" y2="-922.8901" gradientTransform="matrix(1 0 0 -1 0 -955.7475)">
				<stop  offset="0" style="stop-color:#EF7852"/>
				<stop  offset="1" style="stop-color:#EB5C2C"/>
			</linearGradient>
			<circle class="st59" cx="-852" cy="-32.9" r="13.3"/>
			
				<linearGradient id="SVGID_54_" gradientUnits="userSpaceOnUse" x1="-863.1077" y1="-922.8901" x2="-840.8949" y2="-922.8901" gradientTransform="matrix(1 0 0 -1 0 -955.7475)">
				<stop  offset="0" style="stop-color:#EB5C2C"/>
				<stop  offset="1" style="stop-color:#EF7852"/>
			</linearGradient>
			<path class="st60" d="M-852-21.8c-6.1,0-11.1-5-11.1-11.1c0-6.1,5-11.1,11.1-11.1c6.1,0,11.1,5,11.1,11.1
				C-840.9-26.7-845.9-21.8-852-21.8z"/>
			<path class="st9" d="M-854-38.1c0.1-0.1,0.2-0.3,0.3-0.2c0.1,0.1,0.1,0.2,0.1,0.4c0,0.9,0,1.9,0,2.8c0,0.3,0.1,0.4,0.4,0.5
				c2.6,0.2,5,1.1,7.1,2.7c0.4,0.4,0.8,0.8,1.1,1.3c0.1,0.2,0.2,0.4,0.1,0.5c-0.2,0.2-0.4,0.1-0.5,0c-0.9-0.4-1.7-0.8-2.6-0.9
				c-1.7-0.3-3.4-0.2-5.1-0.1c-0.3,0-0.3,0.2-0.3,0.4c-0.1,1.1-0.1,2.2-0.2,3.3c-0.2,0-0.3-0.2-0.3-0.2c-1.6-1.6-3.2-3.3-4.8-4.9
				c-0.3-0.3-0.3-0.4,0-0.7C-857.3-34.9-855.7-36.5-854-38.1z"/>
		</g>
		<g>
			<circle class="st9" cx="-762.1" cy="-32.9" r="14.3"/>
			
				<linearGradient id="SVGID_55_" gradientUnits="userSpaceOnUse" x1="-775.3783" y1="-922.8901" x2="-748.723" y2="-922.8901" gradientTransform="matrix(1 0 0 -1 0 -955.7475)">
				<stop  offset="0" style="stop-color:#EF7852"/>
				<stop  offset="1" style="stop-color:#EB5C2C"/>
			</linearGradient>
			<circle class="st61" cx="-762.1" cy="-32.9" r="13.3"/>
			
				<linearGradient id="SVGID_56_" gradientUnits="userSpaceOnUse" x1="-773.157" y1="-922.8901" x2="-750.9443" y2="-922.8901" gradientTransform="matrix(1 0 0 -1 0 -955.7475)">
				<stop  offset="0" style="stop-color:#EB5C2C"/>
				<stop  offset="1" style="stop-color:#EF7852"/>
			</linearGradient>
			<path class="st62" d="M-762.1-21.8c-6.1,0-11.1-5-11.1-11.1c0-6.1,5-11.1,11.1-11.1c6.1,0,11.1,5,11.1,11.1
				C-750.9-26.7-755.9-21.8-762.1-21.8z"/>
			<path class="st9" d="M-760.1-39.2c-0.6-0.7-1.6-0.3-1.9,0.5c-0.2,0.6-0.5,1.4-0.8,1.9c-0.8,1.7-1.3,2.6-2.6,3.8
				c-0.2,0.2-0.4,0.3-0.7,0.4c-0.9,0.3-1.7,1.3-1.5,2.3l0.3,1.4c0.1,0.7,0.7,1.3,1.4,1.5l4.4,1.2c2,0.5,4-0.7,4.4-2.8l0.5-2.9
				c0.3-1.4-0.8-2.8-2.3-2.8h-0.7l0,0c0.1-0.3,0.1-0.8,0.2-1.2c0-0.5,0.1-1,0-1.5c0-0.5-0.1-1-0.4-1.3
				C-759.8-38.9-759.9-39.1-760.1-39.2z"/>
		</g>
	</g>
</g>
<g id="Img_Html">
	<g>
		
			<image style="overflow:visible;" width="1193" height="624" xlink:href="71CD646C.jpg"  transform="matrix(0.1296 0 0 0.1296 0 0)">
		</image>
		
			<image style="overflow:visible;" width="1193" height="624" xlink:href="71CD646D.jpg"  transform="matrix(0.1296 0 0 0.1296 35.0588 0)">
		</image>
		
			<image style="overflow:visible;" width="1193" height="624" xlink:href="71CD646B.jpg"  transform="matrix(0.1296 0 0 0.1296 14.8489 0)">
		</image>
	</g>
</g>
</svg>
