<?xml version="1.0" encoding="utf-8"?>
<!-- Generator: Adobe Illustrator 24.2.1, SVG Export Plug-In . SVG Version: 6.00 Build 0)  -->
<svg version="1.1" xmlns="http://www.w3.org/2000/svg" xmlns:xlink="http://www.w3.org/1999/xlink" x="0px" y="0px"
	 viewBox="0 0 184 38.4" style="enable-background:new 0 0 184 38.4;" xml:space="preserve">
<style type="text/css">
	.st0{fill:#FFFFFF;}
	.st1{fill:#F0825D;}
	.st2{display:none;}
	.st3{display:inline;fill:#FFFFFF;}
	.st4{display:inline;}
	.st5{fill:url(#SVGID_1_);}
	.st6{fill:none;stroke:#FFFFFF;stroke-miterlimit:10;}
	.st7{font-family:'Roboto-Thin';}
	.st8{font-size:7px;}
	.st9{fill:url(#SVGID_2_);}
	.st10{fill:url(#SVGID_3_);}
	.st11{fill:url(#SVGID_4_);}
	.st12{fill:url(#SVGID_5_);}
	.st13{fill:url(#SVGID_6_);}
	.st14{fill:url(#SVGID_7_);}
	.st15{fill:url(#SVGID_8_);}
	.st16{fill:url(#SVGID_9_);}
	.st17{fill:url(#SVGID_10_);}
	.st18{fill:url(#SVGID_11_);}
	.st19{fill:url(#SVGID_12_);}
	.st20{fill:url(#SVGID_13_);}
	.st21{fill:url(#SVGID_14_);}
	.st22{fill:url(#SVGID_15_);}
	.st23{fill:url(#SVGID_16_);}
	.st24{fill:url(#SVGID_17_);}
	.st25{fill:url(#SVGID_18_);}
	.st26{fill:url(#SVGID_19_);}
	.st27{fill:url(#SVGID_20_);}
	.st28{fill:url(#SVGID_21_);}
	.st29{fill:url(#SVGID_22_);}
	.st30{fill:url(#SVGID_23_);}
	.st31{fill:url(#SVGID_24_);}
	.st32{fill-rule:evenodd;clip-rule:evenodd;fill:#FFFFFF;}
	.st33{fill:url(#SVGID_25_);}
	.st34{fill:url(#SVGID_26_);}
	.st35{fill:url(#SVGID_27_);}
	.st36{fill:url(#SVGID_28_);}
	.st37{fill:url(#SVGID_29_);}
	.st38{fill:url(#SVGID_30_);}
	.st39{fill:url(#SVGID_31_);}
	.st40{fill:url(#SVGID_32_);}
	.st41{fill:url(#SVGID_33_);}
	.st42{fill:url(#SVGID_34_);}
	.st43{fill:url(#SVGID_35_);}
	.st44{fill:url(#SVGID_36_);}
	.st45{fill:url(#SVGID_37_);}
	.st46{fill:url(#SVGID_38_);}
	.st47{fill:url(#SVGID_39_);}
	.st48{fill:url(#SVGID_40_);}
	.st49{fill:url(#SVGID_41_);}
	.st50{fill:url(#SVGID_42_);}
	.st51{fill:url(#SVGID_43_);}
	.st52{fill:url(#SVGID_44_);}
	.st53{fill:url(#SVGID_45_);}
	.st54{fill:url(#SVGID_46_);}
	.st55{fill:url(#SVGID_47_);}
	.st56{fill:url(#SVGID_48_);}
	.st57{fill:url(#SVGID_49_);}
	.st58{fill:url(#SVGID_50_);}
	.st59{fill:url(#SVGID_51_);}
	.st60{fill:url(#SVGID_52_);}
	.st61{fill:url(#SVGID_53_);}
	.st62{fill:url(#SVGID_54_);}
	.st63{fill:url(#SVGID_55_);}
	.st64{fill:url(#SVGID_56_);}
</style>
<g id="Logo">
	<g>
		<g>
			<path class="st0" d="M-335.3-413.9v3.8h-5.1v18.7h-4.1v-18.7h-5.1v-3.8H-335.3z"/>
			<path class="st0" d="M-324.6-408c1.1,0,2.1,0.6,2.8,1.7c0.3,0.4,0.5,0.9,0.6,1.5c0.1,0.6,0.2,1,0.2,1.4c0,0.4,0,0.9,0,1.6v10.5
				h-4.1v-10.5c0-0.9-0.1-1.4-0.2-1.7c-0.2-0.4-0.5-0.5-0.8-0.5c-0.3,0-0.6,0.2-0.8,0.5c-0.2,0.3-0.2,0.9-0.2,1.7v10.5h-4.1v-22.5
				h4.1v7.1h0.1c0.3-0.4,0.7-0.7,1.1-0.9C-325.5-407.9-325-408-324.6-408z"/>
			<path class="st0" d="M-309.7-408c1.2,0,2.3,0.3,3.2,0.9c0.9,0.6,1.5,1.4,1.9,2.3c0.2,0.5,0.3,1,0.4,1.6c0.1,0.6,0.1,1.2,0.2,1.6
				c0,0.5,0,1.1,0,2v1.9h-7.1c0,0.9,0.1,1.5,0.2,1.8c0.3,0.6,0.8,0.8,1.6,0.8c1.2,0,2.8-0.1,4.8-0.3v3.8c-1.9,0.2-3.5,0.3-4.8,0.3
				c-1.3,0-2.4-0.3-3.3-0.9c-0.9-0.6-1.6-1.4-2-2.4c-0.3-0.7-0.5-1.4-0.5-2.2c-0.1-0.8-0.1-1.7-0.1-2.9c0-1.2,0-2.2,0.1-3
				c0.1-0.8,0.2-1.5,0.5-2.2c0.4-0.9,1-1.7,1.8-2.3C-312-407.7-311-408-309.7-408z M-309.7-404.2c-0.2,0-0.3,0-0.5,0.1
				c-0.1,0-0.3,0.1-0.4,0.2c-0.1,0.1-0.2,0.2-0.3,0.3c-0.1,0.1-0.1,0.2-0.2,0.4s-0.1,0.3-0.1,0.4c0,0.1,0,0.3-0.1,0.5s0,0.4,0,0.5
				s0,0.3,0,0.6h3.1c0-1.1-0.1-1.8-0.3-2.2C-308.7-403.9-309.1-404.2-309.7-404.2z"/>
			<path class="st0" d="M-277.3-391.1c-1.7,0-3.7-0.2-5.9-0.5v-3.9c2.6,0.4,4.5,0.6,5.9,0.6c1.9,0,2.8-1,2.8-3
				c0-0.6-0.1-1.1-0.4-1.6s-0.7-0.9-1.1-1c-0.3-0.1-0.7-0.2-1.3-0.3c-0.5-0.1-1.1-0.2-1.7-0.3c-0.6-0.1-1.1-0.4-1.6-0.7
				c-2-1.2-3-3.1-3-5.7c0-1.8,0.6-3.4,1.8-4.6c1.2-1.3,2.7-1.9,4.5-1.9c1.4,0,3.4,0.1,5.9,0.4v3.9c-2.6-0.3-4.6-0.4-5.9-0.4
				c-0.4,0-0.8,0.1-1.1,0.3c-0.3,0.2-0.5,0.4-0.7,0.7c-0.2,0.3-0.3,0.6-0.3,0.9s-0.1,0.6-0.1,0.9c0,1.3,0.4,2.1,1.3,2.5
				c0.3,0.1,0.9,0.3,1.9,0.4c1,0.2,1.8,0.4,2.4,0.7c0.9,0.4,1.6,1,2.1,1.7c0.6,0.7,0.9,1.4,1.2,2.1s0.3,1.4,0.3,2.2
				c0,2.1-0.6,3.7-1.9,5S-275.3-391.1-277.3-391.1z"/>
			<path class="st0" d="M-258.9-408c0.8,0,1.5,0.3,2.1,1c0.6,0.7,1.1,1.6,1.4,2.8c0.2,1,0.3,2.5,0.3,4.6c0,2.1-0.1,3.7-0.3,4.6
				c-0.3,1.2-0.7,2.1-1.4,2.8c-0.6,0.7-1.3,1-2.1,1c-1.2,0-2.1-0.4-2.7-1.3h-0.1v7.2h-4.1v-22.5h4.1v1h0.1
				C-261-407.6-260.1-408-258.9-408z M-259.7-403.7c-0.2-0.3-0.4-0.5-0.7-0.5c-0.3,0-0.5,0.2-0.7,0.5s-0.3,0.7-0.4,1.2
				c-0.1,0.6-0.2,1.5-0.2,2.9s0.1,2.3,0.2,2.9c0.1,0.5,0.2,0.9,0.4,1.2s0.4,0.5,0.7,0.5c0.3,0,0.5-0.2,0.7-0.5
				c0.2-0.3,0.3-0.7,0.4-1.2c0.1-0.6,0.2-1.5,0.2-2.9s-0.1-2.3-0.2-2.9C-259.4-403-259.5-403.4-259.7-403.7z"/>
			<path class="st0" d="M-243.8-408c0.9,0,1.7,0.1,2.4,0.4c0.7,0.3,1.3,0.8,1.7,1.6c0.3,0.6,0.5,1.4,0.5,2.6v12h-4.1v-0.8h-0.2
				c-0.6,0.7-1.4,1.1-2.3,1.1c-1.1,0-2.1-0.5-3-1.5c-0.8-1-1.3-2.2-1.3-3.6c0-1.6,0.5-2.9,1.4-3.9c0.3-0.4,0.7-0.7,1.1-0.9
				c0.4-0.2,0.8-0.4,1.2-0.5s0.7-0.1,1-0.2c0.3,0,0.6,0,0.9,0h1.1v-1.7c0-0.2-0.1-0.4-0.3-0.6c-0.2-0.2-0.4-0.3-0.7-0.3
				c-1,0-2.4,0.1-4.1,0.3v-3.9C-246.6-407.9-245.1-408-243.8-408z M-243.3-398.1h-1.1c-0.5,0-0.9,0.2-1.1,0.5
				c-0.2,0.3-0.3,0.8-0.3,1.4c0,0.4,0.1,0.7,0.3,0.9c0.2,0.2,0.4,0.4,0.7,0.4c0.4,0,0.7-0.1,0.9-0.3s0.4-0.4,0.5-0.8
				c0.1-0.3,0.1-0.6,0.2-0.9s0-0.5,0-0.9V-398.1z"/>
			<path class="st0" d="M-233.4-396.6c-0.1-0.8-0.1-1.7-0.1-2.9s0-2.2,0.1-2.9c0.1-0.8,0.3-1.5,0.6-2.2c1-2.2,2.8-3.3,5.4-3.3
				c1.2,0,2.7,0.1,4.5,0.3v3.8c-1.8-0.2-3.3-0.3-4.5-0.3c-0.5,0-0.8,0.1-1.1,0.4c-0.3,0.2-0.5,0.6-0.7,1.1c-0.2,0.6-0.3,1.6-0.3,3.1
				s0.1,2.6,0.3,3.1c0.2,0.5,0.4,0.9,0.7,1.1c0.3,0.2,0.6,0.4,1.1,0.4c1.2,0,2.8-0.1,4.6-0.4v3.8c-1.8,0.3-3.4,0.4-4.6,0.4
				c-2.6,0-4.4-1.1-5.4-3.3C-233.2-395.2-233.4-395.9-233.4-396.6z"/>
			<path class="st0" d="M-211.6-408c1.2,0,2.3,0.3,3.2,0.9c0.9,0.6,1.5,1.4,1.9,2.3c0.2,0.5,0.3,1,0.4,1.6c0.1,0.6,0.1,1.2,0.2,1.6
				c0,0.5,0,1.1,0,2v1.9h-7.1c0,0.9,0.1,1.5,0.2,1.8c0.3,0.6,0.8,0.8,1.6,0.8c1.2,0,2.8-0.1,4.8-0.3v3.8c-1.9,0.2-3.5,0.3-4.8,0.3
				c-1.3,0-2.4-0.3-3.3-0.9c-0.9-0.6-1.6-1.4-2-2.4c-0.3-0.7-0.5-1.4-0.5-2.2c-0.1-0.8-0.1-1.7-0.1-2.9c0-1.2,0-2.2,0.1-3
				c0.1-0.8,0.2-1.5,0.5-2.2c0.4-0.9,1-1.7,1.8-2.3C-213.9-407.7-212.8-408-211.6-408z M-211.6-404.2c-0.2,0-0.3,0-0.5,0.1
				c-0.1,0-0.3,0.1-0.4,0.2c-0.1,0.1-0.2,0.2-0.3,0.3c-0.1,0.1-0.1,0.2-0.2,0.4s-0.1,0.3-0.1,0.4c0,0.1,0,0.3-0.1,0.5s0,0.4,0,0.5
				s0,0.3,0,0.6h3.1c0-1.1-0.1-1.8-0.3-2.2C-210.5-403.9-210.9-404.2-211.6-404.2z"/>
			<path class="st0" d="M-181.5-407.3c0.8-0.5,1.7-0.7,2.7-0.7c1,0,1.9,0.2,2.7,0.7c0.8,0.5,1.4,1.1,1.9,1.9
				c0.4,0.7,0.7,1.5,0.8,2.4c0.1,0.9,0.2,2.1,0.2,3.5s-0.1,2.5-0.2,3.5c-0.1,0.9-0.4,1.7-0.8,2.4c-0.5,0.8-1.1,1.4-1.9,1.9
				c-0.8,0.5-1.7,0.7-2.7,0.7c-1,0-1.9-0.2-2.7-0.7c-0.8-0.5-1.4-1.1-1.9-1.9c-0.4-0.7-0.7-1.5-0.8-2.4c-0.1-0.9-0.2-2.1-0.2-3.5
				s0.1-2.5,0.2-3.5c0.1-0.9,0.4-1.7,0.8-2.4C-182.9-406.3-182.3-406.9-181.5-407.3z M-178.8-404.2c-0.5,0-0.9,0.4-1.2,1.1
				c-0.2,0.6-0.3,1.8-0.3,3.5s0.1,2.9,0.3,3.5c0.3,0.7,0.7,1.1,1.2,1.1c0.5,0,0.9-0.4,1.2-1.1c0.2-0.6,0.3-1.8,0.3-3.5
				s-0.1-2.9-0.3-3.5C-177.9-403.8-178.3-404.2-178.8-404.2z"/>
			<path class="st0" d="M-160.4-391.4h-4.1v-10.5h-4.1v-3.8h4.1v-3.7c0-0.4,0-0.7,0-1c0-0.3,0.1-0.6,0.3-1c0.2-0.4,0.4-0.8,0.7-1.2
				c0.4-0.5,1-0.9,1.8-1.1c0.8-0.3,1.6-0.4,2.5-0.4c0.9,0,1.8,0,2.8,0.1v3.8c-1.1-0.1-1.9-0.1-2.5-0.1c-0.2,0-0.4,0-0.6,0
				c-0.1,0-0.3,0.1-0.5,0.2c-0.2,0.1-0.3,0.2-0.4,0.5c-0.1,0.2-0.1,0.5-0.1,0.8v3.1h4.1v3.8h-4.1V-391.4z"/>
		</g>
		<g>
			<path class="st0" d="M-341.3-330.8h-6.7h-6.7h-6.7v-6.7v-6.7v-6.7v-6.7v-6.7v-6.7h6.7h6.7h6.7h6.7h6.7v6.7v6.7v6.7v6.7v6.7h-6.7
				v6.7H-341.3z M-341.3-337.5v-6.7v-6.7v-6.7v-6.7h-6.7v6.7v6.7v6.7v6.7H-341.3z"/>
			<path class="st0" d="M-294.1-337.5h6.7v6.7h-6.7h-6.7h-6.7h-6.7h-6.7v-6.7v-6.7v-6.7v-6.7v-6.7v-6.7h6.7h6.7h6.7h6.7h6.7v6.7v6.7
				v6.7v6.7h-6.7h-6.7h-6.7v6.7h6.7H-294.1z M-300.9-351v-6.7v-6.7h-6.7v6.7v6.7H-300.9z"/>
			<path class="st0" d="M-253.6-330.8h-6.7h-6.7h-6.7v-6.7h-6.7v-6.7v-6.7v-6.7v-6.7v-6.7h6.7h6.7v6.7v6.7v6.7v6.7v6.7h6.7v-6.7
				v-6.7v-6.7v-6.7v-6.7h6.7h6.7v6.7v6.7v6.7v6.7v6.7v6.7H-253.6z"/>
			<path class="st0" d="M-213.2-337.5h6.7v6.7h-6.7h-6.7h-6.7h-6.7h-6.7v-6.7v-6.7v-6.7v-6.7v-6.7v-6.7h6.7h6.7h6.7h6.7h6.7v6.7v6.7
				v6.7v6.7h-6.7h-6.7h-6.7v6.7h6.7H-213.2z M-219.9-351v-6.7v-6.7h-6.7v6.7v6.7H-219.9z"/>
			<path class="st0" d="M-186.2-330.8h-6.7h-6.7v-6.7v-6.7v-6.7v-6.7v-6.7v-6.7h6.7h6.7v6.7v6.7v6.7v6.7v6.7h6.7v6.7H-186.2z"/>
			<path class="st0" d="M-145.7-330.8h-6.7h-6.7h-6.7h-6.7v-6.7v-6.7v-6.7v-6.7v-6.7v-6.7h6.7h6.7h6.7h6.7h6.7v6.7v6.7v6.7v6.7v6.7
				v6.7H-145.7z M-152.5-337.5v-6.7v-6.7v-6.7v-6.7h-6.7v6.7v6.7v6.7v6.7H-152.5z"/>
			<path class="st0" d="M-125.5-317.3h-6.7v-6.7v-6.7v-6.7v-6.7v-6.7v-6.7v-6.7v-6.7h6.7h6.7h6.7h6.7h6.7v6.7v6.7v6.7v6.7v6.7v6.7
				h-6.7h-6.7h-6.7v6.7v6.7H-125.5z M-112-337.5v-6.7v-6.7v-6.7v-6.7h-6.7v6.7v6.7v6.7v6.7H-112z"/>
			<path class="st0" d="M-64.8-337.5h6.7v6.7h-6.7h-6.7h-6.7H-85h-6.7v-6.7v-6.7v-6.7v-6.7v-6.7v-6.7h6.7h6.7h6.7h6.7h6.7v6.7v6.7
				v6.7v6.7h-6.7h-6.7h-6.7v6.7h6.7H-64.8z M-71.5-351v-6.7v-6.7h-6.7v6.7v6.7H-71.5z"/>
			<path class="st0" d="M-44.5-330.8h-6.7v-6.7v-6.7v-6.7v-6.7v-6.7v-6.7h6.7h6.7h6.7h6.7h6.7v6.7v6.7h-6.7H-31v-6.7h-6.7v6.7v6.7
				v6.7v6.7v6.7H-44.5z"/>
			<path class="st0" d="M16.2-330.8H9.5H2.7H-4h-6.7v-6.7v-6.7H-4h6.7v6.7h6.7v-6.7v-6.7H2.7H-4h-6.7v-6.7v-6.7v-6.7H-4h6.7h6.7h6.7
				h6.7v6.7h-6.7H9.5H2.7v6.7h6.7h6.7h6.7v6.7v6.7v6.7v6.7H16.2z"/>
		</g>
		<g>
			<g>
				<path class="st1" d="M11.5-279.5c-16.8,0-32.3-6-44.4-16.1l-6.3,9.7C-25.3-274.7-7.6-268,11.5-268c19.2,0,36.8-6.7,50.6-17.9
					l-8-8.3C42.4-285,27.6-279.5,11.5-279.5z"/>
			</g>
			<g>
				<path class="st1" d="M76.3-324l10.9,3.7c0.9-2.3,1.7-4.7,2.3-7.2l-10.8-4C78-328.9,77.2-326.4,76.3-324z"/>
			</g>
			<g>
				<path class="st1" d="M11.5-429.8c-23.4,0-44.6,10-59.4,26l6.7,9.7c12.7-14.8,31.6-24.3,52.7-24.3c38.3,0,69.4,31.2,69.4,69.4
					c0,4.6-0.5,9.2-1.3,13.5l11.2,2.4c1-5.2,1.6-10.5,1.6-16C92.4-393.6,56.1-429.8,11.5-429.8z"/>
			</g>
		</g>
		<g>
			<g>
				<path class="st1" d="M10.8-224.6c-50.7,0-94.8-28.2-116.1-69.2c-3.2,1.2-6.9,2.8-10.7,4.3c23.1,45.2,71.2,76.4,126.8,76.4
					c14.6,0,28.6-2.1,41.9-6.1c-1.2-3.7-2.4-7.8-3.4-11C37.2-226.5,24.2-224.6,10.8-224.6z"/>
			</g>
			<g>
				<path class="st1" d="M73.2-472.4c-0.6,3.4-1.6,8-2.4,11.6c41.5,20.9,69.9,62.8,69.9,111c0,50.7-31.5,94.5-76.6,114.1l4.5,10.5
					c49.2-21.4,83.6-69.2,83.6-124.7C152.2-403.5,120-450,73.2-472.4z"/>
			</g>
			<g>
				<path class="st1" d="M10.8-475c7,0,13.9,0.6,20.6,1.6l-4.8-12.2c-5.2-0.6-10.4-0.9-15.7-0.9c-56.2,0-104.9,31.9-127.6,78
					l8.2,9.6C-88.8-443.6-42.7-475,10.8-475z"/>
			</g>
			<g>
				<path class="st1" d="M45.2-470.5c0.4-3.6,0.9-8.1,1.3-11.5c-4.5-1.1-9.1-2.1-13.8-2.8l5.5,12.7
					C40.6-471.6,42.9-471.1,45.2-470.5z"/>
			</g>
		</g>
		<g>
			<g>
				<path class="st1" d="M-131.9-285c-2.4,1.9-5.2,4.1-7.9,6.2c1.8,3.5,3.7,7,5.7,10.4c2.8-2.3,5.8-4.6,7.7-6.3
					C-128.3-278-130.2-281.4-131.9-285z"/>
			</g>
			<g>
				<path class="st1" d="M9.9-197c-54.5,0-102.6-27.4-130.7-68.9l-7,7.2c30,43.2,80.6,71.6,137.7,71.6c37.6,0,72.2-12.2,100.1-32.9
					c-1.9-2.7-4-5.5-5.8-8C78-208.6,45.3-197,9.9-197z"/>
			</g>
			<g>
				<path class="st1" d="M10.6-514v9.8c86.1,0.4,156,69.1,156,153.6c0,18.2-3.3,35.7-9.2,51.9l9.1,3.7c6.4-17.4,9.9-36.1,9.9-55.6
					C176.5-440.5,102.2-513.6,10.6-514z"/>
			</g>
			<g>
				<path class="st1" d="M-107.8-452l-6.5-7.4c-9.1,10-17,21-23.4,33l7.6,6.7C-124.1-431.4-116.5-442.3-107.8-452z"/>
			</g>
		</g>
		<g>
			<g>
				<path class="st1" d="M156.9-384.3c-15.7-64.9-75.6-113.4-147-113.4c-59.1,0-110.3,33.2-135.1,81.5l5.3,4.1
					c23.5-46.7,72.8-79,129.8-79c68.4,0,125.8,46.5,140.7,108.8C152.5-383,154.9-383.7,156.9-384.3z"/>
			</g>
			<g>
				<path class="st1" d="M159.1-373.4c-2.2,0.5-4.5,1-6.4,1.4c1.1,6.9,1.7,14,1.7,21.3c0,16.2-2.8,31.7-8,46.1l5.9,3.1
					c5.6-15.4,8.7-32,8.7-49.2C160.9-358.4,160.3-366,159.1-373.4z"/>
			</g>
			<g>
				<path class="st1" d="M-119.5-288.4l-6.4,1.8c10.6,21.2,26.2,39.5,45.3,53.5l4.6-4.8C-94.3-251.1-109.3-268.4-119.5-288.4z"/>
			</g>
		</g>
		<g>
			<g>
				<path class="st1" d="M121.4-356.6c2.1,0.3,4.5,0.7,6.7,1C124.8-416.4,73-465,9.9-465c-37.6,0-71.2,17.3-92.9,44.1l7.3,1.5
					c20.5-23.8,51.3-39,85.6-39C69-458.4,117.6-413.4,121.4-356.6z"/>
			</g>
			<g>
				<path class="st1" d="M121.6-346.3C120-287.5,70.5-240.2,9.9-240.2c-20.1,0-39-5.2-55.3-14.3l-1.5,6.7
					c16.9,9,36.2,14.2,56.7,14.2c64,0,116.2-49.8,118.3-111.8L121.6-346.3z"/>
			</g>
		</g>
		<g>
			<g>
				<path class="st1" d="M39.6-440l3.2-4.1c-10.4-3.6-21.5-5.6-33.1-5.6c-29.3,0-55.6,12.6-74,32.6l5.4,1.5
					c17.4-18,41.7-29.2,68.6-29.2C20.1-444.8,30.1-443.1,39.6-440z"/>
			</g>
			<g>
				<path class="st1" d="M74.6-425.7c-0.9,1.2-1.9,2.6-2.9,3.9c18.1,15.5,30.3,37.7,32.8,62.7c1.7,0.4,3.5,0.9,5,1.3
					C107.3-384.9,94.2-409,74.6-425.7z"/>
			</g>
			<g>
				<path class="st1" d="M9.6-254.1c-18.7,0-36.2-5.4-50.9-14.8l-1.3,5c15.2,9.3,33.1,14.7,52.2,14.7c35.7,0,67-18.8,84.8-46.9
					c-1.3-0.7-2.9-1.6-4.3-2.3C73.2-271.9,43.5-254.1,9.6-254.1z"/>
			</g>
		</g>
		<g>
			<g>
				<path class="st1" d="M9.7-440.2c-14.9,0-28.9,3.6-41.3,10c0.9,1.2,2.1,2.8,3,4c11.6-5.8,24.6-9,38.3-9c43.8,0,80,32.9,85.3,75.2
					l4.9-0.4C94.4-405.3,56-440.2,9.7-440.2z"/>
			</g>
			<g>
				<path class="st1" d="M9.7-263.2c-18.5,0-35.6-5.9-49.6-15.8l-0.9,5.4C-26.4-264-9-258.3,9.7-258.3c22.7,0,43.5-8.4,59.5-22.2
					c-1.5-1.1-2.9-2.2-4-3C50.2-270.9,30.8-263.2,9.7-263.2z"/>
			</g>
		</g>
		<g>
			<g>
				<path class="st1" d="M10-289.1c-11.3,0-21.9-3-30.9-8.3c-0.7,1.5-1.4,3-2,4.5c9.7,5.5,21,8.7,33,8.7c15.3,0,29.3-5.1,40.4-13.7
					c-1-1.1-2.1-2.5-3.2-3.7C36.9-293.8,24-289.1,10-289.1z"/>
			</g>
			<g>
				<path class="st1" d="M10-411.2c-17.7,0-33.8,6.9-45.6,18.1l4.2,2.8c10.8-9.9,25.4-15.9,41.3-15.9c33.3,0,60.4,26.3,60.4,58.6
					c0,10.9-3.1,21.1-8.4,29.8l3.8,3.2c6-9.6,9.5-20.9,9.5-33C75.3-382.7,46-411.2,10-411.2z"/>
			</g>
		</g>
	</g>
</g>
<g id="Loading_Bar" class="st2">
	<path class="st3" d="M163.1-98.7h-498.2c-12.9,0-23.4,10.5-23.4,23.4v0c0,12.9,10.5,23.4,23.4,23.4h498.2
		c12.9,0,23.4-10.5,23.4-23.4v0C186.5-88.3,176-98.7,163.1-98.7z M182.9-75.4L182.9-75.4c0,10.9-8.9,19.8-19.8,19.8l-227.3,0v-39.6
		h227.3C174.1-95.2,182.9-86.3,182.9-75.4z"/>
</g>
<g id="input" class="st2">
	<g class="st4">
		<g>
			<linearGradient id="SVGID_1_" gradientUnits="userSpaceOnUse" x1="1.6501" y1="18.9543" x2="182.3499" y2="18.9543">
				<stop  offset="0" style="stop-color:#0D0E0E"/>
				<stop  offset="1" style="stop-color:#222222"/>
			</linearGradient>
			<path class="st5" d="M165.1,1.7H18.9C9.4,1.7,1.7,9.4,1.7,19v0c0,9.5,7.7,17.2,17.2,17.2h146.2c9.5,0,17.2-7.7,17.2-17.2v0
				C182.3,9.4,174.6,1.7,165.1,1.7z"/>
			<path class="st6" d="M18.9,33.2h146.2c7.9,0,14.2-6.4,14.2-14.2v0c0-7.9-6.4-14.2-14.2-14.2H18.9C11,4.7,4.7,11.1,4.7,19v0
				C4.7,26.8,11,33.2,18.9,33.2z"/>
		</g>
		<text transform="matrix(1 0 0 1 76.3028 21.0002)" class="st0 st7 st8">Username</text>
	</g>
</g>
<g id="Boton_Login" class="st2">
	<g class="st4">
		<linearGradient id="SVGID_2_" gradientUnits="userSpaceOnUse" x1="-11.2065" y1="88.5882" x2="169.3242" y2="88.5882">
			<stop  offset="0" style="stop-color:#F9B654"/>
			<stop  offset="1" style="stop-color:#EF7C2C"/>
		</linearGradient>
		<path class="st9" d="M156.6,101.3H1.5c-7,0-12.8-5.7-12.8-12.8v0c0-7,5.7-12.8,12.8-12.8h155c7,0,12.8,5.7,12.8,12.8v0
			C169.3,95.6,163.6,101.3,156.6,101.3z"/>
		<g>
			<text transform="matrix(1 0 0 1 58.1838 94.2134)" class="st0" style="font-family:'Roboto-Bold'; font-size:15px;">Login</text>
		</g>
	</g>
</g>
<g id="Login_Google_Apple" class="st2">
	<g class="st4">
		<g>
			<linearGradient id="SVGID_3_" gradientUnits="userSpaceOnUse" x1="135.5316" y1="158" x2="170.5265" y2="158">
				<stop  offset="0" style="stop-color:#F9B654"/>
				<stop  offset="1" style="stop-color:#EF7C2C"/>
			</linearGradient>
			<path class="st10" d="M164.2,140.3h-22.4c-3.5,0-6.3,2.8-6.3,6.3v22.8c0,3.5,2.8,6.3,6.3,6.3h22.4c3.5,0,6.3-2.8,6.3-6.3v-22.8
				C170.5,143.1,167.7,140.3,164.2,140.3z"/>
			<linearGradient id="SVGID_4_" gradientUnits="userSpaceOnUse" x1="137.8238" y1="158" x2="168.2342" y2="158">
				<stop  offset="0" style="stop-color:#EF7C2C"/>
				<stop  offset="1" style="stop-color:#F9B654"/>
			</linearGradient>
			<path class="st11" d="M164.2,142.6h-22.4c-2.2,0-4,1.8-4,4v22.8c0,2.2,1.8,4,4,4h22.4c2.2,0,4-1.8,4-4v-22.8
				C168.2,144.4,166.4,142.6,164.2,142.6z"/>
			<path class="st6" d="M164.2,171.9c1.4,0,2.5-1.1,2.5-2.5v-22.8c0-1.4-1.1-2.5-2.5-2.5h-22.4c-1.4,0-2.5,1.1-2.5,2.5v22.8
				c0,1.4,1.1,2.5,2.5,2.5H164.2z"/>
			<g>
				<path class="st0" d="M157.7,146.9C157.7,146.9,157.7,146.9,157.7,146.9c0,1.4-0.1,2.4-1.1,3.4c-0.7,0.7-2.1,1.4-3.1,1.4
					c-0.1,0-0.1,0-0.1,0C153.4,149.5,155.2,146.9,157.7,146.9z"/>
				<path class="st0" d="M160.2,161.3c0.6,0.9,2.4,1.9,2.2,2.5c-0.1,0.5-1.6,2.7-2,3.2c-3.2,4-4.4,0.8-7.1,0.9
					c-1.4,0.1-1.9,1.2-3.4,1.2c-0.2,0-0.4,0-0.6,0c-1.1-0.2-2.3-1.3-3-2.1c-1.4-1.7-2.6-5.3-2.8-7.5c-0.2-2.7,1-5.5,3.4-6.9
					c2.8-1.6,4.8,0.4,6.6,0.8c0.5,0.1,0.9,0.1,1.4-0.1c1.5-0.8,2-1.4,4-0.9c1.1,0.3,2.3,1.2,2.9,2.1
					C159.5,156.2,158.3,158.6,160.2,161.3z"/>
			</g>
		</g>
		<g>
			<linearGradient id="SVGID_5_" gradientUnits="userSpaceOnUse" x1="54.0617" y1="158" x2="89.0567" y2="158">
				<stop  offset="0" style="stop-color:#F9B654"/>
				<stop  offset="1" style="stop-color:#EF7C2C"/>
			</linearGradient>
			<path class="st12" d="M82.8,140.3H60.4c-3.5,0-6.3,2.8-6.3,6.3v22.8c0,3.5,2.8,6.3,6.3,6.3h22.4c3.5,0,6.3-2.8,6.3-6.3v-22.8
				C89.1,143.1,86.2,140.3,82.8,140.3z"/>
			<linearGradient id="SVGID_6_" gradientUnits="userSpaceOnUse" x1="56.354" y1="158" x2="86.7644" y2="158">
				<stop  offset="0" style="stop-color:#EF7C2C"/>
				<stop  offset="1" style="stop-color:#F9B654"/>
			</linearGradient>
			<path class="st13" d="M82.8,142.6H60.4c-2.2,0-4,1.8-4,4v22.8c0,2.2,1.8,4,4,4h22.4c2.2,0,4-1.8,4-4v-22.8
				C86.8,144.4,85,142.6,82.8,142.6z"/>
			<path class="st6" d="M82.8,171.9c1.4,0,2.5-1.1,2.5-2.5v-22.8c0-1.4-1.1-2.5-2.5-2.5H60.4c-1.4,0-2.5,1.1-2.5,2.5v22.8
				c0,1.4,1.1,2.5,2.5,2.5H82.8z"/>
			<g>
				<path class="st0" d="M82.2,157.3c0,0.3,0,0.7,0,1l0,0.3c0,0.3-0.1,0.7-0.1,1l0,0.2c-0.1,0.4-0.1,0.8-0.2,1.1l-0.1,0.3
					c-0.1,0.3-0.2,0.5-0.3,0.8l-0.2,0.4c-0.1,0.3-0.3,0.5-0.4,0.8l-0.1,0.2l-0.1,0.1c-0.5,0.8-1,1.5-1.7,2.1l-0.1,0.1l0,0
					c-0.3,0.3-0.6,0.5-0.9,0.8l0,0c-0.3,0.2-0.7,0.5-1.1,0.7c-0.4,0.2-0.9,0.4-1.3,0.6l-0.1,0l0,0c-1.3,0.5-3.1,0.7-4.4,0.7l3.7-6.5
					c1.2-1,2-2.5,2-4.2c0-1.6-0.7-3-1.8-3.9h6.3c0.3,0.9,0.7,2.1,0.7,3L82.2,157.3z"/>
				<path class="st0" d="M62.6,152.3l3.7,6.4c0.4,2.6,2.6,4.6,5.3,4.6c0.4,0,0.7,0,1.1-0.1l-3,5.3c-0.8-0.1-1.5-0.4-2.2-0.7
					l-0.3-0.1l-0.1,0c-0.2-0.1-0.4-0.2-0.6-0.3l-0.3-0.1l-0.1-0.1c-0.2-0.1-0.4-0.2-0.6-0.4l-0.3-0.2c-0.2-0.1-0.3-0.3-0.5-0.4
					l-0.3-0.3c-0.1-0.1-0.3-0.2-0.4-0.4c-0.1-0.1-0.3-0.3-0.4-0.4l-0.3-0.3c-0.1-0.2-0.3-0.3-0.4-0.5l-0.2-0.3
					c-0.1-0.2-0.3-0.4-0.4-0.6l-0.1-0.1l-0.1-0.3c-0.1-0.2-0.2-0.4-0.3-0.6c-0.1-0.2-0.1-0.3-0.2-0.5c-0.1-0.2-0.1-0.3-0.2-0.5
					c-0.1-0.2-0.1-0.4-0.2-0.6l-0.1-0.4c0-0.2-0.1-0.4-0.1-0.6l-0.1-0.4c0-0.2-0.1-0.4-0.1-0.6l0-0.5c0-0.2,0-0.4,0-0.5
					c0-0.2,0-0.4,0-0.5l0-0.5c0-0.2,0-0.4,0.1-0.6l0.1-0.4c0-0.2,0.1-0.4,0.1-0.6l0.1-0.4c0.1-0.2,0.1-0.4,0.2-0.6
					c0.1-0.2,0.1-0.3,0.2-0.5l0.2-0.5c0.1-0.2,0.2-0.4,0.3-0.6L62.6,152.3L62.6,152.3z"/>
				<path class="st0" d="M80.8,152.7h-9.2c-2.4,0-4.4,1.5-5.1,3.7l-3-5.3l0.1-0.1c0.1-0.2,0.3-0.3,0.5-0.5l0.3-0.3
					c0.1-0.1,0.3-0.3,0.4-0.4l0.4-0.3c0.1-0.1,0.3-0.2,0.4-0.3c0.1-0.1,0.3-0.2,0.4-0.3l0.3-0.2l0.2-0.1c0.2-0.1,0.3-0.2,0.5-0.2
					c0.2-0.1,0.3-0.2,0.5-0.2l0.4-0.1c0.2-0.1,0.4-0.2,0.6-0.2l0.2,0c0.8-0.2,1.6-0.4,2.4-0.4l0.4,0l0.5,0c0.2,0,0.4,0,0.6,0l0.4,0
					c0.2,0,0.4,0,0.7,0.1l0.3,0.1c0.2,0,0.4,0.1,0.7,0.1l0.3,0.1c0.2,0.1,0.4,0.1,0.6,0.2l0.4,0.2c0.2,0.1,0.3,0.1,0.5,0.2
					c0.2,0.1,0.3,0.2,0.5,0.3l0.3,0.2l0.1,0.1c0.4,0.2,0.7,0.5,1.1,0.7l0.1,0.1c0.3,0.2,0.6,0.5,0.9,0.8l0.2,0.2
					c0.3,0.3,0.5,0.6,0.7,0.9l0.1,0.1C80.3,151.9,80.6,152.3,80.8,152.7z"/>
				<path class="st0" d="M71.6,154c2.2,0,4,1.8,4,4c0,2.2-1.8,4-4,4c-2.2,0-4-1.8-4-4S69.3,154,71.6,154z"/>
			</g>
		</g>
	</g>
</g>
<g id="Boton_Studing_add" class="st2">
	<g class="st4">
		<g>
			<path class="st0" d="M154.3,207.8H2.8c-7.1,0-12.8,6.4-12.8,14.3v0c0,7.9,5.7,14.3,12.8,14.3h151.5c7.1,0,12.8-6.4,12.8-14.3v0
				C167.1,214.2,161.4,207.8,154.3,207.8z"/>
			<linearGradient id="SVGID_7_" gradientUnits="userSpaceOnUse" x1="-3.8502" y1="222.5218" x2="250.1422" y2="221.3672">
				<stop  offset="0" style="stop-color:#222222"/>
				<stop  offset="0.261" style="stop-color:#202021"/>
				<stop  offset="0.4177" style="stop-color:#1B1B1C"/>
				<stop  offset="0.5465" style="stop-color:#121213"/>
				<stop  offset="0.5899" style="stop-color:#0D0E0E"/>
			</linearGradient>
			<path class="st14" d="M154.2,208.7H2.9c-6.6,0-12,6-12,13.5v0c0,7.4,5.4,13.5,12,13.5h151.3c6.6,0,12-6,12-13.5v0
				C166.2,214.7,160.9,208.7,154.2,208.7z"/>
			<linearGradient id="SVGID_8_" gradientUnits="userSpaceOnUse" x1="-7.2026" y1="222.1473" x2="187.0925" y2="222.1473">
				<stop  offset="0" style="stop-color:#0D0E0E"/>
				<stop  offset="5.068219e-02" style="stop-color:#111212"/>
				<stop  offset="0.2146" style="stop-color:#1B1B1C"/>
				<stop  offset="0.4115" style="stop-color:#202020"/>
				<stop  offset="0.727" style="stop-color:#222222"/>
			</linearGradient>
			<path class="st15" d="M164.4,222.1c0-6.4-4.6-11.6-10.2-11.6H3c-5.6,0-10.2,5.2-10.2,11.6c0,6.4,4.6,11.6,10.2,11.6h151.1
				C159.8,233.7,164.4,228.5,164.4,222.1z"/>
		</g>
		<g>
			<circle class="st0" cx="153.7" cy="222.1" r="14.3"/>
			
				<linearGradient id="SVGID_9_" gradientUnits="userSpaceOnUse" x1="140.4134" y1="-285.2133" x2="167.0687" y2="-285.2133" gradientTransform="matrix(1 0 0 -1 0 -63.0663)">
				<stop  offset="0" style="stop-color:#EF7852"/>
				<stop  offset="1" style="stop-color:#EB5C2C"/>
			</linearGradient>
			<circle class="st16" cx="153.7" cy="222.1" r="13.3"/>
			
				<linearGradient id="SVGID_10_" gradientUnits="userSpaceOnUse" x1="142.6347" y1="-285.2133" x2="164.8474" y2="-285.2133" gradientTransform="matrix(1 0 0 -1 0 -63.0663)">
				<stop  offset="0" style="stop-color:#EB5C2C"/>
				<stop  offset="1" style="stop-color:#EF7852"/>
			</linearGradient>
			<path class="st17" d="M153.7,233.3c-6.1,0-11.1-5-11.1-11.1c0-6.1,5-11.1,11.1-11.1c6.1,0,11.1,5,11.1,11.1
				C164.8,228.3,159.9,233.3,153.7,233.3z"/>
			<polygon class="st0" points="152.3,223.4 148.5,223.4 148.5,220.7 152.3,220.7 152.3,216.5 155.2,216.5 155.2,220.7 159,220.7 
				159,223.4 155.2,223.4 155.2,227.7 152.3,227.7 			"/>
		</g>
		<text transform="matrix(1.11 0 0 1 6.6894 225.0696)"><tspan x="0" y="0" class="st0" style="font-family:'Roboto-Light'; font-size:10px;">Studing</tspan><tspan x="33.8" y="0" class="st0" style="font-family:'Roboto-Light'; font-size:10px;">	</tspan></text>
	</g>
</g>
<g id="Menu_Rodape" class="st2">
	<g class="st4">
		<g>
			<path class="st0" d="M155,262.8H3.5c-7.1,0-12.8,6.4-12.8,14.3v0c0,7.9,5.7,14.3,12.8,14.3H155c7.1,0,12.8-6.4,12.8-14.3v0
				C167.8,269.3,162.1,262.8,155,262.8z"/>
			<linearGradient id="SVGID_11_" gradientUnits="userSpaceOnUse" x1="-3.1572" y1="277.5512" x2="250.8352" y2="276.3966">
				<stop  offset="0" style="stop-color:#222222"/>
				<stop  offset="0.261" style="stop-color:#202021"/>
				<stop  offset="0.4177" style="stop-color:#1B1B1C"/>
				<stop  offset="0.5465" style="stop-color:#121213"/>
				<stop  offset="0.5899" style="stop-color:#0D0E0E"/>
			</linearGradient>
			<path class="st18" d="M154.9,263.7H3.6c-6.6,0-12,6-12,13.5v0c0,7.4,5.4,13.5,12,13.5h151.3c6.6,0,12-6,12-13.5v0
				C166.9,269.7,161.6,263.7,154.9,263.7z"/>
			<linearGradient id="SVGID_12_" gradientUnits="userSpaceOnUse" x1="-6.5095" y1="277.1767" x2="187.7855" y2="277.1767">
				<stop  offset="0" style="stop-color:#0D0E0E"/>
				<stop  offset="5.068219e-02" style="stop-color:#111212"/>
				<stop  offset="0.2146" style="stop-color:#1B1B1C"/>
				<stop  offset="0.4115" style="stop-color:#202020"/>
				<stop  offset="0.727" style="stop-color:#222222"/>
			</linearGradient>
			<path class="st19" d="M165.1,277.2c0-6.4-4.6-11.6-10.2-11.6H3.7c-5.6,0-10.2,5.2-10.2,11.6c0,6.4,4.6,11.6,10.2,11.6h151.1
				C160.5,288.8,165.1,283.6,165.1,277.2z"/>
		</g>
		<g>
			<circle class="st0" cx="4.6" cy="277.2" r="14.3"/>
			
				<linearGradient id="SVGID_13_" gradientUnits="userSpaceOnUse" x1="-8.6976" y1="-340.2428" x2="17.9577" y2="-340.2428" gradientTransform="matrix(1 0 0 -1 0 -63.0663)">
				<stop  offset="0" style="stop-color:#EF7852"/>
				<stop  offset="1" style="stop-color:#EB5C2C"/>
			</linearGradient>
			<circle class="st20" cx="4.6" cy="277.2" r="13.3"/>
			
				<linearGradient id="SVGID_14_" gradientUnits="userSpaceOnUse" x1="-6.4763" y1="-340.2428" x2="15.7364" y2="-340.2428" gradientTransform="matrix(1 0 0 -1 0 -63.0663)">
				<stop  offset="0" style="stop-color:#EB5C2C"/>
				<stop  offset="1" style="stop-color:#EF7852"/>
			</linearGradient>
			<path class="st21" d="M4.6,288.3c-6.1,0-11.1-5-11.1-11.1c0-6.1,5-11.1,11.1-11.1c6.1,0,11.1,5,11.1,11.1
				C15.7,283.3,10.8,288.3,4.6,288.3z"/>
			<g>
				<path class="st0" d="M3.4,270.6c-3,0-5.4,2.4-5.4,5.4c0,3,2.4,5.4,5.4,5.4s5.4-2.4,5.4-5.4C8.9,273,6.5,270.6,3.4,270.6z
					 M3.4,279.5c-2,0-3.5-1.6-3.5-3.5c0-2,1.6-3.5,3.5-3.5S7,274,7,276C7,278,5.4,279.5,3.4,279.5z"/>
				<path class="st0" d="M11,282.2l-1.9-1.9c-0.4-0.4-1-0.4-1.3,0c-0.4,0.4-0.4,1,0,1.3l1.9,1.9c0.4,0.4,1,0.4,1.3,0
					C11.3,283.2,11.3,282.6,11,282.2z"/>
			</g>
		</g>
		<g>
			<circle class="st0" cx="153.3" cy="277.2" r="14.3"/>
			
				<linearGradient id="SVGID_15_" gradientUnits="userSpaceOnUse" x1="139.9704" y1="-340.2428" x2="166.6257" y2="-340.2428" gradientTransform="matrix(1 0 0 -1 0 -63.0663)">
				<stop  offset="0" style="stop-color:#EF7852"/>
				<stop  offset="1" style="stop-color:#EB5C2C"/>
			</linearGradient>
			<circle class="st22" cx="153.3" cy="277.2" r="13.3"/>
			
				<linearGradient id="SVGID_16_" gradientUnits="userSpaceOnUse" x1="142.1917" y1="-340.2428" x2="164.4044" y2="-340.2428" gradientTransform="matrix(1 0 0 -1 0 -63.0663)">
				<stop  offset="0" style="stop-color:#EB5C2C"/>
				<stop  offset="1" style="stop-color:#EF7852"/>
			</linearGradient>
			<path class="st23" d="M153.3,288.3c-6.1,0-11.1-5-11.1-11.1c0-6.1,5-11.1,11.1-11.1c6.1,0,11.1,5,11.1,11.1
				C164.4,283.3,159.4,288.3,153.3,288.3z"/>
			<path class="st0" d="M158.3,277.8c0-0.2,0-0.4,0-0.7c0-0.2,0-0.4,0-0.7l1.4-1.1c0.1-0.1,0.2-0.3,0.1-0.4l-1.4-2.3
				c-0.1-0.1-0.3-0.2-0.4-0.1l-1.7,0.7c-0.4-0.3-0.7-0.5-1.1-0.7l-0.3-1.8c0-0.2-0.2-0.3-0.3-0.3h-2.7c-0.2,0-0.3,0.1-0.3,0.3
				l-0.3,1.8c-0.4,0.2-0.8,0.4-1.1,0.7l-1.7-0.7c-0.2-0.1-0.3,0-0.4,0.1l-1.4,2.3c-0.1,0.1,0,0.3,0.1,0.4l1.4,1.1c0,0.2,0,0.4,0,0.7
				s0,0.4,0,0.7l-1.4,1.1c-0.1,0.1-0.2,0.3-0.1,0.4l1.4,2.3c0.1,0.1,0.3,0.2,0.4,0.1l1.7-0.7c0.4,0.3,0.7,0.5,1.1,0.7l0.3,1.8
				c0,0.2,0.2,0.3,0.3,0.3h2.7c0.2,0,0.3-0.1,0.3-0.3l0.3-1.8c0.4-0.2,0.8-0.4,1.1-0.7l1.7,0.7c0.2,0.1,0.3,0,0.4-0.1l1.4-2.3
				c0.1-0.1,0-0.3-0.1-0.4L158.3,277.8z M153.3,279.5c-1.3,0-2.4-1.1-2.4-2.4c0-1.3,1.1-2.4,2.4-2.4s2.4,1.1,2.4,2.4
				C155.7,278.5,154.6,279.5,153.3,279.5z"/>
		</g>
		<g>
			<circle class="st0" cx="79" cy="277.2" r="14.3"/>
			
				<linearGradient id="SVGID_17_" gradientUnits="userSpaceOnUse" x1="65.6364" y1="-340.2428" x2="92.2917" y2="-340.2428" gradientTransform="matrix(1 0 0 -1 0 -63.0663)">
				<stop  offset="0" style="stop-color:#EF7852"/>
				<stop  offset="1" style="stop-color:#EB5C2C"/>
			</linearGradient>
			<circle class="st24" cx="79" cy="277.2" r="13.3"/>
			
				<linearGradient id="SVGID_18_" gradientUnits="userSpaceOnUse" x1="67.8577" y1="-340.2428" x2="90.0704" y2="-340.2428" gradientTransform="matrix(1 0 0 -1 0 -63.0663)">
				<stop  offset="0" style="stop-color:#EB5C2C"/>
				<stop  offset="1" style="stop-color:#EF7852"/>
			</linearGradient>
			<path class="st25" d="M79,288.3c-6.1,0-11.1-5-11.1-11.1c0-6.1,5-11.1,11.1-11.1c6.1,0,11.1,5,11.1,11.1
				C90.1,283.3,85.1,288.3,79,288.3z"/>
			<path id="home_1_" class="st0" d="M86.7,276l-6.9-5.2c-0.5-0.3-1.1-0.3-1.7,0l-6.8,5.2c-0.5,0.4-0.3,1.1,0.4,1.1h0.7v4
				c0,1.4,1.2,2.6,2.6,2.6h1.3c0.4,0,0.7-0.3,0.7-0.7v-3.2c0-0.7,0.6-1.4,1.3-1.4h1.3c0.7,0,1.3,0.7,1.3,1.4v3.2
				c0,0.3,0.3,0.7,0.7,0.7H83c1.5,0,2.6-1.2,2.6-2.6v-4h0.7C86.9,277.2,87.1,276.4,86.7,276z"/>
		</g>
	</g>
</g>
<g id="Botons_Linguagens" class="st2">
	<g class="st4">
		<g>
			<path class="st0" d="M-201.3,4.5h-46.3c-8.6,0-15.6,7-15.6,15.6v56.5c0,8.6,7,15.6,15.6,15.6h46.3c8.6,0,15.6-7,15.6-15.6V20.1
				C-185.7,11.5-192.7,4.5-201.3,4.5z"/>
			<linearGradient id="SVGID_19_" gradientUnits="userSpaceOnUse" x1="-260.5238" y1="48.385" x2="-188.3008" y2="48.385">
				<stop  offset="0" style="stop-color:#F9B654"/>
				<stop  offset="1" style="stop-color:#EF7C2C"/>
			</linearGradient>
			<path class="st26" d="M-201.3,7.1h-46.3c-7.2,0-13,5.8-13,13v56.5c0,7.2,5.8,13,13,13h46.3c7.2,0,13-5.8,13-13V20.1
				C-188.3,13-194.1,7.1-201.3,7.1z"/>
			<linearGradient id="SVGID_20_" gradientUnits="userSpaceOnUse" x1="-255.793" y1="48.385" x2="-193.0316" y2="48.385">
				<stop  offset="0" style="stop-color:#EF7C2C"/>
				<stop  offset="1" style="stop-color:#F9B654"/>
			</linearGradient>
			<path class="st27" d="M-201.3,11.9h-46.3c-4.5,0-8.3,3.7-8.3,8.3v56.5c0,4.5,3.7,8.3,8.3,8.3h46.3c4.5,0,8.3-3.7,8.3-8.3V20.1
				C-193,15.6-196.7,11.9-201.3,11.9z"/>
			<polygon class="st0" points="-208.5,36 -207.9,28.8 -224.5,28.6 -240.9,28.3 -239.9,50 -224.8,50.2 -216.8,50.3 -217.5,58.4 
				-224.9,60.8 -232.3,58.2 -232.6,53.7 -239.8,53.6 -239.2,63.6 -225,68.4 -210.7,63.9 -209.2,43.2 -224.7,43 -233,42.9 
				-233.4,35.7 -224.6,35.8 			"/>
			<path class="st6" d="M-201.3,81.8c2.8,0,5.1-2.3,5.1-5.1V20.1c0-2.8-2.3-5.1-5.1-5.1h-46.3c-2.8,0-5.1,2.3-5.1,5.1v56.5
				c0,2.8,2.3,5.1,5.1,5.1H-201.3z"/>
		</g>
		<g>
			<g>
				<path class="st0" d="M-297.2,4.5h-46.3c-8.6,0-15.6,7-15.6,15.6v56.5c0,8.6,7,15.6,15.6,15.6h46.3c8.6,0,15.6-7,15.6-15.6V20.1
					C-281.5,11.5-288.5,4.5-297.2,4.5z"/>
				<linearGradient id="SVGID_21_" gradientUnits="userSpaceOnUse" x1="-356.3962" y1="48.385" x2="-284.1732" y2="48.385">
					<stop  offset="0" style="stop-color:#FFDFA1"/>
					<stop  offset="1" style="stop-color:#FBBE43"/>
				</linearGradient>
				<path class="st28" d="M-297.2,7.1h-46.3c-7.2,0-13,5.8-13,13v56.5c0,7.2,5.8,13,13,13h46.3c7.2,0,13-5.8,13-13V20.1
					C-284.2,13-290,7.1-297.2,7.1z"/>
				<linearGradient id="SVGID_22_" gradientUnits="userSpaceOnUse" x1="-351.6654" y1="48.385" x2="-288.904" y2="48.385">
					<stop  offset="0" style="stop-color:#FBBE43"/>
					<stop  offset="1" style="stop-color:#FFDFA1"/>
				</linearGradient>
				<path class="st29" d="M-297.2,11.9h-46.3c-4.5,0-8.3,3.7-8.3,8.3v56.5c0,4.5,3.7,8.3,8.3,8.3h46.3c4.5,0,8.3-3.7,8.3-8.3V20.1
					C-288.9,15.6-292.6,11.9-297.2,11.9z"/>
				<path class="st6" d="M-297.2,81.8c2.8,0,5.1-2.3,5.1-5.1V20.1c0-2.8-2.3-5.1-5.1-5.1h-46.3c-2.8,0-5.1,2.3-5.1,5.1v56.5
					c0,2.8,2.3,5.1,5.1,5.1H-297.2z"/>
			</g>
			<g>
				<polygon class="st0" points="-297.9,26.8 -298.5,33.5 -311.2,33.5 -311.2,46.7 -299.5,45.1 -301.2,65.4 -317.8,69.9 
					-317.8,62.3 -306.6,59.2 -306.2,53 -317.8,55 -317.8,26.8 				"/>
				<polygon class="st0" points="-324.4,26.8 -324.4,69.9 -342.7,64.9 -342.7,56.7 -331.1,59.9 -331.1,26.8 				"/>
			</g>
		</g>
		<g>
			<g>
				<path class="st0" d="M-201.3,114.6h-46.3c-8.6,0-15.6,7-15.6,15.6v56.5c0,8.6,7,15.6,15.6,15.6h46.3c8.6,0,15.6-7,15.6-15.6
					v-56.5C-185.7,121.6-192.7,114.6-201.3,114.6z"/>
				<linearGradient id="SVGID_23_" gradientUnits="userSpaceOnUse" x1="-260.5238" y1="158.5204" x2="-188.3008" y2="158.5204">
					<stop  offset="0" style="stop-color:#BDA4CF;stop-opacity:0.9"/>
					<stop  offset="1" style="stop-color:#564B9A"/>
				</linearGradient>
				<path class="st30" d="M-201.3,117.3h-46.3c-7.2,0-13,5.8-13,13v56.5c0,7.2,5.8,13,13,13h46.3c7.2,0,13-5.8,13-13v-56.5
					C-188.3,123.1-194.1,117.3-201.3,117.3z"/>
				<linearGradient id="SVGID_24_" gradientUnits="userSpaceOnUse" x1="-255.793" y1="158.5204" x2="-193.0316" y2="158.5204">
					<stop  offset="0" style="stop-color:#564B9A"/>
					<stop  offset="1" style="stop-color:#BDA4CF;stop-opacity:0.9"/>
				</linearGradient>
				<path class="st31" d="M-201.3,122h-46.3c-4.5,0-8.3,3.7-8.3,8.3v56.5c0,4.5,3.7,8.3,8.3,8.3h46.3c4.5,0,8.3-3.7,8.3-8.3v-56.5
					C-193,125.7-196.7,122-201.3,122z"/>
				<path class="st6" d="M-201.3,191.9c2.8,0,5.1-2.3,5.1-5.1v-56.5c0-2.8-2.3-5.1-5.1-5.1h-46.3c-2.8,0-5.1,2.3-5.1,5.1v56.5
					c0,2.8,2.3,5.1,5.1,5.1H-201.3z"/>
			</g>
			<g>
				<polygon class="st32" points="-214.2,154.1 -217.1,154.1 -217.1,157.1 -220,157.1 -220,160 -217.1,160 -217.1,162.9 
					-214.2,162.9 -214.2,160 -211.3,160 -211.3,157.1 -214.2,157.1 				"/>
				<polygon class="st32" points="-201,157.1 -204,157.1 -204,154.1 -206.9,154.1 -206.9,157.1 -209.8,157.1 -209.8,160 -206.9,160 
					-206.9,162.9 -204,162.9 -204,160 -201,160 				"/>
				<path class="st0" d="M-218.5,163.7l9,4.9c-3.5,6.2-10.2,10.4-17.8,10.4c-11.3,0-20.4-9.2-20.4-20.5c0-11.3,9.2-20.4,20.4-20.4
					c7.5,0,14,4,17.6,10.1l-8.9,5.1c-1.8-2.9-5-4.9-8.7-4.9c-5.6,0-10.2,4.6-10.2,10.2c0,5.6,4.6,10.2,10.2,10.2
					C-223.6,168.7-220.3,166.7-218.5,163.7z"/>
			</g>
		</g>
		<g>
			<g>
				<path class="st0" d="M-297.2,114.6h-46.3c-8.6,0-15.6,7-15.6,15.6v56.5c0,8.6,7,15.6,15.6,15.6h46.3c8.6,0,15.6-7,15.6-15.6
					v-56.5C-281.5,121.6-288.5,114.6-297.2,114.6z"/>
				<linearGradient id="SVGID_25_" gradientUnits="userSpaceOnUse" x1="-356.3962" y1="158.5204" x2="-284.1732" y2="158.5204">
					<stop  offset="0" style="stop-color:#B3DEE9;stop-opacity:0.9"/>
					<stop  offset="1" style="stop-color:#3490CF"/>
				</linearGradient>
				<path class="st33" d="M-297.2,117.3h-46.3c-7.2,0-13,5.8-13,13v56.5c0,7.2,5.8,13,13,13h46.3c7.2,0,13-5.8,13-13v-56.5
					C-284.2,123.1-290,117.3-297.2,117.3z"/>
				<linearGradient id="SVGID_26_" gradientUnits="userSpaceOnUse" x1="-351.6654" y1="158.5204" x2="-288.904" y2="158.5204">
					<stop  offset="0" style="stop-color:#3490CF"/>
					<stop  offset="1" style="stop-color:#B3DEE9;stop-opacity:0.9"/>
				</linearGradient>
				<path class="st34" d="M-297.2,122h-46.3c-4.5,0-8.3,3.7-8.3,8.3v56.5c0,4.5,3.7,8.3,8.3,8.3h46.3c4.5,0,8.3-3.7,8.3-8.3v-56.5
					C-288.9,125.7-292.6,122-297.2,122z"/>
				<path class="st6" d="M-297.2,191.9c2.8,0,5.1-2.3,5.1-5.1v-56.5c0-2.8-2.3-5.1-5.1-5.1h-46.3c-2.8,0-5.1,2.3-5.1,5.1v56.5
					c0,2.8,2.3,5.1,5.1,5.1H-297.2z"/>
			</g>
			<path class="st32" d="M-336.3,164.3h7.8l0.2,4.9l8,2.7l8-2.7l0.6-8.8h-17.3l-0.4-7.8h18.1l0.6-7.8h-27.1l-0.6-7.8h35.9l-1,15.7
				l-1.4,22.6l-15.5,5.1l-15.5-5.1L-336.3,164.3z"/>
		</g>
		<g>
			<g>
				<path class="st0" d="M-201.3,223.7h-46.3c-8.6,0-15.6,7-15.6,15.6v56.5c0,8.6,7,15.6,15.6,15.6h46.3c8.6,0,15.6-7,15.6-15.6
					v-56.5C-185.7,230.7-192.7,223.7-201.3,223.7z"/>
				<linearGradient id="SVGID_27_" gradientUnits="userSpaceOnUse" x1="-260.5238" y1="267.615" x2="-188.3008" y2="267.615">
					<stop  offset="0" style="stop-color:#7DAFDF;stop-opacity:0.9"/>
					<stop  offset="1" style="stop-color:#264798"/>
				</linearGradient>
				<path class="st35" d="M-201.3,226.4h-46.3c-7.2,0-13,5.8-13,13v56.5c0,7.2,5.8,13,13,13h46.3c7.2,0,13-5.8,13-13v-56.5
					C-188.3,232.2-194.1,226.4-201.3,226.4z"/>
				<linearGradient id="SVGID_28_" gradientUnits="userSpaceOnUse" x1="-255.793" y1="267.615" x2="-193.0316" y2="267.615">
					<stop  offset="0" style="stop-color:#264798"/>
					<stop  offset="1" style="stop-color:#7DAFDF;stop-opacity:0.9"/>
				</linearGradient>
				<path class="st36" d="M-201.3,231.1h-46.3c-4.5,0-8.3,3.7-8.3,8.3v56.5c0,4.5,3.7,8.3,8.3,8.3h46.3c4.5,0,8.3-3.7,8.3-8.3v-56.5
					C-193,234.8-196.7,231.1-201.3,231.1z"/>
				<path class="st6" d="M-201.3,301c2.8,0,5.1-2.3,5.1-5.1v-56.5c0-2.8-2.3-5.1-5.1-5.1h-46.3c-2.8,0-5.1,2.3-5.1,5.1v56.5
					c0,2.8,2.3,5.1,5.1,5.1H-201.3z"/>
			</g>
			<g>
				<path class="st0" d="M-223.8,245.5c-1.8,0-3.1,0.2-4.6,0.4c-4.5,0.8-5.3,2.4-5.3,5.4v4.6h10.5v2.3h-10.9h-5.1
					c-3.1,0-5.8,1.4-6.6,4.9c-1,4-1,6.5,0,10.6c0.8,3.1,2.4,5.4,5.5,5.4h4.2v-5.9c0-3.5,3.1-6.9,6.7-6.9h8.4c2.9,0,5.8-2.2,5.8-5.1
					v-10c0-2.8-2-5-4.9-5.4C-219.9,245.9-222.1,245.5-223.8,245.5z M-229.6,250.2c1,0,1.7,0.8,1.7,1.7c0,1-0.8,1.7-1.7,1.7
					c-1,0-1.7-0.8-1.7-1.7C-231.4,251-230.6,250.2-229.6,250.2z"/>
				<path class="st0" d="M-225,289.7c1.8,0,3.1-0.2,4.6-0.4c4.5-0.8,5.3-2.4,5.3-5.4v-4.6h-10.5v-2.3h10.9h5.1
					c3.1,0,5.8-1.4,6.6-4.9c1-4,1-6.5,0-10.6c-0.8-3.1-2.4-5.4-5.5-5.4h-4.2v5.9c0,3.5-3.1,6.9-6.7,6.9h-8.4c-2.9,0-5.8,2.2-5.8,5.1
					v10c0,2.8,2,5,4.9,5.4C-228.9,289.3-226.8,289.7-225,289.7z M-219.2,285.1c-1,0-1.7-0.8-1.7-1.7c0-1,0.8-1.7,1.7-1.7
					c1,0,1.7,0.8,1.7,1.7C-217.4,284.3-218.2,285.1-219.2,285.1z"/>
			</g>
		</g>
		<g>
			<g>
				<path class="st0" d="M-297.2,223.7h-46.3c-8.6,0-15.6,7-15.6,15.6v56.5c0,8.6,7,15.6,15.6,15.6h46.3c8.6,0,15.6-7,15.6-15.6
					v-56.5C-281.5,230.7-288.5,223.7-297.2,223.7z"/>
				<linearGradient id="SVGID_29_" gradientUnits="userSpaceOnUse" x1="-356.3962" y1="267.615" x2="-284.1732" y2="267.615">
					<stop  offset="0" style="stop-color:#E62C2C;stop-opacity:0.9"/>
					<stop  offset="1" style="stop-color:#7B170F"/>
				</linearGradient>
				<path class="st37" d="M-297.2,226.4h-46.3c-7.2,0-13,5.8-13,13v56.5c0,7.2,5.8,13,13,13h46.3c7.2,0,13-5.8,13-13v-56.5
					C-284.2,232.2-290,226.4-297.2,226.4z"/>
				<linearGradient id="SVGID_30_" gradientUnits="userSpaceOnUse" x1="-351.6654" y1="267.615" x2="-288.904" y2="267.615">
					<stop  offset="0" style="stop-color:#7B170F"/>
					<stop  offset="1" style="stop-color:#E62C2C;stop-opacity:0.9"/>
				</linearGradient>
				<path class="st38" d="M-297.2,231.1h-46.3c-4.5,0-8.3,3.7-8.3,8.3v56.5c0,4.5,3.7,8.3,8.3,8.3h46.3c4.5,0,8.3-3.7,8.3-8.3v-56.5
					C-288.9,234.8-292.6,231.1-297.2,231.1z"/>
				<path class="st6" d="M-297.2,301c2.8,0,5.1-2.3,5.1-5.1v-56.5c0-2.8-2.3-5.1-5.1-5.1h-46.3c-2.8,0-5.1,2.3-5.1,5.1v56.5
					c0,2.8,2.3,5.1,5.1,5.1H-297.2z"/>
			</g>
			<g>
				<path class="st0" d="M-320.7,268.8c-1.3-2.1-2.2-3.8-3.5-7c-2.2-5.4,13.2-10.3,7-19.8c2.7,6.5-9.7,10.5-10.9,16
					C-329.2,263-320.7,268.8-320.7,268.8z"/>
				<path class="st0" d="M-320.4,259c-0.2,3.2,2.9,4.9,2.9,7.3c0.1,1.9-1.9,3.5-1.9,3.5s3.5-0.7,4.6-3.6c1.2-3.2-2.3-5.5-2-8.1
					c0.3-2.5,7.7-7.1,7.7-7.1S-319.9,251.7-320.4,259z"/>
				<g>
					<path class="st0" d="M-309.9,269c2.2-0.5,4.1,0.9,4.1,2.6c0,3.7-5.1,7.2-5.1,7.2s8-1,8-7.1C-303,267.7-306.9,266.7-309.9,269z
						 M-313.7,272c0,0,2.5-1.8,3.1-2.4c-6.1,1.3-20,1.5-20,0.3c0-1,4.5-2.1,4.5-2.1s-10-0.1-10,2.8
						C-336.1,273.6-323,273.8-313.7,272z"/>
					<path class="st0" d="M-315.2,274.8c-5.8,1.9-16.4,1.3-13.3-1.3c-1.5,0-3.8,1.2-3.8,2.4c0,2.4,11.5,4.2,20,0.7L-315.2,274.8z"/>
					<path class="st0" d="M-327.1,278.8c-2.1,0-3.5,1.3-3.5,2.3c0,3.1,12.5,3.4,17.5,0.3l-3.1-2.1
						C-319.9,280.9-329.2,281.2-327.1,278.8z"/>
					<path class="st0" d="M-304.6,283.8c0-1.2-1.4-1.8-1.8-2c2.9,6.9-28.6,6.3-28.6,2.3c0-0.9,2.3-1.8,4.5-1.4l-1.8-1.1
						c-4.3-0.7-7.2,1.2-7.2,2.7C-339.5,291.3-304.6,291-304.6,283.8z"/>
					<path class="st0" d="M-301.1,286.3c-5.3,5.2-18.8,7.2-32.3,3.9C-319.8,296-301.1,292.8-301.1,286.3z"/>
				</g>
			</g>
		</g>
	</g>
</g>
<g id="Card_Conteudo" class="st2">
	<g class="st4">
		<g>
			<g>
				<path class="st0" d="M-189.7,342.8h-165c-8.2,0-14.8,6.7-14.8,14.8v53.8c0,8.2,6.7,14.8,14.8,14.8h165c8.2,0,14.8-6.7,14.8-14.8
					v-53.8C-174.8,349.5-181.5,342.8-189.7,342.8z"/>
				<linearGradient id="SVGID_31_" gradientUnits="userSpaceOnUse" x1="-367.0161" y1="384.5716" x2="-177.3164" y2="384.5716">
					<stop  offset="0" style="stop-color:#222222"/>
					<stop  offset="1" style="stop-color:#0D0E0E"/>
				</linearGradient>
				<path class="st39" d="M-189.7,345.3h-165c-6.8,0-12.3,5.5-12.3,12.3v53.8c0,6.8,5.5,12.3,12.3,12.3h165
					c6.8,0,12.3-5.5,12.3-12.3v-53.8C-177.3,350.9-182.9,345.3-189.7,345.3z"/>
				<linearGradient id="SVGID_32_" gradientUnits="userSpaceOnUse" x1="-362.5161" y1="384.5716" x2="-181.8164" y2="384.5716">
					<stop  offset="0" style="stop-color:#0D0E0E"/>
					<stop  offset="1" style="stop-color:#222222"/>
				</linearGradient>
				<path class="st40" d="M-189.7,349.8h-165c-4.3,0-7.8,3.5-7.8,7.8v53.8c0,4.3,3.5,7.8,7.8,7.8h165c4.3,0,7.8-3.5,7.8-7.8v-53.8
					C-181.8,353.3-185.3,349.8-189.7,349.8z"/>
				<path class="st6" d="M-189.7,416.3c2.7,0,4.8-2.2,4.8-4.8v-53.8c0-2.7-2.2-4.8-4.8-4.8h-165c-2.7,0-4.8,2.2-4.8,4.8v53.8
					c0,2.7,2.2,4.8,4.8,4.8H-189.7z"/>
			</g>
			<g>
				<path class="st0" d="M-311,342.5h-44c-8.2,0-14.8,6.7-14.8,14.8v53.8c0,8.2,6.7,14.8,14.8,14.8h44c8.2,0,14.8-6.7,14.8-14.8
					v-53.8C-296.2,349.1-302.8,342.5-311,342.5z"/>
				<linearGradient id="SVGID_33_" gradientUnits="userSpaceOnUse" x1="-367.3806" y1="384.2003" x2="-298.6808" y2="384.2003">
					<stop  offset="0" style="stop-color:#F9B654"/>
					<stop  offset="1" style="stop-color:#EF7C2C"/>
				</linearGradient>
				<path class="st41" d="M-311,345h-44c-6.8,0-12.3,5.5-12.3,12.3v53.8c0,6.8,5.5,12.3,12.3,12.3h44c6.8,0,12.3-5.5,12.3-12.3
					v-53.8C-298.7,350.5-304.2,345-311,345z"/>
				<linearGradient id="SVGID_34_" gradientUnits="userSpaceOnUse" x1="-362.8806" y1="384.2003" x2="-303.1808" y2="384.2003">
					<stop  offset="0" style="stop-color:#EF7C2C"/>
					<stop  offset="1" style="stop-color:#F9B654"/>
				</linearGradient>
				<path class="st42" d="M-311,349.5h-44c-4.3,0-7.8,3.5-7.8,7.8v53.8c0,4.3,3.5,7.8,7.8,7.8h44c4.3,0,7.8-3.5,7.8-7.8v-53.8
					C-303.2,353-306.7,349.5-311,349.5z"/>
				<polygon class="st0" points="-317.9,372.4 -317.3,365.5 -333.1,365.3 -348.7,365.1 -347.8,385.7 -333.4,385.9 -325.8,386 
					-326.4,393.7 -333.5,396.1 -340.5,393.6 -340.8,389.3 -347.7,389.2 -347.1,398.6 -333.6,403.3 -320,399 -318.5,379.2 
					-333.3,379.1 -341.2,379 -341.6,372.1 -333.2,372.2 				"/>
				<path class="st6" d="M-311,415.9c2.7,0,4.8-2.2,4.8-4.8v-53.8c0-2.7-2.2-4.8-4.8-4.8h-44c-2.7,0-4.8,2.2-4.8,4.8v53.8
					c0,2.7,2.2,4.8,4.8,4.8H-311z"/>
			</g>
			<rect x="-291.7" y="381" style="fill:none;" width="102.9" height="31.7"/>
			<text transform="matrix(1 0 0 1 -291.7412 385.2338)"><tspan x="0" y="0" class="st0" style="font-family:'Roboto-Regular'; font-size:5.5115px;">Lorem</tspan><tspan x="15.8" y="0" class="st0" style="font-family:'Roboto-Regular'; font-size:5.5115px;"> </tspan><tspan x="17.7" y="0" class="st0" style="font-family:'Roboto-Regular'; font-size:5.5115px;">ipsum</tspan><tspan x="33.1" y="0" class="st0" style="font-family:'Roboto-Regular'; font-size:5.5115px;"> </tspan><tspan x="35" y="0" class="st0" style="font-family:'Roboto-Regular'; font-size:5.5115px;">dolor</tspan><tspan x="47.8" y="0" class="st0" style="font-family:'Roboto-Regular'; font-size:5.5115px;"> </tspan><tspan x="49.7" y="0" class="st0" style="font-family:'Roboto-Regular'; font-size:5.5115px;">sit</tspan><tspan x="55.8" y="0" class="st0" style="font-family:'Roboto-Regular'; font-size:5.5115px;"> </tspan><tspan x="57.8" y="0" class="st0" style="font-family:'Roboto-Regular'; font-size:5.5115px;">amet,</tspan><tspan x="71.5" y="0" class="st0" style="font-family:'Roboto-Regular'; font-size:5.5115px;"> </tspan><tspan x="73.4" y="0" class="st0" style="font-family:'Roboto-Regular'; font-size:5.5115px;">consectetur </tspan><tspan x="0" y="6.6" class="st0" style="font-family:'Roboto-Regular'; font-size:5.5115px;">adipiscing</tspan><tspan x="25.5" y="6.6" class="st0" style="font-family:'Roboto-Regular'; font-size:5.5115px; letter-spacing:1;"> </tspan><tspan x="28.4" y="6.6" class="st0" style="font-family:'Roboto-Regular'; font-size:5.5115px;">elit,</tspan><tspan x="37" y="6.6" class="st0" style="font-family:'Roboto-Regular'; font-size:5.5115px; letter-spacing:1;"> </tspan><tspan x="39.9" y="6.6" class="st0" style="font-family:'Roboto-Regular'; font-size:5.5115px;">sed</tspan><tspan x="48.8" y="6.6" class="st0" style="font-family:'Roboto-Regular'; font-size:5.5115px; letter-spacing:1;"> </tspan><tspan x="51.7" y="6.6" class="st0" style="font-family:'Roboto-Regular'; font-size:5.5115px;">do</tspan><tspan x="58" y="6.6" class="st0" style="font-family:'Roboto-Regular'; font-size:5.5115px; letter-spacing:1;"> </tspan><tspan x="60.9" y="6.6" class="st0" style="font-family:'Roboto-Regular'; font-size:5.5115px;">eiusmod</tspan><tspan x="82.2" y="6.6" class="st0" style="font-family:'Roboto-Regular'; font-size:5.5115px; letter-spacing:1;"> </tspan><tspan x="85.1" y="6.6" class="st0" style="font-family:'Roboto-Regular'; font-size:5.5115px;">tempor </tspan><tspan x="0" y="13.2" class="st0" style="font-family:'Roboto-Regular'; font-size:5.5115px;">incididunt</tspan><tspan x="24.6" y="13.2" class="st0" style="font-family:'Roboto-Regular'; font-size:5.5115px; letter-spacing:2;"> </tspan><tspan x="28.6" y="13.2" class="st0" style="font-family:'Roboto-Regular'; font-size:5.5115px;">ut</tspan><tspan x="33.6" y="13.2" class="st0" style="font-family:'Roboto-Regular'; font-size:5.5115px; letter-spacing:2;"> </tspan><tspan x="37.7" y="13.2" class="st0" style="font-family:'Roboto-Regular'; font-size:5.5115px;">labore</tspan><tspan x="53.2" y="13.2" class="st0" style="font-family:'Roboto-Regular'; font-size:5.5115px; letter-spacing:2;"> </tspan><tspan x="57.3" y="13.2" class="st0" style="font-family:'Roboto-Regular'; font-size:5.5115px;">et</tspan><tspan x="62" y="13.2" class="st0" style="font-family:'Roboto-Regular'; font-size:5.5115px; letter-spacing:2;"> </tspan><tspan x="66.1" y="13.2" class="st0" style="font-family:'Roboto-Regular'; font-size:5.5115px;">dolore</tspan><tspan x="81.7" y="13.2" class="st0" style="font-family:'Roboto-Regular'; font-size:5.5115px; letter-spacing:2;"> </tspan><tspan x="85.7" y="13.2" class="st0" style="font-family:'Roboto-Regular'; font-size:5.5115px;">magna </tspan><tspan x="0" y="19.8" class="st0" style="font-family:'Roboto-Regular'; font-size:5.5115px;">aliqua.</tspan><tspan x="16.6" y="19.8" class="st0" style="font-family:'Roboto-Regular'; font-size:5.5115px; letter-spacing:1;"> </tspan><tspan x="19.4" y="19.8" class="st0" style="font-family:'Roboto-Regular'; font-size:5.5115px;">Ut</tspan><tspan x="25" y="19.8" class="st0" style="font-family:'Roboto-Regular'; font-size:5.5115px; letter-spacing:1;"> </tspan><tspan x="27.9" y="19.8" class="st0" style="font-family:'Roboto-Regular'; font-size:5.5115px;">enim</tspan><tspan x="40.1" y="19.8" class="st0" style="font-family:'Roboto-Regular'; font-size:5.5115px; letter-spacing:1;"> </tspan><tspan x="43" y="19.8" class="st0" style="font-family:'Roboto-Regular'; font-size:5.5115px;">ad</tspan><tspan x="49.1" y="19.8" class="st0" style="font-family:'Roboto-Regular'; font-size:5.5115px; letter-spacing:1;"> </tspan><tspan x="52" y="19.8" class="st0" style="font-family:'Roboto-Regular'; font-size:5.5115px;">minim</tspan><tspan x="67.5" y="19.8" class="st0" style="font-family:'Roboto-Regular'; font-size:5.5115px; letter-spacing:1;"> </tspan><tspan x="70.4" y="19.8" class="st0" style="font-family:'Roboto-Regular'; font-size:5.5115px;">veniam,</tspan><tspan x="89.5" y="19.8" class="st0" style="font-family:'Roboto-Regular'; font-size:5.5115px; letter-spacing:1;"> </tspan><tspan x="92.3" y="19.8" class="st0" style="font-family:'Roboto-Regular'; font-size:5.5115px;">quis </tspan><tspan x="0" y="26.5" class="st0" style="font-family:'Roboto-Regular'; font-size:5.5115px;">nostrud</tspan><tspan x="19.2" y="26.5" class="st0" style="font-family:'Roboto-Regular'; font-size:5.5115px;"> </tspan><tspan x="21.5" y="26.5" class="st0" style="font-family:'Roboto-Regular'; font-size:5.5115px;">exercitation</tspan><tspan x="50.6" y="26.5" class="st0" style="font-family:'Roboto-Regular'; font-size:5.5115px;"> </tspan><tspan x="52.9" y="26.5" class="st0" style="font-family:'Roboto-Regular'; font-size:5.5115px;">ullamco</tspan><tspan x="72.7" y="26.5" class="st0" style="font-family:'Roboto-Regular'; font-size:5.5115px;"> </tspan><tspan x="74.9" y="26.5" class="st0" style="font-family:'Roboto-Regular'; font-size:5.5115px;">laboris</tspan><tspan x="91.8" y="26.5" class="st0" style="font-family:'Roboto-Regular'; font-size:5.5115px;"> </tspan><tspan x="94.1" y="26.5" class="st0" style="font-family:'Roboto-Regular'; font-size:5.5115px;">nisi </tspan></text>
			<rect x="-291.7" y="356" style="fill:none;" width="102.9" height="21.2"/>
			<text transform="matrix(1 0 0 1 -291.7412 362.6708)"><tspan x="0" y="0" class="st0" style="font-family:'Roboto-Bold'; font-size:8.8184px;">Lorem ipsum dolor sit </tspan><tspan x="0" y="10.6" class="st0" style="font-family:'Roboto-Bold'; font-size:8.8184px;">amet, consectetur </tspan></text>
		</g>
		<g>
			<g>
				<path class="st0" d="M-189.8,447.4h-165c-8.2,0-14.8,6.7-14.8,14.8V516c0,8.2,6.7,14.8,14.8,14.8h165c8.2,0,14.8-6.7,14.8-14.8
					v-53.8C-175,454.1-181.7,447.4-189.8,447.4z"/>
				<linearGradient id="SVGID_35_" gradientUnits="userSpaceOnUse" x1="-367.1983" y1="489.1516" x2="-177.4986" y2="489.1516">
					<stop  offset="0" style="stop-color:#222222"/>
					<stop  offset="1" style="stop-color:#0D0E0E"/>
				</linearGradient>
				<path class="st43" d="M-189.8,449.9h-165c-6.8,0-12.3,5.5-12.3,12.3V516c0,6.8,5.5,12.3,12.3,12.3h165c6.8,0,12.3-5.5,12.3-12.3
					v-53.8C-177.5,455.4-183,449.9-189.8,449.9z"/>
				<linearGradient id="SVGID_36_" gradientUnits="userSpaceOnUse" x1="-362.6983" y1="489.1516" x2="-181.9986" y2="489.1516">
					<stop  offset="0" style="stop-color:#0D0E0E"/>
					<stop  offset="1" style="stop-color:#222222"/>
				</linearGradient>
				<path class="st44" d="M-189.8,454.4h-165c-4.3,0-7.8,3.5-7.8,7.8V516c0,4.3,3.5,7.8,7.8,7.8h165c4.3,0,7.8-3.5,7.8-7.8v-53.8
					C-182,457.9-185.5,454.4-189.8,454.4z"/>
				<path class="st6" d="M-189.8,520.9c2.7,0,4.8-2.2,4.8-4.8v-53.8c0-2.7-2.2-4.8-4.8-4.8h-165c-2.7,0-4.8,2.2-4.8,4.8V516
					c0,2.7,2.2,4.8,4.8,4.8H-189.8z"/>
			</g>
			<rect x="-291.9" y="485.6" style="fill:none;" width="102.9" height="31.7"/>
			<text transform="matrix(1 0 0 1 -291.9234 489.8138)"><tspan x="0" y="0" class="st0" style="font-family:'Roboto-Regular'; font-size:5.5115px;">Lorem</tspan><tspan x="15.8" y="0" class="st0" style="font-family:'Roboto-Regular'; font-size:5.5115px;"> </tspan><tspan x="17.7" y="0" class="st0" style="font-family:'Roboto-Regular'; font-size:5.5115px;">ipsum</tspan><tspan x="33.1" y="0" class="st0" style="font-family:'Roboto-Regular'; font-size:5.5115px;"> </tspan><tspan x="35" y="0" class="st0" style="font-family:'Roboto-Regular'; font-size:5.5115px;">dolor</tspan><tspan x="47.8" y="0" class="st0" style="font-family:'Roboto-Regular'; font-size:5.5115px;"> </tspan><tspan x="49.7" y="0" class="st0" style="font-family:'Roboto-Regular'; font-size:5.5115px;">sit</tspan><tspan x="55.8" y="0" class="st0" style="font-family:'Roboto-Regular'; font-size:5.5115px;"> </tspan><tspan x="57.8" y="0" class="st0" style="font-family:'Roboto-Regular'; font-size:5.5115px;">amet,</tspan><tspan x="71.5" y="0" class="st0" style="font-family:'Roboto-Regular'; font-size:5.5115px;"> </tspan><tspan x="73.4" y="0" class="st0" style="font-family:'Roboto-Regular'; font-size:5.5115px;">consectetur </tspan><tspan x="0" y="6.6" class="st0" style="font-family:'Roboto-Regular'; font-size:5.5115px;">adipiscing</tspan><tspan x="25.5" y="6.6" class="st0" style="font-family:'Roboto-Regular'; font-size:5.5115px; letter-spacing:1;"> </tspan><tspan x="28.4" y="6.6" class="st0" style="font-family:'Roboto-Regular'; font-size:5.5115px;">elit,</tspan><tspan x="37" y="6.6" class="st0" style="font-family:'Roboto-Regular'; font-size:5.5115px; letter-spacing:1;"> </tspan><tspan x="39.9" y="6.6" class="st0" style="font-family:'Roboto-Regular'; font-size:5.5115px;">sed</tspan><tspan x="48.8" y="6.6" class="st0" style="font-family:'Roboto-Regular'; font-size:5.5115px; letter-spacing:1;"> </tspan><tspan x="51.7" y="6.6" class="st0" style="font-family:'Roboto-Regular'; font-size:5.5115px;">do</tspan><tspan x="58" y="6.6" class="st0" style="font-family:'Roboto-Regular'; font-size:5.5115px; letter-spacing:1;"> </tspan><tspan x="60.9" y="6.6" class="st0" style="font-family:'Roboto-Regular'; font-size:5.5115px;">eiusmod</tspan><tspan x="82.2" y="6.6" class="st0" style="font-family:'Roboto-Regular'; font-size:5.5115px; letter-spacing:1;"> </tspan><tspan x="85.1" y="6.6" class="st0" style="font-family:'Roboto-Regular'; font-size:5.5115px;">tempor </tspan><tspan x="0" y="13.2" class="st0" style="font-family:'Roboto-Regular'; font-size:5.5115px;">incididunt</tspan><tspan x="24.6" y="13.2" class="st0" style="font-family:'Roboto-Regular'; font-size:5.5115px; letter-spacing:2;"> </tspan><tspan x="28.6" y="13.2" class="st0" style="font-family:'Roboto-Regular'; font-size:5.5115px;">ut</tspan><tspan x="33.6" y="13.2" class="st0" style="font-family:'Roboto-Regular'; font-size:5.5115px; letter-spacing:2;"> </tspan><tspan x="37.7" y="13.2" class="st0" style="font-family:'Roboto-Regular'; font-size:5.5115px;">labore</tspan><tspan x="53.2" y="13.2" class="st0" style="font-family:'Roboto-Regular'; font-size:5.5115px; letter-spacing:2;"> </tspan><tspan x="57.3" y="13.2" class="st0" style="font-family:'Roboto-Regular'; font-size:5.5115px;">et</tspan><tspan x="62" y="13.2" class="st0" style="font-family:'Roboto-Regular'; font-size:5.5115px; letter-spacing:2;"> </tspan><tspan x="66.1" y="13.2" class="st0" style="font-family:'Roboto-Regular'; font-size:5.5115px;">dolore</tspan><tspan x="81.7" y="13.2" class="st0" style="font-family:'Roboto-Regular'; font-size:5.5115px; letter-spacing:2;"> </tspan><tspan x="85.7" y="13.2" class="st0" style="font-family:'Roboto-Regular'; font-size:5.5115px;">magna </tspan><tspan x="0" y="19.8" class="st0" style="font-family:'Roboto-Regular'; font-size:5.5115px;">aliqua.</tspan><tspan x="16.6" y="19.8" class="st0" style="font-family:'Roboto-Regular'; font-size:5.5115px; letter-spacing:1;"> </tspan><tspan x="19.4" y="19.8" class="st0" style="font-family:'Roboto-Regular'; font-size:5.5115px;">Ut</tspan><tspan x="25" y="19.8" class="st0" style="font-family:'Roboto-Regular'; font-size:5.5115px; letter-spacing:1;"> </tspan><tspan x="27.9" y="19.8" class="st0" style="font-family:'Roboto-Regular'; font-size:5.5115px;">enim</tspan><tspan x="40.1" y="19.8" class="st0" style="font-family:'Roboto-Regular'; font-size:5.5115px; letter-spacing:1;"> </tspan><tspan x="43" y="19.8" class="st0" style="font-family:'Roboto-Regular'; font-size:5.5115px;">ad</tspan><tspan x="49.1" y="19.8" class="st0" style="font-family:'Roboto-Regular'; font-size:5.5115px; letter-spacing:1;"> </tspan><tspan x="52" y="19.8" class="st0" style="font-family:'Roboto-Regular'; font-size:5.5115px;">minim</tspan><tspan x="67.5" y="19.8" class="st0" style="font-family:'Roboto-Regular'; font-size:5.5115px; letter-spacing:1;"> </tspan><tspan x="70.4" y="19.8" class="st0" style="font-family:'Roboto-Regular'; font-size:5.5115px;">veniam,</tspan><tspan x="89.5" y="19.8" class="st0" style="font-family:'Roboto-Regular'; font-size:5.5115px; letter-spacing:1;"> </tspan><tspan x="92.3" y="19.8" class="st0" style="font-family:'Roboto-Regular'; font-size:5.5115px;">quis </tspan><tspan x="0" y="26.5" class="st0" style="font-family:'Roboto-Regular'; font-size:5.5115px;">nostrud</tspan><tspan x="19.2" y="26.5" class="st0" style="font-family:'Roboto-Regular'; font-size:5.5115px;"> </tspan><tspan x="21.5" y="26.5" class="st0" style="font-family:'Roboto-Regular'; font-size:5.5115px;">exercitation</tspan><tspan x="50.6" y="26.5" class="st0" style="font-family:'Roboto-Regular'; font-size:5.5115px;"> </tspan><tspan x="52.9" y="26.5" class="st0" style="font-family:'Roboto-Regular'; font-size:5.5115px;">ullamco</tspan><tspan x="72.7" y="26.5" class="st0" style="font-family:'Roboto-Regular'; font-size:5.5115px;"> </tspan><tspan x="74.9" y="26.5" class="st0" style="font-family:'Roboto-Regular'; font-size:5.5115px;">laboris</tspan><tspan x="91.8" y="26.5" class="st0" style="font-family:'Roboto-Regular'; font-size:5.5115px;"> </tspan><tspan x="94.1" y="26.5" class="st0" style="font-family:'Roboto-Regular'; font-size:5.5115px;">nisi </tspan></text>
			<rect x="-291.9" y="460.5" style="fill:none;" width="102.9" height="21.2"/>
			<text transform="matrix(1 0 0 1 -291.9234 467.2508)"><tspan x="0" y="0" class="st0" style="font-family:'Roboto-Bold'; font-size:8.8184px;">Lorem ipsum dolor sit </tspan><tspan x="0" y="10.6" class="st0" style="font-family:'Roboto-Bold'; font-size:8.8184px;">amet, consectetur </tspan></text>
			<g>
				<g>
					<path class="st0" d="M-310.8,447.4h-44c-8.2,0-14.8,6.7-14.8,14.8V516c0,8.2,6.7,14.8,14.8,14.8h44c8.2,0,14.8-6.7,14.8-14.8
						v-53.8C-295.9,454.1-302.6,447.4-310.8,447.4z"/>
					<linearGradient id="SVGID_37_" gradientUnits="userSpaceOnUse" x1="-367.1289" y1="489.1516" x2="-298.4292" y2="489.1516">
						<stop  offset="0" style="stop-color:#B3DEE9;stop-opacity:0.9"/>
						<stop  offset="1" style="stop-color:#3490CF"/>
					</linearGradient>
					<path class="st45" d="M-310.8,449.9h-44c-6.8,0-12.3,5.5-12.3,12.3V516c0,6.8,5.5,12.3,12.3,12.3h44c6.8,0,12.3-5.5,12.3-12.3
						v-53.8C-298.4,455.4-304,449.9-310.8,449.9z"/>
					<linearGradient id="SVGID_38_" gradientUnits="userSpaceOnUse" x1="-362.6289" y1="489.1516" x2="-302.9292" y2="489.1516">
						<stop  offset="0" style="stop-color:#3490CF"/>
						<stop  offset="1" style="stop-color:#B3DEE9;stop-opacity:0.9"/>
					</linearGradient>
					<path class="st46" d="M-310.8,454.4h-44c-4.3,0-7.8,3.5-7.8,7.8V516c0,4.3,3.5,7.8,7.8,7.8h44c4.3,0,7.8-3.5,7.8-7.8v-53.8
						C-302.9,457.9-306.4,454.4-310.8,454.4z"/>
					<path class="st6" d="M-310.8,520.9c2.7,0,4.8-2.2,4.8-4.8v-53.8c0-2.7-2.2-4.8-4.8-4.8h-44c-2.7,0-4.8,2.2-4.8,4.8V516
						c0,2.7,2.2,4.8,4.8,4.8H-310.8z"/>
				</g>
				<path class="st32" d="M-348,494.7h7.5l0.2,4.7l7.7,2.6l7.7-2.6l0.6-8.4h-16.4l-0.4-7.5h17.2l0.6-7.5h-25.7l-0.6-7.5h34.1
					l-0.9,14.9l-1.3,21.5l-14.7,4.9l-14.7-4.9L-348,494.7z"/>
			</g>
		</g>
		<g>
			<g>
				<path class="st0" d="M-189.8,552.2h-165c-8.2,0-14.8,6.7-14.8,14.8v53.8c0,8.2,6.7,14.8,14.8,14.8h165c8.2,0,14.8-6.7,14.8-14.8
					V567C-175,558.8-181.7,552.2-189.8,552.2z"/>
				<linearGradient id="SVGID_39_" gradientUnits="userSpaceOnUse" x1="-367.1983" y1="593.9173" x2="-177.4986" y2="593.9173">
					<stop  offset="0" style="stop-color:#222222"/>
					<stop  offset="1" style="stop-color:#0D0E0E"/>
				</linearGradient>
				<path class="st47" d="M-189.8,554.7h-165c-6.8,0-12.3,5.5-12.3,12.3v53.8c0,6.8,5.5,12.3,12.3,12.3h165
					c6.8,0,12.3-5.5,12.3-12.3V567C-177.5,560.2-183,554.7-189.8,554.7z"/>
				<linearGradient id="SVGID_40_" gradientUnits="userSpaceOnUse" x1="-362.6983" y1="593.9173" x2="-181.9986" y2="593.9173">
					<stop  offset="0" style="stop-color:#0D0E0E"/>
					<stop  offset="1" style="stop-color:#222222"/>
				</linearGradient>
				<path class="st48" d="M-189.8,559.2h-165c-4.3,0-7.8,3.5-7.8,7.8v53.8c0,4.3,3.5,7.8,7.8,7.8h165c4.3,0,7.8-3.5,7.8-7.8V567
					C-182,562.7-185.5,559.2-189.8,559.2z"/>
				<path class="st6" d="M-189.8,625.7c2.7,0,4.8-2.2,4.8-4.8V567c0-2.7-2.2-4.8-4.8-4.8h-165c-2.7,0-4.8,2.2-4.8,4.8v53.8
					c0,2.7,2.2,4.8,4.8,4.8H-189.8z"/>
			</g>
			<rect x="-291.9" y="590.4" style="fill:none;" width="102.9" height="31.7"/>
			<text transform="matrix(1 0 0 1 -291.9234 594.5795)"><tspan x="0" y="0" class="st0" style="font-family:'Roboto-Regular'; font-size:5.5115px;">Lorem</tspan><tspan x="15.8" y="0" class="st0" style="font-family:'Roboto-Regular'; font-size:5.5115px;"> </tspan><tspan x="17.7" y="0" class="st0" style="font-family:'Roboto-Regular'; font-size:5.5115px;">ipsum</tspan><tspan x="33.1" y="0" class="st0" style="font-family:'Roboto-Regular'; font-size:5.5115px;"> </tspan><tspan x="35" y="0" class="st0" style="font-family:'Roboto-Regular'; font-size:5.5115px;">dolor</tspan><tspan x="47.8" y="0" class="st0" style="font-family:'Roboto-Regular'; font-size:5.5115px;"> </tspan><tspan x="49.7" y="0" class="st0" style="font-family:'Roboto-Regular'; font-size:5.5115px;">sit</tspan><tspan x="55.8" y="0" class="st0" style="font-family:'Roboto-Regular'; font-size:5.5115px;"> </tspan><tspan x="57.8" y="0" class="st0" style="font-family:'Roboto-Regular'; font-size:5.5115px;">amet,</tspan><tspan x="71.5" y="0" class="st0" style="font-family:'Roboto-Regular'; font-size:5.5115px;"> </tspan><tspan x="73.4" y="0" class="st0" style="font-family:'Roboto-Regular'; font-size:5.5115px;">consectetur </tspan><tspan x="0" y="6.6" class="st0" style="font-family:'Roboto-Regular'; font-size:5.5115px;">adipiscing</tspan><tspan x="25.5" y="6.6" class="st0" style="font-family:'Roboto-Regular'; font-size:5.5115px; letter-spacing:1;"> </tspan><tspan x="28.4" y="6.6" class="st0" style="font-family:'Roboto-Regular'; font-size:5.5115px;">elit,</tspan><tspan x="37" y="6.6" class="st0" style="font-family:'Roboto-Regular'; font-size:5.5115px; letter-spacing:1;"> </tspan><tspan x="39.9" y="6.6" class="st0" style="font-family:'Roboto-Regular'; font-size:5.5115px;">sed</tspan><tspan x="48.8" y="6.6" class="st0" style="font-family:'Roboto-Regular'; font-size:5.5115px; letter-spacing:1;"> </tspan><tspan x="51.7" y="6.6" class="st0" style="font-family:'Roboto-Regular'; font-size:5.5115px;">do</tspan><tspan x="58" y="6.6" class="st0" style="font-family:'Roboto-Regular'; font-size:5.5115px; letter-spacing:1;"> </tspan><tspan x="60.9" y="6.6" class="st0" style="font-family:'Roboto-Regular'; font-size:5.5115px;">eiusmod</tspan><tspan x="82.2" y="6.6" class="st0" style="font-family:'Roboto-Regular'; font-size:5.5115px; letter-spacing:1;"> </tspan><tspan x="85.1" y="6.6" class="st0" style="font-family:'Roboto-Regular'; font-size:5.5115px;">tempor </tspan><tspan x="0" y="13.2" class="st0" style="font-family:'Roboto-Regular'; font-size:5.5115px;">incididunt</tspan><tspan x="24.6" y="13.2" class="st0" style="font-family:'Roboto-Regular'; font-size:5.5115px; letter-spacing:2;"> </tspan><tspan x="28.6" y="13.2" class="st0" style="font-family:'Roboto-Regular'; font-size:5.5115px;">ut</tspan><tspan x="33.6" y="13.2" class="st0" style="font-family:'Roboto-Regular'; font-size:5.5115px; letter-spacing:2;"> </tspan><tspan x="37.7" y="13.2" class="st0" style="font-family:'Roboto-Regular'; font-size:5.5115px;">labore</tspan><tspan x="53.2" y="13.2" class="st0" style="font-family:'Roboto-Regular'; font-size:5.5115px; letter-spacing:2;"> </tspan><tspan x="57.3" y="13.2" class="st0" style="font-family:'Roboto-Regular'; font-size:5.5115px;">et</tspan><tspan x="62" y="13.2" class="st0" style="font-family:'Roboto-Regular'; font-size:5.5115px; letter-spacing:2;"> </tspan><tspan x="66.1" y="13.2" class="st0" style="font-family:'Roboto-Regular'; font-size:5.5115px;">dolore</tspan><tspan x="81.7" y="13.2" class="st0" style="font-family:'Roboto-Regular'; font-size:5.5115px; letter-spacing:2;"> </tspan><tspan x="85.7" y="13.2" class="st0" style="font-family:'Roboto-Regular'; font-size:5.5115px;">magna </tspan><tspan x="0" y="19.8" class="st0" style="font-family:'Roboto-Regular'; font-size:5.5115px;">aliqua.</tspan><tspan x="16.6" y="19.8" class="st0" style="font-family:'Roboto-Regular'; font-size:5.5115px; letter-spacing:1;"> </tspan><tspan x="19.4" y="19.8" class="st0" style="font-family:'Roboto-Regular'; font-size:5.5115px;">Ut</tspan><tspan x="25" y="19.8" class="st0" style="font-family:'Roboto-Regular'; font-size:5.5115px; letter-spacing:1;"> </tspan><tspan x="27.9" y="19.8" class="st0" style="font-family:'Roboto-Regular'; font-size:5.5115px;">enim</tspan><tspan x="40.1" y="19.8" class="st0" style="font-family:'Roboto-Regular'; font-size:5.5115px; letter-spacing:1;"> </tspan><tspan x="43" y="19.8" class="st0" style="font-family:'Roboto-Regular'; font-size:5.5115px;">ad</tspan><tspan x="49.1" y="19.8" class="st0" style="font-family:'Roboto-Regular'; font-size:5.5115px; letter-spacing:1;"> </tspan><tspan x="52" y="19.8" class="st0" style="font-family:'Roboto-Regular'; font-size:5.5115px;">minim</tspan><tspan x="67.5" y="19.8" class="st0" style="font-family:'Roboto-Regular'; font-size:5.5115px; letter-spacing:1;"> </tspan><tspan x="70.4" y="19.8" class="st0" style="font-family:'Roboto-Regular'; font-size:5.5115px;">veniam,</tspan><tspan x="89.5" y="19.8" class="st0" style="font-family:'Roboto-Regular'; font-size:5.5115px; letter-spacing:1;"> </tspan><tspan x="92.3" y="19.8" class="st0" style="font-family:'Roboto-Regular'; font-size:5.5115px;">quis </tspan><tspan x="0" y="26.5" class="st0" style="font-family:'Roboto-Regular'; font-size:5.5115px;">nostrud</tspan><tspan x="19.2" y="26.5" class="st0" style="font-family:'Roboto-Regular'; font-size:5.5115px;"> </tspan><tspan x="21.5" y="26.5" class="st0" style="font-family:'Roboto-Regular'; font-size:5.5115px;">exercitation</tspan><tspan x="50.6" y="26.5" class="st0" style="font-family:'Roboto-Regular'; font-size:5.5115px;"> </tspan><tspan x="52.9" y="26.5" class="st0" style="font-family:'Roboto-Regular'; font-size:5.5115px;">ullamco</tspan><tspan x="72.7" y="26.5" class="st0" style="font-family:'Roboto-Regular'; font-size:5.5115px;"> </tspan><tspan x="74.9" y="26.5" class="st0" style="font-family:'Roboto-Regular'; font-size:5.5115px;">laboris</tspan><tspan x="91.8" y="26.5" class="st0" style="font-family:'Roboto-Regular'; font-size:5.5115px;"> </tspan><tspan x="94.1" y="26.5" class="st0" style="font-family:'Roboto-Regular'; font-size:5.5115px;">nisi </tspan></text>
			<rect x="-291.9" y="565.3" style="fill:none;" width="102.9" height="21.2"/>
			<text transform="matrix(1 0 0 1 -291.9234 572.0165)"><tspan x="0" y="0" class="st0" style="font-family:'Roboto-Bold'; font-size:8.8184px;">Lorem ipsum dolor sit </tspan><tspan x="0" y="10.6" class="st0" style="font-family:'Roboto-Bold'; font-size:8.8184px;">amet, consectetur </tspan></text>
			<g>
				<g>
					<path class="st0" d="M-310.8,552.2h-44c-8.2,0-14.8,6.7-14.8,14.8v53.8c0,8.2,6.7,14.8,14.8,14.8h44c8.2,0,14.8-6.7,14.8-14.8
						V567C-296,558.8-302.7,552.2-310.8,552.2z"/>
					<linearGradient id="SVGID_41_" gradientUnits="userSpaceOnUse" x1="-367.1983" y1="593.9173" x2="-298.4986" y2="593.9173">
						<stop  offset="0" style="stop-color:#FFDFA1"/>
						<stop  offset="1" style="stop-color:#FBBE43"/>
					</linearGradient>
					<path class="st49" d="M-310.8,554.7h-44c-6.8,0-12.3,5.5-12.3,12.3v53.8c0,6.8,5.5,12.3,12.3,12.3h44c6.8,0,12.3-5.5,12.3-12.3
						V567C-298.5,560.2-304,554.7-310.8,554.7z"/>
					<linearGradient id="SVGID_42_" gradientUnits="userSpaceOnUse" x1="-362.6983" y1="593.9173" x2="-302.9986" y2="593.9173">
						<stop  offset="0" style="stop-color:#FBBE43"/>
						<stop  offset="1" style="stop-color:#FFDFA1"/>
					</linearGradient>
					<path class="st50" d="M-310.8,559.2h-44c-4.3,0-7.8,3.5-7.8,7.8v53.8c0,4.3,3.5,7.8,7.8,7.8h44c4.3,0,7.8-3.5,7.8-7.8V567
						C-303,562.7-306.5,559.2-310.8,559.2z"/>
					<path class="st6" d="M-310.8,625.7c2.7,0,4.8-2.2,4.8-4.8V567c0-2.7-2.2-4.8-4.8-4.8h-44c-2.7,0-4.8,2.2-4.8,4.8v53.8
						c0,2.7,2.2,4.8,4.8,4.8H-310.8z"/>
				</g>
				<g>
					<polygon class="st0" points="-311.6,573.4 -312.1,579.7 -324.2,579.7 -324.2,592.3 -313.1,590.8 -314.7,610.1 -330.5,614.4 
						-330.5,607.2 -319.8,604.2 -319.4,598.3 -330.5,600.2 -330.5,573.4 					"/>
					<polygon class="st0" points="-336.8,573.4 -336.8,614.4 -354.1,609.6 -354.1,601.8 -343.1,604.9 -343.1,573.4 					"/>
				</g>
			</g>
		</g>
	</g>
</g>
<g id="Boton_Search_e_Voltar" class="st2">
	<g class="st4">
		<g>
			<circle class="st0" cx="2.4" cy="349.4" r="14.3"/>
			
				<linearGradient id="SVGID_43_" gradientUnits="userSpaceOnUse" x1="-10.8913" y1="-412.4781" x2="15.764" y2="-412.4781" gradientTransform="matrix(1 0 0 -1 0 -63.0663)">
				<stop  offset="0" style="stop-color:#EF7852"/>
				<stop  offset="1" style="stop-color:#EB5C2C"/>
			</linearGradient>
			<circle class="st51" cx="2.4" cy="349.4" r="13.3"/>
			
				<linearGradient id="SVGID_44_" gradientUnits="userSpaceOnUse" x1="-8.67" y1="-412.4781" x2="13.5427" y2="-412.4781" gradientTransform="matrix(1 0 0 -1 0 -63.0663)">
				<stop  offset="0" style="stop-color:#EB5C2C"/>
				<stop  offset="1" style="stop-color:#EF7852"/>
			</linearGradient>
			<path class="st52" d="M2.4,360.5c-6.1,0-11.1-5-11.1-11.1c0-6.1,5-11.1,11.1-11.1c6.1,0,11.1,5,11.1,11.1
				C13.5,355.5,8.6,360.5,2.4,360.5z"/>
			<path class="st0" d="M0.4,344.2c0.1-0.1,0.2-0.3,0.3-0.2c0.1,0.1,0.1,0.2,0.1,0.4c0,0.9,0,1.9,0,2.8c0,0.3,0.1,0.4,0.4,0.5
				c2.6,0.2,5,1.1,7.1,2.7c0.4,0.4,0.8,0.8,1.1,1.3c0.1,0.2,0.2,0.4,0.1,0.5c-0.2,0.2-0.4,0.1-0.5,0c-0.9-0.4-1.7-0.8-2.6-0.9
				c-1.7-0.3-3.4-0.2-5.1-0.1c-0.3,0-0.3,0.2-0.3,0.4c-0.1,1.1-0.1,2.2-0.2,3.3c-0.2,0-0.3-0.2-0.3-0.2c-1.6-1.6-3.2-3.3-4.8-4.9
				c-0.3-0.3-0.3-0.4,0-0.7C-2.9,347.4-1.2,345.8,0.4,344.2z"/>
		</g>
		<g>
			<g>
				<g>
					<path class="st0" d="M152.5,335.1H42c-7.1,0-12.8,6.4-12.8,14.3v0c0,7.9,5.7,14.3,12.8,14.3h110.5c7.1,0,12.8-6.4,12.8-14.3v0
						C165.3,341.5,159.6,335.1,152.5,335.1z"/>
					<linearGradient id="SVGID_45_" gradientUnits="userSpaceOnUse" x1="34.1084" y1="349.6989" x2="228.7042" y2="348.8143">
						<stop  offset="0" style="stop-color:#222222"/>
						<stop  offset="0.261" style="stop-color:#202021"/>
						<stop  offset="0.4177" style="stop-color:#1B1B1C"/>
						<stop  offset="0.5465" style="stop-color:#121213"/>
						<stop  offset="0.5899" style="stop-color:#0D0E0E"/>
					</linearGradient>
					<path class="st53" d="M152.4,336H42.1c-6.6,0-12,6-12,13.5v0c0,7.4,5.4,13.5,12,13.5h110.3c6.6,0,12-6,12-13.5v0
						C164.4,342,159,336,152.4,336z"/>
					<linearGradient id="SVGID_46_" gradientUnits="userSpaceOnUse" x1="31.9783" y1="349.412" x2="179.8444" y2="349.412">
						<stop  offset="0" style="stop-color:#0D0E0E"/>
						<stop  offset="5.068219e-02" style="stop-color:#111212"/>
						<stop  offset="0.2146" style="stop-color:#1B1B1C"/>
						<stop  offset="0.4115" style="stop-color:#202020"/>
						<stop  offset="0.727" style="stop-color:#222222"/>
					</linearGradient>
					<path class="st54" d="M162.6,349.4c0-6.4-4.6-11.6-10.2-11.6H42.2c-5.6,0-10.2,5.2-10.2,11.6c0,6.4,4.6,11.6,10.2,11.6h110.1
						C158,361,162.6,355.8,162.6,349.4z"/>
				</g>
				<g>
					<circle class="st0" cx="151" cy="349.4" r="14.3"/>
					
						<linearGradient id="SVGID_47_" gradientUnits="userSpaceOnUse" x1="137.6478" y1="-412.4781" x2="164.303" y2="-412.4781" gradientTransform="matrix(1 0 0 -1 0 -63.0663)">
						<stop  offset="0" style="stop-color:#EF7852"/>
						<stop  offset="1" style="stop-color:#EB5C2C"/>
					</linearGradient>
					<circle class="st55" cx="151" cy="349.4" r="13.3"/>
					
						<linearGradient id="SVGID_48_" gradientUnits="userSpaceOnUse" x1="139.869" y1="-412.4781" x2="162.0818" y2="-412.4781" gradientTransform="matrix(1 0 0 -1 0 -63.0663)">
						<stop  offset="0" style="stop-color:#EB5C2C"/>
						<stop  offset="1" style="stop-color:#EF7852"/>
					</linearGradient>
					<path class="st56" d="M151,360.5c-6.1,0-11.1-5-11.1-11.1c0-6.1,5-11.1,11.1-11.1c6.1,0,11.1,5,11.1,11.1
						C162.1,355.5,157.1,360.5,151,360.5z"/>
					<g>
						<path class="st0" d="M149.8,342.8c-3,0-5.4,2.4-5.4,5.4c0,3,2.4,5.4,5.4,5.4s5.4-2.4,5.4-5.4
							C155.2,345.2,152.8,342.8,149.8,342.8z M149.8,351.8c-2,0-3.5-1.6-3.5-3.5c0-2,1.6-3.5,3.5-3.5c2,0,3.5,1.6,3.5,3.5
							C153.3,350.2,151.8,351.8,149.8,351.8z"/>
						<path class="st0" d="M157.3,354.4l-1.9-1.9c-0.4-0.4-1-0.4-1.3,0c-0.4,0.4-0.4,1,0,1.3l1.9,1.9c0.4,0.4,1,0.4,1.3,0
							C157.7,355.4,157.7,354.8,157.3,354.4z"/>
					</g>
				</g>
			</g>
			<text transform="matrix(1.11 0 0 1 41.2612 352.3343)" class="st0 st7" style="font-size:10px;">Search</text>
		</g>
	</g>
</g>
<g id="Botons_Like_e_Coments" class="st2">
	<g class="st4">
		<g>
			<circle class="st0" cx="137.8" cy="413.5" r="14.3"/>
			
				<linearGradient id="SVGID_49_" gradientUnits="userSpaceOnUse" x1="124.4294" y1="-476.5495" x2="151.0847" y2="-476.5495" gradientTransform="matrix(1 0 0 -1 0 -63.0663)">
				<stop  offset="0" style="stop-color:#EF7852"/>
				<stop  offset="1" style="stop-color:#EB5C2C"/>
			</linearGradient>
			<circle class="st57" cx="137.8" cy="413.5" r="13.3"/>
			
				<linearGradient id="SVGID_50_" gradientUnits="userSpaceOnUse" x1="126.6507" y1="-476.5495" x2="148.8634" y2="-476.5495" gradientTransform="matrix(1 0 0 -1 0 -63.0663)">
				<stop  offset="0" style="stop-color:#EB5C2C"/>
				<stop  offset="1" style="stop-color:#EF7852"/>
			</linearGradient>
			<path class="st58" d="M137.8,424.6c-6.1,0-11.1-5-11.1-11.1c0-6.1,5-11.1,11.1-11.1c6.1,0,11.1,5,11.1,11.1
				C148.9,419.6,143.9,424.6,137.8,424.6z"/>
			<path class="st0" d="M131.5,407.8v9.1h4l2.2,2.2l2.2-2.2h4v-9.1H131.5z M134.3,413.3c-0.5,0-1-0.4-1-1c0-0.5,0.4-1,1-1
				c0.5,0,1,0.4,1,1C135.2,412.9,134.8,413.3,134.3,413.3z M137.8,413.3c-0.5,0-1-0.4-1-1c0-0.5,0.4-1,1-1c0.5,0,1,0.4,1,1
				C138.7,412.9,138.3,413.3,137.8,413.3z M141.2,413.3c-0.5,0-1-0.4-1-1c0-0.5,0.4-1,1-1c0.5,0,1,0.4,1,1
				C142.2,412.9,141.8,413.3,141.2,413.3z"/>
		</g>
		<g>
			<circle class="st0" cx="47.8" cy="413.5" r="14.3"/>
			
				<linearGradient id="SVGID_51_" gradientUnits="userSpaceOnUse" x1="34.4788" y1="-476.5495" x2="61.1341" y2="-476.5495" gradientTransform="matrix(1 0 0 -1 0 -63.0663)">
				<stop  offset="0" style="stop-color:#EF7852"/>
				<stop  offset="1" style="stop-color:#EB5C2C"/>
			</linearGradient>
			<circle class="st59" cx="47.8" cy="413.5" r="13.3"/>
			
				<linearGradient id="SVGID_52_" gradientUnits="userSpaceOnUse" x1="36.7001" y1="-476.5495" x2="58.9128" y2="-476.5495" gradientTransform="matrix(1 0 0 -1 0 -63.0663)">
				<stop  offset="0" style="stop-color:#EB5C2C"/>
				<stop  offset="1" style="stop-color:#EF7852"/>
			</linearGradient>
			<path class="st60" d="M47.8,424.6c-6.1,0-11.1-5-11.1-11.1c0-6.1,5-11.1,11.1-11.1c6.1,0,11.1,5,11.1,11.1
				C58.9,419.6,53.9,424.6,47.8,424.6z"/>
			<polygon class="st0" points="46.4,414.7 42.5,414.7 42.5,412.1 46.4,412.1 46.4,407.9 49.3,407.9 49.3,412.1 53.1,412.1 
				53.1,414.7 49.3,414.7 49.3,419.1 46.4,419.1 			"/>
		</g>
		<g>
			<circle class="st0" cx="2.8" cy="413.5" r="14.3"/>
			
				<linearGradient id="SVGID_53_" gradientUnits="userSpaceOnUse" x1="-10.4965" y1="-476.5495" x2="16.1588" y2="-476.5495" gradientTransform="matrix(1 0 0 -1 0 -63.0663)">
				<stop  offset="0" style="stop-color:#EF7852"/>
				<stop  offset="1" style="stop-color:#EB5C2C"/>
			</linearGradient>
			<circle class="st61" cx="2.8" cy="413.5" r="13.3"/>
			
				<linearGradient id="SVGID_54_" gradientUnits="userSpaceOnUse" x1="-8.2752" y1="-476.5495" x2="13.9375" y2="-476.5495" gradientTransform="matrix(1 0 0 -1 0 -63.0663)">
				<stop  offset="0" style="stop-color:#EB5C2C"/>
				<stop  offset="1" style="stop-color:#EF7852"/>
			</linearGradient>
			<path class="st62" d="M2.8,424.6c-6.1,0-11.1-5-11.1-11.1c0-6.1,5-11.1,11.1-11.1c6.1,0,11.1,5,11.1,11.1
				C13.9,419.6,9,424.6,2.8,424.6z"/>
			<path class="st0" d="M0.8,408.3c0.1-0.1,0.2-0.3,0.3-0.2c0.1,0.1,0.1,0.2,0.1,0.4c0,0.9,0,1.9,0,2.8c0,0.3,0.1,0.4,0.4,0.5
				c2.6,0.2,5,1.1,7.1,2.7c0.4,0.4,0.8,0.8,1.1,1.3c0.1,0.2,0.2,0.4,0.1,0.5c-0.2,0.2-0.4,0.1-0.5,0c-0.9-0.4-1.7-0.8-2.6-0.9
				c-1.7-0.3-3.4-0.2-5.1-0.1c-0.3,0-0.3,0.2-0.3,0.4c-0.1,1.1-0.1,2.2-0.2,3.3c-0.2,0-0.3-0.2-0.3-0.2c-1.6-1.6-3.2-3.3-4.8-4.9
				c-0.3-0.3-0.3-0.4,0-0.7C-2.5,411.5-0.8,409.9,0.8,408.3z"/>
		</g>
		<g>
			<circle class="st0" cx="92.8" cy="413.5" r="14.3"/>
			
				<linearGradient id="SVGID_55_" gradientUnits="userSpaceOnUse" x1="79.4541" y1="-476.5495" x2="106.1094" y2="-476.5495" gradientTransform="matrix(1 0 0 -1 0 -63.0663)">
				<stop  offset="0" style="stop-color:#EF7852"/>
				<stop  offset="1" style="stop-color:#EB5C2C"/>
			</linearGradient>
			<circle class="st63" cx="92.8" cy="413.5" r="13.3"/>
			
				<linearGradient id="SVGID_56_" gradientUnits="userSpaceOnUse" x1="81.6754" y1="-476.5495" x2="103.8881" y2="-476.5495" gradientTransform="matrix(1 0 0 -1 0 -63.0663)">
				<stop  offset="0" style="stop-color:#EB5C2C"/>
				<stop  offset="1" style="stop-color:#EF7852"/>
			</linearGradient>
			<path class="st64" d="M92.8,424.6c-6.1,0-11.1-5-11.1-11.1c0-6.1,5-11.1,11.1-11.1c6.1,0,11.1,5,11.1,11.1
				C103.9,419.6,98.9,424.6,92.8,424.6z"/>
			<path class="st0" d="M94.8,407.1c-0.6-0.7-1.6-0.3-1.9,0.5c-0.2,0.6-0.5,1.4-0.8,1.9c-0.8,1.7-1.3,2.6-2.6,3.8
				c-0.2,0.2-0.4,0.3-0.7,0.4c-0.9,0.3-1.7,1.3-1.5,2.3l0.3,1.4c0.1,0.7,0.7,1.3,1.4,1.5l4.4,1.2c2,0.5,4-0.7,4.4-2.8l0.5-2.9
				c0.3-1.4-0.8-2.8-2.3-2.8h-0.7l0,0c0.1-0.3,0.1-0.8,0.2-1.2c0-0.5,0.1-1,0-1.5c0-0.5-0.1-1-0.4-1.3
				C95,407.4,94.9,407.3,94.8,407.1z"/>
		</g>
	</g>
</g>
<g id="Img_Html" class="st2">
	<g class="st4">
		
			<image style="overflow:visible;" width="1193" height="624" xlink:href="A693CEC3.jpg"  transform="matrix(0.1296 0 0 0.1296 854.8325 446.3406)">
		</image>
		
			<image style="overflow:visible;" width="1193" height="624" xlink:href="A693CEC6.jpg"  transform="matrix(0.1296 0 0 0.1296 889.8912 446.3406)">
		</image>
		
			<image style="overflow:visible;" width="1193" height="624" xlink:href="A693CEC5.jpg"  transform="matrix(0.1296 0 0 0.1296 869.6813 446.3406)">
		</image>
	</g>
</g>
</svg>
