<?xml version="1.0" encoding="utf-8"?>
<!-- Generator: Adobe Illustrator 24.2.1, SVG Export Plug-In . SVG Version: 6.00 Build 0)  -->
<svg version="1.1" xmlns="http://www.w3.org/2000/svg" xmlns:xlink="http://www.w3.org/1999/xlink" x="0px" y="0px"
	 viewBox="0 0 559.1 61.4" style="enable-background:new 0 0 559.1 61.4;" xml:space="preserve">
<style type="text/css">
	.st0{display:none;}
	.st1{display:inline;}
	.st2{fill:#F0825D;}
	.st3{fill:#FFFFFF;}
	.st4{fill:url(#SVGID_1_);}
	.st5{fill:none;stroke:#FFFFFF;stroke-miterlimit:10;}
	.st6{font-family:'Roboto-Thin';}
	.st7{font-size:7px;}
	.st8{fill:url(#SVGID_2_);}
	.st9{font-family:'Roboto-Bold';}
	.st10{font-size:15px;}
	.st11{fill:url(#SVGID_3_);}
	.st12{fill:url(#SVGID_4_);}
	.st13{fill:url(#SVGID_5_);}
	.st14{fill:url(#SVGID_6_);}
	.st15{fill:url(#SVGID_7_);}
	.st16{fill:url(#SVGID_8_);}
	.st17{fill:url(#SVGID_9_);}
	.st18{fill:url(#SVGID_10_);}
	.st19{font-family:'Roboto-Light';}
	.st20{font-size:10px;}
	.st21{fill:url(#SVGID_11_);}
	.st22{fill:url(#SVGID_12_);}
	.st23{fill:url(#SVGID_13_);}
	.st24{fill:url(#SVGID_14_);}
	.st25{fill:url(#SVGID_15_);}
	.st26{fill:url(#SVGID_16_);}
	.st27{fill:url(#SVGID_17_);}
	.st28{fill:url(#SVGID_18_);}
	.st29{fill:url(#SVGID_19_);}
	.st30{fill:url(#SVGID_20_);}
	.st31{fill:url(#SVGID_21_);}
	.st32{fill:url(#SVGID_22_);}
	.st33{fill:url(#SVGID_23_);}
	.st34{fill:url(#SVGID_24_);}
	.st35{fill-rule:evenodd;clip-rule:evenodd;fill:#FFFFFF;}
	.st36{fill:url(#SVGID_25_);}
	.st37{fill:url(#SVGID_26_);}
	.st38{fill:url(#SVGID_27_);}
	.st39{fill:url(#SVGID_28_);}
	.st40{fill:url(#SVGID_29_);}
	.st41{fill:url(#SVGID_30_);}
	.st42{fill:url(#SVGID_31_);}
	.st43{fill:url(#SVGID_32_);}
	.st44{fill:url(#SVGID_33_);}
	.st45{fill:url(#SVGID_34_);}
	.st46{fill:none;}
	.st47{font-family:'Roboto-Regular';}
	.st48{font-size:5.5115px;}
	.st49{letter-spacing:1;}
	.st50{letter-spacing:2;}
	.st51{font-size:8.8184px;}
	.st52{fill:url(#SVGID_35_);}
	.st53{fill:url(#SVGID_36_);}
	.st54{fill:url(#SVGID_37_);}
	.st55{fill:url(#SVGID_38_);}
	.st56{fill:url(#SVGID_39_);}
	.st57{fill:url(#SVGID_40_);}
	.st58{fill:url(#SVGID_41_);}
	.st59{fill:url(#SVGID_42_);}
	.st60{fill:url(#SVGID_43_);}
	.st61{fill:url(#SVGID_44_);}
	.st62{fill:url(#SVGID_45_);}
	.st63{fill:url(#SVGID_46_);}
	.st64{fill:url(#SVGID_47_);}
	.st65{fill:url(#SVGID_48_);}
	.st66{fill:url(#SVGID_49_);}
	.st67{fill:url(#SVGID_50_);}
	.st68{fill:url(#SVGID_51_);}
	.st69{fill:url(#SVGID_52_);}
	.st70{fill:url(#SVGID_53_);}
	.st71{fill:url(#SVGID_54_);}
	.st72{fill:url(#SVGID_55_);}
	.st73{fill:url(#SVGID_56_);}
</style>
<g id="Logo" class="st0">
	<g class="st1">
		<text transform="matrix(1 0 0 1 -840.7197 -698.6989)" class="st3" style="font-family:'Monoid-Bold'; font-size:24.5422px;">The Space of</text>
		<text transform="matrix(1 0 0 1 -850.6416 -638.0914)" class="st3" style="font-family:'Gamer'; font-size:107.939px;">Developers</text>
		<g>
			<g>
				<path class="st2" d="M-477.5-586.8c-16.8,0-32.3-6-44.4-16.1l-6.3,9.7c13.9,11.2,31.5,17.9,50.6,17.9c19.2,0,36.8-6.7,50.6-17.9
					l-8-8.3C-446.6-592.3-461.5-586.8-477.5-586.8z"/>
				<path class="st2" d="M-412.8-631.2l10.9,3.7c0.9-2.3,1.7-4.7,2.3-7.2l-10.8-4C-411-636.2-411.8-633.7-412.8-631.2z"/>
				<path class="st2" d="M-477.5-737.1c-23.4,0-44.6,10-59.4,26l6.7,9.7c12.7-14.8,31.6-24.3,52.7-24.3c38.3,0,69.4,31.2,69.4,69.4
					c0,4.6-0.5,9.2-1.3,13.5l11.2,2.4c1-5.2,1.6-10.5,1.6-16C-396.6-700.8-432.9-737.1-477.5-737.1z"/>
			</g>
		</g>
		<g>
			<g>
				<path class="st2" d="M-478.2-531.8c-50.7,0-94.8-28.2-116.1-69.2c-3.2,1.2-6.9,2.8-10.7,4.3c23.1,45.2,71.2,76.4,126.8,76.4
					c14.6,0,28.6-2.1,41.9-6.1c-1.2-3.7-2.4-7.8-3.4-11C-451.9-533.8-464.8-531.8-478.2-531.8z"/>
				<path class="st2" d="M-415.8-779.7c-0.6,3.4-1.6,8-2.4,11.6c41.5,20.9,69.9,62.8,69.9,111c0,50.7-31.5,94.5-76.6,114.1l4.5,10.5
					c49.2-21.4,83.6-69.2,83.6-124.7C-336.9-710.8-369.1-757.3-415.8-779.7z"/>
				<path class="st2" d="M-478.2-782.3c7,0,13.9,0.6,20.6,1.6l-4.8-12.2c-5.2-0.6-10.4-0.9-15.7-0.9c-56.2,0-104.9,31.9-127.6,78
					l8.2,9.6C-577.8-750.9-531.8-782.3-478.2-782.3z"/>
				<path class="st2" d="M-443.9-777.8c0.4-3.6,0.9-8.1,1.3-11.5c-4.5-1.1-9.1-2.1-13.8-2.8l5.5,12.7
					C-448.5-778.9-446.2-778.4-443.9-777.8z"/>
			</g>
		</g>
		<g>
			<g>
				<path class="st2" d="M-620.9-592.3c-2.4,1.9-5.2,4.1-7.9,6.2c1.8,3.5,3.7,7,5.7,10.4c2.8-2.3,5.8-4.6,7.7-6.3
					C-617.4-585.3-619.2-588.7-620.9-592.3z"/>
				<path class="st2" d="M-479.2-504.3c-54.5,0-102.6-27.4-130.7-68.9l-7,7.2c30,43.2,80.6,71.6,137.7,71.6
					c37.6,0,72.2-12.2,100.1-32.9c-1.9-2.7-4-5.5-5.8-8C-411.1-515.9-443.8-504.3-479.2-504.3z"/>
				<path class="st2" d="M-478.4-821.3v9.8c86.1,0.4,156,69.1,156,153.6c0,18.2-3.3,35.7-9.2,51.9l9.1,3.7
					c6.4-17.4,9.9-36.1,9.9-55.6C-312.5-747.8-386.9-820.9-478.4-821.3z"/>
				<path class="st2" d="M-596.8-759.3l-6.5-7.4c-9.1,10-17,21-23.4,33l7.6,6.7C-613.1-738.7-605.6-749.6-596.8-759.3z"/>
			</g>
		</g>
		<g>
			<g>
				<path class="st2" d="M-332.1-691.6c-15.7-64.9-75.6-113.4-147-113.4c-59.1,0-110.3,33.2-135.1,81.5l5.3,4.1
					c23.5-46.7,72.8-79,129.8-79c68.4,0,125.8,46.5,140.7,108.8C-336.5-690.3-334.1-691-332.1-691.6z"/>
				<path class="st2" d="M-329.9-680.7c-2.2,0.5-4.5,1-6.4,1.4c1.1,6.9,1.7,14,1.7,21.3c0,16.2-2.8,31.7-8,46.1l5.9,3.1
					c5.6-15.4,8.7-32,8.7-49.2C-328.1-665.7-328.8-673.3-329.9-680.7z"/>
				<path class="st2" d="M-608.5-595.7l-6.4,1.8c10.6,21.2,26.2,39.5,45.3,53.5l4.6-4.8C-583.4-558.4-598.3-575.7-608.5-595.7z"/>
			</g>
		</g>
		<g>
			<g>
				<path class="st2" d="M-367.6-663.9c2.1,0.3,4.5,0.7,6.7,1c-3.3-60.9-55.1-109.5-118.2-109.5c-37.6,0-71.2,17.3-92.9,44.1
					l7.3,1.5c20.5-23.8,51.3-39,85.6-39C-420-765.7-371.5-720.7-367.6-663.9z"/>
				<path class="st2" d="M-367.5-653.6c-1.6,58.8-51.1,106.1-111.7,106.1c-20.1,0-39-5.2-55.3-14.3l-1.5,6.7
					c16.9,9,36.2,14.2,56.7,14.2c64,0,116.2-49.8,118.3-111.8L-367.5-653.6z"/>
			</g>
		</g>
		<g>
			<g>
				<path class="st2" d="M-449.5-747.3l3.2-4.1c-10.4-3.6-21.5-5.6-33.1-5.6c-29.3,0-55.6,12.6-74,32.6l5.4,1.5
					c17.4-18,41.7-29.2,68.6-29.2C-469-752.1-458.9-750.4-449.5-747.3z"/>
				<path class="st2" d="M-414.4-733c-0.9,1.2-1.9,2.6-2.9,3.9c18.1,15.5,30.3,37.7,32.8,62.7c1.7,0.4,3.5,0.9,5,1.3
					C-381.8-692.2-394.8-716.3-414.4-733z"/>
				<path class="st2" d="M-479.4-561.4c-18.7,0-36.2-5.4-50.9-14.8l-1.3,5c15.2,9.3,33.1,14.7,52.2,14.7c35.7,0,67-18.8,84.8-46.9
					c-1.3-0.7-2.9-1.6-4.3-2.3C-415.9-579.1-445.6-561.4-479.4-561.4z"/>
			</g>
		</g>
		<g>
			<g>
				<path class="st2" d="M-479.4-747.5c-14.9,0-28.9,3.6-41.3,10c0.9,1.2,2.1,2.8,3,4c11.6-5.8,24.6-9,38.3-9
					c43.8,0,80,32.9,85.3,75.2l4.9-0.4C-394.7-712.6-433-747.5-479.4-747.5z"/>
				<path class="st2" d="M-479.4-570.5c-18.5,0-35.6-5.9-49.6-15.8l-0.9,5.4c14.5,9.7,31.8,15.4,50.5,15.4
					c22.7,0,43.5-8.4,59.5-22.2c-1.5-1.1-2.9-2.2-4-3C-438.9-578.2-458.2-570.5-479.4-570.5z"/>
			</g>
		</g>
		<g>
			<g>
				<path class="st2" d="M-479.1-596.4c-11.3,0-21.9-3-30.9-8.3c-0.7,1.5-1.4,3-2,4.5c9.7,5.5,21,8.7,33,8.7
					c15.3,0,29.3-5.1,40.4-13.7c-1-1.1-2.1-2.5-3.2-3.7C-452.1-601.1-465-596.4-479.1-596.4z"/>
				<path class="st2" d="M-479.1-718.4c-17.7,0-33.8,6.9-45.6,18.1l4.2,2.8c10.8-9.9,25.4-15.9,41.3-15.9
					c33.3,0,60.4,26.3,60.4,58.6c0,10.9-3.1,21.1-8.4,29.8l3.8,3.2c6-9.6,9.5-20.9,9.5-33C-413.8-690-443.1-718.4-479.1-718.4z"/>
			</g>
		</g>
	</g>
</g>
<g id="Loading_Bar">
	<path class="st3" d="M529.7,7.6H31.5C18.6,7.6,8.1,18.1,8.1,31v0c0,12.9,10.5,23.4,23.4,23.4h498.2c12.9,0,23.4-10.5,23.4-23.4v0
		C553.1,18.1,542.6,7.6,529.7,7.6z M549.5,31L549.5,31c0,10.9-8.9,19.8-19.8,19.8l-227.3,0V11.2h227.3
		C540.6,11.2,549.5,20.1,549.5,31z"/>
</g>
<g id="input" class="st0">
	<g class="st1">
		<g>
			<linearGradient id="SVGID_1_" gradientUnits="userSpaceOnUse" x1="200.8266" y1="29.3073" x2="381.5263" y2="29.3073">
				<stop  offset="0" style="stop-color:#0D0E0E"/>
				<stop  offset="1" style="stop-color:#222222"/>
			</linearGradient>
			<path class="st4" d="M364.3,12.1H218.1c-9.5,0-17.2,7.7-17.2,17.2v0c0,9.5,7.7,17.2,17.2,17.2h146.2c9.5,0,17.2-7.7,17.2-17.2v0
				C381.5,19.8,373.8,12.1,364.3,12.1z"/>
			<path class="st5" d="M218.1,43.5h146.2c7.9,0,14.2-6.4,14.2-14.2v0c0-7.9-6.4-14.2-14.2-14.2H218.1c-7.9,0-14.2,6.4-14.2,14.2v0
				C203.8,37.2,210.2,43.5,218.1,43.5z"/>
		</g>
		<text transform="matrix(1 0 0 1 275.4794 31.3532)" class="st3 st6 st7">Username</text>
	</g>
</g>
<g id="Boton" class="st0">
	<g class="st1">
		<linearGradient id="SVGID_2_" gradientUnits="userSpaceOnUse" x1="201.1464" y1="30.6014" x2="381.6771" y2="30.6014">
			<stop  offset="0" style="stop-color:#F9B654"/>
			<stop  offset="1" style="stop-color:#EF7C2C"/>
		</linearGradient>
		<path class="st8" d="M368.9,43.4h-155c-7,0-12.8-5.7-12.8-12.8v0c0-7,5.7-12.8,12.8-12.8h155c7,0,12.8,5.7,12.8,12.8v0
			C381.7,37.6,376,43.4,368.9,43.4z"/>
		<g>
			<text transform="matrix(1 0 0 1 270.5367 36.2265)" class="st3 st9 st10">Login</text>
		</g>
	</g>
</g>
<g id="Login_Google" class="st0">
	<g class="st1">
		<linearGradient id="SVGID_3_" gradientUnits="userSpaceOnUse" x1="260.002" y1="57.4053" x2="294.9969" y2="57.4053">
			<stop  offset="0" style="stop-color:#F9B654"/>
			<stop  offset="1" style="stop-color:#EF7C2C"/>
		</linearGradient>
		<path class="st11" d="M288.7,39.7h-22.4c-3.5,0-6.3,2.8-6.3,6.3v22.8c0,3.5,2.8,6.3,6.3,6.3h22.4c3.5,0,6.3-2.8,6.3-6.3V46
			C295,42.5,292.2,39.7,288.7,39.7z"/>
		<linearGradient id="SVGID_4_" gradientUnits="userSpaceOnUse" x1="262.2942" y1="57.4053" x2="292.7047" y2="57.4053">
			<stop  offset="0" style="stop-color:#EF7C2C"/>
			<stop  offset="1" style="stop-color:#F9B654"/>
		</linearGradient>
		<path class="st12" d="M288.7,42h-22.4c-2.2,0-4,1.8-4,4v22.8c0,2.2,1.8,4,4,4h22.4c2.2,0,4-1.8,4-4V46
			C292.7,43.8,290.9,42,288.7,42z"/>
		<path class="st5" d="M288.7,71.3c1.4,0,2.5-1.1,2.5-2.5V46c0-1.4-1.1-2.5-2.5-2.5h-22.4c-1.4,0-2.5,1.1-2.5,2.5v22.8
			c0,1.4,1.1,2.5,2.5,2.5H288.7z"/>
		<g>
			<path class="st3" d="M288.1,56.7c0,0.3,0,0.7,0,1l0,0.3c0,0.3-0.1,0.7-0.1,1l0,0.2c-0.1,0.4-0.1,0.8-0.2,1.1l-0.1,0.3
				c-0.1,0.3-0.2,0.5-0.3,0.8l-0.2,0.4c-0.1,0.3-0.3,0.5-0.4,0.8l-0.1,0.2l-0.1,0.1c-0.5,0.8-1,1.5-1.7,2.1l-0.1,0.1l0,0
				c-0.3,0.3-0.6,0.5-0.9,0.8l0,0c-0.3,0.2-0.7,0.5-1.1,0.7c-0.4,0.2-0.9,0.4-1.3,0.6l-0.1,0l0,0c-1.3,0.5-3.1,0.7-4.4,0.7l3.7-6.5
				c1.2-1,2-2.5,2-4.2c0-1.6-0.7-3-1.8-3.9h6.3c0.3,0.9,0.7,2.1,0.7,3L288.1,56.7z"/>
			<path class="st3" d="M268.6,51.8l3.7,6.4c0.4,2.6,2.6,4.6,5.3,4.6c0.4,0,0.7,0,1.1-0.1l-3,5.3c-0.8-0.1-1.5-0.4-2.2-0.7l-0.3-0.1
				l-0.1,0c-0.2-0.1-0.4-0.2-0.6-0.3l-0.3-0.1l-0.1-0.1c-0.2-0.1-0.4-0.2-0.6-0.4l-0.3-0.2c-0.2-0.1-0.3-0.3-0.5-0.4l-0.3-0.3
				c-0.1-0.1-0.3-0.2-0.4-0.4c-0.1-0.1-0.3-0.3-0.4-0.4l-0.3-0.3c-0.1-0.2-0.3-0.3-0.4-0.5l-0.2-0.3c-0.1-0.2-0.3-0.4-0.4-0.6
				l-0.1-0.1l-0.1-0.3c-0.1-0.2-0.2-0.4-0.3-0.6c-0.1-0.2-0.1-0.3-0.2-0.5c-0.1-0.2-0.1-0.3-0.2-0.5c-0.1-0.2-0.1-0.4-0.2-0.6
				l-0.1-0.4c0-0.2-0.1-0.4-0.1-0.6L267,59c0-0.2-0.1-0.4-0.1-0.6l0-0.5c0-0.2,0-0.4,0-0.5c0-0.2,0-0.4,0-0.5l0-0.5
				c0-0.2,0-0.4,0.1-0.6l0.1-0.4c0-0.2,0.1-0.4,0.1-0.6l0.1-0.4c0.1-0.2,0.1-0.4,0.2-0.6c0.1-0.2,0.1-0.3,0.2-0.5l0.2-0.5
				c0.1-0.2,0.2-0.4,0.3-0.6L268.6,51.8L268.6,51.8z"/>
			<path class="st3" d="M286.7,52.1h-9.2c-2.4,0-4.4,1.5-5.1,3.7l-3-5.3l0.1-0.1c0.1-0.2,0.3-0.3,0.5-0.5l0.3-0.3
				c0.1-0.1,0.3-0.3,0.4-0.4l0.4-0.3c0.1-0.1,0.3-0.2,0.4-0.3c0.1-0.1,0.3-0.2,0.4-0.3l0.3-0.2l0.2-0.1c0.2-0.1,0.3-0.2,0.5-0.2
				c0.2-0.1,0.3-0.2,0.5-0.2l0.4-0.1c0.2-0.1,0.4-0.2,0.6-0.2l0.2,0c0.8-0.2,1.6-0.4,2.4-0.4l0.4,0l0.5,0c0.2,0,0.4,0,0.6,0l0.4,0
				c0.2,0,0.4,0,0.7,0.1l0.3,0.1c0.2,0,0.4,0.1,0.7,0.1l0.3,0.1c0.2,0.1,0.4,0.1,0.6,0.2l0.4,0.2c0.2,0.1,0.3,0.1,0.5,0.2
				c0.2,0.1,0.3,0.2,0.5,0.3l0.3,0.2l0.1,0.1c0.4,0.2,0.7,0.5,1.1,0.7l0.1,0.1c0.3,0.2,0.6,0.5,0.9,0.8l0.2,0.2
				c0.3,0.3,0.5,0.6,0.7,0.9L286,51C286.3,51.3,286.5,51.7,286.7,52.1z"/>
			<path class="st3" d="M277.5,53.4c2.2,0,4,1.8,4,4c0,2.2-1.8,4-4,4c-2.2,0-4-1.8-4-4S275.3,53.4,277.5,53.4z"/>
		</g>
	</g>
</g>
<g id="Login_Apple" class="st0">
	<g class="st1">
		<linearGradient id="SVGID_5_" gradientUnits="userSpaceOnUse" x1="259.7378" y1="57.8824" x2="294.7328" y2="57.8824">
			<stop  offset="0" style="stop-color:#F9B654"/>
			<stop  offset="1" style="stop-color:#EF7C2C"/>
		</linearGradient>
		<path class="st13" d="M288.4,40.2H266c-3.5,0-6.3,2.8-6.3,6.3v22.8c0,3.5,2.8,6.3,6.3,6.3h22.4c3.5,0,6.3-2.8,6.3-6.3V46.5
			C294.7,43,291.9,40.2,288.4,40.2z"/>
		<linearGradient id="SVGID_6_" gradientUnits="userSpaceOnUse" x1="262.0301" y1="57.8824" x2="292.4405" y2="57.8824">
			<stop  offset="0" style="stop-color:#EF7C2C"/>
			<stop  offset="1" style="stop-color:#F9B654"/>
		</linearGradient>
		<path class="st14" d="M288.4,42.5H266c-2.2,0-4,1.8-4,4v22.8c0,2.2,1.8,4,4,4h22.4c2.2,0,4-1.8,4-4V46.5
			C292.4,44.3,290.6,42.5,288.4,42.5z"/>
		<path class="st5" d="M288.4,71.8c1.4,0,2.5-1.1,2.5-2.5V46.5c0-1.4-1.1-2.5-2.5-2.5H266c-1.4,0-2.5,1.1-2.5,2.5v22.8
			c0,1.4,1.1,2.5,2.5,2.5H288.4z"/>
		<g>
			<path class="st3" d="M281.9,46.8C281.9,46.8,281.9,46.8,281.9,46.8c0,1.4-0.1,2.4-1.1,3.4c-0.7,0.7-2.1,1.4-3.1,1.4
				c-0.1,0-0.1,0-0.1,0C277.6,49.4,279.4,46.8,281.9,46.8z"/>
			<path class="st3" d="M284.4,61.1c0.6,0.9,2.4,1.9,2.2,2.5c-0.1,0.5-1.6,2.7-2,3.2c-3.2,4-4.4,0.8-7.1,0.9
				c-1.4,0.1-1.9,1.2-3.4,1.2c-0.2,0-0.4,0-0.6,0c-1.1-0.2-2.3-1.3-3-2.1c-1.4-1.7-2.6-5.3-2.8-7.5c-0.2-2.7,1-5.5,3.4-6.9
				c2.8-1.6,4.8,0.4,6.6,0.8c0.5,0.1,0.9,0.1,1.4-0.1c1.5-0.8,2-1.4,4-0.9c1.1,0.3,2.3,1.2,2.9,2.1
				C283.7,56.1,282.5,58.5,284.4,61.1z"/>
		</g>
	</g>
</g>
<g id="Boton_Studing_add" class="st0">
	<g class="st1">
		<g>
			<path class="st3" d="M384.6,41.7H233.1c-7.1,0-12.8,6.4-12.8,14.3v0c0,7.9,5.7,14.3,12.8,14.3h151.5c7.1,0,12.8-6.4,12.8-14.3v0
				C397.4,48.1,391.7,41.7,384.6,41.7z"/>
			<linearGradient id="SVGID_7_" gradientUnits="userSpaceOnUse" x1="226.4439" y1="56.4041" x2="480.4363" y2="55.2496">
				<stop  offset="0" style="stop-color:#222222"/>
				<stop  offset="0.261" style="stop-color:#202021"/>
				<stop  offset="0.4177" style="stop-color:#1B1B1C"/>
				<stop  offset="0.5465" style="stop-color:#121213"/>
				<stop  offset="0.5899" style="stop-color:#0D0E0E"/>
			</linearGradient>
			<path class="st15" d="M384.5,42.6H233.2c-6.6,0-12,6-12,13.5v0c0,7.4,5.4,13.5,12,13.5h151.3c6.6,0,12-6,12-13.5v0
				C396.5,48.6,391.2,42.6,384.5,42.6z"/>
			<linearGradient id="SVGID_8_" gradientUnits="userSpaceOnUse" x1="223.0916" y1="56.0297" x2="417.3867" y2="56.0297">
				<stop  offset="0" style="stop-color:#0D0E0E"/>
				<stop  offset="5.068219e-02" style="stop-color:#111212"/>
				<stop  offset="0.2146" style="stop-color:#1B1B1C"/>
				<stop  offset="0.4115" style="stop-color:#202020"/>
				<stop  offset="0.727" style="stop-color:#222222"/>
			</linearGradient>
			<path class="st16" d="M394.7,56c0-6.4-4.6-11.6-10.2-11.6H233.3c-5.6,0-10.2,5.2-10.2,11.6c0,6.4,4.6,11.6,10.2,11.6h151.1
				C390.1,67.6,394.7,62.4,394.7,56z"/>
		</g>
		<g>
			<circle class="st3" cx="384" cy="56" r="14.3"/>
			
				<linearGradient id="SVGID_9_" gradientUnits="userSpaceOnUse" x1="370.7075" y1="-733.684" x2="397.3628" y2="-733.684" gradientTransform="matrix(1 0 0 -1 0 -677.6545)">
				<stop  offset="0" style="stop-color:#EF7852"/>
				<stop  offset="1" style="stop-color:#EB5C2C"/>
			</linearGradient>
			<circle class="st17" cx="384" cy="56" r="13.3"/>
			
				<linearGradient id="SVGID_10_" gradientUnits="userSpaceOnUse" x1="372.9288" y1="-733.684" x2="395.1415" y2="-733.684" gradientTransform="matrix(1 0 0 -1 0 -677.6545)">
				<stop  offset="0" style="stop-color:#EB5C2C"/>
				<stop  offset="1" style="stop-color:#EF7852"/>
			</linearGradient>
			<path class="st18" d="M384,67.1c-6.1,0-11.1-5-11.1-11.1c0-6.1,5-11.1,11.1-11.1c6.1,0,11.1,5,11.1,11.1
				C395.1,62.2,390.2,67.1,384,67.1z"/>
			<polygon class="st3" points="382.6,57.3 378.8,57.3 378.8,54.6 382.6,54.6 382.6,50.4 385.5,50.4 385.5,54.6 389.3,54.6 
				389.3,57.3 385.5,57.3 385.5,61.6 382.6,61.6 			"/>
		</g>
		<text transform="matrix(1.11 0 0 1 236.9835 58.9519)"><tspan x="0" y="0" class="st3 st19 st20">Studing</tspan><tspan x="33.8" y="0" class="st3 st19 st20">	</tspan></text>
	</g>
</g>
<g id="Menu_Rodape" class="st0">
	<g class="st1">
		<g>
			<path class="st3" d="M385.3,41.7H233.8c-7.1,0-12.8,6.4-12.8,14.3v0c0,7.9,5.7,14.3,12.8,14.3h151.5c7.1,0,12.8-6.4,12.8-14.3v0
				C398.1,48.1,392.4,41.7,385.3,41.7z"/>
			<linearGradient id="SVGID_11_" gradientUnits="userSpaceOnUse" x1="227.1369" y1="56.4041" x2="481.1293" y2="55.2496">
				<stop  offset="0" style="stop-color:#222222"/>
				<stop  offset="0.261" style="stop-color:#202021"/>
				<stop  offset="0.4177" style="stop-color:#1B1B1C"/>
				<stop  offset="0.5465" style="stop-color:#121213"/>
				<stop  offset="0.5899" style="stop-color:#0D0E0E"/>
			</linearGradient>
			<path class="st21" d="M385.2,42.6H233.9c-6.6,0-12,6-12,13.5v0c0,7.4,5.4,13.5,12,13.5h151.3c6.6,0,12-6,12-13.5v0
				C397.2,48.6,391.9,42.6,385.2,42.6z"/>
			<linearGradient id="SVGID_12_" gradientUnits="userSpaceOnUse" x1="223.7846" y1="56.0297" x2="418.0797" y2="56.0297">
				<stop  offset="0" style="stop-color:#0D0E0E"/>
				<stop  offset="5.068219e-02" style="stop-color:#111212"/>
				<stop  offset="0.2146" style="stop-color:#1B1B1C"/>
				<stop  offset="0.4115" style="stop-color:#202020"/>
				<stop  offset="0.727" style="stop-color:#222222"/>
			</linearGradient>
			<path class="st22" d="M395.4,56c0-6.4-4.6-11.6-10.2-11.6H234c-5.6,0-10.2,5.2-10.2,11.6c0,6.4,4.6,11.6,10.2,11.6h151.1
				C390.8,67.6,395.4,62.4,395.4,56z"/>
		</g>
		<g>
			<circle class="st3" cx="234.9" cy="56" r="14.3"/>
			
				<linearGradient id="SVGID_13_" gradientUnits="userSpaceOnUse" x1="221.5965" y1="-733.684" x2="248.2518" y2="-733.684" gradientTransform="matrix(1 0 0 -1 0 -677.6545)">
				<stop  offset="0" style="stop-color:#EF7852"/>
				<stop  offset="1" style="stop-color:#EB5C2C"/>
			</linearGradient>
			<circle class="st23" cx="234.9" cy="56" r="13.3"/>
			
				<linearGradient id="SVGID_14_" gradientUnits="userSpaceOnUse" x1="223.8178" y1="-733.684" x2="246.0305" y2="-733.684" gradientTransform="matrix(1 0 0 -1 0 -677.6545)">
				<stop  offset="0" style="stop-color:#EB5C2C"/>
				<stop  offset="1" style="stop-color:#EF7852"/>
			</linearGradient>
			<path class="st24" d="M234.9,67.1c-6.1,0-11.1-5-11.1-11.1c0-6.1,5-11.1,11.1-11.1c6.1,0,11.1,5,11.1,11.1
				C246,62.2,241,67.1,234.9,67.1z"/>
			<g>
				<path class="st3" d="M233.7,49.4c-3,0-5.4,2.4-5.4,5.4s2.4,5.4,5.4,5.4s5.4-2.4,5.4-5.4C239.2,51.8,236.7,49.4,233.7,49.4z
					 M233.7,58.4c-2,0-3.5-1.6-3.5-3.5c0-2,1.6-3.5,3.5-3.5s3.5,1.6,3.5,3.5C237.3,56.8,235.7,58.4,233.7,58.4z"/>
				<path class="st3" d="M241.3,61l-1.9-1.9c-0.4-0.4-1-0.4-1.3,0s-0.4,1,0,1.3l1.9,1.9c0.4,0.4,1,0.4,1.3,0
					C241.6,62,241.6,61.4,241.3,61z"/>
			</g>
		</g>
		<g>
			<circle class="st3" cx="383.6" cy="56" r="14.3"/>
			
				<linearGradient id="SVGID_15_" gradientUnits="userSpaceOnUse" x1="370.2646" y1="-733.684" x2="396.9198" y2="-733.684" gradientTransform="matrix(1 0 0 -1 0 -677.6545)">
				<stop  offset="0" style="stop-color:#EF7852"/>
				<stop  offset="1" style="stop-color:#EB5C2C"/>
			</linearGradient>
			<circle class="st25" cx="383.6" cy="56" r="13.3"/>
			
				<linearGradient id="SVGID_16_" gradientUnits="userSpaceOnUse" x1="372.4858" y1="-733.684" x2="394.6986" y2="-733.684" gradientTransform="matrix(1 0 0 -1 0 -677.6545)">
				<stop  offset="0" style="stop-color:#EB5C2C"/>
				<stop  offset="1" style="stop-color:#EF7852"/>
			</linearGradient>
			<path class="st26" d="M383.6,67.1c-6.1,0-11.1-5-11.1-11.1c0-6.1,5-11.1,11.1-11.1c6.1,0,11.1,5,11.1,11.1
				C394.7,62.2,389.7,67.1,383.6,67.1z"/>
			<path class="st3" d="M388.6,56.7c0-0.2,0-0.4,0-0.7s0-0.4,0-0.7l1.4-1.1c0.1-0.1,0.2-0.3,0.1-0.4l-1.4-2.3
				c-0.1-0.1-0.3-0.2-0.4-0.1l-1.7,0.7c-0.4-0.3-0.7-0.5-1.1-0.7l-0.3-1.8c0-0.2-0.2-0.3-0.3-0.3h-2.7c-0.2,0-0.3,0.1-0.3,0.3
				l-0.3,1.8c-0.4,0.2-0.8,0.4-1.1,0.7l-1.7-0.7c-0.2-0.1-0.3,0-0.4,0.1l-1.4,2.3c-0.1,0.1,0,0.3,0.1,0.4l1.4,1.1c0,0.2,0,0.4,0,0.7
				c0,0.2,0,0.4,0,0.7l-1.4,1.1c-0.1,0.1-0.2,0.3-0.1,0.4l1.4,2.3c0.1,0.1,0.3,0.2,0.4,0.1l1.7-0.7c0.4,0.3,0.7,0.5,1.1,0.7l0.3,1.8
				c0,0.2,0.2,0.3,0.3,0.3h2.7c0.2,0,0.3-0.1,0.3-0.3l0.3-1.8c0.4-0.2,0.8-0.4,1.1-0.7l1.7,0.7c0.2,0.1,0.3,0,0.4-0.1l1.4-2.3
				c0.1-0.1,0-0.3-0.1-0.4L388.6,56.7z M383.6,58.4c-1.3,0-2.4-1.1-2.4-2.4s1.1-2.4,2.4-2.4c1.3,0,2.4,1.1,2.4,2.4
				S384.9,58.4,383.6,58.4z"/>
		</g>
		<g>
			<circle class="st3" cx="309.3" cy="56" r="14.3"/>
			
				<linearGradient id="SVGID_17_" gradientUnits="userSpaceOnUse" x1="295.9305" y1="-733.684" x2="322.5858" y2="-733.684" gradientTransform="matrix(1 0 0 -1 0 -677.6545)">
				<stop  offset="0" style="stop-color:#EF7852"/>
				<stop  offset="1" style="stop-color:#EB5C2C"/>
			</linearGradient>
			<circle class="st27" cx="309.3" cy="56" r="13.3"/>
			
				<linearGradient id="SVGID_18_" gradientUnits="userSpaceOnUse" x1="298.1518" y1="-733.684" x2="320.3646" y2="-733.684" gradientTransform="matrix(1 0 0 -1 0 -677.6545)">
				<stop  offset="0" style="stop-color:#EB5C2C"/>
				<stop  offset="1" style="stop-color:#EF7852"/>
			</linearGradient>
			<path class="st28" d="M309.3,67.1c-6.1,0-11.1-5-11.1-11.1c0-6.1,5-11.1,11.1-11.1c6.1,0,11.1,5,11.1,11.1
				C320.4,62.2,315.4,67.1,309.3,67.1z"/>
			<path id="home_1_" class="st3" d="M317,54.9l-6.9-5.2c-0.5-0.3-1.1-0.3-1.7,0l-6.8,5.2c-0.5,0.4-0.3,1.1,0.4,1.1h0.7v4
				c0,1.4,1.2,2.6,2.6,2.6h1.3c0.4,0,0.7-0.3,0.7-0.7v-3.2c0-0.7,0.6-1.4,1.3-1.4h1.3c0.7,0,1.3,0.7,1.3,1.4V62
				c0,0.3,0.3,0.7,0.7,0.7h1.3c1.5,0,2.6-1.2,2.6-2.6v-4h0.7C317.2,56,317.4,55.3,317,54.9z"/>
		</g>
	</g>
</g>
<g id="Botons_Linguagens" class="st0">
	<g class="st1">
		<path class="st3" d="M423.7-88.3h-46.3c-8.6,0-15.6,7-15.6,15.6v56.5c0,8.6,7,15.6,15.6,15.6h46.3c8.6,0,15.6-7,15.6-15.6v-56.5
			C439.3-81.3,432.3-88.3,423.7-88.3z"/>
		<linearGradient id="SVGID_19_" gradientUnits="userSpaceOnUse" x1="364.413" y1="-44.4385" x2="436.636" y2="-44.4385">
			<stop  offset="0" style="stop-color:#F9B654"/>
			<stop  offset="1" style="stop-color:#EF7C2C"/>
		</linearGradient>
		<path class="st29" d="M423.7-85.7h-46.3c-7.2,0-13,5.8-13,13v56.5c0,7.2,5.8,13,13,13h46.3c7.2,0,13-5.8,13-13v-56.5
			C436.6-79.9,430.8-85.7,423.7-85.7z"/>
		<linearGradient id="SVGID_20_" gradientUnits="userSpaceOnUse" x1="369.1437" y1="-44.4385" x2="431.9052" y2="-44.4385">
			<stop  offset="0" style="stop-color:#EF7C2C"/>
			<stop  offset="1" style="stop-color:#F9B654"/>
		</linearGradient>
		<path class="st30" d="M423.7-81h-46.3c-4.5,0-8.3,3.7-8.3,8.3v56.5c0,4.5,3.7,8.3,8.3,8.3h46.3c4.5,0,8.3-3.7,8.3-8.3v-56.5
			C431.9-77.3,428.2-81,423.7-81z"/>
		<polygon class="st3" points="416.4,-56.9 417,-64.1 400.4,-64.3 384,-64.5 385,-42.8 400.2,-42.6 408.1,-42.5 407.5,-34.4 
			400,-32 392.7,-34.6 392.4,-39.1 385.1,-39.2 385.7,-29.3 399.9,-24.4 414.2,-28.9 415.8,-49.6 400.3,-49.8 392,-49.9 
			391.5,-57.2 400.3,-57.1 		"/>
		<path class="st5" d="M423.7-11.1c2.8,0,5.1-2.3,5.1-5.1v-56.5c0-2.8-2.3-5.1-5.1-5.1h-46.3c-2.8,0-5.1,2.3-5.1,5.1v56.5
			c0,2.8,2.3,5.1,5.1,5.1H423.7z"/>
	</g>
	<g class="st1">
		<g>
			<path class="st3" d="M327.8-88.3h-46.3c-8.6,0-15.6,7-15.6,15.6v56.5c0,8.6,7,15.6,15.6,15.6h46.3c8.6,0,15.6-7,15.6-15.6v-56.5
				C343.4-81.3,336.4-88.3,327.8-88.3z"/>
			<linearGradient id="SVGID_21_" gradientUnits="userSpaceOnUse" x1="268.5405" y1="-44.4385" x2="340.7635" y2="-44.4385">
				<stop  offset="0" style="stop-color:#FFDFA1"/>
				<stop  offset="1" style="stop-color:#FBBE43"/>
			</linearGradient>
			<path class="st31" d="M327.8-85.7h-46.3c-7.2,0-13,5.8-13,13v56.5c0,7.2,5.8,13,13,13h46.3c7.2,0,13-5.8,13-13v-56.5
				C340.8-79.9,334.9-85.7,327.8-85.7z"/>
			<linearGradient id="SVGID_22_" gradientUnits="userSpaceOnUse" x1="273.2713" y1="-44.4385" x2="336.0327" y2="-44.4385">
				<stop  offset="0" style="stop-color:#FBBE43"/>
				<stop  offset="1" style="stop-color:#FFDFA1"/>
			</linearGradient>
			<path class="st32" d="M327.8-81h-46.3c-4.5,0-8.3,3.7-8.3,8.3v56.5c0,4.5,3.7,8.3,8.3,8.3h46.3c4.5,0,8.3-3.7,8.3-8.3v-56.5
				C336-77.3,332.3-81,327.8-81z"/>
			<path class="st5" d="M327.8-11.1c2.8,0,5.1-2.3,5.1-5.1v-56.5c0-2.8-2.3-5.1-5.1-5.1h-46.3c-2.8,0-5.1,2.3-5.1,5.1v56.5
				c0,2.8,2.3,5.1,5.1,5.1H327.8z"/>
		</g>
		<g>
			<polygon class="st3" points="327,-66 326.5,-59.4 313.8,-59.4 313.8,-46.1 325.5,-47.8 323.7,-27.4 307.1,-22.9 307.1,-30.5 
				318.3,-33.6 318.7,-39.8 307.1,-37.8 307.1,-66 			"/>
			<polygon class="st3" points="300.5,-66 300.5,-22.9 282.3,-27.9 282.3,-36.1 293.9,-32.9 293.9,-66 			"/>
		</g>
	</g>
	<g class="st1">
		<g>
			<path class="st3" d="M423.7,21.8h-46.3c-8.6,0-15.6,7-15.6,15.6V94c0,8.6,7,15.6,15.6,15.6h46.3c8.6,0,15.6-7,15.6-15.6V37.4
				C439.3,28.8,432.3,21.8,423.7,21.8z"/>
			<linearGradient id="SVGID_23_" gradientUnits="userSpaceOnUse" x1="364.413" y1="65.6969" x2="436.636" y2="65.6969">
				<stop  offset="0" style="stop-color:#BDA4CF;stop-opacity:0.9"/>
				<stop  offset="1" style="stop-color:#564B9A"/>
			</linearGradient>
			<path class="st33" d="M423.7,24.4h-46.3c-7.2,0-13,5.8-13,13V94c0,7.2,5.8,13,13,13h46.3c7.2,0,13-5.8,13-13V37.4
				C436.6,30.3,430.8,24.4,423.7,24.4z"/>
			<linearGradient id="SVGID_24_" gradientUnits="userSpaceOnUse" x1="369.1437" y1="65.6969" x2="431.9052" y2="65.6969">
				<stop  offset="0" style="stop-color:#564B9A"/>
				<stop  offset="1" style="stop-color:#BDA4CF;stop-opacity:0.9"/>
			</linearGradient>
			<path class="st34" d="M423.7,29.2h-46.3c-4.5,0-8.3,3.7-8.3,8.3V94c0,4.5,3.7,8.3,8.3,8.3h46.3c4.5,0,8.3-3.7,8.3-8.3V37.4
				C431.9,32.9,428.2,29.2,423.7,29.2z"/>
			<path class="st5" d="M423.7,99.1c2.8,0,5.1-2.3,5.1-5.1V37.4c0-2.8-2.3-5.1-5.1-5.1h-46.3c-2.8,0-5.1,2.3-5.1,5.1V94
				c0,2.8,2.3,5.1,5.1,5.1H423.7z"/>
		</g>
		<g>
			<polygon class="st35" points="410.7,61.3 407.8,61.3 407.8,64.2 404.9,64.2 404.9,67.2 407.8,67.2 407.8,70.1 410.7,70.1 
				410.7,67.2 413.7,67.2 413.7,64.2 410.7,64.2 			"/>
			<polygon class="st35" points="423.9,64.2 421,64.2 421,61.3 418.1,61.3 418.1,64.2 415.1,64.2 415.1,67.2 418.1,67.2 418.1,70.1 
				421,70.1 421,67.2 423.9,67.2 			"/>
			<path class="st3" d="M406.4,70.9l9,4.9c-3.5,6.2-10.2,10.4-17.8,10.4c-11.3,0-20.4-9.2-20.4-20.5c0-11.3,9.2-20.4,20.4-20.4
				c7.5,0,14,4,17.6,10.1l-8.9,5.1c-1.8-2.9-5-4.9-8.7-4.9c-5.6,0-10.2,4.6-10.2,10.2c0,5.6,4.6,10.2,10.2,10.2
				C401.4,75.9,404.6,73.9,406.4,70.9z"/>
		</g>
	</g>
	<g class="st1">
		<g>
			<path class="st3" d="M327.8,21.8h-46.3c-8.6,0-15.6,7-15.6,15.6V94c0,8.6,7,15.6,15.6,15.6h46.3c8.6,0,15.6-7,15.6-15.6V37.4
				C343.4,28.8,336.4,21.8,327.8,21.8z"/>
			<linearGradient id="SVGID_25_" gradientUnits="userSpaceOnUse" x1="268.5405" y1="65.6969" x2="340.7635" y2="65.6969">
				<stop  offset="0" style="stop-color:#B3DEE9;stop-opacity:0.9"/>
				<stop  offset="1" style="stop-color:#3490CF"/>
			</linearGradient>
			<path class="st36" d="M327.8,24.4h-46.3c-7.2,0-13,5.8-13,13V94c0,7.2,5.8,13,13,13h46.3c7.2,0,13-5.8,13-13V37.4
				C340.8,30.3,334.9,24.4,327.8,24.4z"/>
			<linearGradient id="SVGID_26_" gradientUnits="userSpaceOnUse" x1="273.2713" y1="65.6969" x2="336.0327" y2="65.6969">
				<stop  offset="0" style="stop-color:#3490CF"/>
				<stop  offset="1" style="stop-color:#B3DEE9;stop-opacity:0.9"/>
			</linearGradient>
			<path class="st37" d="M327.8,29.2h-46.3c-4.5,0-8.3,3.7-8.3,8.3V94c0,4.5,3.7,8.3,8.3,8.3h46.3c4.5,0,8.3-3.7,8.3-8.3V37.4
				C336,32.9,332.3,29.2,327.8,29.2z"/>
			<path class="st5" d="M327.8,99.1c2.8,0,5.1-2.3,5.1-5.1V37.4c0-2.8-2.3-5.1-5.1-5.1h-46.3c-2.8,0-5.1,2.3-5.1,5.1V94
				c0,2.8,2.3,5.1,5.1,5.1H327.8z"/>
		</g>
		<path class="st35" d="M288.7,71.5h7.8l0.2,4.9l8,2.7l8-2.7l0.6-8.8h-17.3l-0.4-7.8h18.1l0.6-7.8h-27.1l-0.6-7.8h35.9l-1,15.7
			l-1.4,22.6l-15.5,5.1l-15.5-5.1L288.7,71.5z"/>
	</g>
	<g class="st1">
		<g>
			<path class="st3" d="M423.7,130.9h-46.3c-8.6,0-15.6,7-15.6,15.6v56.5c0,8.6,7,15.6,15.6,15.6h46.3c8.6,0,15.6-7,15.6-15.6v-56.5
				C439.3,137.9,432.3,130.9,423.7,130.9z"/>
			<linearGradient id="SVGID_27_" gradientUnits="userSpaceOnUse" x1="364.413" y1="174.7914" x2="436.636" y2="174.7914">
				<stop  offset="0" style="stop-color:#7DAFDF;stop-opacity:0.9"/>
				<stop  offset="1" style="stop-color:#264798"/>
			</linearGradient>
			<path class="st38" d="M423.7,133.5h-46.3c-7.2,0-13,5.8-13,13v56.5c0,7.2,5.8,13,13,13h46.3c7.2,0,13-5.8,13-13v-56.5
				C436.6,139.4,430.8,133.5,423.7,133.5z"/>
			<linearGradient id="SVGID_28_" gradientUnits="userSpaceOnUse" x1="369.1437" y1="174.7914" x2="431.9052" y2="174.7914">
				<stop  offset="0" style="stop-color:#264798"/>
				<stop  offset="1" style="stop-color:#7DAFDF;stop-opacity:0.9"/>
			</linearGradient>
			<path class="st39" d="M423.7,138.3h-46.3c-4.5,0-8.3,3.7-8.3,8.3v56.5c0,4.5,3.7,8.3,8.3,8.3h46.3c4.5,0,8.3-3.7,8.3-8.3v-56.5
				C431.9,142,428.2,138.3,423.7,138.3z"/>
			<path class="st5" d="M423.7,208.2c2.8,0,5.1-2.3,5.1-5.1v-56.5c0-2.8-2.3-5.1-5.1-5.1h-46.3c-2.8,0-5.1,2.3-5.1,5.1v56.5
				c0,2.8,2.3,5.1,5.1,5.1H423.7z"/>
		</g>
		<g>
			<path class="st3" d="M401.1,152.7c-1.8,0-3.1,0.2-4.6,0.4c-4.5,0.8-5.3,2.4-5.3,5.4v4.6h10.5v2.3h-10.9h-5.1
				c-3.1,0-5.8,1.4-6.6,4.9c-1,4-1,6.5,0,10.6c0.8,3.1,2.4,5.4,5.5,5.4h4.2v-5.9c0-3.5,3.1-6.9,6.7-6.9h8.4c2.9,0,5.8-2.2,5.8-5.1
				v-10c0-2.8-2-5-4.9-5.4C405,153.1,402.9,152.7,401.1,152.7z M395.3,157.3c1,0,1.7,0.8,1.7,1.7c0,1-0.8,1.7-1.7,1.7
				c-1,0-1.7-0.8-1.7-1.7C393.5,158.1,394.3,157.3,395.3,157.3z"/>
			<path class="st3" d="M400,196.9c1.8,0,3.1-0.2,4.6-0.4c4.5-0.8,5.3-2.4,5.3-5.4v-4.6h-10.5v-2.3h10.9h5.1c3.1,0,5.8-1.4,6.6-4.9
				c1-4,1-6.5,0-10.6c-0.8-3.1-2.4-5.4-5.5-5.4h-4.2v5.9c0,3.5-3.1,6.9-6.7,6.9H397c-2.9,0-5.8,2.2-5.8,5.1v10c0,2.8,2,5,4.9,5.4
				C396.1,196.5,398.2,196.9,400,196.9z M405.8,192.2c-1,0-1.7-0.8-1.7-1.7c0-1,0.8-1.7,1.7-1.7c1,0,1.7,0.8,1.7,1.7
				C407.5,191.5,406.7,192.2,405.8,192.2z"/>
		</g>
	</g>
	<g class="st1">
		<g>
			<path class="st3" d="M327.8,130.9h-46.3c-8.6,0-15.6,7-15.6,15.6v56.5c0,8.6,7,15.6,15.6,15.6h46.3c8.6,0,15.6-7,15.6-15.6v-56.5
				C343.4,137.9,336.4,130.9,327.8,130.9z"/>
			<linearGradient id="SVGID_29_" gradientUnits="userSpaceOnUse" x1="268.5405" y1="174.7914" x2="340.7635" y2="174.7914">
				<stop  offset="0" style="stop-color:#E62C2C;stop-opacity:0.9"/>
				<stop  offset="1" style="stop-color:#7B170F"/>
			</linearGradient>
			<path class="st40" d="M327.8,133.5h-46.3c-7.2,0-13,5.8-13,13v56.5c0,7.2,5.8,13,13,13h46.3c7.2,0,13-5.8,13-13v-56.5
				C340.8,139.4,334.9,133.5,327.8,133.5z"/>
			<linearGradient id="SVGID_30_" gradientUnits="userSpaceOnUse" x1="273.2713" y1="174.7914" x2="336.0327" y2="174.7914">
				<stop  offset="0" style="stop-color:#7B170F"/>
				<stop  offset="1" style="stop-color:#E62C2C;stop-opacity:0.9"/>
			</linearGradient>
			<path class="st41" d="M327.8,138.3h-46.3c-4.5,0-8.3,3.7-8.3,8.3v56.5c0,4.5,3.7,8.3,8.3,8.3h46.3c4.5,0,8.3-3.7,8.3-8.3v-56.5
				C336,142,332.3,138.3,327.8,138.3z"/>
			<path class="st5" d="M327.8,208.2c2.8,0,5.1-2.3,5.1-5.1v-56.5c0-2.8-2.3-5.1-5.1-5.1h-46.3c-2.8,0-5.1,2.3-5.1,5.1v56.5
				c0,2.8,2.3,5.1,5.1,5.1H327.8z"/>
		</g>
		<g>
			<path class="st3" d="M304.2,175.9c-1.3-2.1-2.2-3.8-3.5-7c-2.2-5.4,13.2-10.3,7-19.8c2.7,6.5-9.7,10.5-10.9,16
				C295.8,170.1,304.2,175.9,304.2,175.9z"/>
			<path class="st3" d="M304.5,166.2c-0.2,3.2,2.9,4.9,2.9,7.3c0.1,1.9-1.9,3.5-1.9,3.5s3.5-0.7,4.6-3.6c1.2-3.2-2.3-5.5-2-8.1
				c0.3-2.5,7.7-7.1,7.7-7.1S305.1,158.9,304.5,166.2z"/>
			<g>
				<path class="st3" d="M315,176.1c2.2-0.5,4.1,0.9,4.1,2.6c0,3.7-5.1,7.2-5.1,7.2s8-1,8-7.1C322,174.9,318.1,173.9,315,176.1z
					 M311.2,179.1c0,0,2.5-1.8,3.1-2.4c-6.1,1.3-20,1.5-20,0.3c0-1,4.5-2.1,4.5-2.1s-10-0.1-10,2.8
					C288.9,180.8,301.9,181,311.2,179.1z"/>
				<path class="st3" d="M309.7,181.9c-5.8,1.9-16.4,1.3-13.3-1.3c-1.5,0-3.8,1.2-3.8,2.4c0,2.4,11.5,4.2,20,0.7L309.7,181.9z"/>
				<path class="st3" d="M297.8,186c-2.1,0-3.5,1.3-3.5,2.3c0,3.1,12.5,3.4,17.5,0.3l-3.1-2.1C305,188.1,295.7,188.3,297.8,186z"/>
				<path class="st3" d="M320.4,191c0-1.2-1.4-1.8-1.8-2c2.9,6.9-28.6,6.3-28.6,2.3c0-0.9,2.3-1.8,4.5-1.4l-1.8-1.1
					c-4.3-0.7-7.2,1.2-7.2,2.7C285.4,198.5,320.4,198.2,320.4,191z"/>
				<path class="st3" d="M323.9,193.5c-5.3,5.2-18.8,7.2-32.3,3.9C305.1,203.2,323.8,199.9,323.9,193.5z"/>
			</g>
		</g>
	</g>
</g>
<g id="Card_Conteudo" class="st0">
	<g class="st1">
		<g>
			<path class="st3" d="M528.4-5.9h-165c-8.2,0-14.8,6.7-14.8,14.8v53.8c0,8.2,6.7,14.8,14.8,14.8h165c8.2,0,14.8-6.7,14.8-14.8V8.9
				C543.3,0.7,536.6-5.9,528.4-5.9z"/>
			<linearGradient id="SVGID_31_" gradientUnits="userSpaceOnUse" x1="351.0971" y1="35.8068" x2="540.7968" y2="35.8068">
				<stop  offset="0" style="stop-color:#222222"/>
				<stop  offset="1" style="stop-color:#0D0E0E"/>
			</linearGradient>
			<path class="st42" d="M528.4-3.4h-165c-6.8,0-12.3,5.5-12.3,12.3v53.8c0,6.8,5.5,12.3,12.3,12.3h165c6.8,0,12.3-5.5,12.3-12.3
				V8.9C540.8,2.1,535.3-3.4,528.4-3.4z"/>
			<linearGradient id="SVGID_32_" gradientUnits="userSpaceOnUse" x1="355.5971" y1="35.8068" x2="536.2968" y2="35.8068">
				<stop  offset="0" style="stop-color:#0D0E0E"/>
				<stop  offset="1" style="stop-color:#222222"/>
			</linearGradient>
			<path class="st43" d="M528.4,1.1h-165c-4.3,0-7.8,3.5-7.8,7.8v53.8c0,4.3,3.5,7.8,7.8,7.8h165c4.3,0,7.8-3.5,7.8-7.8V8.9
				C536.3,4.6,532.8,1.1,528.4,1.1z"/>
			<path class="st5" d="M528.4,67.5c2.7,0,4.8-2.2,4.8-4.8V8.9c0-2.7-2.2-4.8-4.8-4.8h-165c-2.7,0-4.8,2.2-4.8,4.8v53.8
				c0,2.7,2.2,4.8,4.8,4.8H528.4z"/>
		</g>
		<g>
			<path class="st3" d="M407.1-6.3h-44c-8.2,0-14.8,6.7-14.8,14.8v53.8c0,8.2,6.7,14.8,14.8,14.8h44c8.2,0,14.8-6.7,14.8-14.8V8.5
				C421.9,0.4,415.3-6.3,407.1-6.3z"/>
			<linearGradient id="SVGID_33_" gradientUnits="userSpaceOnUse" x1="350.7326" y1="35.4356" x2="419.4323" y2="35.4356">
				<stop  offset="0" style="stop-color:#F9B654"/>
				<stop  offset="1" style="stop-color:#EF7C2C"/>
			</linearGradient>
			<path class="st44" d="M407.1-3.8h-44c-6.8,0-12.3,5.5-12.3,12.3v53.8c0,6.8,5.5,12.3,12.3,12.3h44c6.8,0,12.3-5.5,12.3-12.3V8.5
				C419.4,1.7,413.9-3.8,407.1-3.8z"/>
			<linearGradient id="SVGID_34_" gradientUnits="userSpaceOnUse" x1="355.2326" y1="35.4356" x2="414.9323" y2="35.4356">
				<stop  offset="0" style="stop-color:#EF7C2C"/>
				<stop  offset="1" style="stop-color:#F9B654"/>
			</linearGradient>
			<path class="st45" d="M407.1,0.7h-44c-4.3,0-7.8,3.5-7.8,7.8v53.8c0,4.3,3.5,7.8,7.8,7.8h44c4.3,0,7.8-3.5,7.8-7.8V8.5
				C414.9,4.2,411.4,0.7,407.1,0.7z"/>
			<polygon class="st3" points="400.2,23.6 400.8,16.8 385,16.6 369.4,16.4 370.3,37 384.7,37.2 392.3,37.3 391.7,45 384.6,47.3 
				377.6,44.8 377.3,40.5 370.5,40.4 371,49.9 384.5,54.5 398.1,50.2 399.6,30.5 384.8,30.3 376.9,30.2 376.5,23.3 384.9,23.4 			
				"/>
			<path class="st5" d="M407.1,67.2c2.7,0,4.8-2.2,4.8-4.8V8.5c0-2.7-2.2-4.8-4.8-4.8h-44c-2.7,0-4.8,2.2-4.8,4.8v53.8
				c0,2.7,2.2,4.8,4.8,4.8H407.1z"/>
		</g>
		<rect x="426.4" y="32.3" class="st46" width="102.9" height="31.7"/>
		<text transform="matrix(1 0 0 1 426.372 36.4691)"><tspan x="0" y="0" class="st3 st47 st48">Lorem</tspan><tspan x="15.8" y="0" class="st3 st47 st48"> </tspan><tspan x="17.7" y="0" class="st3 st47 st48">ipsum</tspan><tspan x="33.1" y="0" class="st3 st47 st48"> </tspan><tspan x="35" y="0" class="st3 st47 st48">dolor</tspan><tspan x="47.8" y="0" class="st3 st47 st48"> </tspan><tspan x="49.7" y="0" class="st3 st47 st48">sit</tspan><tspan x="55.8" y="0" class="st3 st47 st48"> </tspan><tspan x="57.8" y="0" class="st3 st47 st48">amet,</tspan><tspan x="71.5" y="0" class="st3 st47 st48"> </tspan><tspan x="73.4" y="0" class="st3 st47 st48">consectetur </tspan><tspan x="0" y="6.6" class="st3 st47 st48">adipiscing</tspan><tspan x="25.5" y="6.6" class="st3 st47 st48 st49"> </tspan><tspan x="28.4" y="6.6" class="st3 st47 st48">elit,</tspan><tspan x="37" y="6.6" class="st3 st47 st48 st49"> </tspan><tspan x="39.9" y="6.6" class="st3 st47 st48">sed</tspan><tspan x="48.8" y="6.6" class="st3 st47 st48 st49"> </tspan><tspan x="51.7" y="6.6" class="st3 st47 st48">do</tspan><tspan x="58" y="6.6" class="st3 st47 st48 st49"> </tspan><tspan x="60.9" y="6.6" class="st3 st47 st48">eiusmod</tspan><tspan x="82.2" y="6.6" class="st3 st47 st48 st49"> </tspan><tspan x="85.1" y="6.6" class="st3 st47 st48">tempor </tspan><tspan x="0" y="13.2" class="st3 st47 st48">incididunt</tspan><tspan x="24.6" y="13.2" class="st3 st47 st48 st50"> </tspan><tspan x="28.6" y="13.2" class="st3 st47 st48">ut</tspan><tspan x="33.6" y="13.2" class="st3 st47 st48 st50"> </tspan><tspan x="37.7" y="13.2" class="st3 st47 st48">labore</tspan><tspan x="53.2" y="13.2" class="st3 st47 st48 st50"> </tspan><tspan x="57.3" y="13.2" class="st3 st47 st48">et</tspan><tspan x="62" y="13.2" class="st3 st47 st48 st50"> </tspan><tspan x="66.1" y="13.2" class="st3 st47 st48">dolore</tspan><tspan x="81.7" y="13.2" class="st3 st47 st48 st50"> </tspan><tspan x="85.7" y="13.2" class="st3 st47 st48">magna </tspan><tspan x="0" y="19.8" class="st3 st47 st48">aliqua.</tspan><tspan x="16.6" y="19.8" class="st3 st47 st48 st49"> </tspan><tspan x="19.4" y="19.8" class="st3 st47 st48">Ut</tspan><tspan x="25" y="19.8" class="st3 st47 st48 st49"> </tspan><tspan x="27.9" y="19.8" class="st3 st47 st48">enim</tspan><tspan x="40.1" y="19.8" class="st3 st47 st48 st49"> </tspan><tspan x="43" y="19.8" class="st3 st47 st48">ad</tspan><tspan x="49.1" y="19.8" class="st3 st47 st48 st49"> </tspan><tspan x="52" y="19.8" class="st3 st47 st48">minim</tspan><tspan x="67.5" y="19.8" class="st3 st47 st48 st49"> </tspan><tspan x="70.4" y="19.8" class="st3 st47 st48">veniam,</tspan><tspan x="89.5" y="19.8" class="st3 st47 st48 st49"> </tspan><tspan x="92.3" y="19.8" class="st3 st47 st48">quis </tspan><tspan x="0" y="26.5" class="st3 st47 st48">nostrud</tspan><tspan x="19.2" y="26.5" class="st3 st47 st48"> </tspan><tspan x="21.5" y="26.5" class="st3 st47 st48">exercitation</tspan><tspan x="50.6" y="26.5" class="st3 st47 st48"> </tspan><tspan x="52.9" y="26.5" class="st3 st47 st48">ullamco</tspan><tspan x="72.7" y="26.5" class="st3 st47 st48"> </tspan><tspan x="74.9" y="26.5" class="st3 st47 st48">laboris</tspan><tspan x="91.8" y="26.5" class="st3 st47 st48"> </tspan><tspan x="94.1" y="26.5" class="st3 st47 st48">nisi </tspan></text>
		<rect x="426.4" y="7.2" class="st46" width="102.9" height="21.2"/>
		<text transform="matrix(1 0 0 1 426.372 13.9061)"><tspan x="0" y="0" class="st3 st9 st51">Lorem ipsum dolor sit </tspan><tspan x="0" y="10.6" class="st3 st9 st51">amet, consectetur </tspan></text>
	</g>
	<g class="st1">
		<g>
			<path class="st3" d="M528.3,98.6h-165c-8.2,0-14.8,6.7-14.8,14.8v53.8c0,8.2,6.7,14.8,14.8,14.8h165c8.2,0,14.8-6.7,14.8-14.8
				v-53.8C543.1,105.3,536.5,98.6,528.3,98.6z"/>
			<linearGradient id="SVGID_35_" gradientUnits="userSpaceOnUse" x1="350.9149" y1="140.3869" x2="540.6146" y2="140.3869">
				<stop  offset="0" style="stop-color:#222222"/>
				<stop  offset="1" style="stop-color:#0D0E0E"/>
			</linearGradient>
			<path class="st52" d="M528.3,101.1h-165c-6.8,0-12.3,5.5-12.3,12.3v53.8c0,6.8,5.5,12.3,12.3,12.3h165c6.8,0,12.3-5.5,12.3-12.3
				v-53.8C540.6,106.7,535.1,101.1,528.3,101.1z"/>
			<linearGradient id="SVGID_36_" gradientUnits="userSpaceOnUse" x1="355.4149" y1="140.3869" x2="536.1146" y2="140.3869">
				<stop  offset="0" style="stop-color:#0D0E0E"/>
				<stop  offset="1" style="stop-color:#222222"/>
			</linearGradient>
			<path class="st53" d="M528.3,105.6h-165c-4.3,0-7.8,3.5-7.8,7.8v53.8c0,4.3,3.5,7.8,7.8,7.8h165c4.3,0,7.8-3.5,7.8-7.8v-53.8
				C536.1,109.2,532.6,105.6,528.3,105.6z"/>
			<path class="st5" d="M528.3,172.1c2.7,0,4.8-2.2,4.8-4.8v-53.8c0-2.7-2.2-4.8-4.8-4.8h-165c-2.7,0-4.8,2.2-4.8,4.8v53.8
				c0,2.7,2.2,4.8,4.8,4.8H528.3z"/>
		</g>
		<rect x="426.2" y="136.9" class="st46" width="102.9" height="31.7"/>
		<text transform="matrix(1 0 0 1 426.1898 141.0492)"><tspan x="0" y="0" class="st3 st47 st48">Lorem</tspan><tspan x="15.8" y="0" class="st3 st47 st48"> </tspan><tspan x="17.7" y="0" class="st3 st47 st48">ipsum</tspan><tspan x="33.1" y="0" class="st3 st47 st48"> </tspan><tspan x="35" y="0" class="st3 st47 st48">dolor</tspan><tspan x="47.8" y="0" class="st3 st47 st48"> </tspan><tspan x="49.7" y="0" class="st3 st47 st48">sit</tspan><tspan x="55.8" y="0" class="st3 st47 st48"> </tspan><tspan x="57.8" y="0" class="st3 st47 st48">amet,</tspan><tspan x="71.5" y="0" class="st3 st47 st48"> </tspan><tspan x="73.4" y="0" class="st3 st47 st48">consectetur </tspan><tspan x="0" y="6.6" class="st3 st47 st48">adipiscing</tspan><tspan x="25.5" y="6.6" class="st3 st47 st48 st49"> </tspan><tspan x="28.4" y="6.6" class="st3 st47 st48">elit,</tspan><tspan x="37" y="6.6" class="st3 st47 st48 st49"> </tspan><tspan x="39.9" y="6.6" class="st3 st47 st48">sed</tspan><tspan x="48.8" y="6.6" class="st3 st47 st48 st49"> </tspan><tspan x="51.7" y="6.6" class="st3 st47 st48">do</tspan><tspan x="58" y="6.6" class="st3 st47 st48 st49"> </tspan><tspan x="60.9" y="6.6" class="st3 st47 st48">eiusmod</tspan><tspan x="82.2" y="6.6" class="st3 st47 st48 st49"> </tspan><tspan x="85.1" y="6.6" class="st3 st47 st48">tempor </tspan><tspan x="0" y="13.2" class="st3 st47 st48">incididunt</tspan><tspan x="24.6" y="13.2" class="st3 st47 st48 st50"> </tspan><tspan x="28.6" y="13.2" class="st3 st47 st48">ut</tspan><tspan x="33.6" y="13.2" class="st3 st47 st48 st50"> </tspan><tspan x="37.7" y="13.2" class="st3 st47 st48">labore</tspan><tspan x="53.2" y="13.2" class="st3 st47 st48 st50"> </tspan><tspan x="57.3" y="13.2" class="st3 st47 st48">et</tspan><tspan x="62" y="13.2" class="st3 st47 st48 st50"> </tspan><tspan x="66.1" y="13.2" class="st3 st47 st48">dolore</tspan><tspan x="81.7" y="13.2" class="st3 st47 st48 st50"> </tspan><tspan x="85.7" y="13.2" class="st3 st47 st48">magna </tspan><tspan x="0" y="19.8" class="st3 st47 st48">aliqua.</tspan><tspan x="16.6" y="19.8" class="st3 st47 st48 st49"> </tspan><tspan x="19.4" y="19.8" class="st3 st47 st48">Ut</tspan><tspan x="25" y="19.8" class="st3 st47 st48 st49"> </tspan><tspan x="27.9" y="19.8" class="st3 st47 st48">enim</tspan><tspan x="40.1" y="19.8" class="st3 st47 st48 st49"> </tspan><tspan x="43" y="19.8" class="st3 st47 st48">ad</tspan><tspan x="49.1" y="19.8" class="st3 st47 st48 st49"> </tspan><tspan x="52" y="19.8" class="st3 st47 st48">minim</tspan><tspan x="67.5" y="19.8" class="st3 st47 st48 st49"> </tspan><tspan x="70.4" y="19.8" class="st3 st47 st48">veniam,</tspan><tspan x="89.5" y="19.8" class="st3 st47 st48 st49"> </tspan><tspan x="92.3" y="19.8" class="st3 st47 st48">quis </tspan><tspan x="0" y="26.5" class="st3 st47 st48">nostrud</tspan><tspan x="19.2" y="26.5" class="st3 st47 st48"> </tspan><tspan x="21.5" y="26.5" class="st3 st47 st48">exercitation</tspan><tspan x="50.6" y="26.5" class="st3 st47 st48"> </tspan><tspan x="52.9" y="26.5" class="st3 st47 st48">ullamco</tspan><tspan x="72.7" y="26.5" class="st3 st47 st48"> </tspan><tspan x="74.9" y="26.5" class="st3 st47 st48">laboris</tspan><tspan x="91.8" y="26.5" class="st3 st47 st48"> </tspan><tspan x="94.1" y="26.5" class="st3 st47 st48">nisi </tspan></text>
		<rect x="426.2" y="111.8" class="st46" width="102.9" height="21.2"/>
		<text transform="matrix(1 0 0 1 426.1898 118.4862)"><tspan x="0" y="0" class="st3 st9 st51">Lorem ipsum dolor sit </tspan><tspan x="0" y="10.6" class="st3 st9 st51">amet, consectetur </tspan></text>
		<g>
			<g>
				<path class="st3" d="M407.3,98.6h-44c-8.2,0-14.8,6.7-14.8,14.8v53.8c0,8.2,6.7,14.8,14.8,14.8h44c8.2,0,14.8-6.7,14.8-14.8
					v-53.8C422.2,105.3,415.5,98.6,407.3,98.6z"/>
				<linearGradient id="SVGID_37_" gradientUnits="userSpaceOnUse" x1="350.9843" y1="140.3869" x2="419.684" y2="140.3869">
					<stop  offset="0" style="stop-color:#B3DEE9;stop-opacity:0.9"/>
					<stop  offset="1" style="stop-color:#3490CF"/>
				</linearGradient>
				<path class="st54" d="M407.3,101.1h-44c-6.8,0-12.3,5.5-12.3,12.3v53.8c0,6.8,5.5,12.3,12.3,12.3h44c6.8,0,12.3-5.5,12.3-12.3
					v-53.8C419.7,106.7,414.1,101.1,407.3,101.1z"/>
				<linearGradient id="SVGID_38_" gradientUnits="userSpaceOnUse" x1="355.4843" y1="140.3869" x2="415.184" y2="140.3869">
					<stop  offset="0" style="stop-color:#3490CF"/>
					<stop  offset="1" style="stop-color:#B3DEE9;stop-opacity:0.9"/>
				</linearGradient>
				<path class="st55" d="M407.3,105.6h-44c-4.3,0-7.8,3.5-7.8,7.8v53.8c0,4.3,3.5,7.8,7.8,7.8h44c4.3,0,7.8-3.5,7.8-7.8v-53.8
					C415.2,109.2,411.7,105.6,407.3,105.6z"/>
				<path class="st5" d="M407.3,172.1c2.7,0,4.8-2.2,4.8-4.8v-53.8c0-2.7-2.2-4.8-4.8-4.8h-44c-2.7,0-4.8,2.2-4.8,4.8v53.8
					c0,2.7,2.2,4.8,4.8,4.8H407.3z"/>
			</g>
			<path class="st35" d="M370.1,145.9h7.5l0.2,4.7l7.7,2.6l7.7-2.6l0.6-8.4h-16.4l-0.4-7.5H394l0.6-7.5h-25.7l-0.6-7.5h34.1
				l-0.9,14.9l-1.3,21.5l-14.7,4.9l-14.7-4.9L370.1,145.9z"/>
		</g>
	</g>
	<g class="st1">
		<g>
			<path class="st3" d="M528.3,203.4h-165c-8.2,0-14.8,6.7-14.8,14.8V272c0,8.2,6.7,14.8,14.8,14.8h165c8.2,0,14.8-6.7,14.8-14.8
				v-53.8C543.1,210.1,536.5,203.4,528.3,203.4z"/>
			<linearGradient id="SVGID_39_" gradientUnits="userSpaceOnUse" x1="350.9149" y1="245.1526" x2="540.6146" y2="245.1526">
				<stop  offset="0" style="stop-color:#222222"/>
				<stop  offset="1" style="stop-color:#0D0E0E"/>
			</linearGradient>
			<path class="st56" d="M528.3,205.9h-165c-6.8,0-12.3,5.5-12.3,12.3V272c0,6.8,5.5,12.3,12.3,12.3h165c6.8,0,12.3-5.5,12.3-12.3
				v-53.8C540.6,211.4,535.1,205.9,528.3,205.9z"/>
			<linearGradient id="SVGID_40_" gradientUnits="userSpaceOnUse" x1="355.4149" y1="245.1526" x2="536.1146" y2="245.1526">
				<stop  offset="0" style="stop-color:#0D0E0E"/>
				<stop  offset="1" style="stop-color:#222222"/>
			</linearGradient>
			<path class="st57" d="M528.3,210.4h-165c-4.3,0-7.8,3.5-7.8,7.8V272c0,4.3,3.5,7.8,7.8,7.8h165c4.3,0,7.8-3.5,7.8-7.8v-53.8
				C536.1,213.9,532.6,210.4,528.3,210.4z"/>
			<path class="st5" d="M528.3,276.9c2.7,0,4.8-2.2,4.8-4.8v-53.8c0-2.7-2.2-4.8-4.8-4.8h-165c-2.7,0-4.8,2.2-4.8,4.8V272
				c0,2.7,2.2,4.8,4.8,4.8H528.3z"/>
		</g>
		<rect x="426.2" y="241.6" class="st46" width="102.9" height="31.7"/>
		<text transform="matrix(1 0 0 1 426.1898 245.8148)"><tspan x="0" y="0" class="st3 st47 st48">Lorem</tspan><tspan x="15.8" y="0" class="st3 st47 st48"> </tspan><tspan x="17.7" y="0" class="st3 st47 st48">ipsum</tspan><tspan x="33.1" y="0" class="st3 st47 st48"> </tspan><tspan x="35" y="0" class="st3 st47 st48">dolor</tspan><tspan x="47.8" y="0" class="st3 st47 st48"> </tspan><tspan x="49.7" y="0" class="st3 st47 st48">sit</tspan><tspan x="55.8" y="0" class="st3 st47 st48"> </tspan><tspan x="57.8" y="0" class="st3 st47 st48">amet,</tspan><tspan x="71.5" y="0" class="st3 st47 st48"> </tspan><tspan x="73.4" y="0" class="st3 st47 st48">consectetur </tspan><tspan x="0" y="6.6" class="st3 st47 st48">adipiscing</tspan><tspan x="25.5" y="6.6" class="st3 st47 st48 st49"> </tspan><tspan x="28.4" y="6.6" class="st3 st47 st48">elit,</tspan><tspan x="37" y="6.6" class="st3 st47 st48 st49"> </tspan><tspan x="39.9" y="6.6" class="st3 st47 st48">sed</tspan><tspan x="48.8" y="6.6" class="st3 st47 st48 st49"> </tspan><tspan x="51.7" y="6.6" class="st3 st47 st48">do</tspan><tspan x="58" y="6.6" class="st3 st47 st48 st49"> </tspan><tspan x="60.9" y="6.6" class="st3 st47 st48">eiusmod</tspan><tspan x="82.2" y="6.6" class="st3 st47 st48 st49"> </tspan><tspan x="85.1" y="6.6" class="st3 st47 st48">tempor </tspan><tspan x="0" y="13.2" class="st3 st47 st48">incididunt</tspan><tspan x="24.6" y="13.2" class="st3 st47 st48 st50"> </tspan><tspan x="28.6" y="13.2" class="st3 st47 st48">ut</tspan><tspan x="33.6" y="13.2" class="st3 st47 st48 st50"> </tspan><tspan x="37.7" y="13.2" class="st3 st47 st48">labore</tspan><tspan x="53.2" y="13.2" class="st3 st47 st48 st50"> </tspan><tspan x="57.3" y="13.2" class="st3 st47 st48">et</tspan><tspan x="62" y="13.2" class="st3 st47 st48 st50"> </tspan><tspan x="66.1" y="13.2" class="st3 st47 st48">dolore</tspan><tspan x="81.7" y="13.2" class="st3 st47 st48 st50"> </tspan><tspan x="85.7" y="13.2" class="st3 st47 st48">magna </tspan><tspan x="0" y="19.8" class="st3 st47 st48">aliqua.</tspan><tspan x="16.6" y="19.8" class="st3 st47 st48 st49"> </tspan><tspan x="19.4" y="19.8" class="st3 st47 st48">Ut</tspan><tspan x="25" y="19.8" class="st3 st47 st48 st49"> </tspan><tspan x="27.9" y="19.8" class="st3 st47 st48">enim</tspan><tspan x="40.1" y="19.8" class="st3 st47 st48 st49"> </tspan><tspan x="43" y="19.8" class="st3 st47 st48">ad</tspan><tspan x="49.1" y="19.8" class="st3 st47 st48 st49"> </tspan><tspan x="52" y="19.8" class="st3 st47 st48">minim</tspan><tspan x="67.5" y="19.8" class="st3 st47 st48 st49"> </tspan><tspan x="70.4" y="19.8" class="st3 st47 st48">veniam,</tspan><tspan x="89.5" y="19.8" class="st3 st47 st48 st49"> </tspan><tspan x="92.3" y="19.8" class="st3 st47 st48">quis </tspan><tspan x="0" y="26.5" class="st3 st47 st48">nostrud</tspan><tspan x="19.2" y="26.5" class="st3 st47 st48"> </tspan><tspan x="21.5" y="26.5" class="st3 st47 st48">exercitation</tspan><tspan x="50.6" y="26.5" class="st3 st47 st48"> </tspan><tspan x="52.9" y="26.5" class="st3 st47 st48">ullamco</tspan><tspan x="72.7" y="26.5" class="st3 st47 st48"> </tspan><tspan x="74.9" y="26.5" class="st3 st47 st48">laboris</tspan><tspan x="91.8" y="26.5" class="st3 st47 st48"> </tspan><tspan x="94.1" y="26.5" class="st3 st47 st48">nisi </tspan></text>
		<rect x="426.2" y="216.5" class="st46" width="102.9" height="21.2"/>
		<text transform="matrix(1 0 0 1 426.1898 223.2519)"><tspan x="0" y="0" class="st3 st9 st51">Lorem ipsum dolor sit </tspan><tspan x="0" y="10.6" class="st3 st9 st51">amet, consectetur </tspan></text>
		<g>
			<g>
				<path class="st3" d="M407.3,203.4h-44c-8.2,0-14.8,6.7-14.8,14.8V272c0,8.2,6.7,14.8,14.8,14.8h44c8.2,0,14.8-6.7,14.8-14.8
					v-53.8C422.1,210.1,415.5,203.4,407.3,203.4z"/>
				<linearGradient id="SVGID_41_" gradientUnits="userSpaceOnUse" x1="350.9149" y1="245.1526" x2="419.6146" y2="245.1526">
					<stop  offset="0" style="stop-color:#FFDFA1"/>
					<stop  offset="1" style="stop-color:#FBBE43"/>
				</linearGradient>
				<path class="st58" d="M407.3,205.9h-44c-6.8,0-12.3,5.5-12.3,12.3V272c0,6.8,5.5,12.3,12.3,12.3h44c6.8,0,12.3-5.5,12.3-12.3
					v-53.8C419.6,211.4,414.1,205.9,407.3,205.9z"/>
				<linearGradient id="SVGID_42_" gradientUnits="userSpaceOnUse" x1="355.4149" y1="245.1526" x2="415.1146" y2="245.1526">
					<stop  offset="0" style="stop-color:#FBBE43"/>
					<stop  offset="1" style="stop-color:#FFDFA1"/>
				</linearGradient>
				<path class="st59" d="M407.3,210.4h-44c-4.3,0-7.8,3.5-7.8,7.8V272c0,4.3,3.5,7.8,7.8,7.8h44c4.3,0,7.8-3.5,7.8-7.8v-53.8
					C415.1,213.9,411.6,210.4,407.3,210.4z"/>
				<path class="st5" d="M407.3,276.9c2.7,0,4.8-2.2,4.8-4.8v-53.8c0-2.7-2.2-4.8-4.8-4.8h-44c-2.7,0-4.8,2.2-4.8,4.8V272
					c0,2.7,2.2,4.8,4.8,4.8H407.3z"/>
			</g>
			<g>
				<polygon class="st3" points="406.6,224.6 406,231 393.9,231 393.9,243.6 405.1,242 403.4,261.3 387.6,265.7 387.6,258.4 
					398.3,255.5 398.7,249.6 387.6,251.5 387.6,224.6 				"/>
				<polygon class="st3" points="381.3,224.6 381.3,265.7 364,260.8 364,253.1 375,256.1 375,224.6 				"/>
			</g>
		</g>
	</g>
</g>
<g id="Boton_Search_e_Voltar" class="st0">
	<g class="st1">
		<circle class="st3" cx="379.3" cy="112.8" r="14.3"/>
		
			<linearGradient id="SVGID_43_" gradientUnits="userSpaceOnUse" x1="365.9522" y1="-790.4564" x2="392.6075" y2="-790.4564" gradientTransform="matrix(1 0 0 -1 0 -677.6545)">
			<stop  offset="0" style="stop-color:#EF7852"/>
			<stop  offset="1" style="stop-color:#EB5C2C"/>
		</linearGradient>
		<circle class="st60" cx="379.3" cy="112.8" r="13.3"/>
		
			<linearGradient id="SVGID_44_" gradientUnits="userSpaceOnUse" x1="368.1735" y1="-790.4564" x2="390.3863" y2="-790.4564" gradientTransform="matrix(1 0 0 -1 0 -677.6545)">
			<stop  offset="0" style="stop-color:#EB5C2C"/>
			<stop  offset="1" style="stop-color:#EF7852"/>
		</linearGradient>
		<path class="st61" d="M379.3,123.9c-6.1,0-11.1-5-11.1-11.1c0-6.1,5-11.1,11.1-11.1c6.1,0,11.1,5,11.1,11.1
			C390.4,118.9,385.4,123.9,379.3,123.9z"/>
		<path class="st3" d="M377.2,107.6c0.1-0.1,0.2-0.3,0.3-0.2c0.1,0.1,0.1,0.2,0.1,0.4c0,0.9,0,1.9,0,2.8c0,0.3,0.1,0.4,0.4,0.5
			c2.6,0.2,5,1.1,7.1,2.7c0.4,0.4,0.8,0.8,1.1,1.3c0.1,0.2,0.2,0.4,0.1,0.5c-0.2,0.2-0.4,0.1-0.5,0c-0.9-0.4-1.7-0.8-2.6-0.9
			c-1.7-0.3-3.4-0.2-5.1-0.1c-0.3,0-0.3,0.2-0.3,0.4c-0.1,1.1-0.1,2.2-0.2,3.3c-0.2,0-0.3-0.2-0.3-0.2c-1.6-1.6-3.2-3.3-4.8-4.9
			c-0.3-0.3-0.3-0.4,0-0.7C374,110.8,375.6,109.2,377.2,107.6z"/>
	</g>
	<g class="st1">
		<g>
			<g>
				<path class="st3" d="M529.3,98.5H418.9c-7.1,0-12.8,6.4-12.8,14.3v0c0,7.9,5.7,14.3,12.8,14.3h110.5c7.1,0,12.8-6.4,12.8-14.3v0
					C542.1,104.9,536.4,98.5,529.3,98.5z"/>
				<linearGradient id="SVGID_45_" gradientUnits="userSpaceOnUse" x1="410.9519" y1="113.0889" x2="605.5477" y2="112.2044">
					<stop  offset="0" style="stop-color:#222222"/>
					<stop  offset="0.261" style="stop-color:#202021"/>
					<stop  offset="0.4177" style="stop-color:#1B1B1C"/>
					<stop  offset="0.5465" style="stop-color:#121213"/>
					<stop  offset="0.5899" style="stop-color:#0D0E0E"/>
				</linearGradient>
				<path class="st62" d="M529.3,99.3H419c-6.6,0-12,6-12,13.5v0c0,7.4,5.4,13.5,12,13.5h110.3c6.6,0,12-6,12-13.5v0
					C541.3,105.4,535.9,99.3,529.3,99.3z"/>
				<linearGradient id="SVGID_46_" gradientUnits="userSpaceOnUse" x1="408.8218" y1="112.8021" x2="556.6879" y2="112.8021">
					<stop  offset="0" style="stop-color:#0D0E0E"/>
					<stop  offset="5.068219e-02" style="stop-color:#111212"/>
					<stop  offset="0.2146" style="stop-color:#1B1B1C"/>
					<stop  offset="0.4115" style="stop-color:#202020"/>
					<stop  offset="0.727" style="stop-color:#222222"/>
				</linearGradient>
				<path class="st63" d="M539.4,112.8c0-6.4-4.6-11.6-10.2-11.6H419.1c-5.6,0-10.2,5.2-10.2,11.6c0,6.4,4.6,11.6,10.2,11.6h110.1
					C534.8,124.4,539.4,119.2,539.4,112.8z"/>
			</g>
			<g>
				<circle class="st3" cx="527.8" cy="112.8" r="14.3"/>
				
					<linearGradient id="SVGID_47_" gradientUnits="userSpaceOnUse" x1="514.4913" y1="-790.4564" x2="541.1465" y2="-790.4564" gradientTransform="matrix(1 0 0 -1 0 -677.6545)">
					<stop  offset="0" style="stop-color:#EF7852"/>
					<stop  offset="1" style="stop-color:#EB5C2C"/>
				</linearGradient>
				<circle class="st64" cx="527.8" cy="112.8" r="13.3"/>
				
					<linearGradient id="SVGID_48_" gradientUnits="userSpaceOnUse" x1="516.7125" y1="-790.4564" x2="538.9253" y2="-790.4564" gradientTransform="matrix(1 0 0 -1 0 -677.6545)">
					<stop  offset="0" style="stop-color:#EB5C2C"/>
					<stop  offset="1" style="stop-color:#EF7852"/>
				</linearGradient>
				<path class="st65" d="M527.8,123.9c-6.1,0-11.1-5-11.1-11.1c0-6.1,5-11.1,11.1-11.1c6.1,0,11.1,5,11.1,11.1
					C538.9,118.9,533.9,123.9,527.8,123.9z"/>
				<g>
					<path class="st3" d="M526.6,106.2c-3,0-5.4,2.4-5.4,5.4c0,3,2.4,5.4,5.4,5.4c3,0,5.4-2.4,5.4-5.4
						C532.1,108.6,529.6,106.2,526.6,106.2z M526.6,115.2c-2,0-3.5-1.6-3.5-3.5c0-2,1.6-3.5,3.5-3.5c2,0,3.5,1.6,3.5,3.5
						C530.2,113.6,528.6,115.2,526.6,115.2z"/>
					<path class="st3" d="M534.2,117.8l-1.9-1.9c-0.4-0.4-1-0.4-1.3,0c-0.4,0.4-0.4,1,0,1.3l1.9,1.9c0.4,0.4,1,0.4,1.3,0
						S534.5,118.2,534.2,117.8z"/>
				</g>
			</g>
		</g>
		<text transform="matrix(1.11 0 0 1 418.1047 115.7244)" class="st3 st6 st20">Search</text>
	</g>
</g>
<g id="Botons_Like_e_Coments" class="st0">
	<g class="st1">
		<g>
			<circle class="st3" cx="520.8" cy="111.3" r="14.3"/>
			
				<linearGradient id="SVGID_49_" gradientUnits="userSpaceOnUse" x1="507.4294" y1="-788.9487" x2="534.0847" y2="-788.9487" gradientTransform="matrix(1 0 0 -1 0 -677.6545)">
				<stop  offset="0" style="stop-color:#EF7852"/>
				<stop  offset="1" style="stop-color:#EB5C2C"/>
			</linearGradient>
			<circle class="st66" cx="520.8" cy="111.3" r="13.3"/>
			
				<linearGradient id="SVGID_50_" gradientUnits="userSpaceOnUse" x1="509.6507" y1="-788.9487" x2="531.8635" y2="-788.9487" gradientTransform="matrix(1 0 0 -1 0 -677.6545)">
				<stop  offset="0" style="stop-color:#EB5C2C"/>
				<stop  offset="1" style="stop-color:#EF7852"/>
			</linearGradient>
			<path class="st67" d="M520.8,122.4c-6.1,0-11.1-5-11.1-11.1c0-6.1,5-11.1,11.1-11.1c6.1,0,11.1,5,11.1,11.1
				C531.9,117.4,526.9,122.4,520.8,122.4z"/>
			<path class="st3" d="M514.5,105.7v9.1h4l2.2,2.2l2.2-2.2h4v-9.1H514.5z M517.3,111.2c-0.5,0-1-0.4-1-1c0-0.5,0.4-1,1-1
				c0.5,0,1,0.4,1,1C518.2,110.7,517.8,111.2,517.3,111.2z M520.8,111.2c-0.5,0-1-0.4-1-1c0-0.5,0.4-1,1-1c0.5,0,1,0.4,1,1
				C521.7,110.7,521.3,111.2,520.8,111.2z M524.2,111.2c-0.5,0-1-0.4-1-1c0-0.5,0.4-1,1-1c0.5,0,1,0.4,1,1
				C525.2,110.7,524.8,111.2,524.2,111.2z"/>
		</g>
		<g>
			<circle class="st3" cx="430.8" cy="111.3" r="14.3"/>
			
				<linearGradient id="SVGID_51_" gradientUnits="userSpaceOnUse" x1="417.4788" y1="-788.9487" x2="444.1341" y2="-788.9487" gradientTransform="matrix(1 0 0 -1 0 -677.6545)">
				<stop  offset="0" style="stop-color:#EF7852"/>
				<stop  offset="1" style="stop-color:#EB5C2C"/>
			</linearGradient>
			<circle class="st68" cx="430.8" cy="111.3" r="13.3"/>
			
				<linearGradient id="SVGID_52_" gradientUnits="userSpaceOnUse" x1="419.7001" y1="-788.9487" x2="441.9128" y2="-788.9487" gradientTransform="matrix(1 0 0 -1 0 -677.6545)">
				<stop  offset="0" style="stop-color:#EB5C2C"/>
				<stop  offset="1" style="stop-color:#EF7852"/>
			</linearGradient>
			<path class="st69" d="M430.8,122.4c-6.1,0-11.1-5-11.1-11.1c0-6.1,5-11.1,11.1-11.1c6.1,0,11.1,5,11.1,11.1
				C441.9,117.4,436.9,122.4,430.8,122.4z"/>
			<polygon class="st3" points="429.4,112.5 425.5,112.5 425.5,109.9 429.4,109.9 429.4,105.7 432.3,105.7 432.3,109.9 436.1,109.9 
				436.1,112.5 432.3,112.5 432.3,116.9 429.4,116.9 			"/>
		</g>
		<g>
			<circle class="st3" cx="385.8" cy="111.3" r="14.3"/>
			
				<linearGradient id="SVGID_53_" gradientUnits="userSpaceOnUse" x1="372.5035" y1="-788.9487" x2="399.1588" y2="-788.9487" gradientTransform="matrix(1 0 0 -1 0 -677.6545)">
				<stop  offset="0" style="stop-color:#EF7852"/>
				<stop  offset="1" style="stop-color:#EB5C2C"/>
			</linearGradient>
			<circle class="st70" cx="385.8" cy="111.3" r="13.3"/>
			
				<linearGradient id="SVGID_54_" gradientUnits="userSpaceOnUse" x1="374.7248" y1="-788.9487" x2="396.9375" y2="-788.9487" gradientTransform="matrix(1 0 0 -1 0 -677.6545)">
				<stop  offset="0" style="stop-color:#EB5C2C"/>
				<stop  offset="1" style="stop-color:#EF7852"/>
			</linearGradient>
			<path class="st71" d="M385.8,122.4c-6.1,0-11.1-5-11.1-11.1c0-6.1,5-11.1,11.1-11.1c6.1,0,11.1,5,11.1,11.1
				C396.9,117.4,392,122.4,385.8,122.4z"/>
			<path class="st3" d="M383.8,106.1c0.1-0.1,0.2-0.3,0.3-0.2c0.1,0.1,0.1,0.2,0.1,0.4c0,0.9,0,1.9,0,2.8c0,0.3,0.1,0.4,0.4,0.5
				c2.6,0.2,5,1.1,7.1,2.7c0.4,0.4,0.8,0.8,1.1,1.3c0.1,0.2,0.2,0.4,0.1,0.5c-0.2,0.2-0.4,0.1-0.5,0c-0.9-0.4-1.7-0.8-2.6-0.9
				c-1.7-0.3-3.4-0.2-5.1-0.1c-0.3,0-0.3,0.2-0.3,0.4c-0.1,1.1-0.1,2.2-0.2,3.3c-0.2,0-0.3-0.2-0.3-0.2c-1.6-1.6-3.2-3.3-4.8-4.9
				c-0.3-0.3-0.3-0.4,0-0.7C380.5,109.3,382.2,107.7,383.8,106.1z"/>
		</g>
		<g>
			<circle class="st3" cx="475.8" cy="111.3" r="14.3"/>
			
				<linearGradient id="SVGID_55_" gradientUnits="userSpaceOnUse" x1="462.4541" y1="-788.9487" x2="489.1094" y2="-788.9487" gradientTransform="matrix(1 0 0 -1 0 -677.6545)">
				<stop  offset="0" style="stop-color:#EF7852"/>
				<stop  offset="1" style="stop-color:#EB5C2C"/>
			</linearGradient>
			<circle class="st72" cx="475.8" cy="111.3" r="13.3"/>
			
				<linearGradient id="SVGID_56_" gradientUnits="userSpaceOnUse" x1="464.6754" y1="-788.9487" x2="486.8882" y2="-788.9487" gradientTransform="matrix(1 0 0 -1 0 -677.6545)">
				<stop  offset="0" style="stop-color:#EB5C2C"/>
				<stop  offset="1" style="stop-color:#EF7852"/>
			</linearGradient>
			<path class="st73" d="M475.8,122.4c-6.1,0-11.1-5-11.1-11.1c0-6.1,5-11.1,11.1-11.1c6.1,0,11.1,5,11.1,11.1
				C486.9,117.4,481.9,122.4,475.8,122.4z"/>
			<path class="st3" d="M477.8,104.9c-0.6-0.7-1.6-0.3-1.9,0.5c-0.2,0.6-0.5,1.4-0.8,1.9c-0.8,1.7-1.3,2.6-2.6,3.8
				c-0.2,0.2-0.4,0.3-0.7,0.4c-0.9,0.3-1.7,1.3-1.5,2.3l0.3,1.4c0.1,0.7,0.7,1.3,1.4,1.5l4.4,1.2c2,0.5,4-0.7,4.4-2.8l0.5-2.9
				c0.3-1.4-0.8-2.8-2.3-2.8h-0.7l0,0c0.1-0.3,0.1-0.8,0.2-1.2c0-0.5,0.1-1,0-1.5c0-0.5-0.1-1-0.4-1.3
				C478,105.2,477.9,105.1,477.8,104.9z"/>
		</g>
	</g>
</g>
<g id="Img_Html" class="st0">
	<g class="st1">
		
			<image style="overflow:visible;" width="1193" height="624" xlink:href="833EF2EF.jpg"  transform="matrix(0.1296 0 0 0.1296 365.7736 139.0465)">
		</image>
		
			<image style="overflow:visible;" width="1193" height="624" xlink:href="833EF2ED.jpg"  transform="matrix(0.1296 0 0 0.1296 400.8324 139.0465)">
		</image>
		
			<image style="overflow:visible;" width="1193" height="624" xlink:href="833EF2F3.jpg"  transform="matrix(0.1296 0 0 0.1296 380.6225 139.0465)">
		</image>
	</g>
</g>
</svg>
