<?xml version="1.0" encoding="utf-8"?>
<!-- Generator: Adobe Illustrator 24.2.1, SVG Export Plug-In . SVG Version: 6.00 Build 0)  -->
<svg version="1.1" xmlns="http://www.w3.org/2000/svg" xmlns:xlink="http://www.w3.org/1999/xlink" x="0px" y="0px"
	 viewBox="0 0 184.5 29.4" style="enable-background:new 0 0 184.5 29.4;" xml:space="preserve">
<style type="text/css">
	.st0{display:none;}
	.st1{display:inline;}
	.st2{fill:#F0825D;}
	.st3{display:inline;fill:#FFFFFF;}
	.st4{fill:url(#SVGID_1_);}
	.st5{fill:none;stroke:#FFFFFF;stroke-miterlimit:10;}
	.st6{fill:url(#SVGID_2_);}
	.st7{fill:#FFFFFF;}
	.st8{font-family:'Roboto-Bold';}
	.st9{font-size:15px;}
	.st10{fill:url(#SVGID_3_);}
	.st11{fill:url(#SVGID_4_);}
	.st12{fill:url(#SVGID_5_);}
	.st13{fill:url(#SVGID_6_);}
	.st14{fill:url(#SVGID_7_);}
	.st15{fill:url(#SVGID_8_);}
	.st16{fill:url(#SVGID_9_);}
	.st17{fill:url(#SVGID_10_);}
	.st18{fill:url(#SVGID_11_);}
	.st19{fill:url(#SVGID_12_);}
	.st20{fill:url(#SVGID_13_);}
	.st21{fill:url(#SVGID_14_);}
	.st22{fill:url(#SVGID_15_);}
	.st23{fill:url(#SVGID_16_);}
	.st24{fill:url(#SVGID_17_);}
	.st25{fill:url(#SVGID_18_);}
	.st26{fill:url(#SVGID_19_);}
	.st27{fill:url(#SVGID_20_);}
	.st28{fill:url(#SVGID_21_);}
	.st29{fill:url(#SVGID_22_);}
	.st30{fill:url(#SVGID_23_);}
	.st31{fill:url(#SVGID_24_);}
	.st32{fill-rule:evenodd;clip-rule:evenodd;fill:#FFFFFF;}
	.st33{fill:url(#SVGID_25_);}
	.st34{fill:url(#SVGID_26_);}
	.st35{fill:url(#SVGID_27_);}
	.st36{fill:url(#SVGID_28_);}
	.st37{fill:url(#SVGID_29_);}
	.st38{fill:url(#SVGID_30_);}
	.st39{fill:url(#SVGID_31_);}
	.st40{fill:url(#SVGID_32_);}
	.st41{fill:url(#SVGID_33_);}
	.st42{fill:url(#SVGID_34_);}
	.st43{fill:url(#SVGID_35_);}
	.st44{fill:url(#SVGID_36_);}
	.st45{fill:url(#SVGID_37_);}
	.st46{fill:url(#SVGID_38_);}
	.st47{fill:url(#SVGID_39_);}
	.st48{fill:url(#SVGID_40_);}
	.st49{fill:url(#SVGID_41_);}
	.st50{fill:url(#SVGID_42_);}
	.st51{fill:url(#SVGID_43_);}
	.st52{fill:url(#SVGID_44_);}
	.st53{fill:url(#SVGID_45_);}
	.st54{fill:url(#SVGID_46_);}
	.st55{fill:url(#SVGID_47_);}
	.st56{fill:url(#SVGID_48_);}
	.st57{fill:url(#SVGID_49_);}
	.st58{fill:url(#SVGID_50_);}
	.st59{fill:url(#SVGID_51_);}
	.st60{fill:url(#SVGID_52_);}
	.st61{fill:url(#SVGID_53_);}
	.st62{fill:url(#SVGID_54_);}
	.st63{fill:url(#SVGID_55_);}
	.st64{fill:url(#SVGID_56_);}
</style>
<g id="Logo" class="st0">
	<g class="st1">
		<text transform="matrix(1 0 0 1 -1039.4257 -715.1694)" class="st7" style="font-family:'Monoid-Bold'; font-size:24.5422px;">The Space of</text>
		<text transform="matrix(1 0 0 1 -1049.3475 -654.562)" class="st7" style="font-family:'Gamer'; font-size:107.939px;">Developers</text>
		<g>
			<g>
				<path class="st2" d="M-676.2-603.3c-16.8,0-32.3-6-44.4-16.1l-6.3,9.7c13.9,11.2,31.5,17.9,50.6,17.9c19.2,0,36.8-6.7,50.6-17.9
					l-8-8.3C-645.3-608.8-660.2-603.3-676.2-603.3z"/>
				<path class="st2" d="M-611.5-647.7l10.9,3.7c0.9-2.3,1.7-4.7,2.3-7.2l-10.8-4C-609.7-652.6-610.5-650.1-611.5-647.7z"/>
				<path class="st2" d="M-676.2-753.6c-23.4,0-44.6,10-59.4,26l6.7,9.7c12.7-14.8,31.6-24.3,52.7-24.3c38.3,0,69.4,31.2,69.4,69.4
					c0,4.6-0.5,9.2-1.3,13.5l11.2,2.4c1-5.2,1.6-10.5,1.6-16C-595.3-717.3-631.6-753.6-676.2-753.6z"/>
			</g>
		</g>
		<g>
			<g>
				<path class="st2" d="M-676.9-548.3c-50.7,0-94.8-28.2-116.1-69.2c-3.2,1.2-6.9,2.8-10.7,4.3c23.1,45.2,71.2,76.4,126.8,76.4
					c14.6,0,28.6-2.1,41.9-6.1c-1.2-3.7-2.4-7.8-3.4-11C-650.6-550.3-663.5-548.3-676.9-548.3z"/>
				<path class="st2" d="M-614.5-796.1c-0.6,3.4-1.6,8-2.4,11.6c41.5,20.9,69.9,62.8,69.9,111c0,50.7-31.5,94.5-76.6,114.1l4.5,10.5
					c49.2-21.4,83.6-69.2,83.6-124.7C-535.6-727.2-567.8-773.8-614.5-796.1z"/>
				<path class="st2" d="M-676.9-798.7c7,0,13.9,0.6,20.6,1.6l-4.8-12.2c-5.2-0.6-10.4-0.9-15.7-0.9c-56.2,0-104.9,31.9-127.6,78
					l8.2,9.6C-776.5-767.3-730.5-798.7-676.9-798.7z"/>
				<path class="st2" d="M-642.6-794.2c0.4-3.6,0.9-8.1,1.3-11.5c-4.5-1.1-9.1-2.1-13.8-2.8l5.5,12.7
					C-647.2-795.4-644.9-794.9-642.6-794.2z"/>
			</g>
		</g>
		<g>
			<g>
				<path class="st2" d="M-819.6-608.7c-2.4,1.9-5.2,4.1-7.9,6.2c1.8,3.5,3.7,7,5.7,10.4c2.8-2.3,5.8-4.6,7.7-6.3
					C-816.1-601.8-817.9-605.2-819.6-608.7z"/>
				<path class="st2" d="M-677.9-520.8c-54.5,0-102.6-27.4-130.7-68.9l-7,7.2c30,43.2,80.6,71.6,137.7,71.6
					c37.6,0,72.2-12.2,100.1-32.9c-1.9-2.7-4-5.5-5.8-8C-609.8-532.4-642.5-520.8-677.9-520.8z"/>
				<path class="st2" d="M-677.1-837.8v9.8c86.1,0.4,156,69.1,156,153.6c0,18.2-3.3,35.7-9.2,51.9l9.1,3.7
					c6.4-17.4,9.9-36.1,9.9-55.6C-511.2-764.2-585.6-837.4-677.1-837.8z"/>
				<path class="st2" d="M-795.5-775.8l-6.5-7.4c-9.1,10-17,21-23.4,33l7.6,6.7C-811.9-755.2-804.3-766-795.5-775.8z"/>
			</g>
		</g>
		<g>
			<g>
				<path class="st2" d="M-530.8-708.1c-15.7-64.9-75.6-113.4-147-113.4c-59.1,0-110.3,33.2-135.1,81.5l5.3,4.1
					c23.5-46.7,72.8-79,129.8-79c68.4,0,125.8,46.5,140.7,108.8C-535.2-706.8-532.8-707.5-530.8-708.1z"/>
				<path class="st2" d="M-528.7-697.1c-2.2,0.5-4.5,1-6.4,1.4c1.1,6.9,1.7,14,1.7,21.3c0,16.2-2.8,31.7-8,46.1l5.9,3.1
					c5.6-15.4,8.7-32,8.7-49.2C-526.9-682.2-527.5-689.7-528.7-697.1z"/>
				<path class="st2" d="M-807.2-612.2l-6.4,1.8c10.6,21.2,26.2,39.5,45.3,53.5l4.6-4.8C-782.1-574.9-797-592.2-807.2-612.2z"/>
			</g>
		</g>
		<g>
			<g>
				<path class="st2" d="M-566.4-680.3c2.1,0.3,4.5,0.7,6.7,1c-3.3-60.9-55.1-109.5-118.2-109.5c-37.6,0-71.2,17.3-92.9,44.1
					l7.3,1.5c20.5-23.8,51.3-39,85.6-39C-618.7-782.2-570.2-737.1-566.4-680.3z"/>
				<path class="st2" d="M-566.2-670.1c-1.6,58.8-51.1,106.1-111.7,106.1c-20.1,0-39-5.2-55.3-14.3l-1.5,6.7
					c16.9,9,36.2,14.2,56.7,14.2c64,0,116.2-49.8,118.3-111.8L-566.2-670.1z"/>
			</g>
		</g>
		<g>
			<g>
				<path class="st2" d="M-648.2-763.8l3.2-4.1c-10.4-3.6-21.5-5.6-33.1-5.6c-29.3,0-55.6,12.6-74,32.6l5.4,1.5
					c17.4-18,41.7-29.2,68.6-29.2C-667.7-768.6-657.6-766.9-648.2-763.8z"/>
				<path class="st2" d="M-613.1-749.5c-0.9,1.2-1.9,2.6-2.9,3.9c18.1,15.5,30.3,37.7,32.8,62.7c1.7,0.4,3.5,0.9,5,1.3
					C-580.5-708.7-593.6-732.8-613.1-749.5z"/>
				<path class="st2" d="M-678.1-577.9c-18.7,0-36.2-5.4-50.9-14.8l-1.3,5c15.2,9.3,33.1,14.7,52.2,14.7c35.7,0,67-18.8,84.8-46.9
					c-1.3-0.7-2.9-1.6-4.3-2.3C-614.6-595.6-644.3-577.9-678.1-577.9z"/>
			</g>
		</g>
		<g>
			<g>
				<path class="st2" d="M-678.1-763.9c-14.9,0-28.9,3.6-41.3,10c0.9,1.2,2.1,2.8,3,4c11.6-5.8,24.6-9,38.3-9
					c43.8,0,80,32.9,85.3,75.2l4.9-0.4C-593.4-729.1-631.7-763.9-678.1-763.9z"/>
				<path class="st2" d="M-678.1-587c-18.5,0-35.6-5.9-49.6-15.8l-0.9,5.4c14.5,9.7,31.8,15.4,50.5,15.4c22.7,0,43.5-8.4,59.5-22.2
					c-1.5-1.1-2.9-2.2-4-3C-637.6-594.7-657-587-678.1-587z"/>
			</g>
		</g>
		<g>
			<g>
				<path class="st2" d="M-677.8-612.9c-11.3,0-21.9-3-30.9-8.3c-0.7,1.5-1.4,3-2,4.5c9.7,5.5,21,8.7,33,8.7
					c15.3,0,29.3-5.1,40.4-13.7c-1-1.1-2.1-2.5-3.2-3.7C-650.8-617.6-663.7-612.9-677.8-612.9z"/>
				<path class="st2" d="M-677.8-734.9c-17.7,0-33.8,6.9-45.6,18.1l4.2,2.8c10.8-9.9,25.4-15.9,41.3-15.9
					c33.3,0,60.4,26.3,60.4,58.6c0,10.9-3.1,21.1-8.4,29.8l3.8,3.2c6-9.6,9.5-20.9,9.5-33C-612.5-706.4-641.8-734.9-677.8-734.9z"/>
			</g>
		</g>
	</g>
</g>
<g id="Loading_Bar" class="st0">
	<path class="st3" d="M-524.6-422.5h-498.2c-12.9,0-23.4,10.5-23.4,23.4v0c0,12.9,10.5,23.4,23.4,23.4h498.2
		c12.9,0,23.4-10.5,23.4-23.4v0C-501.3-412-511.7-422.5-524.6-422.5z M-504.8-399.1L-504.8-399.1c0,10.9-8.9,19.8-19.8,19.8
		l-227.3,0v-39.6h227.3C-513.7-418.9-504.8-410.1-504.8-399.1z"/>
</g>
<g id="input" class="st0">
	<g class="st1">
		<g>
			<linearGradient id="SVGID_1_" gradientUnits="userSpaceOnUse" x1="-686.1146" y1="-304.8104" x2="-505.4149" y2="-304.8104">
				<stop  offset="0" style="stop-color:#0D0E0E"/>
				<stop  offset="1" style="stop-color:#222222"/>
			</linearGradient>
			<path class="st4" d="M-522.7-322.1h-146.2c-9.5,0-17.2,7.7-17.2,17.2v0c0,9.5,7.7,17.2,17.2,17.2h146.2c9.5,0,17.2-7.7,17.2-17.2
				v0C-505.4-314.3-513.1-322.1-522.7-322.1z"/>
			<path class="st5" d="M-668.9-290.6h146.2c7.9,0,14.2-6.4,14.2-14.2v0c0-7.9-6.4-14.2-14.2-14.2h-146.2c-7.9,0-14.2,6.4-14.2,14.2
				v0C-683.1-296.9-676.7-290.6-668.9-290.6z"/>
		</g>
		<text transform="matrix(1 0 0 1 -611.4619 -302.7645)" class="st7" style="font-family:'Roboto-Thin'; font-size:7px;">Username</text>
	</g>
</g>
<g id="Boton">
	<g>
		<linearGradient id="SVGID_2_" gradientUnits="userSpaceOnUse" x1="1.9699" y1="14.7059" x2="182.5006" y2="14.7059">
			<stop  offset="0" style="stop-color:#F9B654"/>
			<stop  offset="1" style="stop-color:#EF7C2C"/>
		</linearGradient>
		<path class="st6" d="M169.7,27.5h-155C7.7,27.5,2,21.8,2,14.7v0c0-7,5.7-12.8,12.8-12.8l155,0c7,0,12.8,5.7,12.8,12.8v0
			C182.5,21.8,176.8,27.5,169.7,27.5z"/>
		<g>
			<text transform="matrix(1 0 0 1 71.3603 20.331)" class="st7 st8 st9">Login</text>
		</g>
	</g>
</g>
<g id="Login_Google" class="st0">
	<g class="st1">
		<linearGradient id="SVGID_3_" gradientUnits="userSpaceOnUse" x1="61.2961" y1="40.9347" x2="96.291" y2="40.9347">
			<stop  offset="0" style="stop-color:#F9B654"/>
			<stop  offset="1" style="stop-color:#EF7C2C"/>
		</linearGradient>
		<path class="st10" d="M90,23.2H67.6c-3.5,0-6.3,2.8-6.3,6.3v22.8c0,3.5,2.8,6.3,6.3,6.3H90c3.5,0,6.3-2.8,6.3-6.3V29.5
			C96.3,26.1,93.5,23.2,90,23.2z"/>
		<linearGradient id="SVGID_4_" gradientUnits="userSpaceOnUse" x1="63.5883" y1="40.9347" x2="93.9988" y2="40.9347">
			<stop  offset="0" style="stop-color:#EF7C2C"/>
			<stop  offset="1" style="stop-color:#F9B654"/>
		</linearGradient>
		<path class="st11" d="M90,25.5H67.6c-2.2,0-4,1.8-4,4v22.8c0,2.2,1.8,4,4,4H90c2.2,0,4-1.8,4-4V29.5C94,27.3,92.2,25.5,90,25.5z"
			/>
		<path class="st5" d="M90,54.8c1.4,0,2.5-1.1,2.5-2.5V29.5c0-1.4-1.1-2.5-2.5-2.5H67.6c-1.4,0-2.5,1.1-2.5,2.5v22.8
			c0,1.4,1.1,2.5,2.5,2.5H90z"/>
		<g>
			<path class="st7" d="M89.4,40.2c0,0.3,0,0.7,0,1l0,0.3c0,0.3-0.1,0.7-0.1,1l0,0.2c-0.1,0.4-0.1,0.8-0.2,1.1L89,44.1
				c-0.1,0.3-0.2,0.5-0.3,0.8l-0.2,0.4c-0.1,0.3-0.3,0.5-0.4,0.8L88,46.3L88,46.3c-0.5,0.8-1,1.5-1.7,2.1l-0.1,0.1l0,0
				c-0.3,0.3-0.6,0.5-0.9,0.8l0,0c-0.3,0.2-0.7,0.5-1.1,0.7c-0.4,0.2-0.9,0.4-1.3,0.6l-0.1,0l0,0c-1.3,0.5-3.1,0.7-4.4,0.7l3.7-6.5
				c1.2-1,2-2.5,2-4.2c0-1.6-0.7-3-1.8-3.9h6.3c0.3,0.9,0.7,2.1,0.7,3L89.4,40.2z"/>
			<path class="st7" d="M69.8,35.3l3.7,6.4c0.4,2.6,2.6,4.6,5.3,4.6c0.4,0,0.7,0,1.1-0.1l-3,5.3c-0.8-0.1-1.5-0.4-2.2-0.7l-0.3-0.1
				l-0.1,0c-0.2-0.1-0.4-0.2-0.6-0.3l-0.3-0.1l-0.1-0.1c-0.2-0.1-0.4-0.2-0.6-0.4l-0.3-0.2c-0.2-0.1-0.3-0.3-0.5-0.4l-0.3-0.3
				c-0.1-0.1-0.3-0.2-0.4-0.4c-0.1-0.1-0.3-0.3-0.4-0.4l-0.3-0.3c-0.1-0.2-0.3-0.3-0.4-0.5L70,47c-0.1-0.2-0.3-0.4-0.4-0.6l-0.1-0.1
				L69.4,46c-0.1-0.2-0.2-0.4-0.3-0.6c-0.1-0.2-0.1-0.3-0.2-0.5c-0.1-0.2-0.1-0.3-0.2-0.5c-0.1-0.2-0.1-0.4-0.2-0.6l-0.1-0.4
				c0-0.2-0.1-0.4-0.1-0.6l-0.1-0.4c0-0.2-0.1-0.4-0.1-0.6l0-0.5c0-0.2,0-0.4,0-0.5c0-0.2,0-0.4,0-0.5l0-0.5c0-0.2,0-0.4,0.1-0.6
				l0.1-0.4c0-0.2,0.1-0.4,0.1-0.6l0.1-0.4c0.1-0.2,0.1-0.4,0.2-0.6c0.1-0.2,0.1-0.3,0.2-0.5l0.2-0.5c0.1-0.2,0.2-0.4,0.3-0.6
				L69.8,35.3L69.8,35.3z"/>
			<path class="st7" d="M88,35.6h-9.2c-2.4,0-4.4,1.5-5.1,3.7l-3-5.3l0.1-0.1c0.1-0.2,0.3-0.3,0.5-0.5l0.3-0.3
				c0.1-0.1,0.3-0.3,0.4-0.4l0.4-0.3c0.1-0.1,0.3-0.2,0.4-0.3c0.1-0.1,0.3-0.2,0.4-0.3l0.3-0.2l0.2-0.1c0.2-0.1,0.3-0.2,0.5-0.2
				c0.2-0.1,0.3-0.2,0.5-0.2L75,31c0.2-0.1,0.4-0.2,0.6-0.2l0.2,0c0.8-0.2,1.6-0.4,2.4-0.4l0.4,0l0.5,0c0.2,0,0.4,0,0.6,0l0.4,0
				c0.2,0,0.4,0,0.7,0.1l0.3,0.1c0.2,0,0.4,0.1,0.7,0.1l0.3,0.1c0.2,0.1,0.4,0.1,0.6,0.2l0.4,0.2c0.2,0.1,0.3,0.1,0.5,0.2
				c0.2,0.1,0.3,0.2,0.5,0.3l0.3,0.2l0.1,0.1c0.4,0.2,0.7,0.5,1.1,0.7l0.1,0.1c0.3,0.2,0.6,0.5,0.9,0.8l0.2,0.2
				c0.3,0.3,0.5,0.6,0.7,0.9l0.1,0.1C87.5,34.8,87.8,35.2,88,35.6z"/>
			<path class="st7" d="M78.8,36.9c2.2,0,4,1.8,4,4c0,2.2-1.8,4-4,4c-2.2,0-4-1.8-4-4S76.6,36.9,78.8,36.9z"/>
		</g>
	</g>
</g>
<g id="Login_Apple" class="st0">
	<g class="st1">
		<linearGradient id="SVGID_5_" gradientUnits="userSpaceOnUse" x1="61.032" y1="41.4118" x2="96.0269" y2="41.4118">
			<stop  offset="0" style="stop-color:#F9B654"/>
			<stop  offset="1" style="stop-color:#EF7C2C"/>
		</linearGradient>
		<path class="st12" d="M89.7,23.7H67.3c-3.5,0-6.3,2.8-6.3,6.3v22.8c0,3.5,2.8,6.3,6.3,6.3h22.4c3.5,0,6.3-2.8,6.3-6.3V30
			C96,26.5,93.2,23.7,89.7,23.7z"/>
		<linearGradient id="SVGID_6_" gradientUnits="userSpaceOnUse" x1="63.3242" y1="41.4118" x2="93.7346" y2="41.4118">
			<stop  offset="0" style="stop-color:#EF7C2C"/>
			<stop  offset="1" style="stop-color:#F9B654"/>
		</linearGradient>
		<path class="st13" d="M89.7,26H67.3c-2.2,0-4,1.8-4,4v22.8c0,2.2,1.8,4,4,4h22.4c2.2,0,4-1.8,4-4V30C93.7,27.8,91.9,26,89.7,26z"
			/>
		<path class="st5" d="M89.7,55.3c1.4,0,2.5-1.1,2.5-2.5V30c0-1.4-1.1-2.5-2.5-2.5H67.3c-1.4,0-2.5,1.1-2.5,2.5v22.8
			c0,1.4,1.1,2.5,2.5,2.5H89.7z"/>
		<g>
			<path class="st7" d="M83.2,30.3C83.2,30.3,83.2,30.3,83.2,30.3c0,1.4-0.1,2.4-1.1,3.4c-0.7,0.7-2.1,1.4-3.1,1.4
				c-0.1,0-0.1,0-0.1,0C78.9,32.9,80.7,30.3,83.2,30.3z"/>
			<path class="st7" d="M85.7,44.7c0.6,0.9,2.4,1.9,2.2,2.5c-0.1,0.5-1.6,2.7-2,3.2c-3.2,4-4.4,0.8-7.1,0.9
				c-1.4,0.1-1.9,1.2-3.4,1.2c-0.2,0-0.4,0-0.6,0c-1.1-0.2-2.3-1.3-3-2.1c-1.4-1.7-2.6-5.3-2.8-7.5c-0.2-2.7,1-5.5,3.4-6.9
				c2.8-1.6,4.8,0.4,6.6,0.8c0.5,0.1,0.9,0.1,1.4-0.1c1.5-0.8,2-1.4,4-0.9c1.1,0.3,2.3,1.2,2.9,2.1C85,39.7,83.8,42,85.7,44.7z"/>
		</g>
	</g>
</g>
<g id="Boton_Studing_add" class="st0">
	<g class="st1">
		<g>
			<path class="st7" d="M185.9,25.2H34.4c-7.1,0-12.8,6.4-12.8,14.3v0c0,7.9,5.7,14.3,12.8,14.3h151.5c7.1,0,12.8-6.4,12.8-14.3v0
				C198.7,31.6,193,25.2,185.9,25.2z"/>
			<linearGradient id="SVGID_7_" gradientUnits="userSpaceOnUse" x1="27.7381" y1="39.9335" x2="281.7304" y2="38.779">
				<stop  offset="0" style="stop-color:#222222"/>
				<stop  offset="0.261" style="stop-color:#202021"/>
				<stop  offset="0.4177" style="stop-color:#1B1B1C"/>
				<stop  offset="0.5465" style="stop-color:#121213"/>
				<stop  offset="0.5899" style="stop-color:#0D0E0E"/>
			</linearGradient>
			<path class="st14" d="M185.8,26.1H34.5c-6.6,0-12,6-12,13.5v0c0,7.4,5.4,13.5,12,13.5h151.3c6.6,0,12-6,12-13.5v0
				C197.8,32.1,192.5,26.1,185.8,26.1z"/>
			<linearGradient id="SVGID_8_" gradientUnits="userSpaceOnUse" x1="24.3857" y1="39.5591" x2="218.6808" y2="39.5591">
				<stop  offset="0" style="stop-color:#0D0E0E"/>
				<stop  offset="5.068219e-02" style="stop-color:#111212"/>
				<stop  offset="0.2146" style="stop-color:#1B1B1C"/>
				<stop  offset="0.4115" style="stop-color:#202020"/>
				<stop  offset="0.727" style="stop-color:#222222"/>
			</linearGradient>
			<path class="st15" d="M196,39.6c0-6.4-4.6-11.6-10.2-11.6H34.6c-5.6,0-10.2,5.2-10.2,11.6c0,6.4,4.6,11.6,10.2,11.6h151.1
				C191.4,51.1,196,45.9,196,39.6z"/>
		</g>
		<g>
			<circle class="st7" cx="185.3" cy="39.6" r="14.3"/>
			
				<linearGradient id="SVGID_9_" gradientUnits="userSpaceOnUse" x1="172.0016" y1="-750.1545" x2="198.6569" y2="-750.1545" gradientTransform="matrix(1 0 0 -1 0 -710.5957)">
				<stop  offset="0" style="stop-color:#EF7852"/>
				<stop  offset="1" style="stop-color:#EB5C2C"/>
			</linearGradient>
			<circle class="st16" cx="185.3" cy="39.6" r="13.3"/>
			
				<linearGradient id="SVGID_10_" gradientUnits="userSpaceOnUse" x1="174.2229" y1="-750.1545" x2="196.4356" y2="-750.1545" gradientTransform="matrix(1 0 0 -1 0 -710.5957)">
				<stop  offset="0" style="stop-color:#EB5C2C"/>
				<stop  offset="1" style="stop-color:#EF7852"/>
			</linearGradient>
			<path class="st17" d="M185.3,50.7c-6.1,0-11.1-5-11.1-11.1c0-6.1,5-11.1,11.1-11.1c6.1,0,11.1,5,11.1,11.1
				C196.4,45.7,191.5,50.7,185.3,50.7z"/>
			<polygon class="st7" points="183.9,40.8 180.1,40.8 180.1,38.1 183.9,38.1 183.9,34 186.8,34 186.8,38.1 190.6,38.1 190.6,40.8 
				186.8,40.8 186.8,45.2 183.9,45.2 			"/>
		</g>
		<text transform="matrix(1.11 0 0 1 38.2776 42.4813)"><tspan x="0" y="0" class="st7" style="font-family:'Roboto-Light'; font-size:10px;">Studing</tspan><tspan x="33.8" y="0" class="st7" style="font-family:'Roboto-Light'; font-size:10px;">	</tspan></text>
	</g>
</g>
<g id="Menu_Rodape" class="st0">
	<g class="st1">
		<g>
			<path class="st7" d="M186.6,25.2H35.1c-7.1,0-12.8,6.4-12.8,14.3v0c0,7.9,5.7,14.3,12.8,14.3h151.5c7.1,0,12.8-6.4,12.8-14.3v0
				C199.4,31.6,193.7,25.2,186.6,25.2z"/>
			<linearGradient id="SVGID_11_" gradientUnits="userSpaceOnUse" x1="28.4311" y1="39.9335" x2="282.4234" y2="38.779">
				<stop  offset="0" style="stop-color:#222222"/>
				<stop  offset="0.261" style="stop-color:#202021"/>
				<stop  offset="0.4177" style="stop-color:#1B1B1C"/>
				<stop  offset="0.5465" style="stop-color:#121213"/>
				<stop  offset="0.5899" style="stop-color:#0D0E0E"/>
			</linearGradient>
			<path class="st18" d="M186.5,26.1H35.2c-6.6,0-12,6-12,13.5v0c0,7.4,5.4,13.5,12,13.5h151.3c6.6,0,12-6,12-13.5v0
				C198.5,32.1,193.1,26.1,186.5,26.1z"/>
			<linearGradient id="SVGID_12_" gradientUnits="userSpaceOnUse" x1="25.0787" y1="39.5591" x2="219.3738" y2="39.5591">
				<stop  offset="0" style="stop-color:#0D0E0E"/>
				<stop  offset="5.068219e-02" style="stop-color:#111212"/>
				<stop  offset="0.2146" style="stop-color:#1B1B1C"/>
				<stop  offset="0.4115" style="stop-color:#202020"/>
				<stop  offset="0.727" style="stop-color:#222222"/>
			</linearGradient>
			<path class="st19" d="M196.7,39.6c0-6.4-4.6-11.6-10.2-11.6H35.3c-5.6,0-10.2,5.2-10.2,11.6c0,6.4,4.6,11.6,10.2,11.6h151.1
				C192.1,51.1,196.7,45.9,196.7,39.6z"/>
		</g>
		<g>
			<circle class="st7" cx="36.2" cy="39.6" r="14.3"/>
			
				<linearGradient id="SVGID_13_" gradientUnits="userSpaceOnUse" x1="22.8907" y1="-750.1545" x2="49.5459" y2="-750.1545" gradientTransform="matrix(1 0 0 -1 0 -710.5957)">
				<stop  offset="0" style="stop-color:#EF7852"/>
				<stop  offset="1" style="stop-color:#EB5C2C"/>
			</linearGradient>
			<circle class="st20" cx="36.2" cy="39.6" r="13.3"/>
			
				<linearGradient id="SVGID_14_" gradientUnits="userSpaceOnUse" x1="25.1119" y1="-750.1545" x2="47.3247" y2="-750.1545" gradientTransform="matrix(1 0 0 -1 0 -710.5957)">
				<stop  offset="0" style="stop-color:#EB5C2C"/>
				<stop  offset="1" style="stop-color:#EF7852"/>
			</linearGradient>
			<path class="st21" d="M36.2,50.7c-6.1,0-11.1-5-11.1-11.1c0-6.1,5-11.1,11.1-11.1c6.1,0,11.1,5,11.1,11.1
				C47.3,45.7,42.3,50.7,36.2,50.7z"/>
			<g>
				<path class="st7" d="M35,32.9c-3,0-5.4,2.4-5.4,5.4c0,3,2.4,5.4,5.4,5.4c3,0,5.4-2.4,5.4-5.4C40.5,35.4,38,32.9,35,32.9z
					 M35,41.9c-2,0-3.5-1.6-3.5-3.5c0-2,1.6-3.5,3.5-3.5c2,0,3.5,1.6,3.5,3.5C38.6,40.3,37,41.9,35,41.9z"/>
				<path class="st7" d="M42.6,44.6l-1.9-1.9c-0.4-0.4-1-0.4-1.3,0c-0.4,0.4-0.4,1,0,1.3l1.9,1.9c0.4,0.4,1,0.4,1.3,0
					S42.9,44.9,42.6,44.6z"/>
			</g>
		</g>
		<g>
			<circle class="st7" cx="184.9" cy="39.6" r="14.3"/>
			
				<linearGradient id="SVGID_15_" gradientUnits="userSpaceOnUse" x1="171.5587" y1="-750.1545" x2="198.214" y2="-750.1545" gradientTransform="matrix(1 0 0 -1 0 -710.5957)">
				<stop  offset="0" style="stop-color:#EF7852"/>
				<stop  offset="1" style="stop-color:#EB5C2C"/>
			</linearGradient>
			<circle class="st22" cx="184.9" cy="39.6" r="13.3"/>
			
				<linearGradient id="SVGID_16_" gradientUnits="userSpaceOnUse" x1="173.78" y1="-750.1545" x2="195.9927" y2="-750.1545" gradientTransform="matrix(1 0 0 -1 0 -710.5957)">
				<stop  offset="0" style="stop-color:#EB5C2C"/>
				<stop  offset="1" style="stop-color:#EF7852"/>
			</linearGradient>
			<path class="st23" d="M184.9,50.7c-6.1,0-11.1-5-11.1-11.1c0-6.1,5-11.1,11.1-11.1c6.1,0,11.1,5,11.1,11.1
				C196,45.7,191,50.7,184.9,50.7z"/>
			<path class="st7" d="M189.9,40.2c0-0.2,0-0.4,0-0.7s0-0.4,0-0.7l1.4-1.1c0.1-0.1,0.2-0.3,0.1-0.4l-1.4-2.3
				c-0.1-0.1-0.3-0.2-0.4-0.1l-1.7,0.7c-0.4-0.3-0.7-0.5-1.1-0.7l-0.3-1.8c0-0.2-0.2-0.3-0.3-0.3h-2.7c-0.2,0-0.3,0.1-0.3,0.3
				l-0.3,1.8c-0.4,0.2-0.8,0.4-1.1,0.7l-1.7-0.7c-0.2-0.1-0.3,0-0.4,0.1l-1.4,2.3c-0.1,0.1,0,0.3,0.1,0.4l1.4,1.1c0,0.2,0,0.4,0,0.7
				c0,0.2,0,0.4,0,0.7l-1.4,1.1c-0.1,0.1-0.2,0.3-0.1,0.4l1.4,2.3c0.1,0.1,0.3,0.2,0.4,0.1l1.7-0.7c0.4,0.3,0.7,0.5,1.1,0.7l0.3,1.8
				c0,0.2,0.2,0.3,0.3,0.3h2.7c0.2,0,0.3-0.1,0.3-0.3l0.3-1.8c0.4-0.2,0.8-0.4,1.1-0.7l1.7,0.7c0.2,0.1,0.3,0,0.4-0.1l1.4-2.3
				c0.1-0.1,0-0.3-0.1-0.4L189.9,40.2z M184.9,41.9c-1.3,0-2.4-1.1-2.4-2.4c0-1.3,1.1-2.4,2.4-2.4c1.3,0,2.4,1.1,2.4,2.4
				C187.3,40.9,186.2,41.9,184.9,41.9z"/>
		</g>
		<g>
			<circle class="st7" cx="110.6" cy="39.6" r="14.3"/>
			
				<linearGradient id="SVGID_17_" gradientUnits="userSpaceOnUse" x1="97.2247" y1="-750.1545" x2="123.8799" y2="-750.1545" gradientTransform="matrix(1 0 0 -1 0 -710.5957)">
				<stop  offset="0" style="stop-color:#EF7852"/>
				<stop  offset="1" style="stop-color:#EB5C2C"/>
			</linearGradient>
			<circle class="st24" cx="110.6" cy="39.6" r="13.3"/>
			
				<linearGradient id="SVGID_18_" gradientUnits="userSpaceOnUse" x1="99.4459" y1="-750.1545" x2="121.6587" y2="-750.1545" gradientTransform="matrix(1 0 0 -1 0 -710.5957)">
				<stop  offset="0" style="stop-color:#EB5C2C"/>
				<stop  offset="1" style="stop-color:#EF7852"/>
			</linearGradient>
			<path class="st25" d="M110.6,50.7c-6.1,0-11.1-5-11.1-11.1c0-6.1,5-11.1,11.1-11.1c6.1,0,11.1,5,11.1,11.1
				C121.7,45.7,116.7,50.7,110.6,50.7z"/>
			<path id="home_1_" class="st7" d="M118.3,38.4l-6.9-5.2c-0.5-0.3-1.1-0.3-1.7,0l-6.8,5.2c-0.5,0.4-0.3,1.1,0.4,1.1h0.7v4
				c0,1.4,1.2,2.6,2.6,2.6h1.3c0.4,0,0.7-0.3,0.7-0.7v-3.2c0-0.7,0.6-1.4,1.3-1.4h1.3c0.7,0,1.3,0.7,1.3,1.4v3.2
				c0,0.3,0.3,0.7,0.7,0.7h1.3c1.5,0,2.6-1.2,2.6-2.6v-4h0.7C118.5,39.6,118.7,38.8,118.3,38.4z"/>
		</g>
	</g>
</g>
<g id="Botons_Linguagens" class="st0">
	<g class="st1">
		<path class="st7" d="M224.9-104.8h-46.3c-8.6,0-15.6,7-15.6,15.6v56.5c0,8.6,7,15.6,15.6,15.6h46.3c8.6,0,15.6-7,15.6-15.6v-56.5
			C240.6-97.8,233.6-104.8,224.9-104.8z"/>
		<linearGradient id="SVGID_19_" gradientUnits="userSpaceOnUse" x1="165.7071" y1="-60.9091" x2="237.9301" y2="-60.9091">
			<stop  offset="0" style="stop-color:#F9B654"/>
			<stop  offset="1" style="stop-color:#EF7C2C"/>
		</linearGradient>
		<path class="st26" d="M224.9-102.2h-46.3c-7.2,0-13,5.8-13,13v56.5c0,7.2,5.8,13,13,13h46.3c7.2,0,13-5.8,13-13v-56.5
			C237.9-96.3,232.1-102.2,224.9-102.2z"/>
		<linearGradient id="SVGID_20_" gradientUnits="userSpaceOnUse" x1="170.4379" y1="-60.9091" x2="233.1993" y2="-60.9091">
			<stop  offset="0" style="stop-color:#EF7C2C"/>
			<stop  offset="1" style="stop-color:#F9B654"/>
		</linearGradient>
		<path class="st27" d="M224.9-97.4h-46.3c-4.5,0-8.3,3.7-8.3,8.3v56.5c0,4.5,3.7,8.3,8.3,8.3h46.3c4.5,0,8.3-3.7,8.3-8.3v-56.5
			C233.2-93.7,229.5-97.4,224.9-97.4z"/>
		<polygon class="st7" points="217.7,-73.3 218.3,-80.5 201.7,-80.7 185.3,-80.9 186.3,-59.3 201.5,-59.1 209.4,-59 208.8,-50.9 
			201.3,-48.4 194,-51.1 193.7,-55.6 186.4,-55.7 187,-45.7 201.2,-40.9 215.5,-45.4 217.1,-66.1 201.5,-66.3 193.2,-66.4 
			192.8,-73.6 201.6,-73.5 		"/>
		<path class="st5" d="M224.9-27.5c2.8,0,5.1-2.3,5.1-5.1v-56.5c0-2.8-2.3-5.1-5.1-5.1h-46.3c-2.8,0-5.1,2.3-5.1,5.1v56.5
			c0,2.8,2.3,5.1,5.1,5.1H224.9z"/>
	</g>
	<g class="st1">
		<g>
			<path class="st7" d="M129.1-104.8H82.8c-8.6,0-15.6,7-15.6,15.6v56.5c0,8.6,7,15.6,15.6,15.6h46.3c8.6,0,15.6-7,15.6-15.6v-56.5
				C144.7-97.8,137.7-104.8,129.1-104.8z"/>
			<linearGradient id="SVGID_21_" gradientUnits="userSpaceOnUse" x1="69.8346" y1="-60.9091" x2="142.0576" y2="-60.9091">
				<stop  offset="0" style="stop-color:#FFDFA1"/>
				<stop  offset="1" style="stop-color:#FBBE43"/>
			</linearGradient>
			<path class="st28" d="M129.1-102.2H82.8c-7.2,0-13,5.8-13,13v56.5c0,7.2,5.8,13,13,13h46.3c7.2,0,13-5.8,13-13v-56.5
				C142.1-96.3,136.2-102.2,129.1-102.2z"/>
			<linearGradient id="SVGID_22_" gradientUnits="userSpaceOnUse" x1="74.5654" y1="-60.9091" x2="137.3268" y2="-60.9091">
				<stop  offset="0" style="stop-color:#FBBE43"/>
				<stop  offset="1" style="stop-color:#FFDFA1"/>
			</linearGradient>
			<path class="st29" d="M129.1-97.4H82.8c-4.5,0-8.3,3.7-8.3,8.3v56.5c0,4.5,3.7,8.3,8.3,8.3h46.3c4.5,0,8.3-3.7,8.3-8.3v-56.5
				C137.3-93.7,133.6-97.4,129.1-97.4z"/>
			<path class="st5" d="M129.1-27.5c2.8,0,5.1-2.3,5.1-5.1v-56.5c0-2.8-2.3-5.1-5.1-5.1H82.8c-2.8,0-5.1,2.3-5.1,5.1v56.5
				c0,2.8,2.3,5.1,5.1,5.1H129.1z"/>
		</g>
		<g>
			<polygon class="st7" points="128.3,-82.5 127.8,-75.8 115.1,-75.8 115.1,-62.6 126.8,-64.2 125,-43.9 108.4,-39.4 108.4,-47 
				119.6,-50 120,-56.3 108.4,-54.3 108.4,-82.5 			"/>
			<polygon class="st7" points="101.8,-82.5 101.8,-39.4 83.6,-44.4 83.6,-52.6 95.2,-49.4 95.2,-82.5 			"/>
		</g>
	</g>
	<g class="st1">
		<g>
			<path class="st7" d="M224.9,5.3h-46.3c-8.6,0-15.6,7-15.6,15.6v56.5c0,8.6,7,15.6,15.6,15.6h46.3c8.6,0,15.6-7,15.6-15.6V21
				C240.6,12.3,233.6,5.3,224.9,5.3z"/>
			<linearGradient id="SVGID_23_" gradientUnits="userSpaceOnUse" x1="165.7071" y1="49.2263" x2="237.9301" y2="49.2263">
				<stop  offset="0" style="stop-color:#BDA4CF;stop-opacity:0.9"/>
				<stop  offset="1" style="stop-color:#564B9A"/>
			</linearGradient>
			<path class="st30" d="M224.9,8h-46.3c-7.2,0-13,5.8-13,13v56.5c0,7.2,5.8,13,13,13h46.3c7.2,0,13-5.8,13-13V21
				C237.9,13.8,232.1,8,224.9,8z"/>
			<linearGradient id="SVGID_24_" gradientUnits="userSpaceOnUse" x1="170.4379" y1="49.2263" x2="233.1993" y2="49.2263">
				<stop  offset="0" style="stop-color:#564B9A"/>
				<stop  offset="1" style="stop-color:#BDA4CF;stop-opacity:0.9"/>
			</linearGradient>
			<path class="st31" d="M224.9,12.7h-46.3c-4.5,0-8.3,3.7-8.3,8.3v56.5c0,4.5,3.7,8.3,8.3,8.3h46.3c4.5,0,8.3-3.7,8.3-8.3V21
				C233.2,16.4,229.5,12.7,224.9,12.7z"/>
			<path class="st5" d="M224.9,82.6c2.8,0,5.1-2.3,5.1-5.1V21c0-2.8-2.3-5.1-5.1-5.1h-46.3c-2.8,0-5.1,2.3-5.1,5.1v56.5
				c0,2.8,2.3,5.1,5.1,5.1H224.9z"/>
		</g>
		<g>
			<polygon class="st32" points="212,44.8 209.1,44.8 209.1,47.8 206.2,47.8 206.2,50.7 209.1,50.7 209.1,53.6 212,53.6 212,50.7 
				215,50.7 215,47.8 212,47.8 			"/>
			<polygon class="st32" points="225.2,47.8 222.3,47.8 222.3,44.8 219.3,44.8 219.3,47.8 216.4,47.8 216.4,50.7 219.3,50.7 
				219.3,53.6 222.3,53.6 222.3,50.7 225.2,50.7 			"/>
			<path class="st7" d="M207.7,54.4l9,4.9c-3.5,6.2-10.2,10.4-17.8,10.4c-11.3,0-20.4-9.2-20.4-20.5c0-11.3,9.2-20.4,20.4-20.4
				c7.5,0,14,4,17.6,10.1l-8.9,5.1c-1.8-2.9-5-4.9-8.7-4.9c-5.6,0-10.2,4.6-10.2,10.2c0,5.6,4.6,10.2,10.2,10.2
				C202.6,59.5,205.9,57.4,207.7,54.4z"/>
		</g>
	</g>
	<g class="st1">
		<g>
			<path class="st7" d="M129.1,5.3H82.8c-8.6,0-15.6,7-15.6,15.6v56.5c0,8.6,7,15.6,15.6,15.6h46.3c8.6,0,15.6-7,15.6-15.6V21
				C144.7,12.3,137.7,5.3,129.1,5.3z"/>
			<linearGradient id="SVGID_25_" gradientUnits="userSpaceOnUse" x1="69.8346" y1="49.2263" x2="142.0576" y2="49.2263">
				<stop  offset="0" style="stop-color:#B3DEE9;stop-opacity:0.9"/>
				<stop  offset="1" style="stop-color:#3490CF"/>
			</linearGradient>
			<path class="st33" d="M129.1,8H82.8c-7.2,0-13,5.8-13,13v56.5c0,7.2,5.8,13,13,13h46.3c7.2,0,13-5.8,13-13V21
				C142.1,13.8,136.2,8,129.1,8z"/>
			<linearGradient id="SVGID_26_" gradientUnits="userSpaceOnUse" x1="74.5654" y1="49.2263" x2="137.3268" y2="49.2263">
				<stop  offset="0" style="stop-color:#3490CF"/>
				<stop  offset="1" style="stop-color:#B3DEE9;stop-opacity:0.9"/>
			</linearGradient>
			<path class="st34" d="M129.1,12.7H82.8c-4.5,0-8.3,3.7-8.3,8.3v56.5c0,4.5,3.7,8.3,8.3,8.3h46.3c4.5,0,8.3-3.7,8.3-8.3V21
				C137.3,16.4,133.6,12.7,129.1,12.7z"/>
			<path class="st5" d="M129.1,82.6c2.8,0,5.1-2.3,5.1-5.1V21c0-2.8-2.3-5.1-5.1-5.1H82.8c-2.8,0-5.1,2.3-5.1,5.1v56.5
				c0,2.8,2.3,5.1,5.1,5.1H129.1z"/>
		</g>
		<path class="st32" d="M90,55h7.8l0.2,4.9l8,2.7l8-2.7l0.6-8.8H97.4L97,43.2h18.1l0.6-7.8H88.6L88,27.6h35.9l-1,15.7l-1.4,22.6
			L106,70.9l-15.5-5.1L90,55z"/>
	</g>
	<g class="st1">
		<g>
			<path class="st7" d="M224.9,114.4h-46.3c-8.6,0-15.6,7-15.6,15.6v56.5c0,8.6,7,15.6,15.6,15.6h46.3c8.6,0,15.6-7,15.6-15.6V130
				C240.6,121.4,233.6,114.4,224.9,114.4z"/>
			<linearGradient id="SVGID_27_" gradientUnits="userSpaceOnUse" x1="165.7071" y1="158.3208" x2="237.9301" y2="158.3208">
				<stop  offset="0" style="stop-color:#7DAFDF;stop-opacity:0.9"/>
				<stop  offset="1" style="stop-color:#264798"/>
			</linearGradient>
			<path class="st35" d="M224.9,117.1h-46.3c-7.2,0-13,5.8-13,13v56.5c0,7.2,5.8,13,13,13h46.3c7.2,0,13-5.8,13-13V130
				C237.9,122.9,232.1,117.1,224.9,117.1z"/>
			<linearGradient id="SVGID_28_" gradientUnits="userSpaceOnUse" x1="170.4379" y1="158.3208" x2="233.1993" y2="158.3208">
				<stop  offset="0" style="stop-color:#264798"/>
				<stop  offset="1" style="stop-color:#7DAFDF;stop-opacity:0.9"/>
			</linearGradient>
			<path class="st36" d="M224.9,121.8h-46.3c-4.5,0-8.3,3.7-8.3,8.3v56.5c0,4.5,3.7,8.3,8.3,8.3h46.3c4.5,0,8.3-3.7,8.3-8.3V130
				C233.2,125.5,229.5,121.8,224.9,121.8z"/>
			<path class="st5" d="M224.9,191.7c2.8,0,5.1-2.3,5.1-5.1V130c0-2.8-2.3-5.1-5.1-5.1h-46.3c-2.8,0-5.1,2.3-5.1,5.1v56.5
				c0,2.8,2.3,5.1,5.1,5.1H224.9z"/>
		</g>
		<g>
			<path class="st7" d="M202.4,136.2c-1.8,0-3.1,0.2-4.6,0.4c-4.5,0.8-5.3,2.4-5.3,5.4v4.6H203v2.3h-10.9H187
				c-3.1,0-5.8,1.4-6.6,4.9c-1,4-1,6.5,0,10.6c0.8,3.1,2.4,5.4,5.5,5.4h4.2V164c0-3.5,3.1-6.9,6.7-6.9h8.4c2.9,0,5.8-2.2,5.8-5.1
				v-10c0-2.8-2-5-4.9-5.4C206.3,136.6,204.2,136.2,202.4,136.2z M196.6,140.9c1,0,1.7,0.8,1.7,1.7c0,1-0.8,1.7-1.7,1.7
				c-1,0-1.7-0.8-1.7-1.7C194.8,141.7,195.6,140.9,196.6,140.9z"/>
			<path class="st7" d="M201.3,180.4c1.8,0,3.1-0.2,4.6-0.4c4.5-0.8,5.3-2.4,5.3-5.4V170h-10.5v-2.3h10.9h5.1c3.1,0,5.8-1.4,6.6-4.9
				c1-4,1-6.5,0-10.6c-0.8-3.1-2.4-5.4-5.5-5.4h-4.2v5.9c0,3.5-3.1,6.9-6.7,6.9h-8.4c-2.9,0-5.8,2.2-5.8,5.1v10c0,2.8,2,5,4.9,5.4
				C197.3,180,199.5,180.4,201.3,180.4z M207.1,175.8c-1,0-1.7-0.8-1.7-1.7c0-1,0.8-1.7,1.7-1.7c1,0,1.7,0.8,1.7,1.7
				C208.8,175,208,175.8,207.1,175.8z"/>
		</g>
	</g>
	<g class="st1">
		<g>
			<path class="st7" d="M129.1,114.4H82.8c-8.6,0-15.6,7-15.6,15.6v56.5c0,8.6,7,15.6,15.6,15.6h46.3c8.6,0,15.6-7,15.6-15.6V130
				C144.7,121.4,137.7,114.4,129.1,114.4z"/>
			<linearGradient id="SVGID_29_" gradientUnits="userSpaceOnUse" x1="69.8346" y1="158.3208" x2="142.0576" y2="158.3208">
				<stop  offset="0" style="stop-color:#E62C2C;stop-opacity:0.9"/>
				<stop  offset="1" style="stop-color:#7B170F"/>
			</linearGradient>
			<path class="st37" d="M129.1,117.1H82.8c-7.2,0-13,5.8-13,13v56.5c0,7.2,5.8,13,13,13h46.3c7.2,0,13-5.8,13-13V130
				C142.1,122.9,136.2,117.1,129.1,117.1z"/>
			<linearGradient id="SVGID_30_" gradientUnits="userSpaceOnUse" x1="74.5654" y1="158.3208" x2="137.3268" y2="158.3208">
				<stop  offset="0" style="stop-color:#7B170F"/>
				<stop  offset="1" style="stop-color:#E62C2C;stop-opacity:0.9"/>
			</linearGradient>
			<path class="st38" d="M129.1,121.8H82.8c-4.5,0-8.3,3.7-8.3,8.3v56.5c0,4.5,3.7,8.3,8.3,8.3h46.3c4.5,0,8.3-3.7,8.3-8.3V130
				C137.3,125.5,133.6,121.8,129.1,121.8z"/>
			<path class="st5" d="M129.1,191.7c2.8,0,5.1-2.3,5.1-5.1V130c0-2.8-2.3-5.1-5.1-5.1H82.8c-2.8,0-5.1,2.3-5.1,5.1v56.5
				c0,2.8,2.3,5.1,5.1,5.1H129.1z"/>
		</g>
		<g>
			<path class="st7" d="M105.5,159.5c-1.3-2.1-2.2-3.8-3.5-7c-2.2-5.4,13.2-10.3,7-19.8c2.7,6.5-9.7,10.5-10.9,16
				C97.1,153.7,105.5,159.5,105.5,159.5z"/>
			<path class="st7" d="M105.8,149.7c-0.2,3.2,2.9,4.9,2.9,7.3c0.1,1.9-1.9,3.5-1.9,3.5s3.5-0.7,4.6-3.6c1.2-3.2-2.3-5.5-2-8.1
				c0.3-2.5,7.7-7.1,7.7-7.1S106.3,142.5,105.8,149.7z"/>
			<g>
				<path class="st7" d="M116.3,159.7c2.2-0.5,4.1,0.9,4.1,2.6c0,3.7-5.1,7.2-5.1,7.2s8-1,8-7.1
					C123.3,158.4,119.3,157.4,116.3,159.7z M112.5,162.7c0,0,2.5-1.8,3.1-2.4c-6.1,1.3-20,1.5-20,0.3c0-1,4.5-2.1,4.5-2.1
					s-10-0.1-10,2.8C90.2,164.3,103.2,164.6,112.5,162.7z"/>
				<path class="st7" d="M111,165.5c-5.8,1.9-16.4,1.3-13.3-1.3c-1.5,0-3.8,1.2-3.8,2.4c0,2.4,11.5,4.2,20,0.7L111,165.5z"/>
				<path class="st7" d="M99.1,169.5c-2.1,0-3.5,1.3-3.5,2.3c0,3.1,12.5,3.4,17.5,0.3L110,170C106.3,171.6,97,171.9,99.1,169.5z"/>
				<path class="st7" d="M121.7,174.5c0-1.2-1.4-1.8-1.8-2c2.9,6.9-28.6,6.3-28.6,2.3c0-0.9,2.3-1.8,4.5-1.4l-1.8-1.1
					c-4.3-0.7-7.2,1.2-7.2,2.7C86.7,182,121.7,181.7,121.7,174.5z"/>
				<path class="st7" d="M125.2,177c-5.3,5.2-18.8,7.2-32.3,3.9C106.4,186.7,125.1,183.5,125.2,177z"/>
			</g>
		</g>
	</g>
</g>
<g id="Card_Conteudo" class="st0">
	<g class="st1">
		<g>
			<path class="st7" d="M329.7-22.4h-165c-8.2,0-14.8,6.7-14.8,14.8v53.8c0,8.2,6.7,14.8,14.8,14.8h165c8.2,0,14.8-6.7,14.8-14.8
				V-7.6C344.6-15.7,337.9-22.4,329.7-22.4z"/>
			<linearGradient id="SVGID_31_" gradientUnits="userSpaceOnUse" x1="152.3912" y1="19.3363" x2="342.0909" y2="19.3363">
				<stop  offset="0" style="stop-color:#222222"/>
				<stop  offset="1" style="stop-color:#0D0E0E"/>
			</linearGradient>
			<path class="st39" d="M329.7-19.9h-165c-6.8,0-12.3,5.5-12.3,12.3v53.8c0,6.8,5.5,12.3,12.3,12.3h165c6.8,0,12.3-5.5,12.3-12.3
				V-7.6C342.1-14.4,336.6-19.9,329.7-19.9z"/>
			<linearGradient id="SVGID_32_" gradientUnits="userSpaceOnUse" x1="156.8912" y1="19.3363" x2="337.5909" y2="19.3363">
				<stop  offset="0" style="stop-color:#0D0E0E"/>
				<stop  offset="1" style="stop-color:#222222"/>
			</linearGradient>
			<path class="st40" d="M329.7-15.4h-165c-4.3,0-7.8,3.5-7.8,7.8v53.8c0,4.3,3.5,7.8,7.8,7.8h165c4.3,0,7.8-3.5,7.8-7.8V-7.6
				C337.6-11.9,334.1-15.4,329.7-15.4z"/>
			<path class="st5" d="M329.7,51.1c2.7,0,4.8-2.2,4.8-4.8V-7.6c0-2.7-2.2-4.8-4.8-4.8h-165c-2.7,0-4.8,2.2-4.8,4.8v53.8
				c0,2.7,2.2,4.8,4.8,4.8H329.7z"/>
		</g>
		<g>
			<path class="st7" d="M208.4-22.8h-44c-8.2,0-14.8,6.7-14.8,14.8v53.8c0,8.2,6.7,14.8,14.8,14.8h44c8.2,0,14.8-6.7,14.8-14.8V-7.9
				C223.2-16.1,216.6-22.8,208.4-22.8z"/>
			<linearGradient id="SVGID_33_" gradientUnits="userSpaceOnUse" x1="152.0267" y1="18.9651" x2="220.7265" y2="18.9651">
				<stop  offset="0" style="stop-color:#F9B654"/>
				<stop  offset="1" style="stop-color:#EF7C2C"/>
			</linearGradient>
			<path class="st41" d="M208.4-20.3h-44c-6.8,0-12.3,5.5-12.3,12.3v53.8c0,6.8,5.5,12.3,12.3,12.3h44c6.8,0,12.3-5.5,12.3-12.3
				V-7.9C220.7-14.7,215.2-20.3,208.4-20.3z"/>
			<linearGradient id="SVGID_34_" gradientUnits="userSpaceOnUse" x1="156.5267" y1="18.9651" x2="216.2265" y2="18.9651">
				<stop  offset="0" style="stop-color:#EF7C2C"/>
				<stop  offset="1" style="stop-color:#F9B654"/>
			</linearGradient>
			<path class="st42" d="M208.4-15.8h-44c-4.3,0-7.8,3.5-7.8,7.8v53.8c0,4.3,3.5,7.8,7.8,7.8h44c4.3,0,7.8-3.5,7.8-7.8V-7.9
				C216.2-12.3,212.7-15.8,208.4-15.8z"/>
			<polygon class="st7" points="201.5,7.2 202.1,0.3 186.3,0.1 170.7,-0.1 171.6,20.5 186,20.7 193.6,20.8 193,28.5 185.9,30.8 
				178.9,28.3 178.6,24 171.7,23.9 172.3,33.4 185.8,38 199.4,33.7 200.9,14 186.1,13.8 178.2,13.7 177.8,6.9 186.2,7 			"/>
			<path class="st5" d="M208.4,50.7c2.7,0,4.8-2.2,4.8-4.8V-7.9c0-2.7-2.2-4.8-4.8-4.8h-44c-2.7,0-4.8,2.2-4.8,4.8v53.8
				c0,2.7,2.2,4.8,4.8,4.8H208.4z"/>
		</g>
		<rect x="227.7" y="15.8" style="fill:none;" width="102.9" height="31.7"/>
		<text transform="matrix(1 0 0 1 227.6661 19.9985)"><tspan x="0" y="0" class="st7" style="font-family:'Roboto-Regular'; font-size:5.5115px;">Lorem</tspan><tspan x="15.8" y="0" class="st7" style="font-family:'Roboto-Regular'; font-size:5.5115px;"> </tspan><tspan x="17.7" y="0" class="st7" style="font-family:'Roboto-Regular'; font-size:5.5115px;">ipsum</tspan><tspan x="33.1" y="0" class="st7" style="font-family:'Roboto-Regular'; font-size:5.5115px;"> </tspan><tspan x="35" y="0" class="st7" style="font-family:'Roboto-Regular'; font-size:5.5115px;">dolor</tspan><tspan x="47.8" y="0" class="st7" style="font-family:'Roboto-Regular'; font-size:5.5115px;"> </tspan><tspan x="49.7" y="0" class="st7" style="font-family:'Roboto-Regular'; font-size:5.5115px;">sit</tspan><tspan x="55.8" y="0" class="st7" style="font-family:'Roboto-Regular'; font-size:5.5115px;"> </tspan><tspan x="57.8" y="0" class="st7" style="font-family:'Roboto-Regular'; font-size:5.5115px;">amet,</tspan><tspan x="71.5" y="0" class="st7" style="font-family:'Roboto-Regular'; font-size:5.5115px;"> </tspan><tspan x="73.4" y="0" class="st7" style="font-family:'Roboto-Regular'; font-size:5.5115px;">consectetur </tspan><tspan x="0" y="6.6" class="st7" style="font-family:'Roboto-Regular'; font-size:5.5115px;">adipiscing</tspan><tspan x="25.5" y="6.6" class="st7" style="font-family:'Roboto-Regular'; font-size:5.5115px; letter-spacing:1;"> </tspan><tspan x="28.4" y="6.6" class="st7" style="font-family:'Roboto-Regular'; font-size:5.5115px;">elit,</tspan><tspan x="37" y="6.6" class="st7" style="font-family:'Roboto-Regular'; font-size:5.5115px; letter-spacing:1;"> </tspan><tspan x="39.9" y="6.6" class="st7" style="font-family:'Roboto-Regular'; font-size:5.5115px;">sed</tspan><tspan x="48.8" y="6.6" class="st7" style="font-family:'Roboto-Regular'; font-size:5.5115px; letter-spacing:1;"> </tspan><tspan x="51.7" y="6.6" class="st7" style="font-family:'Roboto-Regular'; font-size:5.5115px;">do</tspan><tspan x="58" y="6.6" class="st7" style="font-family:'Roboto-Regular'; font-size:5.5115px; letter-spacing:1;"> </tspan><tspan x="60.9" y="6.6" class="st7" style="font-family:'Roboto-Regular'; font-size:5.5115px;">eiusmod</tspan><tspan x="82.2" y="6.6" class="st7" style="font-family:'Roboto-Regular'; font-size:5.5115px; letter-spacing:1;"> </tspan><tspan x="85.1" y="6.6" class="st7" style="font-family:'Roboto-Regular'; font-size:5.5115px;">tempor </tspan><tspan x="0" y="13.2" class="st7" style="font-family:'Roboto-Regular'; font-size:5.5115px;">incididunt</tspan><tspan x="24.6" y="13.2" class="st7" style="font-family:'Roboto-Regular'; font-size:5.5115px; letter-spacing:2;"> </tspan><tspan x="28.6" y="13.2" class="st7" style="font-family:'Roboto-Regular'; font-size:5.5115px;">ut</tspan><tspan x="33.6" y="13.2" class="st7" style="font-family:'Roboto-Regular'; font-size:5.5115px; letter-spacing:2;"> </tspan><tspan x="37.7" y="13.2" class="st7" style="font-family:'Roboto-Regular'; font-size:5.5115px;">labore</tspan><tspan x="53.2" y="13.2" class="st7" style="font-family:'Roboto-Regular'; font-size:5.5115px; letter-spacing:2;"> </tspan><tspan x="57.3" y="13.2" class="st7" style="font-family:'Roboto-Regular'; font-size:5.5115px;">et</tspan><tspan x="62" y="13.2" class="st7" style="font-family:'Roboto-Regular'; font-size:5.5115px; letter-spacing:2;"> </tspan><tspan x="66.1" y="13.2" class="st7" style="font-family:'Roboto-Regular'; font-size:5.5115px;">dolore</tspan><tspan x="81.7" y="13.2" class="st7" style="font-family:'Roboto-Regular'; font-size:5.5115px; letter-spacing:2;"> </tspan><tspan x="85.7" y="13.2" class="st7" style="font-family:'Roboto-Regular'; font-size:5.5115px;">magna </tspan><tspan x="0" y="19.8" class="st7" style="font-family:'Roboto-Regular'; font-size:5.5115px;">aliqua.</tspan><tspan x="16.6" y="19.8" class="st7" style="font-family:'Roboto-Regular'; font-size:5.5115px; letter-spacing:1;"> </tspan><tspan x="19.4" y="19.8" class="st7" style="font-family:'Roboto-Regular'; font-size:5.5115px;">Ut</tspan><tspan x="25" y="19.8" class="st7" style="font-family:'Roboto-Regular'; font-size:5.5115px; letter-spacing:1;"> </tspan><tspan x="27.9" y="19.8" class="st7" style="font-family:'Roboto-Regular'; font-size:5.5115px;">enim</tspan><tspan x="40.1" y="19.8" class="st7" style="font-family:'Roboto-Regular'; font-size:5.5115px; letter-spacing:1;"> </tspan><tspan x="43" y="19.8" class="st7" style="font-family:'Roboto-Regular'; font-size:5.5115px;">ad</tspan><tspan x="49.1" y="19.8" class="st7" style="font-family:'Roboto-Regular'; font-size:5.5115px; letter-spacing:1;"> </tspan><tspan x="52" y="19.8" class="st7" style="font-family:'Roboto-Regular'; font-size:5.5115px;">minim</tspan><tspan x="67.5" y="19.8" class="st7" style="font-family:'Roboto-Regular'; font-size:5.5115px; letter-spacing:1;"> </tspan><tspan x="70.4" y="19.8" class="st7" style="font-family:'Roboto-Regular'; font-size:5.5115px;">veniam,</tspan><tspan x="89.5" y="19.8" class="st7" style="font-family:'Roboto-Regular'; font-size:5.5115px; letter-spacing:1;"> </tspan><tspan x="92.3" y="19.8" class="st7" style="font-family:'Roboto-Regular'; font-size:5.5115px;">quis </tspan><tspan x="0" y="26.5" class="st7" style="font-family:'Roboto-Regular'; font-size:5.5115px;">nostrud</tspan><tspan x="19.2" y="26.5" class="st7" style="font-family:'Roboto-Regular'; font-size:5.5115px;"> </tspan><tspan x="21.5" y="26.5" class="st7" style="font-family:'Roboto-Regular'; font-size:5.5115px;">exercitation</tspan><tspan x="50.6" y="26.5" class="st7" style="font-family:'Roboto-Regular'; font-size:5.5115px;"> </tspan><tspan x="52.9" y="26.5" class="st7" style="font-family:'Roboto-Regular'; font-size:5.5115px;">ullamco</tspan><tspan x="72.7" y="26.5" class="st7" style="font-family:'Roboto-Regular'; font-size:5.5115px;"> </tspan><tspan x="74.9" y="26.5" class="st7" style="font-family:'Roboto-Regular'; font-size:5.5115px;">laboris</tspan><tspan x="91.8" y="26.5" class="st7" style="font-family:'Roboto-Regular'; font-size:5.5115px;"> </tspan><tspan x="94.1" y="26.5" class="st7" style="font-family:'Roboto-Regular'; font-size:5.5115px;">nisi </tspan></text>
		<rect x="227.7" y="-9.3" style="fill:none;" width="102.9" height="21.2"/>
		<text transform="matrix(1 0 0 1 227.6661 -2.5645)"><tspan x="0" y="0" class="st7 st8" style="font-size:8.8184px;">Lorem ipsum dolor sit </tspan><tspan x="0" y="10.6" class="st7 st8" style="font-size:8.8184px;">amet, consectetur </tspan></text>
	</g>
	<g class="st1">
		<g>
			<path class="st7" d="M329.6,82.2h-165c-8.2,0-14.8,6.7-14.8,14.8v53.8c0,8.2,6.7,14.8,14.8,14.8h165c8.2,0,14.8-6.7,14.8-14.8V97
				C344.4,88.8,337.7,82.2,329.6,82.2z"/>
			<linearGradient id="SVGID_35_" gradientUnits="userSpaceOnUse" x1="152.209" y1="123.9163" x2="341.9087" y2="123.9163">
				<stop  offset="0" style="stop-color:#222222"/>
				<stop  offset="1" style="stop-color:#0D0E0E"/>
			</linearGradient>
			<path class="st43" d="M329.6,84.7h-165c-6.8,0-12.3,5.5-12.3,12.3v53.8c0,6.8,5.5,12.3,12.3,12.3h165c6.8,0,12.3-5.5,12.3-12.3
				V97C341.9,90.2,336.4,84.7,329.6,84.7z"/>
			<linearGradient id="SVGID_36_" gradientUnits="userSpaceOnUse" x1="156.709" y1="123.9163" x2="337.4087" y2="123.9163">
				<stop  offset="0" style="stop-color:#0D0E0E"/>
				<stop  offset="1" style="stop-color:#222222"/>
			</linearGradient>
			<path class="st44" d="M329.6,89.2h-165c-4.3,0-7.8,3.5-7.8,7.8v53.8c0,4.3,3.5,7.8,7.8,7.8h165c4.3,0,7.8-3.5,7.8-7.8V97
				C337.4,92.7,333.9,89.2,329.6,89.2z"/>
			<path class="st5" d="M329.6,155.7c2.7,0,4.8-2.2,4.8-4.8V97c0-2.7-2.2-4.8-4.8-4.8h-165c-2.7,0-4.8,2.2-4.8,4.8v53.8
				c0,2.7,2.2,4.8,4.8,4.8H329.6z"/>
		</g>
		<rect x="227.5" y="120.4" style="fill:none;" width="102.9" height="31.7"/>
		<text transform="matrix(1 0 0 1 227.4839 124.5786)"><tspan x="0" y="0" class="st7" style="font-family:'Roboto-Regular'; font-size:5.5115px;">Lorem</tspan><tspan x="15.8" y="0" class="st7" style="font-family:'Roboto-Regular'; font-size:5.5115px;"> </tspan><tspan x="17.7" y="0" class="st7" style="font-family:'Roboto-Regular'; font-size:5.5115px;">ipsum</tspan><tspan x="33.1" y="0" class="st7" style="font-family:'Roboto-Regular'; font-size:5.5115px;"> </tspan><tspan x="35" y="0" class="st7" style="font-family:'Roboto-Regular'; font-size:5.5115px;">dolor</tspan><tspan x="47.8" y="0" class="st7" style="font-family:'Roboto-Regular'; font-size:5.5115px;"> </tspan><tspan x="49.7" y="0" class="st7" style="font-family:'Roboto-Regular'; font-size:5.5115px;">sit</tspan><tspan x="55.8" y="0" class="st7" style="font-family:'Roboto-Regular'; font-size:5.5115px;"> </tspan><tspan x="57.8" y="0" class="st7" style="font-family:'Roboto-Regular'; font-size:5.5115px;">amet,</tspan><tspan x="71.5" y="0" class="st7" style="font-family:'Roboto-Regular'; font-size:5.5115px;"> </tspan><tspan x="73.4" y="0" class="st7" style="font-family:'Roboto-Regular'; font-size:5.5115px;">consectetur </tspan><tspan x="0" y="6.6" class="st7" style="font-family:'Roboto-Regular'; font-size:5.5115px;">adipiscing</tspan><tspan x="25.5" y="6.6" class="st7" style="font-family:'Roboto-Regular'; font-size:5.5115px; letter-spacing:1;"> </tspan><tspan x="28.4" y="6.6" class="st7" style="font-family:'Roboto-Regular'; font-size:5.5115px;">elit,</tspan><tspan x="37" y="6.6" class="st7" style="font-family:'Roboto-Regular'; font-size:5.5115px; letter-spacing:1;"> </tspan><tspan x="39.9" y="6.6" class="st7" style="font-family:'Roboto-Regular'; font-size:5.5115px;">sed</tspan><tspan x="48.8" y="6.6" class="st7" style="font-family:'Roboto-Regular'; font-size:5.5115px; letter-spacing:1;"> </tspan><tspan x="51.7" y="6.6" class="st7" style="font-family:'Roboto-Regular'; font-size:5.5115px;">do</tspan><tspan x="58" y="6.6" class="st7" style="font-family:'Roboto-Regular'; font-size:5.5115px; letter-spacing:1;"> </tspan><tspan x="60.9" y="6.6" class="st7" style="font-family:'Roboto-Regular'; font-size:5.5115px;">eiusmod</tspan><tspan x="82.2" y="6.6" class="st7" style="font-family:'Roboto-Regular'; font-size:5.5115px; letter-spacing:1;"> </tspan><tspan x="85.1" y="6.6" class="st7" style="font-family:'Roboto-Regular'; font-size:5.5115px;">tempor </tspan><tspan x="0" y="13.2" class="st7" style="font-family:'Roboto-Regular'; font-size:5.5115px;">incididunt</tspan><tspan x="24.6" y="13.2" class="st7" style="font-family:'Roboto-Regular'; font-size:5.5115px; letter-spacing:2;"> </tspan><tspan x="28.6" y="13.2" class="st7" style="font-family:'Roboto-Regular'; font-size:5.5115px;">ut</tspan><tspan x="33.6" y="13.2" class="st7" style="font-family:'Roboto-Regular'; font-size:5.5115px; letter-spacing:2;"> </tspan><tspan x="37.7" y="13.2" class="st7" style="font-family:'Roboto-Regular'; font-size:5.5115px;">labore</tspan><tspan x="53.2" y="13.2" class="st7" style="font-family:'Roboto-Regular'; font-size:5.5115px; letter-spacing:2;"> </tspan><tspan x="57.3" y="13.2" class="st7" style="font-family:'Roboto-Regular'; font-size:5.5115px;">et</tspan><tspan x="62" y="13.2" class="st7" style="font-family:'Roboto-Regular'; font-size:5.5115px; letter-spacing:2;"> </tspan><tspan x="66.1" y="13.2" class="st7" style="font-family:'Roboto-Regular'; font-size:5.5115px;">dolore</tspan><tspan x="81.7" y="13.2" class="st7" style="font-family:'Roboto-Regular'; font-size:5.5115px; letter-spacing:2;"> </tspan><tspan x="85.7" y="13.2" class="st7" style="font-family:'Roboto-Regular'; font-size:5.5115px;">magna </tspan><tspan x="0" y="19.8" class="st7" style="font-family:'Roboto-Regular'; font-size:5.5115px;">aliqua.</tspan><tspan x="16.6" y="19.8" class="st7" style="font-family:'Roboto-Regular'; font-size:5.5115px; letter-spacing:1;"> </tspan><tspan x="19.4" y="19.8" class="st7" style="font-family:'Roboto-Regular'; font-size:5.5115px;">Ut</tspan><tspan x="25" y="19.8" class="st7" style="font-family:'Roboto-Regular'; font-size:5.5115px; letter-spacing:1;"> </tspan><tspan x="27.9" y="19.8" class="st7" style="font-family:'Roboto-Regular'; font-size:5.5115px;">enim</tspan><tspan x="40.1" y="19.8" class="st7" style="font-family:'Roboto-Regular'; font-size:5.5115px; letter-spacing:1;"> </tspan><tspan x="43" y="19.8" class="st7" style="font-family:'Roboto-Regular'; font-size:5.5115px;">ad</tspan><tspan x="49.1" y="19.8" class="st7" style="font-family:'Roboto-Regular'; font-size:5.5115px; letter-spacing:1;"> </tspan><tspan x="52" y="19.8" class="st7" style="font-family:'Roboto-Regular'; font-size:5.5115px;">minim</tspan><tspan x="67.5" y="19.8" class="st7" style="font-family:'Roboto-Regular'; font-size:5.5115px; letter-spacing:1;"> </tspan><tspan x="70.4" y="19.8" class="st7" style="font-family:'Roboto-Regular'; font-size:5.5115px;">veniam,</tspan><tspan x="89.5" y="19.8" class="st7" style="font-family:'Roboto-Regular'; font-size:5.5115px; letter-spacing:1;"> </tspan><tspan x="92.3" y="19.8" class="st7" style="font-family:'Roboto-Regular'; font-size:5.5115px;">quis </tspan><tspan x="0" y="26.5" class="st7" style="font-family:'Roboto-Regular'; font-size:5.5115px;">nostrud</tspan><tspan x="19.2" y="26.5" class="st7" style="font-family:'Roboto-Regular'; font-size:5.5115px;"> </tspan><tspan x="21.5" y="26.5" class="st7" style="font-family:'Roboto-Regular'; font-size:5.5115px;">exercitation</tspan><tspan x="50.6" y="26.5" class="st7" style="font-family:'Roboto-Regular'; font-size:5.5115px;"> </tspan><tspan x="52.9" y="26.5" class="st7" style="font-family:'Roboto-Regular'; font-size:5.5115px;">ullamco</tspan><tspan x="72.7" y="26.5" class="st7" style="font-family:'Roboto-Regular'; font-size:5.5115px;"> </tspan><tspan x="74.9" y="26.5" class="st7" style="font-family:'Roboto-Regular'; font-size:5.5115px;">laboris</tspan><tspan x="91.8" y="26.5" class="st7" style="font-family:'Roboto-Regular'; font-size:5.5115px;"> </tspan><tspan x="94.1" y="26.5" class="st7" style="font-family:'Roboto-Regular'; font-size:5.5115px;">nisi </tspan></text>
		<rect x="227.5" y="95.3" style="fill:none;" width="102.9" height="21.2"/>
		<text transform="matrix(1 0 0 1 227.4839 102.0156)"><tspan x="0" y="0" class="st7 st8" style="font-size:8.8184px;">Lorem ipsum dolor sit </tspan><tspan x="0" y="10.6" class="st7 st8" style="font-size:8.8184px;">amet, consectetur </tspan></text>
		<g>
			<g>
				<path class="st7" d="M208.6,82.2h-44c-8.2,0-14.8,6.7-14.8,14.8v53.8c0,8.2,6.7,14.8,14.8,14.8h44c8.2,0,14.8-6.7,14.8-14.8V97
					C223.5,88.8,216.8,82.2,208.6,82.2z"/>
				<linearGradient id="SVGID_37_" gradientUnits="userSpaceOnUse" x1="152.2784" y1="123.9163" x2="220.9781" y2="123.9163">
					<stop  offset="0" style="stop-color:#B3DEE9;stop-opacity:0.9"/>
					<stop  offset="1" style="stop-color:#3490CF"/>
				</linearGradient>
				<path class="st45" d="M208.6,84.7h-44c-6.8,0-12.3,5.5-12.3,12.3v53.8c0,6.8,5.5,12.3,12.3,12.3h44c6.8,0,12.3-5.5,12.3-12.3V97
					C221,90.2,215.4,84.7,208.6,84.7z"/>
				<linearGradient id="SVGID_38_" gradientUnits="userSpaceOnUse" x1="156.7784" y1="123.9163" x2="216.4781" y2="123.9163">
					<stop  offset="0" style="stop-color:#3490CF"/>
					<stop  offset="1" style="stop-color:#B3DEE9;stop-opacity:0.9"/>
				</linearGradient>
				<path class="st46" d="M208.6,89.2h-44c-4.3,0-7.8,3.5-7.8,7.8v53.8c0,4.3,3.5,7.8,7.8,7.8h44c4.3,0,7.8-3.5,7.8-7.8V97
					C216.5,92.7,213,89.2,208.6,89.2z"/>
				<path class="st5" d="M208.6,155.7c2.7,0,4.8-2.2,4.8-4.8V97c0-2.7-2.2-4.8-4.8-4.8h-44c-2.7,0-4.8,2.2-4.8,4.8v53.8
					c0,2.7,2.2,4.8,4.8,4.8H208.6z"/>
			</g>
			<path class="st32" d="M171.4,129.4h7.5l0.2,4.7l7.7,2.6l7.7-2.6l0.6-8.4h-16.4l-0.4-7.5h17.2l0.6-7.5h-25.7l-0.6-7.5h34.1
				l-0.9,14.9l-1.3,21.5l-14.7,4.9l-14.7-4.9L171.4,129.4z"/>
		</g>
	</g>
	<g class="st1">
		<g>
			<path class="st7" d="M329.6,186.9h-165c-8.2,0-14.8,6.7-14.8,14.8v53.8c0,8.2,6.7,14.8,14.8,14.8h165c8.2,0,14.8-6.7,14.8-14.8
				v-53.8C344.4,193.6,337.7,186.9,329.6,186.9z"/>
			<linearGradient id="SVGID_39_" gradientUnits="userSpaceOnUse" x1="152.209" y1="228.682" x2="341.9087" y2="228.682">
				<stop  offset="0" style="stop-color:#222222"/>
				<stop  offset="1" style="stop-color:#0D0E0E"/>
			</linearGradient>
			<path class="st47" d="M329.6,189.4h-165c-6.8,0-12.3,5.5-12.3,12.3v53.8c0,6.8,5.5,12.3,12.3,12.3h165c6.8,0,12.3-5.5,12.3-12.3
				v-53.8C341.9,195,336.4,189.4,329.6,189.4z"/>
			<linearGradient id="SVGID_40_" gradientUnits="userSpaceOnUse" x1="156.709" y1="228.682" x2="337.4087" y2="228.682">
				<stop  offset="0" style="stop-color:#0D0E0E"/>
				<stop  offset="1" style="stop-color:#222222"/>
			</linearGradient>
			<path class="st48" d="M329.6,193.9h-165c-4.3,0-7.8,3.5-7.8,7.8v53.8c0,4.3,3.5,7.8,7.8,7.8h165c4.3,0,7.8-3.5,7.8-7.8v-53.8
				C337.4,197.5,333.9,193.9,329.6,193.9z"/>
			<path class="st5" d="M329.6,260.4c2.7,0,4.8-2.2,4.8-4.8v-53.8c0-2.7-2.2-4.8-4.8-4.8h-165c-2.7,0-4.8,2.2-4.8,4.8v53.8
				c0,2.7,2.2,4.8,4.8,4.8H329.6z"/>
		</g>
		<rect x="227.5" y="225.1" style="fill:none;" width="102.9" height="31.7"/>
		<text transform="matrix(1 0 0 1 227.4839 229.3443)"><tspan x="0" y="0" class="st7" style="font-family:'Roboto-Regular'; font-size:5.5115px;">Lorem</tspan><tspan x="15.8" y="0" class="st7" style="font-family:'Roboto-Regular'; font-size:5.5115px;"> </tspan><tspan x="17.7" y="0" class="st7" style="font-family:'Roboto-Regular'; font-size:5.5115px;">ipsum</tspan><tspan x="33.1" y="0" class="st7" style="font-family:'Roboto-Regular'; font-size:5.5115px;"> </tspan><tspan x="35" y="0" class="st7" style="font-family:'Roboto-Regular'; font-size:5.5115px;">dolor</tspan><tspan x="47.8" y="0" class="st7" style="font-family:'Roboto-Regular'; font-size:5.5115px;"> </tspan><tspan x="49.7" y="0" class="st7" style="font-family:'Roboto-Regular'; font-size:5.5115px;">sit</tspan><tspan x="55.8" y="0" class="st7" style="font-family:'Roboto-Regular'; font-size:5.5115px;"> </tspan><tspan x="57.8" y="0" class="st7" style="font-family:'Roboto-Regular'; font-size:5.5115px;">amet,</tspan><tspan x="71.5" y="0" class="st7" style="font-family:'Roboto-Regular'; font-size:5.5115px;"> </tspan><tspan x="73.4" y="0" class="st7" style="font-family:'Roboto-Regular'; font-size:5.5115px;">consectetur </tspan><tspan x="0" y="6.6" class="st7" style="font-family:'Roboto-Regular'; font-size:5.5115px;">adipiscing</tspan><tspan x="25.5" y="6.6" class="st7" style="font-family:'Roboto-Regular'; font-size:5.5115px; letter-spacing:1;"> </tspan><tspan x="28.4" y="6.6" class="st7" style="font-family:'Roboto-Regular'; font-size:5.5115px;">elit,</tspan><tspan x="37" y="6.6" class="st7" style="font-family:'Roboto-Regular'; font-size:5.5115px; letter-spacing:1;"> </tspan><tspan x="39.9" y="6.6" class="st7" style="font-family:'Roboto-Regular'; font-size:5.5115px;">sed</tspan><tspan x="48.8" y="6.6" class="st7" style="font-family:'Roboto-Regular'; font-size:5.5115px; letter-spacing:1;"> </tspan><tspan x="51.7" y="6.6" class="st7" style="font-family:'Roboto-Regular'; font-size:5.5115px;">do</tspan><tspan x="58" y="6.6" class="st7" style="font-family:'Roboto-Regular'; font-size:5.5115px; letter-spacing:1;"> </tspan><tspan x="60.9" y="6.6" class="st7" style="font-family:'Roboto-Regular'; font-size:5.5115px;">eiusmod</tspan><tspan x="82.2" y="6.6" class="st7" style="font-family:'Roboto-Regular'; font-size:5.5115px; letter-spacing:1;"> </tspan><tspan x="85.1" y="6.6" class="st7" style="font-family:'Roboto-Regular'; font-size:5.5115px;">tempor </tspan><tspan x="0" y="13.2" class="st7" style="font-family:'Roboto-Regular'; font-size:5.5115px;">incididunt</tspan><tspan x="24.6" y="13.2" class="st7" style="font-family:'Roboto-Regular'; font-size:5.5115px; letter-spacing:2;"> </tspan><tspan x="28.6" y="13.2" class="st7" style="font-family:'Roboto-Regular'; font-size:5.5115px;">ut</tspan><tspan x="33.6" y="13.2" class="st7" style="font-family:'Roboto-Regular'; font-size:5.5115px; letter-spacing:2;"> </tspan><tspan x="37.7" y="13.2" class="st7" style="font-family:'Roboto-Regular'; font-size:5.5115px;">labore</tspan><tspan x="53.2" y="13.2" class="st7" style="font-family:'Roboto-Regular'; font-size:5.5115px; letter-spacing:2;"> </tspan><tspan x="57.3" y="13.2" class="st7" style="font-family:'Roboto-Regular'; font-size:5.5115px;">et</tspan><tspan x="62" y="13.2" class="st7" style="font-family:'Roboto-Regular'; font-size:5.5115px; letter-spacing:2;"> </tspan><tspan x="66.1" y="13.2" class="st7" style="font-family:'Roboto-Regular'; font-size:5.5115px;">dolore</tspan><tspan x="81.7" y="13.2" class="st7" style="font-family:'Roboto-Regular'; font-size:5.5115px; letter-spacing:2;"> </tspan><tspan x="85.7" y="13.2" class="st7" style="font-family:'Roboto-Regular'; font-size:5.5115px;">magna </tspan><tspan x="0" y="19.8" class="st7" style="font-family:'Roboto-Regular'; font-size:5.5115px;">aliqua.</tspan><tspan x="16.6" y="19.8" class="st7" style="font-family:'Roboto-Regular'; font-size:5.5115px; letter-spacing:1;"> </tspan><tspan x="19.4" y="19.8" class="st7" style="font-family:'Roboto-Regular'; font-size:5.5115px;">Ut</tspan><tspan x="25" y="19.8" class="st7" style="font-family:'Roboto-Regular'; font-size:5.5115px; letter-spacing:1;"> </tspan><tspan x="27.9" y="19.8" class="st7" style="font-family:'Roboto-Regular'; font-size:5.5115px;">enim</tspan><tspan x="40.1" y="19.8" class="st7" style="font-family:'Roboto-Regular'; font-size:5.5115px; letter-spacing:1;"> </tspan><tspan x="43" y="19.8" class="st7" style="font-family:'Roboto-Regular'; font-size:5.5115px;">ad</tspan><tspan x="49.1" y="19.8" class="st7" style="font-family:'Roboto-Regular'; font-size:5.5115px; letter-spacing:1;"> </tspan><tspan x="52" y="19.8" class="st7" style="font-family:'Roboto-Regular'; font-size:5.5115px;">minim</tspan><tspan x="67.5" y="19.8" class="st7" style="font-family:'Roboto-Regular'; font-size:5.5115px; letter-spacing:1;"> </tspan><tspan x="70.4" y="19.8" class="st7" style="font-family:'Roboto-Regular'; font-size:5.5115px;">veniam,</tspan><tspan x="89.5" y="19.8" class="st7" style="font-family:'Roboto-Regular'; font-size:5.5115px; letter-spacing:1;"> </tspan><tspan x="92.3" y="19.8" class="st7" style="font-family:'Roboto-Regular'; font-size:5.5115px;">quis </tspan><tspan x="0" y="26.5" class="st7" style="font-family:'Roboto-Regular'; font-size:5.5115px;">nostrud</tspan><tspan x="19.2" y="26.5" class="st7" style="font-family:'Roboto-Regular'; font-size:5.5115px;"> </tspan><tspan x="21.5" y="26.5" class="st7" style="font-family:'Roboto-Regular'; font-size:5.5115px;">exercitation</tspan><tspan x="50.6" y="26.5" class="st7" style="font-family:'Roboto-Regular'; font-size:5.5115px;"> </tspan><tspan x="52.9" y="26.5" class="st7" style="font-family:'Roboto-Regular'; font-size:5.5115px;">ullamco</tspan><tspan x="72.7" y="26.5" class="st7" style="font-family:'Roboto-Regular'; font-size:5.5115px;"> </tspan><tspan x="74.9" y="26.5" class="st7" style="font-family:'Roboto-Regular'; font-size:5.5115px;">laboris</tspan><tspan x="91.8" y="26.5" class="st7" style="font-family:'Roboto-Regular'; font-size:5.5115px;"> </tspan><tspan x="94.1" y="26.5" class="st7" style="font-family:'Roboto-Regular'; font-size:5.5115px;">nisi </tspan></text>
		<rect x="227.5" y="200.1" style="fill:none;" width="102.9" height="21.2"/>
		<text transform="matrix(1 0 0 1 227.4839 206.7813)"><tspan x="0" y="0" class="st7 st8" style="font-size:8.8184px;">Lorem ipsum dolor sit </tspan><tspan x="0" y="10.6" class="st7 st8" style="font-size:8.8184px;">amet, consectetur </tspan></text>
		<g>
			<g>
				<path class="st7" d="M208.6,186.9h-44c-8.2,0-14.8,6.7-14.8,14.8v53.8c0,8.2,6.7,14.8,14.8,14.8h44c8.2,0,14.8-6.7,14.8-14.8
					v-53.8C223.4,193.6,216.7,186.9,208.6,186.9z"/>
				<linearGradient id="SVGID_41_" gradientUnits="userSpaceOnUse" x1="152.209" y1="228.682" x2="220.9087" y2="228.682">
					<stop  offset="0" style="stop-color:#FFDFA1"/>
					<stop  offset="1" style="stop-color:#FBBE43"/>
				</linearGradient>
				<path class="st49" d="M208.6,189.4h-44c-6.8,0-12.3,5.5-12.3,12.3v53.8c0,6.8,5.5,12.3,12.3,12.3h44c6.8,0,12.3-5.5,12.3-12.3
					v-53.8C220.9,195,215.4,189.4,208.6,189.4z"/>
				<linearGradient id="SVGID_42_" gradientUnits="userSpaceOnUse" x1="156.709" y1="228.682" x2="216.4087" y2="228.682">
					<stop  offset="0" style="stop-color:#FBBE43"/>
					<stop  offset="1" style="stop-color:#FFDFA1"/>
				</linearGradient>
				<path class="st50" d="M208.6,193.9h-44c-4.3,0-7.8,3.5-7.8,7.8v53.8c0,4.3,3.5,7.8,7.8,7.8h44c4.3,0,7.8-3.5,7.8-7.8v-53.8
					C216.4,197.5,212.9,193.9,208.6,193.9z"/>
				<path class="st5" d="M208.6,260.4c2.7,0,4.8-2.2,4.8-4.8v-53.8c0-2.7-2.2-4.8-4.8-4.8h-44c-2.7,0-4.8,2.2-4.8,4.8v53.8
					c0,2.7,2.2,4.8,4.8,4.8H208.6z"/>
			</g>
			<g>
				<polygon class="st7" points="207.9,208.2 207.3,214.5 195.2,214.5 195.2,227.1 206.4,225.5 204.7,244.8 188.9,249.2 
					188.9,241.9 199.6,239 200,233.1 188.9,235 188.9,208.2 				"/>
				<polygon class="st7" points="182.6,208.2 182.6,249.2 165.3,244.4 165.3,236.6 176.3,239.6 176.3,208.2 				"/>
			</g>
		</g>
	</g>
</g>
<g id="Boton_Search_e_Voltar" class="st0">
	<g class="st1">
		<circle class="st7" cx="180.6" cy="96.3" r="14.3"/>
		
			<linearGradient id="SVGID_43_" gradientUnits="userSpaceOnUse" x1="167.2464" y1="-806.9269" x2="193.9016" y2="-806.9269" gradientTransform="matrix(1 0 0 -1 0 -710.5957)">
			<stop  offset="0" style="stop-color:#EF7852"/>
			<stop  offset="1" style="stop-color:#EB5C2C"/>
		</linearGradient>
		<circle class="st51" cx="180.6" cy="96.3" r="13.3"/>
		
			<linearGradient id="SVGID_44_" gradientUnits="userSpaceOnUse" x1="169.4676" y1="-806.9269" x2="191.6804" y2="-806.9269" gradientTransform="matrix(1 0 0 -1 0 -710.5957)">
			<stop  offset="0" style="stop-color:#EB5C2C"/>
			<stop  offset="1" style="stop-color:#EF7852"/>
		</linearGradient>
		<path class="st52" d="M180.6,107.4c-6.1,0-11.1-5-11.1-11.1c0-6.1,5-11.1,11.1-11.1c6.1,0,11.1,5,11.1,11.1
			C191.7,102.5,186.7,107.4,180.6,107.4z"/>
		<path class="st7" d="M178.5,91.1c0.1-0.1,0.2-0.3,0.3-0.2c0.1,0.1,0.1,0.2,0.1,0.4c0,0.9,0,1.9,0,2.8c0,0.3,0.1,0.4,0.4,0.5
			c2.6,0.2,5,1.1,7.1,2.7c0.4,0.4,0.8,0.8,1.1,1.3c0.1,0.2,0.2,0.4,0.1,0.5c-0.2,0.2-0.4,0.1-0.5,0c-0.9-0.4-1.7-0.8-2.6-0.9
			c-1.7-0.3-3.4-0.2-5.1-0.1c-0.3,0-0.3,0.2-0.3,0.4c-0.1,1.1-0.1,2.2-0.2,3.3c-0.2,0-0.3-0.2-0.3-0.2c-1.6-1.6-3.2-3.3-4.8-4.9
			c-0.3-0.3-0.3-0.4,0-0.7C175.3,94.3,176.9,92.7,178.5,91.1z"/>
	</g>
	<g class="st1">
		<g>
			<g>
				<path class="st7" d="M330.6,82H220.2c-7.1,0-12.8,6.4-12.8,14.3v0c0,7.9,5.7,14.3,12.8,14.3h110.5c7.1,0,12.8-6.4,12.8-14.3v0
					C343.4,88.4,337.7,82,330.6,82z"/>
				<linearGradient id="SVGID_45_" gradientUnits="userSpaceOnUse" x1="212.246" y1="96.6183" x2="406.8419" y2="95.7338">
					<stop  offset="0" style="stop-color:#222222"/>
					<stop  offset="0.261" style="stop-color:#202021"/>
					<stop  offset="0.4177" style="stop-color:#1B1B1C"/>
					<stop  offset="0.5465" style="stop-color:#121213"/>
					<stop  offset="0.5899" style="stop-color:#0D0E0E"/>
				</linearGradient>
				<path class="st53" d="M330.6,82.9H220.3c-6.6,0-12,6-12,13.5v0c0,7.4,5.4,13.5,12,13.5h110.3c6.6,0,12-6,12-13.5v0
					C342.6,88.9,337.2,82.9,330.6,82.9z"/>
				<linearGradient id="SVGID_46_" gradientUnits="userSpaceOnUse" x1="210.1159" y1="96.3315" x2="357.9821" y2="96.3315">
					<stop  offset="0" style="stop-color:#0D0E0E"/>
					<stop  offset="5.068219e-02" style="stop-color:#111212"/>
					<stop  offset="0.2146" style="stop-color:#1B1B1C"/>
					<stop  offset="0.4115" style="stop-color:#202020"/>
					<stop  offset="0.727" style="stop-color:#222222"/>
				</linearGradient>
				<path class="st54" d="M340.7,96.3c0-6.4-4.6-11.6-10.2-11.6H220.4c-5.6,0-10.2,5.2-10.2,11.6c0,6.4,4.6,11.6,10.2,11.6h110.1
					C336.1,107.9,340.7,102.7,340.7,96.3z"/>
			</g>
			<g>
				<circle class="st7" cx="329.1" cy="96.3" r="14.3"/>
				
					<linearGradient id="SVGID_47_" gradientUnits="userSpaceOnUse" x1="315.7854" y1="-806.9269" x2="342.4407" y2="-806.9269" gradientTransform="matrix(1 0 0 -1 0 -710.5957)">
					<stop  offset="0" style="stop-color:#EF7852"/>
					<stop  offset="1" style="stop-color:#EB5C2C"/>
				</linearGradient>
				<circle class="st55" cx="329.1" cy="96.3" r="13.3"/>
				
					<linearGradient id="SVGID_48_" gradientUnits="userSpaceOnUse" x1="318.0067" y1="-806.9269" x2="340.2194" y2="-806.9269" gradientTransform="matrix(1 0 0 -1 0 -710.5957)">
					<stop  offset="0" style="stop-color:#EB5C2C"/>
					<stop  offset="1" style="stop-color:#EF7852"/>
				</linearGradient>
				<path class="st56" d="M329.1,107.4c-6.1,0-11.1-5-11.1-11.1c0-6.1,5-11.1,11.1-11.1c6.1,0,11.1,5,11.1,11.1
					C340.2,102.5,335.2,107.4,329.1,107.4z"/>
				<g>
					<path class="st7" d="M327.9,89.7c-3,0-5.4,2.4-5.4,5.4s2.4,5.4,5.4,5.4c3,0,5.4-2.4,5.4-5.4C333.4,92.1,330.9,89.7,327.9,89.7z
						 M327.9,98.7c-2,0-3.5-1.6-3.5-3.5s1.6-3.5,3.5-3.5s3.5,1.6,3.5,3.5C331.5,97.1,329.9,98.7,327.9,98.7z"/>
					<path class="st7" d="M335.5,101.3l-1.9-1.9c-0.4-0.4-1-0.4-1.3,0c-0.4,0.4-0.4,1,0,1.3l1.9,1.9c0.4,0.4,1,0.4,1.3,0
						C335.8,102.3,335.8,101.7,335.5,101.3z"/>
				</g>
			</g>
		</g>
		<text transform="matrix(1.11 0 0 1 219.3988 99.2538)" class="st7" style="font-family:'Roboto-Thin'; font-size:10px;">Search</text>
	</g>
</g>
<g id="Botons_Like_e_Coments" class="st0">
	<g class="st1">
		<g>
			<circle class="st7" cx="322.1" cy="94.8" r="14.3"/>
			
				<linearGradient id="SVGID_49_" gradientUnits="userSpaceOnUse" x1="308.7236" y1="-805.4193" x2="335.3788" y2="-805.4193" gradientTransform="matrix(1 0 0 -1 0 -710.5957)">
				<stop  offset="0" style="stop-color:#EF7852"/>
				<stop  offset="1" style="stop-color:#EB5C2C"/>
			</linearGradient>
			<circle class="st57" cx="322.1" cy="94.8" r="13.3"/>
			
				<linearGradient id="SVGID_50_" gradientUnits="userSpaceOnUse" x1="310.9448" y1="-805.4193" x2="333.1576" y2="-805.4193" gradientTransform="matrix(1 0 0 -1 0 -710.5957)">
				<stop  offset="0" style="stop-color:#EB5C2C"/>
				<stop  offset="1" style="stop-color:#EF7852"/>
			</linearGradient>
			<path class="st58" d="M322.1,105.9c-6.1,0-11.1-5-11.1-11.1c0-6.1,5-11.1,11.1-11.1c6.1,0,11.1,5,11.1,11.1
				C333.2,100.9,328.2,105.9,322.1,105.9z"/>
			<path class="st7" d="M315.8,89.2v9.1h4l2.2,2.2l2.2-2.2h4v-9.1H315.8z M318.6,94.7c-0.5,0-1-0.4-1-1c0-0.5,0.4-1,1-1s1,0.4,1,1
				C319.5,94.3,319.1,94.7,318.6,94.7z M322.1,94.7c-0.5,0-1-0.4-1-1c0-0.5,0.4-1,1-1s1,0.4,1,1C323,94.3,322.6,94.7,322.1,94.7z
				 M325.5,94.7c-0.5,0-1-0.4-1-1c0-0.5,0.4-1,1-1c0.5,0,1,0.4,1,1C326.5,94.3,326.1,94.7,325.5,94.7z"/>
		</g>
		<g>
			<circle class="st7" cx="232.1" cy="94.8" r="14.3"/>
			
				<linearGradient id="SVGID_51_" gradientUnits="userSpaceOnUse" x1="218.7729" y1="-805.4193" x2="245.4282" y2="-805.4193" gradientTransform="matrix(1 0 0 -1 0 -710.5957)">
				<stop  offset="0" style="stop-color:#EF7852"/>
				<stop  offset="1" style="stop-color:#EB5C2C"/>
			</linearGradient>
			<circle class="st59" cx="232.1" cy="94.8" r="13.3"/>
			
				<linearGradient id="SVGID_52_" gradientUnits="userSpaceOnUse" x1="220.9942" y1="-805.4193" x2="243.2069" y2="-805.4193" gradientTransform="matrix(1 0 0 -1 0 -710.5957)">
				<stop  offset="0" style="stop-color:#EB5C2C"/>
				<stop  offset="1" style="stop-color:#EF7852"/>
			</linearGradient>
			<path class="st60" d="M232.1,105.9c-6.1,0-11.1-5-11.1-11.1c0-6.1,5-11.1,11.1-11.1c6.1,0,11.1,5,11.1,11.1
				C243.2,100.9,238.2,105.9,232.1,105.9z"/>
			<polygon class="st7" points="230.7,96.1 226.8,96.1 226.8,93.4 230.7,93.4 230.7,89.2 233.6,89.2 233.6,93.4 237.4,93.4 
				237.4,96.1 233.6,96.1 233.6,100.4 230.7,100.4 			"/>
		</g>
		<g>
			<circle class="st7" cx="187.1" cy="94.8" r="14.3"/>
			
				<linearGradient id="SVGID_53_" gradientUnits="userSpaceOnUse" x1="173.7976" y1="-805.4193" x2="200.4529" y2="-805.4193" gradientTransform="matrix(1 0 0 -1 0 -710.5957)">
				<stop  offset="0" style="stop-color:#EF7852"/>
				<stop  offset="1" style="stop-color:#EB5C2C"/>
			</linearGradient>
			<circle class="st61" cx="187.1" cy="94.8" r="13.3"/>
			
				<linearGradient id="SVGID_54_" gradientUnits="userSpaceOnUse" x1="176.0189" y1="-805.4193" x2="198.2316" y2="-805.4193" gradientTransform="matrix(1 0 0 -1 0 -710.5957)">
				<stop  offset="0" style="stop-color:#EB5C2C"/>
				<stop  offset="1" style="stop-color:#EF7852"/>
			</linearGradient>
			<path class="st62" d="M187.1,105.9c-6.1,0-11.1-5-11.1-11.1c0-6.1,5-11.1,11.1-11.1c6.1,0,11.1,5,11.1,11.1
				C198.2,100.9,193.2,105.9,187.1,105.9z"/>
			<path class="st7" d="M185.1,89.6c0.1-0.1,0.2-0.3,0.3-0.2c0.1,0.1,0.1,0.2,0.1,0.4c0,0.9,0,1.9,0,2.8c0,0.3,0.1,0.4,0.4,0.5
				c2.6,0.2,5,1.1,7.1,2.7c0.4,0.4,0.8,0.8,1.1,1.3c0.1,0.2,0.2,0.4,0.1,0.5c-0.2,0.2-0.4,0.1-0.5,0c-0.9-0.4-1.7-0.8-2.6-0.9
				c-1.7-0.3-3.4-0.2-5.1-0.1c-0.3,0-0.3,0.2-0.3,0.4c-0.1,1.1-0.1,2.2-0.2,3.3c-0.2,0-0.3-0.2-0.3-0.2c-1.6-1.6-3.2-3.3-4.8-4.9
				c-0.3-0.3-0.3-0.4,0-0.7C181.8,92.8,183.5,91.2,185.1,89.6z"/>
		</g>
		<g>
			<circle class="st7" cx="277.1" cy="94.8" r="14.3"/>
			
				<linearGradient id="SVGID_55_" gradientUnits="userSpaceOnUse" x1="263.7483" y1="-805.4193" x2="290.4035" y2="-805.4193" gradientTransform="matrix(1 0 0 -1 0 -710.5957)">
				<stop  offset="0" style="stop-color:#EF7852"/>
				<stop  offset="1" style="stop-color:#EB5C2C"/>
			</linearGradient>
			<circle class="st63" cx="277.1" cy="94.8" r="13.3"/>
			
				<linearGradient id="SVGID_56_" gradientUnits="userSpaceOnUse" x1="265.9695" y1="-805.4193" x2="288.1823" y2="-805.4193" gradientTransform="matrix(1 0 0 -1 0 -710.5957)">
				<stop  offset="0" style="stop-color:#EB5C2C"/>
				<stop  offset="1" style="stop-color:#EF7852"/>
			</linearGradient>
			<path class="st64" d="M277.1,105.9c-6.1,0-11.1-5-11.1-11.1c0-6.1,5-11.1,11.1-11.1c6.1,0,11.1,5,11.1,11.1
				C288.2,100.9,283.2,105.9,277.1,105.9z"/>
			<path class="st7" d="M279.1,88.5c-0.6-0.7-1.6-0.3-1.9,0.5c-0.2,0.6-0.5,1.4-0.8,1.9c-0.8,1.7-1.3,2.6-2.6,3.8
				c-0.2,0.2-0.4,0.3-0.7,0.4c-0.9,0.3-1.7,1.3-1.5,2.3l0.3,1.4c0.1,0.7,0.7,1.3,1.4,1.5l4.4,1.2c2,0.5,4-0.7,4.4-2.8l0.5-2.9
				c0.3-1.4-0.8-2.8-2.3-2.8h-0.7l0,0c0.1-0.3,0.1-0.8,0.2-1.2c0-0.5,0.1-1,0-1.5c0-0.5-0.1-1-0.4-1.3
				C279.3,88.7,279.2,88.6,279.1,88.5z"/>
		</g>
	</g>
</g>
<g id="Img_Html" class="st0">
	<g class="st1">
		
			<image style="overflow:visible;" width="1193" height="624" xlink:href="51E4F82F.jpg"  transform="matrix(0.1296 0 0 0.1296 167.0677 122.5759)">
		</image>
		
			<image style="overflow:visible;" width="1193" height="624" xlink:href="51E4F82D.jpg"  transform="matrix(0.1296 0 0 0.1296 202.1266 122.5759)">
		</image>
		
			<image style="overflow:visible;" width="1193" height="624" xlink:href="51E4F833.jpg"  transform="matrix(0.1296 0 0 0.1296 181.9167 122.5759)">
		</image>
	</g>
</g>
</svg>
