<?xml version="1.0" encoding="utf-8"?>
<!-- Generator: Adobe Illustrator 24.2.1, SVG Export Plug-In . SVG Version: 6.00 Build 0)  -->
<svg version="1.1" xmlns="http://www.w3.org/2000/svg" xmlns:xlink="http://www.w3.org/1999/xlink" x="0px" y="0px"
	 viewBox="0 0 569.9 351.5" style="enable-background:new 0 0 569.9 351.5;" xml:space="preserve">
<style type="text/css">
	.st0{fill:#FFFFFF;}
	.st1{fill:#F0825D;}
	.st2{display:none;}
	.st3{display:inline;fill:#FFFFFF;}
	.st4{display:inline;}
	.st5{fill:url(#SVGID_1_);}
	.st6{fill:none;stroke:#FFFFFF;stroke-miterlimit:10;}
	.st7{fill:url(#SVGID_2_);}
	.st8{fill:url(#SVGID_3_);}
	.st9{fill:url(#SVGID_4_);}
	.st10{fill:url(#SVGID_5_);}
	.st11{fill:url(#SVGID_6_);}
	.st12{fill:url(#SVGID_7_);}
	.st13{fill:url(#SVGID_8_);}
	.st14{fill:url(#SVGID_9_);}
	.st15{fill:url(#SVGID_10_);}
	.st16{fill:url(#SVGID_11_);}
	.st17{fill:url(#SVGID_12_);}
	.st18{fill:url(#SVGID_13_);}
	.st19{fill:url(#SVGID_14_);}
	.st20{fill:url(#SVGID_15_);}
	.st21{fill:url(#SVGID_16_);}
	.st22{fill:url(#SVGID_17_);}
	.st23{fill:url(#SVGID_18_);}
	.st24{fill:url(#SVGID_19_);}
	.st25{fill:url(#SVGID_20_);}
	.st26{fill:url(#SVGID_21_);}
	.st27{fill:url(#SVGID_22_);}
	.st28{fill:url(#SVGID_23_);}
	.st29{fill:url(#SVGID_24_);}
	.st30{fill-rule:evenodd;clip-rule:evenodd;fill:#FFFFFF;}
	.st31{fill:url(#SVGID_25_);}
	.st32{fill:url(#SVGID_26_);}
	.st33{fill:url(#SVGID_27_);}
	.st34{fill:url(#SVGID_28_);}
	.st35{fill:url(#SVGID_29_);}
	.st36{fill:url(#SVGID_30_);}
	.st37{fill:url(#SVGID_31_);}
	.st38{fill:url(#SVGID_32_);}
	.st39{fill:url(#SVGID_33_);}
	.st40{fill:url(#SVGID_34_);}
	.st41{fill:url(#SVGID_35_);}
	.st42{fill:url(#SVGID_36_);}
	.st43{fill:url(#SVGID_37_);}
	.st44{fill:url(#SVGID_38_);}
	.st45{fill:url(#SVGID_39_);}
	.st46{fill:url(#SVGID_40_);}
	.st47{fill:url(#SVGID_41_);}
	.st48{fill:url(#SVGID_42_);}
	.st49{fill:url(#SVGID_43_);}
	.st50{fill:url(#SVGID_44_);}
	.st51{fill:url(#SVGID_45_);}
	.st52{fill:url(#SVGID_46_);}
	.st53{fill:url(#SVGID_47_);}
	.st54{fill:url(#SVGID_48_);}
	.st55{fill:url(#SVGID_49_);}
	.st56{fill:url(#SVGID_50_);}
	.st57{fill:url(#SVGID_51_);}
	.st58{fill:url(#SVGID_52_);}
	.st59{fill:url(#SVGID_53_);}
	.st60{fill:url(#SVGID_54_);}
	.st61{fill:url(#SVGID_55_);}
	.st62{fill:url(#SVGID_56_);}
</style>
<g id="Logo">
	<g>
		<g>
			<path class="st0" d="M36.7,107.5v3.8h-5.1V130h-4.1v-18.7h-5.1v-3.8H36.7z"/>
			<path class="st0" d="M47.4,113.4c1.1,0,2.1,0.6,2.8,1.7c0.3,0.4,0.5,0.9,0.6,1.5c0.1,0.6,0.2,1,0.2,1.4c0,0.4,0,0.9,0,1.6V130
				h-4.1v-10.5c0-0.9-0.1-1.4-0.2-1.7c-0.2-0.4-0.5-0.5-0.8-0.5c-0.3,0-0.6,0.2-0.8,0.5c-0.2,0.3-0.2,0.9-0.2,1.7V130h-4.1v-22.5
				h4.1v7.1H45c0.3-0.4,0.7-0.7,1.1-0.9C46.5,113.5,47,113.4,47.4,113.4z"/>
			<path class="st0" d="M62.3,113.4c1.2,0,2.3,0.3,3.2,0.9c0.9,0.6,1.5,1.4,1.9,2.3c0.2,0.5,0.3,1,0.4,1.6c0.1,0.6,0.1,1.2,0.2,1.6
				c0,0.5,0,1.1,0,2v1.9h-7.1c0,0.9,0.1,1.5,0.2,1.8c0.3,0.6,0.8,0.8,1.6,0.8c1.2,0,2.8-0.1,4.8-0.3v3.8c-1.9,0.2-3.5,0.3-4.8,0.3
				c-1.3,0-2.4-0.3-3.3-0.9c-0.9-0.6-1.6-1.4-2-2.4c-0.3-0.7-0.5-1.4-0.5-2.2c-0.1-0.8-0.1-1.7-0.1-2.9c0-1.2,0-2.2,0.1-3
				c0.1-0.8,0.2-1.5,0.5-2.2c0.4-0.9,1-1.7,1.8-2.3C59.9,113.7,61,113.4,62.3,113.4z M62.3,117.2c-0.2,0-0.3,0-0.5,0.1
				c-0.1,0-0.3,0.1-0.4,0.2c-0.1,0.1-0.2,0.2-0.3,0.3c-0.1,0.1-0.1,0.2-0.2,0.4s-0.1,0.3-0.1,0.4c0,0.1,0,0.3-0.1,0.5s0,0.4,0,0.5
				s0,0.3,0,0.6h3.1c0-1.1-0.1-1.8-0.3-2.2C63.3,117.5,62.9,117.2,62.3,117.2z"/>
			<path class="st0" d="M94.7,130.3c-1.7,0-3.7-0.2-5.9-0.5v-3.9c2.6,0.4,4.5,0.6,5.9,0.6c1.9,0,2.8-1,2.8-3c0-0.6-0.1-1.1-0.4-1.6
				s-0.7-0.9-1.1-1c-0.3-0.1-0.7-0.2-1.3-0.3c-0.5-0.1-1.1-0.2-1.7-0.3c-0.6-0.1-1.1-0.4-1.6-0.7c-2-1.2-3-3.1-3-5.7
				c0-1.8,0.6-3.4,1.8-4.6c1.2-1.3,2.7-1.9,4.5-1.9c1.4,0,3.4,0.1,5.9,0.4v3.9c-2.6-0.3-4.6-0.4-5.9-0.4c-0.4,0-0.8,0.1-1.1,0.3
				c-0.3,0.2-0.5,0.4-0.7,0.7c-0.2,0.3-0.3,0.6-0.3,0.9s-0.1,0.6-0.1,0.9c0,1.3,0.4,2.1,1.3,2.5c0.3,0.1,0.9,0.3,1.9,0.4
				c1,0.2,1.8,0.4,2.4,0.7c0.9,0.4,1.6,1,2.1,1.7c0.6,0.7,0.9,1.4,1.2,2.1s0.3,1.4,0.3,2.2c0,2.1-0.6,3.7-1.9,5
				S96.7,130.3,94.7,130.3z"/>
			<path class="st0" d="M113.1,113.4c0.8,0,1.5,0.3,2.1,1c0.6,0.7,1.1,1.6,1.4,2.8c0.2,1,0.3,2.5,0.3,4.6c0,2.1-0.1,3.7-0.3,4.6
				c-0.3,1.2-0.7,2.1-1.4,2.8c-0.6,0.7-1.3,1-2.1,1c-1.2,0-2.1-0.4-2.7-1.3h-0.1v7.2h-4.1v-22.5h4.1v1h0.1
				C111,113.8,111.9,113.4,113.1,113.4z M112.3,117.7c-0.2-0.3-0.4-0.5-0.7-0.5c-0.3,0-0.5,0.2-0.7,0.5s-0.3,0.7-0.4,1.2
				c-0.1,0.6-0.2,1.5-0.2,2.9s0.1,2.3,0.2,2.9c0.1,0.5,0.2,0.9,0.4,1.2s0.4,0.5,0.7,0.5c0.3,0,0.5-0.2,0.7-0.5
				c0.2-0.3,0.3-0.7,0.4-1.2c0.1-0.6,0.2-1.5,0.2-2.9s-0.1-2.3-0.2-2.9C112.6,118.4,112.5,118,112.3,117.7z"/>
			<path class="st0" d="M128.2,113.4c0.9,0,1.7,0.1,2.4,0.4c0.7,0.3,1.3,0.8,1.7,1.6c0.3,0.6,0.5,1.4,0.5,2.6v12h-4.1v-0.8h-0.2
				c-0.6,0.7-1.4,1.1-2.3,1.1c-1.1,0-2.1-0.5-3-1.5c-0.8-1-1.3-2.2-1.3-3.6c0-1.6,0.5-2.9,1.4-3.9c0.3-0.4,0.7-0.7,1.1-0.9
				c0.4-0.2,0.8-0.4,1.2-0.5s0.7-0.1,1-0.2c0.3,0,0.6,0,0.9,0h1.1v-1.7c0-0.2-0.1-0.4-0.3-0.6c-0.2-0.2-0.4-0.3-0.7-0.3
				c-1,0-2.4,0.1-4.1,0.3v-3.9C125.4,113.5,126.9,113.4,128.2,113.4z M128.7,123.3h-1.1c-0.5,0-0.9,0.2-1.1,0.5
				c-0.2,0.3-0.3,0.8-0.3,1.4c0,0.4,0.1,0.7,0.3,0.9c0.2,0.2,0.4,0.4,0.7,0.4c0.4,0,0.7-0.1,0.9-0.3c0.2-0.2,0.4-0.4,0.5-0.8
				c0.1-0.3,0.1-0.6,0.2-0.9s0-0.5,0-0.9V123.3z"/>
			<path class="st0" d="M138.6,124.8c-0.1-0.8-0.1-1.7-0.1-2.9s0-2.2,0.1-2.9c0.1-0.8,0.3-1.5,0.6-2.2c1-2.2,2.8-3.3,5.4-3.3
				c1.2,0,2.7,0.1,4.5,0.3v3.8c-1.8-0.2-3.3-0.3-4.5-0.3c-0.5,0-0.8,0.1-1.1,0.4c-0.3,0.2-0.5,0.6-0.7,1.1c-0.2,0.6-0.3,1.6-0.3,3.1
				s0.1,2.6,0.3,3.1c0.2,0.5,0.4,0.9,0.7,1.1c0.3,0.2,0.6,0.4,1.1,0.4c1.2,0,2.8-0.1,4.6-0.4v3.8c-1.8,0.3-3.4,0.4-4.6,0.4
				c-2.6,0-4.4-1.1-5.4-3.3C138.8,126.3,138.6,125.5,138.6,124.8z"/>
			<path class="st0" d="M160.4,113.4c1.2,0,2.3,0.3,3.2,0.9c0.9,0.6,1.5,1.4,1.9,2.3c0.2,0.5,0.3,1,0.4,1.6c0.1,0.6,0.1,1.2,0.2,1.6
				c0,0.5,0,1.1,0,2v1.9h-7.1c0,0.9,0.1,1.5,0.2,1.8c0.3,0.6,0.8,0.8,1.6,0.8c1.2,0,2.8-0.1,4.8-0.3v3.8c-1.9,0.2-3.5,0.3-4.8,0.3
				c-1.3,0-2.4-0.3-3.3-0.9c-0.9-0.6-1.6-1.4-2-2.4c-0.3-0.7-0.5-1.4-0.5-2.2c-0.1-0.8-0.1-1.7-0.1-2.9c0-1.2,0-2.2,0.1-3
				c0.1-0.8,0.2-1.5,0.5-2.2c0.4-0.9,1-1.7,1.8-2.3C158.1,113.7,159.2,113.4,160.4,113.4z M160.4,117.2c-0.2,0-0.3,0-0.5,0.1
				c-0.1,0-0.3,0.1-0.4,0.2c-0.1,0.1-0.2,0.2-0.3,0.3c-0.1,0.1-0.1,0.2-0.2,0.4s-0.1,0.3-0.1,0.4c0,0.1,0,0.3-0.1,0.5s0,0.4,0,0.5
				s0,0.3,0,0.6h3.1c0-1.1-0.1-1.8-0.3-2.2C161.5,117.5,161.1,117.2,160.4,117.2z"/>
			<path class="st0" d="M190.5,114.1c0.8-0.5,1.7-0.7,2.7-0.7c1,0,1.9,0.2,2.7,0.7c0.8,0.5,1.4,1.1,1.9,1.9c0.4,0.7,0.7,1.5,0.8,2.4
				c0.1,0.9,0.2,2.1,0.2,3.5s-0.1,2.5-0.2,3.5c-0.1,0.9-0.4,1.7-0.8,2.4c-0.5,0.8-1.1,1.4-1.9,1.9c-0.8,0.5-1.7,0.7-2.7,0.7
				c-1,0-1.9-0.2-2.7-0.7c-0.8-0.5-1.4-1.1-1.9-1.9c-0.4-0.7-0.7-1.5-0.8-2.4c-0.1-0.9-0.2-2.1-0.2-3.5s0.1-2.5,0.2-3.5
				c0.1-0.9,0.4-1.7,0.8-2.4C189.1,115.1,189.7,114.5,190.5,114.1z M193.1,117.2c-0.5,0-0.9,0.4-1.2,1.1c-0.2,0.6-0.3,1.8-0.3,3.5
				s0.1,2.9,0.3,3.5c0.3,0.7,0.7,1.1,1.2,1.1c0.5,0,0.9-0.4,1.2-1.1c0.2-0.6,0.3-1.8,0.3-3.5s-0.1-2.9-0.3-3.5
				C194.1,117.6,193.7,117.2,193.1,117.2z"/>
			<path class="st0" d="M211.6,130h-4.1v-10.5h-4.1v-3.8h4.1V112c0-0.4,0-0.7,0-1c0-0.3,0.1-0.6,0.3-1c0.2-0.4,0.4-0.8,0.7-1.2
				c0.4-0.5,1-0.9,1.8-1.1c0.8-0.3,1.6-0.4,2.5-0.4c0.9,0,1.8,0,2.8,0.1v3.8c-1.1-0.1-1.9-0.1-2.5-0.1c-0.2,0-0.4,0-0.6,0
				c-0.1,0-0.3,0.1-0.5,0.2c-0.2,0.1-0.3,0.2-0.4,0.5c-0.1,0.2-0.1,0.5-0.1,0.8v3.1h4.1v3.8h-4.1V130z"/>
		</g>
		<g>
			<path class="st0" d="M30.6,190.6h-6.7h-6.7h-6.7v-6.7v-6.7v-6.7v-6.7v-6.7v-6.7h6.7h6.7h6.7h6.7h6.7v6.7v6.7v6.7v6.7v6.7h-6.7
				v6.7H30.6z M30.6,183.9v-6.7v-6.7v-6.7v-6.7h-6.7v6.7v6.7v6.7v6.7H30.6z"/>
			<path class="st0" d="M77.9,183.9h6.7v6.7h-6.7h-6.7h-6.7h-6.7h-6.7v-6.7v-6.7v-6.7v-6.7v-6.7v-6.7h6.7h6.7h6.7h6.7h6.7v6.7v6.7
				v6.7v6.7h-6.7h-6.7h-6.7v6.7h6.7H77.9z M71.1,170.4v-6.7v-6.7h-6.7v6.7v6.7H71.1z"/>
			<path class="st0" d="M118.3,190.6h-6.7h-6.7h-6.7v-6.7h-6.7v-6.7v-6.7v-6.7v-6.7v-6.7h6.7h6.7v6.7v6.7v6.7v6.7v6.7h6.7v-6.7v-6.7
				v-6.7v-6.7v-6.7h6.7h6.7v6.7v6.7v6.7v6.7v6.7v6.7H118.3z"/>
			<path class="st0" d="M158.8,183.9h6.7v6.7h-6.7h-6.7h-6.7h-6.7h-6.7v-6.7v-6.7v-6.7v-6.7v-6.7v-6.7h6.7h6.7h6.7h6.7h6.7v6.7v6.7
				v6.7v6.7h-6.7h-6.7h-6.7v6.7h6.7H158.8z M152.1,170.4v-6.7v-6.7h-6.7v6.7v6.7H152.1z"/>
			<path class="st0" d="M185.8,190.6h-6.7h-6.7v-6.7v-6.7v-6.7v-6.7v-6.7v-6.7h6.7h6.7v6.7v6.7v6.7v6.7v6.7h6.7v6.7H185.8z"/>
			<path class="st0" d="M226.3,190.6h-6.7h-6.7H206h-6.7v-6.7v-6.7v-6.7v-6.7v-6.7v-6.7h6.7h6.7h6.7h6.7h6.7v6.7v6.7v6.7v6.7v6.7
				v6.7H226.3z M219.5,183.9v-6.7v-6.7v-6.7v-6.7h-6.7v6.7v6.7v6.7v6.7H219.5z"/>
			<path class="st0" d="M246.5,204.1h-6.7v-6.7v-6.7v-6.7v-6.7v-6.7v-6.7v-6.7v-6.7h6.7h6.7h6.7h6.7h6.7v6.7v6.7v6.7v6.7v6.7v6.7
				h-6.7H260h-6.7v6.7v6.7H246.5z M260,183.9v-6.7v-6.7v-6.7v-6.7h-6.7v6.7v6.7v6.7v6.7H260z"/>
			<path class="st0" d="M307.2,183.9h6.7v6.7h-6.7h-6.7h-6.7H287h-6.7v-6.7v-6.7v-6.7v-6.7v-6.7v-6.7h6.7h6.7h6.7h6.7h6.7v6.7v6.7
				v6.7v6.7h-6.7h-6.7h-6.7v6.7h6.7H307.2z M300.5,170.4v-6.7v-6.7h-6.7v6.7v6.7H300.5z"/>
			<path class="st0" d="M327.5,190.6h-6.7v-6.7v-6.7v-6.7v-6.7v-6.7v-6.7h6.7h6.7h6.7h6.7h6.7v6.7v6.7h-6.7H341v-6.7h-6.7v6.7v6.7
				v6.7v6.7v6.7H327.5z"/>
			<path class="st0" d="M388.2,190.6h-6.7h-6.7H368h-6.7v-6.7v-6.7h6.7h6.7v6.7h6.7v-6.7v-6.7h-6.7H368h-6.7v-6.7v-6.7v-6.7h6.7h6.7
				h6.7h6.7h6.7v6.7h-6.7h-6.7h-6.7v6.7h6.7h6.7h6.7v6.7v6.7v6.7v6.7H388.2z"/>
		</g>
		<g>
			<g>
				<path class="st1" d="M383.5,241.9c-16.8,0-32.3-6-44.4-16.1l-6.3,9.7c13.9,11.2,31.5,17.9,50.6,17.9c19.2,0,36.8-6.7,50.6-17.9
					l-8-8.3C414.4,236.4,399.6,241.9,383.5,241.9z"/>
			</g>
			<g>
				<path class="st1" d="M448.3,197.5l10.9,3.7c0.9-2.3,1.7-4.7,2.3-7.2l-10.8-4C450,192.6,449.2,195,448.3,197.5z"/>
			</g>
			<g>
				<path class="st1" d="M383.5,91.6c-23.4,0-44.6,10-59.4,26l6.7,9.7c12.7-14.8,31.6-24.3,52.7-24.3c38.3,0,69.4,31.2,69.4,69.4
					c0,4.6-0.5,9.2-1.3,13.5l11.2,2.4c1-5.2,1.6-10.5,1.6-16C464.4,127.9,428.1,91.6,383.5,91.6z"/>
			</g>
		</g>
		<g>
			<g>
				<path class="st1" d="M382.8,296.9c-50.7,0-94.8-28.2-116.1-69.2c-3.2,1.2-6.9,2.8-10.7,4.3c23.1,45.2,71.2,76.4,126.8,76.4
					c14.6,0,28.6-2.1,41.9-6.1c-1.2-3.7-2.4-7.8-3.4-11C409.1,294.9,396.2,296.9,382.8,296.9z"/>
			</g>
			<g>
				<path class="st1" d="M445.2,49.1c-0.6,3.4-1.6,8-2.4,11.6c41.5,20.9,69.9,62.8,69.9,111c0,50.7-31.5,94.5-76.6,114.1l4.5,10.5
					c49.2-21.4,83.6-69.2,83.6-124.7C524.2,117.9,491.9,71.4,445.2,49.1z"/>
			</g>
			<g>
				<path class="st1" d="M382.8,46.5c7,0,13.9,0.6,20.6,1.6l-4.8-12.2c-5.2-0.6-10.4-0.9-15.7-0.9c-56.2,0-104.9,31.9-127.6,78
					l8.2,9.6C283.2,77.8,329.3,46.5,382.8,46.5z"/>
			</g>
			<g>
				<path class="st1" d="M417.2,50.9c0.4-3.6,0.9-8.1,1.3-11.5c-4.5-1.1-9.1-2.1-13.8-2.8l5.5,12.7
					C412.5,49.8,414.9,50.3,417.2,50.9z"/>
			</g>
		</g>
		<g>
			<g>
				<path class="st1" d="M240.1,236.5c-2.4,1.9-5.2,4.1-7.9,6.2c1.8,3.5,3.7,7,5.7,10.4c2.8-2.3,5.8-4.6,7.7-6.3
					C243.7,243.4,241.8,240,240.1,236.5z"/>
			</g>
			<g>
				<path class="st1" d="M381.9,324.4c-54.5,0-102.6-27.4-130.7-68.9l-7,7.2c30,43.2,80.6,71.6,137.7,71.6
					c37.6,0,72.2-12.2,100.1-32.9c-1.9-2.7-4-5.5-5.8-8C450,312.8,417.3,324.4,381.9,324.4z"/>
			</g>
			<g>
				<path class="st1" d="M382.6,7.4v9.8c86.1,0.4,156,69.1,156,153.6c0,18.2-3.3,35.7-9.2,51.9l9.1,3.7c6.4-17.4,9.9-36.1,9.9-55.6
					C548.5,80.9,474.2,7.8,382.6,7.4z"/>
			</g>
			<g>
				<path class="st1" d="M264.2,69.4l-6.5-7.4c-9.1,10-17,21-23.4,33l7.6,6.7C247.9,90,255.5,79.1,264.2,69.4z"/>
			</g>
		</g>
		<g>
			<g>
				<path class="st1" d="M528.9,137.1C513.3,72.2,453.3,23.7,382,23.7c-59.1,0-110.3,33.2-135.1,81.5l5.3,4.1
					c23.5-46.7,72.8-79,129.8-79c68.4,0,125.8,46.5,140.7,108.8C524.5,138.4,526.9,137.7,528.9,137.1z"/>
			</g>
			<g>
				<path class="st1" d="M531.1,148c-2.2,0.5-4.5,1-6.4,1.4c1.1,6.9,1.7,14,1.7,21.3c0,16.2-2.8,31.7-8,46.1l5.9,3.1
					c5.6-15.4,8.7-32,8.7-49.2C532.9,163,532.3,155.4,531.1,148z"/>
			</g>
			<g>
				<path class="st1" d="M252.5,233l-6.4,1.8c10.6,21.2,26.2,39.5,45.3,53.5l4.6-4.8C277.7,270.3,262.7,253,252.5,233z"/>
			</g>
		</g>
		<g>
			<g>
				<path class="st1" d="M493.4,164.8c2.1,0.3,4.5,0.7,6.7,1C496.7,105,445,56.4,381.9,56.4c-37.6,0-71.2,17.3-92.9,44.1l7.3,1.5
					c20.5-23.8,51.3-39,85.6-39C441,63,489.6,108,493.4,164.8z"/>
			</g>
			<g>
				<path class="st1" d="M493.6,175.1c-1.6,58.8-51.1,106.1-111.7,106.1c-20.1,0-39-5.2-55.3-14.3l-1.5,6.7
					c16.9,9,36.2,14.2,56.7,14.2c64,0,116.2-49.8,118.3-111.8L493.6,175.1z"/>
			</g>
		</g>
		<g>
			<g>
				<path class="st1" d="M411.6,81.4l3.2-4.1c-10.4-3.6-21.5-5.6-33.1-5.6c-29.3,0-55.6,12.6-74,32.6l5.4,1.5
					c17.4-18,41.7-29.2,68.6-29.2C392.1,76.6,402.1,78.3,411.6,81.4z"/>
			</g>
			<g>
				<path class="st1" d="M446.6,95.7c-0.9,1.2-1.9,2.6-2.9,3.9c18.1,15.5,30.3,37.7,32.8,62.7c1.7,0.4,3.5,0.9,5,1.3
					C479.3,136.5,466.2,112.4,446.6,95.7z"/>
			</g>
			<g>
				<path class="st1" d="M381.6,267.3c-18.7,0-36.2-5.4-50.9-14.8l-1.3,5c15.2,9.3,33.1,14.7,52.2,14.7c35.7,0,67-18.8,84.8-46.9
					c-1.3-0.7-2.9-1.6-4.3-2.3C445.2,249.6,415.4,267.3,381.6,267.3z"/>
			</g>
		</g>
		<g>
			<g>
				<path class="st1" d="M381.7,81.2c-14.9,0-28.9,3.6-41.3,10c0.9,1.2,2.1,2.8,3,4c11.6-5.8,24.6-9,38.3-9
					c43.8,0,80,32.9,85.3,75.2l4.9-0.4C466.4,116.1,428,81.2,381.7,81.2z"/>
			</g>
			<g>
				<path class="st1" d="M381.7,258.2c-18.5,0-35.6-5.9-49.6-15.8l-0.9,5.4c14.5,9.7,31.8,15.4,50.5,15.4c22.7,0,43.5-8.4,59.5-22.2
					c-1.5-1.1-2.9-2.2-4-3C422.2,250.5,402.8,258.2,381.7,258.2z"/>
			</g>
		</g>
		<g>
			<g>
				<path class="st1" d="M382,232.3c-11.3,0-21.9-3-30.9-8.3c-0.7,1.5-1.4,3-2,4.5c9.7,5.5,21,8.7,33,8.7c15.3,0,29.3-5.1,40.4-13.7
					c-1-1.1-2.1-2.5-3.2-3.7C408.9,227.6,396,232.3,382,232.3z"/>
			</g>
			<g>
				<path class="st1" d="M382,110.3c-17.7,0-33.8,6.9-45.6,18.1l4.2,2.8c10.8-9.9,25.4-15.9,41.3-15.9c33.3,0,60.4,26.3,60.4,58.6
					c0,10.9-3.1,21.1-8.4,29.8l3.8,3.2c6-9.6,9.5-20.9,9.5-33C447.2,138.7,418,110.3,382,110.3z"/>
			</g>
		</g>
	</g>
</g>
<g id="Loading_Bar" class="st2">
	<path class="st3" d="M535.1,422.7H36.9c-12.9,0-23.4,10.5-23.4,23.4v0c0,12.9,10.5,23.4,23.4,23.4h498.2
		c12.9,0,23.4-10.5,23.4-23.4v0C558.5,433.1,548,422.7,535.1,422.7z M554.9,446.1L554.9,446.1c0,10.9-8.9,19.8-19.8,19.8l-227.3,0
		v-39.6h227.3C546.1,426.2,554.9,435.1,554.9,446.1z"/>
</g>
<g id="input" class="st2">
	<g class="st4">
		<g>
			<linearGradient id="SVGID_1_" gradientUnits="userSpaceOnUse" x1="373.6412" y1="540.3661" x2="554.3409" y2="540.3661">
				<stop  offset="0" style="stop-color:#0D0E0E"/>
				<stop  offset="1" style="stop-color:#222222"/>
			</linearGradient>
			<path class="st5" d="M537.1,523.1H390.9c-9.5,0-17.2,7.7-17.2,17.2l0,0c0,9.5,7.7,17.2,17.2,17.2h146.2c9.5,0,17.2-7.7,17.2-17.2
				l0,0C554.3,530.8,546.6,523.1,537.1,523.1z"/>
			<path class="st6" d="M390.9,554.6h146.2c7.9,0,14.2-6.4,14.2-14.2l0,0c0-7.9-6.4-14.2-14.2-14.2H390.9c-7.9,0-14.2,6.4-14.2,14.2
				l0,0C376.6,548.2,383,554.6,390.9,554.6z"/>
		</g>
		<text transform="matrix(1 0 0 1 448.2939 542.412)" class="st0" style="font-family:'Roboto-Thin'; font-size:7px;">Username</text>
	</g>
</g>
<g id="Boton" class="st2">
	<g class="st4">
		<linearGradient id="SVGID_2_" gradientUnits="userSpaceOnUse" x1="360.7845" y1="610" x2="541.3152" y2="610">
			<stop  offset="0" style="stop-color:#F9B654"/>
			<stop  offset="1" style="stop-color:#EF7C2C"/>
		</linearGradient>
		<path class="st7" d="M528.6,622.8h-155c-7,0-12.8-5.7-12.8-12.8l0,0c0-7,5.7-12.8,12.8-12.8h155c7,0,12.8,5.7,12.8,12.8l0,0
			C541.3,617,535.6,622.8,528.6,622.8z"/>
		<g>
			<text transform="matrix(1 0 0 1 430.1749 615.6251)" class="st0" style="font-family:'Roboto-Bold'; font-size:15px;">Login</text>
		</g>
	</g>
</g>
<g id="Login_Google_Apple" class="st2">
	<g class="st4">
		<g>
			<linearGradient id="SVGID_3_" gradientUnits="userSpaceOnUse" x1="507.5226" y1="679.4117" x2="542.5176" y2="679.4117">
				<stop  offset="0" style="stop-color:#F9B654"/>
				<stop  offset="1" style="stop-color:#EF7C2C"/>
			</linearGradient>
			<path class="st8" d="M536.2,661.7h-22.4c-3.5,0-6.3,2.8-6.3,6.3v22.8c0,3.5,2.8,6.3,6.3,6.3h22.4c3.5,0,6.3-2.8,6.3-6.3V668
				C542.5,664.5,539.7,661.7,536.2,661.7z"/>
			<linearGradient id="SVGID_4_" gradientUnits="userSpaceOnUse" x1="509.8149" y1="679.4117" x2="540.2253" y2="679.4117">
				<stop  offset="0" style="stop-color:#EF7C2C"/>
				<stop  offset="1" style="stop-color:#F9B654"/>
			</linearGradient>
			<path class="st9" d="M536.2,664h-22.4c-2.2,0-4,1.8-4,4v22.8c0,2.2,1.8,4,4,4h22.4c2.2,0,4-1.8,4-4V668
				C540.2,665.8,538.4,664,536.2,664z"/>
			<path class="st6" d="M536.2,693.3c1.4,0,2.5-1.1,2.5-2.5V668c0-1.4-1.1-2.5-2.5-2.5h-22.4c-1.4,0-2.5,1.1-2.5,2.5v22.8
				c0,1.4,1.1,2.5,2.5,2.5H536.2z"/>
			<g>
				<path class="st0" d="M529.7,668.3C529.7,668.3,529.7,668.3,529.7,668.3c0,1.4-0.1,2.4-1.1,3.4c-0.7,0.7-2.1,1.4-3.1,1.4
					c-0.1,0-0.1,0-0.1,0C525.4,670.9,527.2,668.3,529.7,668.3z"/>
				<path class="st0" d="M532.2,682.7c0.6,0.9,2.4,1.9,2.2,2.5c-0.1,0.5-1.6,2.7-2,3.2c-3.2,4-4.4,0.8-7.1,0.9
					c-1.4,0.1-1.9,1.2-3.4,1.2c-0.2,0-0.4,0-0.6,0c-1.1-0.2-2.3-1.3-3-2.1c-1.4-1.7-2.6-5.3-2.8-7.5c-0.2-2.7,1-5.5,3.4-6.9
					c2.8-1.6,4.8,0.4,6.6,0.8c0.5,0.1,0.9,0.1,1.4-0.1c1.5-0.8,2-1.4,4-0.9c1.1,0.3,2.3,1.2,2.9,2.1
					C531.5,677.7,530.3,680,532.2,682.7z"/>
			</g>
		</g>
		<g>
			<linearGradient id="SVGID_5_" gradientUnits="userSpaceOnUse" x1="426.0528" y1="679.4117" x2="461.0478" y2="679.4117">
				<stop  offset="0" style="stop-color:#F9B654"/>
				<stop  offset="1" style="stop-color:#EF7C2C"/>
			</linearGradient>
			<path class="st10" d="M454.8,661.7h-22.4c-3.5,0-6.3,2.8-6.3,6.3v22.8c0,3.5,2.8,6.3,6.3,6.3h22.4c3.5,0,6.3-2.8,6.3-6.3V668
				C461,664.5,458.2,661.7,454.8,661.7z"/>
			<linearGradient id="SVGID_6_" gradientUnits="userSpaceOnUse" x1="428.3451" y1="679.4117" x2="458.7555" y2="679.4117">
				<stop  offset="0" style="stop-color:#EF7C2C"/>
				<stop  offset="1" style="stop-color:#F9B654"/>
			</linearGradient>
			<path class="st11" d="M454.8,664h-22.4c-2.2,0-4,1.8-4,4v22.8c0,2.2,1.8,4,4,4h22.4c2.2,0,4-1.8,4-4V668
				C458.8,665.8,457,664,454.8,664z"/>
			<path class="st6" d="M454.8,693.3c1.4,0,2.5-1.1,2.5-2.5V668c0-1.4-1.1-2.5-2.5-2.5h-22.4c-1.4,0-2.5,1.1-2.5,2.5v22.8
				c0,1.4,1.1,2.5,2.5,2.5H454.8z"/>
			<g>
				<path class="st0" d="M454.2,678.7c0,0.3,0,0.7,0,1l0,0.3c0,0.3-0.1,0.7-0.1,1l0,0.2c-0.1,0.4-0.1,0.8-0.2,1.1l-0.1,0.3
					c-0.1,0.3-0.2,0.5-0.3,0.8l-0.2,0.4c-0.1,0.3-0.3,0.5-0.4,0.8l-0.1,0.2l-0.1,0.1c-0.5,0.8-1,1.5-1.7,2.1l-0.1,0.1l0,0
					c-0.3,0.3-0.6,0.5-0.9,0.8l0,0c-0.3,0.2-0.7,0.5-1.1,0.7c-0.4,0.2-0.9,0.4-1.3,0.6l-0.1,0l0,0c-1.3,0.5-3.1,0.7-4.4,0.7l3.7-6.5
					c1.2-1,2-2.5,2-4.2c0-1.6-0.7-3-1.8-3.9h6.3c0.3,0.9,0.7,2.1,0.7,3L454.2,678.7z"/>
				<path class="st0" d="M434.6,673.8l3.7,6.4c0.4,2.6,2.6,4.6,5.3,4.6c0.4,0,0.7,0,1.1-0.1l-3,5.3c-0.8-0.1-1.5-0.4-2.2-0.7
					l-0.3-0.1l-0.1,0c-0.2-0.1-0.4-0.2-0.6-0.3l-0.3-0.1l-0.1-0.1c-0.2-0.1-0.4-0.2-0.6-0.4l-0.3-0.2c-0.2-0.1-0.3-0.3-0.5-0.4
					l-0.3-0.3c-0.1-0.1-0.3-0.2-0.4-0.4c-0.1-0.1-0.3-0.3-0.4-0.4l-0.3-0.3c-0.1-0.2-0.3-0.3-0.4-0.5l-0.2-0.3
					c-0.1-0.2-0.3-0.4-0.4-0.6l-0.1-0.1l-0.1-0.3c-0.1-0.2-0.2-0.4-0.3-0.6c-0.1-0.2-0.1-0.3-0.2-0.5c-0.1-0.2-0.1-0.3-0.2-0.5
					c-0.1-0.2-0.1-0.4-0.2-0.6l-0.1-0.4c0-0.2-0.1-0.4-0.1-0.6L433,681c0-0.2-0.1-0.4-0.1-0.6l0-0.5c0-0.2,0-0.4,0-0.5
					c0-0.2,0-0.4,0-0.5l0-0.5c0-0.2,0-0.4,0.1-0.6l0.1-0.4c0-0.2,0.1-0.4,0.1-0.6l0.1-0.4c0.1-0.2,0.1-0.4,0.2-0.6
					c0.1-0.2,0.1-0.3,0.2-0.5l0.2-0.5c0.1-0.2,0.2-0.4,0.3-0.6L434.6,673.8L434.6,673.8z"/>
				<path class="st0" d="M452.8,674.1h-9.2c-2.4,0-4.4,1.5-5.1,3.7l-3-5.3l0.1-0.1c0.1-0.2,0.3-0.3,0.5-0.5l0.3-0.3
					c0.1-0.1,0.3-0.3,0.4-0.4l0.4-0.3c0.1-0.1,0.3-0.2,0.4-0.3c0.1-0.1,0.3-0.2,0.4-0.3l0.3-0.2l0.2-0.1c0.2-0.1,0.3-0.2,0.5-0.2
					c0.2-0.1,0.3-0.2,0.5-0.2l0.4-0.1c0.2-0.1,0.4-0.2,0.6-0.2l0.2,0c0.8-0.2,1.6-0.4,2.4-0.4l0.4,0l0.5,0c0.2,0,0.4,0,0.6,0l0.4,0
					c0.2,0,0.4,0,0.7,0.1l0.3,0.1c0.2,0,0.4,0.1,0.7,0.1l0.3,0.1c0.2,0.1,0.4,0.1,0.6,0.2l0.4,0.2c0.2,0.1,0.3,0.1,0.5,0.2
					c0.2,0.1,0.3,0.2,0.5,0.3l0.3,0.2l0.1,0.1c0.4,0.2,0.7,0.5,1.1,0.7l0.1,0.1c0.3,0.2,0.6,0.5,0.9,0.8l0.2,0.2
					c0.3,0.3,0.5,0.6,0.7,0.9l0.1,0.1C452.3,673.3,452.6,673.7,452.8,674.1z"/>
				<path class="st0" d="M443.5,675.4c2.2,0,4,1.8,4,4c0,2.2-1.8,4-4,4c-2.2,0-4-1.8-4-4C439.6,677.2,441.3,675.4,443.5,675.4z"/>
			</g>
		</g>
	</g>
</g>
<g id="Boton_Studing_add" class="st2">
	<g class="st4">
		<g>
			<path class="st0" d="M526.3,729.2H374.8c-7.1,0-12.8,6.4-12.8,14.3v0c0,7.9,5.7,14.3,12.8,14.3h151.5c7.1,0,12.8-6.4,12.8-14.3v0
				C539.1,735.6,533.4,729.2,526.3,729.2z"/>
			<linearGradient id="SVGID_7_" gradientUnits="userSpaceOnUse" x1="368.1409" y1="743.9335" x2="622.1332" y2="742.779">
				<stop  offset="0" style="stop-color:#222222"/>
				<stop  offset="0.261" style="stop-color:#202021"/>
				<stop  offset="0.4177" style="stop-color:#1B1B1C"/>
				<stop  offset="0.5465" style="stop-color:#121213"/>
				<stop  offset="0.5899" style="stop-color:#0D0E0E"/>
			</linearGradient>
			<path class="st12" d="M526.2,730.1H374.9c-6.6,0-12,6-12,13.5v0c0,7.4,5.4,13.5,12,13.5h151.3c6.6,0,12-6,12-13.5v0
				C538.2,736.1,532.9,730.1,526.2,730.1z"/>
			<linearGradient id="SVGID_8_" gradientUnits="userSpaceOnUse" x1="364.7885" y1="743.5591" x2="559.0836" y2="743.5591">
				<stop  offset="0" style="stop-color:#0D0E0E"/>
				<stop  offset="5.068219e-02" style="stop-color:#111212"/>
				<stop  offset="0.2146" style="stop-color:#1B1B1C"/>
				<stop  offset="0.4115" style="stop-color:#202020"/>
				<stop  offset="0.727" style="stop-color:#222222"/>
			</linearGradient>
			<path class="st13" d="M536.4,743.6c0-6.4-4.6-11.6-10.2-11.6H375c-5.6,0-10.2,5.2-10.2,11.6c0,6.4,4.6,11.6,10.2,11.6h151.1
				C531.8,755.1,536.4,749.9,536.4,743.6z"/>
		</g>
		<g>
			<circle class="st0" cx="525.7" cy="743.6" r="14.3"/>
			
				<linearGradient id="SVGID_9_" gradientUnits="userSpaceOnUse" x1="512.4045" y1="236.1984" x2="539.0598" y2="236.1984" gradientTransform="matrix(1 0 0 -1 0 979.7572)">
				<stop  offset="0" style="stop-color:#EF7852"/>
				<stop  offset="1" style="stop-color:#EB5C2C"/>
			</linearGradient>
			<circle class="st14" cx="525.7" cy="743.6" r="13.3"/>
			
				<linearGradient id="SVGID_10_" gradientUnits="userSpaceOnUse" x1="514.6257" y1="236.1984" x2="536.8385" y2="236.1984" gradientTransform="matrix(1 0 0 -1 0 979.7572)">
				<stop  offset="0" style="stop-color:#EB5C2C"/>
				<stop  offset="1" style="stop-color:#EF7852"/>
			</linearGradient>
			<path class="st15" d="M525.7,754.7c-6.1,0-11.1-5-11.1-11.1s5-11.1,11.1-11.1c6.1,0,11.1,5,11.1,11.1S531.9,754.7,525.7,754.7z"
				/>
			<polygon class="st0" points="524.3,744.8 520.5,744.8 520.5,742.1 524.3,742.1 524.3,738 527.2,738 527.2,742.1 531,742.1 
				531,744.8 527.2,744.8 527.2,749.2 524.3,749.2 			"/>
		</g>
		<text transform="matrix(1.11 0 0 1 378.6805 746.4814)"><tspan x="0" y="0" class="st0" style="font-family:'Roboto-Light'; font-size:10px;">Studing</tspan><tspan x="33.8" y="0" class="st0" style="font-family:'Roboto-Light'; font-size:10px;">	</tspan></text>
	</g>
</g>
<g id="Menu_Rodape" class="st2">
	<g class="st4">
		<g>
			<path class="st0" d="M527,784.3H375.5c-7.1,0-12.8,6.4-12.8,14.3v0c0,7.9,5.7,14.3,12.8,14.3H527c7.1,0,12.8-6.4,12.8-14.3v0
				C539.8,790.7,534.1,784.3,527,784.3z"/>
			<linearGradient id="SVGID_11_" gradientUnits="userSpaceOnUse" x1="368.8339" y1="798.963" x2="622.8262" y2="797.8084">
				<stop  offset="0" style="stop-color:#222222"/>
				<stop  offset="0.261" style="stop-color:#202021"/>
				<stop  offset="0.4177" style="stop-color:#1B1B1C"/>
				<stop  offset="0.5465" style="stop-color:#121213"/>
				<stop  offset="0.5899" style="stop-color:#0D0E0E"/>
			</linearGradient>
			<path class="st16" d="M526.9,785.1H375.6c-6.6,0-12,6-12,13.5v0c0,7.4,5.4,13.5,12,13.5h151.3c6.6,0,12-6,12-13.5v0
				C538.9,791.2,533.6,785.1,526.9,785.1z"/>
			<linearGradient id="SVGID_12_" gradientUnits="userSpaceOnUse" x1="365.4815" y1="798.5885" x2="559.7766" y2="798.5885">
				<stop  offset="0" style="stop-color:#0D0E0E"/>
				<stop  offset="5.068219e-02" style="stop-color:#111212"/>
				<stop  offset="0.2146" style="stop-color:#1B1B1C"/>
				<stop  offset="0.4115" style="stop-color:#202020"/>
				<stop  offset="0.727" style="stop-color:#222222"/>
			</linearGradient>
			<path class="st17" d="M537.1,798.6c0-6.4-4.6-11.6-10.2-11.6H375.7c-5.6,0-10.2,5.2-10.2,11.6c0,6.4,4.6,11.6,10.2,11.6h151.1
				C532.5,810.2,537.1,805,537.1,798.6z"/>
		</g>
		<g>
			<circle class="st0" cx="376.6" cy="798.6" r="14.3"/>
			
				<linearGradient id="SVGID_13_" gradientUnits="userSpaceOnUse" x1="363.2935" y1="181.169" x2="389.9488" y2="181.169" gradientTransform="matrix(1 0 0 -1 0 979.7572)">
				<stop  offset="0" style="stop-color:#EF7852"/>
				<stop  offset="1" style="stop-color:#EB5C2C"/>
			</linearGradient>
			<circle class="st18" cx="376.6" cy="798.6" r="13.3"/>
			
				<linearGradient id="SVGID_14_" gradientUnits="userSpaceOnUse" x1="365.5148" y1="181.169" x2="387.7275" y2="181.169" gradientTransform="matrix(1 0 0 -1 0 979.7572)">
				<stop  offset="0" style="stop-color:#EB5C2C"/>
				<stop  offset="1" style="stop-color:#EF7852"/>
			</linearGradient>
			<path class="st19" d="M376.6,809.7c-6.1,0-11.1-5-11.1-11.1s5-11.1,11.1-11.1c6.1,0,11.1,5,11.1,11.1S382.7,809.7,376.6,809.7z"
				/>
			<g>
				<path class="st0" d="M375.4,792c-3,0-5.4,2.4-5.4,5.4c0,3,2.4,5.4,5.4,5.4s5.4-2.4,5.4-5.4C380.9,794.4,378.4,792,375.4,792z
					 M375.4,801c-2,0-3.5-1.6-3.5-3.5c0-2,1.6-3.5,3.5-3.5s3.5,1.6,3.5,3.5C379,799.4,377.4,800.9,375.4,801z"/>
				<path class="st0" d="M383,803.6l-1.9-1.9c-0.4-0.4-1-0.4-1.3,0s-0.4,1,0,1.3l1.9,1.9c0.4,0.4,1,0.4,1.3,0
					C383.3,804.6,383.3,804,383,803.6z"/>
			</g>
		</g>
		<g>
			<circle class="st0" cx="525.3" cy="798.6" r="14.3"/>
			
				<linearGradient id="SVGID_15_" gradientUnits="userSpaceOnUse" x1="511.9615" y1="181.169" x2="538.6168" y2="181.169" gradientTransform="matrix(1 0 0 -1 0 979.7572)">
				<stop  offset="0" style="stop-color:#EF7852"/>
				<stop  offset="1" style="stop-color:#EB5C2C"/>
			</linearGradient>
			<circle class="st20" cx="525.3" cy="798.6" r="13.3"/>
			
				<linearGradient id="SVGID_16_" gradientUnits="userSpaceOnUse" x1="514.1828" y1="181.169" x2="536.3956" y2="181.169" gradientTransform="matrix(1 0 0 -1 0 979.7572)">
				<stop  offset="0" style="stop-color:#EB5C2C"/>
				<stop  offset="1" style="stop-color:#EF7852"/>
			</linearGradient>
			<path class="st21" d="M525.3,809.7c-6.1,0-11.1-5-11.1-11.1s5-11.1,11.1-11.1c6.1,0,11.1,5,11.1,11.1S531.4,809.7,525.3,809.7z"
				/>
			<path class="st0" d="M530.3,799.2c0-0.2,0-0.4,0-0.7s0-0.4,0-0.7l1.4-1.1c0.1-0.1,0.2-0.3,0.1-0.4l-1.3-2.3
				c-0.1-0.1-0.3-0.2-0.4-0.1l-1.7,0.7c-0.4-0.3-0.7-0.5-1.1-0.7l-0.3-1.8c0-0.2-0.2-0.3-0.3-0.3h-2.7c-0.2,0-0.3,0.1-0.3,0.3
				l-0.3,1.8c-0.4,0.2-0.8,0.4-1.1,0.7l-1.7-0.7c-0.2-0.1-0.3,0-0.4,0.1l-1.4,2.3c-0.1,0.1,0,0.3,0.1,0.4l1.4,1.1c0,0.2,0,0.4,0,0.7
				c0,0.2,0,0.4,0,0.7l-1.4,1.1c-0.1,0.1-0.2,0.3-0.1,0.4l1.4,2.3c0.1,0.1,0.3,0.2,0.4,0.1l1.7-0.7c0.4,0.3,0.7,0.5,1.1,0.7l0.3,1.8
				c0,0.2,0.2,0.3,0.3,0.3h2.7c0.2,0,0.3-0.1,0.3-0.3l0.3-1.8c0.4-0.2,0.8-0.4,1.1-0.7l1.7,0.7c0.2,0.1,0.3,0,0.4-0.1l1.3-2.3
				c0.1-0.1,0-0.3-0.1-0.4L530.3,799.2z M525.3,801c-1.3,0-2.4-1.1-2.4-2.4c0-1.3,1.1-2.4,2.4-2.4c1.3,0,2.4,1.1,2.4,2.4
				C527.7,799.9,526.6,801,525.3,801z"/>
		</g>
		<g>
			<circle class="st0" cx="451" cy="798.6" r="14.3"/>
			
				<linearGradient id="SVGID_17_" gradientUnits="userSpaceOnUse" x1="437.6275" y1="181.169" x2="464.2828" y2="181.169" gradientTransform="matrix(1 0 0 -1 0 979.7572)">
				<stop  offset="0" style="stop-color:#EF7852"/>
				<stop  offset="1" style="stop-color:#EB5C2C"/>
			</linearGradient>
			<circle class="st22" cx="451" cy="798.6" r="13.3"/>
			
				<linearGradient id="SVGID_18_" gradientUnits="userSpaceOnUse" x1="439.8488" y1="181.169" x2="462.0615" y2="181.169" gradientTransform="matrix(1 0 0 -1 0 979.7572)">
				<stop  offset="0" style="stop-color:#EB5C2C"/>
				<stop  offset="1" style="stop-color:#EF7852"/>
			</linearGradient>
			<path class="st23" d="M451,809.7c-6.1,0-11.1-5-11.1-11.1s5-11.1,11.1-11.1c6.1,0,11.1,5,11.1,11.1S457.1,809.7,451,809.7z"/>
			<path id="home_1_" class="st0" d="M458.7,797.5l-6.9-5.2c-0.5-0.3-1.1-0.3-1.7,0l-6.8,5.2c-0.5,0.4-0.3,1.1,0.4,1.1h0.7v4
				c0,1.4,1.2,2.6,2.6,2.6h1.3c0.4,0,0.7-0.3,0.7-0.7v-3.2c0-0.7,0.6-1.4,1.3-1.4h1.3c0.7,0,1.3,0.7,1.3,1.4v3.2
				c0,0.3,0.3,0.7,0.7,0.7h1.3c1.5,0,2.6-1.2,2.6-2.6v-4h0.7C458.9,798.6,459.1,797.9,458.7,797.5z"/>
		</g>
	</g>
</g>
<g id="Botons_Linguagens" class="st2">
	<g class="st4">
		<g>
			<path class="st0" d="M170.7,525.9h-46.3c-8.6,0-15.6,7-15.6,15.6v56.5c0,8.6,7,15.6,15.6,15.6h46.3c8.6,0,15.6-7,15.6-15.6v-56.5
				C186.3,532.9,179.3,525.9,170.7,525.9z"/>
			<linearGradient id="SVGID_19_" gradientUnits="userSpaceOnUse" x1="111.4673" y1="569.7968" x2="183.6903" y2="569.7968">
				<stop  offset="0" style="stop-color:#F9B654"/>
				<stop  offset="1" style="stop-color:#EF7C2C"/>
			</linearGradient>
			<path class="st24" d="M170.7,528.5h-46.3c-7.2,0-13,5.8-13,13v56.5c0,7.2,5.8,13,13,13h46.3c7.2,0,13-5.8,13-13v-56.5
				C183.7,534.4,177.9,528.5,170.7,528.5z"/>
			<linearGradient id="SVGID_20_" gradientUnits="userSpaceOnUse" x1="116.1981" y1="569.7968" x2="178.9595" y2="569.7968">
				<stop  offset="0" style="stop-color:#EF7C2C"/>
				<stop  offset="1" style="stop-color:#F9B654"/>
			</linearGradient>
			<path class="st25" d="M170.7,533.3h-46.3c-4.5,0-8.3,3.7-8.3,8.3v56.5c0,4.5,3.7,8.3,8.3,8.3h46.3c4.5,0,8.3-3.7,8.3-8.3v-56.5
				C179,537,175.3,533.3,170.7,533.3z"/>
			<polygon class="st0" points="163.5,557.4 164.1,550.2 147.5,550 131.1,549.8 132.1,571.4 147.2,571.6 155.2,571.7 154.5,579.8 
				147.1,582.3 139.7,579.6 139.4,575.1 132.2,575 132.8,585 147,589.8 161.3,585.3 162.8,564.6 147.3,564.4 139,564.3 138.6,557.1 
				147.4,557.2 			"/>
			<path class="st6" d="M170.7,603.2c2.8,0,5.1-2.3,5.1-5.1v-56.5c0-2.8-2.3-5.1-5.1-5.1h-46.3c-2.8,0-5.1,2.3-5.1,5.1v56.5
				c0,2.8,2.3,5.1,5.1,5.1H170.7z"/>
		</g>
		<g>
			<g>
				<path class="st0" d="M74.8,525.9H28.6c-8.6,0-15.6,7-15.6,15.6v56.5c0,8.6,7,15.6,15.6,15.6h46.3c8.6,0,15.6-7,15.6-15.6v-56.5
					C90.4,532.9,83.4,525.9,74.8,525.9z"/>
				<linearGradient id="SVGID_21_" gradientUnits="userSpaceOnUse" x1="15.5949" y1="569.7968" x2="87.8179" y2="569.7968">
					<stop  offset="0" style="stop-color:#FFDFA1"/>
					<stop  offset="1" style="stop-color:#FBBE43"/>
				</linearGradient>
				<path class="st26" d="M74.8,528.5H28.6c-7.2,0-13,5.8-13,13v56.5c0,7.2,5.8,13,13,13h46.3c7.2,0,13-5.8,13-13v-56.5
					C87.8,534.4,82,528.5,74.8,528.5z"/>
				<linearGradient id="SVGID_22_" gradientUnits="userSpaceOnUse" x1="20.3257" y1="569.7968" x2="83.0871" y2="569.7968">
					<stop  offset="0" style="stop-color:#FBBE43"/>
					<stop  offset="1" style="stop-color:#FFDFA1"/>
				</linearGradient>
				<path class="st27" d="M74.8,533.3H28.6c-4.5,0-8.3,3.7-8.3,8.3v56.5c0,4.5,3.7,8.3,8.3,8.3h46.3c4.5,0,8.3-3.7,8.3-8.3v-56.5
					C83.1,537,79.4,533.3,74.8,533.3z"/>
				<path class="st6" d="M74.8,603.2c2.8,0,5.1-2.3,5.1-5.1v-56.5c0-2.8-2.3-5.1-5.1-5.1H28.6c-2.8,0-5.1,2.3-5.1,5.1v56.5
					c0,2.8,2.3,5.1,5.1,5.1H74.8z"/>
			</g>
			<g>
				<polygon class="st0" points="74.1,548.2 73.5,554.9 60.8,554.9 60.8,568.1 72.5,566.5 70.8,586.8 54.2,591.4 54.2,583.7 
					65.4,580.7 65.8,574.4 54.2,576.4 54.2,548.2 				"/>
				<polygon class="st0" points="47.6,548.2 47.6,591.4 29.3,586.3 29.3,578.1 40.9,581.3 40.9,548.2 				"/>
			</g>
		</g>
		<g>
			<g>
				<path class="st0" d="M170.7,636h-46.3c-8.6,0-15.6,7-15.6,15.6v56.5c0,8.6,7,15.6,15.6,15.6h46.3c8.6,0,15.6-7,15.6-15.6v-56.5
					C186.3,643.1,179.3,636,170.7,636z"/>
				<linearGradient id="SVGID_23_" gradientUnits="userSpaceOnUse" x1="111.4673" y1="679.9322" x2="183.6903" y2="679.9322">
					<stop  offset="0" style="stop-color:#BDA4CF;stop-opacity:0.9"/>
					<stop  offset="1" style="stop-color:#564B9A"/>
				</linearGradient>
				<path class="st28" d="M170.7,638.7h-46.3c-7.2,0-13,5.8-13,13v56.5c0,7.2,5.8,13,13,13h46.3c7.2,0,13-5.8,13-13v-56.5
					C183.7,644.5,177.9,638.7,170.7,638.7z"/>
				<linearGradient id="SVGID_24_" gradientUnits="userSpaceOnUse" x1="116.1981" y1="679.9322" x2="178.9595" y2="679.9322">
					<stop  offset="0" style="stop-color:#564B9A"/>
					<stop  offset="1" style="stop-color:#BDA4CF;stop-opacity:0.9"/>
				</linearGradient>
				<path class="st29" d="M170.7,643.4h-46.3c-4.5,0-8.3,3.7-8.3,8.3v56.5c0,4.5,3.7,8.3,8.3,8.3h46.3c4.5,0,8.3-3.7,8.3-8.3v-56.5
					C179,647.1,175.3,643.4,170.7,643.4z"/>
				<path class="st6" d="M170.7,713.3c2.8,0,5.1-2.3,5.1-5.1v-56.5c0-2.8-2.3-5.1-5.1-5.1h-46.3c-2.8,0-5.1,2.3-5.1,5.1v56.5
					c0,2.8,2.3,5.1,5.1,5.1H170.7z"/>
			</g>
			<g>
				<polygon class="st30" points="157.8,675.5 154.9,675.5 154.9,678.5 152,678.5 152,681.4 154.9,681.4 154.9,684.3 157.8,684.3 
					157.8,681.4 160.7,681.4 160.7,678.5 157.8,678.5 				"/>
				<polygon class="st30" points="171,678.5 168,678.5 168,675.5 165.1,675.5 165.1,678.5 162.2,678.5 162.2,681.4 165.1,681.4 
					165.1,684.3 168,684.3 168,681.4 171,681.4 				"/>
				<path class="st0" d="M153.5,685.1l9,4.9c-3.5,6.2-10.2,10.4-17.8,10.4c-11.3,0-20.4-9.2-20.4-20.5c0-11.3,9.2-20.4,20.4-20.4
					c7.5,0,14,4,17.6,10.1l-8.9,5.1c-1.8-2.9-5-4.9-8.7-4.9c-5.6,0-10.2,4.6-10.2,10.2c0,5.6,4.6,10.2,10.2,10.2
					C148.4,690.2,151.7,688.1,153.5,685.1z"/>
			</g>
		</g>
		<g>
			<g>
				<path class="st0" d="M74.8,636H28.6c-8.6,0-15.6,7-15.6,15.6v56.5c0,8.6,7,15.6,15.6,15.6h46.3c8.6,0,15.6-7,15.6-15.6v-56.5
					C90.4,643.1,83.4,636,74.8,636z"/>
				<linearGradient id="SVGID_25_" gradientUnits="userSpaceOnUse" x1="15.5949" y1="679.9322" x2="87.8179" y2="679.9322">
					<stop  offset="0" style="stop-color:#B3DEE9;stop-opacity:0.9"/>
					<stop  offset="1" style="stop-color:#3490CF"/>
				</linearGradient>
				<path class="st31" d="M74.8,638.7H28.6c-7.2,0-13,5.8-13,13v56.5c0,7.2,5.8,13,13,13h46.3c7.2,0,13-5.8,13-13v-56.5
					C87.8,644.5,82,638.7,74.8,638.7z"/>
				<linearGradient id="SVGID_26_" gradientUnits="userSpaceOnUse" x1="20.3257" y1="679.9322" x2="83.0871" y2="679.9322">
					<stop  offset="0" style="stop-color:#3490CF"/>
					<stop  offset="1" style="stop-color:#B3DEE9;stop-opacity:0.9"/>
				</linearGradient>
				<path class="st32" d="M74.8,643.4H28.6c-4.5,0-8.3,3.7-8.3,8.3v56.5c0,4.5,3.7,8.3,8.3,8.3h46.3c4.5,0,8.3-3.7,8.3-8.3v-56.5
					C83.1,647.1,79.4,643.4,74.8,643.4z"/>
				<path class="st6" d="M74.8,713.3c2.8,0,5.1-2.3,5.1-5.1v-56.5c0-2.8-2.3-5.1-5.1-5.1H28.6c-2.8,0-5.1,2.3-5.1,5.1v56.5
					c0,2.8,2.3,5.1,5.1,5.1H74.8z"/>
			</g>
			<path class="st30" d="M35.7,685.7h7.8l0.2,4.9l8,2.7l8-2.7l0.6-8.8H43.2l-0.4-7.8h18.1l0.6-7.8H34.3l-0.6-7.8h35.9l-1,15.7
				l-1.4,22.6l-15.5,5.1l-15.5-5.1L35.7,685.7z"/>
		</g>
		<g>
			<g>
				<path class="st0" d="M170.7,745.1h-46.3c-8.6,0-15.6,7-15.6,15.6v56.5c0,8.6,7,15.6,15.6,15.6h46.3c8.6,0,15.6-7,15.6-15.6
					v-56.5C186.3,752.1,179.3,745.1,170.7,745.1z"/>
				<linearGradient id="SVGID_27_" gradientUnits="userSpaceOnUse" x1="111.4673" y1="789.0267" x2="183.6903" y2="789.0267">
					<stop  offset="0" style="stop-color:#7DAFDF;stop-opacity:0.9"/>
					<stop  offset="1" style="stop-color:#264798"/>
				</linearGradient>
				<path class="st33" d="M170.7,747.8h-46.3c-7.2,0-13,5.8-13,13v56.5c0,7.2,5.8,13,13,13h46.3c7.2,0,13-5.8,13-13v-56.5
					C183.7,753.6,177.9,747.8,170.7,747.8z"/>
				<linearGradient id="SVGID_28_" gradientUnits="userSpaceOnUse" x1="116.1981" y1="789.0267" x2="178.9595" y2="789.0267">
					<stop  offset="0" style="stop-color:#264798"/>
					<stop  offset="1" style="stop-color:#7DAFDF;stop-opacity:0.9"/>
				</linearGradient>
				<path class="st34" d="M170.7,752.5h-46.3c-4.5,0-8.3,3.7-8.3,8.3v56.5c0,4.5,3.7,8.3,8.3,8.3h46.3c4.5,0,8.3-3.7,8.3-8.3v-56.5
					C179,756.2,175.3,752.5,170.7,752.5z"/>
				<path class="st6" d="M170.7,822.4c2.8,0,5.1-2.3,5.1-5.1v-56.5c0-2.8-2.3-5.1-5.1-5.1h-46.3c-2.8,0-5.1,2.3-5.1,5.1v56.5
					c0,2.8,2.3,5.1,5.1,5.1H170.7z"/>
			</g>
			<g>
				<path class="st0" d="M148.1,766.9c-1.8,0-3.1,0.2-4.6,0.4c-4.5,0.8-5.3,2.4-5.3,5.4v4.6h10.5v2.3h-10.9h-5.1
					c-3.1,0-5.8,1.4-6.6,4.9c-1,4-1,6.5,0,10.6c0.8,3.1,2.4,5.4,5.5,5.4h4.2v-5.9c0-3.5,3.1-6.9,6.7-6.9h8.4c2.9,0,5.8-2.2,5.8-5.1
					v-10c0-2.8-2-5-4.9-5.4C152.1,767.3,149.9,766.9,148.1,766.9z M142.3,771.6c1,0,1.7,0.8,1.7,1.7c0,1-0.8,1.7-1.7,1.7
					c-1,0-1.7-0.8-1.7-1.7C140.6,772.4,141.4,771.6,142.3,771.6z"/>
				<path class="st0" d="M147,811.1c1.8,0,3.1-0.2,4.6-0.4c4.5-0.8,5.3-2.4,5.3-5.4v-4.6h-10.5v-2.3h10.9h5.1c3.1,0,5.8-1.4,6.6-4.9
					c1-4,1-6.5,0-10.6c-0.8-3.1-2.4-5.4-5.5-5.4h-4.2v5.9c0,3.5-3.1,6.9-6.7,6.9h-8.4c-2.9,0-5.8,2.2-5.8,5.1v10c0,2.8,2,5,4.9,5.4
					C143.1,810.7,145.2,811.1,147,811.1z M152.8,806.5c-1,0-1.7-0.8-1.7-1.7c0-1,0.8-1.7,1.7-1.7c1,0,1.7,0.8,1.7,1.7
					C154.6,805.7,153.8,806.5,152.8,806.5z"/>
			</g>
		</g>
		<g>
			<g>
				<path class="st0" d="M74.8,745.1H28.6c-8.6,0-15.6,7-15.6,15.6v56.5c0,8.6,7,15.6,15.6,15.6h46.3c8.6,0,15.6-7,15.6-15.6v-56.5
					C90.4,752.1,83.4,745.1,74.8,745.1z"/>
				<linearGradient id="SVGID_29_" gradientUnits="userSpaceOnUse" x1="15.5949" y1="789.0267" x2="87.8179" y2="789.0267">
					<stop  offset="0" style="stop-color:#E62C2C;stop-opacity:0.9"/>
					<stop  offset="1" style="stop-color:#7B170F"/>
				</linearGradient>
				<path class="st35" d="M74.8,747.8H28.6c-7.2,0-13,5.8-13,13v56.5c0,7.2,5.8,13,13,13h46.3c7.2,0,13-5.8,13-13v-56.5
					C87.8,753.6,82,747.8,74.8,747.8z"/>
				<linearGradient id="SVGID_30_" gradientUnits="userSpaceOnUse" x1="20.3257" y1="789.0267" x2="83.0871" y2="789.0267">
					<stop  offset="0" style="stop-color:#7B170F"/>
					<stop  offset="1" style="stop-color:#E62C2C;stop-opacity:0.9"/>
				</linearGradient>
				<path class="st36" d="M74.8,752.5H28.6c-4.5,0-8.3,3.7-8.3,8.3v56.5c0,4.5,3.7,8.3,8.3,8.3h46.3c4.5,0,8.3-3.7,8.3-8.3v-56.5
					C83.1,756.2,79.4,752.5,74.8,752.5z"/>
				<path class="st6" d="M74.8,822.4c2.8,0,5.1-2.3,5.1-5.1v-56.5c0-2.8-2.3-5.1-5.1-5.1H28.6c-2.8,0-5.1,2.3-5.1,5.1v56.5
					c0,2.8,2.3,5.1,5.1,5.1H74.8z"/>
			</g>
			<g>
				<path class="st0" d="M51.3,790.2c-1.3-2.1-2.2-3.8-3.5-7c-2.2-5.4,13.2-10.3,7-19.8c2.7,6.5-9.7,10.5-10.9,16
					C42.8,784.4,51.3,790.2,51.3,790.2z"/>
				<path class="st0" d="M51.6,780.4c-0.2,3.2,2.9,4.9,2.9,7.3c0.1,1.9-1.9,3.5-1.9,3.5s3.5-0.7,4.6-3.6c1.2-3.2-2.3-5.5-2-8.1
					c0.3-2.5,7.7-7.1,7.7-7.1S52.1,773.2,51.6,780.4z"/>
				<g>
					<path class="st0" d="M62.1,790.4c2.2-0.5,4.1,0.9,4.1,2.6c0,3.7-5.1,7.2-5.1,7.2s8-1,8-7.1C69,789.1,65.1,788.1,62.1,790.4z
						 M58.3,793.4c0,0,2.5-1.8,3.1-2.4c-6.1,1.3-20,1.5-20,0.3c0-1,4.5-2.1,4.5-2.1s-10-0.1-10,2.8C35.9,795,49,795.3,58.3,793.4z"
						/>
					<path class="st0" d="M56.7,796.2c-5.8,1.9-16.4,1.3-13.3-1.3c-1.5,0-3.8,1.2-3.8,2.4c0,2.4,11.5,4.2,20,0.7L56.7,796.2z"/>
					<path class="st0" d="M44.9,800.2c-2.1,0-3.5,1.3-3.5,2.3c0,3.1,12.5,3.4,17.5,0.3l-3.1-2.1C52.1,802.4,42.8,802.6,44.9,800.2z"
						/>
					<path class="st0" d="M67.4,805.2c0-1.2-1.4-1.8-1.8-2c2.9,6.9-28.6,6.3-28.6,2.3c0-0.9,2.3-1.8,4.5-1.4l-1.8-1.1
						c-4.3-0.7-7.2,1.2-7.2,2.7C32.5,812.7,67.4,812.4,67.4,805.2z"/>
					<path class="st0" d="M70.9,807.7c-5.3,5.2-18.8,7.2-32.3,3.9C52.1,817.4,70.9,814.2,70.9,807.7z"/>
				</g>
			</g>
		</g>
	</g>
</g>
<g id="Card_Conteudo" class="st2">
	<g class="st4">
		<g>
			<g>
				<path class="st0" d="M182.3,864.2h-165c-8.2,0-14.8,6.7-14.8,14.8v53.8c0,8.2,6.7,14.8,14.8,14.8h165c8.2,0,14.8-6.7,14.8-14.8
					v-53.8C197.2,870.9,190.5,864.2,182.3,864.2z"/>
				<linearGradient id="SVGID_31_" gradientUnits="userSpaceOnUse" x1="4.975" y1="905.9833" x2="194.6747" y2="905.9833">
					<stop  offset="0" style="stop-color:#222222"/>
					<stop  offset="1" style="stop-color:#0D0E0E"/>
				</linearGradient>
				<path class="st37" d="M182.3,866.7h-165c-6.8,0-12.3,5.5-12.3,12.3v53.8c0,6.8,5.5,12.3,12.3,12.3h165c6.8,0,12.3-5.5,12.3-12.3
					v-53.8C194.7,872.3,189.1,866.7,182.3,866.7z"/>
				<linearGradient id="SVGID_32_" gradientUnits="userSpaceOnUse" x1="9.475" y1="905.9833" x2="190.1747" y2="905.9833">
					<stop  offset="0" style="stop-color:#0D0E0E"/>
					<stop  offset="1" style="stop-color:#222222"/>
				</linearGradient>
				<path class="st38" d="M182.3,871.2h-165c-4.3,0-7.8,3.5-7.8,7.8v53.8c0,4.3,3.5,7.8,7.8,7.8h165c4.3,0,7.8-3.5,7.8-7.8v-53.8
					C190.2,874.8,186.7,871.2,182.3,871.2z"/>
				<path class="st6" d="M182.3,937.7c2.7,0,4.8-2.2,4.8-4.8v-53.8c0-2.7-2.2-4.8-4.8-4.8h-165c-2.7,0-4.8,2.2-4.8,4.8v53.8
					c0,2.7,2.2,4.8,4.8,4.8H182.3z"/>
			</g>
			<g>
				<path class="st0" d="M61,863.9H17c-8.2,0-14.8,6.7-14.8,14.8v53.8c0,8.2,6.7,14.8,14.8,14.8h44c8.2,0,14.8-6.7,14.8-14.8v-53.8
					C75.8,870.5,69.1,863.9,61,863.9z"/>
				<linearGradient id="SVGID_33_" gradientUnits="userSpaceOnUse" x1="4.6105" y1="905.6121" x2="73.3102" y2="905.6121">
					<stop  offset="0" style="stop-color:#F9B654"/>
					<stop  offset="1" style="stop-color:#EF7C2C"/>
				</linearGradient>
				<path class="st39" d="M61,866.4H17c-6.8,0-12.3,5.5-12.3,12.3v53.8c0,6.8,5.5,12.3,12.3,12.3h44c6.8,0,12.3-5.5,12.3-12.3v-53.8
					C73.3,871.9,67.8,866.4,61,866.4z"/>
				<linearGradient id="SVGID_34_" gradientUnits="userSpaceOnUse" x1="9.1105" y1="905.6121" x2="68.8102" y2="905.6121">
					<stop  offset="0" style="stop-color:#EF7C2C"/>
					<stop  offset="1" style="stop-color:#F9B654"/>
				</linearGradient>
				<path class="st40" d="M61,870.9H17c-4.3,0-7.8,3.5-7.8,7.8v53.8c0,4.3,3.5,7.8,7.8,7.8h44c4.3,0,7.8-3.5,7.8-7.8v-53.8
					C68.8,874.4,65.3,870.9,61,870.9z"/>
				<polygon class="st0" points="54.1,893.8 54.7,886.9 38.9,886.7 23.3,886.6 24.2,907.2 38.6,907.3 46.2,907.4 45.6,915.1 
					38.5,917.5 31.5,915 31.2,910.7 24.3,910.6 24.9,920 38.4,924.7 52,920.4 53.5,900.7 38.7,900.5 30.8,900.4 30.4,893.5 
					38.8,893.6 				"/>
				<path class="st6" d="M61,937.4c2.7,0,4.8-2.2,4.8-4.8v-53.8c0-2.7-2.2-4.8-4.8-4.8H17c-2.7,0-4.8,2.2-4.8,4.8v53.8
					c0,2.7,2.2,4.8,4.8,4.8H61z"/>
			</g>
			<rect x="80.2" y="902.4" style="fill:none;" width="102.9" height="31.7"/>
			<text transform="matrix(1 0 0 1 80.2499 906.6456)"><tspan x="0" y="0" class="st0" style="font-family:'Roboto-Regular'; font-size:5.5115px;">Lorem</tspan><tspan x="15.8" y="0" class="st0" style="font-family:'Roboto-Regular'; font-size:5.5115px;"> </tspan><tspan x="17.7" y="0" class="st0" style="font-family:'Roboto-Regular'; font-size:5.5115px;">ipsum</tspan><tspan x="33.1" y="0" class="st0" style="font-family:'Roboto-Regular'; font-size:5.5115px;"> </tspan><tspan x="35" y="0" class="st0" style="font-family:'Roboto-Regular'; font-size:5.5115px;">dolor</tspan><tspan x="47.8" y="0" class="st0" style="font-family:'Roboto-Regular'; font-size:5.5115px;"> </tspan><tspan x="49.7" y="0" class="st0" style="font-family:'Roboto-Regular'; font-size:5.5115px;">sit</tspan><tspan x="55.8" y="0" class="st0" style="font-family:'Roboto-Regular'; font-size:5.5115px;"> </tspan><tspan x="57.8" y="0" class="st0" style="font-family:'Roboto-Regular'; font-size:5.5115px;">amet,</tspan><tspan x="71.5" y="0" class="st0" style="font-family:'Roboto-Regular'; font-size:5.5115px;"> </tspan><tspan x="73.4" y="0" class="st0" style="font-family:'Roboto-Regular'; font-size:5.5115px;">consectetur </tspan><tspan x="0" y="6.6" class="st0" style="font-family:'Roboto-Regular'; font-size:5.5115px;">adipiscing</tspan><tspan x="25.5" y="6.6" class="st0" style="font-family:'Roboto-Regular'; font-size:5.5115px; letter-spacing:1;"> </tspan><tspan x="28.4" y="6.6" class="st0" style="font-family:'Roboto-Regular'; font-size:5.5115px;">elit,</tspan><tspan x="37" y="6.6" class="st0" style="font-family:'Roboto-Regular'; font-size:5.5115px; letter-spacing:1;"> </tspan><tspan x="39.9" y="6.6" class="st0" style="font-family:'Roboto-Regular'; font-size:5.5115px;">sed</tspan><tspan x="48.8" y="6.6" class="st0" style="font-family:'Roboto-Regular'; font-size:5.5115px; letter-spacing:1;"> </tspan><tspan x="51.7" y="6.6" class="st0" style="font-family:'Roboto-Regular'; font-size:5.5115px;">do</tspan><tspan x="58" y="6.6" class="st0" style="font-family:'Roboto-Regular'; font-size:5.5115px; letter-spacing:1;"> </tspan><tspan x="60.9" y="6.6" class="st0" style="font-family:'Roboto-Regular'; font-size:5.5115px;">eiusmod</tspan><tspan x="82.2" y="6.6" class="st0" style="font-family:'Roboto-Regular'; font-size:5.5115px; letter-spacing:1;"> </tspan><tspan x="85.1" y="6.6" class="st0" style="font-family:'Roboto-Regular'; font-size:5.5115px;">tempor </tspan><tspan x="0" y="13.2" class="st0" style="font-family:'Roboto-Regular'; font-size:5.5115px;">incididunt</tspan><tspan x="24.6" y="13.2" class="st0" style="font-family:'Roboto-Regular'; font-size:5.5115px; letter-spacing:2;"> </tspan><tspan x="28.6" y="13.2" class="st0" style="font-family:'Roboto-Regular'; font-size:5.5115px;">ut</tspan><tspan x="33.6" y="13.2" class="st0" style="font-family:'Roboto-Regular'; font-size:5.5115px; letter-spacing:2;"> </tspan><tspan x="37.7" y="13.2" class="st0" style="font-family:'Roboto-Regular'; font-size:5.5115px;">labore</tspan><tspan x="53.2" y="13.2" class="st0" style="font-family:'Roboto-Regular'; font-size:5.5115px; letter-spacing:2;"> </tspan><tspan x="57.3" y="13.2" class="st0" style="font-family:'Roboto-Regular'; font-size:5.5115px;">et</tspan><tspan x="62" y="13.2" class="st0" style="font-family:'Roboto-Regular'; font-size:5.5115px; letter-spacing:2;"> </tspan><tspan x="66.1" y="13.2" class="st0" style="font-family:'Roboto-Regular'; font-size:5.5115px;">dolore</tspan><tspan x="81.7" y="13.2" class="st0" style="font-family:'Roboto-Regular'; font-size:5.5115px; letter-spacing:2;"> </tspan><tspan x="85.7" y="13.2" class="st0" style="font-family:'Roboto-Regular'; font-size:5.5115px;">magna </tspan><tspan x="0" y="19.8" class="st0" style="font-family:'Roboto-Regular'; font-size:5.5115px;">aliqua.</tspan><tspan x="16.6" y="19.8" class="st0" style="font-family:'Roboto-Regular'; font-size:5.5115px; letter-spacing:1;"> </tspan><tspan x="19.4" y="19.8" class="st0" style="font-family:'Roboto-Regular'; font-size:5.5115px;">Ut</tspan><tspan x="25" y="19.8" class="st0" style="font-family:'Roboto-Regular'; font-size:5.5115px; letter-spacing:1;"> </tspan><tspan x="27.9" y="19.8" class="st0" style="font-family:'Roboto-Regular'; font-size:5.5115px;">enim</tspan><tspan x="40.1" y="19.8" class="st0" style="font-family:'Roboto-Regular'; font-size:5.5115px; letter-spacing:1;"> </tspan><tspan x="43" y="19.8" class="st0" style="font-family:'Roboto-Regular'; font-size:5.5115px;">ad</tspan><tspan x="49.1" y="19.8" class="st0" style="font-family:'Roboto-Regular'; font-size:5.5115px; letter-spacing:1;"> </tspan><tspan x="52" y="19.8" class="st0" style="font-family:'Roboto-Regular'; font-size:5.5115px;">minim</tspan><tspan x="67.5" y="19.8" class="st0" style="font-family:'Roboto-Regular'; font-size:5.5115px; letter-spacing:1;"> </tspan><tspan x="70.4" y="19.8" class="st0" style="font-family:'Roboto-Regular'; font-size:5.5115px;">veniam,</tspan><tspan x="89.5" y="19.8" class="st0" style="font-family:'Roboto-Regular'; font-size:5.5115px; letter-spacing:1;"> </tspan><tspan x="92.3" y="19.8" class="st0" style="font-family:'Roboto-Regular'; font-size:5.5115px;">quis </tspan><tspan x="0" y="26.5" class="st0" style="font-family:'Roboto-Regular'; font-size:5.5115px;">nostrud</tspan><tspan x="19.2" y="26.5" class="st0" style="font-family:'Roboto-Regular'; font-size:5.5115px;"> </tspan><tspan x="21.5" y="26.5" class="st0" style="font-family:'Roboto-Regular'; font-size:5.5115px;">exercitation</tspan><tspan x="50.6" y="26.5" class="st0" style="font-family:'Roboto-Regular'; font-size:5.5115px;"> </tspan><tspan x="52.9" y="26.5" class="st0" style="font-family:'Roboto-Regular'; font-size:5.5115px;">ullamco</tspan><tspan x="72.7" y="26.5" class="st0" style="font-family:'Roboto-Regular'; font-size:5.5115px;"> </tspan><tspan x="74.9" y="26.5" class="st0" style="font-family:'Roboto-Regular'; font-size:5.5115px;">laboris</tspan><tspan x="91.8" y="26.5" class="st0" style="font-family:'Roboto-Regular'; font-size:5.5115px;"> </tspan><tspan x="94.1" y="26.5" class="st0" style="font-family:'Roboto-Regular'; font-size:5.5115px;">nisi </tspan></text>
			<rect x="80.2" y="877.4" style="fill:none;" width="102.9" height="21.2"/>
			<text transform="matrix(1 0 0 1 80.2499 884.0826)"><tspan x="0" y="0" class="st0" style="font-family:'Roboto-Bold'; font-size:8.8184px;">Lorem ipsum dolor sit </tspan><tspan x="0" y="10.6" class="st0" style="font-family:'Roboto-Bold'; font-size:8.8184px;">amet, consectetur </tspan></text>
		</g>
		<g>
			<g>
				<path class="st0" d="M182.1,968.8h-165c-8.2,0-14.8,6.7-14.8,14.8v53.8c0,8.2,6.7,14.8,14.8,14.8h165c8.2,0,14.8-6.7,14.8-14.8
					v-53.8C197,975.5,190.3,968.8,182.1,968.8z"/>
				<linearGradient id="SVGID_35_" gradientUnits="userSpaceOnUse" x1="4.7928" y1="1010.5634" x2="194.4925" y2="1010.5634">
					<stop  offset="0" style="stop-color:#222222"/>
					<stop  offset="1" style="stop-color:#0D0E0E"/>
				</linearGradient>
				<path class="st41" d="M182.1,971.3h-165c-6.8,0-12.3,5.5-12.3,12.3v53.8c0,6.8,5.5,12.3,12.3,12.3h165c6.8,0,12.3-5.5,12.3-12.3
					v-53.8C194.5,976.9,189,971.3,182.1,971.3z"/>
				<linearGradient id="SVGID_36_" gradientUnits="userSpaceOnUse" x1="9.2928" y1="1010.5634" x2="189.9925" y2="1010.5634">
					<stop  offset="0" style="stop-color:#0D0E0E"/>
					<stop  offset="1" style="stop-color:#222222"/>
				</linearGradient>
				<path class="st42" d="M182.1,975.8h-165c-4.3,0-7.8,3.5-7.8,7.8v53.8c0,4.3,3.5,7.8,7.8,7.8h165c4.3,0,7.8-3.5,7.8-7.8v-53.8
					C190,979.3,186.5,975.8,182.1,975.8z"/>
				<path class="st6" d="M182.1,1042.3c2.7,0,4.8-2.2,4.8-4.8v-53.8c0-2.7-2.2-4.8-4.8-4.8h-165c-2.7,0-4.8,2.2-4.8,4.8v53.8
					c0,2.7,2.2,4.8,4.8,4.8H182.1z"/>
			</g>
			<rect x="80.1" y="1007" style="fill:none;" width="102.9" height="31.7"/>
			<text transform="matrix(1 0 0 1 80.0677 1011.2256)"><tspan x="0" y="0" class="st0" style="font-family:'Roboto-Regular'; font-size:5.5115px;">Lorem</tspan><tspan x="15.8" y="0" class="st0" style="font-family:'Roboto-Regular'; font-size:5.5115px;"> </tspan><tspan x="17.7" y="0" class="st0" style="font-family:'Roboto-Regular'; font-size:5.5115px;">ipsum</tspan><tspan x="33.1" y="0" class="st0" style="font-family:'Roboto-Regular'; font-size:5.5115px;"> </tspan><tspan x="35" y="0" class="st0" style="font-family:'Roboto-Regular'; font-size:5.5115px;">dolor</tspan><tspan x="47.8" y="0" class="st0" style="font-family:'Roboto-Regular'; font-size:5.5115px;"> </tspan><tspan x="49.7" y="0" class="st0" style="font-family:'Roboto-Regular'; font-size:5.5115px;">sit</tspan><tspan x="55.8" y="0" class="st0" style="font-family:'Roboto-Regular'; font-size:5.5115px;"> </tspan><tspan x="57.8" y="0" class="st0" style="font-family:'Roboto-Regular'; font-size:5.5115px;">amet,</tspan><tspan x="71.5" y="0" class="st0" style="font-family:'Roboto-Regular'; font-size:5.5115px;"> </tspan><tspan x="73.4" y="0" class="st0" style="font-family:'Roboto-Regular'; font-size:5.5115px;">consectetur </tspan><tspan x="0" y="6.6" class="st0" style="font-family:'Roboto-Regular'; font-size:5.5115px;">adipiscing</tspan><tspan x="25.5" y="6.6" class="st0" style="font-family:'Roboto-Regular'; font-size:5.5115px; letter-spacing:1;"> </tspan><tspan x="28.4" y="6.6" class="st0" style="font-family:'Roboto-Regular'; font-size:5.5115px;">elit,</tspan><tspan x="37" y="6.6" class="st0" style="font-family:'Roboto-Regular'; font-size:5.5115px; letter-spacing:1;"> </tspan><tspan x="39.9" y="6.6" class="st0" style="font-family:'Roboto-Regular'; font-size:5.5115px;">sed</tspan><tspan x="48.8" y="6.6" class="st0" style="font-family:'Roboto-Regular'; font-size:5.5115px; letter-spacing:1;"> </tspan><tspan x="51.7" y="6.6" class="st0" style="font-family:'Roboto-Regular'; font-size:5.5115px;">do</tspan><tspan x="58" y="6.6" class="st0" style="font-family:'Roboto-Regular'; font-size:5.5115px; letter-spacing:1;"> </tspan><tspan x="60.9" y="6.6" class="st0" style="font-family:'Roboto-Regular'; font-size:5.5115px;">eiusmod</tspan><tspan x="82.2" y="6.6" class="st0" style="font-family:'Roboto-Regular'; font-size:5.5115px; letter-spacing:1;"> </tspan><tspan x="85.1" y="6.6" class="st0" style="font-family:'Roboto-Regular'; font-size:5.5115px;">tempor </tspan><tspan x="0" y="13.2" class="st0" style="font-family:'Roboto-Regular'; font-size:5.5115px;">incididunt</tspan><tspan x="24.6" y="13.2" class="st0" style="font-family:'Roboto-Regular'; font-size:5.5115px; letter-spacing:2;"> </tspan><tspan x="28.6" y="13.2" class="st0" style="font-family:'Roboto-Regular'; font-size:5.5115px;">ut</tspan><tspan x="33.6" y="13.2" class="st0" style="font-family:'Roboto-Regular'; font-size:5.5115px; letter-spacing:2;"> </tspan><tspan x="37.7" y="13.2" class="st0" style="font-family:'Roboto-Regular'; font-size:5.5115px;">labore</tspan><tspan x="53.2" y="13.2" class="st0" style="font-family:'Roboto-Regular'; font-size:5.5115px; letter-spacing:2;"> </tspan><tspan x="57.3" y="13.2" class="st0" style="font-family:'Roboto-Regular'; font-size:5.5115px;">et</tspan><tspan x="62" y="13.2" class="st0" style="font-family:'Roboto-Regular'; font-size:5.5115px; letter-spacing:2;"> </tspan><tspan x="66.1" y="13.2" class="st0" style="font-family:'Roboto-Regular'; font-size:5.5115px;">dolore</tspan><tspan x="81.7" y="13.2" class="st0" style="font-family:'Roboto-Regular'; font-size:5.5115px; letter-spacing:2;"> </tspan><tspan x="85.7" y="13.2" class="st0" style="font-family:'Roboto-Regular'; font-size:5.5115px;">magna </tspan><tspan x="0" y="19.8" class="st0" style="font-family:'Roboto-Regular'; font-size:5.5115px;">aliqua.</tspan><tspan x="16.6" y="19.8" class="st0" style="font-family:'Roboto-Regular'; font-size:5.5115px; letter-spacing:1;"> </tspan><tspan x="19.4" y="19.8" class="st0" style="font-family:'Roboto-Regular'; font-size:5.5115px;">Ut</tspan><tspan x="25" y="19.8" class="st0" style="font-family:'Roboto-Regular'; font-size:5.5115px; letter-spacing:1;"> </tspan><tspan x="27.9" y="19.8" class="st0" style="font-family:'Roboto-Regular'; font-size:5.5115px;">enim</tspan><tspan x="40.1" y="19.8" class="st0" style="font-family:'Roboto-Regular'; font-size:5.5115px; letter-spacing:1;"> </tspan><tspan x="43" y="19.8" class="st0" style="font-family:'Roboto-Regular'; font-size:5.5115px;">ad</tspan><tspan x="49.1" y="19.8" class="st0" style="font-family:'Roboto-Regular'; font-size:5.5115px; letter-spacing:1;"> </tspan><tspan x="52" y="19.8" class="st0" style="font-family:'Roboto-Regular'; font-size:5.5115px;">minim</tspan><tspan x="67.5" y="19.8" class="st0" style="font-family:'Roboto-Regular'; font-size:5.5115px; letter-spacing:1;"> </tspan><tspan x="70.4" y="19.8" class="st0" style="font-family:'Roboto-Regular'; font-size:5.5115px;">veniam,</tspan><tspan x="89.5" y="19.8" class="st0" style="font-family:'Roboto-Regular'; font-size:5.5115px; letter-spacing:1;"> </tspan><tspan x="92.3" y="19.8" class="st0" style="font-family:'Roboto-Regular'; font-size:5.5115px;">quis </tspan><tspan x="0" y="26.5" class="st0" style="font-family:'Roboto-Regular'; font-size:5.5115px;">nostrud</tspan><tspan x="19.2" y="26.5" class="st0" style="font-family:'Roboto-Regular'; font-size:5.5115px;"> </tspan><tspan x="21.5" y="26.5" class="st0" style="font-family:'Roboto-Regular'; font-size:5.5115px;">exercitation</tspan><tspan x="50.6" y="26.5" class="st0" style="font-family:'Roboto-Regular'; font-size:5.5115px;"> </tspan><tspan x="52.9" y="26.5" class="st0" style="font-family:'Roboto-Regular'; font-size:5.5115px;">ullamco</tspan><tspan x="72.7" y="26.5" class="st0" style="font-family:'Roboto-Regular'; font-size:5.5115px;"> </tspan><tspan x="74.9" y="26.5" class="st0" style="font-family:'Roboto-Regular'; font-size:5.5115px;">laboris</tspan><tspan x="91.8" y="26.5" class="st0" style="font-family:'Roboto-Regular'; font-size:5.5115px;"> </tspan><tspan x="94.1" y="26.5" class="st0" style="font-family:'Roboto-Regular'; font-size:5.5115px;">nisi </tspan></text>
			<rect x="80.1" y="981.9" style="fill:none;" width="102.9" height="21.2"/>
			<text transform="matrix(1 0 0 1 80.0677 988.6626)"><tspan x="0" y="0" class="st0" style="font-family:'Roboto-Bold'; font-size:8.8184px;">Lorem ipsum dolor sit </tspan><tspan x="0" y="10.6" class="st0" style="font-family:'Roboto-Bold'; font-size:8.8184px;">amet, consectetur </tspan></text>
			<g>
				<g>
					<path class="st0" d="M61.2,968.8h-44c-8.2,0-14.8,6.7-14.8,14.8v53.8c0,8.2,6.7,14.8,14.8,14.8h44c8.2,0,14.8-6.7,14.8-14.8
						v-53.8C76.1,975.5,69.4,968.8,61.2,968.8z"/>
					<linearGradient id="SVGID_37_" gradientUnits="userSpaceOnUse" x1="4.8621" y1="1010.5634" x2="73.5619" y2="1010.5634">
						<stop  offset="0" style="stop-color:#B3DEE9;stop-opacity:0.9"/>
						<stop  offset="1" style="stop-color:#3490CF"/>
					</linearGradient>
					<path class="st43" d="M61.2,971.3h-44c-6.8,0-12.3,5.5-12.3,12.3v53.8c0,6.8,5.5,12.3,12.3,12.3h44c6.8,0,12.3-5.5,12.3-12.3
						v-53.8C73.6,976.9,68,971.3,61.2,971.3z"/>
					<linearGradient id="SVGID_38_" gradientUnits="userSpaceOnUse" x1="9.3621" y1="1010.5634" x2="69.0619" y2="1010.5634">
						<stop  offset="0" style="stop-color:#3490CF"/>
						<stop  offset="1" style="stop-color:#B3DEE9;stop-opacity:0.9"/>
					</linearGradient>
					<path class="st44" d="M61.2,975.8h-44c-4.3,0-7.8,3.5-7.8,7.8v53.8c0,4.3,3.5,7.8,7.8,7.8h44c4.3,0,7.8-3.5,7.8-7.8v-53.8
						C69.1,979.3,65.5,975.8,61.2,975.8z"/>
					<path class="st6" d="M61.2,1042.3c2.7,0,4.8-2.2,4.8-4.8v-53.8c0-2.7-2.2-4.8-4.8-4.8h-44c-2.7,0-4.8,2.2-4.8,4.8v53.8
						c0,2.7,2.2,4.8,4.8,4.8H61.2z"/>
				</g>
				<path class="st30" d="M24,1016.1h7.5l0.2,4.7l7.7,2.6l7.7-2.6l0.6-8.4H31.1l-0.4-7.5h17.2l0.6-7.5H22.7l-0.6-7.5h34.1l-0.9,14.9
					l-1.3,21.5l-14.7,4.9l-14.7-4.9L24,1016.1z"/>
			</g>
		</g>
		<g>
			<g>
				<path class="st0" d="M182.1,1073.6h-165c-8.2,0-14.8,6.7-14.8,14.8v53.8c0,8.2,6.7,14.8,14.8,14.8h165c8.2,0,14.8-6.7,14.8-14.8
					v-53.8C197,1080.2,190.3,1073.6,182.1,1073.6z"/>
				<linearGradient id="SVGID_39_" gradientUnits="userSpaceOnUse" x1="4.7928" y1="1115.3291" x2="194.4925" y2="1115.3291">
					<stop  offset="0" style="stop-color:#222222"/>
					<stop  offset="1" style="stop-color:#0D0E0E"/>
				</linearGradient>
				<path class="st45" d="M182.1,1076.1h-165c-6.8,0-12.3,5.5-12.3,12.3v53.8c0,6.8,5.5,12.3,12.3,12.3h165
					c6.8,0,12.3-5.5,12.3-12.3v-53.8C194.5,1081.6,189,1076.1,182.1,1076.1z"/>
				<linearGradient id="SVGID_40_" gradientUnits="userSpaceOnUse" x1="9.2928" y1="1115.3291" x2="189.9925" y2="1115.3291">
					<stop  offset="0" style="stop-color:#0D0E0E"/>
					<stop  offset="1" style="stop-color:#222222"/>
				</linearGradient>
				<path class="st46" d="M182.1,1080.6h-165c-4.3,0-7.8,3.5-7.8,7.8v53.8c0,4.3,3.5,7.8,7.8,7.8h165c4.3,0,7.8-3.5,7.8-7.8v-53.8
					C190,1084.1,186.5,1080.6,182.1,1080.6z"/>
				<path class="st6" d="M182.1,1147.1c2.7,0,4.8-2.2,4.8-4.8v-53.8c0-2.7-2.2-4.8-4.8-4.8h-165c-2.7,0-4.8,2.2-4.8,4.8v53.8
					c0,2.7,2.2,4.8,4.8,4.8H182.1z"/>
			</g>
			<rect x="80.1" y="1111.8" style="fill:none;" width="102.9" height="31.7"/>
			<text transform="matrix(1 0 0 1 80.0677 1115.9912)"><tspan x="0" y="0" class="st0" style="font-family:'Roboto-Regular'; font-size:5.5115px;">Lorem</tspan><tspan x="15.8" y="0" class="st0" style="font-family:'Roboto-Regular'; font-size:5.5115px;"> </tspan><tspan x="17.7" y="0" class="st0" style="font-family:'Roboto-Regular'; font-size:5.5115px;">ipsum</tspan><tspan x="33.1" y="0" class="st0" style="font-family:'Roboto-Regular'; font-size:5.5115px;"> </tspan><tspan x="35" y="0" class="st0" style="font-family:'Roboto-Regular'; font-size:5.5115px;">dolor</tspan><tspan x="47.8" y="0" class="st0" style="font-family:'Roboto-Regular'; font-size:5.5115px;"> </tspan><tspan x="49.7" y="0" class="st0" style="font-family:'Roboto-Regular'; font-size:5.5115px;">sit</tspan><tspan x="55.8" y="0" class="st0" style="font-family:'Roboto-Regular'; font-size:5.5115px;"> </tspan><tspan x="57.8" y="0" class="st0" style="font-family:'Roboto-Regular'; font-size:5.5115px;">amet,</tspan><tspan x="71.5" y="0" class="st0" style="font-family:'Roboto-Regular'; font-size:5.5115px;"> </tspan><tspan x="73.4" y="0" class="st0" style="font-family:'Roboto-Regular'; font-size:5.5115px;">consectetur </tspan><tspan x="0" y="6.6" class="st0" style="font-family:'Roboto-Regular'; font-size:5.5115px;">adipiscing</tspan><tspan x="25.5" y="6.6" class="st0" style="font-family:'Roboto-Regular'; font-size:5.5115px; letter-spacing:1;"> </tspan><tspan x="28.4" y="6.6" class="st0" style="font-family:'Roboto-Regular'; font-size:5.5115px;">elit,</tspan><tspan x="37" y="6.6" class="st0" style="font-family:'Roboto-Regular'; font-size:5.5115px; letter-spacing:1;"> </tspan><tspan x="39.9" y="6.6" class="st0" style="font-family:'Roboto-Regular'; font-size:5.5115px;">sed</tspan><tspan x="48.8" y="6.6" class="st0" style="font-family:'Roboto-Regular'; font-size:5.5115px; letter-spacing:1;"> </tspan><tspan x="51.7" y="6.6" class="st0" style="font-family:'Roboto-Regular'; font-size:5.5115px;">do</tspan><tspan x="58" y="6.6" class="st0" style="font-family:'Roboto-Regular'; font-size:5.5115px; letter-spacing:1;"> </tspan><tspan x="60.9" y="6.6" class="st0" style="font-family:'Roboto-Regular'; font-size:5.5115px;">eiusmod</tspan><tspan x="82.2" y="6.6" class="st0" style="font-family:'Roboto-Regular'; font-size:5.5115px; letter-spacing:1;"> </tspan><tspan x="85.1" y="6.6" class="st0" style="font-family:'Roboto-Regular'; font-size:5.5115px;">tempor </tspan><tspan x="0" y="13.2" class="st0" style="font-family:'Roboto-Regular'; font-size:5.5115px;">incididunt</tspan><tspan x="24.6" y="13.2" class="st0" style="font-family:'Roboto-Regular'; font-size:5.5115px; letter-spacing:2;"> </tspan><tspan x="28.6" y="13.2" class="st0" style="font-family:'Roboto-Regular'; font-size:5.5115px;">ut</tspan><tspan x="33.6" y="13.2" class="st0" style="font-family:'Roboto-Regular'; font-size:5.5115px; letter-spacing:2;"> </tspan><tspan x="37.7" y="13.2" class="st0" style="font-family:'Roboto-Regular'; font-size:5.5115px;">labore</tspan><tspan x="53.2" y="13.2" class="st0" style="font-family:'Roboto-Regular'; font-size:5.5115px; letter-spacing:2;"> </tspan><tspan x="57.3" y="13.2" class="st0" style="font-family:'Roboto-Regular'; font-size:5.5115px;">et</tspan><tspan x="62" y="13.2" class="st0" style="font-family:'Roboto-Regular'; font-size:5.5115px; letter-spacing:2;"> </tspan><tspan x="66.1" y="13.2" class="st0" style="font-family:'Roboto-Regular'; font-size:5.5115px;">dolore</tspan><tspan x="81.7" y="13.2" class="st0" style="font-family:'Roboto-Regular'; font-size:5.5115px; letter-spacing:2;"> </tspan><tspan x="85.7" y="13.2" class="st0" style="font-family:'Roboto-Regular'; font-size:5.5115px;">magna </tspan><tspan x="0" y="19.8" class="st0" style="font-family:'Roboto-Regular'; font-size:5.5115px;">aliqua.</tspan><tspan x="16.6" y="19.8" class="st0" style="font-family:'Roboto-Regular'; font-size:5.5115px; letter-spacing:1;"> </tspan><tspan x="19.4" y="19.8" class="st0" style="font-family:'Roboto-Regular'; font-size:5.5115px;">Ut</tspan><tspan x="25" y="19.8" class="st0" style="font-family:'Roboto-Regular'; font-size:5.5115px; letter-spacing:1;"> </tspan><tspan x="27.9" y="19.8" class="st0" style="font-family:'Roboto-Regular'; font-size:5.5115px;">enim</tspan><tspan x="40.1" y="19.8" class="st0" style="font-family:'Roboto-Regular'; font-size:5.5115px; letter-spacing:1;"> </tspan><tspan x="43" y="19.8" class="st0" style="font-family:'Roboto-Regular'; font-size:5.5115px;">ad</tspan><tspan x="49.1" y="19.8" class="st0" style="font-family:'Roboto-Regular'; font-size:5.5115px; letter-spacing:1;"> </tspan><tspan x="52" y="19.8" class="st0" style="font-family:'Roboto-Regular'; font-size:5.5115px;">minim</tspan><tspan x="67.5" y="19.8" class="st0" style="font-family:'Roboto-Regular'; font-size:5.5115px; letter-spacing:1;"> </tspan><tspan x="70.4" y="19.8" class="st0" style="font-family:'Roboto-Regular'; font-size:5.5115px;">veniam,</tspan><tspan x="89.5" y="19.8" class="st0" style="font-family:'Roboto-Regular'; font-size:5.5115px; letter-spacing:1;"> </tspan><tspan x="92.3" y="19.8" class="st0" style="font-family:'Roboto-Regular'; font-size:5.5115px;">quis </tspan><tspan x="0" y="26.5" class="st0" style="font-family:'Roboto-Regular'; font-size:5.5115px;">nostrud</tspan><tspan x="19.2" y="26.5" class="st0" style="font-family:'Roboto-Regular'; font-size:5.5115px;"> </tspan><tspan x="21.5" y="26.5" class="st0" style="font-family:'Roboto-Regular'; font-size:5.5115px;">exercitation</tspan><tspan x="50.6" y="26.5" class="st0" style="font-family:'Roboto-Regular'; font-size:5.5115px;"> </tspan><tspan x="52.9" y="26.5" class="st0" style="font-family:'Roboto-Regular'; font-size:5.5115px;">ullamco</tspan><tspan x="72.7" y="26.5" class="st0" style="font-family:'Roboto-Regular'; font-size:5.5115px;"> </tspan><tspan x="74.9" y="26.5" class="st0" style="font-family:'Roboto-Regular'; font-size:5.5115px;">laboris</tspan><tspan x="91.8" y="26.5" class="st0" style="font-family:'Roboto-Regular'; font-size:5.5115px;"> </tspan><tspan x="94.1" y="26.5" class="st0" style="font-family:'Roboto-Regular'; font-size:5.5115px;">nisi </tspan></text>
			<rect x="80.1" y="1086.7" style="fill:none;" width="102.9" height="21.2"/>
			<text transform="matrix(1 0 0 1 80.0677 1093.4282)"><tspan x="0" y="0" class="st0" style="font-family:'Roboto-Bold'; font-size:8.8184px;">Lorem ipsum dolor sit </tspan><tspan x="0" y="10.6" class="st0" style="font-family:'Roboto-Bold'; font-size:8.8184px;">amet, consectetur </tspan></text>
			<g>
				<g>
					<path class="st0" d="M61.1,1073.6h-44c-8.2,0-14.8,6.7-14.8,14.8v53.8c0,8.2,6.7,14.8,14.8,14.8h44c8.2,0,14.8-6.7,14.8-14.8
						v-53.8C76,1080.2,69.3,1073.6,61.1,1073.6z"/>
					<linearGradient id="SVGID_41_" gradientUnits="userSpaceOnUse" x1="4.7928" y1="1115.3291" x2="73.4925" y2="1115.3291">
						<stop  offset="0" style="stop-color:#FFDFA1"/>
						<stop  offset="1" style="stop-color:#FBBE43"/>
					</linearGradient>
					<path class="st47" d="M61.1,1076.1h-44c-6.8,0-12.3,5.5-12.3,12.3v53.8c0,6.8,5.5,12.3,12.3,12.3h44c6.8,0,12.3-5.5,12.3-12.3
						v-53.8C73.5,1081.6,68,1076.1,61.1,1076.1z"/>
					<linearGradient id="SVGID_42_" gradientUnits="userSpaceOnUse" x1="9.2928" y1="1115.3291" x2="68.9925" y2="1115.3291">
						<stop  offset="0" style="stop-color:#FBBE43"/>
						<stop  offset="1" style="stop-color:#FFDFA1"/>
					</linearGradient>
					<path class="st48" d="M61.1,1080.6h-44c-4.3,0-7.8,3.5-7.8,7.8v53.8c0,4.3,3.5,7.8,7.8,7.8h44c4.3,0,7.8-3.5,7.8-7.8v-53.8
						C69,1084.1,65.5,1080.6,61.1,1080.6z"/>
					<path class="st6" d="M61.1,1147.1c2.7,0,4.8-2.2,4.8-4.8v-53.8c0-2.7-2.2-4.8-4.8-4.8h-44c-2.7,0-4.8,2.2-4.8,4.8v53.8
						c0,2.7,2.2,4.8,4.8,4.8H61.1z"/>
				</g>
				<g>
					<polygon class="st0" points="60.4,1094.8 59.9,1101.1 47.8,1101.1 47.8,1113.8 58.9,1112.2 57.3,1131.5 41.5,1135.8 
						41.5,1128.6 52.2,1125.7 52.6,1119.7 41.5,1121.6 41.5,1094.8 					"/>
					<polygon class="st0" points="35.2,1094.8 35.2,1135.8 17.8,1131 17.8,1123.2 28.9,1126.3 28.9,1094.8 					"/>
				</g>
			</g>
		</g>
	</g>
</g>
<g id="Boton_Search_e_Voltar" class="st2">
	<g class="st4">
		<g>
			<circle class="st0" cx="374.4" cy="870.8" r="14.3"/>
			
				<linearGradient id="SVGID_43_" gradientUnits="userSpaceOnUse" x1="361.0998" y1="108.9337" x2="387.7551" y2="108.9337" gradientTransform="matrix(1 0 0 -1 0 979.7572)">
				<stop  offset="0" style="stop-color:#EF7852"/>
				<stop  offset="1" style="stop-color:#EB5C2C"/>
			</linearGradient>
			<circle class="st49" cx="374.4" cy="870.8" r="13.3"/>
			
				<linearGradient id="SVGID_44_" gradientUnits="userSpaceOnUse" x1="363.3211" y1="108.9337" x2="385.5338" y2="108.9337" gradientTransform="matrix(1 0 0 -1 0 979.7572)">
				<stop  offset="0" style="stop-color:#EB5C2C"/>
				<stop  offset="1" style="stop-color:#EF7852"/>
			</linearGradient>
			<path class="st50" d="M374.4,881.9c-6.1,0-11.1-5-11.1-11.1s5-11.1,11.1-11.1c6.1,0,11.1,5,11.1,11.1S380.6,881.9,374.4,881.9z"
				/>
			<path class="st0" d="M372.4,865.6c0.1-0.1,0.2-0.3,0.3-0.2c0.1,0.1,0.1,0.2,0.1,0.4c0,0.9,0,1.9,0,2.8c0,0.3,0.1,0.4,0.4,0.5
				c2.6,0.2,5,1.1,7.1,2.7c0.4,0.4,0.8,0.8,1.1,1.3c0.1,0.2,0.2,0.4,0.1,0.5c-0.2,0.2-0.4,0.1-0.5,0c-0.9-0.4-1.7-0.8-2.6-0.9
				c-1.7-0.3-3.4-0.2-5.1-0.1c-0.3,0-0.3,0.2-0.3,0.4c-0.1,1.1-0.1,2.2-0.2,3.3c-0.2,0-0.3-0.2-0.3-0.2c-1.6-1.6-3.2-3.3-4.8-4.9
				c-0.3-0.3-0.3-0.4,0-0.7C369.1,868.8,370.8,867.2,372.4,865.6z"/>
		</g>
		<g>
			<g>
				<g>
					<path class="st0" d="M524.5,856.5H414c-7.1,0-12.8,6.4-12.8,14.3v0c0,7.9,5.7,14.3,12.8,14.3h110.5c7.1,0,12.8-6.4,12.8-14.3v0
						C537.3,862.9,531.6,856.5,524.5,856.5z"/>
					<linearGradient id="SVGID_45_" gradientUnits="userSpaceOnUse" x1="406.0995" y1="871.1106" x2="600.6953" y2="870.2261">
						<stop  offset="0" style="stop-color:#222222"/>
						<stop  offset="0.261" style="stop-color:#202021"/>
						<stop  offset="0.4177" style="stop-color:#1B1B1C"/>
						<stop  offset="0.5465" style="stop-color:#121213"/>
						<stop  offset="0.5899" style="stop-color:#0D0E0E"/>
					</linearGradient>
					<path class="st51" d="M524.4,857.4H414.1c-6.6,0-12,6-12,13.5v0c0,7.4,5.4,13.5,12,13.5h110.3c6.6,0,12-6,12-13.5v0
						C536.4,863.4,531,857.4,524.4,857.4z"/>
					<linearGradient id="SVGID_46_" gradientUnits="userSpaceOnUse" x1="403.9694" y1="870.8238" x2="551.8355" y2="870.8238">
						<stop  offset="0" style="stop-color:#0D0E0E"/>
						<stop  offset="5.068219e-02" style="stop-color:#111212"/>
						<stop  offset="0.2146" style="stop-color:#1B1B1C"/>
						<stop  offset="0.4115" style="stop-color:#202020"/>
						<stop  offset="0.727" style="stop-color:#222222"/>
					</linearGradient>
					<path class="st52" d="M534.5,870.8c0-6.4-4.6-11.6-10.2-11.6H414.2c-5.6,0-10.2,5.2-10.2,11.6c0,6.4,4.6,11.6,10.2,11.6h110.1
						C530,882.4,534.5,877.2,534.5,870.8z"/>
				</g>
				<g>
					<circle class="st0" cx="523" cy="870.8" r="14.3"/>
					
						<linearGradient id="SVGID_47_" gradientUnits="userSpaceOnUse" x1="509.6389" y1="108.9337" x2="536.2941" y2="108.9337" gradientTransform="matrix(1 0 0 -1 0 979.7572)">
						<stop  offset="0" style="stop-color:#EF7852"/>
						<stop  offset="1" style="stop-color:#EB5C2C"/>
					</linearGradient>
					<circle class="st53" cx="523" cy="870.8" r="13.3"/>
					
						<linearGradient id="SVGID_48_" gradientUnits="userSpaceOnUse" x1="511.8601" y1="108.9337" x2="534.0729" y2="108.9337" gradientTransform="matrix(1 0 0 -1 0 979.7572)">
						<stop  offset="0" style="stop-color:#EB5C2C"/>
						<stop  offset="1" style="stop-color:#EF7852"/>
					</linearGradient>
					<path class="st54" d="M523,881.9c-6.1,0-11.1-5-11.1-11.1s5-11.1,11.1-11.1c6.1,0,11.1,5,11.1,11.1S529.1,881.9,523,881.9z"/>
					<g>
						<path class="st0" d="M521.8,864.2c-3,0-5.4,2.4-5.4,5.4c0,3,2.4,5.4,5.4,5.4c3,0,5.4-2.4,5.4-5.4
							C527.2,866.6,524.8,864.2,521.8,864.2z M521.8,873.2c-2,0-3.5-1.6-3.5-3.5c0-2,1.6-3.5,3.5-3.5c2,0,3.5,1.6,3.5,3.5
							C525.3,871.6,523.7,873.2,521.8,873.2z"/>
						<path class="st0" d="M529.3,875.8l-1.9-1.9c-0.4-0.4-1-0.4-1.3,0c-0.4,0.4-0.4,1,0,1.3l1.9,1.9c0.4,0.4,1,0.4,1.3,0
							C529.7,876.8,529.7,876.2,529.3,875.8z"/>
					</g>
				</g>
			</g>
			<text transform="matrix(1.11 0 0 1 413.2523 873.7461)" class="st0" style="font-family:'Roboto-Thin'; font-size:10px;">Search</text>
		</g>
	</g>
</g>
<g id="Botons_Like_e_Coments" class="st2">
	<g class="st4">
		<g>
			<circle class="st0" cx="509.7" cy="934.9" r="14.3"/>
			
				<linearGradient id="SVGID_49_" gradientUnits="userSpaceOnUse" x1="496.4205" y1="44.8622" x2="523.0758" y2="44.8622" gradientTransform="matrix(1 0 0 -1 0 979.7572)">
				<stop  offset="0" style="stop-color:#EF7852"/>
				<stop  offset="1" style="stop-color:#EB5C2C"/>
			</linearGradient>
			<circle class="st55" cx="509.7" cy="934.9" r="13.3"/>
			
				<linearGradient id="SVGID_50_" gradientUnits="userSpaceOnUse" x1="498.6418" y1="44.8622" x2="520.8546" y2="44.8622" gradientTransform="matrix(1 0 0 -1 0 979.7572)">
				<stop  offset="0" style="stop-color:#EB5C2C"/>
				<stop  offset="1" style="stop-color:#EF7852"/>
			</linearGradient>
			<path class="st56" d="M509.7,946c-6.1,0-11.1-5-11.1-11.1s5-11.1,11.1-11.1c6.1,0,11.1,5,11.1,11.1S515.9,946,509.7,946z"/>
			<path class="st0" d="M503.5,929.3v9.1h4l2.2,2.2l2.2-2.2h4v-9.1H503.5z M506.3,934.8c-0.5,0-1-0.4-1-1c0-0.5,0.4-1,1-1s1,0.4,1,1
				C507.2,934.3,506.8,934.8,506.3,934.8z M509.7,934.8c-0.5,0-1-0.4-1-1c0-0.5,0.4-1,1-1c0.5,0,1,0.4,1,1
				C510.7,934.3,510.3,934.8,509.7,934.8z M513.2,934.8c-0.5,0-1-0.4-1-1c0-0.5,0.4-1,1-1c0.5,0,1,0.4,1,1
				C514.2,934.3,513.8,934.8,513.2,934.8z"/>
		</g>
		<g>
			<circle class="st0" cx="419.8" cy="934.9" r="14.3"/>
			
				<linearGradient id="SVGID_51_" gradientUnits="userSpaceOnUse" x1="406.4699" y1="44.8622" x2="433.1252" y2="44.8622" gradientTransform="matrix(1 0 0 -1 0 979.7572)">
				<stop  offset="0" style="stop-color:#EF7852"/>
				<stop  offset="1" style="stop-color:#EB5C2C"/>
			</linearGradient>
			<circle class="st57" cx="419.8" cy="934.9" r="13.3"/>
			
				<linearGradient id="SVGID_52_" gradientUnits="userSpaceOnUse" x1="408.6912" y1="44.8622" x2="430.9039" y2="44.8622" gradientTransform="matrix(1 0 0 -1 0 979.7572)">
				<stop  offset="0" style="stop-color:#EB5C2C"/>
				<stop  offset="1" style="stop-color:#EF7852"/>
			</linearGradient>
			<path class="st58" d="M419.8,946c-6.1,0-11.1-5-11.1-11.1s5-11.1,11.1-11.1c6.1,0,11.1,5,11.1,11.1S425.9,946,419.8,946z"/>
			<polygon class="st0" points="418.4,936.1 414.5,936.1 414.5,933.5 418.4,933.5 418.4,929.3 421.3,929.3 421.3,933.5 425.1,933.5 
				425.1,936.1 421.3,936.1 421.3,940.5 418.4,940.5 			"/>
		</g>
		<g>
			<circle class="st0" cx="374.8" cy="934.9" r="14.3"/>
			
				<linearGradient id="SVGID_53_" gradientUnits="userSpaceOnUse" x1="361.4946" y1="44.8622" x2="388.1499" y2="44.8622" gradientTransform="matrix(1 0 0 -1 0 979.7572)">
				<stop  offset="0" style="stop-color:#EF7852"/>
				<stop  offset="1" style="stop-color:#EB5C2C"/>
			</linearGradient>
			<circle class="st59" cx="374.8" cy="934.9" r="13.3"/>
			
				<linearGradient id="SVGID_54_" gradientUnits="userSpaceOnUse" x1="363.7159" y1="44.8622" x2="385.9286" y2="44.8622" gradientTransform="matrix(1 0 0 -1 0 979.7572)">
				<stop  offset="0" style="stop-color:#EB5C2C"/>
				<stop  offset="1" style="stop-color:#EF7852"/>
			</linearGradient>
			<path class="st60" d="M374.8,946c-6.1,0-11.1-5-11.1-11.1s5-11.1,11.1-11.1c6.1,0,11.1,5,11.1,11.1S380.9,946,374.8,946z"/>
			<path class="st0" d="M372.8,929.7c0.1-0.1,0.2-0.3,0.3-0.2c0.1,0.1,0.1,0.2,0.1,0.4c0,0.9,0,1.9,0,2.8c0,0.3,0.1,0.4,0.4,0.5
				c2.6,0.2,5,1.1,7.1,2.7c0.4,0.4,0.8,0.8,1.1,1.3c0.1,0.2,0.2,0.4,0.1,0.5c-0.2,0.2-0.4,0.1-0.5,0c-0.9-0.4-1.7-0.8-2.6-0.9
				c-1.7-0.3-3.4-0.2-5.1-0.1c-0.3,0-0.3,0.2-0.3,0.4c-0.1,1.1-0.1,2.2-0.2,3.3c-0.2,0-0.3-0.2-0.3-0.2c-1.6-1.6-3.2-3.3-4.8-4.9
				c-0.3-0.3-0.3-0.4,0-0.7C369.5,932.9,371.2,931.3,372.8,929.7z"/>
		</g>
		<g>
			<circle class="st0" cx="464.8" cy="934.9" r="14.3"/>
			
				<linearGradient id="SVGID_55_" gradientUnits="userSpaceOnUse" x1="451.4452" y1="44.8622" x2="478.1005" y2="44.8622" gradientTransform="matrix(1 0 0 -1 0 979.7572)">
				<stop  offset="0" style="stop-color:#EF7852"/>
				<stop  offset="1" style="stop-color:#EB5C2C"/>
			</linearGradient>
			<circle class="st61" cx="464.8" cy="934.9" r="13.3"/>
			
				<linearGradient id="SVGID_56_" gradientUnits="userSpaceOnUse" x1="453.6665" y1="44.8622" x2="475.8792" y2="44.8622" gradientTransform="matrix(1 0 0 -1 0 979.7572)">
				<stop  offset="0" style="stop-color:#EB5C2C"/>
				<stop  offset="1" style="stop-color:#EF7852"/>
			</linearGradient>
			<path class="st62" d="M464.8,946c-6.1,0-11.1-5-11.1-11.1s5-11.1,11.1-11.1c6.1,0,11.1,5,11.1,11.1S470.9,946,464.8,946z"/>
			<path class="st0" d="M466.8,928.5c-0.6-0.7-1.6-0.3-1.9,0.5c-0.2,0.6-0.5,1.4-0.8,1.9c-0.8,1.7-1.3,2.6-2.6,3.8
				c-0.2,0.2-0.4,0.3-0.7,0.4c-0.9,0.3-1.7,1.3-1.5,2.3l0.3,1.4c0.1,0.7,0.7,1.3,1.4,1.5l4.4,1.2c2,0.5,4-0.7,4.4-2.8l0.5-2.9
				c0.3-1.4-0.8-2.8-2.3-2.8h-0.7l0,0c0.1-0.3,0.1-0.8,0.2-1.2c0-0.5,0.1-1,0-1.5c0-0.5-0.1-1-0.4-1.3
				C467,928.8,466.9,928.7,466.8,928.5z"/>
		</g>
	</g>
</g>
<g id="Img_Html" class="st2">
	<g class="st4">
		
			<image style="overflow:visible;" width="1193" height="624" xlink:href="2512A849.jpg"  transform="matrix(0.1296 0 0 0.1296 1226.8235 967.7524)">
		</image>
		
			<image style="overflow:visible;" width="1193" height="624" xlink:href="2512A84B.jpg"  transform="matrix(0.1296 0 0 0.1296 1261.8823 967.7524)">
		</image>
		
			<image style="overflow:visible;" width="1193" height="624" xlink:href="2512A84E.jpg"  transform="matrix(0.1296 0 0 0.1296 1241.6725 967.7524)">
		</image>
	</g>
</g>
</svg>
