<?xml version="1.0" encoding="utf-8"?>
<!-- Generator: Adobe Illustrator 24.2.1, SVG Export Plug-In . SVG Version: 6.00 Build 0)  -->
<svg version="1.1" xmlns="http://www.w3.org/2000/svg" xmlns:xlink="http://www.w3.org/1999/xlink" x="0px" y="0px"
	 viewBox="0 0 180.7 35.1" style="enable-background:new 0 0 180.7 35.1;" xml:space="preserve">
<style type="text/css">
	.st0{display:none;}
	.st1{display:inline;}
	.st2{fill:#F0825D;}
	.st3{display:inline;fill:#FFFFFF;}
	.st4{fill:url(#SVGID_1_);}
	.st5{fill:none;stroke:#FFFFFF;stroke-miterlimit:10;}
	.st6{fill:url(#SVGID_2_);}
	.st7{fill:url(#SVGID_3_);}
	.st8{fill:url(#SVGID_4_);}
	.st9{fill:#FFFFFF;}
	.st10{fill:url(#SVGID_5_);}
	.st11{fill:url(#SVGID_6_);}
	.st12{fill:url(#SVGID_7_);}
	.st13{fill:url(#SVGID_8_);}
	.st14{fill:url(#SVGID_9_);}
	.st15{fill:url(#SVGID_10_);}
	.st16{fill:url(#SVGID_11_);}
	.st17{fill:url(#SVGID_12_);}
	.st18{fill:url(#SVGID_13_);}
	.st19{fill:url(#SVGID_14_);}
	.st20{fill:url(#SVGID_15_);}
	.st21{fill:url(#SVGID_16_);}
	.st22{fill:url(#SVGID_17_);}
	.st23{fill:url(#SVGID_18_);}
	.st24{fill:url(#SVGID_19_);}
	.st25{fill:url(#SVGID_20_);}
	.st26{fill:url(#SVGID_21_);}
	.st27{fill:url(#SVGID_22_);}
	.st28{fill:url(#SVGID_23_);}
	.st29{fill:url(#SVGID_24_);}
	.st30{fill-rule:evenodd;clip-rule:evenodd;fill:#FFFFFF;}
	.st31{fill:url(#SVGID_25_);}
	.st32{fill:url(#SVGID_26_);}
	.st33{fill:url(#SVGID_27_);}
	.st34{fill:url(#SVGID_28_);}
	.st35{fill:url(#SVGID_29_);}
	.st36{fill:url(#SVGID_30_);}
	.st37{fill:url(#SVGID_31_);}
	.st38{fill:url(#SVGID_32_);}
	.st39{fill:url(#SVGID_33_);}
	.st40{fill:url(#SVGID_34_);}
	.st41{fill:url(#SVGID_35_);}
	.st42{fill:url(#SVGID_36_);}
	.st43{fill:url(#SVGID_37_);}
	.st44{fill:url(#SVGID_38_);}
	.st45{fill:url(#SVGID_39_);}
	.st46{fill:url(#SVGID_40_);}
	.st47{fill:url(#SVGID_41_);}
	.st48{fill:url(#SVGID_42_);}
	.st49{fill:url(#SVGID_43_);}
	.st50{fill:url(#SVGID_44_);}
	.st51{fill:url(#SVGID_45_);}
	.st52{fill:url(#SVGID_46_);}
	.st53{fill:url(#SVGID_47_);}
	.st54{fill:url(#SVGID_48_);}
	.st55{fill:url(#SVGID_49_);}
	.st56{fill:url(#SVGID_50_);}
	.st57{fill:url(#SVGID_51_);}
	.st58{fill:url(#SVGID_52_);}
	.st59{fill:url(#SVGID_53_);}
	.st60{fill:url(#SVGID_54_);}
	.st61{fill:url(#SVGID_55_);}
	.st62{fill:url(#SVGID_56_);}
</style>
<g id="Logo" class="st0">
	<g class="st1">
		<text transform="matrix(1 0 0 1 -1059.8962 -736.8165)" class="st9" style="font-family:'Monoid-Bold'; font-size:24.5422px;">The Space of</text>
		<text transform="matrix(1 0 0 1 -1069.8181 -676.2091)" class="st9" style="font-family:'Gamer'; font-size:107.939px;">Developers</text>
		<g>
			<g>
				<path class="st2" d="M-696.7-624.9c-16.8,0-32.3-6-44.4-16.1l-6.3,9.7c13.9,11.2,31.5,17.9,50.6,17.9c19.2,0,36.8-6.7,50.6-17.9
					l-8-8.3C-665.8-630.4-680.6-624.9-696.7-624.9z"/>
				<path class="st2" d="M-631.9-669.4l10.9,3.7c0.9-2.3,1.7-4.7,2.3-7.2l-10.8-4C-630.2-674.3-631-671.8-631.9-669.4z"/>
				<path class="st2" d="M-696.7-775.3c-23.4,0-44.6,10-59.4,26l6.7,9.7c12.7-14.8,31.6-24.3,52.7-24.3c38.3,0,69.4,31.2,69.4,69.4
					c0,4.6-0.5,9.2-1.3,13.5l11.2,2.4c1-5.2,1.6-10.5,1.6-16C-615.8-739-652.1-775.3-696.7-775.3z"/>
			</g>
		</g>
		<g>
			<g>
				<path class="st2" d="M-697.4-570c-50.7,0-94.8-28.2-116.1-69.2c-3.2,1.2-6.9,2.8-10.7,4.3c23.1,45.2,71.2,76.4,126.8,76.4
					c14.6,0,28.6-2.1,41.9-6.1c-1.2-3.7-2.4-7.8-3.4-11C-671.1-571.9-684-570-697.4-570z"/>
				<path class="st2" d="M-635-817.8c-0.6,3.4-1.6,8-2.4,11.6c41.5,20.9,69.9,62.8,69.9,111c0,50.7-31.5,94.5-76.6,114.1l4.5,10.5
					c49.2-21.4,83.6-69.2,83.6-124.7C-556-748.9-588.3-795.4-635-817.8z"/>
				<path class="st2" d="M-697.4-820.4c7,0,13.9,0.6,20.6,1.6l-4.8-12.2c-5.2-0.6-10.4-0.9-15.7-0.9c-56.2,0-104.9,31.9-127.6,78
					l8.2,9.6C-797-789-750.9-820.4-697.4-820.4z"/>
				<path class="st2" d="M-663.1-815.9c0.4-3.6,0.9-8.1,1.3-11.5c-4.5-1.1-9.1-2.1-13.8-2.8l5.5,12.7
					C-667.7-817-665.4-816.5-663.1-815.9z"/>
			</g>
		</g>
		<g>
			<g>
				<path class="st2" d="M-840.1-630.4c-2.4,1.9-5.2,4.1-7.9,6.2c1.8,3.5,3.7,7,5.7,10.4c2.8-2.3,5.8-4.6,7.7-6.3
					C-836.5-623.4-838.4-626.9-840.1-630.4z"/>
				<path class="st2" d="M-698.4-542.4c-54.5,0-102.6-27.4-130.7-68.9l-7,7.2c30,43.2,80.6,71.6,137.7,71.6
					c37.6,0,72.2-12.2,100.1-32.9c-1.9-2.7-4-5.5-5.8-8C-630.3-554-662.9-542.4-698.4-542.4z"/>
				<path class="st2" d="M-697.6-859.4v9.8c86.1,0.4,156,69.1,156,153.6c0,18.2-3.3,35.7-9.2,51.9l9.1,3.7
					c6.4-17.4,9.9-36.1,9.9-55.6C-531.7-785.9-606-859-697.6-859.4z"/>
				<path class="st2" d="M-816-797.4l-6.5-7.4c-9.1,10-17,21-23.4,33l7.6,6.7C-832.3-776.9-824.8-787.7-816-797.4z"/>
			</g>
		</g>
		<g>
			<g>
				<path class="st2" d="M-551.3-729.7c-15.7-64.9-75.6-113.4-147-113.4c-59.1,0-110.3,33.2-135.1,81.5l5.3,4.1
					c23.5-46.7,72.8-79,129.8-79c68.4,0,125.8,46.5,140.7,108.8C-555.7-728.4-553.3-729.1-551.3-729.7z"/>
				<path class="st2" d="M-549.1-718.8c-2.2,0.5-4.5,1-6.4,1.4c1.1,6.9,1.7,14,1.7,21.3c0,16.2-2.8,31.7-8,46.1l5.9,3.1
					c5.6-15.4,8.7-32,8.7-49.2C-547.3-703.8-547.9-711.4-549.1-718.8z"/>
				<path class="st2" d="M-827.7-633.9l-6.4,1.8c10.6,21.2,26.2,39.5,45.3,53.5l4.6-4.8C-802.5-596.5-817.5-613.8-827.7-633.9z"/>
			</g>
		</g>
		<g>
			<g>
				<path class="st2" d="M-586.8-702c2.1,0.3,4.5,0.7,6.7,1c-3.3-60.9-55.1-109.5-118.2-109.5c-37.6,0-71.2,17.3-92.9,44.1l7.3,1.5
					c20.5-23.8,51.3-39,85.6-39C-639.2-803.8-590.7-758.8-586.8-702z"/>
				<path class="st2" d="M-586.6-691.7c-1.6,58.8-51.1,106.1-111.7,106.1c-20.1,0-39-5.2-55.3-14.3l-1.5,6.7
					c16.9,9,36.2,14.2,56.7,14.2c64,0,116.2-49.8,118.3-111.8L-586.6-691.7z"/>
			</g>
		</g>
		<g>
			<g>
				<path class="st2" d="M-668.7-785.4l3.2-4.1c-10.4-3.6-21.5-5.6-33.1-5.6c-29.3,0-55.6,12.6-74,32.6l5.4,1.5
					c17.4-18,41.7-29.2,68.6-29.2C-688.1-790.3-678.1-788.5-668.7-785.4z"/>
				<path class="st2" d="M-633.6-771.2c-0.9,1.2-1.9,2.6-2.9,3.9c18.1,15.5,30.3,37.7,32.8,62.7c1.7,0.4,3.5,0.9,5,1.3
					C-601-730.3-614-754.4-633.6-771.2z"/>
				<path class="st2" d="M-698.6-599.6c-18.7,0-36.2-5.4-50.9-14.8l-1.3,5c15.2,9.3,33.1,14.7,52.2,14.7c35.7,0,67-18.8,84.8-46.9
					c-1.3-0.7-2.9-1.6-4.3-2.3C-635-617.3-664.8-599.6-698.6-599.6z"/>
			</g>
		</g>
		<g>
			<g>
				<path class="st2" d="M-698.6-785.6c-14.9,0-28.9,3.6-41.3,10c0.9,1.2,2.1,2.8,3,4c11.6-5.8,24.6-9,38.3-9
					c43.8,0,80,32.9,85.3,75.2l4.9-0.4C-613.9-750.7-652.2-785.6-698.6-785.6z"/>
				<path class="st2" d="M-698.6-608.6c-18.5,0-35.6-5.9-49.6-15.8l-0.9,5.4c14.5,9.7,31.8,15.4,50.5,15.4
					c22.7,0,43.5-8.4,59.5-22.2c-1.5-1.1-2.9-2.2-4-3C-658.1-616.3-677.4-608.6-698.6-608.6z"/>
			</g>
		</g>
		<g>
			<g>
				<path class="st2" d="M-698.3-634.5c-11.3,0-21.9-3-30.9-8.3c-0.7,1.5-1.4,3-2,4.5c9.7,5.5,21,8.7,33,8.7
					c15.3,0,29.3-5.1,40.4-13.7c-1-1.1-2.1-2.5-3.2-3.7C-671.3-639.2-684.2-634.5-698.3-634.5z"/>
				<path class="st2" d="M-698.3-756.6c-17.7,0-33.8,6.9-45.6,18.1l4.2,2.8c10.8-9.9,25.4-15.9,41.3-15.9
					c33.3,0,60.4,26.3,60.4,58.6c0,10.9-3.1,21.1-8.4,29.8l3.8,3.2c6-9.6,9.5-20.9,9.5-33C-633-728.1-662.3-756.6-698.3-756.6z"/>
			</g>
		</g>
	</g>
</g>
<g id="Loading_Bar" class="st0">
	<path class="st3" d="M-545.1-444.1h-498.2c-12.9,0-23.4,10.5-23.4,23.4v0c0,12.9,10.5,23.4,23.4,23.4h498.2
		c12.9,0,23.4-10.5,23.4-23.4v0C-521.7-433.7-532.2-444.1-545.1-444.1z M-525.3-420.8L-525.3-420.8c0,10.9-8.9,19.8-19.8,19.8
		l-227.3,0v-39.6h227.3C-534.2-440.6-525.3-431.7-525.3-420.8z"/>
</g>
<g id="input" class="st0">
	<g class="st1">
		<g>
			<linearGradient id="SVGID_1_" gradientUnits="userSpaceOnUse" x1="-706.5851" y1="-326.4575" x2="-525.8854" y2="-326.4575">
				<stop  offset="0" style="stop-color:#0D0E0E"/>
				<stop  offset="1" style="stop-color:#222222"/>
			</linearGradient>
			<path class="st4" d="M-543.1-343.7h-146.2c-9.5,0-17.2,7.7-17.2,17.2v0c0,9.5,7.7,17.2,17.2,17.2h146.2c9.5,0,17.2-7.7,17.2-17.2
				v0C-525.9-336-533.6-343.7-543.1-343.7z"/>
			<path class="st5" d="M-689.3-312.2h146.2c7.9,0,14.2-6.4,14.2-14.2v0c0-7.9-6.4-14.2-14.2-14.2h-146.2c-7.9,0-14.2,6.4-14.2,14.2
				v0C-703.6-318.6-697.2-312.2-689.3-312.2z"/>
		</g>
		<text transform="matrix(1 0 0 1 -631.9324 -324.4116)" class="st9" style="font-family:'Roboto-Thin'; font-size:7px;">Username</text>
	</g>
</g>
<g id="Boton" class="st0">
	<g class="st1">
		<linearGradient id="SVGID_2_" gradientUnits="userSpaceOnUse" x1="-719.4418" y1="-256.8235" x2="-538.9111" y2="-256.8235">
			<stop  offset="0" style="stop-color:#F9B654"/>
			<stop  offset="1" style="stop-color:#EF7C2C"/>
		</linearGradient>
		<path class="st6" d="M-551.7-244.1h-155c-7,0-12.8-5.7-12.8-12.8v0c0-7,5.7-12.8,12.8-12.8h155c7,0,12.8,5.7,12.8,12.8v0
			C-538.9-249.8-544.6-244.1-551.7-244.1z"/>
		<g>
			<text transform="matrix(1 0 0 1 -650.0515 -251.1984)" class="st9" style="font-family:'Roboto-Bold'; font-size:15px;">Login</text>
		</g>
	</g>
</g>
<g id="Login_Google_Apple" class="st0">
	<g class="st1">
		<g>
			<linearGradient id="SVGID_3_" gradientUnits="userSpaceOnUse" x1="-572.7037" y1="-187.4118" x2="-537.7088" y2="-187.4118">
				<stop  offset="0" style="stop-color:#F9B654"/>
				<stop  offset="1" style="stop-color:#EF7C2C"/>
			</linearGradient>
			<path class="st7" d="M-544-205.1h-22.4c-3.5,0-6.3,2.8-6.3,6.3v22.8c0,3.5,2.8,6.3,6.3,6.3h22.4c3.5,0,6.3-2.8,6.3-6.3v-22.8
				C-537.7-202.3-540.5-205.1-544-205.1z"/>
			<linearGradient id="SVGID_4_" gradientUnits="userSpaceOnUse" x1="-570.4115" y1="-187.4118" x2="-540.001" y2="-187.4118">
				<stop  offset="0" style="stop-color:#EF7C2C"/>
				<stop  offset="1" style="stop-color:#F9B654"/>
			</linearGradient>
			<path class="st8" d="M-544-202.8h-22.4c-2.2,0-4,1.8-4,4v22.8c0,2.2,1.8,4,4,4h22.4c2.2,0,4-1.8,4-4v-22.8
				C-540-201-541.8-202.8-544-202.8z"/>
			<path class="st5" d="M-544-173.5c1.4,0,2.5-1.1,2.5-2.5v-22.8c0-1.4-1.1-2.5-2.5-2.5h-22.4c-1.4,0-2.5,1.1-2.5,2.5v22.8
				c0,1.4,1.1,2.5,2.5,2.5H-544z"/>
			<g>
				<path class="st9" d="M-550.5-198.5C-550.5-198.5-550.5-198.5-550.5-198.5c0,1.4-0.1,2.4-1.1,3.4c-0.7,0.7-2.1,1.4-3.1,1.4
					c-0.1,0-0.1,0-0.1,0C-554.9-195.9-553-198.5-550.5-198.5z"/>
				<path class="st9" d="M-548-184.1c0.6,0.9,2.4,1.9,2.2,2.5c-0.1,0.5-1.6,2.7-2,3.2c-3.2,4-4.4,0.8-7.1,0.9
					c-1.4,0.1-1.9,1.2-3.4,1.2c-0.2,0-0.4,0-0.6,0c-1.1-0.2-2.3-1.3-3-2.1c-1.4-1.7-2.6-5.3-2.8-7.5c-0.2-2.7,1-5.5,3.4-6.9
					c2.8-1.6,4.8,0.4,6.6,0.8c0.5,0.1,0.9,0.1,1.4-0.1c1.5-0.8,2-1.4,4-0.9c1.1,0.3,2.3,1.2,2.9,2.1
					C-548.7-189.2-549.9-186.8-548-184.1z"/>
			</g>
		</g>
		<g>
			<linearGradient id="SVGID_5_" gradientUnits="userSpaceOnUse" x1="-654.1735" y1="-187.4118" x2="-619.1786" y2="-187.4118">
				<stop  offset="0" style="stop-color:#F9B654"/>
				<stop  offset="1" style="stop-color:#EF7C2C"/>
			</linearGradient>
			<path class="st10" d="M-625.5-205.1h-22.4c-3.5,0-6.3,2.8-6.3,6.3v22.8c0,3.5,2.8,6.3,6.3,6.3h22.4c3.5,0,6.3-2.8,6.3-6.3v-22.8
				C-619.2-202.3-622-205.1-625.5-205.1z"/>
			<linearGradient id="SVGID_6_" gradientUnits="userSpaceOnUse" x1="-651.8813" y1="-187.4118" x2="-621.4709" y2="-187.4118">
				<stop  offset="0" style="stop-color:#EF7C2C"/>
				<stop  offset="1" style="stop-color:#F9B654"/>
			</linearGradient>
			<path class="st11" d="M-625.5-202.8h-22.4c-2.2,0-4,1.8-4,4v22.8c0,2.2,1.8,4,4,4h22.4c2.2,0,4-1.8,4-4v-22.8
				C-621.5-201-623.3-202.8-625.5-202.8z"/>
			<path class="st5" d="M-625.5-173.5c1.4,0,2.5-1.1,2.5-2.5v-22.8c0-1.4-1.1-2.5-2.5-2.5h-22.4c-1.4,0-2.5,1.1-2.5,2.5v22.8
				c0,1.4,1.1,2.5,2.5,2.5H-625.5z"/>
			<g>
				<path class="st9" d="M-626.1-188.1c0,0.3,0,0.7,0,1l0,0.3c0,0.3-0.1,0.7-0.1,1l0,0.2c-0.1,0.4-0.1,0.8-0.2,1.1l-0.1,0.3
					c-0.1,0.3-0.2,0.5-0.3,0.8l-0.2,0.4c-0.1,0.3-0.3,0.5-0.4,0.8l-0.1,0.2l-0.1,0.1c-0.5,0.8-1,1.5-1.7,2.1l-0.1,0.1l0,0
					c-0.3,0.3-0.6,0.5-0.9,0.8l0,0c-0.3,0.2-0.7,0.5-1.1,0.7c-0.4,0.2-0.9,0.4-1.3,0.6l-0.1,0l0,0c-1.3,0.5-3.1,0.7-4.4,0.7l3.7-6.5
					c1.2-1,2-2.5,2-4.2c0-1.6-0.7-3-1.8-3.9h6.3c0.3,0.9,0.7,2.1,0.7,3L-626.1-188.1z"/>
				<path class="st9" d="M-645.6-193.1l3.7,6.4c0.4,2.6,2.6,4.6,5.3,4.6c0.4,0,0.7,0,1.1-0.1l-3,5.3c-0.8-0.1-1.5-0.4-2.2-0.7
					l-0.3-0.1l-0.1,0c-0.2-0.1-0.4-0.2-0.6-0.3l-0.3-0.1l-0.1-0.1c-0.2-0.1-0.4-0.2-0.6-0.4l-0.3-0.2c-0.2-0.1-0.3-0.3-0.5-0.4
					l-0.3-0.3c-0.1-0.1-0.3-0.2-0.4-0.4c-0.1-0.1-0.3-0.3-0.4-0.4l-0.3-0.3c-0.1-0.2-0.3-0.3-0.4-0.5l-0.2-0.3
					c-0.1-0.2-0.3-0.4-0.4-0.6l-0.1-0.1l-0.1-0.3c-0.1-0.2-0.2-0.4-0.3-0.6c-0.1-0.2-0.1-0.3-0.2-0.5c-0.1-0.2-0.1-0.3-0.2-0.5
					c-0.1-0.2-0.1-0.4-0.2-0.6l-0.1-0.4c0-0.2-0.1-0.4-0.1-0.6l-0.1-0.4c0-0.2-0.1-0.4-0.1-0.6l0-0.5c0-0.2,0-0.4,0-0.5
					c0-0.2,0-0.4,0-0.5l0-0.5c0-0.2,0-0.4,0.1-0.6l0.1-0.4c0-0.2,0.1-0.4,0.1-0.6l0.1-0.4c0.1-0.2,0.1-0.4,0.2-0.6
					c0.1-0.2,0.1-0.3,0.2-0.5l0.2-0.5c0.1-0.2,0.2-0.4,0.3-0.6L-645.6-193.1L-645.6-193.1z"/>
				<path class="st9" d="M-627.4-192.8h-9.2c-2.4,0-4.4,1.5-5.1,3.7l-3-5.3l0.1-0.1c0.1-0.2,0.3-0.3,0.5-0.5l0.3-0.3
					c0.1-0.1,0.3-0.3,0.4-0.4l0.4-0.3c0.1-0.1,0.3-0.2,0.4-0.3c0.1-0.1,0.3-0.2,0.4-0.3l0.3-0.2l0.2-0.1c0.2-0.1,0.3-0.2,0.5-0.2
					c0.2-0.1,0.3-0.2,0.5-0.2l0.4-0.1c0.2-0.1,0.4-0.2,0.6-0.2l0.2,0c0.8-0.2,1.6-0.4,2.4-0.4l0.4,0l0.5,0c0.2,0,0.4,0,0.6,0l0.4,0
					c0.2,0,0.4,0,0.7,0.1l0.3,0.1c0.2,0,0.4,0.1,0.7,0.1l0.3,0.1c0.2,0.1,0.4,0.1,0.6,0.2l0.4,0.2c0.2,0.1,0.3,0.1,0.5,0.2
					c0.2,0.1,0.3,0.2,0.5,0.3l0.3,0.2l0.1,0.1c0.4,0.2,0.7,0.5,1.1,0.7l0.1,0.1c0.3,0.2,0.6,0.5,0.9,0.8l0.2,0.2
					c0.3,0.3,0.5,0.6,0.7,0.9l0.1,0.1C-627.9-193.5-627.7-193.1-627.4-192.8z"/>
				<path class="st9" d="M-636.7-191.4c2.2,0,4,1.8,4,4c0,2.2-1.8,4-4,4c-2.2,0-4-1.8-4-4S-638.9-191.4-636.7-191.4z"/>
			</g>
		</g>
	</g>
</g>
<g id="Boton_Studing_add" class="st0">
	<g class="st1">
		<g>
			<path class="st9" d="M-553.9-137.6h-151.5c-7.1,0-12.8,6.4-12.8,14.3v0c0,7.9,5.7,14.3,12.8,14.3h151.5c7.1,0,12.8-6.4,12.8-14.3
				v0C-541.1-131.2-546.8-137.6-553.9-137.6z"/>
			<linearGradient id="SVGID_7_" gradientUnits="userSpaceOnUse" x1="-712.0854" y1="-122.89" x2="-458.0931" y2="-124.0445">
				<stop  offset="0" style="stop-color:#222222"/>
				<stop  offset="0.261" style="stop-color:#202021"/>
				<stop  offset="0.4177" style="stop-color:#1B1B1C"/>
				<stop  offset="0.5465" style="stop-color:#121213"/>
				<stop  offset="0.5899" style="stop-color:#0D0E0E"/>
			</linearGradient>
			<path class="st12" d="M-554-136.7h-151.3c-6.6,0-12,6-12,13.5v0c0,7.4,5.4,13.5,12,13.5H-554c6.6,0,12-6,12-13.5v0
				C-542-130.7-547.4-136.7-554-136.7z"/>
			<linearGradient id="SVGID_8_" gradientUnits="userSpaceOnUse" x1="-715.4379" y1="-123.2645" x2="-521.1428" y2="-123.2645">
				<stop  offset="0" style="stop-color:#0D0E0E"/>
				<stop  offset="5.068219e-02" style="stop-color:#111212"/>
				<stop  offset="0.2146" style="stop-color:#1B1B1C"/>
				<stop  offset="0.4115" style="stop-color:#202020"/>
				<stop  offset="0.727" style="stop-color:#222222"/>
			</linearGradient>
			<path class="st13" d="M-543.9-123.3c0-6.4-4.6-11.6-10.2-11.6h-151.1c-5.6,0-10.2,5.2-10.2,11.6c0,6.4,4.6,11.6,10.2,11.6h151.1
				C-548.5-111.7-543.9-116.9-543.9-123.3z"/>
		</g>
		<g>
			<circle class="st9" cx="-554.5" cy="-123.3" r="14.3"/>
			
				<linearGradient id="SVGID_9_" gradientUnits="userSpaceOnUse" x1="-567.8219" y1="-630.6251" x2="-541.1666" y2="-630.6251" gradientTransform="matrix(1 0 0 -1 0 -753.8898)">
				<stop  offset="0" style="stop-color:#EF7852"/>
				<stop  offset="1" style="stop-color:#EB5C2C"/>
			</linearGradient>
			<circle class="st14" cx="-554.5" cy="-123.3" r="13.3"/>
			
				<linearGradient id="SVGID_10_" gradientUnits="userSpaceOnUse" x1="-565.6006" y1="-630.6251" x2="-543.3879" y2="-630.6251" gradientTransform="matrix(1 0 0 -1 0 -753.8898)">
				<stop  offset="0" style="stop-color:#EB5C2C"/>
				<stop  offset="1" style="stop-color:#EF7852"/>
			</linearGradient>
			<path class="st15" d="M-554.5-112.2c-6.1,0-11.1-5-11.1-11.1c0-6.1,5-11.1,11.1-11.1c6.1,0,11.1,5,11.1,11.1
				C-543.4-117.1-548.4-112.2-554.5-112.2z"/>
			<polygon class="st9" points="-555.9,-122 -559.8,-122 -559.8,-124.7 -555.9,-124.7 -555.9,-128.9 -553,-128.9 -553,-124.7 
				-549.2,-124.7 -549.2,-122 -553,-122 -553,-117.7 -555.9,-117.7 			"/>
		</g>
		<text transform="matrix(1.11 0 0 1 -701.5459 -120.3422)"><tspan x="0" y="0" class="st9" style="font-family:'Roboto-Light'; font-size:10px;">Studing</tspan><tspan x="33.8" y="0" class="st9" style="font-family:'Roboto-Light'; font-size:10px;">	</tspan></text>
	</g>
</g>
<g id="Menu_Rodape">
	<g>
		<g>
			<path class="st9" d="M166.3,3.2H14.8C7.8,3.2,2,9.6,2,17.5v0c0,7.9,5.7,14.3,12.8,14.3h151.5c7.1,0,12.8-6.4,12.8-14.3v0
				C179.1,9.6,173.4,3.2,166.3,3.2z"/>
			<linearGradient id="SVGID_11_" gradientUnits="userSpaceOnUse" x1="8.1369" y1="17.9041" x2="262.1293" y2="16.7496">
				<stop  offset="0" style="stop-color:#222222"/>
				<stop  offset="0.261" style="stop-color:#202021"/>
				<stop  offset="0.4177" style="stop-color:#1B1B1C"/>
				<stop  offset="0.5465" style="stop-color:#121213"/>
				<stop  offset="0.5899" style="stop-color:#0D0E0E"/>
			</linearGradient>
			<path class="st16" d="M166.2,4.1H14.9c-6.6,0-12,6-12,13.5v0C2.9,25,8.3,31,14.9,31h151.3c6.6,0,12-6,12-13.5v0
				C178.2,10.1,172.9,4.1,166.2,4.1z"/>
			<linearGradient id="SVGID_12_" gradientUnits="userSpaceOnUse" x1="4.7846" y1="17.5297" x2="199.0797" y2="17.5297">
				<stop  offset="0" style="stop-color:#0D0E0E"/>
				<stop  offset="5.068219e-02" style="stop-color:#111212"/>
				<stop  offset="0.2146" style="stop-color:#1B1B1C"/>
				<stop  offset="0.4115" style="stop-color:#202020"/>
				<stop  offset="0.727" style="stop-color:#222222"/>
			</linearGradient>
			<path class="st17" d="M176.4,17.5c0-6.4-4.6-11.6-10.2-11.6H15C9.4,6,4.8,11.1,4.8,17.5c0,6.4,4.6,11.6,10.2,11.6h151.1
				C171.8,29.1,176.4,23.9,176.4,17.5z"/>
		</g>
		<g>
			<circle class="st9" cx="15.9" cy="17.5" r="14.3"/>
			
				<linearGradient id="SVGID_13_" gradientUnits="userSpaceOnUse" x1="2.5965" y1="-771.4193" x2="29.2518" y2="-771.4193" gradientTransform="matrix(1 0 0 -1 0 -753.8898)">
				<stop  offset="0" style="stop-color:#EF7852"/>
				<stop  offset="1" style="stop-color:#EB5C2C"/>
			</linearGradient>
			<circle class="st18" cx="15.9" cy="17.5" r="13.3"/>
			
				<linearGradient id="SVGID_14_" gradientUnits="userSpaceOnUse" x1="4.8178" y1="-771.4193" x2="27.0305" y2="-771.4193" gradientTransform="matrix(1 0 0 -1 0 -753.8898)">
				<stop  offset="0" style="stop-color:#EB5C2C"/>
				<stop  offset="1" style="stop-color:#EF7852"/>
			</linearGradient>
			<path class="st19" d="M15.9,28.6c-6.1,0-11.1-5-11.1-11.1c0-6.1,5-11.1,11.1-11.1c6.1,0,11.1,5,11.1,11.1
				C27,23.7,22,28.6,15.9,28.6z"/>
			<g>
				<path class="st9" d="M14.7,10.9c-3,0-5.4,2.4-5.4,5.4s2.4,5.4,5.4,5.4s5.4-2.4,5.4-5.4C20.2,13.3,17.7,10.9,14.7,10.9z
					 M14.7,19.9c-2,0-3.5-1.6-3.5-3.5s1.6-3.5,3.5-3.5s3.5,1.6,3.5,3.5C18.3,18.3,16.7,19.9,14.7,19.9z"/>
				<path class="st9" d="M22.3,22.5l-1.9-1.9c-0.4-0.4-1-0.4-1.3,0c-0.4,0.4-0.4,1,0,1.3l1.9,1.9c0.4,0.4,1,0.4,1.3,0
					C22.6,23.5,22.6,22.9,22.3,22.5z"/>
			</g>
		</g>
		<g>
			<circle class="st9" cx="164.6" cy="17.5" r="14.3"/>
			
				<linearGradient id="SVGID_15_" gradientUnits="userSpaceOnUse" x1="151.2646" y1="-771.4193" x2="177.9198" y2="-771.4193" gradientTransform="matrix(1 0 0 -1 0 -753.8898)">
				<stop  offset="0" style="stop-color:#EF7852"/>
				<stop  offset="1" style="stop-color:#EB5C2C"/>
			</linearGradient>
			<circle class="st20" cx="164.6" cy="17.5" r="13.3"/>
			
				<linearGradient id="SVGID_16_" gradientUnits="userSpaceOnUse" x1="153.4858" y1="-771.4193" x2="175.6986" y2="-771.4193" gradientTransform="matrix(1 0 0 -1 0 -753.8898)">
				<stop  offset="0" style="stop-color:#EB5C2C"/>
				<stop  offset="1" style="stop-color:#EF7852"/>
			</linearGradient>
			<path class="st21" d="M164.6,28.6c-6.1,0-11.1-5-11.1-11.1c0-6.1,5-11.1,11.1-11.1c6.1,0,11.1,5,11.1,11.1
				C175.7,23.7,170.7,28.6,164.6,28.6z"/>
			<path class="st9" d="M169.6,18.2c0-0.2,0-0.4,0-0.7c0-0.2,0-0.4,0-0.7l1.4-1.1c0.1-0.1,0.2-0.3,0.1-0.4l-1.4-2.3
				c-0.1-0.1-0.3-0.2-0.4-0.1l-1.7,0.7c-0.4-0.3-0.7-0.5-1.1-0.7l-0.3-1.8c0-0.2-0.2-0.3-0.3-0.3h-2.7c-0.2,0-0.3,0.1-0.3,0.3
				l-0.3,1.8c-0.4,0.2-0.8,0.4-1.1,0.7l-1.7-0.7c-0.2-0.1-0.3,0-0.4,0.1l-1.3,2.3c-0.1,0.1,0,0.3,0.1,0.4l1.4,1.1c0,0.2,0,0.4,0,0.7
				c0,0.2,0,0.4,0,0.7l-1.4,1.1c-0.1,0.1-0.2,0.3-0.1,0.4l1.3,2.3c0.1,0.1,0.3,0.2,0.4,0.1l1.7-0.7c0.4,0.3,0.7,0.5,1.1,0.7l0.3,1.8
				c0,0.2,0.2,0.3,0.3,0.3h2.7c0.2,0,0.3-0.1,0.3-0.3l0.3-1.8c0.4-0.2,0.8-0.4,1.1-0.7l1.7,0.7c0.2,0.1,0.3,0,0.4-0.1l1.4-2.3
				c0.1-0.1,0-0.3-0.1-0.4L169.6,18.2z M164.6,19.9c-1.3,0-2.4-1.1-2.4-2.4c0-1.3,1.1-2.4,2.4-2.4s2.4,1.1,2.4,2.4
				C167,18.8,165.9,19.9,164.6,19.9z"/>
		</g>
		<g>
			<circle class="st9" cx="90.3" cy="17.5" r="14.3"/>
			
				<linearGradient id="SVGID_17_" gradientUnits="userSpaceOnUse" x1="76.9305" y1="-771.4193" x2="103.5858" y2="-771.4193" gradientTransform="matrix(1 0 0 -1 0 -753.8898)">
				<stop  offset="0" style="stop-color:#EF7852"/>
				<stop  offset="1" style="stop-color:#EB5C2C"/>
			</linearGradient>
			<circle class="st22" cx="90.3" cy="17.5" r="13.3"/>
			
				<linearGradient id="SVGID_18_" gradientUnits="userSpaceOnUse" x1="79.1518" y1="-771.4193" x2="101.3646" y2="-771.4193" gradientTransform="matrix(1 0 0 -1 0 -753.8898)">
				<stop  offset="0" style="stop-color:#EB5C2C"/>
				<stop  offset="1" style="stop-color:#EF7852"/>
			</linearGradient>
			<path class="st23" d="M90.3,28.6c-6.1,0-11.1-5-11.1-11.1c0-6.1,5-11.1,11.1-11.1c6.1,0,11.1,5,11.1,11.1
				C101.4,23.7,96.4,28.6,90.3,28.6z"/>
			<path id="home_1_" class="st9" d="M98,16.4l-6.9-5.2c-0.5-0.3-1.1-0.3-1.7,0l-6.8,5.2c-0.5,0.4-0.3,1.1,0.4,1.1h0.7v4
				c0,1.4,1.2,2.6,2.6,2.6h1.3c0.4,0,0.7-0.3,0.7-0.7v-3.2c0-0.7,0.6-1.4,1.3-1.4h1.3c0.7,0,1.3,0.7,1.3,1.4v3.2
				c0,0.3,0.3,0.7,0.7,0.7h1.3c1.5,0,2.6-1.2,2.6-2.6v-4h0.7C98.2,17.5,98.4,16.8,98,16.4z"/>
		</g>
	</g>
</g>
<g id="Botons_Linguagens" class="st0">
	<g class="st1">
		<path class="st9" d="M204.5-126.4h-46.3c-8.6,0-15.6,7-15.6,15.6v56.5c0,8.6,7,15.6,15.6,15.6h46.3c8.6,0,15.6-7,15.6-15.6v-56.5
			C220.1-119.4,213.1-126.4,204.5-126.4z"/>
		<linearGradient id="SVGID_19_" gradientUnits="userSpaceOnUse" x1="145.2365" y1="-82.5561" x2="217.4595" y2="-82.5561">
			<stop  offset="0" style="stop-color:#F9B654"/>
			<stop  offset="1" style="stop-color:#EF7C2C"/>
		</linearGradient>
		<path class="st24" d="M204.5-123.8h-46.3c-7.2,0-13,5.8-13,13v56.5c0,7.2,5.8,13,13,13h46.3c7.2,0,13-5.8,13-13v-56.5
			C217.5-118,211.6-123.8,204.5-123.8z"/>
		<linearGradient id="SVGID_20_" gradientUnits="userSpaceOnUse" x1="149.9673" y1="-82.5561" x2="212.7287" y2="-82.5561">
			<stop  offset="0" style="stop-color:#EF7C2C"/>
			<stop  offset="1" style="stop-color:#F9B654"/>
		</linearGradient>
		<path class="st25" d="M204.5-119.1h-46.3c-4.5,0-8.3,3.7-8.3,8.3v56.5c0,4.5,3.7,8.3,8.3,8.3h46.3c4.5,0,8.3-3.7,8.3-8.3v-56.5
			C212.7-115.4,209-119.1,204.5-119.1z"/>
		<polygon class="st9" points="197.2,-95 197.9,-102.2 181.3,-102.4 164.8,-102.6 165.8,-80.9 181,-80.7 188.9,-80.6 188.3,-72.5 
			180.9,-70.1 173.5,-72.7 173.2,-77.2 166,-77.3 166.6,-67.4 180.8,-62.5 195.1,-67 196.6,-87.8 181.1,-88 172.8,-88.1 
			172.3,-95.3 181.2,-95.2 		"/>
		<path class="st5" d="M204.5-49.2c2.8,0,5.1-2.3,5.1-5.1v-56.5c0-2.8-2.3-5.1-5.1-5.1h-46.3c-2.8,0-5.1,2.3-5.1,5.1v56.5
			c0,2.8,2.3,5.1,5.1,5.1H204.5z"/>
	</g>
	<g class="st1">
		<g>
			<path class="st9" d="M108.6-126.4H62.3c-8.6,0-15.6,7-15.6,15.6v56.5c0,8.6,7,15.6,15.6,15.6h46.3c8.6,0,15.6-7,15.6-15.6v-56.5
				C124.2-119.4,117.2-126.4,108.6-126.4z"/>
			<linearGradient id="SVGID_21_" gradientUnits="userSpaceOnUse" x1="49.364" y1="-82.5561" x2="121.587" y2="-82.5561">
				<stop  offset="0" style="stop-color:#FFDFA1"/>
				<stop  offset="1" style="stop-color:#FBBE43"/>
			</linearGradient>
			<path class="st26" d="M108.6-123.8H62.3c-7.2,0-13,5.8-13,13v56.5c0,7.2,5.8,13,13,13h46.3c7.2,0,13-5.8,13-13v-56.5
				C121.6-118,115.8-123.8,108.6-123.8z"/>
			<linearGradient id="SVGID_22_" gradientUnits="userSpaceOnUse" x1="54.0948" y1="-82.5561" x2="116.8563" y2="-82.5561">
				<stop  offset="0" style="stop-color:#FBBE43"/>
				<stop  offset="1" style="stop-color:#FFDFA1"/>
			</linearGradient>
			<path class="st27" d="M108.6-119.1H62.3c-4.5,0-8.3,3.7-8.3,8.3v56.5c0,4.5,3.7,8.3,8.3,8.3h46.3c4.5,0,8.3-3.7,8.3-8.3v-56.5
				C116.9-115.4,113.2-119.1,108.6-119.1z"/>
			<path class="st5" d="M108.6-49.2c2.8,0,5.1-2.3,5.1-5.1v-56.5c0-2.8-2.3-5.1-5.1-5.1H62.3c-2.8,0-5.1,2.3-5.1,5.1v56.5
				c0,2.8,2.3,5.1,5.1,5.1H108.6z"/>
		</g>
		<g>
			<polygon class="st9" points="107.9,-104.1 107.3,-97.5 94.6,-97.5 94.6,-84.2 106.3,-85.9 104.5,-65.6 88,-61 88,-68.6 
				99.2,-71.7 99.6,-77.9 88,-75.9 88,-104.1 			"/>
			<polygon class="st9" points="81.3,-104.1 81.3,-61 63.1,-66.1 63.1,-74.2 74.7,-71 74.7,-104.1 			"/>
		</g>
	</g>
	<g class="st1">
		<g>
			<path class="st9" d="M204.5-16.3h-46.3c-8.6,0-15.6,7-15.6,15.6v56.5c0,8.6,7,15.6,15.6,15.6h46.3c8.6,0,15.6-7,15.6-15.6V-0.7
				C220.1-9.3,213.1-16.3,204.5-16.3z"/>
			<linearGradient id="SVGID_23_" gradientUnits="userSpaceOnUse" x1="145.2365" y1="27.5792" x2="217.4595" y2="27.5792">
				<stop  offset="0" style="stop-color:#BDA4CF;stop-opacity:0.9"/>
				<stop  offset="1" style="stop-color:#564B9A"/>
			</linearGradient>
			<path class="st28" d="M204.5-13.7h-46.3c-7.2,0-13,5.8-13,13v56.5c0,7.2,5.8,13,13,13h46.3c7.2,0,13-5.8,13-13V-0.7
				C217.5-7.9,211.6-13.7,204.5-13.7z"/>
			<linearGradient id="SVGID_24_" gradientUnits="userSpaceOnUse" x1="149.9673" y1="27.5792" x2="212.7287" y2="27.5792">
				<stop  offset="0" style="stop-color:#564B9A"/>
				<stop  offset="1" style="stop-color:#BDA4CF;stop-opacity:0.9"/>
			</linearGradient>
			<path class="st29" d="M204.5-8.9h-46.3c-4.5,0-8.3,3.7-8.3,8.3v56.5c0,4.5,3.7,8.3,8.3,8.3h46.3c4.5,0,8.3-3.7,8.3-8.3V-0.7
				C212.7-5.2,209-8.9,204.5-8.9z"/>
			<path class="st5" d="M204.5,60.9c2.8,0,5.1-2.3,5.1-5.1V-0.7c0-2.8-2.3-5.1-5.1-5.1h-46.3c-2.8,0-5.1,2.3-5.1,5.1v56.5
				c0,2.8,2.3,5.1,5.1,5.1H204.5z"/>
		</g>
		<g>
			<polygon class="st30" points="191.6,23.2 188.7,23.2 188.7,26.1 185.7,26.1 185.7,29 188.7,29 188.7,32 191.6,32 191.6,29 
				194.5,29 194.5,26.1 191.6,26.1 			"/>
			<polygon class="st30" points="204.7,26.1 201.8,26.1 201.8,23.2 198.9,23.2 198.9,26.1 196,26.1 196,29 198.9,29 198.9,32 
				201.8,32 201.8,29 204.7,29 			"/>
			<path class="st9" d="M187.2,32.7l9,4.9C192.7,43.9,186,48,178.4,48c-11.3,0-20.4-9.2-20.4-20.5c0-11.3,9.2-20.4,20.4-20.4
				c7.5,0,14,4,17.6,10.1l-8.9,5.1c-1.8-2.9-5-4.9-8.7-4.9c-5.6,0-10.2,4.6-10.2,10.2c0,5.6,4.6,10.2,10.2,10.2
				C182.2,37.8,185.5,35.8,187.2,32.7z"/>
		</g>
	</g>
	<g class="st1">
		<g>
			<path class="st9" d="M108.6-16.3H62.3c-8.6,0-15.6,7-15.6,15.6v56.5c0,8.6,7,15.6,15.6,15.6h46.3c8.6,0,15.6-7,15.6-15.6V-0.7
				C124.2-9.3,117.2-16.3,108.6-16.3z"/>
			<linearGradient id="SVGID_25_" gradientUnits="userSpaceOnUse" x1="49.364" y1="27.5792" x2="121.587" y2="27.5792">
				<stop  offset="0" style="stop-color:#B3DEE9;stop-opacity:0.9"/>
				<stop  offset="1" style="stop-color:#3490CF"/>
			</linearGradient>
			<path class="st31" d="M108.6-13.7H62.3c-7.2,0-13,5.8-13,13v56.5c0,7.2,5.8,13,13,13h46.3c7.2,0,13-5.8,13-13V-0.7
				C121.6-7.9,115.8-13.7,108.6-13.7z"/>
			<linearGradient id="SVGID_26_" gradientUnits="userSpaceOnUse" x1="54.0948" y1="27.5792" x2="116.8563" y2="27.5792">
				<stop  offset="0" style="stop-color:#3490CF"/>
				<stop  offset="1" style="stop-color:#B3DEE9;stop-opacity:0.9"/>
			</linearGradient>
			<path class="st32" d="M108.6-8.9H62.3c-4.5,0-8.3,3.7-8.3,8.3v56.5c0,4.5,3.7,8.3,8.3,8.3h46.3c4.5,0,8.3-3.7,8.3-8.3V-0.7
				C116.9-5.2,113.2-8.9,108.6-8.9z"/>
			<path class="st5" d="M108.6,60.9c2.8,0,5.1-2.3,5.1-5.1V-0.7c0-2.8-2.3-5.1-5.1-5.1H62.3c-2.8,0-5.1,2.3-5.1,5.1v56.5
				c0,2.8,2.3,5.1,5.1,5.1H108.6z"/>
		</g>
		<path class="st30" d="M69.5,33.4h7.8l0.2,4.9l8,2.7l8-2.7l0.6-8.8H76.9l-0.4-7.8h18.1l0.6-7.8H68.1l-0.6-7.8h35.9l-1,15.7
			l-1.4,22.6l-15.5,5.1l-15.5-5.1L69.5,33.4z"/>
	</g>
	<g class="st1">
		<g>
			<path class="st9" d="M204.5,92.8h-46.3c-8.6,0-15.6,7-15.6,15.6v56.5c0,8.6,7,15.6,15.6,15.6h46.3c8.6,0,15.6-7,15.6-15.6v-56.5
				C220.1,99.8,213.1,92.8,204.5,92.8z"/>
			<linearGradient id="SVGID_27_" gradientUnits="userSpaceOnUse" x1="145.2365" y1="136.6738" x2="217.4595" y2="136.6738">
				<stop  offset="0" style="stop-color:#7DAFDF;stop-opacity:0.9"/>
				<stop  offset="1" style="stop-color:#264798"/>
			</linearGradient>
			<path class="st33" d="M204.5,95.4h-46.3c-7.2,0-13,5.8-13,13v56.5c0,7.2,5.8,13,13,13h46.3c7.2,0,13-5.8,13-13v-56.5
				C217.5,101.2,211.6,95.4,204.5,95.4z"/>
			<linearGradient id="SVGID_28_" gradientUnits="userSpaceOnUse" x1="149.9673" y1="136.6738" x2="212.7287" y2="136.6738">
				<stop  offset="0" style="stop-color:#264798"/>
				<stop  offset="1" style="stop-color:#7DAFDF;stop-opacity:0.9"/>
			</linearGradient>
			<path class="st34" d="M204.5,100.1h-46.3c-4.5,0-8.3,3.7-8.3,8.3v56.5c0,4.5,3.7,8.3,8.3,8.3h46.3c4.5,0,8.3-3.7,8.3-8.3v-56.5
				C212.7,103.9,209,100.1,204.5,100.1z"/>
			<path class="st5" d="M204.5,170c2.8,0,5.1-2.3,5.1-5.1v-56.5c0-2.8-2.3-5.1-5.1-5.1h-46.3c-2.8,0-5.1,2.3-5.1,5.1v56.5
				c0,2.8,2.3,5.1,5.1,5.1H204.5z"/>
		</g>
		<g>
			<path class="st9" d="M181.9,114.6c-1.8,0-3.1,0.2-4.6,0.4c-4.5,0.8-5.3,2.4-5.3,5.4v4.6h10.5v2.3h-10.9h-5.1
				c-3.1,0-5.8,1.4-6.6,4.9c-1,4-1,6.5,0,10.6c0.8,3.1,2.4,5.4,5.5,5.4h4.2v-5.9c0-3.5,3.1-6.9,6.7-6.9h8.4c2.9,0,5.8-2.2,5.8-5.1
				v-10c0-2.8-2-5-4.9-5.4C185.8,115,183.7,114.6,181.9,114.6z M176.1,119.2c1,0,1.7,0.8,1.7,1.7c0,1-0.8,1.7-1.7,1.7
				c-1,0-1.7-0.8-1.7-1.7C174.4,120,175.1,119.2,176.1,119.2z"/>
			<path class="st9" d="M180.8,158.8c1.8,0,3.1-0.2,4.6-0.4c4.5-0.8,5.3-2.4,5.3-5.4v-4.6h-10.5V146h10.9h5.1c3.1,0,5.8-1.4,6.6-4.9
				c1-4,1-6.5,0-10.6c-0.8-3.1-2.4-5.4-5.5-5.4H193v5.9c0,3.5-3.1,6.9-6.7,6.9h-8.4c-2.9,0-5.8,2.2-5.8,5.1v10c0,2.8,2,5,4.9,5.4
				C176.9,158.4,179,158.8,180.8,158.8z M186.6,154.1c-1,0-1.7-0.8-1.7-1.7c0-1,0.8-1.7,1.7-1.7c1,0,1.7,0.8,1.7,1.7
				C188.3,153.3,187.6,154.1,186.6,154.1z"/>
		</g>
	</g>
	<g class="st1">
		<g>
			<path class="st9" d="M108.6,92.8H62.3c-8.6,0-15.6,7-15.6,15.6v56.5c0,8.6,7,15.6,15.6,15.6h46.3c8.6,0,15.6-7,15.6-15.6v-56.5
				C124.2,99.8,117.2,92.8,108.6,92.8z"/>
			<linearGradient id="SVGID_29_" gradientUnits="userSpaceOnUse" x1="49.364" y1="136.6738" x2="121.587" y2="136.6738">
				<stop  offset="0" style="stop-color:#E62C2C;stop-opacity:0.9"/>
				<stop  offset="1" style="stop-color:#7B170F"/>
			</linearGradient>
			<path class="st35" d="M108.6,95.4H62.3c-7.2,0-13,5.8-13,13v56.5c0,7.2,5.8,13,13,13h46.3c7.2,0,13-5.8,13-13v-56.5
				C121.6,101.2,115.8,95.4,108.6,95.4z"/>
			<linearGradient id="SVGID_30_" gradientUnits="userSpaceOnUse" x1="54.0948" y1="136.6738" x2="116.8563" y2="136.6738">
				<stop  offset="0" style="stop-color:#7B170F"/>
				<stop  offset="1" style="stop-color:#E62C2C;stop-opacity:0.9"/>
			</linearGradient>
			<path class="st36" d="M108.6,100.1H62.3c-4.5,0-8.3,3.7-8.3,8.3v56.5c0,4.5,3.7,8.3,8.3,8.3h46.3c4.5,0,8.3-3.7,8.3-8.3v-56.5
				C116.9,103.9,113.2,100.1,108.6,100.1z"/>
			<path class="st5" d="M108.6,170c2.8,0,5.1-2.3,5.1-5.1v-56.5c0-2.8-2.3-5.1-5.1-5.1H62.3c-2.8,0-5.1,2.3-5.1,5.1v56.5
				c0,2.8,2.3,5.1,5.1,5.1H108.6z"/>
		</g>
		<g>
			<path class="st9" d="M85,137.8c-1.3-2.1-2.2-3.8-3.5-7c-2.2-5.4,13.2-10.3,7-19.8c2.7,6.5-9.7,10.5-10.9,16
				C76.6,132,85,137.8,85,137.8z"/>
			<path class="st9" d="M85.3,128.1c-0.2,3.2,2.9,4.9,2.9,7.3c0.1,1.9-1.9,3.5-1.9,3.5s3.5-0.7,4.6-3.6c1.2-3.2-2.3-5.5-2-8.1
				c0.3-2.5,7.7-7.1,7.7-7.1S85.9,120.8,85.3,128.1z"/>
			<g>
				<path class="st9" d="M95.8,138c2.2-0.5,4.1,0.9,4.1,2.6c0,3.7-5.1,7.2-5.1,7.2s8-1,8-7.1C102.8,136.7,98.9,135.7,95.8,138z
					 M92,141c0,0,2.5-1.8,3.1-2.4c-6.1,1.3-20,1.5-20,0.3c0-1,4.5-2.1,4.5-2.1s-10-0.1-10,2.8C69.7,142.7,82.7,142.9,92,141z"/>
				<path class="st9" d="M90.5,143.8c-5.8,1.9-16.4,1.3-13.3-1.3c-1.5,0-3.8,1.2-3.8,2.4c0,2.4,11.5,4.2,20,0.7L90.5,143.8z"/>
				<path class="st9" d="M78.7,147.9c-2.1,0-3.5,1.3-3.5,2.3c0,3.1,12.5,3.4,17.5,0.3l-3.1-2.1C85.8,150,76.5,150.2,78.7,147.9z"/>
				<path class="st9" d="M101.2,152.9c0-1.2-1.4-1.8-1.8-2c2.9,6.9-28.6,6.3-28.6,2.3c0-0.9,2.3-1.8,4.5-1.4l-1.8-1.1
					c-4.3-0.7-7.2,1.2-7.2,2.7C66.3,160.4,101.2,160.1,101.2,152.9z"/>
				<path class="st9" d="M104.7,155.4c-5.3,5.2-18.8,7.2-32.3,3.9C85.9,165.1,104.6,161.8,104.7,155.4z"/>
			</g>
		</g>
	</g>
</g>
<g id="Card_Conteudo" class="st0">
	<g class="st1">
		<g>
			<path class="st9" d="M309.3-44.1h-165c-8.2,0-14.8,6.7-14.8,14.8v53.8c0,8.2,6.7,14.8,14.8,14.8h165c8.2,0,14.8-6.7,14.8-14.8
				v-53.8C324.1-37.4,317.5-44.1,309.3-44.1z"/>
			<linearGradient id="SVGID_31_" gradientUnits="userSpaceOnUse" x1="131.9206" y1="-2.3108" x2="321.6203" y2="-2.3108">
				<stop  offset="0" style="stop-color:#222222"/>
				<stop  offset="1" style="stop-color:#0D0E0E"/>
			</linearGradient>
			<path class="st37" d="M309.3-41.6h-165c-6.8,0-12.3,5.5-12.3,12.3v53.8c0,6.8,5.5,12.3,12.3,12.3h165c6.8,0,12.3-5.5,12.3-12.3
				v-53.8C321.6-36,316.1-41.6,309.3-41.6z"/>
			<linearGradient id="SVGID_32_" gradientUnits="userSpaceOnUse" x1="136.4206" y1="-2.3108" x2="317.1203" y2="-2.3108">
				<stop  offset="0" style="stop-color:#0D0E0E"/>
				<stop  offset="1" style="stop-color:#222222"/>
			</linearGradient>
			<path class="st38" d="M309.3-37.1h-165c-4.3,0-7.8,3.5-7.8,7.8v53.8c0,4.3,3.5,7.8,7.8,7.8h165c4.3,0,7.8-3.5,7.8-7.8v-53.8
				C317.1-33.5,313.6-37.1,309.3-37.1z"/>
			<path class="st5" d="M309.3,29.4c2.7,0,4.8-2.2,4.8-4.8v-53.8c0-2.7-2.2-4.8-4.8-4.8h-165c-2.7,0-4.8,2.2-4.8,4.8v53.8
				c0,2.7,2.2,4.8,4.8,4.8H309.3z"/>
		</g>
		<g>
			<path class="st9" d="M187.9-44.4h-44c-8.2,0-14.8,6.7-14.8,14.8v53.8c0,8.2,6.7,14.8,14.8,14.8h44c8.2,0,14.8-6.7,14.8-14.8
				v-53.8C202.8-37.8,196.1-44.4,187.9-44.4z"/>
			<linearGradient id="SVGID_33_" gradientUnits="userSpaceOnUse" x1="131.5562" y1="-2.682" x2="200.2559" y2="-2.682">
				<stop  offset="0" style="stop-color:#F9B654"/>
				<stop  offset="1" style="stop-color:#EF7C2C"/>
			</linearGradient>
			<path class="st39" d="M187.9-41.9h-44c-6.8,0-12.3,5.5-12.3,12.3v53.8c0,6.8,5.5,12.3,12.3,12.3h44c6.8,0,12.3-5.5,12.3-12.3
				v-53.8C200.3-36.4,194.7-41.9,187.9-41.9z"/>
			<linearGradient id="SVGID_34_" gradientUnits="userSpaceOnUse" x1="136.0562" y1="-2.682" x2="195.7559" y2="-2.682">
				<stop  offset="0" style="stop-color:#EF7C2C"/>
				<stop  offset="1" style="stop-color:#F9B654"/>
			</linearGradient>
			<path class="st40" d="M187.9-37.4h-44c-4.3,0-7.8,3.5-7.8,7.8v53.8c0,4.3,3.5,7.8,7.8,7.8h44c4.3,0,7.8-3.5,7.8-7.8v-53.8
				C195.8-33.9,192.2-37.4,187.9-37.4z"/>
			<polygon class="st9" points="181,-14.5 181.6,-21.3 165.8,-21.5 150.2,-21.7 151.1,-1.1 165.6,-1 173.1,-0.9 172.5,6.9 
				165.4,9.2 158.4,6.7 158.1,2.4 151.3,2.3 151.8,11.7 165.3,16.4 179,12.1 180.4,-7.6 165.6,-7.8 157.8,-7.9 157.3,-14.8 
				165.7,-14.7 			"/>
			<path class="st5" d="M187.9,29.1c2.7,0,4.8-2.2,4.8-4.8v-53.8c0-2.7-2.2-4.8-4.8-4.8h-44c-2.7,0-4.8,2.2-4.8,4.8v53.8
				c0,2.7,2.2,4.8,4.8,4.8H187.9z"/>
		</g>
		<rect x="207.2" y="-5.8" style="fill:none;" width="102.9" height="31.7"/>
		<text transform="matrix(1 0 0 1 207.1955 -1.6486)"><tspan x="0" y="0" class="st9" style="font-family:'Roboto-Regular'; font-size:5.5115px;">Lorem</tspan><tspan x="15.8" y="0" class="st9" style="font-family:'Roboto-Regular'; font-size:5.5115px;"> </tspan><tspan x="17.7" y="0" class="st9" style="font-family:'Roboto-Regular'; font-size:5.5115px;">ipsum</tspan><tspan x="33.1" y="0" class="st9" style="font-family:'Roboto-Regular'; font-size:5.5115px;"> </tspan><tspan x="35" y="0" class="st9" style="font-family:'Roboto-Regular'; font-size:5.5115px;">dolor</tspan><tspan x="47.8" y="0" class="st9" style="font-family:'Roboto-Regular'; font-size:5.5115px;"> </tspan><tspan x="49.7" y="0" class="st9" style="font-family:'Roboto-Regular'; font-size:5.5115px;">sit</tspan><tspan x="55.8" y="0" class="st9" style="font-family:'Roboto-Regular'; font-size:5.5115px;"> </tspan><tspan x="57.8" y="0" class="st9" style="font-family:'Roboto-Regular'; font-size:5.5115px;">amet,</tspan><tspan x="71.5" y="0" class="st9" style="font-family:'Roboto-Regular'; font-size:5.5115px;"> </tspan><tspan x="73.4" y="0" class="st9" style="font-family:'Roboto-Regular'; font-size:5.5115px;">consectetur </tspan><tspan x="0" y="6.6" class="st9" style="font-family:'Roboto-Regular'; font-size:5.5115px;">adipiscing</tspan><tspan x="25.5" y="6.6" class="st9" style="font-family:'Roboto-Regular'; font-size:5.5115px; letter-spacing:1;"> </tspan><tspan x="28.4" y="6.6" class="st9" style="font-family:'Roboto-Regular'; font-size:5.5115px;">elit,</tspan><tspan x="37" y="6.6" class="st9" style="font-family:'Roboto-Regular'; font-size:5.5115px; letter-spacing:1;"> </tspan><tspan x="39.9" y="6.6" class="st9" style="font-family:'Roboto-Regular'; font-size:5.5115px;">sed</tspan><tspan x="48.8" y="6.6" class="st9" style="font-family:'Roboto-Regular'; font-size:5.5115px; letter-spacing:1;"> </tspan><tspan x="51.7" y="6.6" class="st9" style="font-family:'Roboto-Regular'; font-size:5.5115px;">do</tspan><tspan x="58" y="6.6" class="st9" style="font-family:'Roboto-Regular'; font-size:5.5115px; letter-spacing:1;"> </tspan><tspan x="60.9" y="6.6" class="st9" style="font-family:'Roboto-Regular'; font-size:5.5115px;">eiusmod</tspan><tspan x="82.2" y="6.6" class="st9" style="font-family:'Roboto-Regular'; font-size:5.5115px; letter-spacing:1;"> </tspan><tspan x="85.1" y="6.6" class="st9" style="font-family:'Roboto-Regular'; font-size:5.5115px;">tempor </tspan><tspan x="0" y="13.2" class="st9" style="font-family:'Roboto-Regular'; font-size:5.5115px;">incididunt</tspan><tspan x="24.6" y="13.2" class="st9" style="font-family:'Roboto-Regular'; font-size:5.5115px; letter-spacing:2;"> </tspan><tspan x="28.6" y="13.2" class="st9" style="font-family:'Roboto-Regular'; font-size:5.5115px;">ut</tspan><tspan x="33.6" y="13.2" class="st9" style="font-family:'Roboto-Regular'; font-size:5.5115px; letter-spacing:2;"> </tspan><tspan x="37.7" y="13.2" class="st9" style="font-family:'Roboto-Regular'; font-size:5.5115px;">labore</tspan><tspan x="53.2" y="13.2" class="st9" style="font-family:'Roboto-Regular'; font-size:5.5115px; letter-spacing:2;"> </tspan><tspan x="57.3" y="13.2" class="st9" style="font-family:'Roboto-Regular'; font-size:5.5115px;">et</tspan><tspan x="62" y="13.2" class="st9" style="font-family:'Roboto-Regular'; font-size:5.5115px; letter-spacing:2;"> </tspan><tspan x="66.1" y="13.2" class="st9" style="font-family:'Roboto-Regular'; font-size:5.5115px;">dolore</tspan><tspan x="81.7" y="13.2" class="st9" style="font-family:'Roboto-Regular'; font-size:5.5115px; letter-spacing:2;"> </tspan><tspan x="85.7" y="13.2" class="st9" style="font-family:'Roboto-Regular'; font-size:5.5115px;">magna </tspan><tspan x="0" y="19.8" class="st9" style="font-family:'Roboto-Regular'; font-size:5.5115px;">aliqua.</tspan><tspan x="16.6" y="19.8" class="st9" style="font-family:'Roboto-Regular'; font-size:5.5115px; letter-spacing:1;"> </tspan><tspan x="19.4" y="19.8" class="st9" style="font-family:'Roboto-Regular'; font-size:5.5115px;">Ut</tspan><tspan x="25" y="19.8" class="st9" style="font-family:'Roboto-Regular'; font-size:5.5115px; letter-spacing:1;"> </tspan><tspan x="27.9" y="19.8" class="st9" style="font-family:'Roboto-Regular'; font-size:5.5115px;">enim</tspan><tspan x="40.1" y="19.8" class="st9" style="font-family:'Roboto-Regular'; font-size:5.5115px; letter-spacing:1;"> </tspan><tspan x="43" y="19.8" class="st9" style="font-family:'Roboto-Regular'; font-size:5.5115px;">ad</tspan><tspan x="49.1" y="19.8" class="st9" style="font-family:'Roboto-Regular'; font-size:5.5115px; letter-spacing:1;"> </tspan><tspan x="52" y="19.8" class="st9" style="font-family:'Roboto-Regular'; font-size:5.5115px;">minim</tspan><tspan x="67.5" y="19.8" class="st9" style="font-family:'Roboto-Regular'; font-size:5.5115px; letter-spacing:1;"> </tspan><tspan x="70.4" y="19.8" class="st9" style="font-family:'Roboto-Regular'; font-size:5.5115px;">veniam,</tspan><tspan x="89.5" y="19.8" class="st9" style="font-family:'Roboto-Regular'; font-size:5.5115px; letter-spacing:1;"> </tspan><tspan x="92.3" y="19.8" class="st9" style="font-family:'Roboto-Regular'; font-size:5.5115px;">quis </tspan><tspan x="0" y="26.5" class="st9" style="font-family:'Roboto-Regular'; font-size:5.5115px;">nostrud</tspan><tspan x="19.2" y="26.5" class="st9" style="font-family:'Roboto-Regular'; font-size:5.5115px;"> </tspan><tspan x="21.5" y="26.5" class="st9" style="font-family:'Roboto-Regular'; font-size:5.5115px;">exercitation</tspan><tspan x="50.6" y="26.5" class="st9" style="font-family:'Roboto-Regular'; font-size:5.5115px;"> </tspan><tspan x="52.9" y="26.5" class="st9" style="font-family:'Roboto-Regular'; font-size:5.5115px;">ullamco</tspan><tspan x="72.7" y="26.5" class="st9" style="font-family:'Roboto-Regular'; font-size:5.5115px;"> </tspan><tspan x="74.9" y="26.5" class="st9" style="font-family:'Roboto-Regular'; font-size:5.5115px;">laboris</tspan><tspan x="91.8" y="26.5" class="st9" style="font-family:'Roboto-Regular'; font-size:5.5115px;"> </tspan><tspan x="94.1" y="26.5" class="st9" style="font-family:'Roboto-Regular'; font-size:5.5115px;">nisi </tspan></text>
		<rect x="207.2" y="-30.9" style="fill:none;" width="102.9" height="21.2"/>
		<text transform="matrix(1 0 0 1 207.1955 -24.2115)"><tspan x="0" y="0" class="st9" style="font-family:'Roboto-Bold'; font-size:8.8184px;">Lorem ipsum dolor sit </tspan><tspan x="0" y="10.6" class="st9" style="font-family:'Roboto-Bold'; font-size:8.8184px;">amet, consectetur </tspan></text>
	</g>
	<g class="st1">
		<g>
			<path class="st9" d="M309.1,60.5h-165c-8.2,0-14.8,6.7-14.8,14.8v53.8c0,8.2,6.7,14.8,14.8,14.8h165c8.2,0,14.8-6.7,14.8-14.8
				V75.4C323.9,67.2,317.3,60.5,309.1,60.5z"/>
			<linearGradient id="SVGID_35_" gradientUnits="userSpaceOnUse" x1="131.7384" y1="102.2693" x2="321.4381" y2="102.2693">
				<stop  offset="0" style="stop-color:#222222"/>
				<stop  offset="1" style="stop-color:#0D0E0E"/>
			</linearGradient>
			<path class="st41" d="M309.1,63h-165c-6.8,0-12.3,5.5-12.3,12.3v53.8c0,6.8,5.5,12.3,12.3,12.3h165c6.8,0,12.3-5.5,12.3-12.3
				V75.4C321.4,68.6,315.9,63,309.1,63z"/>
			<linearGradient id="SVGID_36_" gradientUnits="userSpaceOnUse" x1="136.2384" y1="102.2693" x2="316.9381" y2="102.2693">
				<stop  offset="0" style="stop-color:#0D0E0E"/>
				<stop  offset="1" style="stop-color:#222222"/>
			</linearGradient>
			<path class="st42" d="M309.1,67.5h-165c-4.3,0-7.8,3.5-7.8,7.8v53.8c0,4.3,3.5,7.8,7.8,7.8h165c4.3,0,7.8-3.5,7.8-7.8V75.4
				C316.9,71,313.4,67.5,309.1,67.5z"/>
			<path class="st5" d="M309.1,134c2.7,0,4.8-2.2,4.8-4.8V75.4c0-2.7-2.2-4.8-4.8-4.8h-165c-2.7,0-4.8,2.2-4.8,4.8v53.8
				c0,2.7,2.2,4.8,4.8,4.8H309.1z"/>
		</g>
		<rect x="207" y="98.7" style="fill:none;" width="102.9" height="31.7"/>
		<text transform="matrix(1 0 0 1 207.0133 102.9315)"><tspan x="0" y="0" class="st9" style="font-family:'Roboto-Regular'; font-size:5.5115px;">Lorem</tspan><tspan x="15.8" y="0" class="st9" style="font-family:'Roboto-Regular'; font-size:5.5115px;"> </tspan><tspan x="17.7" y="0" class="st9" style="font-family:'Roboto-Regular'; font-size:5.5115px;">ipsum</tspan><tspan x="33.1" y="0" class="st9" style="font-family:'Roboto-Regular'; font-size:5.5115px;"> </tspan><tspan x="35" y="0" class="st9" style="font-family:'Roboto-Regular'; font-size:5.5115px;">dolor</tspan><tspan x="47.8" y="0" class="st9" style="font-family:'Roboto-Regular'; font-size:5.5115px;"> </tspan><tspan x="49.7" y="0" class="st9" style="font-family:'Roboto-Regular'; font-size:5.5115px;">sit</tspan><tspan x="55.8" y="0" class="st9" style="font-family:'Roboto-Regular'; font-size:5.5115px;"> </tspan><tspan x="57.8" y="0" class="st9" style="font-family:'Roboto-Regular'; font-size:5.5115px;">amet,</tspan><tspan x="71.5" y="0" class="st9" style="font-family:'Roboto-Regular'; font-size:5.5115px;"> </tspan><tspan x="73.4" y="0" class="st9" style="font-family:'Roboto-Regular'; font-size:5.5115px;">consectetur </tspan><tspan x="0" y="6.6" class="st9" style="font-family:'Roboto-Regular'; font-size:5.5115px;">adipiscing</tspan><tspan x="25.5" y="6.6" class="st9" style="font-family:'Roboto-Regular'; font-size:5.5115px; letter-spacing:1;"> </tspan><tspan x="28.4" y="6.6" class="st9" style="font-family:'Roboto-Regular'; font-size:5.5115px;">elit,</tspan><tspan x="37" y="6.6" class="st9" style="font-family:'Roboto-Regular'; font-size:5.5115px; letter-spacing:1;"> </tspan><tspan x="39.9" y="6.6" class="st9" style="font-family:'Roboto-Regular'; font-size:5.5115px;">sed</tspan><tspan x="48.8" y="6.6" class="st9" style="font-family:'Roboto-Regular'; font-size:5.5115px; letter-spacing:1;"> </tspan><tspan x="51.7" y="6.6" class="st9" style="font-family:'Roboto-Regular'; font-size:5.5115px;">do</tspan><tspan x="58" y="6.6" class="st9" style="font-family:'Roboto-Regular'; font-size:5.5115px; letter-spacing:1;"> </tspan><tspan x="60.9" y="6.6" class="st9" style="font-family:'Roboto-Regular'; font-size:5.5115px;">eiusmod</tspan><tspan x="82.2" y="6.6" class="st9" style="font-family:'Roboto-Regular'; font-size:5.5115px; letter-spacing:1;"> </tspan><tspan x="85.1" y="6.6" class="st9" style="font-family:'Roboto-Regular'; font-size:5.5115px;">tempor </tspan><tspan x="0" y="13.2" class="st9" style="font-family:'Roboto-Regular'; font-size:5.5115px;">incididunt</tspan><tspan x="24.6" y="13.2" class="st9" style="font-family:'Roboto-Regular'; font-size:5.5115px; letter-spacing:2;"> </tspan><tspan x="28.6" y="13.2" class="st9" style="font-family:'Roboto-Regular'; font-size:5.5115px;">ut</tspan><tspan x="33.6" y="13.2" class="st9" style="font-family:'Roboto-Regular'; font-size:5.5115px; letter-spacing:2;"> </tspan><tspan x="37.7" y="13.2" class="st9" style="font-family:'Roboto-Regular'; font-size:5.5115px;">labore</tspan><tspan x="53.2" y="13.2" class="st9" style="font-family:'Roboto-Regular'; font-size:5.5115px; letter-spacing:2;"> </tspan><tspan x="57.3" y="13.2" class="st9" style="font-family:'Roboto-Regular'; font-size:5.5115px;">et</tspan><tspan x="62" y="13.2" class="st9" style="font-family:'Roboto-Regular'; font-size:5.5115px; letter-spacing:2;"> </tspan><tspan x="66.1" y="13.2" class="st9" style="font-family:'Roboto-Regular'; font-size:5.5115px;">dolore</tspan><tspan x="81.7" y="13.2" class="st9" style="font-family:'Roboto-Regular'; font-size:5.5115px; letter-spacing:2;"> </tspan><tspan x="85.7" y="13.2" class="st9" style="font-family:'Roboto-Regular'; font-size:5.5115px;">magna </tspan><tspan x="0" y="19.8" class="st9" style="font-family:'Roboto-Regular'; font-size:5.5115px;">aliqua.</tspan><tspan x="16.6" y="19.8" class="st9" style="font-family:'Roboto-Regular'; font-size:5.5115px; letter-spacing:1;"> </tspan><tspan x="19.4" y="19.8" class="st9" style="font-family:'Roboto-Regular'; font-size:5.5115px;">Ut</tspan><tspan x="25" y="19.8" class="st9" style="font-family:'Roboto-Regular'; font-size:5.5115px; letter-spacing:1;"> </tspan><tspan x="27.9" y="19.8" class="st9" style="font-family:'Roboto-Regular'; font-size:5.5115px;">enim</tspan><tspan x="40.1" y="19.8" class="st9" style="font-family:'Roboto-Regular'; font-size:5.5115px; letter-spacing:1;"> </tspan><tspan x="43" y="19.8" class="st9" style="font-family:'Roboto-Regular'; font-size:5.5115px;">ad</tspan><tspan x="49.1" y="19.8" class="st9" style="font-family:'Roboto-Regular'; font-size:5.5115px; letter-spacing:1;"> </tspan><tspan x="52" y="19.8" class="st9" style="font-family:'Roboto-Regular'; font-size:5.5115px;">minim</tspan><tspan x="67.5" y="19.8" class="st9" style="font-family:'Roboto-Regular'; font-size:5.5115px; letter-spacing:1;"> </tspan><tspan x="70.4" y="19.8" class="st9" style="font-family:'Roboto-Regular'; font-size:5.5115px;">veniam,</tspan><tspan x="89.5" y="19.8" class="st9" style="font-family:'Roboto-Regular'; font-size:5.5115px; letter-spacing:1;"> </tspan><tspan x="92.3" y="19.8" class="st9" style="font-family:'Roboto-Regular'; font-size:5.5115px;">quis </tspan><tspan x="0" y="26.5" class="st9" style="font-family:'Roboto-Regular'; font-size:5.5115px;">nostrud</tspan><tspan x="19.2" y="26.5" class="st9" style="font-family:'Roboto-Regular'; font-size:5.5115px;"> </tspan><tspan x="21.5" y="26.5" class="st9" style="font-family:'Roboto-Regular'; font-size:5.5115px;">exercitation</tspan><tspan x="50.6" y="26.5" class="st9" style="font-family:'Roboto-Regular'; font-size:5.5115px;"> </tspan><tspan x="52.9" y="26.5" class="st9" style="font-family:'Roboto-Regular'; font-size:5.5115px;">ullamco</tspan><tspan x="72.7" y="26.5" class="st9" style="font-family:'Roboto-Regular'; font-size:5.5115px;"> </tspan><tspan x="74.9" y="26.5" class="st9" style="font-family:'Roboto-Regular'; font-size:5.5115px;">laboris</tspan><tspan x="91.8" y="26.5" class="st9" style="font-family:'Roboto-Regular'; font-size:5.5115px;"> </tspan><tspan x="94.1" y="26.5" class="st9" style="font-family:'Roboto-Regular'; font-size:5.5115px;">nisi </tspan></text>
		<rect x="207" y="73.7" style="fill:none;" width="102.9" height="21.2"/>
		<text transform="matrix(1 0 0 1 207.0133 80.3685)"><tspan x="0" y="0" class="st9" style="font-family:'Roboto-Bold'; font-size:8.8184px;">Lorem ipsum dolor sit </tspan><tspan x="0" y="10.6" class="st9" style="font-family:'Roboto-Bold'; font-size:8.8184px;">amet, consectetur </tspan></text>
		<g>
			<g>
				<path class="st9" d="M188.2,60.5h-44c-8.2,0-14.8,6.7-14.8,14.8v53.8c0,8.2,6.7,14.8,14.8,14.8h44c8.2,0,14.8-6.7,14.8-14.8
					V75.4C203,67.2,196.3,60.5,188.2,60.5z"/>
				<linearGradient id="SVGID_37_" gradientUnits="userSpaceOnUse" x1="131.8078" y1="102.2693" x2="200.5075" y2="102.2693">
					<stop  offset="0" style="stop-color:#B3DEE9;stop-opacity:0.9"/>
					<stop  offset="1" style="stop-color:#3490CF"/>
				</linearGradient>
				<path class="st43" d="M188.2,63h-44c-6.8,0-12.3,5.5-12.3,12.3v53.8c0,6.8,5.5,12.3,12.3,12.3h44c6.8,0,12.3-5.5,12.3-12.3V75.4
					C200.5,68.6,195,63,188.2,63z"/>
				<linearGradient id="SVGID_38_" gradientUnits="userSpaceOnUse" x1="136.3078" y1="102.2693" x2="196.0075" y2="102.2693">
					<stop  offset="0" style="stop-color:#3490CF"/>
					<stop  offset="1" style="stop-color:#B3DEE9;stop-opacity:0.9"/>
				</linearGradient>
				<path class="st44" d="M188.2,67.5h-44c-4.3,0-7.8,3.5-7.8,7.8v53.8c0,4.3,3.5,7.8,7.8,7.8h44c4.3,0,7.8-3.5,7.8-7.8V75.4
					C196,71,192.5,67.5,188.2,67.5z"/>
				<path class="st5" d="M188.2,134c2.7,0,4.8-2.2,4.8-4.8V75.4c0-2.7-2.2-4.8-4.8-4.8h-44c-2.7,0-4.8,2.2-4.8,4.8v53.8
					c0,2.7,2.2,4.8,4.8,4.8H188.2z"/>
			</g>
			<path class="st30" d="M151,107.8h7.5l0.2,4.7l7.7,2.6l7.7-2.6l0.6-8.4H158l-0.4-7.5h17.2l0.6-7.5h-25.7l-0.6-7.5h34.1l-0.9,14.9
				L181,118l-14.7,4.9l-14.7-4.9L151,107.8z"/>
		</g>
	</g>
	<g class="st1">
		<g>
			<path class="st9" d="M309.1,165.3h-165c-8.2,0-14.8,6.7-14.8,14.8v53.8c0,8.2,6.7,14.8,14.8,14.8h165c8.2,0,14.8-6.7,14.8-14.8
				v-53.8C323.9,172,317.3,165.3,309.1,165.3z"/>
			<linearGradient id="SVGID_39_" gradientUnits="userSpaceOnUse" x1="131.7384" y1="207.0349" x2="321.4381" y2="207.0349">
				<stop  offset="0" style="stop-color:#222222"/>
				<stop  offset="1" style="stop-color:#0D0E0E"/>
			</linearGradient>
			<path class="st45" d="M309.1,167.8h-165c-6.8,0-12.3,5.5-12.3,12.3v53.8c0,6.8,5.5,12.3,12.3,12.3h165c6.8,0,12.3-5.5,12.3-12.3
				v-53.8C321.4,173.3,315.9,167.8,309.1,167.8z"/>
			<linearGradient id="SVGID_40_" gradientUnits="userSpaceOnUse" x1="136.2384" y1="207.0349" x2="316.9381" y2="207.0349">
				<stop  offset="0" style="stop-color:#0D0E0E"/>
				<stop  offset="1" style="stop-color:#222222"/>
			</linearGradient>
			<path class="st46" d="M309.1,172.3h-165c-4.3,0-7.8,3.5-7.8,7.8v53.8c0,4.3,3.5,7.8,7.8,7.8h165c4.3,0,7.8-3.5,7.8-7.8v-53.8
				C316.9,175.8,313.4,172.3,309.1,172.3z"/>
			<path class="st5" d="M309.1,238.8c2.7,0,4.8-2.2,4.8-4.8v-53.8c0-2.7-2.2-4.8-4.8-4.8h-165c-2.7,0-4.8,2.2-4.8,4.8v53.8
				c0,2.7,2.2,4.8,4.8,4.8H309.1z"/>
		</g>
		<rect x="207" y="203.5" style="fill:none;" width="102.9" height="31.7"/>
		<text transform="matrix(1 0 0 1 207.0133 207.6972)"><tspan x="0" y="0" class="st9" style="font-family:'Roboto-Regular'; font-size:5.5115px;">Lorem</tspan><tspan x="15.8" y="0" class="st9" style="font-family:'Roboto-Regular'; font-size:5.5115px;"> </tspan><tspan x="17.7" y="0" class="st9" style="font-family:'Roboto-Regular'; font-size:5.5115px;">ipsum</tspan><tspan x="33.1" y="0" class="st9" style="font-family:'Roboto-Regular'; font-size:5.5115px;"> </tspan><tspan x="35" y="0" class="st9" style="font-family:'Roboto-Regular'; font-size:5.5115px;">dolor</tspan><tspan x="47.8" y="0" class="st9" style="font-family:'Roboto-Regular'; font-size:5.5115px;"> </tspan><tspan x="49.7" y="0" class="st9" style="font-family:'Roboto-Regular'; font-size:5.5115px;">sit</tspan><tspan x="55.8" y="0" class="st9" style="font-family:'Roboto-Regular'; font-size:5.5115px;"> </tspan><tspan x="57.8" y="0" class="st9" style="font-family:'Roboto-Regular'; font-size:5.5115px;">amet,</tspan><tspan x="71.5" y="0" class="st9" style="font-family:'Roboto-Regular'; font-size:5.5115px;"> </tspan><tspan x="73.4" y="0" class="st9" style="font-family:'Roboto-Regular'; font-size:5.5115px;">consectetur </tspan><tspan x="0" y="6.6" class="st9" style="font-family:'Roboto-Regular'; font-size:5.5115px;">adipiscing</tspan><tspan x="25.5" y="6.6" class="st9" style="font-family:'Roboto-Regular'; font-size:5.5115px; letter-spacing:1;"> </tspan><tspan x="28.4" y="6.6" class="st9" style="font-family:'Roboto-Regular'; font-size:5.5115px;">elit,</tspan><tspan x="37" y="6.6" class="st9" style="font-family:'Roboto-Regular'; font-size:5.5115px; letter-spacing:1;"> </tspan><tspan x="39.9" y="6.6" class="st9" style="font-family:'Roboto-Regular'; font-size:5.5115px;">sed</tspan><tspan x="48.8" y="6.6" class="st9" style="font-family:'Roboto-Regular'; font-size:5.5115px; letter-spacing:1;"> </tspan><tspan x="51.7" y="6.6" class="st9" style="font-family:'Roboto-Regular'; font-size:5.5115px;">do</tspan><tspan x="58" y="6.6" class="st9" style="font-family:'Roboto-Regular'; font-size:5.5115px; letter-spacing:1;"> </tspan><tspan x="60.9" y="6.6" class="st9" style="font-family:'Roboto-Regular'; font-size:5.5115px;">eiusmod</tspan><tspan x="82.2" y="6.6" class="st9" style="font-family:'Roboto-Regular'; font-size:5.5115px; letter-spacing:1;"> </tspan><tspan x="85.1" y="6.6" class="st9" style="font-family:'Roboto-Regular'; font-size:5.5115px;">tempor </tspan><tspan x="0" y="13.2" class="st9" style="font-family:'Roboto-Regular'; font-size:5.5115px;">incididunt</tspan><tspan x="24.6" y="13.2" class="st9" style="font-family:'Roboto-Regular'; font-size:5.5115px; letter-spacing:2;"> </tspan><tspan x="28.6" y="13.2" class="st9" style="font-family:'Roboto-Regular'; font-size:5.5115px;">ut</tspan><tspan x="33.6" y="13.2" class="st9" style="font-family:'Roboto-Regular'; font-size:5.5115px; letter-spacing:2;"> </tspan><tspan x="37.7" y="13.2" class="st9" style="font-family:'Roboto-Regular'; font-size:5.5115px;">labore</tspan><tspan x="53.2" y="13.2" class="st9" style="font-family:'Roboto-Regular'; font-size:5.5115px; letter-spacing:2;"> </tspan><tspan x="57.3" y="13.2" class="st9" style="font-family:'Roboto-Regular'; font-size:5.5115px;">et</tspan><tspan x="62" y="13.2" class="st9" style="font-family:'Roboto-Regular'; font-size:5.5115px; letter-spacing:2;"> </tspan><tspan x="66.1" y="13.2" class="st9" style="font-family:'Roboto-Regular'; font-size:5.5115px;">dolore</tspan><tspan x="81.7" y="13.2" class="st9" style="font-family:'Roboto-Regular'; font-size:5.5115px; letter-spacing:2;"> </tspan><tspan x="85.7" y="13.2" class="st9" style="font-family:'Roboto-Regular'; font-size:5.5115px;">magna </tspan><tspan x="0" y="19.8" class="st9" style="font-family:'Roboto-Regular'; font-size:5.5115px;">aliqua.</tspan><tspan x="16.6" y="19.8" class="st9" style="font-family:'Roboto-Regular'; font-size:5.5115px; letter-spacing:1;"> </tspan><tspan x="19.4" y="19.8" class="st9" style="font-family:'Roboto-Regular'; font-size:5.5115px;">Ut</tspan><tspan x="25" y="19.8" class="st9" style="font-family:'Roboto-Regular'; font-size:5.5115px; letter-spacing:1;"> </tspan><tspan x="27.9" y="19.8" class="st9" style="font-family:'Roboto-Regular'; font-size:5.5115px;">enim</tspan><tspan x="40.1" y="19.8" class="st9" style="font-family:'Roboto-Regular'; font-size:5.5115px; letter-spacing:1;"> </tspan><tspan x="43" y="19.8" class="st9" style="font-family:'Roboto-Regular'; font-size:5.5115px;">ad</tspan><tspan x="49.1" y="19.8" class="st9" style="font-family:'Roboto-Regular'; font-size:5.5115px; letter-spacing:1;"> </tspan><tspan x="52" y="19.8" class="st9" style="font-family:'Roboto-Regular'; font-size:5.5115px;">minim</tspan><tspan x="67.5" y="19.8" class="st9" style="font-family:'Roboto-Regular'; font-size:5.5115px; letter-spacing:1;"> </tspan><tspan x="70.4" y="19.8" class="st9" style="font-family:'Roboto-Regular'; font-size:5.5115px;">veniam,</tspan><tspan x="89.5" y="19.8" class="st9" style="font-family:'Roboto-Regular'; font-size:5.5115px; letter-spacing:1;"> </tspan><tspan x="92.3" y="19.8" class="st9" style="font-family:'Roboto-Regular'; font-size:5.5115px;">quis </tspan><tspan x="0" y="26.5" class="st9" style="font-family:'Roboto-Regular'; font-size:5.5115px;">nostrud</tspan><tspan x="19.2" y="26.5" class="st9" style="font-family:'Roboto-Regular'; font-size:5.5115px;"> </tspan><tspan x="21.5" y="26.5" class="st9" style="font-family:'Roboto-Regular'; font-size:5.5115px;">exercitation</tspan><tspan x="50.6" y="26.5" class="st9" style="font-family:'Roboto-Regular'; font-size:5.5115px;"> </tspan><tspan x="52.9" y="26.5" class="st9" style="font-family:'Roboto-Regular'; font-size:5.5115px;">ullamco</tspan><tspan x="72.7" y="26.5" class="st9" style="font-family:'Roboto-Regular'; font-size:5.5115px;"> </tspan><tspan x="74.9" y="26.5" class="st9" style="font-family:'Roboto-Regular'; font-size:5.5115px;">laboris</tspan><tspan x="91.8" y="26.5" class="st9" style="font-family:'Roboto-Regular'; font-size:5.5115px;"> </tspan><tspan x="94.1" y="26.5" class="st9" style="font-family:'Roboto-Regular'; font-size:5.5115px;">nisi </tspan></text>
		<rect x="207" y="178.4" style="fill:none;" width="102.9" height="21.2"/>
		<text transform="matrix(1 0 0 1 207.0133 185.1342)"><tspan x="0" y="0" class="st9" style="font-family:'Roboto-Bold'; font-size:8.8184px;">Lorem ipsum dolor sit </tspan><tspan x="0" y="10.6" class="st9" style="font-family:'Roboto-Bold'; font-size:8.8184px;">amet, consectetur </tspan></text>
		<g>
			<g>
				<path class="st9" d="M188.1,165.3h-44c-8.2,0-14.8,6.7-14.8,14.8v53.8c0,8.2,6.7,14.8,14.8,14.8h44c8.2,0,14.8-6.7,14.8-14.8
					v-53.8C202.9,172,196.3,165.3,188.1,165.3z"/>
				<linearGradient id="SVGID_41_" gradientUnits="userSpaceOnUse" x1="131.7384" y1="207.0349" x2="200.4381" y2="207.0349">
					<stop  offset="0" style="stop-color:#FFDFA1"/>
					<stop  offset="1" style="stop-color:#FBBE43"/>
				</linearGradient>
				<path class="st47" d="M188.1,167.8h-44c-6.8,0-12.3,5.5-12.3,12.3v53.8c0,6.8,5.5,12.3,12.3,12.3h44c6.8,0,12.3-5.5,12.3-12.3
					v-53.8C200.4,173.3,194.9,167.8,188.1,167.8z"/>
				<linearGradient id="SVGID_42_" gradientUnits="userSpaceOnUse" x1="136.2384" y1="207.0349" x2="195.9381" y2="207.0349">
					<stop  offset="0" style="stop-color:#FBBE43"/>
					<stop  offset="1" style="stop-color:#FFDFA1"/>
				</linearGradient>
				<path class="st48" d="M188.1,172.3h-44c-4.3,0-7.8,3.5-7.8,7.8v53.8c0,4.3,3.5,7.8,7.8,7.8h44c4.3,0,7.8-3.5,7.8-7.8v-53.8
					C195.9,175.8,192.4,172.3,188.1,172.3z"/>
				<path class="st5" d="M188.1,238.8c2.7,0,4.8-2.2,4.8-4.8v-53.8c0-2.7-2.2-4.8-4.8-4.8h-44c-2.7,0-4.8,2.2-4.8,4.8v53.8
					c0,2.7,2.2,4.8,4.8,4.8H188.1z"/>
			</g>
			<g>
				<polygon class="st9" points="187.4,186.5 186.8,192.8 174.8,192.8 174.8,205.5 185.9,203.9 184.2,223.2 168.5,227.5 
					168.5,220.3 179.1,217.4 179.5,211.5 168.5,213.3 168.5,186.5 				"/>
				<polygon class="st9" points="162.1,186.5 162.1,227.5 144.8,222.7 144.8,214.9 155.8,218 155.8,186.5 				"/>
			</g>
		</g>
	</g>
</g>
<g id="Boton_Search_e_Voltar" class="st0">
	<g class="st1">
		<circle class="st9" cx="160.1" cy="74.7" r="14.3"/>
		
			<linearGradient id="SVGID_43_" gradientUnits="userSpaceOnUse" x1="146.7758" y1="-828.574" x2="173.431" y2="-828.574" gradientTransform="matrix(1 0 0 -1 0 -753.8898)">
			<stop  offset="0" style="stop-color:#EF7852"/>
			<stop  offset="1" style="stop-color:#EB5C2C"/>
		</linearGradient>
		<circle class="st49" cx="160.1" cy="74.7" r="13.3"/>
		
			<linearGradient id="SVGID_44_" gradientUnits="userSpaceOnUse" x1="148.997" y1="-828.574" x2="171.2098" y2="-828.574" gradientTransform="matrix(1 0 0 -1 0 -753.8898)">
			<stop  offset="0" style="stop-color:#EB5C2C"/>
			<stop  offset="1" style="stop-color:#EF7852"/>
		</linearGradient>
		<path class="st50" d="M160.1,85.8c-6.1,0-11.1-5-11.1-11.1c0-6.1,5-11.1,11.1-11.1c6.1,0,11.1,5,11.1,11.1
			C171.2,80.8,166.2,85.8,160.1,85.8z"/>
		<path class="st9" d="M158.1,69.5c0.1-0.1,0.2-0.3,0.3-0.2c0.1,0.1,0.1,0.2,0.1,0.4c0,0.9,0,1.9,0,2.8c0,0.3,0.1,0.4,0.4,0.5
			c2.6,0.2,5,1.1,7.1,2.7c0.4,0.4,0.8,0.8,1.1,1.3c0.1,0.2,0.2,0.4,0.1,0.5c-0.2,0.2-0.4,0.1-0.5,0c-0.9-0.4-1.7-0.8-2.6-0.9
			c-1.7-0.3-3.4-0.2-5.1-0.1c-0.3,0-0.3,0.2-0.3,0.4c-0.1,1.1-0.1,2.2-0.2,3.3c-0.2,0-0.3-0.2-0.3-0.2c-1.6-1.6-3.2-3.3-4.8-4.9
			c-0.3-0.3-0.3-0.4,0-0.7C154.8,72.7,156.4,71.1,158.1,69.5z"/>
	</g>
	<g class="st1">
		<g>
			<g>
				<path class="st9" d="M310.2,60.4H199.7c-7.1,0-12.8,6.4-12.8,14.3v0c0,7.9,5.7,14.3,12.8,14.3h110.5c7.1,0,12.8-6.4,12.8-14.3v0
					C323,66.8,317.2,60.4,310.2,60.4z"/>
				<linearGradient id="SVGID_45_" gradientUnits="userSpaceOnUse" x1="191.7754" y1="74.9713" x2="386.3712" y2="74.0867">
					<stop  offset="0" style="stop-color:#222222"/>
					<stop  offset="0.261" style="stop-color:#202021"/>
					<stop  offset="0.4177" style="stop-color:#1B1B1C"/>
					<stop  offset="0.5465" style="stop-color:#121213"/>
					<stop  offset="0.5899" style="stop-color:#0D0E0E"/>
				</linearGradient>
				<path class="st51" d="M310.1,61.2H199.8c-6.6,0-12,6-12,13.5v0c0,7.4,5.4,13.5,12,13.5h110.3c6.6,0,12-6,12-13.5v0
					C322.1,67.3,316.7,61.2,310.1,61.2z"/>
				<linearGradient id="SVGID_46_" gradientUnits="userSpaceOnUse" x1="189.6453" y1="74.6844" x2="337.5115" y2="74.6844">
					<stop  offset="0" style="stop-color:#0D0E0E"/>
					<stop  offset="5.068219e-02" style="stop-color:#111212"/>
					<stop  offset="0.2146" style="stop-color:#1B1B1C"/>
					<stop  offset="0.4115" style="stop-color:#202020"/>
					<stop  offset="0.727" style="stop-color:#222222"/>
				</linearGradient>
				<path class="st52" d="M320.2,74.7c0-6.4-4.6-11.6-10.2-11.6H199.9c-5.6,0-10.2,5.2-10.2,11.6c0,6.4,4.6,11.6,10.2,11.6H310
					C315.6,86.3,320.2,81.1,320.2,74.7z"/>
			</g>
			<g>
				<circle class="st9" cx="308.6" cy="74.7" r="14.3"/>
				
					<linearGradient id="SVGID_47_" gradientUnits="userSpaceOnUse" x1="295.3148" y1="-828.574" x2="321.9701" y2="-828.574" gradientTransform="matrix(1 0 0 -1 0 -753.8898)">
					<stop  offset="0" style="stop-color:#EF7852"/>
					<stop  offset="1" style="stop-color:#EB5C2C"/>
				</linearGradient>
				<circle class="st53" cx="308.6" cy="74.7" r="13.3"/>
				
					<linearGradient id="SVGID_48_" gradientUnits="userSpaceOnUse" x1="297.5361" y1="-828.574" x2="319.7488" y2="-828.574" gradientTransform="matrix(1 0 0 -1 0 -753.8898)">
					<stop  offset="0" style="stop-color:#EB5C2C"/>
					<stop  offset="1" style="stop-color:#EF7852"/>
				</linearGradient>
				<path class="st54" d="M308.6,85.8c-6.1,0-11.1-5-11.1-11.1c0-6.1,5-11.1,11.1-11.1c6.1,0,11.1,5,11.1,11.1
					C319.7,80.8,314.8,85.8,308.6,85.8z"/>
				<g>
					<path class="st9" d="M307.5,68.1c-3,0-5.4,2.4-5.4,5.4c0,3,2.4,5.4,5.4,5.4c3,0,5.4-2.4,5.4-5.4
						C312.9,70.5,310.5,68.1,307.5,68.1z M307.5,77c-2,0-3.5-1.6-3.5-3.5c0-2,1.6-3.5,3.5-3.5s3.5,1.6,3.5,3.5
						C311,75.5,309.4,77,307.5,77z"/>
					<path class="st9" d="M315,79.7l-1.9-1.9c-0.4-0.4-1-0.4-1.3,0c-0.4,0.4-0.4,1,0,1.3l1.9,1.9c0.4,0.4,1,0.4,1.3,0
						C315.4,80.7,315.4,80.1,315,79.7z"/>
				</g>
			</g>
		</g>
		<text transform="matrix(1.11 0 0 1 198.9283 77.6068)" class="st9" style="font-family:'Roboto-Thin'; font-size:10px;">Search</text>
	</g>
</g>
<g id="Botons_Like_e_Coments" class="st0">
	<g class="st1">
		<g>
			<circle class="st9" cx="301.6" cy="73.2" r="14.3"/>
			
				<linearGradient id="SVGID_49_" gradientUnits="userSpaceOnUse" x1="288.253" y1="-827.0663" x2="314.9083" y2="-827.0663" gradientTransform="matrix(1 0 0 -1 0 -753.8898)">
				<stop  offset="0" style="stop-color:#EF7852"/>
				<stop  offset="1" style="stop-color:#EB5C2C"/>
			</linearGradient>
			<circle class="st55" cx="301.6" cy="73.2" r="13.3"/>
			
				<linearGradient id="SVGID_50_" gradientUnits="userSpaceOnUse" x1="290.4742" y1="-827.0663" x2="312.687" y2="-827.0663" gradientTransform="matrix(1 0 0 -1 0 -753.8898)">
				<stop  offset="0" style="stop-color:#EB5C2C"/>
				<stop  offset="1" style="stop-color:#EF7852"/>
			</linearGradient>
			<path class="st56" d="M301.6,84.3c-6.1,0-11.1-5-11.1-11.1c0-6.1,5-11.1,11.1-11.1c6.1,0,11.1,5,11.1,11.1
				C312.7,79.3,307.7,84.3,301.6,84.3z"/>
			<path class="st9" d="M295.3,67.5v9.1h4l2.2,2.2l2.2-2.2h4v-9.1H295.3z M298.1,73c-0.5,0-1-0.4-1-1c0-0.5,0.4-1,1-1
				c0.5,0,1,0.4,1,1C299.1,72.6,298.6,73,298.1,73z M301.6,73c-0.5,0-1-0.4-1-1c0-0.5,0.4-1,1-1s1,0.4,1,1
				C302.5,72.6,302.1,73,301.6,73z M305.1,73c-0.5,0-1-0.4-1-1c0-0.5,0.4-1,1-1s1,0.4,1,1C306,72.6,305.6,73,305.1,73z"/>
		</g>
		<g>
			<circle class="st9" cx="211.6" cy="73.2" r="14.3"/>
			
				<linearGradient id="SVGID_51_" gradientUnits="userSpaceOnUse" x1="198.3024" y1="-827.0663" x2="224.9576" y2="-827.0663" gradientTransform="matrix(1 0 0 -1 0 -753.8898)">
				<stop  offset="0" style="stop-color:#EF7852"/>
				<stop  offset="1" style="stop-color:#EB5C2C"/>
			</linearGradient>
			<circle class="st57" cx="211.6" cy="73.2" r="13.3"/>
			
				<linearGradient id="SVGID_52_" gradientUnits="userSpaceOnUse" x1="200.5236" y1="-827.0663" x2="222.7364" y2="-827.0663" gradientTransform="matrix(1 0 0 -1 0 -753.8898)">
				<stop  offset="0" style="stop-color:#EB5C2C"/>
				<stop  offset="1" style="stop-color:#EF7852"/>
			</linearGradient>
			<path class="st58" d="M211.6,84.3c-6.1,0-11.1-5-11.1-11.1c0-6.1,5-11.1,11.1-11.1c6.1,0,11.1,5,11.1,11.1
				C222.7,79.3,217.8,84.3,211.6,84.3z"/>
			<polygon class="st9" points="210.2,74.4 206.4,74.4 206.4,71.7 210.2,71.7 210.2,67.6 213.1,67.6 213.1,71.7 216.9,71.7 
				216.9,74.4 213.1,74.4 213.1,78.8 210.2,78.8 			"/>
		</g>
		<g>
			<circle class="st9" cx="166.7" cy="73.2" r="14.3"/>
			
				<linearGradient id="SVGID_53_" gradientUnits="userSpaceOnUse" x1="153.327" y1="-827.0663" x2="179.9823" y2="-827.0663" gradientTransform="matrix(1 0 0 -1 0 -753.8898)">
				<stop  offset="0" style="stop-color:#EF7852"/>
				<stop  offset="1" style="stop-color:#EB5C2C"/>
			</linearGradient>
			<circle class="st59" cx="166.7" cy="73.2" r="13.3"/>
			
				<linearGradient id="SVGID_54_" gradientUnits="userSpaceOnUse" x1="155.5483" y1="-827.0663" x2="177.761" y2="-827.0663" gradientTransform="matrix(1 0 0 -1 0 -753.8898)">
				<stop  offset="0" style="stop-color:#EB5C2C"/>
				<stop  offset="1" style="stop-color:#EF7852"/>
			</linearGradient>
			<path class="st60" d="M166.7,84.3c-6.1,0-11.1-5-11.1-11.1c0-6.1,5-11.1,11.1-11.1c6.1,0,11.1,5,11.1,11.1
				C177.8,79.3,172.8,84.3,166.7,84.3z"/>
			<path class="st9" d="M164.6,68c0.1-0.1,0.2-0.3,0.3-0.2c0.1,0.1,0.1,0.2,0.1,0.4c0,0.9,0,1.9,0,2.8c0,0.3,0.1,0.4,0.4,0.5
				c2.6,0.2,5,1.1,7.1,2.7c0.4,0.4,0.8,0.8,1.1,1.3c0.1,0.2,0.2,0.4,0.1,0.5c-0.2,0.2-0.4,0.1-0.5,0c-0.9-0.4-1.7-0.8-2.6-0.9
				c-1.7-0.3-3.4-0.2-5.1-0.1c-0.3,0-0.3,0.2-0.3,0.4c-0.1,1.1-0.1,2.2-0.2,3.3c-0.2,0-0.3-0.2-0.3-0.2c-1.6-1.6-3.2-3.3-4.8-4.9
				c-0.3-0.3-0.3-0.4,0-0.7C161.4,71.2,163,69.6,164.6,68z"/>
		</g>
		<g>
			<circle class="st9" cx="256.6" cy="73.2" r="14.3"/>
			
				<linearGradient id="SVGID_55_" gradientUnits="userSpaceOnUse" x1="243.2777" y1="-827.0663" x2="269.933" y2="-827.0663" gradientTransform="matrix(1 0 0 -1 0 -753.8898)">
				<stop  offset="0" style="stop-color:#EF7852"/>
				<stop  offset="1" style="stop-color:#EB5C2C"/>
			</linearGradient>
			<circle class="st61" cx="256.6" cy="73.2" r="13.3"/>
			
				<linearGradient id="SVGID_56_" gradientUnits="userSpaceOnUse" x1="245.4989" y1="-827.0663" x2="267.7117" y2="-827.0663" gradientTransform="matrix(1 0 0 -1 0 -753.8898)">
				<stop  offset="0" style="stop-color:#EB5C2C"/>
				<stop  offset="1" style="stop-color:#EF7852"/>
			</linearGradient>
			<path class="st62" d="M256.6,84.3c-6.1,0-11.1-5-11.1-11.1c0-6.1,5-11.1,11.1-11.1c6.1,0,11.1,5,11.1,11.1
				C267.7,79.3,262.7,84.3,256.6,84.3z"/>
			<path class="st9" d="M258.6,66.8c-0.6-0.7-1.6-0.3-1.9,0.5c-0.2,0.6-0.5,1.4-0.8,1.9c-0.8,1.7-1.3,2.6-2.6,3.8
				c-0.2,0.2-0.4,0.3-0.7,0.4c-0.9,0.3-1.7,1.3-1.5,2.3l0.3,1.4c0.1,0.7,0.7,1.3,1.4,1.5l4.4,1.2c2,0.5,4-0.7,4.4-2.8l0.5-2.9
				c0.3-1.4-0.8-2.8-2.3-2.8h-0.7l0,0c0.1-0.3,0.1-0.8,0.2-1.2c0-0.5,0.1-1,0-1.5c0-0.5-0.1-1-0.4-1.3
				C258.8,67.1,258.7,66.9,258.6,66.8z"/>
		</g>
	</g>
</g>
<g id="Img_Html" class="st0">
	<g class="st1">
		
			<image style="overflow:visible;" width="1193" height="624" xlink:href="340F95D6.jpg"  transform="matrix(0.1296 0 0 0.1296 146.5972 100.9288)">
		</image>
		
			<image style="overflow:visible;" width="1193" height="624" xlink:href="340F95DA.jpg"  transform="matrix(0.1296 0 0 0.1296 181.656 100.9288)">
		</image>
		
			<image style="overflow:visible;" width="1193" height="624" xlink:href="340F95DD.jpg"  transform="matrix(0.1296 0 0 0.1296 161.4461 100.9288)">
		</image>
	</g>
</g>
</svg>
